# Blender 5.0.1
# www.blender.org
mtllib 91.mtl
o 91
v 0.002928 0.146005 0.238688
v -0.072966 0.146005 0.259023
v -0.128524 0.146005 0.314581
v -0.148860 0.146005 0.390475
v -0.128524 0.146005 0.466368
v -0.072966 0.146005 0.521926
v 0.002928 0.146005 0.542262
v 0.078821 0.146005 0.521926
v 0.134379 0.146005 0.466368
v 0.154715 0.146005 0.390475
v 0.134379 0.146005 0.314581
v 0.078821 0.146005 0.259023
v 0.002928 0.095784 0.311112
v -0.036754 0.095784 0.321745
v -0.065802 0.095784 0.350794
v -0.076435 0.095784 0.390475
v -0.065802 0.095784 0.430156
v -0.036754 0.095784 0.459205
v 0.002928 0.095784 0.469837
v 0.042609 0.095784 0.459205
v 0.071657 0.095784 0.430156
v 0.082290 0.095784 0.390475
v 0.071657 0.095784 0.350794
v 0.042609 0.095784 0.321745
v -0.222811 0.146005 0.559576
v -0.150143 -0.023595 0.635738
v -0.222811 -0.023595 0.559576
v -0.240523 0.146005 0.161984
v 0.269977 0.146005 0.194406
v -0.264122 0.146005 0.194406
v 0.246378 0.000000 0.161984
v 0.002928 -0.146911 0.238688
v -0.072966 -0.146911 0.259023
v -0.128524 -0.146911 0.314581
v -0.148860 -0.146911 0.390475
v -0.128524 -0.146911 0.466368
v -0.072966 -0.146911 0.521926
v 0.002928 -0.146911 0.542262
v 0.078821 -0.146911 0.521926
v 0.134379 -0.146911 0.466368
v 0.154715 -0.146911 0.390475
v 0.134379 -0.146911 0.314581
v 0.078821 -0.146911 0.259023
v 0.002928 -0.096690 0.311112
v -0.036754 -0.096690 0.321745
v -0.065802 -0.096690 0.350794
v -0.076435 -0.096690 0.390475
v -0.065802 -0.096690 0.430156
v -0.036754 -0.096690 0.459205
v 0.002928 -0.096690 0.469837
v 0.042609 -0.096690 0.459205
v 0.071657 -0.096690 0.430156
v 0.082290 -0.096690 0.390475
v 0.071657 -0.096690 0.350794
v 0.042609 -0.096690 0.321745
v -0.222811 -0.146911 0.559576
v -0.150143 -0.146911 0.635738
v 0.155998 -0.146911 0.635738
v 0.228666 -0.146911 0.559576
v -0.240523 -0.146911 0.161984
v -0.264122 -0.146911 0.194406
v -0.164664 0.146005 0.620519
v -0.150143 0.125860 0.635738
v 0.142062 0.146005 0.613144
v 0.228666 0.052555 0.559576
v 0.155998 0.070745 0.635738
v 0.234988 0.146005 0.503695
v 0.135658 0.116967 0.635738
v 0.269977 0.000000 0.194406
v 0.246378 -0.146911 0.161984
v 0.269978 -0.146911 0.194406
v 0.228666 -0.008594 0.559576
v 0.155998 -0.015738 0.635738
v -0.264122 0.000000 0.194406
v -0.240523 0.000000 0.161984
v -0.150143 0.094811 0.635738
v -0.222811 0.094811 0.559576
v -0.222811 -0.109407 0.559576
v -0.150143 -0.088044 0.635738
v -0.235542 0.079200 0.447041
v -0.040986 0.094811 0.635738
v -0.040986 -0.088044 0.635738
v -0.229808 -0.124564 0.497728
v -0.235542 -0.079394 0.447041
v -0.249919 -0.109407 0.572249
v -0.162282 -0.088044 0.664098
v -0.162282 0.094811 0.664098
v -0.249919 0.094811 0.572249
v -0.040986 -0.088044 0.664098
v -0.040986 0.094811 0.664098
v -0.257989 -0.124564 0.500916
v -0.263723 0.079200 0.450229
v -0.263723 -0.079394 0.450229
v 0.237842 0.145415 0.490793
v 0.237842 0.018780 0.490793
v 0.260091 0.145415 0.281794
v 0.260091 0.018780 0.281794
v 0.140844 0.145415 0.478458
v 0.163094 0.145415 0.269459
v 0.288292 0.018780 0.284796
v 0.266043 0.018780 0.493795
v 0.266043 0.176681 0.493795
v 0.288292 0.176681 0.284796
v 0.140844 0.176681 0.478458
v 0.163094 0.176681 0.269459
v 0.270209 0.086057 0.454661
v 0.278828 0.041397 0.373696
v 0.274937 0.167479 0.410252
v 0.283556 0.122819 0.329287
v 0.314542 0.167479 0.414468
v 0.309814 0.086057 0.458877
v 0.318433 0.041397 0.377912
v 0.323161 0.122819 0.333503
v 0.088410 0.446268 0.558986
v -0.193870 0.446718 0.425270
v -0.193864 0.446718 0.337390
v -0.081513 0.446718 0.214863
v -0.003945 0.447190 0.192852
v 0.084923 0.446718 0.204661
v 0.147935 0.446718 0.247636
v 0.191501 0.446718 0.330687
v 0.198406 0.446988 0.421634
v 0.160542 0.446718 0.500848
v 0.128366 0.473479 0.475792
v 0.160682 0.473479 0.410925
v 0.064706 0.473479 0.234958
v -0.066237 0.473479 0.246215
v -0.008117 0.473479 0.541509
v 0.142211 0.316926 0.489921
v 0.075704 0.316926 0.541498
v 0.044990 0.184050 0.476164
v -0.086091 0.184370 0.311669
v -0.075564 0.316926 0.227334
v -0.049494 0.183880 0.282652
v -0.005189 0.317264 0.213219
v -0.003935 0.183241 0.271810
v -0.006088 0.316926 0.561327
v -0.003165 0.183172 0.486169
v 0.075252 0.316926 0.219939
v 0.041296 0.183908 0.277986
v -0.085153 0.316926 0.544606
v 0.133873 0.316926 0.261699
v -0.144047 0.316926 0.493789
v -0.087124 0.184442 0.449050
v 0.172128 0.316926 0.333071
v 0.099041 0.183891 0.345801
v -0.175239 0.316926 0.420931
v -0.105722 0.183858 0.404776
v 0.174820 0.315725 0.412609
v -0.174935 0.316926 0.341577
v -0.003698 0.451061 0.578648
v -0.099474 0.450347 0.562062
v -0.148855 0.446718 0.265105
v -0.139626 0.316926 0.272219
v -0.169521 0.446748 0.498836
v 0.044990 0.104752 0.476164
v -0.003165 0.103874 0.486169
v -0.050617 0.104751 0.477922
v -0.050617 0.184050 0.477922
v -0.087124 0.105144 0.449050
v -0.105722 0.104560 0.404776
v -0.105415 0.104538 0.355317
v -0.105415 0.183836 0.355317
v -0.086091 0.105072 0.311669
v -0.049494 0.104582 0.282652
v -0.003935 0.103942 0.271810
v 0.041296 0.104610 0.277986
v 0.077884 0.105132 0.303085
v 0.077884 0.184431 0.303085
v 0.099041 0.104592 0.345801
v 0.101431 0.104590 0.397065
v 0.101431 0.183888 0.397065
v 0.082853 0.105148 0.444509
v 0.082853 0.184446 0.444509
v -0.094705 -0.446268 0.558986
v 0.187575 -0.446718 0.425270
v 0.187569 -0.446718 0.337390
v 0.075218 -0.446718 0.214863
v -0.002351 -0.447190 0.192852
v -0.091218 -0.446718 0.204661
v -0.154230 -0.446718 0.247636
v -0.197796 -0.446718 0.330687
v -0.204701 -0.446988 0.421634
v -0.166838 -0.446718 0.500848
v -0.166977 -0.473479 0.410925
v -0.005553 -0.471683 0.230132
v 0.059942 -0.473479 0.246215
v 0.148242 -0.473479 0.346035
v 0.148449 -0.473479 0.416156
v 0.072328 -0.473479 0.527061
v -0.148506 -0.316926 0.489921
v -0.082000 -0.316926 0.541498
v -0.051285 -0.184050 0.476164
v 0.079796 -0.184370 0.311669
v 0.069269 -0.316926 0.227334
v 0.043199 -0.183880 0.282652
v -0.001106 -0.317264 0.213219
v -0.002361 -0.183241 0.271810
v -0.000207 -0.316926 0.561327
v -0.003131 -0.183172 0.486169
v -0.081548 -0.316926 0.219939
v -0.047591 -0.183908 0.277986
v 0.078858 -0.316926 0.544606
v -0.140168 -0.316926 0.261699
v 0.137752 -0.316926 0.493789
v 0.080828 -0.184442 0.449050
v -0.178423 -0.316926 0.333071
v -0.105336 -0.183891 0.345801
v 0.168943 -0.316926 0.420931
v 0.099426 -0.183858 0.404776
v -0.181115 -0.315725 0.412609
v 0.168640 -0.316926 0.341577
v -0.002597 -0.451061 0.578648
v 0.093178 -0.450347 0.562062
v 0.142560 -0.446718 0.265105
v 0.133330 -0.316926 0.272219
v 0.111624 -0.473479 0.289113
v 0.163226 -0.446748 0.498836
v -0.051285 -0.086179 0.476164
v -0.003131 -0.085301 0.486169
v 0.044322 -0.086179 0.477922
v 0.044322 -0.184050 0.477922
v 0.080828 -0.086571 0.449050
v 0.099426 -0.085987 0.404776
v 0.099120 -0.085965 0.355317
v 0.099120 -0.183836 0.355317
v 0.079796 -0.086499 0.311669
v 0.043199 -0.086009 0.282652
v -0.002361 -0.085370 0.271810
v -0.047591 -0.086038 0.277986
v -0.084179 -0.086560 0.303085
v -0.084179 -0.184431 0.303085
v -0.105336 -0.086020 0.345801
v -0.107726 -0.086018 0.397065
v -0.107726 -0.183888 0.397065
v -0.089148 -0.086576 0.444509
v -0.089148 -0.184446 0.444509
v 0.151584 0.473479 0.334134
v 0.115003 0.473479 0.268869
v -0.000742 0.471683 0.230132
v -0.154538 0.473479 0.346035
v -0.154744 0.473479 0.416156
v -0.128589 0.473479 0.481184
v -0.078623 0.473479 0.527061
v 0.070974 0.473028 0.522401
v 0.073997 0.276192 0.421769
v 0.088964 0.276192 0.382892
v 0.077164 0.276192 0.327336
v -0.009361 0.276192 0.297927
v -0.072016 0.276192 0.376133
v -0.044849 0.276192 0.441483
v 0.025030 0.276192 0.454798
v -0.117919 0.473479 0.289113
v -0.054915 0.276192 0.324934
v 0.040972 0.276192 0.295404
v 0.145212 0.000000 0.161984
v 0.103934 0.099900 0.161984
v 0.145212 0.057855 0.161984
v 0.000000 0.099900 0.161984
v 0.000180 0.146005 0.161984
v 0.246378 0.146005 0.161984
v -0.145212 0.000000 0.161984
v -0.103934 0.099900 0.161984
v -0.145212 0.057855 0.161984
v 0.103934 -0.099900 0.161984
v 0.145212 -0.057855 0.161984
v 0.000000 -0.099900 0.161984
v -0.000168 -0.146911 0.161984
v -0.103934 -0.099900 0.161984
v -0.145212 -0.057855 0.161984
v -0.162641 -0.004211 0.664498
v -0.081226 -0.048871 0.663388
v -0.117985 0.077211 0.663889
v -0.036571 0.032551 0.662779
v -0.117442 0.077211 0.703714
v -0.162098 -0.004211 0.704323
v -0.080683 -0.048871 0.703213
v -0.036028 0.032551 0.702604
v -0.264590 -0.017328 0.447348
v -0.255790 -0.061988 0.528294
v -0.259763 0.064095 0.491746
v -0.250963 0.019435 0.572692
v -0.299359 0.064095 0.496051
v -0.304185 -0.017328 0.451653
v -0.295385 -0.061988 0.532598
v -0.290559 0.019435 0.576997
v -0.134661 -0.473479 0.475792
v -0.071000 -0.473478 0.234959
v 0.001822 -0.473479 0.541509
v -0.157879 -0.473478 0.334134
v -0.121299 -0.473478 0.268869
v 0.122294 -0.473479 0.481184
v -0.077270 -0.473028 0.522402
v -0.080077 -0.276192 0.421769
v -0.095044 -0.276192 0.382892
v -0.083244 -0.276192 0.327336
v 0.003281 -0.276192 0.297927
v 0.065936 -0.276192 0.376133
v 0.038769 -0.276192 0.441483
v -0.031109 -0.276192 0.454798
v 0.048835 -0.276192 0.324934
v -0.047052 -0.276192 0.295404
v 0.063822 0.063822 -0.264906
v -0.112962 0.112962 -0.184999
v 0.112962 0.112962 -0.184999
v 0.067781 0.067781 0.164235
v 0.112962 -0.112962 -0.184999
v 0.067781 -0.067781 0.164235
v 0.063822 -0.063822 -0.264906
v -0.063822 0.063822 -0.264906
v -0.067781 0.067781 0.164235
v -0.067781 -0.067781 0.164235
v -0.063822 -0.063822 -0.264906
v -0.112962 -0.112962 -0.184999
v -0.072966 0.146005 0.259023
v 0.002928 0.146005 0.238688
v -0.128524 0.146005 0.314581
v -0.148860 0.146005 0.390475
v -0.128524 0.146005 0.466368
v -0.072966 0.146005 0.521926
v 0.002928 0.146005 0.542262
v 0.078821 0.146005 0.521926
v 0.134379 0.146005 0.466368
v 0.154715 0.146005 0.390475
v 0.134379 0.146005 0.314581
v 0.078821 0.146005 0.259023
v -0.164664 0.146005 0.620519
v -0.164664 0.146005 0.620519
v -0.222811 0.146005 0.559576
v -0.222811 0.146005 0.559576
v -0.222811 -0.023595 0.559576
v -0.222811 -0.023595 0.559576
v -0.150143 -0.023595 0.635738
v -0.150143 -0.023595 0.635738
v -0.072966 -0.146911 0.259023
v 0.002928 -0.146911 0.238688
v -0.128524 -0.146911 0.314581
v -0.148860 -0.146911 0.390475
v -0.128524 -0.146911 0.466368
v -0.072966 -0.146911 0.521926
v 0.002928 -0.146911 0.542262
v 0.078821 -0.146911 0.521926
v 0.134379 -0.146911 0.466368
v 0.154715 -0.146911 0.390475
v 0.134379 -0.146911 0.314581
v 0.078821 -0.146911 0.259023
v 0.228666 -0.146911 0.559576
v 0.228666 -0.146911 0.559576
v 0.155998 -0.146911 0.635738
v 0.155998 -0.146911 0.635738
v -0.150143 -0.146911 0.635738
v -0.150143 -0.146911 0.635738
v -0.222811 -0.146911 0.559576
v -0.222811 -0.146911 0.559576
v -0.264122 -0.146911 0.194406
v -0.264122 -0.146911 0.194406
v -0.240523 -0.146911 0.161984
v -0.264122 0.000000 0.194406
v 0.269978 -0.146911 0.194406
v 0.269978 -0.146911 0.194406
v -0.150143 0.125860 0.635738
v -0.150143 0.125860 0.635738
v 0.135658 0.116967 0.635738
v 0.135658 0.116967 0.635738
v 0.269977 0.146005 0.194406
v 0.269977 0.146005 0.194406
v 0.234988 0.146005 0.503695
v 0.234988 0.146005 0.503695
v 0.142062 0.146005 0.613144
v 0.142062 0.146005 0.613144
v 0.155998 0.070745 0.635738
v 0.155998 0.070745 0.635738
v 0.228666 0.052555 0.559576
v 0.228666 0.052555 0.559576
v 0.269977 0.000000 0.194406
v 0.269977 0.000000 0.194406
v 0.246378 0.000000 0.161984
v 0.246378 0.000000 0.161984
v -0.264122 0.146005 0.194406
v -0.264122 0.146005 0.194406
v -0.240523 0.146005 0.161984
v 0.228666 -0.008594 0.559576
v 0.155998 -0.015738 0.635738
v 0.246378 -0.146911 0.161984
v 0.246378 -0.146911 0.161984
v -0.150143 -0.088044 0.635738
v -0.222811 -0.109407 0.559576
v -0.222811 0.094811 0.559576
v -0.150143 0.094811 0.635738
v -0.235542 0.079200 0.447041
v -0.040986 0.094811 0.635738
v -0.040986 -0.088044 0.635738
v -0.229808 -0.124564 0.497728
v -0.235542 -0.079394 0.447041
v -0.162282 -0.088044 0.664098
v -0.162282 -0.088044 0.664098
v -0.162282 -0.088044 0.664098
v -0.249919 -0.109407 0.572249
v -0.249919 -0.109407 0.572249
v -0.249919 -0.109407 0.572249
v -0.162282 0.094811 0.664098
v -0.162282 0.094811 0.664098
v -0.162282 0.094811 0.664098
v -0.249919 0.094811 0.572249
v -0.249919 0.094811 0.572249
v -0.249919 0.094811 0.572249
v -0.040986 -0.088044 0.664098
v -0.040986 -0.088044 0.664098
v -0.040986 0.094811 0.664098
v -0.040986 0.094811 0.664098
v -0.257989 -0.124564 0.500916
v -0.257989 -0.124564 0.500916
v -0.263723 0.079200 0.450229
v -0.263723 0.079200 0.450229
v -0.263723 -0.079394 0.450229
v -0.263723 -0.079394 0.450229
v 0.237842 0.018780 0.490793
v 0.237842 0.145415 0.490793
v 0.260091 0.145415 0.281794
v 0.260091 0.018780 0.281794
v 0.163094 0.145415 0.269459
v 0.140844 0.145415 0.478458
v 0.266043 0.018780 0.493795
v 0.266043 0.018780 0.493795
v 0.288292 0.018780 0.284796
v 0.288292 0.018780 0.284796
v 0.266043 0.176681 0.493795
v 0.266043 0.176681 0.493795
v 0.266043 0.176681 0.493795
v 0.288292 0.176681 0.284796
v 0.288292 0.176681 0.284796
v 0.288292 0.176681 0.284796
v 0.140844 0.176681 0.478458
v 0.140844 0.176681 0.478458
v 0.163094 0.176681 0.269459
v 0.163094 0.176681 0.269459
v 0.274937 0.167479 0.410252
v 0.270209 0.086057 0.454661
v 0.278828 0.041397 0.373696
v 0.283556 0.122819 0.329287
v 0.314542 0.167479 0.414468
v 0.314542 0.167479 0.414468
v 0.309814 0.086057 0.458877
v 0.309814 0.086057 0.458877
v 0.318433 0.041397 0.377912
v 0.318433 0.041397 0.377912
v 0.323161 0.122819 0.333503
v 0.323161 0.122819 0.333503
v -0.003698 0.451061 0.578648
v 0.088410 0.446268 0.558986
v 0.088410 0.446268 0.558986
v -0.193864 0.446718 0.337390
v -0.193870 0.446718 0.425270
v -0.003945 0.447190 0.192852
v -0.081513 0.446718 0.214863
v 0.084923 0.446718 0.204661
v 0.084923 0.446718 0.204661
v 0.084923 0.446718 0.204661
v 0.147935 0.446718 0.247636
v 0.191501 0.446718 0.330687
v 0.160542 0.446718 0.500848
v 0.128366 0.473479 0.475792
v 0.128366 0.473479 0.475792
v 0.160682 0.473479 0.410925
v 0.064706 0.473479 0.234958
v 0.064706 0.473479 0.234958
v 0.064706 0.473479 0.234958
v -0.087124 0.184442 0.449050
v -0.105722 0.183858 0.404776
v 0.075252 0.316926 0.219939
v 0.041296 0.183908 0.277986
v 0.041296 0.183908 0.277986
v -0.003935 0.183241 0.271810
v 0.075704 0.316926 0.541498
v 0.044990 0.184050 0.476164
v 0.044990 0.184050 0.476164
v -0.003165 0.183172 0.486169
v -0.049494 0.183880 0.282652
v -0.086091 0.184370 0.311669
v 0.198406 0.446988 0.421634
v 0.198406 0.446988 0.421634
v 0.174820 0.315725 0.412609
v -0.148855 0.446718 0.265105
v -0.148855 0.446718 0.265105
v -0.169521 0.446748 0.498836
v 0.082853 0.184446 0.444509
v 0.101431 0.183888 0.397065
v 0.101431 0.183888 0.397065
v -0.099474 0.450347 0.562062
v -0.105415 0.183836 0.355317
v 0.099041 0.183891 0.345801
v 0.077884 0.184431 0.303085
v -0.050617 0.184050 0.477922
v -0.002597 -0.451061 0.578648
v -0.094705 -0.446268 0.558986
v -0.094705 -0.446268 0.558986
v 0.187569 -0.446718 0.337390
v 0.187575 -0.446718 0.425270
v -0.002351 -0.447190 0.192852
v 0.075218 -0.446718 0.214863
v -0.091218 -0.446718 0.204661
v -0.091218 -0.446718 0.204661
v -0.091218 -0.446718 0.204661
v -0.154230 -0.446718 0.247636
v -0.197796 -0.446718 0.330687
v -0.166838 -0.446718 0.500848
v 0.148242 -0.473479 0.346035
v 0.148449 -0.473479 0.416156
v -0.005553 -0.471683 0.230132
v 0.059942 -0.473479 0.246215
v 0.080828 -0.184442 0.449050
v 0.099426 -0.183858 0.404776
v -0.081548 -0.316926 0.219939
v -0.047591 -0.183908 0.277986
v -0.047591 -0.183908 0.277986
v -0.002361 -0.183241 0.271810
v -0.082000 -0.316926 0.541498
v -0.051285 -0.184050 0.476164
v -0.051285 -0.184050 0.476164
v -0.003131 -0.183172 0.486169
v 0.043199 -0.183880 0.282652
v 0.079796 -0.184370 0.311669
v -0.204701 -0.446988 0.421634
v -0.204701 -0.446988 0.421634
v -0.181115 -0.315725 0.412609
v 0.111624 -0.473479 0.289113
v 0.111624 -0.473479 0.289113
v 0.111624 -0.473479 0.289113
v 0.142560 -0.446718 0.265105
v 0.142560 -0.446718 0.265105
v 0.163226 -0.446748 0.498836
v -0.089148 -0.184446 0.444509
v -0.107726 -0.183888 0.397065
v -0.107726 -0.183888 0.397065
v 0.093178 -0.450347 0.562062
v 0.099120 -0.183836 0.355317
v -0.105336 -0.183891 0.345801
v -0.084179 -0.184431 0.303085
v 0.044322 -0.184050 0.477922
v 0.025030 0.276192 0.454798
v 0.025030 0.276192 0.454798
v 0.073997 0.276192 0.421769
v 0.073997 0.276192 0.421769
v -0.154744 0.473479 0.416156
v -0.128589 0.473479 0.481184
v -0.078623 0.473479 0.527061
v -0.154538 0.473479 0.346035
v 0.151584 0.473479 0.334134
v 0.115003 0.473479 0.268869
v 0.088964 0.276192 0.382892
v -0.054915 0.276192 0.324934
v -0.054915 0.276192 0.324934
v -0.072016 0.276192 0.376133
v -0.117919 0.473479 0.289113
v -0.117919 0.473479 0.289113
v -0.117919 0.473479 0.289113
v -0.009361 0.276192 0.297927
v -0.044849 0.276192 0.441483
v 0.077164 0.276192 0.327336
v 0.040972 0.276192 0.295404
v 0.040972 0.276192 0.295404
v 0.145212 0.057855 0.161984
v 0.103934 0.099900 0.161984
v 0.145212 0.000000 0.161984
v 0.000000 0.099900 0.161984
v 0.000180 0.146005 0.161984
v 0.246378 0.146005 0.161984
v 0.246378 0.146005 0.161984
v -0.145212 0.057855 0.161984
v -0.103934 0.099900 0.161984
v -0.145212 0.000000 0.161984
v -0.000168 -0.146911 0.161984
v 0.145212 -0.057855 0.161984
v 0.103934 -0.099900 0.161984
v 0.000000 -0.099900 0.161984
v -0.145212 -0.057855 0.161984
v -0.103934 -0.099900 0.161984
v -0.162641 -0.004211 0.664498
v -0.117985 0.077211 0.663889
v -0.081226 -0.048871 0.663388
v -0.036571 0.032551 0.662779
v -0.117442 0.077211 0.703714
v -0.117442 0.077211 0.703714
v -0.162098 -0.004211 0.704323
v -0.162098 -0.004211 0.704323
v -0.080683 -0.048871 0.703213
v -0.080683 -0.048871 0.703213
v -0.036028 0.032551 0.702604
v -0.036028 0.032551 0.702604
v -0.264590 -0.017328 0.447348
v -0.259763 0.064095 0.491746
v -0.255790 -0.061988 0.528294
v -0.250963 0.019435 0.572692
v -0.299359 0.064095 0.496051
v -0.299359 0.064095 0.496051
v -0.304185 -0.017328 0.451653
v -0.304185 -0.017328 0.451653
v -0.295385 -0.061988 0.532598
v -0.295385 -0.061988 0.532598
v -0.290559 0.019435 0.576997
v -0.290559 0.019435 0.576997
v -0.008117 0.473479 0.541509
v -0.008117 0.473479 0.541509
v -0.000742 0.471683 0.230132
v 0.070974 0.473028 0.522401
v -0.066237 0.473479 0.246215
v -0.031109 -0.276192 0.454798
v -0.031109 -0.276192 0.454798
v -0.080077 -0.276192 0.421769
v -0.080077 -0.276192 0.421769
v -0.157879 -0.473478 0.334134
v -0.121299 -0.473478 0.268869
v -0.095044 -0.276192 0.382892
v 0.048835 -0.276192 0.324934
v 0.048835 -0.276192 0.324934
v 0.065936 -0.276192 0.376133
v 0.003281 -0.276192 0.297927
v 0.038769 -0.276192 0.441483
v -0.083244 -0.276192 0.327336
v -0.047052 -0.276192 0.295404
v -0.047052 -0.276192 0.295404
v -0.071000 -0.473478 0.234959
v -0.071000 -0.473478 0.234959
v -0.071000 -0.473478 0.234959
v 0.001822 -0.473479 0.541509
v 0.001822 -0.473479 0.541509
v -0.077270 -0.473028 0.522402
v -0.134661 -0.473479 0.475792
v -0.134661 -0.473479 0.475792
v -0.166977 -0.473479 0.410925
v 0.122294 -0.473479 0.481184
v 0.072328 -0.473479 0.527061
v 0.112962 0.112962 -0.184999
v 0.112962 0.112962 -0.184999
v 0.112962 0.112962 -0.184999
v -0.112962 0.112962 -0.184999
v -0.112962 0.112962 -0.184999
v -0.112962 0.112962 -0.184999
v -0.112962 -0.112962 -0.184999
v -0.112962 -0.112962 -0.184999
v -0.112962 -0.112962 -0.184999
v -0.063822 -0.063822 -0.264906
v -0.063822 -0.063822 -0.264906
v -0.067781 0.067781 0.164235
v -0.067781 -0.067781 0.164235
v -0.063822 0.063822 -0.264906
v -0.063822 0.063822 -0.264906
v 0.063822 0.063822 -0.264906
v 0.063822 0.063822 -0.264906
v 0.063822 -0.063822 -0.264906
v 0.063822 -0.063822 -0.264906
v 0.067781 0.067781 0.164235
v 0.112962 -0.112962 -0.184999
v 0.112962 -0.112962 -0.184999
v 0.112962 -0.112962 -0.184999
v 0.067781 -0.067781 0.164235
vn -0.9937 -0.0000 0.1124
vn 0.5698 0.8218 -0.0000
vn 0.4935 0.8218 0.2849
vn -0.4935 0.8218 0.2849
vn -0.5698 0.8218 -0.0000
vn -0.0000 0.8218 -0.5698
vn -0.2849 0.8218 -0.4935
vn 0.4935 0.8218 -0.2849
vn -0.2849 0.8218 0.4935
vn 0.2849 0.8218 0.4935
vn -0.0000 0.8218 0.5698
vn -0.4935 0.8218 -0.2849
vn 0.2849 0.8218 -0.4935
vn 0.8085 -0.0000 -0.5885
vn -0.0000 1.0000 -0.0000
vn 0.4935 -0.8218 0.2849
vn 0.5698 -0.8218 -0.0000
vn -0.5698 -0.8218 -0.0000
vn -0.4935 -0.8218 0.2849
vn -0.0000 -0.8218 -0.5698
vn -0.2849 -0.8218 -0.4935
vn 0.4935 -0.8218 -0.2849
vn -0.2849 -0.8218 0.4935
vn -0.0000 -0.8218 0.5698
vn 0.2849 -0.8218 0.4935
vn -0.4935 -0.8218 -0.2849
vn 0.2849 -0.8218 -0.4935
vn 0.7235 -0.0000 0.6903
vn -0.7235 -0.0000 0.6903
vn -0.0000 -0.0000 1.0000
vn -0.8085 -0.0000 -0.5885
vn -0.4536 -0.0000 -0.8912
vn -0.0000 -1.0000 -0.0000
vn 0.9937 -0.0000 0.1124
vn 0.7227 0.3180 0.6136
vn 0.0190 0.6114 0.7911
vn -0.4535 -0.0000 -0.8912
vn 0.1564 -0.9840 0.0853
vn 0.1035 -0.9805 0.1673
vn 0.0887 -0.9778 0.1897
vn -0.0510 0.9912 -0.1224
vn -0.0217 0.9908 -0.1333
vn -0.0563 0.9911 -0.1204
vn 0.0777 -0.9756 0.2055
vn 0.0440 -0.9733 0.2251
vn 0.0266 -0.9716 0.2351
vn 1.0000 -0.0000 -0.0000
vn -0.0745 -0.7487 -0.6587
vn -0.1124 -0.0000 -0.9937
vn 0.9944 -0.0000 0.1059
vn 0.1253 -0.0028 -0.9921
vn 0.1222 -0.0124 -0.9924
vn 0.1262 -0.0000 -0.9920
vn -0.9944 -0.0000 -0.1059
vn -0.1059 -0.0000 0.9944
vn -0.1222 0.0124 0.9924
vn -0.1253 0.0028 0.9921
vn -0.1262 -0.0000 0.9920
vn 0.1059 -0.0000 -0.9944
vn 0.0928 -0.4809 -0.8718
vn -0.0928 0.4809 0.8718
vn 0.0509 0.8768 -0.4782
vn -0.0509 -0.8768 0.4782
vn -0.4236 -0.1147 -0.8985
vn -0.0620 -0.2740 -0.9597
vn -0.3820 -0.2636 -0.8858
vn 0.7452 -0.3286 0.5803
vn 0.6149 -0.1569 0.7728
vn 0.5837 -0.3191 0.7467
vn -0.4506 0.8501 0.2727
vn -0.5395 0.8372 0.0889
vn -0.5477 0.8317 0.0910
vn -0.9312 -0.3157 0.1820
vn -0.9513 -0.1467 -0.2711
vn -0.9262 -0.2972 -0.2321
vn 0.9523 -0.1550 -0.2630
vn 0.9477 -0.3160 -0.0447
vn 0.9166 -0.3139 -0.2474
vn 0.7365 -0.1495 -0.6597
vn 0.7163 -0.3045 -0.6278
vn 0.5628 -0.1453 -0.8137
vn 0.5537 -0.2941 -0.7790
vn -0.0770 -0.1439 -0.9866
vn 0.0890 -0.2707 -0.9585
vn -0.3609 0.8068 -0.4677
vn -0.2595 0.8070 -0.5304
vn -0.3459 0.8157 -0.4636
vn -0.7308 -0.2716 -0.6262
vn -0.8646 -0.4627 -0.1960
vn 0.7023 -0.4894 0.5170
vn 0.8670 -0.3359 0.3681
vn -0.8642 -0.4728 0.1721
vn -0.7001 -0.4849 0.5241
vn -0.7592 -0.3276 0.5624
vn 0.8456 -0.4815 -0.2304
vn -0.4136 -0.3178 0.8532
vn 0.6658 -0.4656 -0.5830
vn -0.3591 -0.4954 0.7910
vn 0.0124 -0.3056 0.9521
vn 0.1130 -0.4019 -0.9087
vn 0.0211 -0.4859 0.8738
vn 0.2157 -0.3018 0.9287
vn -0.3962 -0.4111 -0.8210
vn -0.7035 -0.4382 -0.5594
vn 0.5466 0.8230 -0.1546
vn 0.5487 0.8307 0.0941
vn 0.5482 0.8290 0.1105
vn -0.5342 0.8322 -0.1488
vn 0.4288 0.8359 0.3427
vn 0.2510 0.8381 0.4844
vn 0.2554 0.8343 0.4886
vn -0.0651 0.8292 -0.5551
vn -0.0574 0.8272 -0.5590
vn 0.0679 0.7928 -0.6057
vn 0.0873 0.7748 -0.6261
vn 0.0253 0.8546 0.5187
vn -0.2169 0.8675 0.4477
vn -0.2372 0.8651 0.4419
vn 0.3329 0.8048 -0.4914
vn 0.4107 0.8213 -0.3960
vn 0.4306 0.8201 -0.3769
vn -0.4223 0.8572 0.2948
vn 0.5326 0.8266 -0.1818
vn 0.0149 -0.1427 0.9897
vn 0.8956 -0.1715 0.4104
vn 0.8743 -0.4837 -0.0396
vn 0.4289 0.8350 0.3447
vn -0.5289 0.8334 -0.1602
vn -0.4810 0.8218 -0.3055
vn -0.7423 -0.1063 -0.6616
vn -0.4285 -0.1591 0.8894
vn -0.8211 -0.1645 0.5465
vn 0.0164 -0.0000 0.9999
vn 0.4336 -0.0000 0.9011
vn 0.4374 -0.0000 0.8993
vn -0.4064 -0.0000 0.9137
vn -0.4103 -0.0000 0.9120
vn -0.7965 -0.0000 0.6047
vn -0.7961 -0.0000 0.6052
vn -0.9807 -0.0000 0.1953
vn -0.9776 -0.0000 -0.2106
vn -0.9811 -0.0000 0.1937
vn -0.7909 -0.0000 -0.6120
vn -0.7908 -0.0000 -0.6121
vn -0.4383 -0.0000 -0.8988
vn -0.0489 -0.0000 -0.9988
vn -0.4352 -0.0000 -0.9003
vn 0.3583 -0.0000 -0.9336
vn 0.3621 -0.0000 -0.9322
vn 0.7553 -0.0000 -0.6554
vn 0.9679 -0.0000 -0.2513
vn 0.9866 -0.0000 0.1633
vn 0.9683 -0.0000 -0.2498
vn 0.8118 -0.0000 0.5840
vn 0.8115 -0.0000 0.5844
vn 0.4236 0.1147 -0.8985
vn 0.0620 0.2740 -0.9597
vn 0.3820 0.2636 -0.8858
vn -0.7452 0.3286 0.5803
vn -0.6149 0.1569 0.7728
vn -0.5837 0.3191 0.7467
vn 0.4506 -0.8501 0.2727
vn 0.5395 -0.8372 0.0889
vn 0.5477 -0.8317 0.0910
vn 0.9312 0.3157 0.1820
vn 0.9513 0.1467 -0.2711
vn 0.9262 0.2972 -0.2321
vn -0.9523 0.1550 -0.2630
vn -0.9477 0.3160 -0.0447
vn -0.9166 0.3139 -0.2474
vn -0.7365 0.1495 -0.6597
vn -0.7163 0.3045 -0.6278
vn -0.5628 0.1453 -0.8137
vn -0.5537 0.2941 -0.7790
vn 0.0770 0.1439 -0.9866
vn -0.0890 0.2707 -0.9585
vn 0.3609 -0.8068 -0.4677
vn 0.2595 -0.8070 -0.5304
vn 0.3459 -0.8157 -0.4636
vn 0.7308 0.2716 -0.6262
vn 0.8646 0.4627 -0.1960
vn -0.7023 0.4894 0.5170
vn -0.8670 0.3359 0.3681
vn 0.8642 0.4728 0.1721
vn 0.7001 0.4849 0.5241
vn 0.7592 0.3276 0.5624
vn -0.8456 0.4815 -0.2304
vn 0.4136 0.3178 0.8532
vn -0.6658 0.4656 -0.5830
vn 0.3591 0.4954 0.7910
vn -0.0124 0.3056 0.9521
vn -0.1130 0.4019 -0.9087
vn -0.0211 0.4859 0.8738
vn -0.2157 0.3018 0.9287
vn 0.3962 0.4111 -0.8210
vn 0.7036 0.4382 -0.5594
vn -0.5466 -0.8230 -0.1546
vn -0.5486 -0.8307 0.0941
vn -0.5482 -0.8290 0.1105
vn 0.5342 -0.8322 -0.1488
vn -0.4288 -0.8359 0.3427
vn -0.2510 -0.8381 0.4844
vn -0.2554 -0.8343 0.4886
vn 0.0651 -0.8292 -0.5551
vn 0.0574 -0.8272 -0.5590
vn -0.0679 -0.7928 -0.6057
vn -0.0873 -0.7748 -0.6261
vn -0.0253 -0.8546 0.5187
vn 0.2169 -0.8675 0.4477
vn 0.2372 -0.8651 0.4419
vn -0.3328 -0.8048 -0.4914
vn -0.4107 -0.8213 -0.3960
vn -0.4306 -0.8201 -0.3769
vn 0.4223 -0.8572 0.2948
vn -0.5326 -0.8266 -0.1818
vn -0.0149 0.1427 0.9897
vn -0.8956 0.1715 0.4104
vn -0.8743 0.4837 -0.0396
vn -0.4289 -0.8350 0.3447
vn 0.5289 -0.8334 -0.1602
vn 0.4810 -0.8218 -0.3055
vn 0.7423 0.1063 -0.6616
vn 0.4285 0.1591 0.8894
vn 0.8211 0.1645 0.5465
vn -0.0164 -0.0000 0.9999
vn -0.4336 -0.0000 0.9011
vn -0.4374 -0.0000 0.8993
vn 0.4064 -0.0000 0.9137
vn 0.4103 -0.0000 0.9120
vn 0.7965 -0.0000 0.6047
vn 0.7961 -0.0000 0.6052
vn 0.9807 -0.0000 0.1953
vn 0.9776 -0.0000 -0.2106
vn 0.9811 -0.0000 0.1937
vn 0.7909 -0.0000 -0.6120
vn 0.7908 -0.0000 -0.6121
vn 0.4383 -0.0000 -0.8988
vn 0.0489 -0.0000 -0.9988
vn 0.4352 -0.0000 -0.9003
vn -0.3584 -0.0000 -0.9336
vn -0.3621 -0.0000 -0.9322
vn -0.7553 -0.0000 -0.6554
vn -0.9679 -0.0000 -0.2513
vn -0.9866 -0.0000 0.1633
vn -0.9683 -0.0000 -0.2498
vn -0.8118 -0.0000 0.5840
vn -0.8115 -0.0000 0.5844
vn 0.5018 0.3453 0.7931
vn 0.4352 0.3265 0.8390
vn 0.6040 0.3250 0.7277
vn 0.4076 0.4212 -0.8102
vn 0.5595 0.4600 -0.6894
vn 0.7505 0.4211 -0.5094
vn 0.8920 0.4130 -0.1838
vn -0.4117 0.3709 -0.8324
vn -0.4622 0.3826 -0.8000
vn -0.2170 0.3620 -0.9066
vn 0.1800 0.4180 -0.8905
vn 0.9122 0.4097 -0.0027
vn 0.8753 0.4062 0.2625
vn -0.9037 0.3196 0.2848
vn -0.9299 0.3619 -0.0649
vn -0.9219 0.3499 -0.1666
vn 0.2629 0.3424 0.9020
vn 0.0820 0.3103 0.9471
vn -0.8641 0.3603 -0.3515
vn -0.8398 0.3460 -0.4184
vn 0.0241 0.3212 0.9467
vn -0.0783 0.3006 0.9505
vn -0.6974 0.3112 0.6456
vn -0.8087 0.3447 0.4767
vn -0.6094 0.3259 0.7228
vn -0.5322 0.3059 0.7894
vn -0.5320 0.3790 -0.7572
vn -0.5897 0.3604 -0.7227
vn 0.7931 0.3907 0.4674
vn -0.0000 -0.0000 -1.0000
vn 0.0136 -0.0000 0.9999
vn 0.8767 -0.4809 -0.0120
vn -0.8767 0.4809 0.0120
vn 0.4809 0.8768 -0.0066
vn -0.4809 -0.8768 0.0066
vn -0.9941 -0.0000 0.1081
vn 0.0948 -0.4809 0.8716
vn 0.0947 -0.4809 0.8716
vn -0.0948 0.4809 -0.8716
vn 0.0520 0.8768 0.4781
vn -0.0520 -0.8768 -0.4781
vn -0.5019 -0.3448 0.7933
vn -0.4352 -0.3261 0.8392
vn -0.6041 -0.3244 0.7278
vn -0.4076 -0.4209 -0.8104
vn -0.5599 -0.4595 -0.6895
vn -0.7507 -0.4204 -0.5096
vn -0.8924 -0.4122 -0.1839
vn 0.4117 -0.3713 -0.8322
vn 0.4621 -0.3831 -0.7998
vn 0.2169 -0.3622 -0.9065
vn -0.1800 -0.4178 -0.8905
vn -0.9126 -0.4089 -0.0027
vn -0.8756 -0.4054 0.2627
vn 0.9035 -0.3205 0.2847
vn 0.9296 -0.3628 -0.0649
vn 0.9215 -0.3508 -0.1665
vn -0.2631 -0.3421 0.9021
vn -0.0819 -0.3102 0.9471
vn 0.8638 -0.3612 -0.3514
vn 0.8395 -0.3468 -0.4182
vn -0.0241 -0.3212 0.9467
vn 0.0784 -0.3007 0.9505
vn 0.6973 -0.3119 0.6454
vn 0.8084 -0.3455 0.4766
vn 0.6093 -0.3265 0.7226
vn 0.5321 -0.3064 0.7893
vn 0.5319 -0.3795 -0.7571
vn 0.5896 -0.3610 -0.7225
vn -0.7933 -0.3899 0.4675
vn -0.0000 0.8518 -0.5238
vn -0.0000 0.9917 0.1283
vn 0.8518 -0.0000 -0.5238
vn 0.9917 -0.0000 0.1283
vn -0.0000 -0.8518 -0.5238
vn -0.0000 -0.9917 0.1283
vn -0.8518 -0.0000 -0.5238
vn -0.9917 -0.0000 0.1283
vn 0.1655 -0.9837 0.0709
vn -0.0153 0.9906 -0.1357
vn 0.0921 -0.9761 0.1970
vn 0.1216 -0.0144 -0.9925
vn -0.1216 0.0144 0.9925
vn 0.7766 -0.1610 0.6090
vn -0.9766 -0.1455 0.1584
vn 0.9824 -0.1714 -0.0741
vn 0.1300 -0.1255 -0.9835
vn -0.2662 0.7934 -0.5475
vn 0.8102 -0.4891 0.3230
vn 0.5095 -0.4501 -0.7334
vn -0.0460 -0.4005 -0.9151
vn 0.1879 -0.4680 0.8635
vn 0.5708 -0.4648 0.6769
vn 0.0037 0.8563 0.5165
vn 0.3310 0.8059 -0.4909
vn 0.1989 -0.1505 0.9684
vn -0.4758 0.8246 -0.3061
vn -0.9779 -0.0000 -0.2092
vn -0.0490 -0.0000 -0.9988
vn 0.9868 -0.0000 0.1619
vn -0.7766 0.1610 0.6090
vn 0.9766 0.1455 0.1584
vn -0.9824 0.1714 -0.0741
vn -0.1300 0.1255 -0.9835
vn 0.2662 -0.7934 -0.5475
vn -0.8102 0.4891 0.3230
vn -0.5095 0.4501 -0.7334
vn 0.0460 0.4005 -0.9151
vn -0.1879 0.4680 0.8635
vn -0.5708 0.4648 0.6769
vn -0.0037 -0.8563 0.5165
vn -0.3310 -0.8059 -0.4909
vn -0.1989 0.1505 0.9684
vn 0.4758 -0.8246 -0.3061
vn 0.9779 -0.0000 -0.2092
vn 0.0490 -0.0000 -0.9988
vn -0.9868 -0.0000 0.1619
vn 0.1698 0.4203 -0.8913
vn 0.8923 0.3391 0.2980
vn -0.1699 -0.4201 -0.8914
vn -0.8926 -0.3382 0.2981
vt 0.875400 0.526722
vt 0.907403 0.683366
vt 0.848430 0.660706
vt 0.825024 0.600837
vt 0.791694 0.586288
vt 0.819135 0.571797
vt 0.721639 0.568345
vt 0.742699 0.596983
vt 0.713476 0.595680
vt 0.765720 0.655456
vt 0.754300 0.620010
vt 0.767312 0.624103
vt 0.816191 0.628737
vt 0.794824 0.599419
vt 0.742095 0.548826
vt 0.746910 0.584465
vt 0.798871 0.549852
vt 0.769693 0.571980
vt 0.770324 0.541507
vt 0.718672 0.623407
vt 0.737072 0.645782
vt 0.780649 0.621376
vt 0.790617 0.612306
vt 0.756573 0.575305
vt 0.782640 0.576176
vt 0.745309 0.609954
vt 0.795088 0.648701
vt 0.678676 0.513454
vt 0.617908 0.526143
vt 0.617870 0.510014
vt 0.866449 0.513222
vt 0.707885 0.680214
vt 0.683200 0.631792
vt 0.673800 0.528894
vt 0.773553 0.513337
vt 0.830530 0.687683
vt 0.990232 0.553830
vt 0.932567 0.540086
vt 0.273810 0.934856
vt 0.249694 0.904702
vt 0.281724 0.905052
vt 0.194647 0.904916
vt 0.170672 0.934779
vt 0.162842 0.904953
vt 0.222078 0.845581
vt 0.208414 0.881269
vt 0.192397 0.853561
vt 0.273713 0.875103
vt 0.198560 0.918480
vt 0.192593 0.956611
vt 0.222340 0.932556
vt 0.252012 0.956613
vt 0.222312 0.964468
vt 0.170715 0.875250
vt 0.235874 0.881200
vt 0.251853 0.853418
vt 0.208536 0.928656
vt 0.236143 0.928630
vt 0.655885 0.658886
vt 0.641405 0.706024
vt 0.633470 0.663969
vt 0.941445 0.739776
vt 0.954713 0.697811
vt 0.821105 0.757286
vt 0.698838 0.747694
vt 0.700660 0.713108
vt 0.936279 0.524366
vt 0.993976 0.538081
vt 0.162178 0.809272
vt 0.281954 0.808828
vt 0.317688 0.994476
vt 0.134027 0.838832
vt 0.126952 0.994476
vt 0.223599 0.994476
vt 0.326811 0.981939
vt 0.310449 0.838392
vt 0.892595 0.723724
vt 0.833123 0.700163
vt 0.709768 0.695051
vt 0.824254 0.697515
vt 0.117801 0.981936
vt 0.698681 0.693644
vt 0.676770 0.695777
vt 0.558426 0.514045
vt 0.559591 0.530251
vt 0.696075 0.800154
vt 0.580080 0.674811
vt 0.879067 0.511007
vt 0.937887 0.761690
vt 0.889442 0.831468
vt 0.889442 0.753538
vt 0.984174 0.761690
vt 0.937887 0.831468
vt 0.842582 0.825511
vt 0.842582 0.764991
vt 0.935182 0.750233
vt 0.894761 0.743434
vt 0.942519 0.842290
vt 0.984174 0.831468
vt 0.984174 0.842290
vt 0.884492 0.841758
vt 0.888196 0.742187
vt 0.862048 0.747754
vt 0.864272 0.737163
vt 0.994996 0.831468
vt 0.994996 0.761690
vt 0.933254 0.842290
vt 0.854873 0.739652
vt 0.835407 0.756889
vt 0.942519 0.750868
vt 0.831760 0.764991
vt 0.831760 0.825511
vt 0.923920 0.944272
vt 0.984175 0.864067
vt 0.984175 0.944272
vt 0.875793 0.864829
vt 0.923920 0.864067
vt 0.875793 0.945034
vt 0.913289 0.956374
vt 0.875981 0.956964
vt 0.863861 0.945034
vt 0.863862 0.864829
vt 0.994997 0.864067
vt 0.994997 0.944272
vt 0.935851 0.853245
vt 0.984175 0.853244
vt 0.912911 0.852307
vt 0.875603 0.852900
vt 0.935851 0.955094
vt 0.984175 0.955094
vt 0.794364 0.944167
vt 0.829802 0.979605
vt 0.794364 0.979605
vt 0.845001 0.979605
vt 0.829802 0.944167
vt 0.845001 0.944167
vt 0.779165 0.944167
vt 0.779165 0.979605
vt 0.794364 0.994803
vt 0.829802 0.994803
vt 0.794364 0.928968
vt 0.191330 0.735961
vt 0.191234 0.678662
vt 0.214706 0.694193
vt 0.430382 0.733639
vt 0.408114 0.786315
vt 0.402022 0.738021
vt 0.305409 0.784590
vt 0.268582 0.790147
vt 0.277286 0.772744
vt 0.291012 0.729140
vt 0.249228 0.761414
vt 0.264140 0.719727
vt 0.500583 0.759821
vt 0.457792 0.725272
vt 0.482807 0.716140
vt 0.528030 0.740524
vt 0.507239 0.703275
vt 0.549048 0.727898
vt 0.527955 0.690221
vt 0.577644 0.713712
vt 0.550628 0.672757
vt 0.205006 0.766291
vt 0.218742 0.752763
vt 0.239272 0.708556
vt 0.286490 0.661761
vt 0.417343 0.672353
vt 0.308152 0.668199
vt 0.329654 0.672852
vt 0.318036 0.736019
vt 0.460869 0.659676
vt 0.345505 0.739078
vt 0.479908 0.651407
vt 0.350779 0.676010
vt 0.372914 0.739424
vt 0.496464 0.642137
vt 0.372863 0.676806
vt 0.247726 0.644297
vt 0.266375 0.653736
vt 0.474288 0.782734
vt 0.468827 0.767000
vt 0.441658 0.775237
vt 0.419083 0.804354
vt 0.158894 0.740234
vt 0.163692 0.722819
vt 0.559058 0.740199
vt 0.373566 0.785036
vt 0.342742 0.800833
vt 0.340866 0.783645
vt 0.539541 0.753014
vt 0.314982 0.804977
vt 0.516510 0.770983
vt 0.402447 0.805156
vt 0.439520 0.667171
vt 0.447717 0.792566
vt 0.242500 0.777895
vt 0.392420 0.642249
vt 0.395327 0.676296
vt 0.353729 0.641923
vt 0.335503 0.639758
vt 0.316993 0.635218
vt 0.280055 0.622528
vt 0.230786 0.633583
vt 0.263265 0.614084
vt 0.480592 0.614070
vt 0.511637 0.631466
vt 0.465869 0.622234
vt 0.449176 0.629026
vt 0.411274 0.640013
vt 0.738964 0.855220
vt 0.740896 0.910987
vt 0.717348 0.896339
vt 0.500879 0.859470
vt 0.522941 0.807589
vt 0.529054 0.855184
vt 0.623580 0.807643
vt 0.658275 0.798979
vt 0.652213 0.816847
vt 0.640369 0.862111
vt 0.685325 0.824771
vt 0.667457 0.870910
vt 0.431911 0.832789
vt 0.473603 0.867494
vt 0.448673 0.876134
vt 0.404563 0.851157
vt 0.424229 0.888320
vt 0.383615 0.863076
vt 0.403442 0.900671
vt 0.355177 0.876291
vt 0.380620 0.917209
vt 0.723016 0.827033
vt 0.712750 0.841650
vt 0.692944 0.882693
vt 0.646293 0.930351
vt 0.513528 0.921116
vt 0.624221 0.924382
vt 0.602297 0.920126
vt 0.612818 0.856055
vt 0.469393 0.933041
vt 0.585269 0.853592
vt 0.450020 0.940687
vt 0.580843 0.917272
vt 0.557963 0.853602
vt 0.433174 0.949293
vt 0.558494 0.916681
vt 0.685779 0.946682
vt 0.666823 0.937859
vt 0.457994 0.810632
vt 0.463192 0.826143
vt 0.489979 0.818281
vt 0.512291 0.789848
vt 0.770181 0.849188
vt 0.766449 0.866540
vt 0.374081 0.850754
vt 0.556814 0.808557
vt 0.586754 0.792618
vt 0.588926 0.809403
vt 0.393539 0.838637
vt 0.613768 0.787965
vt 0.416522 0.821501
vt 0.528321 0.789108
vt 0.491068 0.926024
vt 0.484155 0.801232
vt 0.700401 0.811626
vt 0.539266 0.959410
vt 0.535796 0.917212
vt 0.577635 0.959597
vt 0.595785 0.961491
vt 0.614296 0.965637
vt 0.651435 0.977156
vt 0.703035 0.956706
vt 0.668554 0.984791
vt 0.450647 0.984857
vt 0.417654 0.959216
vt 0.465733 0.977526
vt 0.482626 0.971406
vt 0.520490 0.961424
vt 0.036939 0.737846
vt 0.093247 0.796312
vt 0.071668 0.810142
vt 0.149079 0.576328
vt 0.074523 0.612959
vt 0.134274 0.555094
vt 0.115180 0.536364
vt 0.165646 0.632203
vt 0.084535 0.638191
vt 0.159356 0.601797
vt 0.055337 0.593953
vt 0.093379 0.520849
vt 0.154806 0.715931
vt 0.083939 0.676399
vt 0.163937 0.687871
vt 0.053349 0.726052
vt 0.112157 0.778842
vt 0.086225 0.660667
vt 0.166991 0.660385
vt 0.067003 0.712510
vt 0.129718 0.760974
vt 0.142595 0.741739
vt 0.076609 0.696795
vt 0.069492 0.511025
vt 0.541835 0.549357
vt 0.530604 0.605206
vt 0.497070 0.586827
vt 0.753724 0.944661
vt 0.769001 0.991862
vt 0.739791 0.958339
vt 0.720620 0.991862
vt 0.769001 0.910222
vt 0.753724 0.910222
vt 0.769001 0.991862
vt 0.720620 0.991862
vt 0.769001 0.910222
vt 0.753724 0.944661
vt 0.753723 0.910222
vt 0.829802 0.979604
vt 0.794364 0.979604
vt 0.845001 0.979604
vt 0.779165 0.979604
vt 0.829802 0.994803
vt 0.829802 0.928968
vt 0.794364 0.928968
vt 0.071668 0.810142
vt 0.149079 0.576328
vt 0.115180 0.536364
vt 0.154806 0.715931
vt 0.053349 0.726052
vt 0.086225 0.660667
vt 0.129718 0.760974
vt 0.142595 0.741739
vt 0.069492 0.511025
vt 0.541835 0.549357
vt 0.497070 0.586827
vt 0.504441 0.931972
vt 0.492794 0.943340
vt 0.486341 0.928398
vt 0.382278 0.605631
vt 0.404660 0.587865
vt 0.382718 0.585061
vt 0.794718 0.973826
vt 0.829233 0.945182
vt 0.829233 0.973826
vt 0.461257 0.596779
vt 0.401429 0.554425
vt 0.462968 0.553301
vt 0.794718 0.945182
vt 0.246140 0.918434
vt 0.222133 0.877761
vt 0.245908 0.891123
vt 0.198420 0.891241
vt 0.818508 0.806602
vt 0.588867 0.716973
vt 0.841215 0.836246
vt 0.893084 0.842290
vt 0.984174 0.750867
vt 0.829802 0.928968
vt 0.294842 0.803843
vt 0.183486 0.750503
vt 0.503901 0.778191
vt 0.582058 0.730212
vt 0.371011 0.800421
vt 0.215801 0.771737
vt 0.372976 0.642370
vt 0.298003 0.629193
vt 0.246319 0.604677
vt 0.495839 0.604751
vt 0.430350 0.635070
vt 0.631928 0.788278
vt 0.745469 0.840594
vt 0.428883 0.814725
vt 0.686113 0.805130
vt 0.351255 0.859984
vt 0.559122 0.793444
vt 0.558551 0.959296
vt 0.633318 0.971126
vt 0.685915 0.993222
vt 0.434937 0.993150
vt 0.501464 0.965952
vt 0.037091 0.584393
vt 0.497070 0.559820
vt 0.519743 0.544892
vt 0.552804 0.560863
vt 0.556785 0.582168
vt 0.548709 0.598721
vt 0.510596 0.602363
vt 0.720620 0.958339
vt 0.753724 0.910222
vt 0.794364 0.994803
vt 0.497070 0.559820
vt 0.519743 0.544892
vt 0.556784 0.582168
vt 0.510596 0.602362
vt 0.488200 0.918983
vt 0.492748 0.915996
vt 0.497989 0.917031
vt 0.503230 0.918065
vt 0.506300 0.922557
vt 0.502582 0.941387
vt 0.498035 0.944375
vt 0.487553 0.942305
vt 0.484482 0.937814
vt 0.403957 0.605631
vt 0.401952 0.607566
s 1
usemtl None.013
f 379/1/1 331/2/1 330/3/1
f 318/4/2 15/5/3 317/6/3
f 325/7/4 22/8/5 324/9/5
f 321/10/6 20/11/7 19/12/6
f 319/13/8 16/14/2 318/4/2
f 326/15/9 23/16/4 325/7/4
f 315/17/10 13/18/11 316/19/11
f 323/20/12 20/11/7 322/21/7
f 319/13/8 18/22/13 17/23/8
f 326/15/9 13/18/11 24/24/9
f 317/6/3 14/25/10 315/17/10
f 323/20/12 22/8/5 21/26/12
f 321/10/6 18/22/13 320/27/13
f 261/28/14 376/29/14 377/30/14
f 1/19/15 381/31/15 2/17/15
f 369/32/15 367/33/15 9/20/15
f 367/33/15 365/34/15 10/9/15
f 365/34/15 568/28/15 11/7/15
f 568/28/15 566/35/15 1/19/15
f 381/31/15 380/1/15 3/6/15
f 380/1/15 329/3/15 4/4/15
f 327/36/15 7/10/15 6/27/15
f 327/36/15 6/27/15 5/13/15
f 329/3/15 5/13/15 4/4/15
f 11/7/15 10/9/15 365/34/15
f 12/15/15 11/7/15 568/28/15
f 380/1/15 4/4/15 3/6/15
f 1/19/15 12/15/15 568/28/15
f 381/31/15 3/6/15 2/17/15
f 356/37/1 331/2/1 358/38/1
f 337/39/16 47/40/17 338/41/17
f 53/42/18 345/43/19 344/44/18
f 341/45/20 51/46/21 342/47/21
f 47/40/17 339/48/22 338/41/17
f 54/49/19 346/50/23 345/43/19
f 44/51/24 335/52/25 336/53/24
f 51/46/21 343/54/26 342/47/21
f 339/48/22 49/55/27 340/56/27
f 55/57/23 336/53/24 346/50/23
f 45/58/25 337/39/16 335/52/25
f 343/54/26 53/42/18 344/44/18
f 49/55/27 341/45/20 340/56/27
f 65/59/28 383/60/28 72/61/28
f 351/62/29 332/2/29 353/63/29
f 26/64/30 73/65/30 372/66/30
f 355/37/31 75/67/32 357/68/32
f 38/45/33 349/69/33 352/70/33
f 32/53/33 33/52/33 60/71/33
f 40/54/33 349/69/33 39/47/33
f 349/69/33 40/54/33 347/72/33
f 40/54/33 41/44/33 347/72/33
f 385/73/33 32/53/33 268/74/33
f 60/71/33 34/39/33 61/75/33
f 61/75/33 35/41/33 56/76/33
f 56/76/33 36/48/33 352/70/33
f 352/70/33 37/56/33 38/45/33
f 352/70/33 36/48/33 37/56/33
f 56/76/33 35/41/33 36/48/33
f 61/75/33 34/39/33 35/41/33
f 60/71/33 33/52/33 34/39/33
f 7/10/15 369/32/15 8/21/15
f 27/2/29 334/77/29 361/78/29
f 329/3/15 327/36/15 5/13/15
f 9/20/15 367/33/15 10/9/15
f 9/20/15 8/21/15 369/32/15
f 26/64/30 363/79/30 63/80/30
f 69/29/34 368/33/34 374/59/34
f 32/53/33 385/73/33 43/50/33
f 43/50/33 385/73/33 42/43/33
f 42/43/33 385/73/33 41/44/33
f 41/44/33 359/81/33 347/72/33
f 69/29/34 374/59/34 382/61/34
f 67/33/35 370/32/35 373/59/35
f 364/82/35 371/83/35 370/32/35
f 371/83/35 373/59/35 370/32/35
f 64/32/36 362/80/36 68/79/36
f 384/84/14 375/29/14 360/85/14
f 382/61/34 71/85/34 69/29/34
f 26/64/30 350/86/30 73/65/30
f 383/60/28 59/87/28 72/61/28
f 358/38/1 331/2/1 379/1/1
f 74/38/31 28/88/37 75/67/32
f 62/36/29 25/3/29 361/78/29
f 25/3/29 27/2/29 361/78/29
f 395/89/29 404/90/29 398/91/29
f 407/92/30 402/93/30 396/89/30
f 405/90/1 413/94/1 415/95/1
f 386/96/38 400/91/39 387/97/40
f 76/98/15 410/99/15 81/100/15
f 77/101/41 414/94/42 406/90/43
f 78/102/44 412/103/45 393/104/46
f 391/105/47 408/92/47 392/106/47
f 389/107/15 88/90/15 87/93/15
f 83/108/48 416/95/48 394/109/48
f 79/110/33 89/92/33 86/89/33
f 84/111/49 92/94/49 80/112/49
f 430/113/50 423/114/50 425/115/50
f 431/113/15 433/116/15 428/117/15
f 436/118/51 96/119/52 99/120/53
f 434/116/54 421/121/54 422/122/54
f 426/115/33 95/123/33 97/124/33
f 101/114/55 418/125/55 417/126/55
f 94/127/56 104/116/57 98/128/58
f 419/129/59 100/115/59 420/130/59
f 443/131/50 447/132/50 441/133/50
f 440/134/60 446/135/60 107/136/60
f 438/137/61 442/133/61 437/138/61
f 108/139/62 113/132/62 109/140/62
f 106/141/63 112/135/63 111/131/63
f 455/142/64 135/143/65 133/144/66
f 129/145/67 451/146/68 130/147/69
f 485/148/70 544/149/71 115/150/72
f 147/151/73 452/152/74 150/153/75
f 460/154/76 482/155/77 145/156/78
f 459/157/79 145/156/78 142/158/80
f 457/159/81 142/158/80 470/160/82
f 454/161/83 139/160/84 135/162/65
f 556/163/85 117/142/86 484/164/87
f 154/165/88 163/166/89 150/153/75
f 174/167/90 149/155/91 129/145/67
f 150/153/75 469/168/92 147/151/73
f 147/151/73 468/169/93 143/170/94
f 491/171/95 142/158/80 145/156/78
f 468/169/93 141/172/96 143/170/94
f 169/173/97 470/160/82 142/158/80
f 159/174/98 137/175/99 141/172/96
f 472/176/100 135/162/65 139/160/84
f 477/177/101 474/147/102 137/175/99
f 135/143/65 478/178/103 133/144/66
f 133/144/66 479/179/104 154/165/88
f 130/147/69 174/167/90 129/145/67
f 121/154/105 464/180/106 480/181/107
f 544/149/71 116/152/108 115/150/72
f 154/165/88 455/142/64 133/144/66
f 123/182/109 245/183/110 114/146/111
f 117/142/86 240/184/112 118/185/113
f 118/161/113 465/186/114 458/159/115
f 151/187/116 546/188/117 152/189/118
f 119/159/119 549/190/120 120/157/121
f 152/189/118 545/191/122 485/148/70
f 120/157/121 548/192/123 121/154/105
f 474/147/102 449/187/124 137/175/99
f 245/193/110 151/187/116 114/146/111
f 122/181/125 129/145/67 149/155/91
f 172/194/126 145/156/78 482/155/77
f 480/181/107 462/195/127 123/182/109
f 547/196/128 153/164/129 116/152/108
f 483/164/130 150/153/75 452/152/74
f 449/187/124 141/172/96 137/175/99
f 489/189/131 143/170/94 141/172/96
f 155/148/132 147/151/73 143/170/94
f 138/177/133 156/197/134 131/198/135
f 158/199/136 138/177/133 493/174/137
f 160/200/138 493/174/137 144/169/139
f 148/168/140 160/200/138 144/169/139
f 490/166/141 161/201/142 148/168/140
f 164/202/143 490/166/141 132/179/144
f 134/178/145 164/202/143 132/179/144
f 136/203/146 165/204/147 134/178/145
f 167/205/148 136/206/146 140/176/149
f 168/207/150 140/176/149 492/173/150
f 146/171/151 168/207/150 492/173/150
f 487/194/152 170/208/153 146/171/151
f 173/209/154 487/194/152 486/167/155
f 131/198/135 173/209/154 486/167/155
f 500/210/156 197/211/157 195/212/158
f 191/213/159 496/214/160 192/215/161
f 531/216/162 508/217/163 176/218/164
f 209/219/165 497/220/166 212/221/167
f 505/222/168 525/223/169 207/224/170
f 504/225/171 207/224/170 204/226/172
f 502/227/173 204/226/172 513/228/174
f 499/229/175 201/228/176 197/230/157
f 527/231/177 178/210/178 530/232/179
f 216/233/180 226/234/181 212/221/167
f 237/235/182 211/223/183 191/213/159
f 212/221/167 512/236/184 209/219/165
f 209/219/165 511/237/185 205/238/186
f 537/239/187 204/226/172 207/224/170
f 511/237/185 203/240/188 205/238/186
f 232/241/189 513/228/174 204/226/172
f 222/242/190 199/243/191 203/240/188
f 515/244/192 197/230/157 201/228/176
f 520/245/193 517/215/194 199/243/191
f 197/211/157 521/246/195 195/212/158
f 195/212/158 522/247/196 216/233/180
f 192/215/161 237/235/182 191/213/159
f 182/222/197 630/248/198 523/249/199
f 508/217/163 177/220/200 176/218/164
f 216/233/180 500/210/156 195/212/158
f 184/250/201 293/251/202 175/214/203
f 178/210/178 509/252/204 179/253/205
f 179/229/205 624/254/206 503/227/207
f 213/255/208 632/256/209 535/257/210
f 180/227/211 612/258/212 181/225/213
f 535/257/210 292/259/214 531/216/162
f 181/225/213 611/260/215 182/222/197
f 517/215/194 494/255/216 199/243/191
f 293/261/202 213/255/208 175/214/203
f 183/249/217 191/213/159 211/223/183
f 235/262/218 207/224/170 525/223/169
f 523/249/199 628/263/219 184/250/201
f 507/264/220 215/232/221 177/220/200
f 529/232/222 212/221/167 497/220/166
f 494/255/216 203/240/188 199/243/191
f 214/257/223 205/238/186 203/240/188
f 218/216/224 209/219/165 205/238/186
f 200/245/225 219/265/226 193/266/227
f 221/267/228 200/245/225 539/242/229
f 223/268/230 539/242/229 206/237/231
f 210/236/232 223/268/230 206/237/231
f 536/234/233 224/269/234 210/236/232
f 227/270/235 536/234/233 194/247/236
f 196/246/237 227/270/235 194/247/236
f 198/271/238 228/272/239 196/246/237
f 230/273/240 198/274/238 202/244/241
f 231/275/242 202/244/241 538/241/242
f 208/239/243 231/275/242 538/241/242
f 533/262/244 233/276/245 208/239/243
f 236/277/246 533/262/244 532/235/247
f 193/266/227 236/277/246 532/235/247
f 552/278/248 127/279/249 554/280/250
f 244/281/251 558/282/252 243/283/253
f 558/282/252 242/284/254 243/283/253
f 605/285/255 540/286/256 603/287/257
f 128/287/258 558/282/252 244/281/251
f 242/284/254 553/288/259 241/289/260
f 238/290/261 550/291/262 125/292/263
f 127/279/249 557/293/264 604/294/265
f 125/292/263 543/295/266 463/296/267
f 604/294/265 561/297/268 467/298/269
f 239/299/270 559/300/271 238/290/261
f 560/297/272 239/299/270 126/298/273
f 542/295/274 605/285/255 124/296/275
f 553/288/259 253/301/276 241/289/260
f 246/302/15 249/303/15 250/304/15
f 563/305/277 567/306/277 562/307/277
f 31/308/277 562/307/277 567/306/277
f 260/309/277 563/305/277 565/310/277
f 570/305/277 569/307/277 28/311/37
f 569/307/277 75/312/32 28/311/37
f 260/313/277 570/305/277 28/311/277
f 574/305/277 573/307/277 70/311/277
f 573/307/277 31/312/277 70/311/277
f 572/313/277 574/305/277 70/311/277
f 577/314/277 357/311/32 576/307/277
f 75/312/32 576/307/277 357/311/32
f 572/313/277 577/314/277 575/315/277
f 584/131/278 588/316/278 582/317/278
f 581/318/279 587/135/279 272/136/279
f 578/137/280 583/317/280 579/319/280
f 274/320/281 275/317/281 278/316/281
f 580/321/282 276/131/282 271/322/282
f 596/131/283 600/316/283 594/317/283
f 593/318/284 599/135/284 280/136/285
f 590/137/286 595/317/286 591/319/286
f 282/320/287 283/317/287 286/316/287
f 279/322/288 285/135/288 284/131/288
f 615/278/289 187/279/290 528/323/291
f 190/324/292 618/282/293 631/283/294
f 618/282/293 189/325/295 631/283/294
f 627/285/296 607/286/297 626/287/298
f 289/287/299 618/282/293 190/324/292
f 189/325/295 616/288/300 188/289/301
f 290/326/302 613/291/303 185/292/304
f 187/279/290 617/327/305 186/294/306
f 185/292/304 610/328/307 629/296/308
f 186/294/306 621/297/309 623/329/310
f 291/330/311 619/300/312 290/326/302
f 620/297/313 291/330/311 288/329/314
f 609/328/315 627/285/296 287/296/316
f 616/288/300 217/331/317 188/289/301
f 294/332/33 297/303/33 298/333/33
f 268/74/33 32/53/33 60/71/33
f 1/19/15 566/35/15 381/31/15
f 267/334/277 262/335/277 259/336/277
f 646/337/277 650/338/277 643/339/277
f 633/340/318 647/341/318 636/342/318
f 652/343/319 637/344/319 311/345/319
f 653/340/320 303/341/320 635/342/320
f 656/343/321 305/344/321 306/345/321
f 639/340/322 309/341/322 655/342/322
f 312/343/323 307/344/323 308/345/323
f 641/342/324 310/346/324 313/341/324
f 644/343/325 314/344/325 645/345/325
f 318/4/2 16/14/2 15/5/3
f 325/7/4 23/16/4 22/8/5
f 321/10/6 322/21/7 20/11/7
f 319/13/8 17/23/8 16/14/2
f 326/15/9 24/24/9 23/16/4
f 315/17/10 14/25/10 13/18/11
f 323/20/12 21/26/12 20/11/7
f 319/13/8 320/27/13 18/22/13
f 326/15/9 316/19/11 13/18/11
f 317/6/3 15/5/3 14/25/10
f 323/20/12 324/9/5 22/8/5
f 321/10/6 19/12/6 18/22/13
f 261/28/14 366/34/14 376/29/14
f 356/37/1 354/63/1 331/2/1
f 337/39/16 46/347/16 47/40/17
f 53/42/18 54/49/19 345/43/19
f 341/45/20 50/348/20 51/46/21
f 47/40/17 48/349/22 339/48/22
f 54/49/19 55/57/23 346/50/23
f 44/51/24 45/58/25 335/52/25
f 51/46/21 52/350/26 343/54/26
f 339/48/22 48/349/22 49/55/27
f 55/57/23 44/51/24 336/53/24
f 45/58/25 46/347/16 337/39/16
f 343/54/26 52/350/26 53/42/18
f 49/55/27 50/348/20 341/45/20
f 65/59/28 66/83/28 383/60/28
f 351/62/29 333/77/29 332/2/29
f 355/37/31 74/38/31 75/67/32
f 38/45/33 39/47/33 349/69/33
f 7/10/15 327/36/15 369/32/15
f 26/64/30 372/66/30 363/79/30
f 69/29/34 29/34/34 368/33/34
f 41/44/33 385/73/33 359/81/33
f 64/32/36 328/36/36 362/80/36
f 384/84/14 378/30/14 375/29/14
f 382/61/34 348/87/34 71/85/34
f 26/64/30 57/351/30 350/86/30
f 383/60/28 58/352/28 59/87/28
f 74/38/31 30/1/31 28/88/32
f 395/89/29 401/93/29 404/90/29
f 407/92/30 409/99/30 402/93/30
f 415/95/1 411/103/1 399/91/1
f 399/91/1 405/90/1 415/95/1
f 386/96/38 397/89/326 400/91/39
f 76/98/15 403/93/15 410/99/15
f 77/101/41 390/353/327 414/94/42
f 78/102/44 85/91/328 412/103/45
f 391/105/47 90/99/47 408/92/47
f 389/107/15 388/354/15 88/90/15
f 83/108/48 91/103/48 416/95/48
f 79/110/33 82/355/33 89/92/33
f 84/111/49 93/95/49 92/94/49
f 430/113/50 427/117/50 423/114/50
f 431/113/15 435/118/15 433/116/15
f 436/118/51 432/113/329 96/119/52
f 434/116/54 105/118/54 421/121/54
f 426/115/33 424/114/33 95/123/33
f 101/114/55 429/117/55 418/125/55
f 94/127/56 102/117/330 104/116/57
f 419/129/59 103/113/59 100/115/59
f 443/131/50 445/135/50 447/132/50
f 440/134/60 448/132/60 446/135/60
f 438/137/61 444/131/61 442/133/61
f 108/139/62 110/133/62 113/132/62
f 106/141/63 439/356/63 112/135/63
f 455/142/64 454/185/83 135/143/65
f 129/145/67 461/182/331 451/146/68
f 485/148/70 545/357/122 544/149/71
f 147/151/73 453/150/332 452/152/74
f 460/154/76 481/181/333 482/155/77
f 459/157/79 460/154/76 145/156/78
f 457/159/81 459/157/79 142/158/80
f 454/161/83 456/159/334 139/160/84
f 556/163/85 606/358/335 117/142/86
f 154/165/88 479/179/104 163/166/89
f 174/167/90 488/194/336 149/155/91
f 150/153/75 163/166/89 469/168/92
f 147/151/73 469/168/92 468/169/93
f 491/171/95 169/173/97 142/158/80
f 468/169/93 159/174/98 141/172/96
f 169/173/97 471/176/337 470/160/82
f 159/174/98 477/177/101 137/175/99
f 472/176/100 473/206/338 135/162/65
f 477/177/101 475/198/339 474/147/102
f 135/143/65 473/203/338 478/178/103
f 133/144/66 478/178/103 479/179/104
f 130/147/69 476/198/340 174/167/90
f 121/154/105 548/359/123 464/180/106
f 544/149/71 547/196/128 116/152/108
f 154/165/88 483/164/130 455/142/64
f 123/182/109 462/195/127 245/183/110
f 117/142/86 606/358/335 240/184/112
f 118/161/113 240/360/112 465/186/114
f 151/187/116 602/361/341 546/188/117
f 119/159/119 466/186/342 549/190/120
f 152/189/118 546/188/117 545/191/122
f 120/157/121 549/190/120 548/192/123
f 474/147/102 450/146/343 449/187/124
f 245/193/110 602/361/341 151/187/116
f 122/181/125 461/182/331 129/145/67
f 172/194/126 491/171/95 145/156/78
f 480/181/107 464/180/106 462/195/127
f 547/196/128 555/362/344 153/164/129
f 483/164/130 154/165/88 150/153/75
f 449/187/124 489/189/131 141/172/96
f 489/189/131 155/148/132 143/170/94
f 155/148/132 453/150/332 147/151/73
f 138/177/133 157/363/133 156/197/134
f 158/199/136 157/363/133 138/177/133
f 160/200/138 158/199/136 493/174/137
f 148/168/140 161/201/142 160/200/138
f 490/166/141 162/364/345 161/201/142
f 164/202/143 162/364/345 490/166/141
f 134/178/145 165/204/147 164/202/143
f 136/203/146 166/365/346 165/204/147
f 167/205/148 166/366/346 136/206/146
f 168/207/150 167/205/148 140/176/149
f 146/171/151 170/208/153 168/207/150
f 487/194/152 171/367/347 170/208/153
f 173/209/154 171/367/347 487/194/152
f 131/198/135 156/197/134 173/209/154
f 500/210/156 499/253/175 197/211/157
f 191/213/159 506/250/348 496/214/160
f 531/216/162 292/368/214 508/217/163
f 209/219/165 498/218/349 497/220/166
f 505/222/168 524/249/350 525/223/169
f 504/225/171 505/222/168 207/224/170
f 502/227/173 504/225/171 204/226/172
f 499/229/175 501/227/351 201/228/176
f 527/231/177 510/369/352 178/210/178
f 216/233/180 522/247/196 226/234/181
f 237/235/182 534/262/353 211/223/183
f 212/221/167 226/234/181 512/236/184
f 209/219/165 512/236/184 511/237/185
f 537/239/187 232/241/189 204/226/172
f 511/237/185 222/242/190 203/240/188
f 232/241/189 514/244/354 513/228/174
f 222/242/190 520/245/193 199/243/191
f 515/244/192 516/274/355 197/230/157
f 520/245/193 518/266/356 517/215/194
f 197/211/157 516/271/355 521/246/195
f 195/212/158 521/246/195 522/247/196
f 192/215/161 519/266/357 237/235/182
f 182/222/197 611/370/215 630/248/198
f 508/217/163 507/371/220 177/220/200
f 216/233/180 529/232/222 500/210/156
f 184/250/201 628/263/219 293/251/202
f 178/210/178 510/369/352 509/252/204
f 179/229/205 509/372/204 624/254/206
f 213/255/208 625/373/358 632/256/209
f 180/227/211 622/254/359 612/258/212
f 535/257/210 632/256/209 292/259/214
f 181/225/213 612/258/212 611/260/215
f 517/215/194 495/214/360 494/255/216
f 293/261/202 625/373/358 213/255/208
f 183/249/217 506/250/348 191/213/159
f 235/262/218 537/239/187 207/224/170
f 523/249/199 630/248/198 628/263/219
f 507/264/220 526/231/361 215/232/221
f 529/232/222 216/233/180 212/221/167
f 494/255/216 214/257/223 203/240/188
f 214/257/223 218/216/224 205/238/186
f 218/216/224 498/218/349 209/219/165
f 200/245/225 220/374/225 219/265/226
f 221/267/228 220/374/225 200/245/225
f 223/268/230 221/267/228 539/242/229
f 210/236/232 224/269/234 223/268/230
f 536/234/233 225/375/362 224/269/234
f 227/270/235 225/375/362 536/234/233
f 196/246/237 228/272/239 227/270/235
f 198/271/238 229/376/363 228/272/239
f 230/273/240 229/377/363 198/274/238
f 231/275/242 230/273/240 202/244/241
f 208/239/243 233/276/245 231/275/242
f 533/262/244 234/378/364 233/276/245
f 236/277/246 234/378/364 533/262/244
f 193/266/227 219/265/226 236/277/246
f 552/278/248 557/293/264 127/279/249
f 558/282/252 553/288/259 242/284/254
f 128/287/258 541/286/365 558/282/252
f 238/290/261 559/300/271 550/291/262
f 125/292/263 550/291/262 543/295/266
f 604/294/265 557/293/264 561/297/268
f 560/297/272 559/300/271 239/299/270
f 542/295/274 540/286/256 605/285/255
f 553/288/259 551/379/366 253/301/276
f 251/380/15 252/381/15 250/304/15
f 252/381/15 246/302/15 250/304/15
f 246/302/15 247/382/15 249/303/15
f 247/382/15 248/383/15 249/303/15
f 248/383/15 255/384/15 249/303/15
f 249/303/15 254/385/15 250/304/15
f 31/308/277 564/386/277 562/307/277
f 260/309/277 567/306/277 563/305/277
f 569/307/277 571/386/277 75/312/32
f 260/313/277 565/387/277 570/305/277
f 573/307/277 564/386/277 31/312/277
f 572/313/277 575/387/277 574/305/277
f 75/312/32 571/386/277 576/307/277
f 572/313/277 357/311/277 577/314/277
f 584/131/278 586/135/278 588/316/278
f 581/318/279 589/316/279 587/135/279
f 578/137/280 585/131/280 583/317/280
f 274/320/281 273/388/281 275/317/281
f 580/321/282 277/135/282 276/131/282
f 596/131/283 598/135/283 600/316/283
f 593/318/284 601/316/284 599/135/284
f 590/137/286 597/131/286 595/317/286
f 282/320/287 281/388/287 283/317/287
f 279/322/288 592/321/288 285/135/288
f 615/278/289 617/327/305 187/279/290
f 618/282/293 616/288/300 189/325/295
f 289/287/299 608/286/367 618/282/293
f 290/326/302 619/300/312 613/291/303
f 185/292/304 613/291/303 610/328/307
f 186/294/306 617/327/305 621/297/309
f 620/297/313 619/300/312 291/330/311
f 609/328/315 607/286/297 627/285/296
f 616/288/300 614/379/368 217/331/317
f 299/389/33 300/390/33 298/333/33
f 300/390/33 294/332/33 298/333/33
f 294/332/33 295/382/33 297/303/33
f 295/382/33 296/391/33 297/303/33
f 296/391/33 302/384/33 297/303/33
f 297/303/33 301/392/33 298/333/33
f 257/393/277 258/394/277 256/395/277
f 256/395/277 266/396/277 265/397/277
f 267/334/277 269/398/277 262/335/277
f 269/398/277 270/399/277 262/335/277
f 256/395/277 265/397/277 267/334/277
f 259/336/277 257/393/277 256/395/277
f 264/400/277 263/401/277 262/335/277
f 263/401/277 259/336/277 262/335/277
f 259/336/277 256/395/277 267/334/277
f 646/337/277 648/402/277 650/338/277
f 633/340/318 649/346/318 647/341/318
f 652/343/319 634/403/319 637/344/319
f 653/340/320 651/346/320 303/341/320
f 656/343/321 654/403/321 305/344/321
f 639/340/322 642/346/322 309/341/322
f 312/343/323 640/403/323 307/344/323
f 641/342/324 638/340/324 310/346/324
f 644/343/325 304/403/325 314/344/325
