# Blender 5.0.1
# www.blender.org
mtllib 93.mtl
o 93
v -0.082354 -0.277724 0.341786
v -0.142641 -0.277724 0.281499
v -0.164708 -0.277724 0.199145
v 0.164708 -0.277724 0.199145
v -0.082354 -0.204207 0.341786
v 0.034322 -0.204207 0.346099
v -0.142641 -0.204207 0.281499
v 0.164708 -0.204207 0.199145
v 0.142641 -0.204207 0.281499
v 0.082354 -0.204207 0.333228
v 0.034322 -0.277725 0.346099
v 0.142641 -0.277725 0.281499
v 0.082354 -0.277725 0.333228
v 0.068427 -0.277724 0.317663
v -0.082354 0.277724 0.341786
v -0.142641 0.277724 0.281499
v -0.164708 0.277724 0.199145
v 0.164708 0.277724 0.199145
v -0.082354 0.204207 0.341786
v 0.034322 0.204207 0.346099
v -0.142641 0.204207 0.281499
v -0.164708 0.204207 0.199145
v 0.142641 0.204207 0.281499
v 0.082354 0.204207 0.333228
v 0.034322 0.258120 0.346099
v 0.142641 0.261895 0.281499
v 0.081798 0.255963 0.339004
v 0.072044 0.277724 0.332321
v -0.159304 -0.277724 0.219311
v -0.153067 -0.253790 0.242589
v 0.151350 -0.204207 0.199145
v 0.151350 0.204208 0.199145
v -0.151350 0.204208 0.199145
v -0.151350 -0.204207 0.199145
v 0.021956 -0.197857 0.386903
v -0.027978 -0.198068 0.386903
v -0.052763 -0.241417 0.386903
v -0.027614 -0.284557 0.386903
v 0.022320 -0.284346 0.386903
v 0.047106 -0.240997 0.386903
v 0.020487 -0.200428 0.370804
v -0.026487 -0.200626 0.370804
v -0.049802 -0.241405 0.370804
v -0.026144 -0.281986 0.370804
v 0.020829 -0.281788 0.370804
v 0.044144 -0.241009 0.370804
v 0.037639 -0.170429 0.378306
v -0.043891 -0.170772 0.378306
v -0.084358 -0.241550 0.378306
v -0.043296 -0.311985 0.378306
v 0.038233 -0.311642 0.378306
v 0.078701 -0.240864 0.378306
v 0.037639 -0.170429 0.342741
v -0.043891 -0.170772 0.342741
v -0.084358 -0.241550 0.342741
v -0.043296 -0.311985 0.342741
v 0.038233 -0.311642 0.342741
v 0.078701 -0.240864 0.342741
v 0.121466 -0.204207 0.199145
v 0.121466 0.204208 0.199145
v -0.121466 -0.204207 0.199145
v -0.121466 0.204208 0.199145
v 0.081542 -0.204207 0.164572
v 0.081542 0.204208 0.164572
v -0.081542 -0.204207 0.164572
v -0.081542 0.204208 0.164572
v -0.166760 -0.277724 -0.050338
v -0.145330 -0.277724 -0.071944
v -0.163694 -0.277724 -0.050582
v 0.145330 -0.277724 -0.071944
v 0.166760 -0.277724 -0.050338
v -0.120331 -0.277724 0.234954
v -0.145330 -0.204207 -0.071944
v -0.166760 -0.204207 -0.050338
v 0.166313 -0.204207 -0.050552
v 0.145330 -0.204207 -0.071944
v -0.164708 -0.204207 0.199145
v -0.145330 0.277724 -0.071944
v -0.166760 0.277724 -0.050338
v 0.166760 0.277724 -0.050338
v 0.145330 0.277724 -0.071944
v -0.166760 0.204207 -0.050338
v -0.145330 0.204207 -0.071944
v 0.164708 0.204207 0.199145
v 0.145330 0.204207 -0.071944
v 0.166760 0.204207 -0.050338
v 0.135035 -0.204207 0.038866
v 0.151350 -0.204207 0.055180
v 0.151350 0.204208 0.055180
v 0.135035 0.204208 0.038865
v -0.151350 -0.204207 0.055180
v -0.135035 -0.204207 0.038866
v -0.135035 0.204208 0.038865
v -0.151350 0.204208 0.055180
v 0.151350 -0.068069 0.188675
v 0.151350 0.068070 0.199145
v -0.155165 0.068070 0.199145
v -0.151350 -0.068069 0.199145
v 0.109291 -0.103209 0.199145
v 0.121466 0.068070 0.199145
v -0.111013 0.068070 0.199145
v -0.126568 -0.068069 0.199145
v 0.083998 -0.103209 0.164572
v 0.083998 0.068070 0.164572
v -0.081542 0.068070 0.164572
v -0.074951 -0.068069 0.164572
v 0.135035 -0.068069 0.038866
v 0.135035 0.068070 0.038866
v 0.151350 0.068070 0.055180
v 0.151350 -0.068069 0.055180
v -0.127249 0.068070 0.038866
v -0.137843 -0.068069 0.041673
v -0.151350 -0.068069 0.055180
v -0.151350 0.068070 0.055180
v 0.121235 0.277724 0.261623
v 0.000000 -0.204207 0.038866
v 0.000000 0.204208 0.038865
v -0.001404 -0.068069 0.040269
v 0.003893 0.068070 0.038866
v 0.000000 -0.204207 0.164572
v 0.000000 0.204208 0.164572
v 0.004524 -0.085639 0.164572
v 0.001228 0.068070 0.164572
v 0.066010 -0.277724 0.184719
v 0.094027 -0.277724 0.222318
v 0.095224 -0.277724 0.277325
v 0.077207 -0.277724 0.319238
v 0.095363 -0.301977 0.274469
v 0.097025 -0.364431 0.310546
v 0.069234 -0.302416 0.128749
v 0.067278 -0.446471 0.106964
v 0.083860 -0.461256 0.094695
v 0.114958 -0.414532 0.094368
v 0.109841 -0.328054 0.117404
v 0.083860 -0.277724 0.122109
v 0.083860 -0.446512 -0.002280
v 0.114958 -0.400886 0.004620
v 0.114958 -0.310862 0.018234
v 0.092102 -0.277724 0.023305
v 0.076528 -0.435644 -0.010875
v 0.108938 -0.392777 -0.004393
v 0.108938 -0.308198 0.008398
v 0.076528 -0.258078 0.014881
v 0.076528 -0.413559 -0.119296
v 0.108938 -0.370693 -0.112814
v 0.108938 -0.286113 -0.100023
v 0.076528 -0.243247 -0.093541
v 0.065378 -0.289463 0.191809
v 0.093571 -0.289944 0.229277
v 0.109816 -0.382096 0.252569
v 0.106858 -0.417550 0.279192
v 0.085795 -0.453903 0.157461
v 0.106169 -0.332818 0.159243
v 0.118840 -0.401978 0.156817
v 0.071915 -0.305468 0.160000
v 0.094943 -0.409039 0.112625
v 0.094943 -0.335180 0.123794
v 0.034162 -0.381469 0.331675
v 0.010681 -0.277724 0.334213
v 0.000000 -0.480155 0.091837
v 0.000000 -0.465411 -0.005138
v 0.000000 -0.453399 -0.013560
v 0.000000 -0.431315 -0.121982
v 0.050717 -0.442028 0.286542
v 0.018761 -0.481527 0.159758
v 0.000000 -0.461976 0.104619
v 0.008625 -0.277724 0.169145
v 0.000000 -0.294120 0.131800
v 0.000000 -0.277724 0.128332
v 0.000000 -0.241656 0.014300
v 0.000000 -0.225491 -0.090856
v 0.012922 -0.296580 0.176290
v 0.013991 -0.306393 0.171195
v 0.015496 -0.303143 0.159122
v 0.127758 -0.400497 0.213251
v 0.108042 -0.445337 0.230728
v 0.065190 -0.305089 0.181146
v 0.095657 -0.326106 0.205169
v 0.044247 -0.471183 0.236827
v 0.016002 -0.313751 0.333022
v 0.082154 -0.303232 0.318400
v -0.048228 -0.277724 0.184719
v -0.074961 -0.277724 0.222318
v -0.072334 -0.277724 0.288928
v -0.055532 -0.277724 0.319238
v -0.061069 -0.329677 0.291853
v -0.033718 -0.387582 0.325076
v -0.069234 -0.302416 0.128749
v -0.067278 -0.446471 0.106964
v -0.083860 -0.461256 0.094695
v -0.114958 -0.413066 0.084727
v -0.114958 -0.323886 0.103895
v -0.083860 -0.277724 0.122109
v -0.083860 -0.446512 -0.002280
v -0.114958 -0.400886 0.004620
v -0.114958 -0.310862 0.018234
v -0.092102 -0.277724 0.023305
v -0.076528 -0.435644 -0.010875
v -0.108938 -0.392777 -0.004393
v -0.108938 -0.308198 0.008398
v -0.076528 -0.258078 0.014881
v -0.076528 -0.413559 -0.119296
v -0.108938 -0.370693 -0.112814
v -0.108938 -0.286113 -0.100023
v -0.076528 -0.243247 -0.093541
v -0.038737 -0.308142 0.191809
v -0.065005 -0.318394 0.229277
v -0.033902 -0.422062 0.252569
v -0.010105 -0.449220 0.279192
v -0.051089 -0.474223 0.160787
v -0.087075 -0.361302 0.164582
v -0.074914 -0.430553 0.162156
v -0.064466 -0.323749 0.165339
v -0.094943 -0.409039 0.112625
v -0.094943 -0.335180 0.123794
v -0.056291 -0.438925 0.209037
v -0.024553 -0.469126 0.230728
v -0.030871 -0.331100 0.181146
v -0.049926 -0.366578 0.205169
v -0.049680 -0.326885 0.318400
v -0.062514 -0.363771 0.184732
v 0.000000 -0.393177 -0.116214
v 0.048168 -0.382002 -0.114524
v 0.068567 -0.355021 -0.110444
v 0.068567 -0.301785 -0.102393
v 0.048168 -0.274805 -0.098313
v 0.000000 -0.263629 -0.096623
v -0.048168 -0.382002 -0.114524
v -0.068567 -0.355021 -0.110444
v -0.068567 -0.301785 -0.102393
v -0.048168 -0.274805 -0.098313
v -0.066010 0.277724 0.184719
v -0.094027 0.277724 0.222318
v -0.095224 0.277724 0.277325
v -0.077207 0.277724 0.319238
v -0.095363 0.301977 0.274469
v -0.097025 0.364431 0.310546
v -0.069234 0.302416 0.128749
v -0.067278 0.446471 0.106964
v -0.083860 0.461256 0.094695
v -0.114958 0.414532 0.094368
v -0.109841 0.328054 0.117404
v -0.083860 0.277724 0.122109
v -0.083860 0.446512 -0.002280
v -0.114958 0.400886 0.004620
v -0.114958 0.310862 0.018234
v -0.092102 0.277724 0.023305
v -0.076528 0.435644 -0.010875
v -0.108938 0.392777 -0.004393
v -0.108938 0.308198 0.008398
v -0.076528 0.258078 0.014881
v -0.076528 0.421326 -0.117064
v -0.108938 0.378459 -0.110582
v -0.108938 0.293880 -0.097791
v -0.076528 0.251014 -0.091308
v -0.065378 0.289463 0.191809
v -0.093571 0.289944 0.229277
v -0.109816 0.382096 0.252569
v -0.106858 0.417550 0.279192
v -0.085795 0.453903 0.157461
v -0.106169 0.332818 0.159243
v -0.118840 0.401978 0.156817
v -0.071915 0.305468 0.160000
v -0.094943 0.409039 0.112625
v -0.094943 0.335180 0.123794
v -0.034162 0.381469 0.331675
v -0.010681 0.277724 0.334213
v 0.000000 0.480155 0.091837
v 0.000000 0.465411 -0.005138
v 0.000000 0.453399 -0.013560
v 0.000000 0.439081 -0.119749
v -0.050717 0.442028 0.286542
v -0.018761 0.481527 0.159758
v 0.000000 0.461976 0.104619
v -0.008625 0.277724 0.169145
v 0.000000 0.294120 0.131800
v 0.000000 0.277724 0.128332
v 0.000000 0.246442 0.014300
v 0.000000 0.233258 -0.088623
v -0.012922 0.296580 0.176290
v -0.013991 0.306393 0.171195
v -0.015496 0.303143 0.159122
v -0.127758 0.400497 0.213251
v -0.108042 0.445337 0.230728
v -0.065190 0.305089 0.181146
v -0.095657 0.326106 0.205169
v -0.044247 0.471183 0.236827
v -0.016002 0.313751 0.333022
v -0.082154 0.303232 0.318400
v 0.048228 0.277724 0.184719
v 0.074961 0.277724 0.222318
v 0.072334 0.277724 0.288928
v 0.055532 0.277724 0.319238
v 0.061069 0.329677 0.291853
v 0.033718 0.387582 0.325076
v 0.069234 0.302416 0.128749
v 0.067278 0.446471 0.106964
v 0.083860 0.461256 0.094695
v 0.114958 0.413066 0.084727
v 0.114958 0.323886 0.103895
v 0.083860 0.277724 0.122109
v 0.083860 0.446512 -0.002280
v 0.114958 0.400886 0.004620
v 0.114958 0.310862 0.018234
v 0.092102 0.277724 0.023305
v 0.076528 0.435644 -0.010875
v 0.108938 0.392777 -0.004393
v 0.108938 0.308198 0.008398
v 0.076528 0.258078 0.014881
v 0.076528 0.421326 -0.117064
v 0.108938 0.378459 -0.110582
v 0.108938 0.293880 -0.097791
v 0.076528 0.251014 -0.091308
v 0.038737 0.308142 0.191809
v 0.065005 0.318394 0.229277
v 0.033902 0.422062 0.252569
v 0.010105 0.449220 0.279192
v 0.051089 0.474223 0.160787
v 0.087075 0.361302 0.164582
v 0.074914 0.430553 0.162156
v 0.064466 0.323749 0.165339
v 0.094943 0.409039 0.112625
v 0.094943 0.335180 0.123794
v 0.056291 0.438925 0.209037
v 0.024553 0.469126 0.230728
v 0.030871 0.331100 0.181146
v 0.049926 0.366578 0.205169
v 0.049680 0.326885 0.318400
v 0.062514 0.363771 0.184732
v 0.000000 0.400944 -0.113982
v -0.048168 0.389768 -0.112292
v -0.068567 0.362787 -0.108212
v -0.068567 0.309552 -0.100161
v -0.048168 0.282571 -0.096081
v 0.000000 0.271395 -0.094391
v 0.048168 0.389768 -0.112292
v 0.068567 0.362787 -0.108212
v 0.068567 0.309552 -0.100161
v 0.048168 0.282571 -0.096081
v 0.086537 -0.073697 -0.100947
v 0.086537 0.073950 -0.100947
v 0.073823 0.073950 -0.113660
v 0.073823 -0.073697 -0.113660
v 0.073823 -0.086410 -0.100947
v 0.073823 0.086663 -0.100947
v 0.086537 -0.073697 0.043533
v 0.073823 0.086663 0.043533
v 0.086537 0.073950 0.043533
v 0.073823 -0.086410 0.043533
v 0.000000 0.073950 -0.113660
v 0.000000 -0.086410 -0.100947
v 0.000000 0.086663 -0.100947
v 0.000000 -0.073697 -0.113660
v 0.000000 0.086663 0.043533
v 0.000000 -0.086410 0.043533
v -0.086537 -0.073697 -0.100947
v -0.086537 0.073950 -0.100947
v -0.073823 0.073950 -0.113660
v -0.073823 -0.073697 -0.113660
v -0.073823 -0.086410 -0.100947
v -0.073823 0.086663 -0.100947
v -0.086537 -0.073697 0.043533
v -0.073823 0.086663 0.043533
v -0.086537 0.073950 0.043533
v -0.073823 -0.086410 0.043533
v 0.017902 0.286509 -0.161908
v -0.023539 0.286682 -0.161932
v -0.044108 0.322319 -0.166860
v -0.023237 0.357783 -0.171765
v 0.018204 0.357610 -0.171741
v 0.038774 0.321973 -0.166813
v 0.030917 0.263961 -0.158790
v -0.036745 0.264243 -0.158829
v -0.070329 0.322428 -0.166876
v -0.036252 0.380332 -0.174883
v 0.031410 0.380050 -0.174844
v 0.064995 0.321864 -0.166797
v 0.030917 0.272991 -0.093492
v -0.036745 0.273273 -0.093530
v -0.070329 0.331459 -0.101577
v -0.036252 0.389362 -0.109585
v 0.031410 0.389080 -0.109546
v 0.064995 0.330895 -0.101499
v -0.018419 -0.284958 -0.162334
v 0.023022 -0.285131 -0.162358
v 0.043591 -0.320768 -0.167287
v 0.022720 -0.356232 -0.172191
v -0.018721 -0.356059 -0.172168
v -0.039291 -0.320422 -0.167239
v -0.031434 -0.262410 -0.159216
v 0.036228 -0.262692 -0.159255
v 0.069812 -0.320877 -0.167302
v 0.035735 -0.378781 -0.175310
v -0.031927 -0.378499 -0.175271
v -0.065512 -0.320313 -0.167224
v -0.031434 -0.271440 -0.093918
v 0.036228 -0.271722 -0.093957
v 0.069812 -0.329908 -0.102004
v 0.035735 -0.387811 -0.110012
v -0.031927 -0.387529 -0.109973
v -0.065512 -0.329344 -0.101926
v -0.142641 -0.277724 0.281499
v -0.142641 -0.277724 0.281499
v -0.082354 -0.277724 0.341786
v -0.082354 -0.277724 0.341786
v -0.082354 -0.277724 0.341786
v -0.082354 -0.204207 0.341786
v -0.082354 -0.204207 0.341786
v 0.034322 -0.204207 0.346099
v -0.142641 -0.204207 0.281499
v 0.142641 -0.204207 0.281499
v 0.142641 -0.204207 0.281499
v 0.164708 -0.204207 0.199145
v 0.082354 -0.204207 0.333228
v 0.082354 -0.277725 0.333228
v 0.082354 -0.277725 0.333228
v 0.068427 -0.277724 0.317663
v 0.068427 -0.277724 0.317663
v 0.142641 -0.277725 0.281499
v 0.142641 -0.277725 0.281499
v 0.034322 -0.277725 0.346099
v 0.164708 -0.277724 0.199145
v 0.164708 -0.277724 0.199145
v 0.164708 0.204207 0.199145
v 0.164708 0.204207 0.199145
v 0.164708 0.204207 0.199145
v 0.166760 0.204207 -0.050338
v 0.166760 0.204207 -0.050338
v -0.142641 0.277724 0.281499
v -0.082354 0.277724 0.341786
v -0.082354 0.277724 0.341786
v -0.082354 0.277724 0.341786
v -0.164708 0.277724 0.199145
v -0.164708 0.277724 0.199145
v -0.082354 0.204207 0.341786
v -0.082354 0.204207 0.341786
v 0.034322 0.204207 0.346099
v -0.142641 0.204207 0.281499
v -0.164708 0.204207 0.199145
v -0.164708 0.204207 0.199145
v 0.142641 0.204207 0.281499
v 0.142641 0.204207 0.281499
v 0.082354 0.204207 0.333228
v 0.082354 0.204207 0.333228
v 0.081798 0.255963 0.339004
v 0.081798 0.255963 0.339004
v 0.081798 0.255963 0.339004
v 0.072044 0.277724 0.332321
v 0.072044 0.277724 0.332321
v 0.142641 0.261895 0.281499
v 0.142641 0.261895 0.281499
v 0.034322 0.258120 0.346099
v 0.121235 0.277724 0.261623
v 0.164708 0.277724 0.199145
v 0.164708 0.277724 0.199145
v -0.164708 -0.204207 0.199145
v -0.164708 -0.204207 0.199145
v -0.164708 -0.204207 0.199145
v -0.164708 -0.204207 0.199145
v -0.164708 -0.277724 0.199145
v -0.164708 -0.277724 0.199145
v -0.159304 -0.277724 0.219311
v -0.159304 -0.277724 0.219311
v -0.153067 -0.253790 0.242589
v -0.153067 -0.253790 0.242589
v -0.166760 -0.204207 -0.050338
v -0.166760 -0.204207 -0.050338
v 0.151350 0.068070 0.199145
v 0.151350 0.204208 0.199145
v -0.151350 -0.068069 0.199145
v -0.151350 -0.204207 0.199145
v -0.027978 -0.198068 0.386903
v -0.027978 -0.198068 0.386903
v -0.027978 -0.198068 0.386903
v 0.021956 -0.197857 0.386903
v 0.021956 -0.197857 0.386903
v 0.021956 -0.197857 0.386903
v -0.052763 -0.241417 0.386903
v -0.052763 -0.241417 0.386903
v -0.052763 -0.241417 0.386903
v -0.027614 -0.284557 0.386903
v -0.027614 -0.284557 0.386903
v -0.027614 -0.284557 0.386903
v 0.022320 -0.284346 0.386903
v 0.022320 -0.284346 0.386903
v 0.022320 -0.284346 0.386903
v 0.047106 -0.240997 0.386903
v 0.047106 -0.240997 0.386903
v 0.047106 -0.240997 0.386903
v -0.026487 -0.200626 0.370804
v -0.026487 -0.200626 0.370804
v 0.020487 -0.200428 0.370804
v 0.020487 -0.200428 0.370804
v -0.049802 -0.241405 0.370804
v -0.049802 -0.241405 0.370804
v -0.026144 -0.281986 0.370804
v -0.026144 -0.281986 0.370804
v 0.020829 -0.281788 0.370804
v 0.020829 -0.281788 0.370804
v 0.044144 -0.241009 0.370804
v 0.044144 -0.241009 0.370804
v -0.043891 -0.170772 0.378306
v -0.043891 -0.170772 0.378306
v -0.043891 -0.170772 0.378306
v 0.037639 -0.170429 0.378306
v 0.037639 -0.170429 0.378306
v 0.037639 -0.170429 0.378306
v -0.084358 -0.241550 0.378306
v -0.084358 -0.241550 0.378306
v -0.084358 -0.241550 0.378306
v -0.043296 -0.311985 0.378306
v -0.043296 -0.311985 0.378306
v -0.043296 -0.311985 0.378306
v 0.038233 -0.311642 0.378306
v 0.038233 -0.311642 0.378306
v 0.038233 -0.311642 0.378306
v 0.078701 -0.240864 0.378306
v 0.078701 -0.240864 0.378306
v 0.078701 -0.240864 0.378306
v -0.043891 -0.170772 0.342741
v -0.043891 -0.170772 0.342741
v 0.037639 -0.170429 0.342741
v 0.037639 -0.170429 0.342741
v -0.084358 -0.241550 0.342741
v -0.084358 -0.241550 0.342741
v -0.043296 -0.311985 0.342741
v -0.043296 -0.311985 0.342741
v 0.038233 -0.311642 0.342741
v 0.038233 -0.311642 0.342741
v 0.078701 -0.240864 0.342741
v 0.078701 -0.240864 0.342741
v 0.121466 0.068070 0.199145
v 0.121466 0.204208 0.199145
v -0.126568 -0.068069 0.199145
v -0.121466 -0.204207 0.199145
v -0.151350 0.204208 0.199145
v -0.121466 0.204208 0.199145
v 0.121466 -0.204207 0.199145
v 0.151350 -0.204207 0.199145
v 0.083998 0.068070 0.164572
v 0.081542 0.204208 0.164572
v -0.081542 -0.204207 0.164572
v -0.081542 0.204208 0.164572
v -0.074951 -0.068069 0.164572
v 0.081542 -0.204207 0.164572
v -0.163694 -0.277724 -0.050582
v -0.166760 -0.277724 -0.050338
v -0.166760 -0.277724 -0.050338
v -0.166760 -0.277724 -0.050338
v -0.145330 -0.277724 -0.071944
v -0.145330 -0.277724 -0.071944
v -0.145330 -0.277724 -0.071944
v 0.145330 -0.277724 -0.071944
v 0.145330 -0.277724 -0.071944
v 0.166760 -0.277724 -0.050338
v 0.166760 -0.277724 -0.050338
v 0.166313 -0.204207 -0.050552
v 0.166313 -0.204207 -0.050552
v 0.166313 -0.204207 -0.050552
v 0.145330 -0.204207 -0.071944
v 0.145330 -0.204207 -0.071944
v 0.145330 -0.204207 -0.071944
v -0.166760 0.204207 -0.050338
v -0.166760 0.204207 -0.050338
v -0.166760 0.204207 -0.050338
v -0.145330 0.204207 -0.071944
v -0.145330 0.204207 -0.071944
v -0.145330 0.204207 -0.071944
v -0.145330 -0.204207 -0.071944
v -0.145330 -0.204207 -0.071944
v 0.145330 0.277724 -0.071944
v 0.145330 0.277724 -0.071944
v 0.166760 0.277724 -0.050338
v 0.166760 0.277724 -0.050338
v 0.145330 0.204207 -0.071944
v 0.145330 0.204207 -0.071944
v -0.166760 0.277724 -0.050338
v -0.166760 0.277724 -0.050338
v -0.145330 0.277724 -0.071944
v -0.145330 0.277724 -0.071944
v 0.135035 0.068070 0.038866
v 0.135035 0.204208 0.038865
v 0.151350 -0.068069 0.055180
v 0.151350 -0.204207 0.055180
v -0.137843 -0.068069 0.041673
v -0.135035 -0.204207 0.038866
v -0.151350 0.068070 0.055180
v -0.151350 0.204208 0.055180
v 0.151350 0.204208 0.055180
v -0.151350 -0.204207 0.055180
v 0.151350 -0.068069 0.188675
v -0.155165 0.068070 0.199145
v 0.109291 -0.103209 0.199145
v -0.111013 0.068070 0.199145
v 0.083998 -0.103209 0.164572
v -0.081542 0.068070 0.164572
v 0.135035 -0.204207 0.038866
v 0.135035 -0.068069 0.038866
v 0.151350 0.068070 0.055180
v -0.135035 0.204208 0.038865
v -0.127249 0.068070 0.038866
v -0.151350 -0.068069 0.055180
v -0.120331 -0.277724 0.234954
v -0.120331 -0.277724 0.234954
v 0.083860 -0.461256 0.094695
v 0.083860 -0.461256 0.094695
v 0.083860 -0.461256 0.094695
v 0.114958 -0.414532 0.094368
v 0.109841 -0.328054 0.117404
v 0.067278 -0.446471 0.106964
v 0.067278 -0.446471 0.106964
v 0.067278 -0.446471 0.106964
v 0.000000 -0.465411 -0.005138
v 0.083860 -0.446512 -0.002280
v 0.083860 -0.446512 -0.002280
v 0.083860 -0.446512 -0.002280
v 0.114958 -0.400886 0.004620
v 0.114958 -0.310862 0.018234
v 0.000000 -0.453399 -0.013560
v 0.076528 -0.435644 -0.010875
v 0.076528 -0.435644 -0.010875
v 0.076528 -0.435644 -0.010875
v 0.108938 -0.392777 -0.004393
v 0.108938 -0.308198 0.008398
v 0.000000 -0.431315 -0.121982
v 0.076528 -0.413559 -0.119296
v 0.076528 -0.413559 -0.119296
v 0.108938 -0.370693 -0.112814
v 0.108938 -0.286113 -0.100023
v 0.076528 -0.243247 -0.093541
v 0.093571 -0.289944 0.229277
v 0.065378 -0.289463 0.191809
v 0.094943 -0.409039 0.112625
v 0.094943 -0.335180 0.123794
v 0.069234 -0.302416 0.128749
v 0.000000 -0.294120 0.131800
v 0.083860 -0.277724 0.122109
v 0.076528 -0.258078 0.014881
v 0.106858 -0.417550 0.279192
v 0.106858 -0.417550 0.279192
v 0.108042 -0.445337 0.230728
v 0.095657 -0.326106 0.205169
v 0.065190 -0.305089 0.181146
v 0.000000 -0.480155 0.091837
v 0.050717 -0.442028 0.286542
v 0.085795 -0.453903 0.157461
v 0.000000 -0.461976 0.104619
v 0.092102 -0.277724 0.023305
v 0.012922 -0.296580 0.176290
v 0.000000 -0.225491 -0.090856
v 0.013991 -0.306393 0.171195
v 0.034162 -0.381469 0.331675
v 0.097025 -0.364431 0.310546
v 0.097025 -0.364431 0.310546
v 0.082154 -0.303232 0.318400
v 0.077207 -0.277724 0.319238
v -0.083860 -0.461256 0.094695
v -0.083860 -0.461256 0.094695
v -0.083860 -0.461256 0.094695
v -0.114958 -0.413066 0.084727
v -0.114958 -0.323886 0.103895
v -0.067278 -0.446471 0.106964
v -0.067278 -0.446471 0.106964
v -0.067278 -0.446471 0.106964
v -0.083860 -0.446512 -0.002280
v -0.083860 -0.446512 -0.002280
v -0.083860 -0.446512 -0.002280
v -0.114958 -0.400886 0.004620
v -0.114958 -0.310862 0.018234
v -0.076528 -0.435644 -0.010875
v -0.076528 -0.435644 -0.010875
v -0.076528 -0.435644 -0.010875
v -0.108938 -0.392777 -0.004393
v -0.108938 -0.308198 0.008398
v -0.076528 -0.413559 -0.119296
v -0.076528 -0.413559 -0.119296
v -0.108938 -0.370693 -0.112814
v -0.108938 -0.286113 -0.100023
v -0.076528 -0.243247 -0.093541
v -0.065005 -0.318394 0.229277
v -0.038737 -0.308142 0.191809
v -0.094943 -0.409039 0.112625
v -0.094943 -0.335180 0.123794
v -0.069234 -0.302416 0.128749
v -0.083860 -0.277724 0.122109
v -0.076528 -0.258078 0.014881
v -0.010105 -0.449220 0.279192
v -0.010105 -0.449220 0.279192
v -0.024553 -0.469126 0.230728
v -0.049926 -0.366578 0.205169
v -0.030871 -0.331100 0.181146
v -0.030871 -0.331100 0.181146
v -0.051089 -0.474223 0.160787
v -0.092102 -0.277724 0.023305
v -0.033718 -0.387582 0.325076
v -0.033718 -0.387582 0.325076
v -0.049680 -0.326885 0.318400
v -0.055532 -0.277724 0.319238
v -0.062514 -0.363771 0.184732
v 0.000000 -0.393177 -0.116214
v 0.048168 -0.382002 -0.114524
v 0.068567 -0.355021 -0.110444
v 0.068567 -0.301785 -0.102393
v 0.048168 -0.274805 -0.098313
v 0.000000 -0.263629 -0.096623
v -0.048168 -0.382002 -0.114524
v -0.068567 -0.355021 -0.110444
v -0.068567 -0.301785 -0.102393
v -0.048168 -0.274805 -0.098313
v -0.083860 0.461256 0.094695
v -0.083860 0.461256 0.094695
v -0.083860 0.461256 0.094695
v -0.114958 0.414532 0.094368
v -0.109841 0.328054 0.117404
v -0.067278 0.446471 0.106964
v -0.067278 0.446471 0.106964
v -0.067278 0.446471 0.106964
v 0.000000 0.465411 -0.005138
v -0.083860 0.446512 -0.002280
v -0.083860 0.446512 -0.002280
v -0.083860 0.446512 -0.002280
v -0.114958 0.400886 0.004620
v -0.114958 0.310862 0.018234
v 0.000000 0.453399 -0.013560
v -0.076528 0.435644 -0.010875
v -0.076528 0.435644 -0.010875
v -0.076528 0.435644 -0.010875
v -0.108938 0.392777 -0.004393
v -0.108938 0.308198 0.008398
v 0.000000 0.439081 -0.119749
v -0.076528 0.421326 -0.117064
v -0.076528 0.421326 -0.117064
v -0.108938 0.378459 -0.110582
v -0.108938 0.293880 -0.097791
v -0.076528 0.251014 -0.091308
v -0.093571 0.289944 0.229277
v -0.065378 0.289463 0.191809
v -0.094943 0.409039 0.112625
v -0.094943 0.335180 0.123794
v -0.069234 0.302416 0.128749
v 0.000000 0.294120 0.131800
v -0.083860 0.277724 0.122109
v -0.076528 0.258078 0.014881
v -0.106858 0.417550 0.279192
v -0.106858 0.417550 0.279192
v -0.108042 0.445337 0.230728
v -0.095657 0.326106 0.205169
v -0.065190 0.305089 0.181146
v 0.000000 0.480155 0.091837
v -0.050717 0.442028 0.286542
v -0.085795 0.453903 0.157461
v 0.000000 0.461976 0.104619
v -0.092102 0.277724 0.023305
v -0.012922 0.296580 0.176290
v 0.000000 0.233258 -0.088623
v -0.013991 0.306393 0.171195
v -0.034162 0.381469 0.331675
v -0.097025 0.364431 0.310546
v -0.097025 0.364431 0.310546
v -0.082154 0.303232 0.318400
v -0.077207 0.277724 0.319238
v 0.083860 0.461256 0.094695
v 0.083860 0.461256 0.094695
v 0.083860 0.461256 0.094695
v 0.114958 0.413066 0.084727
v 0.114958 0.323886 0.103895
v 0.067278 0.446471 0.106964
v 0.067278 0.446471 0.106964
v 0.067278 0.446471 0.106964
v 0.083860 0.446512 -0.002280
v 0.083860 0.446512 -0.002280
v 0.083860 0.446512 -0.002280
v 0.114958 0.400886 0.004620
v 0.114958 0.310862 0.018234
v 0.076528 0.435644 -0.010875
v 0.076528 0.435644 -0.010875
v 0.076528 0.435644 -0.010875
v 0.108938 0.392777 -0.004393
v 0.108938 0.308198 0.008398
v 0.076528 0.421326 -0.117064
v 0.076528 0.421326 -0.117064
v 0.108938 0.378459 -0.110582
v 0.108938 0.293880 -0.097791
v 0.076528 0.251014 -0.091308
v 0.065005 0.318394 0.229277
v 0.038737 0.308142 0.191809
v 0.094943 0.409039 0.112625
v 0.094943 0.335180 0.123794
v 0.069234 0.302416 0.128749
v 0.083860 0.277724 0.122109
v 0.076528 0.258078 0.014881
v 0.010105 0.449220 0.279192
v 0.010105 0.449220 0.279192
v 0.024553 0.469126 0.230728
v 0.049926 0.366578 0.205169
v 0.030871 0.331100 0.181146
v 0.030871 0.331100 0.181146
v 0.051089 0.474223 0.160787
v 0.092102 0.277724 0.023305
v 0.033718 0.387582 0.325076
v 0.033718 0.387582 0.325076
v 0.049680 0.326885 0.318400
v 0.055532 0.277724 0.319238
v 0.062514 0.363771 0.184732
v 0.000000 0.400944 -0.113982
v -0.048168 0.389768 -0.112292
v -0.068567 0.362787 -0.108212
v -0.068567 0.309552 -0.100161
v -0.048168 0.282571 -0.096081
v 0.000000 0.271395 -0.094391
v 0.048168 0.389768 -0.112292
v 0.068567 0.362787 -0.108212
v 0.068567 0.309552 -0.100161
v 0.048168 0.282571 -0.096081
v 0.086537 -0.073697 -0.100947
v 0.086537 -0.073697 -0.100947
v 0.086537 -0.073697 -0.100947
v 0.086537 0.073950 -0.100947
v 0.086537 0.073950 -0.100947
v 0.086537 0.073950 -0.100947
v 0.073823 0.073950 -0.113660
v 0.073823 0.073950 -0.113660
v 0.073823 0.073950 -0.113660
v 0.073823 -0.073697 -0.113660
v 0.073823 -0.073697 -0.113660
v 0.073823 -0.073697 -0.113660
v 0.000000 -0.086410 -0.100947
v 0.073823 -0.086410 -0.100947
v 0.073823 -0.086410 -0.100947
v 0.073823 -0.086410 -0.100947
v 0.073823 0.086663 -0.100947
v 0.073823 0.086663 -0.100947
v 0.073823 0.086663 -0.100947
v 0.086537 -0.073697 0.043533
v 0.073823 0.086663 0.043533
v 0.086537 0.073950 0.043533
v 0.073823 -0.086410 0.043533
v 0.000000 0.073950 -0.113660
v 0.000000 0.086663 -0.100947
v 0.000000 -0.073697 -0.113660
v -0.086537 -0.073697 -0.100947
v -0.086537 -0.073697 -0.100947
v -0.086537 -0.073697 -0.100947
v -0.086537 0.073950 -0.100947
v -0.086537 0.073950 -0.100947
v -0.086537 0.073950 -0.100947
v -0.073823 0.073950 -0.113660
v -0.073823 0.073950 -0.113660
v -0.073823 0.073950 -0.113660
v -0.073823 -0.073697 -0.113660
v -0.073823 -0.073697 -0.113660
v -0.073823 -0.073697 -0.113660
v -0.073823 -0.086410 -0.100947
v -0.073823 -0.086410 -0.100947
v -0.073823 -0.086410 -0.100947
v -0.073823 0.086663 -0.100947
v -0.073823 0.086663 -0.100947
v -0.073823 0.086663 -0.100947
v -0.086537 -0.073697 0.043533
v -0.073823 0.086663 0.043533
v -0.086537 0.073950 0.043533
v -0.073823 -0.086410 0.043533
v -0.023539 0.286682 -0.161932
v -0.023539 0.286682 -0.161932
v 0.017902 0.286509 -0.161908
v 0.017902 0.286509 -0.161908
v -0.044108 0.322319 -0.166860
v -0.044108 0.322319 -0.166860
v -0.023237 0.357783 -0.171765
v -0.023237 0.357783 -0.171765
v 0.038774 0.321973 -0.166813
v 0.038774 0.321973 -0.166813
v 0.018204 0.357610 -0.171741
v 0.018204 0.357610 -0.171741
v -0.036745 0.264243 -0.158829
v -0.036745 0.264243 -0.158829
v -0.036745 0.264243 -0.158829
v 0.030917 0.263961 -0.158790
v 0.030917 0.263961 -0.158790
v 0.030917 0.263961 -0.158790
v -0.070329 0.322428 -0.166876
v -0.070329 0.322428 -0.166876
v -0.070329 0.322428 -0.166876
v -0.036252 0.380332 -0.174883
v -0.036252 0.380332 -0.174883
v -0.036252 0.380332 -0.174883
v 0.031410 0.380050 -0.174844
v 0.031410 0.380050 -0.174844
v 0.031410 0.380050 -0.174844
v 0.064995 0.321864 -0.166797
v 0.064995 0.321864 -0.166797
v 0.064995 0.321864 -0.166797
v -0.036745 0.273273 -0.093530
v 0.030917 0.272991 -0.093492
v -0.070329 0.331459 -0.101577
v -0.036252 0.389362 -0.109585
v 0.031410 0.389080 -0.109546
v 0.064995 0.330895 -0.101499
v 0.023022 -0.285131 -0.162358
v 0.023022 -0.285131 -0.162358
v -0.018419 -0.284958 -0.162334
v -0.018419 -0.284958 -0.162334
v 0.043591 -0.320768 -0.167287
v 0.043591 -0.320768 -0.167287
v 0.022720 -0.356232 -0.172191
v 0.022720 -0.356232 -0.172191
v -0.039291 -0.320422 -0.167239
v -0.039291 -0.320422 -0.167239
v -0.018721 -0.356059 -0.172168
v -0.018721 -0.356059 -0.172168
v 0.036228 -0.262692 -0.159255
v 0.036228 -0.262692 -0.159255
v 0.036228 -0.262692 -0.159255
v -0.031434 -0.262410 -0.159216
v -0.031434 -0.262410 -0.159216
v -0.031434 -0.262410 -0.159216
v 0.069812 -0.320877 -0.167302
v 0.069812 -0.320877 -0.167302
v 0.069812 -0.320877 -0.167302
v 0.035735 -0.378781 -0.175310
v 0.035735 -0.378781 -0.175310
v 0.035735 -0.378781 -0.175310
v -0.031927 -0.378499 -0.175271
v -0.031927 -0.378499 -0.175271
v -0.031927 -0.378499 -0.175271
v -0.065512 -0.320313 -0.167224
v -0.065512 -0.320313 -0.167224
v -0.065512 -0.320313 -0.167224
v 0.036228 -0.271722 -0.093957
v -0.031434 -0.271440 -0.093918
v 0.069812 -0.329908 -0.102004
v 0.035735 -0.387811 -0.110012
v -0.031927 -0.387529 -0.109973
v -0.065512 -0.329344 -0.101926
vn 0.4666 -0.0000 0.8845
vn 0.1122 -0.0000 0.9937
vn -0.9659 -0.0000 0.2588
vn 0.6512 -0.0000 0.7589
vn 0.4666 -0.0000 0.8844
vn -0.0000 -1.0000 -0.0000
vn -1.0000 -0.0000 0.0082
vn 1.0000 0.0050 0.0068
vn 0.9909 0.0006 0.1344
vn 0.9909 -0.0000 0.1346
vn 0.9659 -0.0000 0.2588
vn -0.7071 -0.0000 0.7071
vn -0.8660 -0.0000 0.5000
vn -0.8372 -0.0000 0.5469
vn -0.0000 -1.0000 -0.0001
vn -0.0369 -0.0000 0.9993
vn -0.0000 1.0000 -0.0000
vn 0.0853 -0.0278 0.9960
vn 0.2003 -0.0496 0.9785
vn 0.0497 -0.0000 0.9988
vn 0.6752 -0.0454 0.7363
vn 0.6658 -0.0272 0.7456
vn 0.6888 -0.0731 0.7213
vn 1.0000 -0.0000 0.0082
vn 0.9919 -0.0000 0.1268
vn -0.0000 -0.0000 -1.0000
vn 0.5572 0.5812 0.5930
vn 0.4216 0.8479 0.3216
vn 0.3941 0.8772 0.2742
vn 0.0714 0.4779 0.8755
vn 0.1270 0.3950 0.9098
vn 0.0528 0.5042 0.8620
vn -0.6079 -0.7386 -0.2914
vn -0.2901 -0.6273 0.7227
vn -1.0000 -0.0000 -0.0000
vn -1.0000 -0.0073 -0.0069
vn -0.0026 -0.0076 -1.0000
vn -0.0013 -0.0038 -1.0000
vn -0.8532 -0.4974 0.1573
vn -0.0042 0.9875 0.1573
vn 0.8573 -0.4902 0.1573
vn -0.8573 0.4902 0.1573
vn 0.8532 0.4974 0.1573
vn 0.0042 -0.9875 0.1573
vn -0.0000 -0.0000 1.0000
vn 0.2590 0.1510 0.9540
vn 0.2589 0.1510 0.9540
vn 0.0013 -0.2997 0.9540
vn -0.2602 0.1488 0.9540
vn 0.2602 -0.1488 0.9540
vn -0.2590 -0.1510 0.9540
vn -0.0013 0.2997 0.9540
vn 0.8639 0.5036 -0.0000
vn 0.0042 -1.0000 -0.0000
vn -0.8681 0.4963 -0.0000
vn 0.8681 -0.4964 -0.0000
vn -0.8639 -0.5036 -0.0000
vn -0.0042 1.0000 -0.0000
vn 0.5684 -0.0386 0.8218
vn 0.6291 0.0107 0.7773
vn 0.5794 -0.0350 0.8143
vn 0.0236 -0.0340 0.9991
vn -0.0000 -0.0384 0.9993
vn -0.6600 -0.0091 0.7512
vn -0.6863 0.0189 0.7271
vn -0.6780 0.0237 0.7347
vn 0.7110 0.0017 -0.7032
vn 0.7129 0.0006 -0.7012
vn 0.7100 0.0023 -0.7042
vn -0.7100 -0.0000 -0.7042
vn 0.7100 -0.0000 -0.7042
vn 0.7071 -0.0000 -0.7071
vn -0.6983 0.0017 -0.7158
vn -0.7071 -0.0000 -0.7071
vn 1.0000 -0.0000 -0.0000
vn -0.6893 -0.0042 -0.7245
vn -0.5758 -0.0022 -0.8176
vn -0.5606 -0.0030 -0.8281
vn -0.7757 -0.0007 0.6311
vn -0.6960 -0.0539 0.7161
vn -0.6526 -0.0787 0.7536
vn -0.8070 0.0099 0.5904
vn 0.0463 0.0193 0.9987
vn 0.1856 0.0426 0.9817
vn 0.2179 0.0040 0.9760
vn 0.7250 0.0110 0.6887
vn 0.6771 0.0400 0.7348
vn 0.6538 0.0502 0.7550
vn 0.7609 0.0186 0.6486
vn -0.0052 0.0154 -0.9999
vn -0.0077 0.0001 -1.0000
vn -0.0026 0.0077 -1.0000
vn -0.9998 0.0145 -0.0137
vn -0.9999 -0.0000 -0.0128
vn -0.9996 -0.0000 -0.0265
vn -0.0052 -0.0000 -1.0000
vn 0.0098 -0.0073 0.9999
vn 0.2159 0.0067 0.9764
vn -0.0158 -0.0306 0.9994
vn 0.8807 -0.2611 -0.3951
vn 0.5693 -0.4452 -0.6911
vn 0.4992 -0.4413 -0.7457
vn 0.9339 0.1448 0.3269
vn 0.9871 0.0180 0.1593
vn 0.9064 0.1630 0.3896
vn 0.9647 -0.1491 -0.2169
vn 0.9695 0.1272 0.2093
vn 0.9760 0.1206 0.1815
vn 0.9895 0.0815 0.1192
vn -0.0868 0.4613 -0.8830
vn 0.4612 0.4908 -0.7392
vn -0.1197 0.4316 -0.8941
vn 0.3554 -0.4632 0.8119
vn 0.1667 -0.5427 0.8232
vn 0.3033 -0.4421 0.8441
vn 0.1929 0.1525 0.9693
vn -0.0000 0.2097 0.9778
vn -0.0000 0.2069 0.9784
vn 0.5697 -0.2657 0.7777
vn 0.4102 -0.0093 0.9119
vn 0.3974 -0.0079 0.9176
vn 0.1940 0.1460 0.9701
vn 0.4067 -0.3727 0.8341
vn 0.6052 -0.2764 0.7466
vn 0.9596 -0.2799 -0.0280
vn 0.9507 0.2976 0.0871
vn 0.9597 0.2704 0.0768
vn 0.8467 0.5188 0.1179
vn 0.8890 0.4520 0.0742
vn 0.8293 -0.5525 -0.0840
vn 0.9564 -0.2887 -0.0439
vn 0.8487 0.2937 -0.4399
vn 0.7831 -0.1008 -0.6137
vn 0.8381 0.3707 -0.4002
vn 0.8032 0.5526 -0.2225
vn 0.8080 0.5499 -0.2115
vn 0.7207 -0.1846 -0.6682
vn 0.5595 -0.2692 -0.7839
vn -0.0000 0.9899 0.1420
vn 0.5454 0.8297 0.1187
vn -0.0000 0.9884 0.1519
vn 0.9457 -0.3185 -0.0649
vn 0.8006 -0.5872 -0.1196
vn 0.9518 -0.3004 -0.0612
vn 0.9624 0.2663 0.0542
vn 0.9495 0.3100 0.0485
vn 0.5642 0.8161 0.1254
vn 0.9919 -0.0623 0.1106
vn 0.8175 -0.5097 -0.2682
vn 0.9425 -0.1845 -0.2788
vn 0.3394 0.9384 0.0655
vn -0.0946 0.9568 0.2749
vn -0.2820 0.9347 0.2165
vn 0.8401 0.5292 -0.1191
vn 0.4176 0.9074 0.0464
vn 0.8013 0.5878 0.1110
vn 0.8553 -0.3011 -0.4217
vn 0.4593 0.8852 0.0744
vn -0.0746 0.9233 0.3768
vn 0.8536 0.4362 -0.2847
vn 0.1191 -0.9851 -0.1238
vn 0.2999 -0.8984 -0.3209
vn 0.3737 -0.9206 -0.1134
vn 0.1948 -0.9445 0.2646
vn 0.3943 -0.8837 0.2523
vn -0.0000 -0.5716 -0.8205
vn 0.1524 -0.5499 -0.8212
vn 0.1516 -0.5482 -0.8225
vn 0.2282 -0.9540 -0.1943
vn -0.0000 -0.9799 -0.1996
vn 0.2222 -0.9639 -0.1466
vn -0.0000 -0.9886 -0.1503
vn 0.1003 -0.5674 0.8173
vn -0.0000 -0.5740 0.8189
vn 0.0998 -0.5667 0.8179
vn 0.5349 0.4804 -0.6951
vn 0.9191 0.2737 -0.2836
vn 0.0436 -0.3625 -0.9310
vn -0.0105 -0.3374 -0.9413
vn 0.9498 0.2096 -0.2322
vn 0.2450 -0.8443 0.4766
vn 0.4046 -0.7891 0.4623
vn 0.9511 -0.3066 0.0377
vn 0.2431 0.0036 0.9700
vn 0.0995 -0.0216 0.9948
vn 0.3284 -0.0413 0.9436
vn -0.2210 -0.0008 0.9753
vn -0.9064 -0.2927 -0.3046
vn -0.5384 -0.3378 -0.7720
vn -0.9331 -0.2639 -0.2442
vn -0.8786 -0.1460 0.4547
vn -0.9502 -0.2280 0.2125
vn -0.9022 -0.1535 0.4032
vn -0.9494 -0.1968 0.2448
vn -0.9013 -0.3038 0.3089
vn -0.9075 -0.3557 0.2236
vn -0.6566 0.1284 -0.7433
vn -0.0244 -0.6022 0.7980
vn 0.1703 -0.5589 0.8116
vn -0.0233 -0.6027 0.7976
vn -0.2906 0.1490 0.9452
vn -0.6584 0.0401 0.7516
vn -0.7233 -0.2448 0.6457
vn -0.6682 0.1119 0.7356
vn -0.4953 -0.3743 0.7840
vn -0.3186 -0.3676 0.8737
vn -0.9556 0.2914 0.0443
vn -0.9501 -0.3084 -0.0469
vn -0.9515 0.3049 0.0414
vn -0.8311 0.5504 0.0796
vn -0.8399 0.5382 0.0701
vn -0.8293 -0.5525 -0.0840
vn -0.8487 0.2937 -0.4399
vn -0.7831 -0.1008 -0.6137
vn -0.7207 -0.1846 -0.6682
vn -0.8032 0.5526 -0.2225
vn -0.8381 0.3707 -0.4002
vn -0.5595 -0.2692 -0.7839
vn -0.5515 -0.2558 -0.7940
vn -0.5454 0.8297 0.1187
vn -0.5642 0.8161 0.1254
vn -0.9457 -0.3185 -0.0649
vn -0.8006 -0.5872 -0.1196
vn -0.9624 0.2663 0.0542
vn -0.9518 -0.3004 -0.0612
vn -0.9495 0.3100 0.0485
vn -0.8741 -0.2568 0.4123
vn -0.8449 -0.5028 0.1825
vn -0.7873 -0.4408 0.4311
vn -0.2252 0.6619 0.7149
vn -0.4632 0.6192 0.6341
vn -0.6367 0.1553 0.7553
vn -0.9107 -0.3154 0.2669
vn -0.8342 -0.5498 0.0432
vn -0.8900 0.3028 0.3408
vn -0.8344 0.1063 0.5408
vn -0.9295 -0.3179 0.1868
vn -0.1450 -0.9742 -0.1731
vn -0.0043 -0.9289 -0.3703
vn -0.0672 -0.9702 0.2329
vn -0.1524 -0.5499 -0.8212
vn -0.1516 -0.5482 -0.8225
vn -0.2282 -0.9540 -0.1943
vn -0.2222 -0.9639 -0.1466
vn -0.1003 -0.5674 0.8173
vn -0.0000 -0.5752 0.8180
vn -0.6436 0.1436 -0.7518
vn -0.9517 -0.1802 -0.2486
vn -0.5537 -0.3490 -0.7561
vn -0.9559 -0.1727 -0.2376
vn -0.0167 -0.8963 0.4432
vn -0.8451 -0.4329 0.3138
vn -0.1594 0.0011 0.9872
vn -0.8070 0.3001 0.5086
vn -0.7490 0.4131 0.5181
vn -0.6103 0.6420 0.4641
vn -0.0000 0.1495 -0.9888
vn -0.0000 -0.1495 -0.9888
vn -0.0098 0.0073 0.9999
vn -0.2159 -0.0067 0.9764
vn 0.0158 0.0306 0.9994
vn -0.8807 0.2611 -0.3951
vn -0.5693 0.4452 -0.6911
vn -0.4992 0.4413 -0.7457
vn -0.9339 -0.1448 0.3269
vn -0.9871 -0.0180 0.1593
vn -0.9064 -0.1630 0.3896
vn -0.9647 0.1491 -0.2169
vn -0.9695 -0.1272 0.2093
vn -0.9760 -0.1206 0.1815
vn -0.9895 -0.0815 0.1192
vn 0.0868 -0.4613 -0.8830
vn -0.4612 -0.4908 -0.7392
vn 0.1197 -0.4316 -0.8941
vn -0.3554 0.4632 0.8119
vn -0.1667 0.5427 0.8232
vn -0.3033 0.4421 0.8441
vn -0.1929 -0.1525 0.9693
vn -0.0000 -0.2097 0.9778
vn -0.0000 -0.2069 0.9784
vn -0.5697 0.2657 0.7777
vn -0.4102 0.0093 0.9119
vn -0.3974 0.0079 0.9176
vn -0.1940 -0.1460 0.9701
vn -0.4067 0.3727 0.8341
vn -0.6052 0.2764 0.7466
vn -0.9596 0.2799 -0.0280
vn -0.9507 -0.2976 0.0871
vn -0.9597 -0.2704 0.0768
vn -0.8467 -0.5188 0.1179
vn -0.8890 -0.4520 0.0742
vn -0.8293 0.5525 -0.0840
vn -0.9564 0.2887 -0.0439
vn -0.8487 -0.2937 -0.4399
vn -0.7831 0.1008 -0.6137
vn -0.8381 -0.3707 -0.4002
vn -0.8032 -0.5526 -0.2225
vn -0.8080 -0.5499 -0.2115
vn -0.7207 0.1846 -0.6682
vn -0.5595 0.2692 -0.7839
vn -0.0000 -0.9959 0.0907
vn -0.5525 -0.8288 0.0888
vn -0.0000 -0.9919 0.1271
vn -0.8009 0.5934 -0.0800
vn -0.9480 0.3156 -0.0425
vn -0.9499 0.3098 -0.0418
vn -0.9499 -0.3098 0.0418
vn -0.9562 -0.2917 0.0258
vn -0.5394 -0.8402 0.0559
vn -0.9919 0.0623 0.1106
vn -0.8175 0.5097 -0.2682
vn -0.9425 0.1845 -0.2788
vn -0.3394 -0.9384 0.0655
vn 0.0946 -0.9568 0.2749
vn 0.2820 -0.9347 0.2165
vn -0.8401 -0.5292 -0.1191
vn -0.4176 -0.9074 0.0464
vn -0.8013 -0.5878 0.1110
vn -0.8553 0.3011 -0.4217
vn -0.4593 -0.8852 0.0744
vn 0.0746 -0.9233 0.3768
vn -0.8536 -0.4362 -0.2847
vn -0.1191 0.9851 -0.1238
vn -0.2999 0.8984 -0.3209
vn -0.3737 0.9206 -0.1134
vn -0.1948 0.9445 0.2646
vn -0.3943 0.8837 0.2523
vn -0.0000 0.5716 -0.8205
vn -0.1524 0.5499 -0.8212
vn -0.1516 0.5482 -0.8225
vn -0.0000 0.9910 -0.1336
vn -0.2284 0.9648 -0.1301
vn -0.2222 0.9639 -0.1466
vn -0.0000 0.9886 -0.1503
vn -0.1003 0.5674 0.8173
vn -0.0000 0.5740 0.8189
vn -0.0998 0.5667 0.8179
vn -0.5349 -0.4804 -0.6951
vn -0.9191 -0.2737 -0.2836
vn -0.0436 0.3624 -0.9310
vn 0.0105 0.3374 -0.9413
vn -0.9498 -0.2096 -0.2322
vn -0.2450 0.8443 0.4766
vn -0.4046 0.7891 0.4623
vn -0.9511 0.3066 0.0377
vn -0.2431 -0.0036 0.9700
vn -0.0995 0.0216 0.9948
vn -0.3284 0.0413 0.9436
vn 0.2210 0.0008 0.9753
vn 0.9064 0.2927 -0.3046
vn 0.5384 0.3378 -0.7720
vn 0.9331 0.2639 -0.2442
vn 0.8786 0.1460 0.4547
vn 0.9502 0.2280 0.2125
vn 0.9022 0.1535 0.4032
vn 0.9494 0.1968 0.2448
vn 0.9013 0.3038 0.3089
vn 0.9075 0.3557 0.2236
vn 0.6566 -0.1284 -0.7433
vn 0.0244 0.6022 0.7980
vn -0.1703 0.5589 0.8116
vn 0.0233 0.6027 0.7976
vn 0.2906 -0.1490 0.9452
vn 0.6584 -0.0401 0.7516
vn 0.7233 0.2448 0.6457
vn 0.6682 -0.1119 0.7356
vn 0.4953 0.3743 0.7840
vn 0.3186 0.3676 0.8737
vn 0.9556 -0.2914 0.0443
vn 0.9501 0.3084 -0.0469
vn 0.9515 -0.3049 0.0414
vn 0.8311 -0.5504 0.0796
vn 0.8399 -0.5382 0.0701
vn 0.8293 0.5525 -0.0840
vn 0.8487 -0.2937 -0.4399
vn 0.7831 0.1008 -0.6137
vn 0.7207 0.1846 -0.6682
vn 0.8032 -0.5526 -0.2225
vn 0.8381 -0.3707 -0.4002
vn 0.5595 0.2692 -0.7839
vn 0.5515 0.2558 -0.7940
vn 0.5525 -0.8288 0.0888
vn 0.5394 -0.8402 0.0559
vn 0.9480 0.3156 -0.0425
vn 0.8009 0.5934 -0.0800
vn 0.9499 0.3098 -0.0418
vn 0.9499 -0.3098 0.0418
vn 0.9562 -0.2917 0.0258
vn 0.8741 0.2568 0.4123
vn 0.8449 0.5028 0.1825
vn 0.7873 0.4408 0.4311
vn 0.2252 -0.6619 0.7149
vn 0.4632 -0.6192 0.6341
vn 0.6367 -0.1553 0.7553
vn 0.9107 0.3154 0.2669
vn 0.8342 0.5498 0.0432
vn 0.8900 -0.3028 0.3408
vn 0.8344 -0.1063 0.5408
vn 0.9295 0.3179 0.1868
vn 0.1450 0.9742 -0.1731
vn 0.0043 0.9289 -0.3703
vn 0.0672 0.9702 0.2329
vn 0.1524 0.5499 -0.8212
vn 0.1516 0.5482 -0.8225
vn 0.2284 0.9648 -0.1301
vn 0.2222 0.9639 -0.1466
vn 0.1003 0.5674 0.8173
vn -0.0000 0.5752 0.8180
vn 0.6436 -0.1436 -0.7518
vn 0.9517 0.1802 -0.2486
vn 0.5537 0.3490 -0.7561
vn 0.9559 0.1727 -0.2376
vn 0.0167 0.8963 0.4432
vn 0.8451 0.4329 0.3138
vn 0.1594 -0.0011 0.9872
vn 0.8070 -0.3001 0.5086
vn 0.7490 -0.4131 0.5181
vn 0.6103 -0.6420 0.4641
vn 0.5773 -0.5774 -0.5774
vn 0.5773 0.5774 -0.5774
vn -0.0000 -0.7071 -0.7071
vn 0.7071 0.7071 -0.0000
vn 0.7071 -0.7071 -0.0000
vn -0.0000 0.7071 -0.7071
vn -0.5773 -0.5774 -0.5774
vn -0.5773 0.5774 -0.5774
vn -0.7071 0.7071 -0.0000
vn -0.7071 -0.7071 -0.0000
vn -0.0000 -0.1370 -0.9906
vn 0.8639 -0.4989 0.0690
vn 0.0042 0.9906 -0.1370
vn -0.8681 -0.4917 0.0680
vn 0.8681 0.4917 -0.0680
vn -0.8639 0.4989 -0.0690
vn -0.0042 -0.9906 0.1370
vn -0.0000 0.1370 -0.9906
vn -0.8639 0.4989 0.0690
vn -0.0042 -0.9906 -0.1370
vn 0.8681 0.4917 0.0680
vn -0.8681 -0.4917 -0.0680
vn 0.8639 -0.4989 -0.0690
vn 0.0042 0.9906 0.1370
vn 1.0000 0.0061 0.0064
vn 0.2574 -0.1044 0.9606
vn 0.5834 0.4658 0.6653
vn 0.1540 0.3525 0.9231
vn -0.8573 0.4902 0.1574
vn 0.6544 0.0245 0.7557
vn -0.6546 -0.0118 0.7559
vn 0.7139 -0.0000 -0.7002
vn -0.0103 0.0007 -0.9999
vn 0.9932 0.0048 0.1167
vn 0.3186 -0.3676 0.8737
vn 0.5515 -0.2558 -0.7940
vn 0.7753 -0.5185 -0.3606
vn -0.0000 -0.5741 -0.8188
vn -0.2204 -0.0428 0.9745
vn -0.2940 0.0819 0.9523
vn -0.7723 -0.2391 0.5886
vn -0.9564 -0.2887 -0.0439
vn -0.8080 0.5499 -0.2115
vn -0.4510 0.7442 0.4927
vn -0.2194 -0.8925 -0.3942
vn -0.0998 -0.5667 0.8179
vn -0.9932 -0.0048 0.1167
vn -0.3186 0.3676 0.8737
vn -0.5515 0.2558 -0.7940
vn -0.7753 0.5185 -0.3606
vn -0.0000 0.5741 -0.8188
vn 0.2204 0.0428 0.9745
vn 0.2940 -0.0819 0.9523
vn 0.7723 0.2391 0.5886
vn 0.9564 0.2887 -0.0439
vn 0.8080 -0.5499 -0.2115
vn 0.4510 -0.7442 0.4927
vn 0.2194 0.8925 -0.3942
vn 0.0998 0.5667 0.8179
vt 0.301029 0.098091
vt 0.355927 0.112072
vt 0.311773 0.127956
vt 0.219059 0.261153
vt 0.250495 0.267304
vt 0.225242 0.306032
vt 0.265393 0.063189
vt 0.333329 0.065111
vt 0.243743 0.236048
vt 0.053236 0.244843
vt 0.053236 0.065085
vt 0.065617 0.306580
vt 0.066061 0.258265
vt 0.066289 0.052455
vt 0.218356 0.011469
vt 0.215154 0.055357
vt 0.271279 0.017401
vt 0.314784 0.203512
vt 0.316997 0.278968
vt 0.278736 0.247885
vt 0.291936 0.107672
vt 0.359348 0.126060
vt 0.362359 0.201616
vt 0.950607 0.141208
vt 0.744403 0.141208
vt 0.868990 0.049220
vt 0.726030 0.184708
vt 0.690359 0.212102
vt 0.692192 0.181801
vt 0.618510 0.011391
vt 0.645156 0.075965
vt 0.596399 0.056465
vt 0.704576 0.246084
vt 0.644933 0.248479
vt 0.685426 0.218079
vt 0.594695 0.308712
vt 0.437799 0.263880
vt 0.594316 0.262592
vt 0.378122 0.250435
vt 0.424244 0.068085
vt 0.424244 0.250435
vt 0.438584 0.007864
vt 0.438015 0.054534
vt 0.617185 0.304689
vt 0.669355 0.038824
vt 0.683705 0.107697
vt 0.883285 0.714898
vt 0.884569 0.871065
vt 0.677081 0.714898
vt 0.676118 0.204997
vt 0.631685 0.233926
vt 0.730818 0.110439
vt 0.758698 0.622910
vt 0.230941 0.258184
vt 0.756533 0.310901
vt 0.743119 0.297376
vt 0.007769 0.065085
vt 0.758216 0.089658
vt 0.795954 0.051920
vt 0.899056 0.057276
vt 0.936794 0.089657
vt 0.951611 0.297510
vt 0.831734 0.625609
vt 0.869471 0.663347
vt 0.689211 0.884590
vt 0.675797 0.871065
vt 0.690894 0.663347
vt 0.728632 0.630966
vt 0.178432 0.632441
vt 0.263923 0.722931
vt 0.178147 0.723262
vt 0.093054 0.613904
vt 0.007962 0.534049
vt 0.093071 0.531742
vt 0.855776 0.933201
vt 0.830999 0.956215
vt 0.842443 0.933161
vt 0.790189 0.900382
vt 0.825968 0.912279
vt 0.799339 0.913588
vt 0.775844 0.940159
vt 0.804667 0.958848
vt 0.800005 0.969330
vt 0.832649 0.900382
vt 0.788979 0.937410
vt 0.837168 0.967377
vt 0.048104 0.380760
vt 0.074684 0.344832
vt 0.074821 0.365421
vt 0.047951 0.411665
vt 0.074528 0.447702
vt 0.030153 0.421888
vt 0.101411 0.380972
vt 0.119225 0.422095
vt 0.101325 0.411727
vt 0.030227 0.370573
vt 0.074711 0.427099
vt 0.119219 0.370568
vt 0.063455 0.325439
vt 0.018893 0.441245
vt 0.141702 0.422093
vt 0.007843 0.370541
vt 0.085698 0.467199
vt 0.130446 0.351141
vt 0.683351 0.900389
vt 0.734386 0.900391
vt 0.734383 0.988787
vt 0.178210 0.738916
vt 0.263964 0.774731
vt 0.178491 0.778139
vt 0.405232 0.651840
vt 0.490339 0.633453
vt 0.489977 0.652038
vt 0.845651 0.582447
vt 0.794733 0.497155
vt 0.846544 0.497230
vt 0.405252 0.633245
vt 0.490463 0.601298
vt 0.065945 0.256338
vt 0.938477 0.310901
vt 0.871155 0.884590
vt 0.035575 0.021114
vt 0.033636 0.289249
vt 0.020810 0.275827
vt 0.405320 0.296627
vt 0.391508 0.034816
vt 0.405280 0.021266
vt 0.405954 0.756083
vt 0.490854 0.741208
vt 0.490927 0.755616
vt 0.178471 0.620458
vt 0.263895 0.632645
vt 0.660962 0.741523
vt 0.576451 0.655330
vt 0.662839 0.652319
vt 0.007773 0.618463
vt 0.093103 0.632127
vt 0.007905 0.632892
vt 0.660851 0.755883
vt 0.576045 0.740796
vt 0.576015 0.755218
vt 0.598776 0.627915
vt 0.662171 0.600184
vt 0.662271 0.633491
vt 0.598738 0.600963
vt 0.848747 0.401017
vt 0.794982 0.326719
vt 0.846024 0.326793
vt 0.798983 0.411943
vt 0.093215 0.721393
vt 0.008605 0.741754
vt 0.008748 0.722982
vt 0.093177 0.748613
vt 0.007926 0.774971
vt 0.093099 0.776808
vt 0.263926 0.618179
vt 0.178217 0.534941
vt 0.263477 0.533609
vt 0.759902 0.944589
vt 0.683348 0.988785
vt 0.657832 0.944587
vt 0.282938 0.299124
vt 0.491256 0.837313
vt 0.660483 0.839752
vt 0.898356 0.497306
vt 0.898512 0.390091
vt 0.897066 0.326867
vt 0.896694 0.582521
vt 0.283829 0.807586
vt 0.244323 0.793195
vt 0.285037 0.786481
vt 0.987336 0.704360
vt 0.970675 0.686196
vt 0.976933 0.681833
vt 0.244921 0.808587
vt 0.216806 0.798387
vt 0.189981 0.812078
vt 0.184227 0.805764
vt 0.244705 0.843316
vt 0.217065 0.863500
vt 0.218100 0.813138
vt 0.957910 0.653000
vt 0.959322 0.688153
vt 0.950722 0.653663
vt 0.273675 0.881301
vt 0.240333 0.877192
vt 0.934021 0.392173
vt 0.947908 0.430046
vt 0.938713 0.430187
vt 0.599121 0.938775
vt 0.645488 0.933661
vt 0.641184 0.942703
vt 0.920744 0.368572
vt 0.947908 0.383899
vt 0.568259 0.931399
vt 0.597512 0.923983
vt 0.647931 0.874110
vt 0.968740 0.333636
vt 0.566563 0.875378
vt 0.597272 0.878725
vt 0.598673 0.862923
vt 0.640513 0.858959
vt 0.960817 0.310369
vt 0.983548 0.325521
vt 0.572235 0.858010
vt 0.315579 0.674797
vt 0.375513 0.639028
vt 0.375588 0.674797
vt 0.060105 0.831620
vt 0.007763 0.856250
vt 0.007763 0.831620
vt 0.060105 0.792696
vt 0.007763 0.792696
vt 0.316777 0.639973
vt 0.375965 0.614402
vt 0.219065 0.911251
vt 0.247538 0.944767
vt 0.216031 0.939803
vt 0.943957 0.656609
vt 0.942564 0.713205
vt 0.945982 0.691094
vt 0.175921 0.934887
vt 0.174599 0.905633
vt 0.219923 0.968750
vt 0.929500 0.689263
vt 0.924414 0.652973
vt 0.925922 0.708540
vt 0.174704 0.958084
vt 0.284250 0.949720
vt 0.248175 0.975722
vt 0.276866 0.910102
vt 0.243841 0.906519
vt 0.521061 0.879476
vt 0.556356 0.861278
vt 0.060105 0.856250
vt 0.007763 0.892019
vt 0.560013 0.944070
vt 0.520969 0.928809
vt 0.963290 0.712810
vt 0.970013 0.651024
vt 0.180806 0.836583
vt 0.214878 0.885491
vt 0.278850 0.843474
vt 0.320761 0.814289
vt 0.986517 0.603569
vt 0.961119 0.618036
vt 0.969629 0.595322
vt 0.325706 0.786640
vt 0.336284 0.818656
vt 0.346039 0.790005
vt 0.371658 0.823998
vt 0.335511 0.877206
vt 0.310038 0.842885
vt 0.308407 0.885809
vt 0.935191 0.468327
vt 0.394414 0.923030
vt 0.442043 0.937657
vt 0.399743 0.939416
vt 0.925400 0.497630
vt 0.917434 0.482971
vt 0.473670 0.931224
vt 0.468000 0.944619
vt 0.395503 0.872195
vt 0.444273 0.918875
vt 0.968958 0.526915
vt 0.949325 0.476171
vt 0.475574 0.875209
vt 0.444199 0.862358
vt 0.445247 0.877946
vt 0.960390 0.549953
vt 0.949878 0.538393
vt 0.470311 0.858010
vt 0.375513 0.710565
vt 0.316777 0.709621
vt 0.060105 0.952418
vt 0.007763 0.927788
vt 0.060105 0.927787
vt 0.060105 0.991342
vt 0.007763 0.952418
vt 0.375965 0.735192
vt 0.316803 0.736939
vt 0.334470 0.927332
vt 0.318642 0.953391
vt 0.310906 0.916729
vt 0.945325 0.618228
vt 0.924722 0.610853
vt 0.936265 0.593680
vt 0.344638 0.953598
vt 0.331677 0.984978
vt 0.900462 0.600915
vt 0.921715 0.590182
vt 0.385771 0.948749
vt 0.360153 0.983623
vt 0.289695 0.983688
vt 0.485833 0.861148
vt 0.060105 0.892019
vt 0.481869 0.943926
vt 0.520947 0.940614
vt 0.978620 0.622740
vt 0.374318 0.856421
vt 0.333835 0.897387
vt 0.374850 0.916914
vt 0.946390 0.591503
vt 0.379908 0.930487
vt 0.904292 0.857149
vt 0.931231 0.860771
vt 0.918815 0.870054
vt 0.896121 0.891972
vt 0.913672 0.891972
vt 0.918815 0.913890
vt 0.904292 0.926795
vt 0.962943 0.842401
vt 0.924019 0.842401
vt 0.962943 0.941542
vt 0.931231 0.923172
vt 0.955731 0.923172
vt 0.982671 0.857149
vt 0.955731 0.860771
vt 0.982671 0.926795
vt 0.968148 0.913890
vt 0.990842 0.891972
vt 0.973291 0.891972
vt 0.968148 0.870054
vt 0.924019 0.941542
vt 0.629213 0.773812
vt 0.644358 0.800722
vt 0.592938 0.800722
vt 0.608092 0.827632
vt 0.592947 0.800722
vt 0.644367 0.800722
vt 0.283829 0.807586
vt 0.244323 0.793195
vt 0.285037 0.786481
vt 0.987336 0.704360
vt 0.244921 0.808587
vt 0.216806 0.798387
vt 0.189981 0.812078
vt 0.184227 0.805764
vt 0.244705 0.843316
vt 0.217065 0.863500
vt 0.218100 0.813138
vt 0.957910 0.653000
vt 0.273675 0.881301
vt 0.240333 0.877192
vt 0.947908 0.430046
vt 0.938713 0.430187
vt 0.920744 0.368572
vt 0.947908 0.383899
vt 0.597272 0.878725
vt 0.640513 0.858959
vt 0.983548 0.325521
vt 0.315579 0.674797
vt 0.375513 0.639028
vt 0.375588 0.674797
vt 0.060105 0.856250
vt 0.007763 0.831620
vt 0.060105 0.831620
vt 0.007763 0.792696
vt 0.060105 0.792696
vt 0.316803 0.612655
vt 0.219065 0.911251
vt 0.247538 0.944767
vt 0.216031 0.939803
vt 0.175921 0.934887
vt 0.174599 0.905633
vt 0.219923 0.968750
vt 0.924414 0.652973
vt 0.925922 0.708540
vt 0.174704 0.958084
vt 0.284250 0.949720
vt 0.248175 0.975722
vt 0.276866 0.910102
vt 0.243841 0.906519
vt 0.521061 0.879476
vt 0.556356 0.861278
vt 0.060105 0.892019
vt 0.007763 0.856250
vt 0.560013 0.944070
vt 0.520969 0.928809
vt 0.180806 0.836583
vt 0.214878 0.885491
vt 0.278850 0.843474
vt 0.320761 0.814289
vt 0.986517 0.603569
vt 0.961119 0.618036
vt 0.969629 0.595322
vt 0.336284 0.818656
vt 0.346039 0.790005
vt 0.371658 0.823998
vt 0.335511 0.877206
vt 0.310038 0.842885
vt 0.308407 0.885809
vt 0.935191 0.468327
vt 0.394414 0.923030
vt 0.442043 0.937657
vt 0.399743 0.939416
vt 0.468000 0.944619
vt 0.395503 0.872195
vt 0.949325 0.476171
vt 0.475574 0.875209
vt 0.444199 0.862358
vt 0.445247 0.877946
vt 0.470311 0.858010
vt 0.375513 0.710565
vt 0.007763 0.952418
vt 0.060105 0.927787
vt 0.060105 0.952418
vt 0.007763 0.991342
vt 0.060105 0.991342
vt 0.316803 0.736939
vt 0.334470 0.927332
vt 0.318642 0.953391
vt 0.310906 0.916729
vt 0.924722 0.610853
vt 0.331677 0.984978
vt 0.900462 0.600915
vt 0.385771 0.948749
vt 0.360153 0.983623
vt 0.289695 0.983688
vt 0.485833 0.861148
vt 0.007763 0.927788
vt 0.481869 0.943926
vt 0.978620 0.622740
vt 0.374850 0.916914
vt 0.946390 0.591503
vt 0.379908 0.930487
vt 0.962943 0.842401
vt 0.962943 0.941542
vt 0.955731 0.923172
vt 0.955731 0.860771
vt 0.973291 0.891972
vt 0.287290 0.497022
vt 0.298938 0.498685
vt 0.290378 0.508190
vt 0.398254 0.507941
vt 0.389693 0.498683
vt 0.400716 0.496688
vt 0.287612 0.453424
vt 0.298938 0.453308
vt 0.389693 0.509735
vt 0.298939 0.509736
vt 0.493972 0.501913
vt 0.198064 0.519358
vt 0.195368 0.455840
vt 0.298940 0.598544
vt 0.401043 0.453185
vt 0.389692 0.453306
vt 0.287290 0.497022
vt 0.290378 0.508190
vt 0.298939 0.498685
vt 0.398254 0.507941
vt 0.400716 0.496688
vt 0.389693 0.498683
vt 0.287612 0.453424
vt 0.298938 0.453308
vt 0.389693 0.509735
vt 0.493972 0.501913
vt 0.198064 0.519358
vt 0.195368 0.455840
vt 0.298940 0.598544
vt 0.401043 0.453185
vt 0.389692 0.453306
vt 0.201404 0.458780
vt 0.214635 0.477555
vt 0.203990 0.497106
vt 0.063268 0.467058
vt 0.141696 0.370565
vt 0.130395 0.441592
vt 0.018998 0.351181
vt 0.007769 0.421856
vt 0.345183 0.082207
vt 0.297693 0.030209
vt 0.067198 0.007947
vt 0.353046 0.234596
vt 0.723278 0.216271
vt 0.664343 0.277214
vt 0.438179 0.310000
vt 0.378122 0.068085
vt 0.596968 0.009795
vt 0.711648 0.071229
vt 0.007769 0.244843
vt 0.085910 0.325405
vt 0.264019 0.741655
vt 0.794609 0.582373
vt 0.405233 0.600184
vt 0.022722 0.033551
vt 0.391765 0.283182
vt 0.405870 0.741685
vt 0.575950 0.840380
vt 0.406438 0.840227
vt 0.982892 0.709546
vt 0.916460 0.377295
vt 0.573384 0.944750
vt 0.949987 0.321631
vt 0.316803 0.612655
vt 0.521086 0.865828
vt 0.383264 0.801972
vt 0.403155 0.857473
vt 0.983534 0.535439
vt 0.007763 0.991342
vt 0.905392 0.621087
vt 0.404244 0.972271
vt 0.639922 0.781818
vt 0.639922 0.819626
vt 0.629213 0.827632
vt 0.608083 0.827632
vt 0.597374 0.819626
vt 0.597374 0.781818
vt 0.608083 0.773812
vt 0.597383 0.819626
vt 0.597383 0.781818
vt 0.608092 0.773812
vt 0.629222 0.773812
vt 0.639931 0.781818
vt 0.639931 0.819626
vt 0.629222 0.827632
vt 0.982892 0.709546
vt 0.916460 0.377295
vt 0.573384 0.944750
vt 0.949987 0.321631
vt 0.007763 0.892019
vt 0.383264 0.801972
vt 0.403155 0.857473
vt 0.905392 0.621087
vt 0.404244 0.972271
vt 0.493251 0.513734
vt 0.196653 0.506963
vt 0.389695 0.598543
vt 0.492704 0.450857
vt 0.493251 0.513734
vt 0.196653 0.506963
vt 0.389695 0.598543
vt 0.492704 0.450857
vt 0.182729 0.498224
vt 0.168907 0.481535
vt 0.177114 0.458780
s 1
usemtl None.008
f 416/1/1 409/2/2 421/3/2
f 460/4/3 464/5/3 458/6/3
f 419/7/4 414/8/5 416/1/1
f 603/9/6 551/10/6 553/11/6
f 461/4/7 466/12/7 548/13/7
f 556/14/8 413/15/9 422/16/10
f 422/16/10 411/17/11 420/7/11
f 404/18/12 410/19/13 402/20/14
f 603/9/6 555/14/6 4/16/6
f 417/21/6 12/7/6 415/1/6
f 418/21/15 11/3/6 405/18/6
f 1/18/16 409/22/2 407/23/16
f 8/24/17 456/25/17 6/26/17
f 20/27/18 447/28/19 452/29/20
f 439/30/3 429/31/13 433/32/3
f 444/33/21 450/34/22 446/35/23
f 424/36/10 574/37/24 454/38/25
f 576/39/26 580/40/26 572/41/26
f 565/42/7 434/32/7 577/43/7
f 451/34/11 424/44/10 454/38/25
f 438/45/13 430/46/12 429/31/13
f 440/47/6 563/48/6 425/49/6
f 448/50/27 26/34/28 453/51/29
f 25/29/30 449/50/31 431/46/32
f 435/52/16 452/29/20 15/46/16
f 425/49/6 437/53/6 440/47/6
f 603/9/6 463/54/6 3/4/6
f 406/18/6 2/20/6 603/9/6
f 14/21/6 406/18/6 603/9/6
f 403/20/33 465/5/33 604/9/33
f 72/9/34 30/5/34 29/54/34
f 459/25/17 569/55/17 467/56/17
f 4/16/6 14/21/6 603/9/6
f 552/10/26 562/57/26 554/11/26
f 7/58/17 5/59/17 6/26/17
f 6/26/17 10/60/17 8/24/17
f 10/60/17 9/61/17 8/24/17
f 17/32/17 16/31/17 115/51/17
f 8/24/17 557/62/17 456/25/17
f 456/25/17 7/58/17 6/26/17
f 437/53/6 19/63/6 21/64/6
f 21/64/6 440/47/6 437/53/6
f 426/49/6 575/65/6 428/66/6
f 425/49/6 23/67/6 443/68/6
f 443/68/6 437/53/6 425/49/6
f 602/69/35 471/70/35 470/71/36
f 601/72/37 117/73/26 119/74/38
f 488/75/39 493/76/39 501/77/39
f 482/78/40 498/79/40 497/80/40
f 478/81/41 491/82/41 473/83/41
f 485/84/42 500/77/42 499/79/42
f 481/78/43 495/85/43 479/81/43
f 475/86/44 490/82/44 492/76/44
f 45/79/45 46/77/45 41/76/45
f 489/87/46 506/88/46 477/89/47
f 486/90/48 512/91/48 514/92/48
f 474/93/49 508/94/49 480/95/49
f 39/90/50 517/96/50 40/87/50
f 38/97/51 509/94/51 511/91/51
f 35/89/52 502/98/52 36/93/52
f 519/96/53 523/99/53 507/88/53
f 513/91/54 528/100/54 516/92/54
f 504/98/55 524/101/55 510/94/55
f 51/92/56 530/102/56 52/96/56
f 49/94/57 526/103/57 50/91/57
f 47/88/58 520/104/58 48/98/58
f 56/105/26 55/106/26 53/107/26
f 534/108/59 65/109/60 544/110/61
f 469/111/45 532/112/62 468/113/63
f 34/70/45 102/108/45 98/71/45
f 121/114/45 596/115/45 123/116/45
f 60/117/64 540/118/65 100/112/66
f 547/13/6 550/10/6 546/119/6
f 553/11/6 555/14/6 603/9/6
f 558/62/17 560/120/17 77/25/17
f 564/48/6 566/121/6 84/49/6
f 70/11/67 75/122/68 71/14/69
f 68/10/70 74/123/70 73/124/70
f 86/125/71 571/41/71 573/37/71
f 578/43/70 83/126/70 82/127/70
f 3/4/6 69/119/6 603/9/6
f 582/128/72 599/129/72 581/130/72
f 585/131/73 590/132/74 113/69/74
f 109/129/75 32/111/75 96/113/75
f 88/133/75 591/134/75 31/135/75
f 591/134/75 109/129/75 96/113/75
f 600/136/76 587/137/77 588/138/74
f 585/131/73 587/137/77 111/72/78
f 597/139/72 110/140/72 584/133/72
f 581/130/72 110/140/72 598/141/72
f 593/142/79 545/143/80 59/144/81
f 593/142/79 540/118/65 595/145/82
f 122/146/45 542/147/45 120/148/45
f 123/116/45 106/149/45 122/146/45
f 592/150/45 537/151/45 536/152/45
f 592/150/45 102/108/45 594/153/45
f 539/135/83 99/142/84 538/144/45
f 95/134/85 532/112/62 99/142/84
f 101/153/86 66/154/87 62/151/88
f 101/153/86 544/110/61 105/155/89
f 92/156/90 118/157/91 116/158/92
f 118/157/91 601/72/37 119/74/38
f 33/152/93 114/137/94 97/150/95
f 114/137/94 470/71/36 97/150/95
f 55/106/26 54/159/26 53/107/26
f 53/107/26 58/160/26 57/161/26
f 57/161/26 56/105/26 53/107/26
f 458/6/3 464/5/3 410/162/13
f 410/162/13 464/5/3 402/20/14
f 16/31/17 432/46/17 115/51/17
f 18/38/17 80/37/17 81/41/17
f 453/51/29 26/34/28 455/38/29
f 432/46/17 28/50/17 115/51/17
f 115/51/17 78/40/17 17/32/17
f 78/40/17 79/43/17 17/32/17
f 81/41/17 78/40/17 18/38/17
f 78/40/17 115/51/17 18/38/17
f 107/141/96 119/163/38 108/130/26
f 116/164/92 107/141/96 87/139/26
f 119/163/38 90/128/26 108/130/26
f 104/165/45 122/146/45 103/166/45
f 103/166/45 120/148/45 63/167/45
f 64/168/45 123/116/45 104/165/45
f 180/169/97 127/170/98 159/171/99
f 125/172/100 632/173/101 124/174/102
f 181/175/103 126/176/104 656/170/105
f 126/176/104 631/177/106 125/178/100
f 653/179/107 150/180/108 128/181/109
f 172/182/110 177/183/111 651/184/112
f 654/179/113 164/185/114 151/186/115
f 635/187/116 169/188/117 636/189/118
f 633/190/119 609/191/120 634/192/121
f 635/187/116 609/193/120 637/194/122
f 633/190/119 605/195/123 608/196/124
f 133/196/125 618/197/126 134/191/127
f 134/193/127 648/198/128 135/194/129
f 133/196/125 616/199/130 617/200/131
f 138/197/132 623/201/133 624/202/134
f 139/198/135 624/203/134 638/204/136
f 137/200/137 621/205/138 623/201/133
f 170/206/139 630/207/140 650/208/141
f 141/209/142 627/210/143 628/211/144
f 142/212/145 628/211/144 629/213/146
f 143/214/147 629/215/146 630/207/140
f 175/216/148 646/217/149 154/218/150
f 643/183/151 174/219/152 173/184/153
f 643/183/151 153/220/154 155/221/155
f 175/216/148 153/222/154 642/223/156
f 646/217/149 156/224/157 154/218/150
f 174/219/152 130/225/158 168/226/159
f 155/221/155 157/227/160 130/225/158
f 154/218/150 157/228/160 153/222/154
f 165/229/161 611/230/162 152/217/163
f 179/231/164 152/217/163 641/232/165
f 613/233/166 620/234/167 614/199/168
f 140/235/169 625/236/170 626/210/169
f 606/195/171 161/233/172 136/199/171
f 131/237/173 160/238/174 132/195/175
f 148/173/176 178/239/177 177/183/111
f 124/174/102 649/182/178 167/240/179
f 128/181/109 178/241/177 149/177/180
f 645/185/181 641/232/165 640/186/182
f 642/223/156 150/242/108 175/216/148
f 150/242/108 176/232/183 175/216/148
f 655/175/184 158/243/185 129/179/186
f 128/181/109 181/175/103 653/179/107
f 159/171/99 697/244/187 180/169/97
f 183/245/188 681/246/189 680/247/190
f 698/248/191 186/249/192 220/244/193
f 184/250/194 680/251/190 186/249/192
f 208/252/195 695/253/196 186/249/192
f 651/184/112 206/246/197 172/182/110
f 209/254/198 652/243/199 696/253/200
f 169/188/117 684/255/201 636/189/118
f 661/256/202 682/257/203 683/258/204
f 684/255/201 661/259/202 683/260/204
f 682/257/203 657/261/205 662/262/206
f 669/263/207 191/264/208 192/256/209
f 694/265/210 192/259/209 193/266/211
f 191/264/208 667/267/212 659/261/212
f 196/263/213 673/268/214 195/269/215
f 197/265/216 674/270/217 196/271/213
f 195/269/215 671/272/218 666/267/219
f 170/206/139 679/273/220 201/274/221
f 199/275/222 676/276/223 672/277/223
f 200/278/224 677/279/225 199/275/222
f 201/274/221 678/280/226 200/281/224
f 216/282/227 693/283/228 217/284/229
f 174/219/152 692/285/230 173/184/153
f 213/286/231 699/287/232 692/285/230
f 212/288/233 664/289/234 693/283/228
f 168/226/159 213/286/231 174/219/152
f 213/286/231 215/290/235 211/291/236
f 211/292/236 214/293/237 212/288/233
f 210/283/238 647/294/239 165/229/161
f 689/284/240 165/229/161 179/231/164
f 670/295/241 613/233/166 665/267/242
f 198/277/243 625/236/170 162/296/170
f 658/261/244 161/233/172 644/238/172
f 189/297/245 160/238/174 166/298/246
f 691/285/247 207/247/248 206/246/197
f 167/240/179 681/246/189 182/299/249
f 690/300/250 186/249/192 207/251/248
f 688/254/251 179/231/164 645/185/181
f 208/301/195 217/284/229 687/254/252
f 187/253/253 180/169/97 697/244/187
f 186/249/192 695/253/196 220/244/193
f 219/302/254 216/282/227 208/301/195
f 221/287/255 219/303/254 218/285/256
f 699/304/232 212/288/233 216/282/227
f 202/305/257 707/306/257 706/307/257
f 163/308/257 706/307/257 700/309/257
f 163/308/257 701/310/257 144/311/257
f 204/312/257 707/306/257 203/313/257
f 146/314/257 702/315/257 703/316/257
f 205/317/257 708/318/257 204/312/257
f 147/319/257 703/316/257 704/320/257
f 171/321/257 704/320/257 705/322/257
f 171/321/257 709/323/257 205/317/257
f 144/311/257 702/315/257 145/324/257
f 807/325/258 805/326/258 810/327/258
f 224/328/257 222/329/257 227/330/257
f 288/331/259 235/332/260 267/333/261
f 233/334/262 737/173/263 232/174/264
f 289/335/265 234/336/266 761/332/267
f 234/336/266 736/337/268 233/338/262
f 758/339/269 258/340/270 236/341/271
f 280/342/272 285/183/273 756/184/274
f 759/339/275 272/343/276 259/344/277
f 740/187/278 277/345/279 741/346/280
f 738/190/281 714/191/282 739/192/283
f 740/187/278 714/347/282 742/348/284
f 738/190/281 710/195/285 713/196/286
f 241/196/287 723/197/288 242/191/289
f 242/347/289 753/198/290 243/348/291
f 241/196/287 721/199/292 722/349/293
f 246/197/294 728/201/295 729/350/296
f 247/198/297 729/203/296 743/351/298
f 245/349/299 726/205/300 728/201/295
f 278/352/301 735/353/302 755/354/303
f 727/355/304 733/356/305 249/357/306
f 249/357/306 734/358/307 250/359/308
f 250/360/308 735/353/302 251/214/309
f 283/361/310 751/362/311 262/363/312
f 748/183/313 282/219/314 281/184/315
f 748/183/313 261/220/316 263/221/317
f 283/361/310 261/364/316 747/365/318
f 751/362/311 264/366/319 262/363/312
f 282/219/314 238/225/320 276/367/321
f 263/221/317 265/368/322 238/225/320
f 262/363/312 265/369/322 261/364/316
f 273/370/323 716/371/324 260/362/325
f 287/372/326 260/362/325 746/373/327
f 718/374/328 725/375/329 719/199/330
f 270/376/331 731/377/332 248/355/332
f 711/195/333 269/374/334 244/199/333
f 239/378/335 268/379/336 240/195/337
f 256/173/338 286/239/339 285/183/273
f 232/174/264 754/342/340 275/240/341
f 236/341/271 286/380/339 257/337/342
f 750/343/343 746/373/327 745/344/344
f 747/365/318 258/381/270 283/361/310
f 258/381/270 284/373/345 283/361/310
f 760/335/346 266/382/347 237/339/348
f 236/341/271 289/335/265 758/339/269
f 267/333/261 802/383/349 288/331/259
f 291/384/350 786/385/351 785/386/352
f 803/248/353 294/387/354 328/383/355
f 292/388/356 785/389/352 294/387/354
f 316/390/357 800/391/358 294/387/354
f 756/184/274 314/385/359 280/342/272
f 317/392/360 757/382/361 801/391/362
f 277/345/279 789/393/363 741/346/280
f 766/394/364 787/395/365 788/396/366
f 789/393/363 766/259/364 788/260/366
f 787/395/365 762/261/367 767/397/368
f 774/398/369 299/264/370 300/394/371
f 799/265/372 300/259/371 301/399/373
f 299/264/370 772/400/374 764/261/374
f 304/398/375 778/401/376 303/402/377
f 305/265/378 779/270/379 304/271/375
f 303/402/377 776/403/380 771/400/381
f 278/352/301 784/404/382 309/274/383
f 782/405/384 777/406/385 307/407/386
f 783/408/387 307/407/386 308/409/388
f 784/404/382 308/410/388 309/274/383
f 324/411/389 798/412/390 325/413/391
f 282/219/314 797/285/392 281/184/315
f 321/414/393 804/287/394 797/285/392
f 320/288/395 769/415/396 798/412/390
f 276/367/321 321/414/393 282/219/314
f 321/414/393 323/416/397 319/291/398
f 319/417/398 322/418/399 320/288/395
f 318/412/400 752/419/401 273/370/323
f 794/413/402 273/370/323 287/372/326
f 775/420/403 718/374/328 770/400/404
f 780/421/405 270/376/331 306/406/405
f 763/261/406 269/374/334 749/379/334
f 297/422/407 268/379/336 274/298/408
f 796/285/409 315/386/410 314/385/359
f 275/240/341 786/385/351 290/423/411
f 795/300/412 294/387/354 315/389/410
f 793/392/413 287/372/326 750/343/343
f 316/301/357 325/413/391 792/392/414
f 295/391/415 288/331/259 802/383/349
f 294/387/354 800/391/358 328/383/355
f 327/424/416 324/411/389 316/301/357
f 329/287/417 327/425/416 326/285/418
f 804/426/394 320/288/395 324/411/389
f 310/305/258 337/306/258 336/307/258
f 271/308/258 336/307/258 330/309/258
f 271/308/258 331/310/258 252/311/258
f 312/427/258 337/306/258 311/313/258
f 254/428/258 332/315/258 333/429/258
f 313/317/258 338/430/258 312/427/258
f 255/319/258 333/429/258 334/320/258
f 279/321/258 334/320/258 335/431/258
f 279/321/258 339/323/258 313/317/258
f 252/311/258 332/315/258 253/324/258
f 829/432/419 825/433/419 816/434/419
f 819/435/420 822/436/420 831/437/420
f 826/433/421 827/438/421 840/439/421
f 824/433/72 818/440/72 815/441/72
f 835/442/422 820/435/422 832/437/422
f 834/443/423 830/432/423 817/434/423
f 344/432/6 355/444/6 351/438/6
f 341/440/75 346/445/75 340/441/75
f 839/446/17 347/442/17 833/437/17
f 838/447/424 345/437/424 823/436/424
f 343/433/26 350/447/26 342/436/26
f 854/448/425 842/449/425 851/450/425
f 845/451/426 856/452/426 848/453/426
f 827/454/421 852/450/421 840/455/421
f 850/450/74 844/456/74 847/453/74
f 846/451/427 860/457/427 857/452/427
f 855/448/428 859/458/428 843/449/428
f 355/459/6 360/448/6 351/454/6
f 362/460/35 357/456/35 356/441/35
f 363/457/17 839/461/17 858/452/17
f 361/452/424 838/462/424 849/453/424
f 350/462/26 359/450/26 358/453/26
f 873/463/429 871/464/429 865/465/429
f 872/87/429 879/88/429 866/89/429
f 874/90/429 885/91/429 887/92/429
f 864/93/429 881/94/429 868/95/429
f 370/90/429 890/96/429 371/87/429
f 369/97/429 882/94/429 884/91/429
f 366/89/429 875/98/429 367/93/429
f 892/96/430 378/99/430 880/88/430
f 889/92/431 381/466/431 897/100/431
f 883/94/432 379/467/432 895/101/432
f 376/92/433 898/102/433 377/96/433
f 375/91/434 380/468/434 896/103/434
f 372/88/435 893/104/435 373/98/435
f 909/463/436 907/464/436 901/465/436
f 908/87/436 915/88/436 902/89/436
f 910/90/436 921/91/436 923/92/436
f 900/93/436 917/94/436 904/95/436
f 388/90/436 926/96/436 389/87/436
f 387/97/436 918/94/436 920/91/436
f 384/89/436 911/98/436 385/93/436
f 916/88/437 401/469/437 396/99/437
f 925/92/438 399/466/438 933/100/438
f 913/98/439 931/101/439 919/94/439
f 395/96/440 400/470/440 934/102/440
f 392/94/441 932/103/441 393/91/441
f 390/88/442 929/104/442 391/98/442
f 416/1/1 414/471/5 409/2/2
f 460/4/3 462/54/3 464/5/3
f 419/7/4 412/472/4 414/8/5
f 603/9/6 69/119/6 551/10/6
f 461/4/7 457/6/7 466/12/7
f 556/14/8 559/473/443 413/15/9
f 422/16/10 413/15/9 411/17/11
f 404/18/12 408/474/12 410/19/13
f 417/21/6 423/16/6 12/7/6
f 418/21/15 13/1/15 11/3/6
f 1/18/16 421/3/2 409/22/2
f 20/27/18 24/475/444 447/28/19
f 439/30/3 438/45/13 429/31/13
f 444/33/21 442/476/4 450/34/22
f 424/36/10 427/477/24 574/37/24
f 576/39/26 568/478/26 580/40/26
f 565/42/7 22/479/7 434/32/7
f 451/34/11 441/476/11 424/44/10
f 438/45/13 436/480/12 430/46/12
f 448/50/27 445/35/445 26/34/28
f 25/29/30 27/28/446 449/50/31
f 435/52/16 20/27/18 452/29/20
f 459/25/17 561/120/17 569/55/17
f 552/10/26 570/481/26 562/57/26
f 426/49/6 567/121/6 575/65/6
f 602/69/35 91/132/35 471/70/35
f 601/72/37 93/136/26 117/73/26
f 488/75/39 476/86/39 493/76/39
f 482/78/40 484/84/40 498/79/40
f 478/81/41 494/85/41 491/82/41
f 485/84/42 487/75/447 500/77/42
f 481/78/43 496/80/43 495/85/43
f 475/86/44 472/83/44 490/82/44
f 41/76/45 42/82/45 45/79/45
f 42/82/45 43/85/45 45/79/45
f 43/85/45 44/80/45 45/79/45
f 489/87/46 518/96/46 506/88/46
f 486/90/48 483/97/48 512/91/48
f 474/93/49 503/98/49 508/94/49
f 39/90/50 515/92/50 517/96/50
f 38/97/51 37/95/51 509/94/51
f 35/89/52 505/88/52 502/98/52
f 519/96/53 531/469/53 523/99/53
f 513/91/54 527/466/54 528/100/54
f 504/98/55 521/467/55 524/101/55
f 51/92/56 529/470/56 530/102/56
f 49/94/57 525/468/57 526/103/57
f 47/88/58 522/482/58 520/104/58
f 534/108/59 535/483/448 65/109/60
f 469/111/45 533/117/45 532/112/62
f 34/70/45 61/483/45 102/108/45
f 121/114/45 543/484/45 596/115/45
f 60/117/64 541/485/449 540/118/65
f 70/11/67 76/486/450 75/122/68
f 68/10/70 67/13/70 74/123/70
f 86/125/71 85/487/71 571/41/71
f 578/43/70 579/40/70 83/126/70
f 3/4/6 549/13/6 69/119/6
f 582/128/72 589/488/72 599/129/72
f 585/131/73 586/156/74 590/132/74
f 109/129/75 89/488/75 32/111/75
f 88/133/75 583/140/75 591/134/75
f 591/134/75 583/140/75 109/129/75
f 600/136/76 111/72/78 587/137/77
f 585/131/73 113/69/74 587/137/77
f 597/139/72 598/141/72 110/140/72
f 581/130/72 599/129/72 110/140/72
f 593/142/79 595/145/82 545/143/80
f 593/142/79 100/112/66 540/118/65
f 122/146/45 106/149/45 542/147/45
f 123/116/45 596/115/45 106/149/45
f 592/150/45 594/153/45 537/151/45
f 592/150/45 98/71/45 102/108/45
f 539/135/83 95/134/85 99/142/84
f 95/134/85 468/113/63 532/112/62
f 101/153/86 105/155/89 66/154/87
f 101/153/86 534/108/59 544/110/61
f 92/156/90 112/131/451 118/157/91
f 118/157/91 112/131/451 601/72/37
f 33/152/93 94/138/35 114/137/94
f 114/137/94 602/69/35 470/71/36
f 107/141/96 118/489/91 119/163/38
f 116/164/92 118/489/91 107/141/96
f 119/163/38 117/490/26 90/128/26
f 104/165/45 123/116/45 122/146/45
f 103/166/45 122/146/45 120/148/45
f 64/168/45 121/114/45 123/116/45
f 180/169/97 655/175/184 127/170/98
f 125/172/100 631/491/106 632/173/101
f 181/175/103 128/181/109 126/176/104
f 126/176/104 128/181/109 631/177/106
f 653/179/107 639/186/452 150/180/108
f 172/182/110 148/173/176 177/183/111
f 654/179/113 652/243/199 164/185/114
f 635/187/116 637/194/122 169/188/117
f 633/190/119 608/196/124 609/191/120
f 635/187/116 634/492/121 609/193/120
f 633/190/119 610/493/453 605/195/123
f 133/196/125 617/200/131 618/197/126
f 134/193/127 618/494/126 648/198/128
f 133/196/125 607/195/130 616/199/130
f 138/197/132 137/200/137 623/201/133
f 139/198/135 138/494/132 624/203/134
f 137/200/137 615/199/454 621/205/138
f 170/206/139 143/214/147 630/207/140
f 141/209/142 622/235/143 627/210/143
f 142/212/145 141/209/142 628/211/144
f 143/214/147 142/495/145 629/215/146
f 175/216/148 176/232/183 646/217/149
f 643/183/151 155/221/155 174/219/152
f 643/183/151 642/239/156 153/220/154
f 175/216/148 154/218/150 153/222/154
f 646/217/149 612/230/455 156/224/157
f 174/219/152 155/221/155 130/225/158
f 155/221/155 153/220/154 157/227/160
f 154/218/150 156/224/157 157/228/160
f 165/229/161 647/294/239 611/230/162
f 179/231/164 165/229/161 152/217/163
f 613/233/166 619/496/456 620/234/167
f 140/235/169 162/296/170 625/236/170
f 606/195/171 644/238/172 161/233/172
f 131/237/173 166/298/246 160/238/174
f 148/173/176 149/491/180 178/239/177
f 124/174/102 632/173/101 649/182/178
f 128/181/109 150/180/108 178/241/177
f 645/185/181 179/231/164 641/232/165
f 150/242/108 639/186/452 176/232/183
f 655/175/184 180/169/97 158/243/185
f 159/171/99 185/248/457 697/244/187
f 183/245/188 182/299/249 681/246/189
f 698/248/191 184/250/194 186/249/192
f 184/250/194 183/497/188 680/251/190
f 208/252/195 687/254/252 695/253/196
f 651/184/112 691/285/247 206/246/197
f 209/254/198 164/185/114 652/243/199
f 169/188/117 685/266/458 684/255/201
f 661/256/202 660/264/459 682/257/203
f 684/255/201 685/266/458 661/259/202
f 682/257/203 660/264/459 657/261/205
f 669/263/207 668/269/460 191/264/208
f 694/265/210 669/271/207 192/259/209
f 191/264/208 668/269/460 667/267/212
f 196/263/213 674/498/217 673/268/214
f 197/265/216 686/499/461 674/270/217
f 195/269/215 673/268/214 671/272/218
f 170/206/139 650/208/141 679/273/220
f 199/275/222 677/279/225 676/276/223
f 200/278/224 678/500/226 677/279/225
f 201/274/221 679/273/220 678/280/226
f 216/282/227 212/288/233 693/283/228
f 174/219/152 213/286/231 692/285/230
f 213/286/231 211/291/236 699/287/232
f 212/288/233 214/293/237 664/289/234
f 168/226/159 188/501/462 213/286/231
f 213/286/231 188/501/462 215/290/235
f 211/292/236 215/502/235 214/293/237
f 210/283/238 663/289/463 647/294/239
f 689/284/240 210/283/238 165/229/161
f 670/295/241 619/496/456 613/233/166
f 198/277/243 675/276/243 625/236/170
f 658/261/244 194/267/244 161/233/172
f 189/297/245 190/261/464 160/238/174
f 691/285/247 690/303/250 207/247/248
f 167/240/179 649/182/178 681/246/189
f 690/300/250 208/252/195 186/249/192
f 688/254/251 689/284/240 179/231/164
f 208/301/195 216/282/227 217/284/229
f 187/253/253 158/243/185 180/169/97
f 219/302/254 221/304/255 216/282/227
f 699/304/232 211/292/236 212/288/233
f 202/305/257 203/313/257 707/306/257
f 163/308/257 202/305/257 706/307/257
f 163/308/257 700/309/257 701/310/257
f 204/312/257 708/318/257 707/306/257
f 146/314/257 145/324/257 702/315/257
f 205/317/257 709/323/257 708/318/257
f 147/319/257 146/314/257 703/316/257
f 171/321/257 147/319/257 704/320/257
f 171/321/257 705/322/257 709/323/257
f 144/311/257 701/310/257 702/315/257
f 807/325/258 806/503/258 805/326/258
f 805/326/258 811/504/258 812/505/258
f 812/505/258 813/506/258 810/327/258
f 813/506/258 814/507/258 810/327/258
f 810/327/258 809/508/258 808/509/258
f 812/505/258 810/327/258 805/326/258
f 808/509/258 807/325/258 810/327/258
f 224/328/257 223/510/257 222/329/257
f 222/329/257 228/511/257 229/512/257
f 229/512/257 230/513/257 227/330/257
f 230/513/257 231/514/257 227/330/257
f 227/330/257 226/515/257 225/516/257
f 229/512/257 227/330/257 222/329/257
f 225/516/257 224/328/257 227/330/257
f 288/331/259 760/335/346 235/332/260
f 233/334/262 736/517/268 737/173/263
f 289/335/265 236/341/271 234/336/266
f 234/336/266 236/341/271 736/337/268
f 758/339/269 744/344/465 258/340/270
f 280/342/272 256/173/338 285/183/273
f 759/339/275 757/382/361 272/343/276
f 740/187/278 742/348/284 277/345/279
f 738/190/281 713/196/286 714/191/282
f 740/187/278 739/518/283 714/347/282
f 738/190/281 715/519/466 710/195/285
f 241/196/287 722/349/293 723/197/288
f 242/347/289 723/520/288 753/198/290
f 241/196/287 712/195/292 721/199/292
f 246/197/294 245/349/299 728/201/295
f 247/198/297 246/520/294 729/203/296
f 245/349/299 720/199/467 726/205/300
f 278/352/301 251/214/309 735/353/302
f 727/355/304 732/377/304 733/356/305
f 249/357/306 733/356/305 734/358/307
f 250/360/308 734/215/307 735/353/302
f 283/361/310 284/373/345 751/362/311
f 748/183/313 263/221/317 282/219/314
f 748/183/313 747/239/318 261/220/316
f 283/361/310 262/363/312 261/364/316
f 751/362/311 717/371/468 264/366/319
f 282/219/314 263/221/317 238/225/320
f 263/221/317 261/220/316 265/368/322
f 262/363/312 264/366/319 265/369/322
f 273/370/323 752/419/401 716/371/324
f 287/372/326 273/370/323 260/362/325
f 718/374/328 724/496/469 725/375/329
f 270/376/331 730/521/331 731/377/332
f 711/195/333 749/379/334 269/374/334
f 239/378/335 274/298/408 268/379/336
f 256/173/338 257/517/342 286/239/339
f 232/174/264 737/173/263 754/342/340
f 236/341/271 258/340/270 286/380/339
f 750/343/343 287/372/326 746/373/327
f 258/381/270 744/344/465 284/373/345
f 760/335/346 288/331/259 266/382/347
f 267/333/261 293/248/470 802/383/349
f 291/384/350 290/423/411 786/385/351
f 803/248/353 292/388/356 294/387/354
f 292/388/356 291/522/350 785/389/352
f 316/390/357 792/392/414 800/391/358
f 756/184/274 796/285/409 314/385/359
f 317/392/360 272/343/276 757/382/361
f 277/345/279 790/399/471 789/393/363
f 766/394/364 765/264/472 787/395/365
f 789/393/363 790/399/471 766/259/364
f 787/395/365 765/264/472 762/261/367
f 774/398/369 773/402/473 299/264/370
f 799/265/372 774/271/369 300/259/371
f 299/264/370 773/402/473 772/400/374
f 304/398/375 779/523/379 778/401/376
f 305/265/378 791/499/474 779/270/379
f 303/402/377 778/401/376 776/403/380
f 278/352/301 755/354/303 784/404/382
f 782/405/384 781/421/385 777/406/385
f 783/408/387 782/405/384 307/407/386
f 784/404/382 783/280/387 308/410/388
f 324/411/389 320/288/395 798/412/390
f 282/219/314 321/414/393 797/285/392
f 321/414/393 319/291/398 804/287/394
f 320/288/395 322/418/399 769/415/396
f 276/367/321 296/524/475 321/414/393
f 321/414/393 296/524/475 323/416/397
f 319/417/398 323/525/397 322/418/399
f 318/412/400 768/415/476 752/419/401
f 794/413/402 318/412/400 273/370/323
f 775/420/403 724/496/469 718/374/328
f 780/421/405 730/521/331 270/376/331
f 763/261/406 302/400/406 269/374/334
f 297/422/407 298/261/477 268/379/336
f 796/285/409 795/425/412 315/386/410
f 275/240/341 754/342/340 786/385/351
f 795/300/412 316/390/357 294/387/354
f 793/392/413 794/413/402 287/372/326
f 316/301/357 324/411/389 325/413/391
f 295/391/415 266/382/347 288/331/259
f 327/424/416 329/426/417 324/411/389
f 804/426/394 319/417/398 320/288/395
f 310/305/258 311/313/258 337/306/258
f 271/308/258 310/305/258 336/307/258
f 271/308/258 330/309/258 331/310/258
f 312/427/258 338/430/258 337/306/258
f 254/428/258 253/324/258 332/315/258
f 313/317/258 339/323/258 338/430/258
f 255/319/258 254/428/258 333/429/258
f 279/321/258 255/319/258 334/320/258
f 279/321/258 335/431/258 339/323/258
f 252/311/258 331/310/258 332/315/258
f 826/433/421 828/432/421 827/438/421
f 824/433/72 821/436/72 818/440/72
f 835/442/422 836/526/422 820/435/422
f 834/443/423 837/527/423 830/432/423
f 344/432/6 349/527/6 355/444/6
f 341/440/75 348/528/75 346/445/75
f 839/446/17 354/529/17 347/442/17
f 838/447/424 352/446/424 345/437/424
f 343/433/26 353/439/26 350/447/26
f 827/454/421 853/448/421 852/450/421
f 850/450/74 841/441/74 844/456/74
f 846/451/427 861/530/427 860/457/427
f 855/448/428 862/531/428 859/458/428
f 355/459/6 365/531/6 360/448/6
f 362/460/35 364/532/35 357/456/35
f 363/457/17 354/533/17 839/461/17
f 361/452/424 352/461/424 838/462/424
f 350/462/26 353/455/26 359/450/26
f 865/465/429 863/534/429 867/535/429
f 867/535/429 869/536/429 865/465/429
f 869/536/429 873/463/429 865/465/429
f 872/87/429 891/96/429 879/88/429
f 874/90/429 870/97/429 885/91/429
f 864/93/429 876/98/429 881/94/429
f 370/90/429 888/92/429 890/96/429
f 369/97/429 368/95/429 882/94/429
f 366/89/429 878/88/429 875/98/429
f 892/96/430 383/469/430 378/99/430
f 889/92/431 886/91/431 381/466/431
f 883/94/432 877/98/432 379/467/432
f 376/92/433 382/470/433 898/102/433
f 375/91/434 374/94/434 380/468/434
f 372/88/435 894/482/435 893/104/435
f 901/465/436 899/534/436 903/535/436
f 903/535/436 905/536/436 901/465/436
f 905/536/436 909/463/436 901/465/436
f 908/87/436 927/96/436 915/88/436
f 910/90/436 906/97/436 921/91/436
f 900/93/436 912/98/436 917/94/436
f 388/90/436 924/92/436 926/96/436
f 387/97/436 386/95/436 918/94/436
f 384/89/436 914/88/436 911/98/436
f 916/88/437 928/96/437 401/469/437
f 925/92/438 922/91/438 399/466/438
f 913/98/439 397/467/439 931/101/439
f 395/96/440 394/92/440 400/470/440
f 392/94/441 398/468/441 932/103/441
f 390/88/442 930/482/442 929/104/442
