# Blender 5.0.1
# www.blender.org
mtllib 95.mtl
o 95
v 0.165371 0.000000 0.000000
v 0.116935 0.116511 -0.000000
v 0.000000 0.164772 -0.000000
v 0.000000 -0.164772 0.000000
v 0.116935 -0.116511 0.000000
v 0.135779 0.000000 0.100430
v 0.096010 0.096010 0.100430
v 0.000000 0.135779 0.100430
v 0.000000 -0.135779 0.100430
v 0.096010 -0.096010 0.100430
v 0.105977 -0.346538 -0.019208
v 0.101443 -0.216290 0.083407
v 0.099374 0.288824 0.083326
v 0.102840 0.419102 -0.019331
v 0.074682 0.239929 0.721977
v 0.075207 0.371912 0.694632
v 0.000000 -0.142117 0.838660
v 0.100492 0.100492 0.838660
v 0.000000 0.658869 0.635103
v 0.000000 0.371907 0.694581
v 0.000000 0.239925 0.721936
v 0.000000 -0.403793 0.855356
v 0.000000 -0.271825 0.828004
v 0.000000 0.419105 -0.019305
v 0.000000 0.288833 0.083419
v 0.000000 -0.346541 -0.019244
v 0.000000 -0.216284 0.083460
v 0.090417 -1.338211 0.457902
v 0.087371 -1.350011 0.583747
v 0.063371 -1.292068 0.527358
v 0.087518 0.660485 0.365096
v 0.090586 0.660506 0.286638
v 0.077116 0.624873 0.335160
v 0.090518 0.399433 0.313606
v 0.087454 0.394186 0.392600
v 0.077050 0.396810 0.353103
v 0.086460 0.257332 0.420679
v 0.090660 0.265784 0.313492
v 0.072275 0.261105 0.367132
v 0.086427 -0.375333 0.454833
v 0.088142 -0.372426 0.410564
v 0.080581 -0.373879 0.432698
v 0.086518 -0.245280 0.395469
v 0.084631 -0.248965 0.443775
v 0.078235 -0.247298 0.419640
v 0.000000 0.660522 0.286808
v 0.000000 0.660499 0.365253
v 0.000000 0.624887 0.335323
v 0.000000 -1.349989 0.583874
v 0.000000 -1.338203 0.458100
v 0.000000 -1.292056 0.527492
v 0.068409 -1.339262 1.049164
v 0.071544 -1.411944 0.979970
v 0.000000 -1.339254 1.049245
v 0.000000 -1.411932 0.980064
v 0.000000 -1.373230 0.732526
v 0.000000 -1.390492 0.842934
v 0.081428 -1.373266 0.732528
v 0.077018 -1.390525 0.842943
v 0.079681 -0.775263 0.681960
v 0.052721 -1.358315 0.786191
v 0.000000 -1.358294 0.786187
v 0.073105 -0.401845 0.827917
v 0.045643 -0.403794 0.855352
v 0.070288 -0.866273 0.951167
v 0.046167 -0.271825 0.828005
v 0.073503 -0.270196 0.800637
v 0.073760 0.007768 0.770078
v 0.084641 0.660071 0.434663
v 0.039103 0.658872 0.635134
v 0.076202 0.622409 0.642733
v 0.102191 -0.439294 0.080601
v 0.102485 -0.762998 0.105382
v 0.104861 -1.131617 0.085247
v 0.105000 -0.761449 0.044978
v 0.095950 -0.759190 0.079717
v 0.107593 -1.272390 0.033844
v 0.000000 -1.210648 -0.019175
v 0.000000 -1.272395 0.033738
v 0.142117 0.000000 0.838660
v 0.100492 -0.100492 0.838660
v 0.000000 0.142117 0.838660
v 0.000000 0.000000 0.980438
v 0.132613 0.317244 0.651165
v 0.132613 0.223112 0.651165
v 0.132613 0.317244 0.557033
v 0.132613 0.223112 0.557033
v 0.173675 0.317244 0.557033
v 0.173675 0.317244 0.651165
v 0.173675 0.223112 0.651165
v 0.173675 0.223112 0.557033
v 0.128564 -0.342290 0.633919
v 0.131392 -0.423745 0.586824
v 0.133833 -0.295111 0.552635
v 0.136661 -0.376565 0.505540
v 0.174812 -0.295195 0.555242
v 0.169543 -0.342375 0.636526
v 0.172371 -0.423829 0.589431
v 0.177640 -0.376650 0.508147
v 0.132613 -0.615935 0.325783
v 0.132613 -0.708569 0.309059
v 0.132613 -0.599210 0.233149
v 0.132613 -0.691845 0.216425
v 0.173675 -0.599210 0.233149
v 0.173675 -0.615935 0.325783
v 0.173675 -0.708569 0.309059
v 0.173675 -0.691845 0.216425
v 0.132613 0.449743 0.261215
v 0.132613 0.356634 0.275060
v 0.132613 0.435898 0.168107
v 0.132613 0.342789 0.181952
v 0.173675 0.435898 0.168107
v 0.173675 0.449743 0.261215
v 0.173675 0.356634 0.275060
v 0.173675 0.342789 0.181952
v 0.101978 0.629518 -0.019364
v 0.100778 0.659011 0.009965
v 0.000000 0.659016 0.010009
v 0.000000 0.629523 -0.019322
v 0.108420 -1.245867 0.011117
v 0.063109 -1.210642 -0.019120
v 0.107908 -0.817925 -0.019133
v 0.116935 0.116511 0.094435
v 0.000000 0.164772 0.094435
v 0.000000 -0.164772 0.094435
v 0.116935 -0.116511 0.094435
v 0.165371 0.000000 0.094435
v 0.132613 -0.445534 0.640932
v 0.132613 -0.438948 0.494091
v 0.132613 0.389942 0.531268
v 0.132613 0.122062 0.666375
v 0.132613 -0.130989 0.654970
v 0.194002 -0.002199 0.660672
v 0.132613 -0.130810 0.507981
v 0.132613 0.125678 0.519431
v 0.194002 -0.004831 0.513707
v 0.132613 -0.764462 0.340040
v 0.132613 -0.769964 0.193154
v 0.132613 0.128622 0.300242
v 0.132613 -0.126225 0.309788
v 0.194002 -0.003301 0.305046
v 0.132613 -0.131727 0.162902
v 0.132613 0.123120 0.153356
v 0.194002 0.000196 0.158098
v 0.106343 0.383356 0.678110
v 0.132613 0.357113 0.676931
v 0.132613 0.388000 0.574574
v 0.132613 0.488468 0.286762
v 0.121250 0.499823 0.286337
v 0.121250 0.494321 0.139451
v 0.132613 0.482966 0.139876
v 0.096665 0.123143 0.153623
v 0.096610 0.494341 0.139636
v 0.098841 -0.769925 0.193537
v 0.082338 -0.130818 0.508154
v 0.090415 -0.003311 0.305232
v 0.097249 -0.131701 0.163214
v 0.076717 0.122074 0.666522
v 0.090149 -0.126205 0.310022
v 0.092747 -0.764424 0.340393
v 0.090868 0.128612 0.300438
v 0.082362 0.125669 0.519620
v 0.082346 -0.004839 0.513887
v 0.077208 -0.002187 0.660828
v 0.075829 0.383373 0.678283
v 0.077711 -0.130976 0.655135
v 0.079971 -0.445509 0.641184
v 0.081800 0.389961 0.531462
v 0.096940 0.000220 0.158387
v 0.091160 0.499840 0.286521
v 0.085232 -0.438923 0.494336
v 0.075358 -0.001848 0.394290
v 0.000000 0.003420 0.770955
v 0.100586 -0.007024 0.083373
v 0.085532 0.000329 0.432403
v 0.000000 -0.004148 0.083443
v 0.088495 -0.001311 0.356335
v 0.101733 0.000000 0.000363
v 0.071936 -0.071936 0.000363
v 0.000000 -0.101733 0.000363
v 0.000000 0.101733 0.000363
v 0.071936 0.071936 0.000363
v 0.101733 -0.000000 -0.077208
v 0.071936 -0.071936 -0.077208
v 0.000000 -0.101733 -0.077208
v 0.000000 0.101733 -0.077208
v 0.071936 0.071936 -0.077208
v -0.165371 0.000000 0.000000
v -0.116935 0.116511 -0.000000
v -0.116935 -0.116511 0.000000
v -0.135779 0.000000 0.100430
v -0.096010 0.096010 0.100430
v -0.096010 -0.096010 0.100430
v -0.105977 -0.346538 -0.019208
v -0.101443 -0.216290 0.083407
v -0.099374 0.288824 0.083326
v -0.102840 0.419102 -0.019331
v -0.074682 0.239929 0.721977
v -0.075207 0.371912 0.694632
v -0.100492 0.100492 0.838660
v -0.090417 -1.338211 0.457902
v -0.087371 -1.350011 0.583747
v -0.063371 -1.292068 0.527358
v -0.087518 0.660485 0.365096
v -0.090586 0.660506 0.286638
v -0.077116 0.624873 0.335160
v -0.090518 0.399433 0.313606
v -0.087454 0.394186 0.392600
v -0.077050 0.396810 0.353103
v -0.086460 0.257332 0.420679
v -0.090660 0.265784 0.313492
v -0.072275 0.261105 0.367132
v -0.086427 -0.375333 0.454833
v -0.088142 -0.372426 0.410564
v -0.080581 -0.373879 0.432698
v -0.086518 -0.245280 0.395469
v -0.084631 -0.248965 0.443775
v -0.078235 -0.247298 0.419640
v -0.068409 -1.339262 1.049164
v -0.071544 -1.411944 0.979970
v -0.081428 -1.373266 0.732528
v -0.077018 -1.390525 0.842943
v -0.079681 -0.775263 0.681960
v -0.052721 -1.358315 0.786191
v -0.073105 -0.401845 0.827917
v -0.045643 -0.403794 0.855352
v -0.070288 -0.866273 0.951167
v -0.046167 -0.271825 0.828005
v -0.073503 -0.270196 0.800637
v -0.073760 0.007768 0.770078
v -0.084641 0.660071 0.434663
v -0.039103 0.658872 0.635134
v -0.076202 0.622409 0.642733
v -0.102191 -0.439294 0.080601
v -0.102485 -0.762998 0.105382
v -0.104861 -1.131617 0.085247
v -0.105000 -0.761449 0.044978
v -0.095950 -0.759190 0.079717
v -0.107593 -1.272390 0.033844
v -0.142117 0.000000 0.838660
v -0.100492 -0.100492 0.838660
v -0.132613 0.317244 0.651165
v -0.132613 0.223112 0.651165
v -0.132613 0.317244 0.557033
v -0.132613 0.223112 0.557033
v -0.173675 0.317244 0.557033
v -0.173675 0.317244 0.651165
v -0.173675 0.223112 0.651165
v -0.173675 0.223112 0.557033
v -0.128564 -0.342290 0.633919
v -0.131392 -0.423745 0.586824
v -0.133833 -0.295111 0.552635
v -0.136661 -0.376565 0.505540
v -0.174812 -0.295195 0.555242
v -0.169543 -0.342375 0.636526
v -0.172371 -0.423829 0.589431
v -0.177640 -0.376650 0.508147
v -0.132613 -0.615935 0.325783
v -0.132613 -0.708569 0.309059
v -0.132613 -0.599210 0.233149
v -0.132613 -0.691845 0.216425
v -0.173675 -0.599210 0.233149
v -0.173675 -0.615935 0.325783
v -0.173675 -0.708569 0.309059
v -0.173675 -0.691845 0.216425
v -0.132613 0.449743 0.261215
v -0.132613 0.356634 0.275060
v -0.132613 0.435898 0.168107
v -0.132613 0.342789 0.181952
v -0.173675 0.435898 0.168107
v -0.173675 0.449743 0.261215
v -0.173675 0.356634 0.275060
v -0.173675 0.342789 0.181952
v -0.101978 0.629518 -0.019364
v -0.100778 0.659011 0.009965
v -0.108420 -1.245867 0.011117
v -0.063109 -1.210642 -0.019120
v -0.107908 -0.817925 -0.019133
v -0.116935 0.116511 0.094435
v -0.116935 -0.116511 0.094435
v -0.165371 0.000000 0.094435
v -0.132613 -0.445534 0.640932
v -0.132613 -0.438948 0.494091
v -0.132613 0.389942 0.531268
v -0.132613 0.122062 0.666375
v -0.132613 -0.130989 0.654970
v -0.194002 -0.002199 0.660672
v -0.132613 -0.130810 0.507981
v -0.132613 0.125678 0.519431
v -0.194002 -0.004831 0.513707
v -0.132613 -0.764462 0.340040
v -0.132613 -0.769964 0.193154
v -0.132613 0.128622 0.300242
v -0.132613 -0.126225 0.309788
v -0.194002 -0.003301 0.305046
v -0.132613 -0.131727 0.162902
v -0.132613 0.123120 0.153356
v -0.194002 0.000196 0.158098
v -0.106343 0.383356 0.678110
v -0.132613 0.357113 0.676931
v -0.132613 0.388000 0.574574
v -0.132613 0.488468 0.286762
v -0.121250 0.499823 0.286337
v -0.121250 0.494321 0.139451
v -0.132613 0.482966 0.139876
v -0.096665 0.123143 0.153623
v -0.096610 0.494341 0.139636
v -0.098841 -0.769925 0.193537
v -0.082338 -0.130818 0.508154
v -0.090415 -0.003311 0.305232
v -0.097249 -0.131701 0.163214
v -0.076717 0.122074 0.666522
v -0.090149 -0.126205 0.310022
v -0.092747 -0.764424 0.340393
v -0.090868 0.128612 0.300438
v -0.082362 0.125669 0.519620
v -0.082346 -0.004839 0.513887
v -0.077208 -0.002187 0.660828
v -0.075829 0.383373 0.678283
v -0.077711 -0.130976 0.655135
v -0.079971 -0.445509 0.641184
v -0.081800 0.389961 0.531462
v -0.096940 0.000220 0.158387
v -0.091160 0.499840 0.286521
v -0.085232 -0.438923 0.494336
v -0.075358 -0.001848 0.394290
v -0.100586 -0.007024 0.083373
v -0.085532 0.000329 0.432403
v -0.088495 -0.001311 0.356335
v -0.101733 0.000000 0.000363
v -0.071936 -0.071936 0.000363
v -0.071936 0.071936 0.000363
v -0.101733 -0.000000 -0.077208
v -0.071936 -0.071936 -0.077208
v -0.071936 0.071936 -0.077208
v 0.116935 0.116511 -0.000000
v 0.116935 0.116511 -0.000000
v 0.165371 0.000000 0.000000
v 0.165371 0.000000 0.000000
v 0.000000 0.164772 -0.000000
v 0.000000 0.164772 -0.000000
v 0.116935 -0.116511 0.000000
v 0.116935 -0.116511 0.000000
v 0.000000 -0.164772 0.000000
v 0.000000 -0.164772 0.000000
v 0.096010 0.096010 0.100430
v 0.096010 0.096010 0.100430
v 0.135779 0.000000 0.100430
v 0.135779 0.000000 0.100430
v 0.000000 0.135779 0.100430
v 0.000000 0.135779 0.100430
v 0.096010 -0.096010 0.100430
v 0.096010 -0.096010 0.100430
v 0.000000 -0.135779 0.100430
v 0.000000 -0.135779 0.100430
v 0.116935 0.116511 0.094435
v 0.116935 0.116511 0.094435
v 0.000000 -0.164772 0.094435
v 0.000000 -0.164772 0.094435
v 0.165371 0.000000 0.094435
v 0.165371 0.000000 0.094435
v 0.074682 0.239929 0.721977
v 0.075207 0.371912 0.694632
v 0.099374 0.288824 0.083326
v 0.099374 0.288824 0.083326
v 0.102840 0.419102 -0.019331
v 0.102840 0.419102 -0.019331
v 0.105977 -0.346538 -0.019208
v 0.105977 -0.346538 -0.019208
v 0.101443 -0.216290 0.083407
v 0.101443 -0.216290 0.083407
v 0.000000 0.419105 -0.019305
v 0.000000 -0.216284 0.083460
v 0.100586 -0.007024 0.083373
v 0.000000 0.288833 0.083419
v 0.000000 -0.346541 -0.019244
v 0.100492 0.100492 0.838660
v 0.100492 0.100492 0.838660
v 0.100492 0.100492 0.838660
v 0.000000 -0.142117 0.838660
v 0.000000 -0.142117 0.838660
v 0.063371 -1.292068 0.527358
v 0.063371 -1.292068 0.527358
v 0.063371 -1.292068 0.527358
v 0.087371 -1.350011 0.583747
v 0.087371 -1.350011 0.583747
v 0.087371 -1.350011 0.583747
v 0.000000 -1.349989 0.583874
v 0.000000 -1.349989 0.583874
v 0.000000 -1.292056 0.527492
v 0.090417 -1.338211 0.457902
v 0.090417 -1.338211 0.457902
v 0.090417 -1.338211 0.457902
v 0.000000 -1.338203 0.458100
v 0.077116 0.624873 0.335160
v 0.077116 0.624873 0.335160
v 0.077116 0.624873 0.335160
v 0.090586 0.660506 0.286638
v 0.090586 0.660506 0.286638
v 0.090586 0.660506 0.286638
v 0.000000 0.660522 0.286808
v 0.000000 0.624887 0.335323
v 0.087518 0.660485 0.365096
v 0.087518 0.660485 0.365096
v 0.087518 0.660485 0.365096
v 0.000000 0.660499 0.365253
v 0.088142 -0.372426 0.410564
v 0.086518 -0.245280 0.395469
v 0.078235 -0.247298 0.419640
v 0.080581 -0.373879 0.432698
v 0.084631 -0.248965 0.443775
v 0.086427 -0.375333 0.454833
v 0.087454 0.394186 0.392600
v 0.086460 0.257332 0.420679
v 0.072275 0.261105 0.367132
v 0.077050 0.396810 0.353103
v 0.090660 0.265784 0.313492
v 0.090518 0.399433 0.313606
v 0.085532 0.000329 0.432403
v 0.075358 -0.001848 0.394290
v 0.088495 -0.001311 0.356335
v 0.000000 -1.411932 0.980064
v 0.000000 -1.411932 0.980064
v 0.071544 -1.411944 0.979970
v 0.071544 -1.411944 0.979970
v 0.068409 -1.339262 1.049164
v 0.068409 -1.339262 1.049164
v 0.000000 -1.339254 1.049245
v 0.000000 -1.390492 0.842934
v 0.000000 -1.390492 0.842934
v 0.000000 -1.390492 0.842934
v 0.077018 -1.390525 0.842943
v 0.077018 -1.390525 0.842943
v 0.077018 -1.390525 0.842943
v 0.000000 -1.373230 0.732526
v 0.000000 -1.373230 0.732526
v 0.000000 -1.373230 0.732526
v 0.000000 -1.358294 0.786187
v 0.000000 -1.358294 0.786187
v 0.000000 -1.358294 0.786187
v 0.081428 -1.373266 0.732528
v 0.081428 -1.373266 0.732528
v 0.081428 -1.373266 0.732528
v 0.052721 -1.358315 0.786191
v 0.052721 -1.358315 0.786191
v 0.052721 -1.358315 0.786191
v 0.079681 -0.775263 0.681960
v 0.079681 -0.775263 0.681960
v 0.070288 -0.866273 0.951167
v 0.070288 -0.866273 0.951167
v 0.073105 -0.401845 0.827917
v 0.045643 -0.403794 0.855352
v 0.073760 0.007768 0.770078
v 0.073760 0.007768 0.770078
v 0.046167 -0.271825 0.828005
v 0.073503 -0.270196 0.800637
v 0.076202 0.622409 0.642733
v 0.076202 0.622409 0.642733
v 0.084641 0.660071 0.434663
v 0.084641 0.660071 0.434663
v 0.039103 0.658872 0.635134
v 0.039103 0.658872 0.635134
v 0.000000 0.658869 0.635103
v 0.102191 -0.439294 0.080601
v 0.102191 -0.439294 0.080601
v 0.102485 -0.762998 0.105382
v 0.104861 -1.131617 0.085247
v 0.104861 -1.131617 0.085247
v 0.105000 -0.761449 0.044978
v 0.095950 -0.759190 0.079717
v 0.107593 -1.272390 0.033844
v 0.107593 -1.272390 0.033844
v 0.000000 -1.272395 0.033738
v 0.142117 0.000000 0.838660
v 0.142117 0.000000 0.838660
v 0.142117 0.000000 0.838660
v 0.100492 -0.100492 0.838660
v 0.100492 -0.100492 0.838660
v 0.100492 -0.100492 0.838660
v 0.000000 0.000000 0.980438
v 0.000000 0.000000 0.980438
v 0.000000 0.000000 0.980438
v 0.000000 0.000000 0.980438
v 0.000000 0.000000 0.980438
v 0.132613 0.317244 0.557033
v 0.132613 0.317244 0.651165
v 0.132613 0.223112 0.651165
v 0.132613 0.223112 0.557033
v 0.173675 0.317244 0.557033
v 0.173675 0.317244 0.557033
v 0.173675 0.317244 0.651165
v 0.173675 0.317244 0.651165
v 0.173675 0.223112 0.651165
v 0.173675 0.223112 0.651165
v 0.173675 0.223112 0.557033
v 0.173675 0.223112 0.557033
v 0.133833 -0.295111 0.552635
v 0.128564 -0.342290 0.633919
v 0.131392 -0.423745 0.586824
v 0.136661 -0.376565 0.505540
v 0.174812 -0.295195 0.555242
v 0.174812 -0.295195 0.555242
v 0.169543 -0.342375 0.636526
v 0.169543 -0.342375 0.636526
v 0.172371 -0.423829 0.589431
v 0.172371 -0.423829 0.589431
v 0.177640 -0.376650 0.508147
v 0.177640 -0.376650 0.508147
v 0.132613 -0.599210 0.233149
v 0.132613 -0.615935 0.325783
v 0.132613 -0.708569 0.309059
v 0.132613 -0.691845 0.216425
v 0.173675 -0.599210 0.233149
v 0.173675 -0.599210 0.233149
v 0.173675 -0.615935 0.325783
v 0.173675 -0.615935 0.325783
v 0.173675 -0.708569 0.309059
v 0.173675 -0.708569 0.309059
v 0.173675 -0.691845 0.216425
v 0.173675 -0.691845 0.216425
v 0.132613 0.435898 0.168107
v 0.132613 0.449743 0.261215
v 0.132613 0.356634 0.275060
v 0.132613 0.342789 0.181952
v 0.173675 0.435898 0.168107
v 0.173675 0.435898 0.168107
v 0.173675 0.449743 0.261215
v 0.173675 0.449743 0.261215
v 0.173675 0.356634 0.275060
v 0.173675 0.356634 0.275060
v 0.173675 0.342789 0.181952
v 0.173675 0.342789 0.181952
v 0.000000 0.659016 0.010009
v 0.100778 0.659011 0.009965
v 0.100778 0.659011 0.009965
v 0.101978 0.629518 -0.019364
v 0.101978 0.629518 -0.019364
v 0.000000 0.629523 -0.019322
v 0.107908 -0.817925 -0.019133
v 0.107908 -0.817925 -0.019133
v 0.108420 -1.245867 0.011117
v 0.108420 -1.245867 0.011117
v 0.063109 -1.210642 -0.019120
v 0.063109 -1.210642 -0.019120
v 0.000000 -1.210648 -0.019175
v 0.000000 0.164772 0.094435
v 0.000000 0.164772 0.094435
v 0.116935 -0.116511 0.094435
v 0.116935 -0.116511 0.094435
v 0.079971 -0.445509 0.641184
v 0.132613 -0.445534 0.640932
v 0.132613 -0.445534 0.640932
v 0.132613 -0.438948 0.494091
v 0.132613 -0.438948 0.494091
v 0.194002 -0.002199 0.660672
v 0.194002 -0.002199 0.660672
v 0.132613 -0.130989 0.654970
v 0.132613 -0.130810 0.507981
v 0.194002 -0.004831 0.513707
v 0.194002 -0.004831 0.513707
v 0.132613 0.122062 0.666375
v 0.132613 0.125678 0.519431
v 0.132613 0.389942 0.531268
v 0.132613 0.389942 0.531268
v 0.092747 -0.764424 0.340393
v 0.132613 -0.764462 0.340040
v 0.132613 -0.764462 0.340040
v 0.132613 -0.769964 0.193154
v 0.132613 -0.769964 0.193154
v 0.194002 -0.003301 0.305046
v 0.194002 -0.003301 0.305046
v 0.132613 -0.126225 0.309788
v 0.132613 -0.131727 0.162902
v 0.194002 0.000196 0.158098
v 0.194002 0.000196 0.158098
v 0.132613 0.128622 0.300242
v 0.132613 0.123120 0.153356
v 0.132613 0.388000 0.574574
v 0.132613 0.388000 0.574574
v 0.106343 0.383356 0.678110
v 0.106343 0.383356 0.678110
v 0.132613 0.357113 0.676931
v 0.132613 0.357113 0.676931
v 0.075829 0.383373 0.678283
v 0.121250 0.499823 0.286337
v 0.121250 0.499823 0.286337
v 0.132613 0.488468 0.286762
v 0.132613 0.488468 0.286762
v 0.132613 0.482966 0.139876
v 0.132613 0.482966 0.139876
v 0.121250 0.494321 0.139451
v 0.121250 0.494321 0.139451
v 0.091160 0.499840 0.286521
v 0.096610 0.494341 0.139636
v 0.098841 -0.769925 0.193537
v 0.081800 0.389961 0.531462
v 0.085232 -0.438923 0.494336
v 0.101733 0.000000 0.000363
v 0.071936 -0.071936 0.000363
v 0.071936 0.071936 0.000363
v 0.101733 -0.000000 -0.077208
v 0.101733 -0.000000 -0.077208
v 0.071936 -0.071936 -0.077208
v 0.071936 -0.071936 -0.077208
v 0.000000 -0.101733 -0.077208
v 0.000000 0.101733 -0.077208
v 0.071936 0.071936 -0.077208
v 0.071936 0.071936 -0.077208
v 0.000000 0.142117 0.838660
v 0.000000 0.142117 0.838660
v -0.116935 0.116511 -0.000000
v -0.116935 0.116511 -0.000000
v -0.165371 0.000000 0.000000
v -0.165371 0.000000 0.000000
v -0.116935 -0.116511 0.000000
v -0.116935 -0.116511 0.000000
v -0.096010 0.096010 0.100430
v -0.096010 0.096010 0.100430
v -0.135779 0.000000 0.100430
v -0.135779 0.000000 0.100430
v -0.096010 -0.096010 0.100430
v -0.096010 -0.096010 0.100430
v -0.116935 0.116511 0.094435
v -0.116935 0.116511 0.094435
v -0.165371 0.000000 0.094435
v -0.165371 0.000000 0.094435
v -0.074682 0.239929 0.721977
v -0.075207 0.371912 0.694632
v -0.099374 0.288824 0.083326
v -0.099374 0.288824 0.083326
v -0.102840 0.419102 -0.019331
v -0.102840 0.419102 -0.019331
v -0.105977 -0.346538 -0.019208
v -0.105977 -0.346538 -0.019208
v -0.101443 -0.216290 0.083407
v -0.101443 -0.216290 0.083407
v -0.100586 -0.007024 0.083373
v -0.100492 0.100492 0.838660
v -0.100492 0.100492 0.838660
v -0.100492 0.100492 0.838660
v -0.063371 -1.292068 0.527358
v -0.063371 -1.292068 0.527358
v -0.063371 -1.292068 0.527358
v -0.087371 -1.350011 0.583747
v -0.087371 -1.350011 0.583747
v -0.087371 -1.350011 0.583747
v -0.090417 -1.338211 0.457902
v -0.090417 -1.338211 0.457902
v -0.090417 -1.338211 0.457902
v -0.077116 0.624873 0.335160
v -0.077116 0.624873 0.335160
v -0.077116 0.624873 0.335160
v -0.090586 0.660506 0.286638
v -0.090586 0.660506 0.286638
v -0.090586 0.660506 0.286638
v -0.087518 0.660485 0.365096
v -0.087518 0.660485 0.365096
v -0.087518 0.660485 0.365096
v -0.088142 -0.372426 0.410564
v -0.086518 -0.245280 0.395469
v -0.078235 -0.247298 0.419640
v -0.080581 -0.373879 0.432698
v -0.084631 -0.248965 0.443775
v -0.086427 -0.375333 0.454833
v -0.087454 0.394186 0.392600
v -0.086460 0.257332 0.420679
v -0.072275 0.261105 0.367132
v -0.077050 0.396810 0.353103
v -0.090660 0.265784 0.313492
v -0.090518 0.399433 0.313606
v -0.085532 0.000329 0.432403
v -0.075358 -0.001848 0.394290
v -0.088495 -0.001311 0.356335
v -0.071544 -1.411944 0.979970
v -0.071544 -1.411944 0.979970
v -0.068409 -1.339262 1.049164
v -0.068409 -1.339262 1.049164
v -0.077018 -1.390525 0.842943
v -0.077018 -1.390525 0.842943
v -0.077018 -1.390525 0.842943
v -0.081428 -1.373266 0.732528
v -0.081428 -1.373266 0.732528
v -0.081428 -1.373266 0.732528
v -0.052721 -1.358315 0.786191
v -0.052721 -1.358315 0.786191
v -0.052721 -1.358315 0.786191
v -0.079681 -0.775263 0.681960
v -0.079681 -0.775263 0.681960
v -0.070288 -0.866273 0.951167
v -0.070288 -0.866273 0.951167
v -0.073105 -0.401845 0.827917
v -0.045643 -0.403794 0.855352
v -0.073760 0.007768 0.770078
v -0.073760 0.007768 0.770078
v -0.046167 -0.271825 0.828005
v -0.073503 -0.270196 0.800637
v -0.076202 0.622409 0.642733
v -0.076202 0.622409 0.642733
v -0.084641 0.660071 0.434663
v -0.084641 0.660071 0.434663
v -0.039103 0.658872 0.635134
v -0.039103 0.658872 0.635134
v -0.102191 -0.439294 0.080601
v -0.102191 -0.439294 0.080601
v -0.102485 -0.762998 0.105382
v -0.104861 -1.131617 0.085247
v -0.104861 -1.131617 0.085247
v -0.105000 -0.761449 0.044978
v -0.095950 -0.759190 0.079717
v -0.107593 -1.272390 0.033844
v -0.107593 -1.272390 0.033844
v -0.142117 0.000000 0.838660
v -0.142117 0.000000 0.838660
v -0.142117 0.000000 0.838660
v -0.100492 -0.100492 0.838660
v -0.100492 -0.100492 0.838660
v -0.100492 -0.100492 0.838660
v -0.132613 0.317244 0.557033
v -0.132613 0.317244 0.651165
v -0.132613 0.223112 0.651165
v -0.132613 0.223112 0.557033
v -0.173675 0.317244 0.557033
v -0.173675 0.317244 0.557033
v -0.173675 0.317244 0.651165
v -0.173675 0.317244 0.651165
v -0.173675 0.223112 0.651165
v -0.173675 0.223112 0.651165
v -0.173675 0.223112 0.557033
v -0.173675 0.223112 0.557033
v -0.133833 -0.295111 0.552635
v -0.128564 -0.342290 0.633919
v -0.131392 -0.423745 0.586824
v -0.136661 -0.376565 0.505540
v -0.174812 -0.295195 0.555242
v -0.174812 -0.295195 0.555242
v -0.169543 -0.342375 0.636526
v -0.169543 -0.342375 0.636526
v -0.172371 -0.423829 0.589431
v -0.172371 -0.423829 0.589431
v -0.177640 -0.376650 0.508147
v -0.177640 -0.376650 0.508147
v -0.132613 -0.599210 0.233149
v -0.132613 -0.615935 0.325783
v -0.132613 -0.708569 0.309059
v -0.132613 -0.691845 0.216425
v -0.173675 -0.599210 0.233149
v -0.173675 -0.599210 0.233149
v -0.173675 -0.615935 0.325783
v -0.173675 -0.615935 0.325783
v -0.173675 -0.708569 0.309059
v -0.173675 -0.708569 0.309059
v -0.173675 -0.691845 0.216425
v -0.173675 -0.691845 0.216425
v -0.132613 0.435898 0.168107
v -0.132613 0.449743 0.261215
v -0.132613 0.356634 0.275060
v -0.132613 0.342789 0.181952
v -0.173675 0.435898 0.168107
v -0.173675 0.435898 0.168107
v -0.173675 0.449743 0.261215
v -0.173675 0.449743 0.261215
v -0.173675 0.356634 0.275060
v -0.173675 0.356634 0.275060
v -0.173675 0.342789 0.181952
v -0.173675 0.342789 0.181952
v -0.100778 0.659011 0.009965
v -0.100778 0.659011 0.009965
v -0.101978 0.629518 -0.019364
v -0.101978 0.629518 -0.019364
v -0.107908 -0.817925 -0.019133
v -0.107908 -0.817925 -0.019133
v -0.108420 -1.245867 0.011117
v -0.108420 -1.245867 0.011117
v -0.063109 -1.210642 -0.019120
v -0.063109 -1.210642 -0.019120
v -0.116935 -0.116511 0.094435
v -0.116935 -0.116511 0.094435
v -0.079971 -0.445509 0.641184
v -0.132613 -0.445534 0.640932
v -0.132613 -0.445534 0.640932
v -0.132613 -0.438948 0.494091
v -0.132613 -0.438948 0.494091
v -0.194002 -0.002199 0.660672
v -0.194002 -0.002199 0.660672
v -0.132613 -0.130989 0.654970
v -0.132613 -0.130810 0.507981
v -0.194002 -0.004831 0.513707
v -0.194002 -0.004831 0.513707
v -0.132613 0.122062 0.666375
v -0.132613 0.125678 0.519431
v -0.132613 0.389942 0.531268
v -0.132613 0.389942 0.531268
v -0.092747 -0.764424 0.340393
v -0.132613 -0.764462 0.340040
v -0.132613 -0.764462 0.340040
v -0.132613 -0.769964 0.193154
v -0.132613 -0.769964 0.193154
v -0.194002 -0.003301 0.305046
v -0.194002 -0.003301 0.305046
v -0.132613 -0.126225 0.309788
v -0.132613 -0.131727 0.162902
v -0.194002 0.000196 0.158098
v -0.194002 0.000196 0.158098
v -0.132613 0.128622 0.300242
v -0.132613 0.123120 0.153356
v -0.132613 0.388000 0.574574
v -0.132613 0.388000 0.574574
v -0.106343 0.383356 0.678110
v -0.106343 0.383356 0.678110
v -0.132613 0.357113 0.676931
v -0.132613 0.357113 0.676931
v -0.075829 0.383373 0.678283
v -0.121250 0.499823 0.286337
v -0.121250 0.499823 0.286337
v -0.132613 0.488468 0.286762
v -0.132613 0.488468 0.286762
v -0.132613 0.482966 0.139876
v -0.132613 0.482966 0.139876
v -0.121250 0.494321 0.139451
v -0.121250 0.494321 0.139451
v -0.091160 0.499840 0.286521
v -0.096610 0.494341 0.139636
v -0.098841 -0.769925 0.193537
v -0.081800 0.389961 0.531462
v -0.085232 -0.438923 0.494336
v -0.101733 0.000000 0.000363
v -0.071936 -0.071936 0.000363
v -0.071936 0.071936 0.000363
v -0.101733 -0.000000 -0.077208
v -0.101733 -0.000000 -0.077208
v -0.071936 -0.071936 -0.077208
v -0.071936 -0.071936 -0.077208
v -0.071936 0.071936 -0.077208
v -0.071936 0.071936 -0.077208
vn -0.0000 0.2023 0.9793
vn 0.1412 0.1425 0.9797
vn 0.1419 0.1415 0.9797
vn -0.0000 -0.2023 0.9793
vn 0.1412 -0.1425 0.9797
vn -0.0000 -0.2025 0.9793
vn 0.1987 -0.0000 0.9801
vn 0.1986 -0.0000 0.9801
vn 0.1419 -0.1415 0.9797
vn -0.0003 -0.9882 -0.1533
vn -0.0000 -0.9882 -0.1534
vn 0.0002 -0.9882 -0.1534
vn 0.9990 0.0087 0.0442
vn 0.9990 0.0036 0.0442
vn 0.9988 0.0105 0.0487
vn -0.0004 -0.9880 -0.1545
vn -0.0005 -0.9880 -0.1545
vn -0.0005 -0.9880 -0.1544
vn -0.0009 -0.0001 -1.0000
vn -0.0000 -0.0001 -1.0000
vn 0.9993 0.0036 0.0372
vn 0.9993 0.0039 0.0370
vn 0.9993 0.0026 0.0374
vn 0.9993 0.0099 0.0349
vn 0.9994 0.0050 0.0336
vn 0.9993 0.0039 0.0360
vn 0.9993 0.0030 0.0377
vn 0.9991 0.0064 0.0409
vn 0.9993 0.0051 0.0383
vn -0.0000 -0.6190 -0.7854
vn -0.0006 -0.6191 -0.7853
vn -0.0000 -0.6192 -0.7852
vn 0.9238 -0.3827 -0.0079
vn 0.9239 -0.3827 -0.0079
vn 0.9238 0.3827 -0.0079
vn 0.9239 0.3827 -0.0079
vn -0.0000 0.6190 -0.7854
vn -0.0001 0.6191 -0.7854
vn 0.0002 0.6189 -0.7855
vn -0.0000 0.2029 0.9792
vn -0.0006 0.2029 0.9792
vn -0.0007 0.2029 0.9792
vn 0.9994 0.0010 0.0348
vn 0.9994 0.0078 0.0328
vn 0.0001 1.0000 0.0060
vn -0.0000 1.0000 0.0060
vn 0.3827 0.9238 -0.0079
vn 0.3827 0.9239 -0.0079
vn 0.3827 -0.9238 -0.0079
vn 0.3827 -0.9239 -0.0079
vn 0.0001 1.0000 -0.0054
vn -0.0000 1.0000 -0.0054
vn 0.9992 0.0014 0.0397
vn 0.9991 0.0027 0.0429
vn 0.9992 0.0038 0.0401
vn 0.9993 0.0012 0.0386
vn 0.9992 0.0029 0.0409
vn 0.0001 0.2029 0.9792
vn -0.0009 0.2030 0.9792
vn -0.0000 0.2030 0.9792
vn -0.0003 0.2029 0.9792
vn -0.0000 -0.6976 -0.7165
vn -0.0014 -0.6976 -0.7165
vn -0.0012 -0.6977 -0.7164
vn 0.0011 -0.8327 0.5537
vn -0.0000 -0.8327 0.5537
vn -0.0000 0.8059 0.5920
vn 0.0013 0.8059 0.5921
vn 0.0013 0.8058 0.5921
vn -0.0013 0.6436 -0.7654
vn -0.0000 0.6435 -0.7655
vn -0.0013 0.6437 -0.7653
vn 0.9447 0.0350 0.3259
vn 0.9437 0.0482 0.3273
vn 0.9452 0.0316 0.3250
vn 0.9661 -0.0248 -0.2568
vn 0.9664 -0.0116 -0.2569
vn 0.9651 -0.0289 -0.2605
vn 0.9649 -0.0436 -0.2592
vn 0.9652 -0.0401 -0.2584
vn 0.9657 -0.0386 -0.2569
vn 0.9461 0.0117 0.3236
vn 0.9453 0.0202 0.3256
vn 0.9469 0.0141 0.3212
vn 0.8969 -0.0573 -0.4385
vn 0.9361 0.0194 0.3512
vn 0.9558 -0.0300 -0.2924
vn 0.9549 -0.0307 -0.2953
vn 0.9565 0.0291 0.2904
vn 0.9574 0.0294 0.2874
vn 0.9655 -0.0349 -0.2582
vn 0.9663 -0.0152 -0.2571
vn 0.9450 0.0252 0.3261
vn 0.9438 0.0449 0.3273
vn -0.0000 -0.6895 0.7243
vn 0.0008 -0.6895 0.7243
vn 0.8858 0.0417 0.4622
vn -0.0004 -0.9634 0.2682
vn -0.0004 -0.9634 0.2681
vn -0.0003 -0.8698 -0.4935
vn 0.8858 -0.1210 -0.4479
vn 0.6921 0.1601 0.7038
vn 0.6912 0.1650 0.7036
vn 0.6884 0.1821 0.7021
vn 0.6992 0.1152 0.7056
vn 0.7003 0.1071 0.7058
vn 0.7031 0.0771 0.7069
vn 0.0006 0.2029 0.9792
vn 0.6756 0.7202 0.1578
vn 0.9991 0.0043 0.0410
vn 0.9991 0.0043 0.0414
vn 0.9991 0.0041 0.0417
vn 0.9683 -0.0182 -0.2492
vn 0.9692 0.0026 -0.2464
vn 0.9690 -0.0011 -0.2469
vn 0.9672 -0.0196 0.2532
vn 0.9677 0.0028 0.2519
vn 0.9678 0.0047 0.2518
vn 0.9678 0.0269 0.2504
vn 0.9696 0.0196 -0.2440
vn 0.0003 -0.0002 -1.0000
vn 0.0007 -0.0001 -1.0000
vn -0.0000 -0.6507 -0.7593
vn 0.0008 -0.6507 -0.7593
vn 0.6779 0.2808 0.6795
vn -0.0000 -0.7063 0.7080
vn 0.2808 -0.6779 0.6795
vn 0.2808 0.6779 0.6795
vn -0.0000 0.7063 0.7080
vn 0.6779 -0.2808 0.6795
vn 1.0000 -0.0000 -0.0000
vn -0.0000 -0.0000 -1.0000
vn -0.0000 -0.0000 1.0000
vn -0.0000 -1.0000 -0.0000
vn -0.0000 1.0000 -0.0000
vn 0.9980 -0.0021 0.0635
vn 0.0560 0.5012 -0.8635
vn -0.0560 -0.5012 0.8635
vn 0.0300 -0.8653 -0.5003
vn 0.0301 -0.8653 -0.5003
vn -0.0300 0.8653 0.5003
vn -0.0301 0.8653 0.5003
vn -0.0000 0.1777 -0.9841
vn -0.0000 -0.1777 0.9841
vn -0.0000 -0.9841 -0.1777
vn -0.0000 0.9841 0.1777
vn -0.0000 -0.1471 -0.9891
vn -0.0000 0.1471 0.9891
vn -0.0000 -0.9891 0.1471
vn -0.0000 0.9891 -0.1471
vn -0.0003 0.7051 -0.7091
vn -0.0000 0.7051 -0.7091
vn -0.0000 0.7052 -0.7091
vn -0.0004 -0.0001 -1.0000
vn -0.0003 -0.0002 -1.0000
vn 0.5217 -0.0595 -0.8511
vn 0.9991 0.0042 0.0413
vn 0.9234 -0.3839 -0.0000
vn 0.9234 0.3839 -0.0000
vn 0.3815 -0.9244 -0.0000
vn 0.3815 0.9244 -0.0000
vn 0.9745 0.2244 0.0055
vn 0.9743 0.2252 0.0007
vn 0.9758 -0.2188 -0.0003
vn 0.9735 -0.2285 0.0020
vn 0.9007 -0.4344 0.0035
vn 0.9025 -0.4305 0.0077
vn 0.9007 0.4343 0.0017
vn 0.9734 0.2291 -0.0086
vn 0.9735 -0.2284 0.0086
vn 0.9748 -0.2231 0.0014
vn 0.9007 -0.4344 0.0034
vn 0.9007 0.4344 -0.0034
vn 0.9750 0.2224 -0.0014
vn 0.9065 0.4222 0.0100
vn 0.0017 -0.0450 0.9990
vn 0.0027 -0.0444 0.9990
vn 0.0013 -0.0450 0.9990
vn 0.0023 -0.0452 0.9990
vn -0.0021 0.0446 -0.9990
vn -0.0033 0.0441 -0.9990
vn -0.0016 0.0446 -0.9990
vn -0.0031 0.0453 -0.9990
vn 0.0025 0.0375 0.9993
vn 0.0048 0.0424 0.9991
vn 0.0018 0.0374 0.9993
vn 0.0041 0.0370 0.9993
vn -0.0039 -0.0375 -0.9993
vn -0.0065 -0.0384 -0.9992
vn -0.0030 -0.0375 -0.9993
vn -0.0077 -0.0411 -0.9991
vn 0.6960 0.6874 0.2074
vn 0.7071 0.7066 -0.0265
vn 0.0087 0.0474 0.9988
vn 0.0055 0.0432 0.9990
vn 0.0007 0.9990 0.0450
vn 0.0008 0.9990 0.0450
vn 0.0005 0.9990 0.0448
vn 0.0005 0.9993 -0.0374
vn 0.0004 0.9993 -0.0374
vn 0.0026 -0.0453 0.9990
vn 0.0034 -0.0441 0.9990
vn -0.0007 -0.9990 -0.0448
vn 0.0046 -0.0446 0.9990
vn 0.0030 -0.0442 0.9990
vn -0.0057 -0.0391 -0.9992
vn -0.0075 -0.0449 -0.9990
vn -0.0058 -0.0391 -0.9992
vn -0.0113 -0.0473 -0.9988
vn -0.0114 -0.0473 -0.9988
vn -0.0038 0.0443 -0.9990
vn -0.0038 0.0448 -0.9990
vn -0.0050 0.0450 -0.9990
vn -0.0051 0.0450 -0.9990
vn 0.0047 0.0369 0.9993
vn 0.0048 0.0388 0.9992
vn -0.0007 -0.9993 0.0374
vn -0.0006 -0.9993 0.0374
vn 0.9994 -0.0020 0.0349
vn 0.9991 0.0043 0.0412
vn 0.9993 0.0046 0.0370
vn 0.9992 0.0044 0.0406
vn 0.9992 0.0046 0.0397
vn 0.9991 0.0033 0.0417
vn 0.9991 0.0040 0.0413
vn 0.9993 0.0035 0.0368
vn 0.9992 0.0042 0.0393
vn -0.0001 1.0000 0.0060
vn 0.0002 1.0000 0.0060
vn -0.0008 0.2032 0.9791
vn 0.0012 0.2029 0.9792
vn 0.0009 -0.0001 -1.0000
vn 0.9991 0.0042 0.0414
vn 0.0056 -0.0392 0.9992
vn 0.0037 -0.0434 0.9991
vn -0.0074 -0.0381 -0.9992
vn 0.0061 0.0435 0.9990
vn 0.0048 0.0385 0.9992
vn 0.9664 -0.0123 -0.2569
vn -0.0007 -0.0001 -1.0000
vn 0.9990 0.0002 0.0454
vn 0.9437 0.0475 0.3274
vn 0.9239 0.3827 -0.0000
vn 0.3827 -0.9239 -0.0000
vn 0.3827 0.9239 -0.0000
vn 0.9239 -0.3827 -0.0000
vn -0.1412 0.1425 0.9797
vn -0.1419 0.1415 0.9797
vn -0.1412 -0.1425 0.9797
vn -0.1419 -0.1415 0.9797
vn -0.1987 -0.0000 0.9801
vn -0.1986 -0.0000 0.9801
vn 0.0003 -0.9882 -0.1533
vn -0.0002 -0.9882 -0.1534
vn -0.9990 0.0087 0.0442
vn -0.9990 0.0036 0.0442
vn -0.9991 0.0033 0.0417
vn 0.0005 -0.9880 -0.1545
vn 0.0004 -0.9880 -0.1545
vn 0.0005 -0.9880 -0.1544
vn -0.9993 0.0036 0.0372
vn -0.9993 0.0039 0.0370
vn -0.9993 0.0041 0.0368
vn -0.9994 0.0050 0.0336
vn -0.9993 0.0099 0.0349
vn -0.9993 0.0039 0.0360
vn -0.9993 0.0030 0.0377
vn -0.9993 0.0026 0.0374
vn -0.9991 0.0064 0.0409
vn -0.9993 0.0051 0.0383
vn 0.0006 -0.6191 -0.7853
vn 0.0002 -0.6189 -0.7855
vn -0.9238 -0.3827 -0.0079
vn -0.9239 -0.3827 -0.0079
vn -0.9239 0.3827 -0.0079
vn -0.9238 0.3827 -0.0079
vn 0.0001 0.6191 -0.7854
vn -0.0002 0.6189 -0.7855
vn 0.0007 0.2029 0.9792
vn -0.9994 0.0010 0.0348
vn -0.9994 0.0078 0.0328
vn -0.3827 0.9239 -0.0079
vn -0.3827 0.9238 -0.0079
vn -0.3827 -0.9238 -0.0079
vn -0.3827 -0.9239 -0.0079
vn -0.0001 1.0000 -0.0054
vn -0.9991 0.0027 0.0429
vn -0.9992 0.0014 0.0397
vn -0.9993 0.0012 0.0386
vn -0.9992 0.0038 0.0401
vn -0.9992 0.0029 0.0409
vn -0.0001 0.2029 0.9792
vn 0.0009 0.2030 0.9792
vn 0.0003 0.2029 0.9792
vn 0.0014 -0.6976 -0.7165
vn 0.0012 -0.6977 -0.7164
vn -0.0011 -0.8327 0.5537
vn -0.0013 0.8059 0.5921
vn -0.0013 0.8058 0.5921
vn 0.0013 0.6436 -0.7654
vn -0.0000 0.6434 -0.7655
vn -0.9447 0.0350 0.3259
vn -0.9437 0.0482 0.3273
vn -0.9437 0.0475 0.3274
vn -0.9661 -0.0248 -0.2568
vn -0.9664 -0.0116 -0.2569
vn -0.9664 -0.0123 -0.2569
vn -0.9649 -0.0436 -0.2592
vn -0.9652 -0.0401 -0.2584
vn -0.9655 -0.0349 -0.2582
vn -0.9461 0.0117 0.3236
vn -0.9453 0.0202 0.3256
vn -0.9450 0.0252 0.3261
vn -0.9651 -0.0289 -0.2605
vn -0.8969 -0.0573 -0.4385
vn -0.8960 -0.0574 -0.4403
vn -0.9361 0.0194 0.3512
vn -0.9452 0.0316 0.3250
vn -0.9558 -0.0300 -0.2924
vn -0.9549 -0.0307 -0.2953
vn -0.9565 0.0291 0.2904
vn -0.9469 0.0141 0.3212
vn -0.9663 -0.0152 -0.2571
vn -0.9438 0.0449 0.3273
vn -0.0008 -0.6895 0.7243
vn -0.8858 0.0417 0.4622
vn 0.0004 -0.9634 0.2682
vn 0.0003 -0.8698 -0.4935
vn -0.8858 -0.1210 -0.4479
vn -0.6921 0.1601 0.7038
vn -0.6884 0.1821 0.7021
vn -0.6912 0.1650 0.7036
vn -0.6992 0.1152 0.7056
vn -0.7031 0.0771 0.7069
vn -0.7003 0.1071 0.7058
vn -0.6756 0.7202 0.1578
vn -0.9991 0.0043 0.0410
vn -0.9991 0.0041 0.0417
vn -0.9991 0.0043 0.0414
vn -0.9683 -0.0182 -0.2492
vn -0.9690 -0.0011 -0.2469
vn -0.9692 0.0026 -0.2464
vn -0.9672 -0.0196 0.2532
vn -0.9678 0.0047 0.2518
vn -0.9677 0.0028 0.2519
vn -0.9678 0.0269 0.2504
vn -0.9696 0.0196 -0.2440
vn -0.0008 -0.6507 -0.7593
vn -0.6779 0.2808 0.6795
vn -0.2808 -0.6779 0.6795
vn -0.2808 0.6779 0.6795
vn -0.6779 -0.2808 0.6795
vn -1.0000 -0.0000 -0.0000
vn -0.9980 -0.0021 0.0635
vn -0.0560 0.5012 -0.8635
vn 0.0560 -0.5012 0.8635
vn -0.0300 -0.8653 -0.5003
vn 0.0300 0.8653 0.5003
vn 0.0003 0.7051 -0.7091
vn 0.0004 -0.0001 -1.0000
vn -0.5217 -0.0595 -0.8511
vn -0.9991 0.0042 0.0413
vn -0.9234 -0.3839 -0.0000
vn -0.9234 0.3839 -0.0000
vn -0.3815 -0.9244 -0.0000
vn -0.3815 0.9244 -0.0000
vn -0.9743 0.2252 0.0007
vn -0.9745 0.2244 0.0055
vn -0.9758 -0.2188 -0.0003
vn -0.9735 -0.2285 0.0020
vn -0.9007 -0.4344 0.0035
vn -0.9007 0.4343 0.0017
vn -0.9047 0.4259 -0.0076
vn -0.9734 0.2291 -0.0086
vn -0.9735 -0.2284 0.0086
vn -0.9748 -0.2231 0.0014
vn -0.9007 -0.4344 0.0034
vn -0.9750 0.2224 -0.0014
vn -0.9007 0.4344 -0.0034
vn -0.9065 0.4222 0.0100
vn -0.0027 -0.0444 0.9990
vn -0.0017 -0.0450 0.9990
vn -0.0013 -0.0450 0.9990
vn -0.0023 -0.0452 0.9990
vn -0.0026 -0.0453 0.9990
vn 0.0033 0.0441 -0.9990
vn 0.0021 0.0446 -0.9990
vn 0.0016 0.0446 -0.9990
vn 0.0031 0.0453 -0.9990
vn 0.0034 0.0451 -0.9990
vn -0.0048 0.0424 0.9991
vn -0.0025 0.0375 0.9993
vn -0.0018 0.0374 0.9993
vn -0.0041 0.0370 0.9993
vn -0.0047 0.0369 0.9993
vn 0.0065 -0.0384 -0.9992
vn 0.0039 -0.0375 -0.9993
vn 0.0030 -0.0375 -0.9993
vn 0.0077 -0.0411 -0.9991
vn 0.0088 -0.0420 -0.9991
vn -0.6960 0.6874 0.2074
vn -0.7071 0.7066 -0.0265
vn -0.0087 0.0474 0.9988
vn -0.0055 0.0432 0.9990
vn -0.0007 0.9990 0.0450
vn -0.0005 0.9990 0.0448
vn -0.0008 0.9990 0.0450
vn -0.0005 0.9993 -0.0374
vn -0.0004 0.9993 -0.0374
vn -0.0003 0.9993 -0.0374
vn -0.0034 -0.0441 0.9990
vn 0.0007 -0.9990 -0.0448
vn -0.0046 -0.0446 0.9990
vn -0.0030 -0.0442 0.9990
vn 0.0057 -0.0391 -0.9992
vn 0.0058 -0.0391 -0.9992
vn 0.0075 -0.0449 -0.9990
vn 0.0113 -0.0473 -0.9988
vn 0.0038 0.0443 -0.9990
vn 0.0038 0.0448 -0.9990
vn 0.0050 0.0450 -0.9990
vn -0.0048 0.0388 0.9992
vn 0.0006 -0.9993 0.0374
vn 0.0007 -0.9993 0.0374
vn -0.9994 -0.0020 0.0349
vn -0.9991 0.0043 0.0412
vn -0.9993 0.0046 0.0370
vn -0.9992 0.0044 0.0406
vn -0.9992 0.0046 0.0397
vn -0.9991 0.0040 0.0413
vn -0.9993 0.0035 0.0368
vn -0.9992 0.0042 0.0393
vn -0.0002 1.0000 0.0060
vn 0.0008 0.2032 0.9791
vn -0.0012 0.2029 0.9792
vn -0.9991 0.0042 0.0414
vn -0.0056 -0.0392 0.9992
vn -0.0037 -0.0434 0.9991
vn 0.0074 -0.0381 -0.9992
vn -0.0061 0.0435 0.9990
vn -0.0048 0.0385 0.9992
vn -0.9990 0.0002 0.0454
vn -0.9239 0.3827 -0.0000
vn -0.3827 -0.9239 -0.0000
vn -0.3827 0.9239 -0.0000
vn -0.9239 -0.3827 -0.0000
vn -0.0000 0.2025 0.9793
vn -0.0000 -0.9882 -0.1532
vn 0.9993 0.0041 0.0368
vn -0.0002 -0.6189 -0.7855
vn -0.0000 0.6192 -0.7853
vn -0.0000 -0.6974 -0.7166
vn -0.0000 0.8060 0.5920
vn 0.8960 -0.0574 -0.4403
vn 0.9360 0.0194 0.3516
vn -0.0003 -0.8697 -0.4935
vn 0.9047 0.4259 -0.0076
vn 0.9065 -0.4222 -0.0100
vn -0.0034 0.0451 -0.9990
vn -0.0088 -0.0420 -0.9991
vn 0.0089 0.0473 0.9988
vn 0.0003 0.9993 -0.0374
vn -0.0008 -0.9990 -0.0448
vn 0.0048 -0.0446 0.9990
vn -0.0005 -0.0002 -1.0000
vn -0.9988 0.0105 0.0487
vn 0.0013 0.6437 -0.7653
vn -0.9657 -0.0386 -0.2569
vn -0.9360 0.0194 0.3516
vn -0.9574 0.0294 0.2874
vn 0.0004 -0.9634 0.2681
vn 0.0003 -0.8697 -0.4935
vn -0.0301 -0.8653 -0.5003
vn 0.0301 0.8653 0.5003
vn -0.9025 -0.4305 0.0077
vn -0.9065 -0.4222 -0.0100
vn -0.0089 0.0473 0.9988
vn 0.0008 -0.9990 -0.0448
vn -0.0048 -0.0446 0.9990
vn 0.0114 -0.0473 -0.9988
vn 0.0051 0.0450 -0.9990
vn 0.0005 -0.0002 -1.0000
vt 0.988708 0.674042
vt 0.945033 0.707381
vt 0.934951 0.697822
vt 0.988708 0.830248
vt 0.945033 0.796908
vt 0.989170 0.816498
vt 0.926922 0.752145
vt 0.912892 0.752145
vt 0.934951 0.806468
vt 0.332820 0.058682
vt 0.538783 0.059670
vt 0.528085 0.109044
vt 0.314621 0.508903
vt 0.461245 0.593926
vt 0.316596 0.568599
vt 0.110456 0.651180
vt 0.045637 0.682164
vt 0.047491 0.641313
vt 0.589632 0.539595
vt 0.635738 0.403437
vt 0.635808 0.539576
vt 0.648449 0.389555
vt 0.670215 0.277581
vt 0.802569 0.408484
vt 0.023159 0.188144
vt 0.194624 0.151643
vt 0.201902 0.216283
vt 0.692814 0.453667
vt 0.112174 0.385678
vt 0.635802 0.616665
vt 0.967087 0.060317
vt 0.623883 0.108605
vt 0.624049 0.058063
vt 0.967087 0.156894
vt 0.966928 0.108605
vt 0.520985 0.731942
vt 0.568140 0.654893
vt 0.570229 0.731942
vt 0.877835 0.775771
vt 0.848778 0.843426
vt 0.841989 0.779536
vt 0.188843 0.016613
vt 0.022830 0.127735
vt 0.737281 0.643390
vt 0.703955 0.608178
vt 0.827421 0.615017
vt 0.967562 0.205180
vt 0.624049 0.159148
vt 0.624547 0.007522
vt 0.967562 0.012031
vt 0.789115 0.292997
vt 0.681057 0.227386
vt 0.805897 0.258585
vt 0.800097 0.470366
vt 0.685534 0.592388
vt 0.707024 0.820817
vt 0.701318 0.756301
vt 0.220490 0.217938
vt 0.235480 0.151004
vt 0.242319 0.215537
vt 0.828306 0.657166
vt 0.862895 0.635445
vt 0.213323 0.153095
vt 0.009170 0.650786
vt 0.297219 0.038024
vt 0.341681 0.017162
vt 0.812483 0.303602
vt 0.693453 0.649659
vt 0.710592 0.643322
vt 0.304753 0.566766
vt 0.303810 0.507353
vt 0.012517 0.186616
vt 0.681281 0.816196
vt 0.683110 0.752457
vt 0.821953 0.409950
vt 0.021041 0.612807
vt 0.296334 0.077167
vt 0.680990 0.941468
vt 0.826500 0.473636
vt 0.813798 0.596318
vt 0.240645 0.715070
vt 0.259307 0.661162
vt 0.278499 0.686953
vt 0.139555 0.657619
vt 0.111833 0.683393
vt 0.134048 0.684048
vt 0.157045 0.693341
vt 0.220569 0.688100
vt 0.209390 0.715096
vt 0.168812 0.666825
vt 0.234718 0.441600
vt 0.290983 0.657786
vt 0.825774 0.632803
vt 0.470215 0.340166
vt 0.470846 0.490021
vt 0.482188 0.342976
vt 0.498649 0.343368
vt 0.497072 0.172227
vt 0.563933 0.540620
vt 0.514113 0.536934
vt 0.529970 0.320283
vt 0.569832 0.096694
vt 0.544034 0.112886
vt 0.955992 0.885537
vt 0.943576 0.915723
vt 0.913346 0.885642
vt 0.913242 0.842996
vt 0.943428 0.855413
vt 0.913451 0.928287
vt 0.336041 0.927204
vt 0.379781 0.883464
vt 0.379781 0.927204
vt 0.336041 0.864383
vt 0.336041 0.883464
vt 0.336041 0.946284
vt 0.379781 0.946284
vt 0.316960 0.883464
vt 0.316960 0.927204
vt 0.398861 0.927204
vt 0.398861 0.883464
vt 0.603489 0.694966
vt 0.647229 0.651226
vt 0.647229 0.694966
vt 0.666309 0.651226
vt 0.584408 0.651226
vt 0.584408 0.694966
vt 0.647229 0.632146
vt 0.603489 0.651226
vt 0.603489 0.632146
vt 0.647229 0.714046
vt 0.432959 0.929203
vt 0.476699 0.885463
vt 0.476699 0.929203
vt 0.495779 0.929203
vt 0.495779 0.885463
vt 0.413879 0.885463
vt 0.413879 0.929203
vt 0.476699 0.866382
vt 0.432959 0.885463
vt 0.432959 0.866382
vt 0.432959 0.948283
vt 0.476699 0.948283
vt 0.529871 0.887463
vt 0.573611 0.931203
vt 0.529871 0.931203
vt 0.592691 0.931203
vt 0.573611 0.887463
vt 0.592691 0.887463
vt 0.510791 0.887463
vt 0.510791 0.931203
vt 0.573611 0.868382
vt 0.529871 0.868382
vt 0.529871 0.950283
vt 0.573611 0.950283
vt 0.613361 0.271231
vt 0.623872 0.252099
vt 0.590758 0.381156
vt 0.655705 0.293201
vt 0.537397 0.122561
vt 0.561582 0.140979
vt 0.203495 0.974039
vt 0.072791 0.919703
vt 0.181069 0.919703
vt 0.126930 0.897196
vt 0.197914 0.879184
vt 0.110086 0.856677
vt 0.221632 0.902962
vt 0.244057 0.957298
vt 0.050366 0.974039
vt 0.032229 0.902962
vt 0.949665 0.255938
vt 0.955403 0.371266
vt 0.882208 0.375385
vt 0.888974 0.493304
vt 0.968381 0.640783
vt 0.900825 0.644526
vt 0.961699 0.487970
vt 0.897733 0.436804
vt 0.946199 0.427291
vt 0.048808 0.749951
vt 0.221413 0.826783
vt 0.046335 0.816474
vt 0.338774 0.758757
vt 0.646796 0.837051
vt 0.337952 0.831008
vt 0.284195 0.768718
vt 0.276027 0.816786
vt 0.222260 0.754332
vt 0.992456 0.425268
vt 0.853173 0.438860
vt 0.285433 0.728306
vt 0.274873 0.854685
vt 0.949949 0.238462
vt 0.901681 0.246386
vt 0.039063 0.816204
vt 0.041536 0.749681
vt 0.649938 0.752790
vt 0.341140 0.738410
vt 0.951174 0.224170
vt 0.027914 0.815705
vt 0.982473 0.368152
vt 0.902143 0.666296
vt 0.969836 0.664971
vt 0.992323 0.639926
vt 0.988847 0.488238
vt 0.039833 0.833542
vt 0.040530 0.821643
vt 0.646526 0.852339
vt 0.857319 0.374725
vt 0.881894 0.245788
vt 0.879194 0.646292
vt 0.221692 0.733925
vt 0.662027 0.837436
vt 0.649223 0.770786
vt 0.667202 0.771285
vt 0.026667 0.008031
vt 0.860267 0.955735
vt 0.844171 0.637440
vt 0.884234 0.839893
vt 0.895446 0.954414
vt 0.591145 0.142827
vt 0.576103 0.067733
vt 0.883198 0.221961
vt 0.961700 0.242604
vt 0.976433 0.241837
vt 0.219213 0.843916
vt 0.043493 0.744386
vt 0.043818 0.729978
vt 0.699666 0.942389
vt 0.010988 0.126015
vt 0.007715 0.007658
vt 0.567795 0.557654
vt 0.521003 0.654865
vt 0.521056 0.556292
vt 0.325639 0.683833
vt 0.453301 0.691537
vt 0.224479 0.015859
vt 0.306931 0.682183
vt 0.955849 0.886566
vt 0.964658 0.929376
vt 0.978503 0.895949
vt 0.908577 0.933838
vt 0.942003 0.853139
vt 0.908577 0.839293
vt 0.908577 0.839293
vt 0.951387 0.830485
vt 0.917960 0.816639
vt 0.942003 0.919992
vt 0.917960 0.956492
vt 0.951387 0.942646
vt 0.978503 0.877182
vt 0.964658 0.843755
vt 0.955849 0.886566
vt 0.945034 0.707381
vt 0.934951 0.697822
vt 0.945034 0.796908
vt 0.934951 0.806468
vt 0.926922 0.752145
vt 0.538783 0.059670
vt 0.332820 0.058682
vt 0.314621 0.508903
vt 0.461245 0.593926
vt 0.514113 0.536934
vt 0.045637 0.682164
vt 0.110456 0.651180
vt 0.047491 0.641313
vt 0.589632 0.539595
vt 0.648449 0.389555
vt 0.194624 0.151643
vt 0.023160 0.188144
vt 0.201902 0.216283
vt 0.802569 0.408484
vt 0.112174 0.385678
vt 0.635802 0.616665
vt 0.588015 0.616667
vt 0.967087 0.060317
vt 0.967087 0.156894
vt 0.568140 0.654893
vt 0.570229 0.731942
vt 0.877835 0.775771
vt 0.841989 0.779536
vt 0.188843 0.016613
vt 0.022830 0.127735
vt 0.737281 0.643390
vt 0.827421 0.615017
vt 0.703955 0.608178
vt 0.624049 0.159148
vt 0.967562 0.205180
vt 0.967562 0.012031
vt 0.624049 0.058063
vt 0.789115 0.292997
vt 0.235480 0.151004
vt 0.220490 0.217938
vt 0.242319 0.215537
vt 0.828306 0.657166
vt 0.009170 0.650786
vt 0.297219 0.038024
vt 0.303429 0.008924
vt 0.812483 0.303602
vt 0.693453 0.649659
vt 0.682828 0.614619
vt 0.304754 0.566766
vt 0.316596 0.568599
vt 0.012517 0.186616
vt 0.010988 0.126015
vt 0.821953 0.409950
vt 0.826500 0.473636
vt 0.021041 0.612807
vt 0.296334 0.077167
vt 0.710592 0.643322
vt 0.813798 0.596318
vt 0.832594 0.597401
vt 0.240645 0.715070
vt 0.259307 0.661162
vt 0.220569 0.688100
vt 0.139555 0.657619
vt 0.111833 0.683393
vt 0.168812 0.666825
vt 0.134048 0.684048
vt 0.234718 0.441600
vt 0.290983 0.657786
vt 0.825773 0.632803
vt 0.470846 0.490021
vt 0.470215 0.340166
vt 0.497072 0.172227
vt 0.529970 0.320283
vt 0.569832 0.096694
vt 0.913346 0.885642
vt 0.943428 0.855413
vt 0.913451 0.928287
vt 0.336041 0.927204
vt 0.336041 0.864383
vt 0.379781 0.864383
vt 0.336041 0.946284
vt 0.316960 0.883464
vt 0.316960 0.927204
vt 0.398861 0.927204
vt 0.398861 0.883464
vt 0.603488 0.694966
vt 0.647229 0.651226
vt 0.603488 0.651226
vt 0.647229 0.694966
vt 0.666309 0.694966
vt 0.584408 0.651226
vt 0.584408 0.694966
vt 0.603488 0.632146
vt 0.647229 0.632146
vt 0.647229 0.714046
vt 0.603488 0.714046
vt 0.432959 0.929203
vt 0.432959 0.885463
vt 0.495780 0.929203
vt 0.495780 0.885463
vt 0.413879 0.885463
vt 0.413879 0.929203
vt 0.432959 0.866382
vt 0.432959 0.948283
vt 0.592691 0.931203
vt 0.592691 0.887463
vt 0.510791 0.887463
vt 0.510791 0.931203
vt 0.623872 0.252099
vt 0.590758 0.381156
vt 0.561582 0.140979
vt 0.203495 0.974039
vt 0.181069 0.919703
vt 0.072791 0.919703
vt 0.110086 0.856677
vt 0.032229 0.902962
vt 0.050366 0.974039
vt 0.949665 0.255938
vt 0.888974 0.493304
vt 0.968381 0.640783
vt 0.946199 0.427291
vt 0.221413 0.826783
vt 0.048808 0.749951
vt 0.046335 0.816474
vt 0.338774 0.758757
vt 0.337952 0.831008
vt 0.284195 0.768718
vt 0.276027 0.816786
vt 0.992456 0.425268
vt 0.864666 0.496844
vt 0.285433 0.728306
vt 0.221692 0.733925
vt 0.274873 0.854685
vt 0.338667 0.848341
vt 0.901681 0.246386
vt 0.041536 0.749681
vt 0.341140 0.738410
vt 0.027914 0.815705
vt 0.027921 0.749091
vt 0.992323 0.639926
vt 0.039833 0.833542
vt 0.040530 0.821643
vt 0.857124 0.245760
vt 0.649223 0.770786
vt 0.026667 0.008031
vt 0.860267 0.955735
vt 0.844171 0.637440
vt 0.884234 0.839893
vt 0.895446 0.954414
vt 0.591145 0.142827
vt 0.961700 0.242604
vt 0.976433 0.241837
vt 0.219213 0.843916
vt 0.043493 0.744386
vt 0.043818 0.729978
vt 0.007715 0.007658
vt 0.567795 0.557654
vt 0.521056 0.556292
vt 0.453301 0.691537
vt 0.224479 0.015859
vt 0.306931 0.682183
vt 0.951387 0.830485
vt 0.917960 0.816639
vt 0.917960 0.956492
vt 0.951387 0.942646
vt 0.955849 0.886566
vt 0.989170 0.687792
vt 0.588998 0.402124
vt 0.588015 0.616667
vt 0.624547 0.209688
vt 0.007840 0.680417
vt 0.830258 0.272422
vt 0.682828 0.614619
vt 0.832594 0.597401
vt 0.603488 0.714046
vt 0.143775 0.856677
vt 0.055946 0.879184
vt 0.009804 0.957298
vt 0.338667 0.848341
vt 0.027921 0.749091
vt 0.908577 0.933838
vt 0.989170 0.687792
vt 0.989170 0.816498
vt 0.588998 0.402124
vt 0.007840 0.680417
vt 0.209390 0.715096
vt 0.336041 0.883464
vt 0.143775 0.856677
vt 0.055946 0.879184
vt 0.244057 0.957298
vt 0.009804 0.957298
vt 0.039062 0.816204
s 1
usemtl None.012
f 546/1/1 346/2/2 357/3/3
f 359/4/4 352/5/5 354/6/6
f 357/3/3 348/7/7 361/8/8
f 548/9/9 348/7/7 352/5/5
f 392/10/10 473/11/11 471/12/12
f 41/13/13 370/14/14 408/15/15
f 441/16/16 388/17/17 386/18/18
f 365/19/19 176/20/20 375/21/20
f 366/22/21 535/23/22 34/24/23
f 40/25/24 67/26/25 63/27/26
f 34/24/23 364/28/27 366/22/21
f 387/18/28 448/29/29 442/16/28
f 372/30/30 13/19/31 25/21/32
f 353/31/33 474/32/34 477/33/34
f 347/34/35 476/32/36 6/35/35
f 376/36/37 371/37/38 369/38/39
f 20/39/40 362/40/41 363/41/42
f 454/42/43 67/26/25 44/43/44
f 69/44/45 47/45/46 19/46/46
f 351/47/47 379/48/48 7/34/47
f 10/31/49 380/49/50 355/50/49
f 399/51/51 118/52/52 401/53/52
f 38/54/53 174/55/54 364/28/27
f 16/41/55 414/56/56 35/57/57
f 64/58/58 23/59/40 22/60/40
f 71/61/59 463/62/60 20/39/40
f 23/59/40 455/63/40 453/42/61
f 389/17/62 382/64/63 385/18/64
f 383/65/65 394/66/66 391/10/65
f 46/53/67 395/67/68 398/51/69
f 396/68/70 406/45/71 403/69/72
f 407/13/73 409/70/74 410/71/75
f 42/72/76 411/43/77 412/25/78
f 413/57/79 415/73/80 416/74/81
f 36/75/82 417/54/83 418/24/84
f 412/25/78 384/76/85 42/72/76
f 30/77/86 407/13/73 410/71/75
f 413/57/79 397/68/87 404/69/88
f 33/67/89 418/24/84 400/51/90
f 37/56/91 420/78/92 415/73/80
f 39/79/93 177/80/94 417/54/83
f 422/81/95 426/82/96 428/83/95
f 443/16/97 60/29/97 445/84/97
f 436/85/98 446/84/98 439/86/99
f 429/87/16 425/88/16 423/89/16
f 444/84/100 430/87/100 438/86/100
f 61/84/101 447/29/101 434/90/101
f 451/27/102 452/58/103 449/91/104
f 66/63/105 456/26/106 68/42/107
f 451/27/102 66/63/105 452/58/103
f 450/91/108 22/60/40 54/92/40
f 459/44/109 461/93/109 457/61/109
f 35/57/57 458/61/110 16/41/55
f 41/13/13 466/94/111 464/95/112
f 72/95/113 73/94/114 76/96/115
f 465/95/116 470/96/117 469/97/118
f 469/97/118 470/96/117 468/98/119
f 76/96/115 73/94/114 467/98/120
f 26/99/20 11/100/121 540/101/122
f 79/11/123 543/102/124 542/103/124
f 475/104/125 378/105/125 482/106/125
f 381/107/126 478/108/127 481/106/126
f 18/105/128 609/109/129 480/106/129
f 81/108/130 80/104/130 484/106/130
f 493/110/131 489/111/131 491/112/131
f 87/113/132 490/111/132 496/114/132
f 487/115/133 492/112/133 84/116/133
f 488/117/134 90/110/134 85/118/134
f 486/119/135 88/111/135 485/120/135
f 503/121/136 507/122/136 501/123/136
f 95/124/137 502/123/137 508/122/137
f 499/125/138 504/121/138 92/126/138
f 500/127/139 98/128/140 93/129/140
f 497/130/141 97/121/141 96/123/142
f 515/131/131 519/132/131 513/133/131
f 102/134/143 520/132/143 103/135/143
f 511/136/144 516/131/144 100/137/144
f 512/138/145 106/139/145 101/140/145
f 510/141/146 104/133/146 509/142/146
f 529/143/131 525/144/131 527/145/131
f 110/146/147 532/147/147 111/148/147
f 523/149/148 528/145/148 108/150/148
f 524/151/149 114/143/149 109/152/149
f 522/153/150 112/144/150 521/154/150
f 117/23/151 538/155/152 533/156/153
f 24/157/20 116/158/154 14/22/155
f 541/159/156 544/160/156 539/101/156
f 74/98/157 122/101/112 75/97/112
f 344/161/132 2/162/132 342/163/132
f 339/164/158 549/165/158 343/163/158
f 336/162/159 127/166/159 338/164/159
f 345/161/160 126/167/160 358/168/160
f 340/169/161 123/170/161 337/162/161
f 583/171/131 561/172/162 562/173/163
f 558/174/164 552/175/131 553/176/131
f 557/177/165 559/178/166 555/179/167
f 556/179/168 562/173/163 561/172/162
f 588/180/131 577/181/169 589/182/131
f 572/183/170 568/184/131 573/185/171
f 573/185/171 570/186/172 572/183/170
f 575/187/173 576/188/174 571/186/175
f 164/189/176 132/177/177 133/179/178
f 131/172/179 164/189/176 133/179/178
f 163/190/180 135/173/181 136/178/182
f 134/174/183 163/190/180 136/178/182
f 156/191/184 140/183/185 141/186/186
f 139/188/187 156/191/184 141/186/186
f 169/192/188 143/181/189 144/187/190
f 142/185/191 169/192/188 144/187/190
f 580/193/192 582/171/192 578/194/192
f 587/180/193 591/195/193 585/196/193
f 565/197/194 140/183/185 159/198/195
f 584/199/196 581/193/197 147/194/198
f 594/200/199 586/196/200 592/195/199
f 158/201/201 131/172/179 146/171/202
f 597/202/203 551/175/203 550/203/203
f 167/204/204 132/177/177 166/205/205
f 153/206/206 150/207/207 151/182/208
f 595/208/209 142/185/191 569/184/210
f 162/209/211 563/210/212 135/173/181
f 171/211/213 134/174/183 129/176/214
f 161/212/215 139/188/187 148/180/216
f 154/213/217 137/214/218 160/215/218
f 44/43/44 419/216/219 454/42/43
f 466/94/111 28/10/220 74/98/157
f 28/10/220 77/12/220 74/98/157
f 448/29/29 63/27/26 65/91/221
f 63/27/26 448/29/29 40/25/24
f 52/82/222 53/88/222 59/90/223
f 464/95/112 75/97/112 368/100/224
f 368/100/224 41/13/13 464/95/112
f 35/57/57 460/44/225 458/61/110
f 34/24/23 535/23/22 32/51/226
f 414/56/56 15/40/227 454/217/43
f 19/46/46 462/93/228 69/44/45
f 69/44/45 31/69/229 47/45/46
f 20/39/40 363/41/42 71/61/59
f 71/61/59 70/218/230 463/62/60
f 453/217/61 362/40/41 21/219/40
f 21/219/40 173/220/60 453/217/61
f 54/92/40 427/82/231 450/91/108
f 450/91/108 64/58/58 22/60/40
f 121/160/232 78/221/20 540/101/122
f 78/221/20 26/99/20 540/101/122
f 542/103/124 472/12/124 79/11/123
f 79/11/123 545/222/123 543/102/124
f 74/98/157 77/12/220 120/159/233
f 120/159/233 122/101/112 74/98/157
f 122/101/112 368/100/224 75/97/112
f 341/169/132 2/162/132 344/161/132
f 2/162/132 1/164/132 342/163/132
f 562/173/163 564/210/131 579/194/131
f 579/194/131 583/171/131 562/173/163
f 130/210/198 168/223/198 147/194/198
f 168/223/198 584/199/196 147/194/198
f 145/224/234 165/225/235 146/171/202
f 165/225/235 158/201/201 146/171/202
f 143/181/189 152/226/236 151/182/208
f 152/226/236 153/206/206 151/182/208
f 149/227/237 170/228/238 148/180/216
f 170/228/238 161/212/215 148/180/216
f 448/29/29 65/91/221 59/90/223
f 65/91/221 52/82/222 59/90/223
f 454/217/43 419/229/219 414/56/56
f 175/216/92 45/230/239 420/231/92
f 374/232/240 27/233/20 176/234/20
f 421/235/241 370/14/14 174/236/54
f 453/42/61 173/237/60 23/59/40
f 172/238/94 43/15/242 177/235/94
f 602/239/243 182/240/243 178/241/243
f 186/242/132 604/243/132 605/244/132
f 185/245/134 179/246/244 180/247/134
f 607/248/245 181/249/135 600/250/245
f 603/243/246 598/251/246 599/252/246
f 183/253/132 604/243/132 187/248/132
f 187/248/132 604/243/132 186/242/132
f 617/254/247 546/1/1 624/255/248
f 359/4/4 621/256/249 776/257/250
f 619/258/251 624/255/248 626/8/252
f 776/257/250 619/258/251 626/8/252
f 473/259/11 648/260/253 710/12/254
f 214/261/255 635/262/256 633/263/257
f 49/264/258 681/265/259 645/266/260
f 176/20/20 630/267/232 375/21/20
f 631/268/261 767/23/262 768/158/263
f 229/269/264 213/270/265 225/271/266
f 629/28/267 207/272/268 631/268/261
f 646/266/269 688/273/270 213/270/265
f 372/274/30 196/267/271 632/275/272
f 622/276/273 712/32/274 620/35/273
f 714/32/275 618/277/276 191/35/276
f 636/278/277 376/36/37 634/279/278
f 627/40/108 20/280/40 628/281/279
f 694/282/280 217/283/281 229/269/264
f 231/284/228 19/285/46 47/286/46
f 640/287/282 8/288/283 192/277/283
f 9/289/284 717/290/285 193/276/284
f 654/291/286 118/52/52 766/23/52
f 327/55/287 211/54/288 629/28/267
f 666/56/289 199/281/290 208/57/291
f 23/292/40 226/293/292 22/294/40
f 233/295/293 20/280/40 463/62/60
f 23/292/40 693/282/294 695/63/40
f 641/296/295 389/264/62 644/266/296
f 642/297/297 394/66/66 51/298/66
f 650/299/298 46/53/67 653/291/299
f 651/300/300 406/286/71 48/301/301
f 659/261/302 661/302/303 216/303/304
f 215/304/305 663/283/306 218/305/307
f 665/57/308 667/73/309 210/56/310
f 209/306/311 669/54/312 212/307/313
f 664/270/314 643/308/315 202/266/316
f 659/261/302 203/309/317 662/71/318
f 652/300/319 665/57/308 657/310/320
f 206/299/321 670/272/322 209/306/311
f 210/56/310 672/78/323 328/229/323
f 212/307/313 329/311/324 326/312/324
f 422/313/95 676/314/325 674/315/325
f 683/265/326 685/316/326 223/273/326
f 56/317/327 686/316/327 221/265/327
f 431/87/259 675/315/259 678/318/259
f 57/87/328 684/316/328 62/319/328
f 224/316/329 680/318/329 687/273/329
f 691/271/330 689/320/331 692/293/332
f 228/63/333 230/282/334 696/269/335
f 691/271/330 228/63/333 696/269/335
f 690/320/41 54/321/40 22/294/40
f 699/284/336 697/295/336 701/322/336
f 208/57/291 199/281/290 698/295/337
f 214/261/255 703/323/338 705/324/339
f 234/323/340 238/96/341 235/324/342
f 704/323/343 708/97/344 709/96/345
f 708/97/344 707/325/346 709/96/345
f 238/96/341 706/325/347 235/324/342
f 26/99/20 771/326/240 194/263/155
f 79/259/123 773/103/348 774/327/348
f 713/104/349 483/328/349 639/105/349
f 381/107/126 481/328/126 716/329/350
f 200/105/351 480/328/129 609/330/129
f 241/329/352 83/328/352 240/104/352
f 722/111/353 726/331/353 724/112/353
f 245/332/132 723/111/132 244/333/132
f 725/112/133 720/334/133 242/116/133
f 248/331/134 721/335/134 243/336/134
f 246/111/135 719/337/135 718/338/135
f 736/339/354 740/340/354 738/341/354
f 253/124/355 735/342/355 252/343/355
f 737/339/356 732/344/356 250/345/356
f 251/346/357 257/340/357 733/347/357
f 730/348/358 255/339/358 731/349/358
f 748/350/353 752/132/353 750/351/353
f 753/132/143 260/352/143 261/353/143
f 749/350/144 744/354/144 258/355/144
f 264/351/145 745/138/145 259/356/145
f 262/133/146 743/357/146 742/142/146
f 758/144/353 762/143/353 760/145/353
f 765/147/147 268/358/147 269/359/147
f 761/145/148 756/360/148 266/361/148
f 272/143/149 757/151/149 267/152/149
f 270/144/150 755/153/150 754/154/150
f 538/155/152 275/23/359 533/362/153
f 24/363/20 274/158/360 119/155/20
f 772/159/361 770/326/361 775/364/361
f 236/325/362 237/97/338 278/326/338
f 344/365/132 615/366/132 189/367/132
f 777/165/363 614/164/363 616/366/363
f 281/368/364 611/367/364 613/164/364
f 4/365/365 280/167/365 190/366/365
f 279/369/366 3/370/366 612/367/366
f 811/371/353 790/173/367 789/172/368
f 786/372/369 780/373/353 785/177/370
f 785/177/370 787/178/371 786/372/369
f 784/374/372 790/173/367 788/178/373
f 805/375/374 816/376/353 817/377/353
f 796/184/353 800/378/375 801/379/376
f 798/380/377 801/379/376 800/378/375
f 804/188/378 803/381/379 799/380/380
f 286/177/381 318/382/382 287/374/383
f 285/172/384 318/382/382 312/201/385
f 289/173/386 317/190/387 290/178/388
f 288/372/389 317/190/387 309/383/390
f 294/378/391 310/384/392 295/380/393
f 293/188/394 310/384/392 315/385/395
f 297/375/396 323/386/397 298/381/398
f 296/379/399 323/386/397 311/387/400
f 808/193/401 806/388/401 810/371/401
f 813/389/402 818/377/402 815/376/402
f 294/378/391 793/197/403 313/390/404
f 812/199/405 301/388/406 809/193/407
f 822/391/408 814/389/409 821/392/410
f 312/201/385 300/371/411 285/172/384
f 779/373/412 825/202/412 778/203/412
f 286/177/381 321/393/413 320/205/414
f 307/394/415 305/377/416 304/395/417
f 823/208/418 296/379/399 311/387/400
f 316/209/419 791/210/420 824/396/420
f 325/211/421 288/372/389 309/383/390
f 315/385/395 302/376/422 293/188/394
f 291/397/423 308/213/424 314/215/423
f 217/283/281 694/282/280 671/398/425
f 201/260/426 705/324/339 236/325/362
f 201/260/426 236/325/362 239/12/426
f 688/273/270 227/320/427 225/271/266
f 225/271/266 213/270/265 688/273/270
f 219/314/428 222/318/429 220/315/428
f 703/323/338 633/263/257 237/97/338
f 633/263/257 703/323/338 214/261/255
f 700/284/430 208/57/291 698/295/337
f 207/272/268 205/291/431 767/23/262
f 666/56/289 694/399/280 198/40/432
f 19/285/46 231/284/228 702/322/45
f 231/284/228 47/286/46 204/310/433
f 20/280/40 233/295/293 628/281/279
f 233/295/293 463/62/60 232/400/434
f 693/399/294 21/401/40 627/40/108
f 21/401/40 693/399/294 173/402/60
f 54/321/40 690/320/41 677/314/435
f 690/320/41 22/294/40 226/293/292
f 277/364/19 771/326/240 78/403/20
f 78/403/20 771/326/240 26/99/20
f 773/103/348 79/259/123 711/12/348
f 79/259/123 774/327/348 545/222/123
f 236/325/362 276/159/436 239/12/426
f 276/159/436 236/325/362 278/326/338
f 278/326/338 237/97/338 633/263/257
f 341/370/132 344/365/132 189/367/132
f 189/367/132 615/366/132 188/164/132
f 790/173/367 807/388/353 792/210/353
f 807/388/353 790/173/367 811/371/353
f 284/210/406 301/388/406 322/223/406
f 322/223/406 301/388/406 812/199/405
f 299/404/437 300/371/411 319/405/438
f 319/405/438 300/371/411 312/201/385
f 297/375/396 305/377/416 306/406/439
f 306/406/439 305/377/416 307/394/415
f 303/407/440 302/376/422 324/408/441
f 324/408/441 302/376/422 315/385/395
f 688/273/270 222/318/429 227/320/427
f 227/320/427 222/318/429 219/314/428
f 694/399/280 666/56/289 671/229/425
f 218/305/307 328/398/323 672/409/323
f 27/233/20 637/410/122 176/411/20
f 635/262/256 673/235/442 327/412/287
f 693/282/294 23/292/40 173/413/60
f 216/303/304 326/414/324 329/235/324
f 332/240/443 830/253/443 330/241/443
f 186/242/132 605/244/132 832/243/132
f 331/415/444 185/244/134 180/416/134
f 181/417/135 833/248/445 828/418/445
f 826/251/446 831/243/446 827/252/446
f 333/419/132 335/248/132 832/243/132
f 335/248/132 186/242/132 832/243/132
f 546/1/1 350/420/447 346/2/2
f 359/4/4 548/9/9 352/5/5
f 357/3/3 346/2/2 348/7/7
f 548/9/9 361/8/8 348/7/7
f 392/10/10 50/66/448 473/11/11
f 41/13/13 368/100/224 370/14/14
f 441/16/16 435/85/16 388/17/17
f 365/19/19 374/421/240 176/20/20
f 366/22/21 536/158/449 535/23/22
f 40/25/24 44/43/44 67/26/25
f 34/24/23 38/54/53 364/28/27
f 387/18/28 40/25/24 448/29/29
f 372/30/30 367/422/450 13/19/31
f 353/31/33 349/35/33 474/32/34
f 347/34/35 377/48/36 476/32/36
f 376/36/37 373/233/451 371/37/38
f 20/39/40 21/219/40 362/40/41
f 351/47/47 610/423/48 379/48/48
f 10/31/49 479/33/50 380/49/50
f 399/51/51 534/23/52 118/52/52
f 38/54/53 421/80/241 174/55/54
f 16/41/55 15/40/227 414/56/56
f 64/58/58 455/63/40 23/59/40
f 389/17/62 390/424/452 382/64/63
f 383/65/65 51/298/66 394/66/66
f 46/53/67 402/425/453 395/67/68
f 396/68/70 48/426/301 406/45/71
f 407/13/73 43/15/242 409/70/74
f 42/72/76 45/230/239 411/43/77
f 413/57/79 37/56/91 415/73/80
f 36/75/82 39/79/93 417/54/83
f 412/25/78 29/18/454 384/76/85
f 30/77/86 393/10/455 407/13/73
f 413/57/79 416/74/81 397/68/87
f 33/67/89 36/75/82 418/24/84
f 37/56/91 175/229/92 420/78/92
f 39/79/93 172/427/94 177/80/94
f 422/81/95 424/88/96 426/82/96
f 436/85/98 58/16/98 446/84/98
f 429/87/16 432/90/16 425/88/16
f 444/84/100 433/90/456 430/87/100
f 451/27/102 456/26/106 66/63/105
f 493/110/131 495/114/131 489/111/131
f 87/113/132 86/333/132 490/111/132
f 487/115/133 494/110/133 492/112/133
f 488/117/134 91/114/134 90/110/134
f 486/119/135 89/112/135 88/111/135
f 503/121/136 505/128/136 507/122/136
f 95/124/137 94/343/137 502/123/137
f 499/125/138 506/128/138 504/121/138
f 500/127/139 99/122/139 98/128/140
f 497/130/141 498/428/141 97/121/141
f 515/131/131 517/139/131 519/132/131
f 102/134/143 514/133/143 520/132/143
f 511/136/144 518/139/144 516/131/144
f 512/138/145 107/132/145 106/139/145
f 510/141/146 105/131/146 104/133/146
f 529/143/131 531/147/131 525/144/131
f 110/146/147 526/144/147 532/147/147
f 523/149/148 530/143/148 528/145/148
f 524/151/149 115/147/149 114/143/149
f 522/153/150 113/145/150 112/144/150
f 117/23/151 537/158/151 538/155/152
f 24/157/20 119/155/20 116/158/154
f 339/164/158 360/429/158 549/165/158
f 336/162/159 356/430/159 127/166/159
f 345/161/160 5/163/160 126/167/160
f 340/169/161 547/431/161 123/170/161
f 558/174/164 557/177/165 552/175/131
f 557/177/165 558/174/164 559/178/166
f 556/179/168 560/178/457 562/173/163
f 588/180/131 576/188/174 577/181/169
f 572/183/170 567/214/131 568/184/131
f 573/185/171 574/187/458 570/186/172
f 575/187/173 577/181/169 576/188/174
f 164/189/176 166/205/205 132/177/177
f 131/172/179 158/201/201 164/189/176
f 163/190/180 162/209/211 135/173/181
f 134/174/183 155/383/459 163/190/180
f 156/191/184 159/198/195 140/183/185
f 139/188/187 161/212/215 156/191/184
f 169/192/188 152/226/236 143/181/189
f 142/185/191 157/432/460 169/192/188
f 587/180/193 590/182/193 591/195/193
f 565/197/194 566/214/461 140/183/185
f 594/200/199 593/433/462 586/196/200
f 597/202/203 554/176/463 551/175/203
f 167/204/204 128/175/464 132/177/177
f 595/208/209 157/432/460 142/185/191
f 162/209/211 596/396/212 563/210/212
f 171/211/213 155/383/459 134/174/183
f 154/213/217 138/184/217 137/214/218
f 466/94/111 41/13/13 28/10/220
f 35/57/57 405/69/225 460/44/225
f 175/216/92 411/43/77 45/230/239
f 374/232/240 12/37/465 27/233/20
f 421/235/241 408/15/15 370/14/14
f 172/238/94 409/70/74 43/15/242
f 602/239/243 608/248/243 182/240/243
f 185/245/134 184/243/244 179/246/244
f 607/248/245 606/434/135 181/249/135
f 603/243/246 601/239/246 598/251/246
f 617/254/247 350/435/447 546/1/1
f 359/4/4 354/436/6 621/256/249
f 619/258/251 617/254/247 624/255/248
f 776/257/250 621/256/249 619/258/251
f 473/259/11 50/66/448 648/260/253
f 214/261/255 660/303/466 635/262/256
f 49/264/258 437/317/259 681/265/259
f 176/20/20 637/437/122 630/267/232
f 631/268/261 207/272/268 767/23/262
f 229/269/264 217/283/281 213/270/265
f 629/28/267 211/54/288 207/272/268
f 646/266/269 682/265/269 688/273/270
f 372/274/30 25/21/32 196/267/271
f 622/276/273 715/290/274 712/32/274
f 714/32/275 638/287/275 618/277/276
f 636/278/277 373/233/451 376/36/37
f 627/40/108 21/401/40 20/280/40
f 640/287/282 82/423/282 8/288/283
f 9/289/284 17/49/285 717/290/285
f 654/291/286 401/53/52 118/52/52
f 327/55/287 673/311/442 211/54/288
f 666/56/289 198/40/432 199/281/290
f 23/292/40 695/63/40 226/293/292
f 641/296/295 390/438/452 389/264/62
f 642/297/297 647/260/297 394/66/66
f 650/299/298 402/425/453 46/53/67
f 651/300/300 656/310/467 406/286/71
f 659/261/302 662/71/318 661/302/303
f 215/304/305 664/270/314 663/283/306
f 665/57/308 668/74/468 667/73/309
f 209/306/311 670/272/322 669/54/312
f 664/270/314 215/304/305 643/308/315
f 659/261/302 649/260/469 203/309/317
f 652/300/319 668/74/468 665/57/308
f 206/299/321 655/291/470 670/272/322
f 210/56/310 667/73/309 672/78/323
f 212/307/313 669/54/312 329/311/324
f 422/313/95 428/83/95 676/314/325
f 56/317/327 440/319/471 686/316/327
f 431/87/259 55/439/259 675/315/259
f 57/87/328 679/318/472 684/316/328
f 691/271/330 692/293/332 228/63/333
f 722/111/353 728/440/353 726/331/353
f 245/332/132 729/440/132 723/111/132
f 725/112/133 727/331/133 720/334/133
f 248/331/134 249/440/134 721/335/134
f 246/111/135 247/112/135 719/337/135
f 736/339/354 734/342/354 740/340/354
f 253/124/355 741/340/355 735/342/355
f 737/339/356 739/341/356 732/344/356
f 251/346/357 256/341/473 257/340/357
f 730/348/358 254/342/474 255/339/358
f 748/350/353 746/133/353 752/132/353
f 753/132/143 747/133/143 260/352/143
f 749/350/144 751/351/144 744/354/144
f 264/351/145 265/132/145 745/138/145
f 262/133/146 263/350/146 743/357/146
f 758/144/353 764/147/353 762/143/353
f 765/147/147 759/144/147 268/358/147
f 761/145/148 763/143/148 756/360/148
f 272/143/149 273/147/149 757/151/149
f 270/144/150 271/145/150 755/153/150
f 538/155/152 769/158/359 275/23/359
f 24/363/20 197/268/121 274/158/360
f 777/165/363 625/441/363 614/164/363
f 281/368/364 623/442/364 611/367/364
f 4/365/365 125/443/365 280/167/365
f 279/369/366 124/444/366 3/370/366
f 786/372/369 781/176/353 780/373/353
f 785/177/370 783/374/475 787/178/371
f 784/374/372 789/172/368 790/173/367
f 805/375/374 804/188/378 816/376/353
f 796/184/353 795/397/353 800/378/375
f 798/380/377 802/381/476 801/379/376
f 804/188/378 805/375/374 803/381/379
f 286/177/381 320/205/414 318/382/382
f 285/172/384 287/374/383 318/382/382
f 289/173/386 316/209/419 317/190/387
f 288/372/389 290/178/388 317/190/387
f 294/378/391 313/390/404 310/384/392
f 293/188/394 295/380/393 310/384/392
f 297/375/396 306/406/439 323/386/397
f 296/379/399 298/381/398 323/386/397
f 813/389/402 819/445/402 818/377/402
f 294/378/391 794/397/477 793/197/403
f 822/391/408 820/445/408 814/389/409
f 779/373/412 782/176/478 825/202/412
f 286/177/381 282/373/479 321/393/413
f 823/208/418 797/184/480 296/379/399
f 316/209/419 289/173/386 791/210/420
f 325/211/421 283/176/481 288/372/389
f 291/397/423 292/184/424 308/213/424
f 201/260/426 214/261/255 705/324/339
f 700/284/430 658/310/430 208/57/291
f 218/305/307 663/283/306 328/398/323
f 27/233/20 195/278/482 637/410/122
f 635/262/256 660/303/466 673/235/442
f 216/303/304 661/302/303 326/414/324
f 332/240/443 834/248/443 830/253/443
f 331/415/444 334/243/444 185/244/134
f 181/417/135 606/242/135 833/248/445
f 826/251/446 829/253/446 831/243/446
