# Blender 5.0.1
# www.blender.org
mtllib 96.mtl
o 96
v -0.162812 -0.118288 0.100624
v 0.062187 -0.191396 0.100624
v -0.130000 -0.250000 -0.062500
v -0.250000 -0.130000 -0.062500
v -0.250000 -0.130000 0.062500
v -0.130000 -0.250000 0.062500
v -0.250000 0.130000 -0.062500
v -0.130000 0.250000 -0.062500
v -0.130000 0.250000 0.062500
v -0.250000 0.130000 0.062500
v 0.250000 -0.130000 -0.062500
v 0.130000 -0.250000 -0.062500
v 0.130000 -0.250000 0.062500
v 0.250000 -0.130000 0.062500
v 0.130000 0.250000 -0.062500
v 0.250000 0.130000 -0.062500
v 0.250000 0.130000 0.062500
v 0.130000 0.250000 0.062500
v -0.162812 0.118288 0.100624
v 0.062187 0.191396 0.100624
v 0.201246 -0.000000 0.100624
v 0.000000 -0.000000 0.225000
v 0.213988 0.069528 0.000000
v 0.213988 -0.069528 -0.000000
v 0.301237 0.090000 -0.034645
v 0.275355 0.090000 -0.131237
v 0.301237 -0.090000 -0.034645
v 0.275355 -0.090000 -0.131237
v 0.224645 0.090000 -0.008763
v 0.224645 0.090000 -0.108763
v 0.224645 -0.090000 -0.008763
v 0.224645 -0.090000 -0.108763
v 0.000000 -0.225000 -0.000000
v 0.132252 -0.182029 -0.000000
v -0.213988 -0.069528 -0.000000
v -0.132252 -0.182029 -0.000000
v -0.132252 0.182029 0.000000
v -0.213988 0.069528 0.000000
v 0.132252 0.182029 0.000000
v 0.000000 0.225000 0.000000
v 0.154843 -0.112499 0.118291
v -0.059145 -0.182028 0.118291
v -0.191396 -0.000000 0.118291
v -0.059145 0.182028 0.118291
v 0.154843 0.112499 0.118291
v 0.036553 -0.112499 0.191397
v 0.118289 -0.000000 0.191397
v -0.095698 -0.069528 0.191397
v -0.095698 0.069528 0.191397
v 0.036553 0.112499 0.191397
v -0.301237 -0.090000 -0.034645
v -0.275355 -0.090000 -0.131237
v -0.301237 0.090000 -0.034645
v -0.275355 0.090000 -0.131237
v -0.224645 -0.090000 -0.008763
v -0.224645 -0.090000 -0.108763
v -0.224645 0.090000 -0.008763
v -0.224645 0.090000 -0.108763
vn -0.7071 -0.7071 -0.0000
vn -0.7071 0.7071 -0.0000
vn 0.7071 0.7071 -0.0000
vn 0.7071 -0.7071 -0.0000
vn -0.0000 -0.0000 -1.0000
vn -1.0000 -0.0000 -0.0000
vn -0.0000 -1.0000 -0.0000
vn -0.0000 -0.0000 1.0000
vn -0.0000 1.0000 -0.0000
vn 1.0000 -0.0000 -0.0000
vn 0.2764 -0.8506 0.4472
vn 0.6882 -0.5000 0.5257
vn 0.1625 -0.5000 0.8507
vn -0.7236 -0.5257 0.4472
vn -0.2629 -0.8090 0.5257
vn -0.4253 -0.3090 0.8507
vn -0.7236 0.5257 0.4472
vn -0.8506 -0.0000 0.5257
vn -0.4253 0.3090 0.8507
vn 0.2764 0.8506 0.4472
vn -0.2629 0.8090 0.5257
vn 0.1625 0.5000 0.8507
vn 0.8944 -0.0000 0.4472
vn 0.6882 0.5000 0.5257
vn 0.5257 -0.0000 0.8507
vn 0.9225 0.3160 0.2217
vn 0.5856 0.7797 0.2217
vn -0.0155 0.9750 0.2217
vn -0.5606 0.7979 0.2217
vn -0.9320 0.2866 0.2217
vn -0.9320 -0.2866 0.2217
vn -0.5606 -0.7979 0.2217
vn -0.0155 -0.9750 0.2217
vn 0.5856 -0.7797 0.2217
vn 0.9225 -0.3160 0.2217
vn 0.3201 -0.0000 0.9474
vn -0.4052 -0.0000 -0.9142
vn 0.9659 -0.0000 -0.2588
vn -0.3201 -0.0000 0.9474
vn 0.4052 -0.0000 -0.9142
vn -0.9659 -0.0000 -0.2588
vt 0.031491 0.603339
vt 0.056491 0.603339
vt 0.056491 0.609339
vt 0.031491 0.609339
vt 0.056491 0.634339
vt 0.031491 0.634339
vt 0.031491 0.622339
vt 0.056491 0.622339
vt 0.056491 0.659339
vt 0.031491 0.659339
vt 0.029491 0.649339
vt 0.058491 0.649339
vt 0.058491 0.682339
vt 0.029491 0.682339
vt 0.031491 0.672339
vt 0.056491 0.672339
vt 0.006491 0.659339
vt 0.012491 0.653339
vt 0.012491 0.678339
vt 0.006491 0.672339
vt 0.056491 0.697339
vt 0.031491 0.697339
vt 0.075491 0.653339
vt 0.081491 0.659339
vt 0.081491 0.672339
vt 0.075491 0.678339
vt 0.066258 0.644295
vt 0.068568 0.658574
vt 0.055585 0.652050
vt 0.039100 0.635471
vt 0.053393 0.637687
vt 0.043177 0.648018
vt 0.022315 0.658573
vt 0.028839 0.645665
vt 0.035508 0.658573
vt 0.039100 0.681676
vt 0.028839 0.671482
vt 0.043177 0.669129
vt 0.066258 0.672851
vt 0.053393 0.679460
vt 0.055585 0.665097
vt 0.046606 0.658574
vt 0.070254 0.691143
vt 0.046620 0.698823
vt 0.022938 0.691128
vt 0.008331 0.671024
vt 0.008331 0.646123
vt 0.022938 0.626019
vt 0.046620 0.618324
vt 0.070253 0.626003
vt 0.084890 0.646149
vt 0.084890 0.670998
vt 0.056491 0.628339
vt 0.031491 0.628339
vt 0.056491 0.653339
vt 0.031491 0.653339
vt 0.056491 0.678339
vt 0.031491 0.678339
vt 0.056491 0.703339
vt 0.031491 0.703339
vt 0.006491 0.653339
vt 0.006491 0.678339
vt 0.081491 0.653339
vt 0.081491 0.678339
s 0
usemtl fl
f 3/1/1 6/2/1 5/3/1 4/4/1
f 9/5/2 8/6/2 7/7/2 10/8/2
f 17/9/3 16/10/3 15/11/3 18/12/3
f 13/13/4 12/14/4 11/15/4 14/16/4
f 7/17/5 8/18/5 15/11/5 16/10/5 11/15/5 12/14/5 3/19/5 4/20/5
f 4/4/6 5/3/6 10/8/6 7/7/6
f 12/14/7 13/13/7 6/21/7 3/22/7
f 17/9/8 18/12/8 9/23/8 10/24/8 5/25/8 6/26/8 13/13/8 14/16/8
f 8/6/9 9/5/9 18/12/9 15/11/9
f 16/10/10 17/9/10 14/16/10 11/15/10
s 1
f 2/27/11 41/28/12 46/29/13
f 1/30/14 42/31/15 48/32/16
f 19/33/17 43/34/18 49/35/19
f 20/36/20 44/37/21 50/38/22
f 21/39/23 45/40/24 47/41/25
f 47/41/25 50/38/22 22/42/8
f 47/41/25 45/40/24 50/38/22
f 45/40/24 20/36/20 50/38/22
f 50/38/22 49/35/19 22/42/8
f 50/38/22 44/37/21 49/35/19
f 44/37/21 19/33/17 49/35/19
f 49/35/19 48/32/16 22/42/8
f 49/35/19 43/34/18 48/32/16
f 43/34/18 1/30/14 48/32/16
f 48/32/16 46/29/13 22/42/8
f 48/32/16 42/31/15 46/29/13
f 42/31/15 2/27/11 46/29/13
f 46/29/13 47/41/25 22/42/8
f 46/29/13 41/28/12 47/41/25
f 41/28/12 21/39/23 47/41/25
f 23/43/26 45/40/24 21/39/23
f 23/43/26 39/44/27 45/40/24
f 39/44/27 20/36/20 45/40/24
f 40/45/28 44/37/21 20/36/20
f 40/45/28 37/46/29 44/37/21
f 37/46/29 19/33/17 44/37/21
f 38/47/30 43/34/18 19/33/17
f 38/47/30 35/48/31 43/34/18
f 35/48/31 1/30/14 43/34/18
f 36/49/32 42/31/15 1/30/14
f 36/49/32 33/50/33 42/31/15
f 33/50/33 2/27/11 42/31/15
f 34/51/34 41/28/12 2/27/11
f 34/51/34 24/52/35 41/28/12
f 24/52/35 21/39/23 41/28/12
f 39/44/27 40/45/28 20/36/20
f 37/46/29 38/47/30 19/33/17
f 35/48/31 36/49/32 1/30/14
f 33/50/33 34/51/34 2/27/11
s 0
f 25/1/36 29/2/36 31/53/36 27/54/36
f 30/54/37 26/53/37 28/55/37 32/56/37
f 28/56/7 27/55/7 31/57/7 32/58/7
f 26/58/38 25/57/38 27/59/38 28/60/38
s 1
f 24/52/35 23/43/26 21/39/23
s 0
f 30/61/9 29/56/9 25/58/9 26/62/9
f 32/55/6 31/63/6 29/64/6 30/57/6
f 51/1/39 55/2/39 57/53/39 53/54/39
f 56/54/40 52/53/40 54/55/40 58/56/40
f 54/56/9 53/55/9 57/57/9 58/58/9
f 52/58/41 51/57/41 53/59/41 54/60/41
f 56/61/7 55/56/7 51/58/7 52/62/7
f 58/55/10 57/63/10 55/64/10 56/57/10
