# Blender 5.0.1
# www.blender.org
mtllib 98.mtl
o 98
v 0.518246 -0.088927 0.425155
v 0.529428 -0.075925 0.576154
v 0.518246 -0.075925 0.412153
v 0.518246 0.088076 0.576154
v 0.440557 -0.088927 0.425155
v 0.440557 -0.075925 0.589156
v 0.440557 0.088076 0.576154
v 0.440557 -0.075925 0.412153
v 0.518246 -0.088927 0.576154
v 0.529428 -0.075925 0.425155
v 0.529428 0.075074 0.576154
v 0.518246 0.075074 0.412153
v 0.518246 -0.075925 0.589156
v 0.518246 0.075074 0.589156
v 0.518246 0.088076 0.425155
v 0.529428 0.075074 0.425155
v 0.440557 0.088076 0.425155
v 0.440557 0.075074 0.412153
v 0.440557 -0.088927 0.576154
v 0.440557 0.075074 0.589156
v 0.088927 0.518246 0.425155
v 0.075925 0.529428 0.576154
v 0.075925 0.518246 0.412153
v -0.088076 0.518246 0.576154
v 0.088927 0.442576 0.425155
v 0.075925 0.442576 0.589156
v -0.088076 0.442576 0.576154
v 0.075925 0.442576 0.412153
v 0.088927 0.518246 0.576154
v 0.075925 0.529428 0.425155
v -0.075074 0.529428 0.576154
v -0.075074 0.518246 0.412153
v 0.075925 0.518246 0.589156
v -0.075074 0.518246 0.589156
v -0.088076 0.518246 0.425155
v -0.075074 0.529428 0.425155
v -0.088076 0.442576 0.425155
v -0.075074 0.442576 0.412153
v 0.088927 0.442576 0.576154
v -0.075074 0.442576 0.589156
v -0.518246 0.088927 0.425155
v -0.529428 0.075925 0.576154
v -0.518246 0.075925 0.412153
v -0.518246 -0.088076 0.576154
v -0.448301 0.088927 0.425155
v -0.448301 0.075925 0.589156
v -0.448301 -0.088076 0.576154
v -0.448301 0.075925 0.412153
v -0.518246 0.088927 0.576154
v -0.529428 0.075925 0.425155
v -0.529428 -0.075074 0.576154
v -0.518246 -0.075074 0.412153
v -0.518246 0.075925 0.589156
v -0.518246 -0.075074 0.589156
v -0.518246 -0.088076 0.425155
v -0.529428 -0.075074 0.425155
v -0.448301 -0.088076 0.425155
v -0.448301 -0.075074 0.412153
v -0.448301 0.088927 0.576154
v -0.448301 -0.075074 0.589156
v -0.088927 -0.518246 0.425155
v -0.075925 -0.529428 0.576154
v -0.075925 -0.518246 0.412153
v 0.088076 -0.518246 0.576154
v -0.088927 -0.453717 0.425155
v -0.075925 -0.453717 0.589156
v 0.088076 -0.453717 0.576154
v -0.075925 -0.453717 0.412153
v -0.088927 -0.518246 0.576154
v -0.075925 -0.529428 0.425155
v 0.075074 -0.529428 0.576154
v 0.075074 -0.518246 0.412153
v -0.075925 -0.518246 0.589156
v 0.075074 -0.518246 0.589156
v 0.088076 -0.518246 0.425155
v 0.075074 -0.529428 0.425155
v 0.088076 -0.453717 0.425155
v 0.075074 -0.453717 0.412153
v -0.088927 -0.453717 0.576154
v 0.075074 -0.453717 0.589156
v -0.296363 0.118030 -0.115719
v 0.304595 0.003425 -0.115719
v 0.047579 0.308245 -0.115719
v 0.232457 0.233597 -0.014199
v 0.274371 0.172715 -0.014199
v 0.302898 0.004962 -0.014199
v -0.228893 0.236018 -0.014199
v 0.039781 0.261484 0.002446
v 0.192120 0.188908 0.002446
v 0.242755 -0.147021 0.002446
v 0.188885 -0.200184 0.002446
v -0.250438 -0.087357 0.002446
v -0.250015 0.090815 0.002446
v -0.188609 0.191529 0.002446
v -0.087129 0.253422 0.002446
v 0.271921 -0.183012 -0.115719
v -0.229886 0.235470 -0.115719
v 0.275864 0.171888 -0.115719
v -0.230603 -0.083086 -0.115719
v -0.003654 -0.239826 -0.115719
v 0.177944 -0.182283 -0.115719
v 0.204325 -0.147793 -0.115719
v 0.236097 0.001433 -0.115719
v 0.179933 0.177604 -0.115719
v -0.070546 0.214257 -0.100919
v -0.161472 0.168785 -0.100919
v -0.217333 0.070979 -0.100919
v -0.000736 -0.228379 -0.100919
v 0.222998 -0.000870 -0.100919
v 0.168590 0.165412 -0.100919
v -0.300658 -0.105906 -0.115719
v 0.233768 0.233038 -0.115719
v 0.047263 0.308357 -0.014199
v 0.269484 -0.180523 -0.014199
v 0.220057 -0.239046 -0.014199
v 0.186687 -0.256134 -0.014199
v -0.006238 -0.309275 -0.014199
v -0.176153 -0.275014 -0.014198
v -0.277653 -0.166524 -0.014198
v -0.299220 -0.103665 -0.014198
v -0.294983 0.119173 -0.014198
v -0.113818 0.300332 -0.014199
v -0.176906 -0.278039 -0.115719
v 0.221279 -0.241949 -0.115719
v -0.114207 0.300152 -0.115719
v 0.187762 -0.259113 -0.115719
v -0.004961 -0.312882 -0.115719
v -0.278997 -0.169041 -0.115719
v -0.173778 0.181608 -0.115719
v -0.077104 0.233006 -0.115719
v -0.232190 0.078067 -0.115719
v -0.213294 -0.139388 -0.115719
v -0.136264 -0.207310 -0.115719
v 0.146691 -0.199213 -0.115719
v 0.213277 0.138774 -0.115719
v 0.036497 0.241139 -0.115719
v -0.215841 -0.078046 -0.100919
v -0.198370 -0.133114 -0.100919
v -0.127427 -0.196052 -0.100919
v 0.137601 -0.188578 -0.100919
v 0.169954 -0.171807 -0.100919
v 0.195314 -0.138630 -0.100919
v 0.198464 0.129376 -0.100919
v 0.034506 0.223227 -0.100919
v 0.364616 0.184945 1.083042
v 0.364616 -0.147521 1.083042
v 0.493136 0.184945 0.890422
v 0.493136 -0.147521 0.890422
v 0.480510 -0.118717 1.165950
v 0.479824 0.154840 1.164772
v 0.646081 -0.117262 0.997516
v 0.646685 0.155736 0.998547
v 0.685701 -0.065476 1.281957
v 0.527963 -0.097764 1.267217
v 0.684864 0.078022 1.280523
v 0.528080 0.118117 1.267434
v 0.538886 -0.069734 1.388158
v 0.539680 0.080121 1.389542
v 0.507901 0.095123 1.354799
v 0.507893 -0.080912 1.354816
v 0.658488 0.131710 1.085723
v 0.670664 0.106926 1.175646
v 0.620566 0.132390 1.127629
v 0.661438 0.000218 1.109078
v 0.230138 0.000885 1.184391
v -0.246346 0.000885 0.996558
v 0.123023 0.214140 0.996558
v 0.246145 0.000885 0.996558
v -0.123223 -0.212370 0.996558
v 0.006204 0.200277 1.184391
v 0.129074 0.175933 1.184391
v 0.116574 0.202971 1.156453
v -0.093695 0.200277 1.184391
v -0.125981 0.181637 1.184391
v -0.133985 0.195500 0.996558
v -0.101700 0.214140 0.996558
v 0.003777 -0.198506 1.184391
v -0.127781 -0.176748 1.184391
v -0.116812 -0.201266 1.155770
v 0.089058 -0.198506 1.184391
v 0.127359 -0.177132 1.184391
v 0.131809 -0.197151 0.996558
v 0.105449 -0.212370 0.996558
v 0.182857 -0.081007 1.184391
v 0.150414 -0.137199 1.184391
v 0.169089 -0.121087 1.100219
v 0.141471 -0.098186 1.184390
v 0.092957 0.000885 1.095743
v 0.046428 0.081475 1.095743
v -0.046629 0.081475 1.095743
v -0.093157 0.000885 1.095743
v -0.046629 -0.079705 1.095743
v 0.046428 -0.079705 1.095743
v 0.110282 0.000885 1.167307
v 0.135935 0.000885 1.184391
v 0.070631 0.114275 1.184391
v 0.055091 0.096479 1.167307
v -0.069236 0.114399 1.184391
v -0.055291 0.096479 1.167307
v -0.134773 0.000885 1.184391
v -0.110482 0.000885 1.167307
v -0.067437 -0.115745 1.184391
v -0.055291 -0.094708 1.167307
v 0.068546 -0.115745 1.184391
v 0.055091 -0.094708 1.167307
v -0.215453 -0.024896 1.184391
v -0.215453 0.026666 1.184391
v -0.238429 0.000885 1.111728
v -0.000869 0.335949 0.229547
v -0.000869 0.367473 0.054142
v -0.000869 0.376553 0.178434
v -0.173361 0.289479 0.250098
v -0.193952 0.325143 0.112459
v -0.193788 0.324860 0.197543
v -0.299928 0.163376 0.268771
v -0.250810 0.090815 0.010100
v -0.329478 0.180436 0.083345
v -0.335015 0.183633 0.216653
v -0.346618 -0.009286 0.287551
v -0.317036 -0.009286 0.023146
v -0.387185 -0.009286 0.111471
v -0.386708 -0.009286 0.235763
v -0.299983 -0.181979 0.306185
v -0.264625 -0.157085 0.042255
v -0.335428 -0.202444 0.130581
v -0.335015 -0.202205 0.254872
v -0.155515 -0.275978 0.061365
v -0.194027 -0.343845 0.149690
v -0.193788 -0.343432 0.273982
v -0.000869 -0.321987 0.080474
v -0.000869 -0.395602 0.168800
v -0.000869 -0.395125 0.293091
v 0.176421 -0.270335 0.104805
v 0.192289 -0.343845 0.187909
v 0.192050 -0.343432 0.312201
v 0.290599 -0.166479 0.131653
v 0.320324 -0.197078 0.205700
v 0.318140 -0.009286 0.137803
v 0.385446 -0.009286 0.226128
v 0.376678 -0.009286 0.361087
v 0.275401 0.150219 0.156912
v 0.333584 0.183811 0.277123
v 0.192289 0.325273 0.264348
v -0.000869 0.377029 0.283457
v -0.194027 0.325273 0.302567
v -0.335428 0.183872 0.321677
v -0.387184 -0.009286 0.340786
v -0.335428 -0.202444 0.359896
v -0.173521 -0.308328 0.325186
v -0.002476 -0.373568 0.346740
v 0.106645 0.342142 0.054142
v 0.106433 0.350150 0.178434
v 0.188142 0.273329 0.054142
v 0.189048 0.276940 0.178434
v 0.226107 0.173033 0.054142
v -0.187199 -0.332020 0.361087
v 0.333305 0.183650 0.361087
v 0.192103 0.324952 0.361087
v -0.000869 0.376732 0.361087
v -0.193914 0.325079 0.361087
v -0.335297 0.183796 0.361087
v -0.387107 -0.009286 0.361087
v 0.173049 -0.310521 0.361087
v 0.002198 -0.309381 0.081633
v 0.170844 -0.245928 0.103631
v 0.259339 0.145329 0.157671
v 0.276257 -0.154062 0.119892
v 0.298430 0.019246 0.141016
v -0.273804 -0.009286 0.022850
v -0.155135 -0.251268 0.060240
v 0.227394 0.177073 0.159818
v 0.180213 0.270146 0.192656
v 0.089985 0.317668 0.227782
v 0.262989 0.265749 0.254793
v 0.262704 0.265477 0.361087
v 0.213554 0.213168 0.166265
v 0.100504 0.357337 0.273428
v 0.098447 0.357552 0.361087
v 0.173735 0.199834 0.002446
v 0.238644 0.138406 0.002446
v 0.264076 0.019776 0.002446
v 0.157908 -0.221760 0.002446
v 0.002307 -0.273790 0.002446
v -0.145529 -0.233916 0.002446
v -0.232169 -0.146039 0.002446
v -0.244431 -0.155413 0.043338
v -0.261756 -0.092358 0.033961
v 0.209730 -0.222317 0.109458
v 0.333277 -0.202205 0.331310
v 0.313231 -0.190632 0.361087
v 0.225052 -0.240184 0.113229
v -0.000657 0.297367 -0.008171
v -0.186532 0.208451 -0.007872
v -0.153011 0.250301 -0.007932
v 0.082750 0.278746 -0.008298
v 0.144595 0.238009 -0.008394
v -0.143298 0.000426 -0.100919
v 0.073304 0.124997 -0.100919
v -0.063770 0.000426 -0.159354
v 0.033308 0.056258 -0.159354
v 0.088667 0.000426 -0.159354
v -0.070818 0.125481 -0.100919
v 0.144944 0.000426 -0.100919
v -0.143298 0.000426 -0.159354
v -0.070818 0.125481 -0.159354
v 0.073304 0.124997 -0.159354
v -0.031286 0.056474 -0.159354
v -0.063770 0.000426 -0.118255
v 0.065417 0.000426 -0.159354
v -0.031286 0.056474 -0.118255
v 0.065417 0.000426 -0.118255
v 0.033308 0.056258 -0.118255
v 0.144944 0.000426 -0.134799
v 0.116969 0.048775 -0.159354
v 0.073304 -0.124145 -0.100919
v 0.033308 -0.055405 -0.159354
v -0.070818 -0.124628 -0.100919
v -0.070818 -0.124628 -0.159354
v 0.073304 -0.124145 -0.159354
v -0.031286 -0.055622 -0.159354
v -0.031286 -0.055622 -0.118255
v 0.033308 -0.055405 -0.118255
v 0.116969 -0.047922 -0.159354
v 0.534705 0.228082 0.879561
v 0.408456 0.228082 0.813827
v 0.241195 0.228082 1.020992
v 0.321669 0.228082 1.114466
v 0.498887 0.228082 1.094546
v 0.534705 -0.188666 0.879561
v 0.408456 -0.188666 0.813827
v 0.241195 -0.188666 1.020992
v 0.321670 -0.188666 1.114466
v 0.498887 -0.188666 1.094546
v -0.534705 0.228082 0.879562
v -0.408456 0.228082 0.813827
v -0.241195 0.228082 1.020992
v -0.321669 0.228082 1.114466
v -0.498887 0.228082 1.094546
v -0.534705 -0.188666 0.879562
v -0.408456 -0.188666 0.813827
v -0.241195 -0.188666 1.020992
v -0.321669 -0.188666 1.114466
v -0.498887 -0.188666 1.094546
v -0.509049 0.118447 1.352409
v -0.509057 -0.057588 1.352391
v -0.540836 -0.042586 1.387135
v -0.540042 0.107269 1.385750
v -0.523551 -0.080582 1.275517
v -0.686020 -0.040486 1.278116
v -0.523434 0.135299 1.275300
v -0.647841 -0.118201 0.996140
v -0.647237 0.154797 0.995108
v -0.475002 -0.117305 1.157781
v -0.475872 0.156252 1.158831
v -0.494293 0.185056 0.888014
v -0.494293 -0.147410 0.888014
v -0.366717 0.185056 1.074114
v -0.366717 -0.147410 1.074114
v -0.623993 0.104834 1.325023
v -0.681767 0.109663 1.243009
v -0.686638 0.065526 1.279175
v 0.463170 0.161525 0.788616
v -0.222212 0.224271 0.345915
v -0.288674 0.163299 0.345915
v -0.329161 0.023162 0.345915
v -0.307970 -0.167844 0.345915
v -0.231203 -0.243615 0.345915
v -0.188256 -0.269693 0.345915
v -0.007035 -0.344615 0.345915
v 0.175268 -0.283123 0.345915
v 0.276739 -0.178496 0.345914
v 0.302390 -0.101425 0.345914
v -0.311691 0.328727 0.369541
v -0.435166 -0.234880 0.369555
v -0.324556 -0.343533 0.369537
v -0.262780 -0.380864 0.369529
v -0.002473 -0.489055 0.369555
v 0.259656 -0.400646 0.369555
v 0.405706 -0.250297 0.369562
v 0.442480 -0.139400 0.369557
v -0.251529 0.365069 0.539432
v -0.056757 0.459851 0.369481
v -0.181867 0.395079 0.369489
v 0.311861 0.313446 0.365490
v 0.330101 0.331568 0.393207
v 0.445432 0.156608 0.369571
v 0.151330 0.440048 0.393201
v 0.142469 0.416245 0.365488
v -0.305091 0.332073 0.369537
v -0.263713 0.335097 0.366672
v 0.338752 0.338904 0.654022
v 0.162575 0.486548 0.721021
v -0.057197 0.469839 0.590612
v -0.047196 0.344270 0.350641
v 0.110057 0.328978 0.350640
v 0.245100 0.246973 0.350639
v 0.304232 0.104364 0.345914
v -0.298832 0.307098 0.995889
v -0.310780 0.322771 0.968165
v 0.381987 0.197024 0.996600
v 0.447336 0.195228 0.942940
v -0.403378 -0.222585 0.996600
v -0.454761 -0.247483 0.942809
v -0.339011 -0.361730 0.942814
v -0.305693 -0.319002 0.996600
v -0.274257 -0.401049 0.942822
v -0.249868 -0.352899 0.996600
v -0.001013 -0.514016 0.942833
v 0.000904 -0.456575 0.996600
v 0.273861 -0.421299 0.942848
v 0.244307 -0.374474 0.996600
v 0.379676 -0.234894 0.996600
v 0.465535 -0.147337 0.942895
v 0.411798 -0.138382 0.996599
v 0.354741 0.120552 0.996600
v 0.431096 0.149654 0.942953
v 0.336079 0.334352 0.960346
v 0.310128 0.307594 0.996600
v -0.237645 0.328685 0.996600
v -0.262435 0.376451 0.942785
v -0.058020 0.482537 0.912343
v -0.047370 0.427433 0.996600
v 0.143281 0.408902 0.996600
v 0.160712 0.464766 0.942980
v -0.425666 0.251811 0.942803
v -0.378157 0.222365 0.996600
v -0.486711 0.040514 0.942805
v -0.432047 0.035835 0.996600
v 0.413831 0.088739 0.996599
v 0.468016 0.129781 0.942930
v 0.426859 -0.263543 0.894102
v 0.442259 -0.217273 0.942878
v 0.396990 -0.245407 0.976883
v 0.392909 -0.298550 0.942863
v -0.428206 0.211598 0.700869
v -0.388430 0.228782 0.365778
v -0.408225 0.239073 0.390496
v -0.334200 0.308236 0.369547
v -0.465612 0.039753 0.390476
v -0.443616 0.037097 0.365769
v -0.453512 -0.077436 0.369600
v -0.198375 0.240615 0.346559
v -0.113503 0.298807 0.348851
v 0.518246 0.075074 0.412153
v 0.518246 0.075074 0.412153
v 0.518246 0.075074 0.412153
v 0.518246 0.088076 0.425155
v 0.518246 0.088076 0.425155
v 0.518246 0.088076 0.425155
v 0.529428 0.075074 0.425155
v 0.529428 0.075074 0.425155
v 0.529428 0.075074 0.425155
v 0.440557 0.075074 0.412153
v 0.529428 0.075074 0.576154
v 0.529428 0.075074 0.576154
v 0.529428 0.075074 0.576154
v 0.518246 0.075074 0.589156
v 0.518246 0.075074 0.589156
v 0.518246 0.075074 0.589156
v 0.440557 0.075074 0.589156
v 0.518246 -0.075925 0.589156
v 0.518246 -0.075925 0.589156
v 0.518246 -0.075925 0.589156
v 0.440557 0.088076 0.425155
v 0.529428 -0.075925 0.576154
v 0.529428 -0.075925 0.576154
v 0.529428 -0.075925 0.576154
v 0.518246 -0.088927 0.576154
v 0.518246 -0.088927 0.576154
v 0.518246 -0.088927 0.576154
v 0.529428 -0.075925 0.425155
v 0.529428 -0.075925 0.425155
v 0.529428 -0.075925 0.425155
v 0.518246 -0.088927 0.425155
v 0.518246 -0.088927 0.425155
v 0.518246 -0.088927 0.425155
v 0.518246 -0.075925 0.412153
v 0.518246 -0.075925 0.412153
v 0.518246 -0.075925 0.412153
v 0.440557 -0.088927 0.425155
v 0.518246 0.088076 0.576154
v 0.518246 0.088076 0.576154
v 0.518246 0.088076 0.576154
v 0.440557 -0.075925 0.412153
v 0.440557 0.088076 0.576154
v 0.440557 -0.075925 0.589156
v 0.440557 -0.088927 0.576154
v -0.075074 0.518246 0.412153
v -0.075074 0.518246 0.412153
v -0.075074 0.518246 0.412153
v -0.088076 0.518246 0.425155
v -0.088076 0.518246 0.425155
v -0.088076 0.518246 0.425155
v -0.075074 0.529428 0.425155
v -0.075074 0.529428 0.425155
v -0.075074 0.529428 0.425155
v -0.075074 0.442576 0.412153
v -0.075074 0.529428 0.576154
v -0.075074 0.529428 0.576154
v -0.075074 0.529428 0.576154
v -0.075074 0.518246 0.589156
v -0.075074 0.518246 0.589156
v -0.075074 0.518246 0.589156
v -0.075074 0.442576 0.589156
v 0.075925 0.518246 0.589156
v 0.075925 0.518246 0.589156
v 0.075925 0.518246 0.589156
v -0.088076 0.442576 0.425155
v 0.075925 0.529428 0.576154
v 0.075925 0.529428 0.576154
v 0.075925 0.529428 0.576154
v 0.088927 0.518246 0.576154
v 0.088927 0.518246 0.576154
v 0.088927 0.518246 0.576154
v 0.075925 0.529428 0.425155
v 0.075925 0.529428 0.425155
v 0.075925 0.529428 0.425155
v 0.088927 0.518246 0.425155
v 0.088927 0.518246 0.425155
v 0.088927 0.518246 0.425155
v 0.075925 0.518246 0.412153
v 0.075925 0.518246 0.412153
v 0.075925 0.518246 0.412153
v 0.088927 0.442576 0.425155
v -0.088076 0.518246 0.576154
v -0.088076 0.518246 0.576154
v -0.088076 0.518246 0.576154
v 0.075925 0.442576 0.412153
v -0.088076 0.442576 0.576154
v 0.075925 0.442576 0.589156
v 0.088927 0.442576 0.576154
v -0.518246 -0.075074 0.412153
v -0.518246 -0.075074 0.412153
v -0.518246 -0.075074 0.412153
v -0.518246 -0.088076 0.425155
v -0.518246 -0.088076 0.425155
v -0.518246 -0.088076 0.425155
v -0.529428 -0.075074 0.425155
v -0.529428 -0.075074 0.425155
v -0.529428 -0.075074 0.425155
v -0.448301 -0.075074 0.412153
v -0.529428 -0.075074 0.576154
v -0.529428 -0.075074 0.576154
v -0.529428 -0.075074 0.576154
v -0.518246 -0.075074 0.589156
v -0.518246 -0.075074 0.589156
v -0.518246 -0.075074 0.589156
v -0.448301 -0.075074 0.589156
v -0.518246 0.075925 0.589156
v -0.518246 0.075925 0.589156
v -0.518246 0.075925 0.589156
v -0.448301 -0.088076 0.425155
v -0.529428 0.075925 0.576154
v -0.529428 0.075925 0.576154
v -0.529428 0.075925 0.576154
v -0.518246 0.088927 0.576154
v -0.518246 0.088927 0.576154
v -0.518246 0.088927 0.576154
v -0.529428 0.075925 0.425155
v -0.529428 0.075925 0.425155
v -0.529428 0.075925 0.425155
v -0.518246 0.088927 0.425155
v -0.518246 0.088927 0.425155
v -0.518246 0.088927 0.425155
v -0.518246 0.075925 0.412153
v -0.518246 0.075925 0.412153
v -0.518246 0.075925 0.412153
v -0.448301 0.088927 0.425155
v -0.518246 -0.088076 0.576154
v -0.518246 -0.088076 0.576154
v -0.518246 -0.088076 0.576154
v -0.448301 0.075925 0.412153
v -0.448301 -0.088076 0.576154
v -0.448301 0.075925 0.589156
v -0.448301 0.088927 0.576154
v 0.075074 -0.518246 0.412153
v 0.075074 -0.518246 0.412153
v 0.075074 -0.518246 0.412153
v 0.088076 -0.518246 0.425155
v 0.088076 -0.518246 0.425155
v 0.088076 -0.518246 0.425155
v 0.075074 -0.529428 0.425155
v 0.075074 -0.529428 0.425155
v 0.075074 -0.529428 0.425155
v 0.075074 -0.453717 0.412153
v 0.075074 -0.529428 0.576154
v 0.075074 -0.529428 0.576154
v 0.075074 -0.529428 0.576154
v 0.075074 -0.518246 0.589156
v 0.075074 -0.518246 0.589156
v 0.075074 -0.518246 0.589156
v 0.075074 -0.453717 0.589156
v -0.075925 -0.518246 0.589156
v -0.075925 -0.518246 0.589156
v -0.075925 -0.518246 0.589156
v 0.088076 -0.453717 0.425155
v -0.075925 -0.529428 0.576154
v -0.075925 -0.529428 0.576154
v -0.075925 -0.529428 0.576154
v -0.088927 -0.518246 0.576154
v -0.088927 -0.518246 0.576154
v -0.088927 -0.518246 0.576154
v -0.075925 -0.529428 0.425155
v -0.075925 -0.529428 0.425155
v -0.075925 -0.529428 0.425155
v -0.088927 -0.518246 0.425155
v -0.088927 -0.518246 0.425155
v -0.088927 -0.518246 0.425155
v -0.075925 -0.518246 0.412153
v -0.075925 -0.518246 0.412153
v -0.075925 -0.518246 0.412153
v -0.088927 -0.453717 0.425155
v 0.088076 -0.518246 0.576154
v 0.088076 -0.518246 0.576154
v 0.088076 -0.518246 0.576154
v -0.075925 -0.453717 0.412153
v 0.088076 -0.453717 0.576154
v -0.075925 -0.453717 0.589156
v -0.088927 -0.453717 0.576154
v 0.274371 0.172715 -0.014199
v 0.274371 0.172715 -0.014199
v 0.302898 0.004962 -0.014199
v 0.275864 0.171888 -0.115719
v 0.275864 0.171888 -0.115719
v -0.228893 0.236018 -0.014199
v -0.294983 0.119173 -0.014198
v -0.294983 0.119173 -0.014198
v -0.113818 0.300332 -0.014199
v 0.269484 -0.180523 -0.014199
v 0.220057 -0.239046 -0.014199
v -0.077104 0.233006 -0.115719
v 0.036497 0.241139 -0.115719
v 0.036497 0.241139 -0.115719
v 0.242755 -0.147021 0.002446
v 0.242755 -0.147021 0.002446
v 0.188885 -0.200184 0.002446
v 0.186687 -0.256134 -0.014199
v 0.271921 -0.183012 -0.115719
v 0.221279 -0.241949 -0.115719
v -0.006238 -0.309275 -0.014199
v -0.229886 0.235470 -0.115719
v -0.114207 0.300152 -0.115719
v -0.213294 -0.139388 -0.115719
v -0.136264 -0.207310 -0.115719
v 0.192120 0.188908 0.002446
v -0.217333 0.070979 -0.100919
v -0.217333 0.070979 -0.100919
v -0.232190 0.078067 -0.115719
v -0.232190 0.078067 -0.115719
v 0.233768 0.233038 -0.115719
v -0.176153 -0.275014 -0.014198
v -0.003654 -0.239826 -0.115719
v -0.003654 -0.239826 -0.115719
v 0.146691 -0.199213 -0.115719
v -0.277653 -0.166524 -0.014198
v -0.230603 -0.083086 -0.115719
v -0.000736 -0.228379 -0.100919
v -0.000736 -0.228379 -0.100919
v -0.299220 -0.103665 -0.014198
v -0.215841 -0.078046 -0.100919
v -0.198370 -0.133114 -0.100919
v 0.204325 -0.147793 -0.115719
v 0.204325 -0.147793 -0.115719
v 0.195314 -0.138630 -0.100919
v 0.195314 -0.138630 -0.100919
v 0.177944 -0.182283 -0.115719
v 0.034506 0.223227 -0.100919
v 0.034506 0.223227 -0.100919
v 0.047263 0.308357 -0.014199
v 0.047263 0.308357 -0.014199
v 0.236097 0.001433 -0.115719
v 0.179933 0.177604 -0.115719
v 0.213277 0.138774 -0.115719
v -0.127427 -0.196052 -0.100919
v -0.176906 -0.278039 -0.115719
v -0.004961 -0.312882 -0.115719
v -0.278997 -0.169041 -0.115719
v 0.169954 -0.171807 -0.100919
v -0.070546 0.214257 -0.100919
v -0.161472 0.168785 -0.100919
v 0.187762 -0.259113 -0.115719
v 0.137601 -0.188578 -0.100919
v -0.296363 0.118030 -0.115719
v -0.296363 0.118030 -0.115719
v -0.300658 -0.105906 -0.115719
v -0.250438 -0.087357 0.002446
v -0.250015 0.090815 0.002446
v 0.304595 0.003425 -0.115719
v -0.173778 0.181608 -0.115719
v 0.168590 0.165412 -0.100919
v 0.198464 0.129376 -0.100919
v 0.047579 0.308245 -0.115719
v 0.047579 0.308245 -0.115719
v 0.222998 -0.000870 -0.100919
v 0.232457 0.233597 -0.014199
v 0.364616 -0.147521 1.083042
v 0.364616 0.184945 1.083042
v 0.493136 -0.147521 0.890422
v 0.493136 0.184945 0.890422
v 0.646081 -0.117262 0.997516
v 0.646081 -0.117262 0.997516
v 0.646685 0.155736 0.998547
v 0.646685 0.155736 0.998547
v 0.480510 -0.118717 1.165950
v 0.479824 0.154840 1.164772
v 0.527963 -0.097764 1.267217
v 0.527963 -0.097764 1.267217
v 0.670664 0.106926 1.175646
v 0.670664 0.106926 1.175646
v 0.684864 0.078022 1.280523
v 0.684864 0.078022 1.280523
v 0.528080 0.118117 1.267434
v 0.528080 0.118117 1.267434
v 0.538886 -0.069734 1.388158
v 0.538886 -0.069734 1.388158
v 0.685701 -0.065476 1.281957
v 0.685701 -0.065476 1.281957
v 0.539680 0.080121 1.389542
v 0.539680 0.080121 1.389542
v 0.507901 0.095123 1.354799
v 0.507901 0.095123 1.354799
v 0.507893 -0.080912 1.354816
v 0.507893 -0.080912 1.354816
v 0.658488 0.131710 1.085723
v 0.658488 0.131710 1.085723
v 0.620566 0.132390 1.127629
v 0.620566 0.132390 1.127629
v 0.661438 0.000218 1.109078
v 0.661438 0.000218 1.109078
v 0.129074 0.175933 1.184391
v 0.129074 0.175933 1.184391
v 0.230138 0.000885 1.184391
v 0.230138 0.000885 1.184391
v -0.116812 -0.201266 1.155770
v -0.116812 -0.201266 1.155770
v 0.003777 -0.198506 1.184391
v 0.003777 -0.198506 1.184391
v 0.246145 0.000885 0.996558
v 0.116574 0.202971 1.156453
v 0.116574 0.202971 1.156453
v 0.006204 0.200277 1.184391
v 0.006204 0.200277 1.184391
v 0.123023 0.214140 0.996558
v -0.093695 0.200277 1.184391
v -0.093695 0.200277 1.184391
v -0.125981 0.181637 1.184391
v -0.125981 0.181637 1.184391
v -0.133985 0.195500 0.996558
v -0.101700 0.214140 0.996558
v -0.127781 -0.176748 1.184391
v -0.127781 -0.176748 1.184391
v -0.123223 -0.212370 0.996558
v 0.089058 -0.198506 1.184391
v 0.089058 -0.198506 1.184391
v 0.127359 -0.177132 1.184391
v 0.127359 -0.177132 1.184391
v 0.131809 -0.197151 0.996558
v 0.105449 -0.212370 0.996558
v 0.150414 -0.137199 1.184391
v 0.150414 -0.137199 1.184391
v 0.182857 -0.081007 1.184391
v 0.182857 -0.081007 1.184391
v 0.169089 -0.121087 1.100219
v 0.169089 -0.121087 1.100219
v 0.141471 -0.098186 1.184390
v 0.141471 -0.098186 1.184390
v 0.046428 0.081475 1.095743
v 0.046428 0.081475 1.095743
v 0.092957 0.000885 1.095743
v 0.092957 0.000885 1.095743
v -0.046629 0.081475 1.095743
v -0.046629 0.081475 1.095743
v -0.093157 0.000885 1.095743
v -0.093157 0.000885 1.095743
v -0.046629 -0.079705 1.095743
v -0.046629 -0.079705 1.095743
v 0.046428 -0.079705 1.095743
v 0.046428 -0.079705 1.095743
v 0.070631 0.114275 1.184391
v 0.070631 0.114275 1.184391
v 0.055091 0.096479 1.167307
v 0.055091 0.096479 1.167307
v 0.055091 0.096479 1.167307
v 0.110282 0.000885 1.167307
v 0.110282 0.000885 1.167307
v 0.110282 0.000885 1.167307
v 0.135935 0.000885 1.184391
v 0.135935 0.000885 1.184391
v -0.069236 0.114399 1.184391
v -0.069236 0.114399 1.184391
v -0.055291 0.096479 1.167307
v -0.055291 0.096479 1.167307
v -0.055291 0.096479 1.167307
v -0.134773 0.000885 1.184391
v -0.134773 0.000885 1.184391
v -0.110482 0.000885 1.167307
v -0.110482 0.000885 1.167307
v -0.110482 0.000885 1.167307
v -0.067437 -0.115745 1.184391
v -0.067437 -0.115745 1.184391
v -0.055291 -0.094708 1.167307
v -0.055291 -0.094708 1.167307
v -0.055291 -0.094708 1.167307
v 0.068546 -0.115745 1.184391
v 0.068546 -0.115745 1.184391
v 0.055091 -0.094708 1.167307
v 0.055091 -0.094708 1.167307
v 0.055091 -0.094708 1.167307
v -0.238429 0.000885 1.111728
v -0.238429 0.000885 1.111728
v -0.215453 -0.024896 1.184391
v -0.215453 -0.024896 1.184391
v -0.215453 0.026666 1.184391
v -0.215453 0.026666 1.184391
v -0.246346 0.000885 0.996558
v -0.173361 0.289479 0.250098
v -0.000869 0.335949 0.229547
v -0.193952 0.325143 0.112459
v -0.299928 0.163376 0.268771
v -0.329478 0.180436 0.083345
v -0.346618 -0.009286 0.287551
v -0.299983 -0.181979 0.306185
v -0.193788 -0.343432 0.273982
v 0.385446 -0.009286 0.226128
v 0.333584 0.183811 0.277123
v -0.002476 -0.373568 0.346740
v -0.173521 -0.308328 0.325186
v 0.002198 -0.309381 0.081633
v 0.002198 -0.309381 0.081633
v 0.170844 -0.245928 0.103631
v 0.089985 0.317668 0.227782
v 0.259339 0.145329 0.157671
v 0.259339 0.145329 0.157671
v 0.298430 0.019246 0.141016
v -0.155135 -0.251268 0.060240
v -0.155135 -0.251268 0.060240
v 0.276257 -0.154062 0.119892
v 0.276257 -0.154062 0.119892
v 0.180213 0.270146 0.192656
v 0.226107 0.173033 0.054142
v 0.227394 0.177073 0.159818
v 0.227394 0.177073 0.159818
v 0.213554 0.213168 0.166265
v 0.157908 -0.221760 0.002446
v 0.002307 -0.273790 0.002446
v 0.002307 -0.273790 0.002446
v 0.238644 0.138406 0.002446
v 0.238644 0.138406 0.002446
v 0.264076 0.019776 0.002446
v -0.145529 -0.233916 0.002446
v -0.145529 -0.233916 0.002446
v -0.232169 -0.146039 0.002446
v 0.209730 -0.222317 0.109458
v -0.261756 -0.092358 0.033961
v -0.244431 -0.155413 0.043338
v -0.273804 -0.009286 0.022850
v 0.173735 0.199834 0.002446
v -0.250810 0.090815 0.010100
v -0.186532 0.208451 -0.007872
v 0.065417 0.000426 -0.118255
v 0.065417 0.000426 -0.118255
v 0.033308 0.056258 -0.118255
v 0.033308 0.056258 -0.118255
v 0.073304 0.124997 -0.100919
v 0.073304 0.124997 -0.100919
v -0.070818 0.125481 -0.159354
v -0.070818 0.125481 -0.159354
v -0.070818 0.125481 -0.159354
v 0.073304 0.124997 -0.159354
v 0.073304 0.124997 -0.159354
v -0.070818 0.125481 -0.100919
v -0.063770 0.000426 -0.159354
v -0.063770 0.000426 -0.159354
v -0.031286 0.056474 -0.159354
v -0.031286 0.056474 -0.159354
v 0.144944 0.000426 -0.134799
v 0.144944 0.000426 -0.134799
v 0.116969 0.048775 -0.159354
v 0.116969 0.048775 -0.159354
v 0.033308 0.056258 -0.159354
v 0.033308 0.056258 -0.159354
v 0.065417 0.000426 -0.159354
v 0.065417 0.000426 -0.159354
v -0.143298 0.000426 -0.159354
v -0.143298 0.000426 -0.159354
v 0.088667 0.000426 -0.159354
v 0.144944 0.000426 -0.100919
v -0.031286 0.056474 -0.118255
v -0.031286 0.056474 -0.118255
v -0.143298 0.000426 -0.100919
v -0.063770 0.000426 -0.118255
v -0.063770 0.000426 -0.118255
v 0.033308 -0.055405 -0.118255
v 0.033308 -0.055405 -0.118255
v 0.073304 -0.124145 -0.100919
v 0.073304 -0.124145 -0.100919
v -0.070818 -0.124628 -0.159354
v -0.070818 -0.124628 -0.159354
v -0.070818 -0.124628 -0.159354
v 0.073304 -0.124145 -0.159354
v 0.073304 -0.124145 -0.159354
v -0.070818 -0.124628 -0.100919
v -0.031286 -0.055622 -0.159354
v -0.031286 -0.055622 -0.159354
v 0.116969 -0.047922 -0.159354
v 0.116969 -0.047922 -0.159354
v 0.033308 -0.055405 -0.159354
v 0.033308 -0.055405 -0.159354
v -0.031286 -0.055622 -0.118255
v -0.031286 -0.055622 -0.118255
v 0.408456 0.228082 0.813827
v 0.534705 0.228082 0.879561
v 0.534705 0.228082 0.879561
v 0.241195 0.228082 1.020992
v 0.321669 0.228082 1.114466
v 0.321669 0.228082 1.114466
v 0.498887 0.228082 1.094546
v 0.498887 0.228082 1.094546
v 0.408456 -0.188666 0.813827
v 0.534705 -0.188666 0.879561
v 0.534705 -0.188666 0.879561
v 0.241195 -0.188666 1.020992
v 0.321670 -0.188666 1.114466
v 0.321670 -0.188666 1.114466
v 0.498887 -0.188666 1.094546
v 0.498887 -0.188666 1.094546
v -0.408456 0.228082 0.813827
v -0.534705 0.228082 0.879562
v -0.534705 0.228082 0.879562
v -0.241195 0.228082 1.020992
v -0.321669 0.228082 1.114466
v -0.321669 0.228082 1.114466
v -0.498887 0.228082 1.094546
v -0.498887 0.228082 1.094546
v -0.408456 -0.188666 0.813827
v -0.534705 -0.188666 0.879562
v -0.534705 -0.188666 0.879562
v -0.241195 -0.188666 1.020992
v -0.321669 -0.188666 1.114466
v -0.321669 -0.188666 1.114466
v -0.498887 -0.188666 1.094546
v -0.498887 -0.188666 1.094546
v -0.540042 0.107269 1.385750
v -0.540042 0.107269 1.385750
v -0.623993 0.104834 1.325023
v -0.623993 0.104834 1.325023
v -0.523551 -0.080582 1.275517
v -0.523551 -0.080582 1.275517
v -0.509057 -0.057588 1.352391
v -0.509057 -0.057588 1.352391
v -0.509049 0.118447 1.352409
v -0.509049 0.118447 1.352409
v -0.523434 0.135299 1.275300
v -0.523434 0.135299 1.275300
v -0.540836 -0.042586 1.387135
v -0.540836 -0.042586 1.387135
v -0.686020 -0.040486 1.278116
v -0.686020 -0.040486 1.278116
v -0.686638 0.065526 1.279175
v -0.686638 0.065526 1.279175
v -0.475002 -0.117305 1.157781
v -0.647841 -0.118201 0.996140
v -0.647841 -0.118201 0.996140
v -0.475872 0.156252 1.158831
v -0.366717 -0.147410 1.074114
v -0.494293 -0.147410 0.888014
v -0.366717 0.185056 1.074114
v -0.494293 0.185056 0.888014
v -0.647237 0.154797 0.995108
v -0.647237 0.154797 0.995108
v -0.681767 0.109663 1.243009
v -0.681767 0.109663 1.243009
v 0.445432 0.156608 0.369571
v 0.445432 0.156608 0.369571
v 0.445432 0.156608 0.369571
v 0.463170 0.161525 0.788616
v 0.463170 0.161525 0.788616
v 0.463170 0.161525 0.788616
v -0.181867 0.395079 0.369489
v -0.181867 0.395079 0.369489
v -0.263713 0.335097 0.366672
v -0.263713 0.335097 0.366672
v 0.442480 -0.139400 0.369557
v -0.305091 0.332073 0.369537
v -0.305091 0.332073 0.369537
v -0.056757 0.459851 0.369481
v -0.056757 0.459851 0.369481
v -0.056757 0.459851 0.369481
v -0.251529 0.365069 0.539432
v -0.251529 0.365069 0.539432
v 0.405706 -0.250297 0.369562
v 0.259656 -0.400646 0.369555
v 0.259656 -0.400646 0.369555
v -0.002473 -0.489055 0.369555
v -0.002473 -0.489055 0.369555
v -0.262780 -0.380864 0.369529
v -0.324556 -0.343533 0.369537
v 0.142469 0.416245 0.365488
v -0.435166 -0.234880 0.369555
v -0.435166 -0.234880 0.369555
v 0.151330 0.440048 0.393201
v 0.151330 0.440048 0.393201
v 0.311861 0.313446 0.365490
v 0.330101 0.331568 0.393207
v -0.311691 0.328727 0.369541
v 0.162575 0.486548 0.721021
v 0.162575 0.486548 0.721021
v 0.162575 0.486548 0.721021
v -0.057197 0.469839 0.590612
v -0.057197 0.469839 0.590612
v -0.262435 0.376451 0.942785
v -0.310780 0.322771 0.968165
v -0.310780 0.322771 0.968165
v -0.298832 0.307098 0.995889
v -0.298832 0.307098 0.995889
v -0.237645 0.328685 0.996600
v 0.354741 0.120552 0.996600
v 0.354741 0.120552 0.996600
v 0.431096 0.149654 0.942953
v 0.431096 0.149654 0.942953
v 0.431096 0.149654 0.942953
v 0.447336 0.195228 0.942940
v 0.447336 0.195228 0.942940
v 0.447336 0.195228 0.942940
v 0.381987 0.197024 0.996600
v 0.381987 0.197024 0.996600
v -0.403378 -0.222585 0.996600
v -0.403378 -0.222585 0.996600
v -0.454761 -0.247483 0.942809
v -0.454761 -0.247483 0.942809
v -0.454761 -0.247483 0.942809
v -0.339011 -0.361730 0.942814
v -0.305693 -0.319002 0.996600
v -0.274257 -0.401049 0.942822
v -0.249868 -0.352899 0.996600
v -0.001013 -0.514016 0.942833
v -0.001013 -0.514016 0.942833
v -0.001013 -0.514016 0.942833
v 0.000904 -0.456575 0.996600
v 0.000904 -0.456575 0.996600
v 0.273861 -0.421299 0.942848
v 0.273861 -0.421299 0.942848
v 0.244307 -0.374474 0.996600
v 0.379676 -0.234894 0.996600
v 0.379676 -0.234894 0.996600
v 0.411798 -0.138382 0.996599
v 0.413831 0.088739 0.996599
v 0.413831 0.088739 0.996599
v 0.468016 0.129781 0.942930
v 0.468016 0.129781 0.942930
v 0.468016 0.129781 0.942930
v 0.336079 0.334352 0.960346
v 0.336079 0.334352 0.960346
v 0.310128 0.307594 0.996600
v 0.310128 0.307594 0.996600
v 0.465535 -0.147337 0.942895
v -0.047370 0.427433 0.996600
v 0.143281 0.408902 0.996600
v 0.160712 0.464766 0.942980
v 0.160712 0.464766 0.942980
v -0.058020 0.482537 0.912343
v -0.058020 0.482537 0.912343
v -0.425666 0.251811 0.942803
v -0.425666 0.251811 0.942803
v -0.378157 0.222365 0.996600
v -0.486711 0.040514 0.942805
v -0.432047 0.035835 0.996600
v -0.428206 0.211598 0.700869
v 0.392909 -0.298550 0.942863
v 0.392909 -0.298550 0.942863
v 0.426859 -0.263543 0.894102
v 0.442259 -0.217273 0.942878
v 0.442259 -0.217273 0.942878
v 0.396990 -0.245407 0.976883
v 0.396990 -0.245407 0.976883
v -0.334200 0.308236 0.369547
v -0.334200 0.308236 0.369547
v -0.388430 0.228782 0.365778
v -0.408225 0.239073 0.390496
v -0.408225 0.239073 0.390496
v -0.453512 -0.077436 0.369600
v -0.453512 -0.077436 0.369600
v -0.465612 0.039753 0.390476
v -0.443616 0.037097 0.365769
vn -0.0000 -0.7071 -0.7071
vn 0.7582 -0.0000 0.6520
vn -0.0000 1.0000 -0.0000
vn 1.0000 -0.0000 -0.0000
vn -0.0000 -0.0000 -1.0000
vn 0.6351 0.5462 0.5462
vn 0.6351 0.5462 -0.5462
vn 0.6351 -0.5462 -0.5462
vn 0.6351 -0.5462 0.5462
vn -0.0000 0.7071 0.7071
vn -0.0000 -0.0000 1.0000
vn -0.0000 -1.0000 -0.0000
vn -0.0000 -0.7071 0.7071
vn 0.7582 -0.6520 -0.0000
vn 0.7582 0.6520 -0.0000
vn 0.7582 -0.0000 -0.6521
vn 0.7582 -0.0000 -0.6520
vn -0.0000 0.7071 -0.7071
vn 0.7071 -0.0000 -0.7071
vn -0.0000 0.7582 0.6520
vn -1.0000 -0.0000 -0.0000
vn -0.5462 0.6351 0.5462
vn -0.5462 0.6351 -0.5462
vn 0.5462 0.6351 -0.5462
vn 0.5462 0.6351 0.5462
vn -0.7071 -0.0000 0.7071
vn 0.7071 -0.0000 0.7071
vn 0.6521 0.7582 -0.0000
vn 0.6520 0.7582 -0.0000
vn -0.6520 0.7582 -0.0000
vn -0.6521 0.7582 -0.0000
vn -0.0000 0.7582 -0.6520
vn -0.7071 -0.0000 -0.7071
vn -0.7582 -0.0000 0.6520
vn -0.6351 -0.5462 0.5462
vn -0.6351 -0.5462 -0.5462
vn -0.6351 0.5462 -0.5462
vn -0.6351 0.5462 0.5462
vn -0.7582 0.6520 -0.0000
vn -0.7582 -0.6520 -0.0000
vn -0.7582 -0.0000 -0.6521
vn -0.7582 -0.0000 -0.6520
vn -0.0000 -0.7582 0.6520
vn 0.5462 -0.6351 0.5462
vn 0.5462 -0.6351 -0.5462
vn -0.5462 -0.6351 -0.5462
vn -0.5462 -0.6351 0.5462
vn -0.6521 -0.7582 -0.0000
vn -0.6520 -0.7582 -0.0000
vn 0.6520 -0.7582 -0.0000
vn 0.6521 -0.7582 -0.0000
vn -0.0000 -0.7582 -0.6520
vn -0.2756 0.9613 -0.0006
vn -0.0498 0.9988 -0.0014
vn -0.2768 0.9609 -0.0007
vn 0.9857 0.1678 0.0134
vn 0.9999 -0.0031 0.0166
vn 0.9998 -0.0056 0.0182
vn -0.1946 0.1914 0.9620
vn -0.0931 0.2813 0.9551
vn -0.1874 0.1908 0.9636
vn -0.0779 0.2951 0.9523
vn 0.0586 0.3179 0.9463
vn 0.7074 0.0070 -0.7068
vn 0.6818 0.1157 -0.7223
vn -0.3942 -0.5359 -0.7466
vn -0.2600 -0.6012 -0.7556
vn -0.4039 -0.5260 -0.7485
vn 0.4446 -0.4563 -0.7708
vn 0.5802 -0.3308 -0.7443
vn 0.4464 -0.4585 -0.7684
vn -0.2139 0.7885 -0.5766
vn -0.2882 0.6914 -0.6625
vn -0.2141 0.7926 -0.5708
vn 0.5641 0.3870 -0.7294
vn 0.5775 0.3576 -0.7339
vn 0.6275 0.7786 0.0038
vn 0.8237 0.5670 0.0075
vn 0.0365 -0.9987 0.0349
vn 0.3635 -0.9310 0.0321
vn 0.0329 -0.9988 0.0356
vn 0.6177 -0.7859 0.0299
vn 0.3639 -0.9309 0.0312
vn -0.7040 0.7102 0.0031
vn -0.7066 0.7076 0.0032
vn 0.9060 -0.4223 0.0307
vn 0.9035 -0.4275 0.0302
vn -0.8557 -0.5168 0.0240
vn -0.4882 -0.8723 0.0298
vn -0.8578 -0.5135 0.0241
vn 0.3744 0.9273 -0.0000
vn 0.6236 0.7817 0.0038
vn -0.4855 -0.8737 0.0299
vn 0.6212 -0.7830 0.0318
vn -0.9997 0.0191 0.0135
vn -0.9881 -0.1529 0.0173
vn -0.9997 0.0190 0.0134
vn -0.8703 0.4925 0.0061
vn 0.1484 -0.3193 0.9360
vn 0.0222 -0.4228 0.9060
vn -0.0088 -0.4139 0.9103
vn 0.3960 -0.0008 0.9182
vn 0.3724 -0.1500 0.9159
vn 0.3227 -0.1872 0.9278
vn 0.3182 0.1308 0.9390
vn 0.2834 0.1425 0.9484
vn -0.4855 0.5649 -0.6672
vn -0.6025 0.4606 -0.6518
vn -0.4830 0.5703 -0.6644
vn 0.2143 -0.2562 0.9426
vn 0.1972 -0.2480 0.9485
vn -0.3107 -0.0531 0.9490
vn -0.3056 0.0698 0.9496
vn -0.2891 0.0939 0.9527
vn -0.1558 -0.2722 0.9495
vn -0.2670 -0.1662 0.9493
vn -0.2747 -0.1605 0.9481
vn -0.5991 -0.2641 -0.7559
vn -0.5825 -0.2822 -0.7622
vn -0.7467 -0.0040 -0.6651
vn -0.1436 -0.2848 0.9478
vn 0.3464 0.6347 -0.6907
vn 0.0529 -0.6351 -0.7706
vn 0.1547 -0.5803 -0.7996
vn 0.1639 -0.5796 -0.7983
vn 0.1676 0.2270 0.9594
vn 0.1686 0.2068 0.9638
vn 0.0648 0.3247 0.9436
vn -0.7895 0.1675 -0.5905
vn -0.7921 0.1686 -0.5867
vn 0.3234 0.6518 -0.6860
vn 0.1919 0.7547 -0.6274
vn 0.1355 -0.9847 0.1092
vn 0.1600 -0.9790 0.1263
vn 0.1649 -0.9802 0.1100
vn 0.5750 0.0011 -0.8181
vn 0.5744 0.0006 -0.8186
vn 0.5736 -0.0000 -0.8191
vn 0.1312 0.9847 0.1144
vn 0.1809 0.9676 0.1762
vn 0.1570 0.9752 0.1562
vn -0.5810 0.0014 0.8139
vn -0.7371 0.0001 0.6757
vn -0.5786 -0.0000 0.8156
vn 0.5943 0.0018 0.8042
vn 0.5924 -0.0012 0.8056
vn 0.5863 -0.0106 0.8100
vn -0.7485 0.0011 0.6631
vn -0.9052 -0.0003 0.4250
vn 0.2242 0.9469 0.2305
vn 0.2633 0.9386 0.2230
vn 0.9907 -0.0001 -0.1363
vn 0.9907 0.0004 -0.1363
vn 0.9905 0.0036 -0.1376
vn 0.1747 -0.9707 0.1650
vn 0.1795 -0.9714 0.1551
vn -0.7333 -0.0019 0.6799
vn -0.7370 -0.0003 0.6759
vn -0.7379 0.0001 0.6750
vn 0.1557 -0.9653 0.2097
vn 0.1196 -0.9695 0.2139
vn 0.2132 0.9435 0.2538
vn 0.1887 0.9426 0.2754
vn 0.2209 0.9438 0.2457
vn -0.9746 0.0003 -0.2238
vn -0.9745 0.0006 -0.2245
vn -0.9744 0.0008 -0.2249
vn 0.7353 0.3118 -0.6018
vn 0.7358 0.1344 0.6637
vn -0.9874 -0.1572 0.0175
vn -0.1285 -0.7769 0.6163
vn 0.8650 0.4965 0.0731
vn 0.8767 0.4762 0.0686
vn 0.8671 0.4928 0.0723
vn -0.0000 0.9973 0.0736
vn -0.0018 0.9974 0.0725
vn -0.0023 0.9974 0.0722
vn -0.0000 -0.9973 0.0736
vn 0.0016 -0.9974 0.0725
vn 0.0023 -0.9974 0.0721
vn 0.1472 0.7429 0.6531
vn -0.4982 0.8629 0.0849
vn 0.4859 -0.8676 0.1061
vn 0.4955 -0.8624 0.1040
vn 0.4973 -0.8614 0.1036
vn 0.8675 -0.4906 0.0817
vn 0.8620 -0.4977 0.0960
vn 0.8612 -0.5030 0.0729
vn 0.9436 0.2163 0.2508
vn 0.3587 -0.8642 0.3528
vn -0.8476 0.4894 0.2052
vn -0.0000 -0.9787 0.2052
vn -0.0000 0.9787 0.2052
vn 0.8476 -0.4894 0.2052
vn 0.8476 0.4894 0.2052
vn -0.8618 -0.5009 0.0806
vn -0.8620 -0.4977 0.0960
vn -0.8631 -0.4996 0.0745
vn -0.5278 -0.3041 0.7931
vn -0.5262 -0.3037 0.7943
vn -0.5258 -0.3036 0.7946
vn -0.0006 -0.6920 0.7219
vn -0.0001 -0.6904 0.7234
vn -0.0000 -0.6900 0.7238
vn 0.5460 -0.3152 0.7763
vn 0.5459 0.3152 0.7763
vn -0.0000 0.6304 0.7763
vn -0.5280 0.3050 0.7926
vn -0.5285 0.3052 0.7922
vn -0.5279 0.3050 0.7927
vn -0.8476 -0.4894 0.2052
vn -0.9535 -0.0000 0.3015
vn -0.8613 0.5033 0.0694
vn -0.8645 0.4991 0.0594
vn -0.8625 0.5006 0.0745
vn -0.4948 -0.0920 -0.8641
vn 0.0073 -0.1283 -0.9917
vn -0.3394 -0.3088 -0.8885
vn -0.1517 -0.4377 -0.8862
vn 0.1270 0.0534 -0.9905
vn 0.0964 -0.4539 -0.8858
vn 0.3034 -0.3807 -0.8735
vn 0.5125 -0.1254 -0.8495
vn 0.5123 0.0796 -0.8551
vn 0.7235 -0.2612 -0.6390
vn 0.0123 0.1220 -0.9924
vn 0.4303 0.3205 -0.8439
vn -0.5906 0.3221 -0.7399
vn -0.9467 -0.0345 -0.3204
vn -0.7973 -0.4931 -0.3481
vn -0.4477 -0.8298 -0.3331
vn 0.0269 -0.9466 -0.3214
vn 0.5068 -0.8078 -0.3012
vn 0.4782 -0.3546 -0.8035
vn 0.8408 -0.4563 -0.2913
vn 0.8074 0.0810 -0.5844
vn 0.7649 0.4208 -0.4878
vn -0.0611 0.9502 -0.3055
vn -0.4370 0.6564 -0.6150
vn -0.4983 0.8096 -0.3101
vn -0.7091 0.3523 -0.6108
vn -0.8372 0.4528 -0.3066
vn -0.7951 -0.0502 -0.6044
vn -0.9524 -0.0267 -0.3036
vn -0.6638 -0.4414 -0.6037
vn -0.6725 -0.4481 -0.5890
vn -0.3846 -0.6963 -0.6060
vn -0.3893 -0.6951 -0.6044
vn -0.2201 -0.7735 -0.5943
vn 0.0057 0.9623 0.2719
vn -0.4908 0.8711 -0.0185
vn -0.4505 0.8366 0.3118
vn -0.8135 0.5017 0.2940
vn -0.9502 0.0275 0.3106
vn -0.8355 -0.4511 0.3139
vn -0.5351 -0.8448 0.0038
vn -0.0351 -0.9791 0.2001
vn 0.4812 -0.8271 0.2905
vn 0.8184 -0.5088 0.2672
vn 0.9988 -0.0394 0.0295
vn 0.9958 -0.0003 0.0910
vn 0.7029 0.7113 0.0037
vn 0.4315 0.8448 -0.3166
vn 0.4951 0.8689 0.0042
vn 0.2234 0.9121 -0.3438
vn 0.2592 0.9658 0.0041
vn -0.0353 0.9994 0.0038
vn -0.4997 0.8662 0.0038
vn -0.8658 0.5003 0.0038
vn -1.0000 0.0009 0.0038
vn 0.0042 0.7850 0.6195
vn -0.3493 0.7101 0.6113
vn -0.6583 0.4395 0.6112
vn -0.7904 0.0514 0.6105
vn -0.7054 -0.3492 0.6169
vn -0.4496 -0.6643 0.5971
vn -0.0733 -0.9161 0.3942
vn 0.3811 -0.6923 0.6127
vn 0.6485 -0.4523 0.6123
vn -0.0271 0.9029 -0.4290
vn 0.4443 0.8536 0.2720
vn 0.4124 0.8163 -0.4044
vn -0.0283 0.6658 -0.7456
vn 0.2987 0.6283 -0.7183
vn 0.7912 0.5253 0.3130
vn 0.7543 0.5530 -0.3539
vn 0.5441 0.5095 -0.6666
vn 0.7137 0.3039 -0.6310
vn 0.6504 0.4508 0.6113
vn 0.9357 0.3520 0.0246
vn 0.3466 0.7212 0.5997
vn 0.8924 0.4510 0.0149
vn 0.8932 0.4497 0.0038
vn -0.4360 -0.7244 0.5340
vn 0.9319 0.3618 -0.0252
vn 0.9021 0.3427 -0.2623
vn 0.6631 0.6752 -0.3232
vn 0.3912 0.6766 -0.6238
vn 0.0391 0.1763 -0.9836
vn 0.4586 0.5531 -0.6955
vn -0.0813 0.7834 -0.6162
vn 0.1574 0.7379 -0.6563
vn 0.9481 0.2549 -0.1899
vn 0.9724 0.0989 -0.2115
vn 0.9674 0.0513 -0.2479
vn -0.2656 -0.8869 -0.3779
vn -0.2547 -0.9048 -0.3413
vn -0.2471 -0.9160 -0.3161
vn 0.6923 -0.6731 -0.2600
vn 0.6258 -0.7345 -0.2625
vn 0.6124 -0.7434 -0.2687
vn 0.9589 -0.1097 -0.2618
vn 0.9525 -0.1218 -0.2790
vn 0.4605 -0.8470 -0.2654
vn 0.4527 -0.8463 -0.2809
vn -0.6667 -0.6725 -0.3213
vn -0.7853 -0.5131 -0.3465
vn -0.8014 -0.4808 -0.3558
vn 0.3208 -0.8820 -0.3451
vn 0.2918 -0.8726 -0.3918
vn 0.7838 0.5997 -0.1613
vn 0.7396 0.6705 -0.0580
vn 0.7685 0.6020 -0.2169
vn -0.9034 -0.2395 -0.3556
vn -0.8871 -0.2075 -0.4124
vn -0.7140 -0.0188 -0.6999
vn 0.0632 -0.1214 -0.9906
vn 0.1189 -0.0491 -0.9917
vn -0.9291 0.3330 -0.1607
vn -0.9396 0.3281 -0.0976
vn 0.1586 -0.0175 -0.9872
vn -0.5826 0.4663 -0.6657
vn -0.4848 0.1763 -0.8567
vn -0.4933 0.6327 -0.5969
vn -0.4505 0.6664 -0.5941
vn 0.5793 0.8040 -0.1340
vn 0.5096 0.8574 -0.0717
vn -0.0068 -0.1291 -0.9916
vn -0.8797 0.4667 -0.0914
vn 0.8569 -0.5081 0.0865
vn 0.8592 -0.5077 0.0635
vn 0.8681 -0.4919 0.0665
vn 0.9907 0.0021 -0.1363
vn 0.9909 -0.0017 -0.1346
vn 0.2298 0.9427 0.2420
vn -0.8652 0.5014 -0.0000
vn 0.0034 1.0000 -0.0000
vn 0.8667 0.4988 -0.0031
vn 0.8677 0.4971 -0.0000
vn 0.8673 0.4978 -0.0009
vn -0.8669 -0.4985 -0.0000
vn 0.8652 -0.5014 -0.0000
vn -0.0033 -1.0000 -0.0000
vn 0.8669 0.4985 -0.0000
vn 0.8667 0.4988 -0.0013
vn 0.3999 -0.0000 -0.9166
vn 0.3894 -0.2279 -0.8924
vn -0.8652 -0.5015 -0.0000
vn 0.0034 -1.0000 -0.0000
vn 0.8667 -0.4988 -0.0031
vn 0.8673 -0.4978 -0.0009
vn 0.8677 -0.4971 -0.0000
vn -0.8669 0.4985 -0.0000
vn 0.8652 0.5014 -0.0000
vn -0.0034 1.0000 -0.0000
vn 0.8667 -0.4988 -0.0013
vn 0.8669 -0.4985 -0.0000
vn 0.3894 0.2279 -0.8924
vn 0.4618 -0.0000 -0.8870
vn 0.1117 -0.0000 0.9937
vn 0.9864 -0.0000 0.1643
vn -0.7578 -0.0000 0.6524
vn -0.4618 -0.0000 -0.8870
vn -0.1117 -0.0000 0.9937
vn -0.9864 -0.0000 0.1643
vn 0.7578 -0.0000 0.6524
vn 0.8637 0.4986 0.0736
vn -0.0068 0.9976 0.0694
vn 0.0064 -0.9976 0.0693
vn -0.8645 -0.4991 0.0594
vn -0.8623 -0.5019 0.0668
vn -0.8620 0.4977 0.0960
vn -0.8603 0.5037 0.0784
vn 0.9830 -0.0002 -0.1839
vn 0.9828 -0.0006 -0.1847
vn 0.9827 -0.0007 -0.1851
vn -0.2193 -0.9456 0.2402
vn -0.1885 -0.9382 0.2902
vn -0.2217 -0.9446 0.2422
vn 0.7333 0.0019 0.6799
vn 0.7370 0.0003 0.6759
vn 0.7379 -0.0001 0.6749
vn -0.9910 -0.0033 -0.1340
vn -0.9903 -0.0044 -0.1387
vn -0.9907 -0.0015 -0.1360
vn -0.5949 0.0031 0.8038
vn -0.5920 0.0005 0.8059
vn -0.5960 -0.0048 0.8030
vn -0.1848 -0.9672 0.1743
vn -0.1503 -0.9746 0.1662
vn 0.7776 -0.0004 0.6287
vn 0.9249 0.0011 0.3801
vn 0.7678 0.0005 0.6407
vn -0.1838 0.9617 0.2036
vn -0.1646 0.9633 0.2120
vn -0.1795 0.9696 0.1662
vn 0.6127 -0.0007 0.7903
vn 0.6114 -0.0000 0.7913
vn -0.1302 -0.9843 0.1192
vn -0.5750 -0.0011 -0.8181
vn -0.5744 -0.0006 -0.8186
vn -0.5736 -0.0000 -0.8191
vn -0.1344 0.9844 0.1138
vn -0.1566 0.9797 0.1250
vn -0.1686 0.9789 0.1156
vn -0.6934 0.5009 0.5179
vn -0.1751 0.9722 0.1555
vn -0.9905 0.0017 -0.1377
vn -0.9907 -0.0001 -0.1361
vn -0.5863 0.0106 0.8100
vn -0.5858 -0.0115 0.8103
vn -0.3830 -0.9229 -0.0399
vn -0.4518 -0.8912 -0.0400
vn -0.4513 -0.8915 -0.0404
vn 0.3193 -0.9467 -0.0420
vn 0.8559 -0.5159 -0.0352
vn 0.7116 -0.7016 -0.0369
vn 0.7150 -0.6976 -0.0456
vn -0.6127 -0.7893 -0.0406
vn 0.9992 -0.0109 -0.0385
vn 0.9865 -0.1598 -0.0356
vn 0.9857 -0.1628 -0.0440
vn 0.8122 0.5830 -0.0209
vn 0.7152 0.6987 0.0186
vn 0.7762 0.6279 -0.0575
vn 0.4676 0.8686 0.1640
vn -0.1693 0.0134 -0.9855
vn -0.1402 0.0857 -0.9864
vn -0.1690 0.0139 -0.9855
vn -0.0362 0.1580 -0.9868
vn 0.0489 0.1499 -0.9875
vn 0.1090 0.1113 -0.9878
vn 0.1494 0.0432 -0.9878
vn 0.1511 0.0391 -0.9877
vn -0.9957 0.0856 -0.0365
vn -0.9959 0.0821 -0.0382
vn -0.9936 -0.1069 -0.0368
vn 0.1589 -0.0279 -0.9869
vn 0.1598 -0.0248 -0.9868
vn -0.9603 0.2764 -0.0369
vn -0.9603 0.2765 -0.0373
vn 0.1348 -0.0831 -0.9874
vn -0.6751 0.7373 0.0235
vn -0.6687 0.7435 -0.0119
vn -0.5814 0.8136 -0.0005
vn 0.0871 -0.1359 -0.9869
vn 0.0847 -0.1377 -0.9868
vn -0.0037 -0.1616 -0.9868
vn -0.0090 -0.1619 -0.9868
vn -0.0798 -0.1555 -0.9846
vn -0.0782 -0.1567 -0.9845
vn -0.1042 -0.1357 -0.9853
vn -0.0981 0.1390 -0.9854
vn -0.0796 0.1557 -0.9846
vn -0.0794 0.1547 -0.9848
vn -0.1056 -0.1341 -0.9853
vn -0.1466 -0.0696 -0.9867
vn 0.8320 0.5532 -0.0425
vn 0.7257 0.6869 -0.0381
vn -0.4650 0.8845 -0.0374
vn -0.6394 0.7679 -0.0386
vn -0.4646 0.8848 -0.0361
vn 0.0434 0.9936 -0.1041
vn 0.0548 0.9942 -0.0922
vn 0.0997 0.9940 -0.0447
vn 0.4770 0.5582 -0.6789
vn 0.4787 0.5566 -0.6790
vn 0.5679 0.4660 -0.6784
vn 0.2737 0.6846 -0.6756
vn 0.2695 0.6862 -0.6756
vn 0.1457 0.7270 -0.6710
vn -0.5861 0.8043 -0.0982
vn -0.0832 0.9828 -0.1646
vn 0.5598 0.8245 -0.0825
vn 0.6964 0.7163 -0.0432
vn -0.6527 0.7554 -0.0586
vn -0.5090 0.8607 -0.0152
vn -0.6143 -0.7881 -0.0402
vn -0.7005 -0.7125 -0.0402
vn 0.6242 0.7800 0.0435
vn -0.1725 -0.0190 -0.9848
vn 0.9287 -0.3309 0.1675
vn -0.0041 0.9999 0.0162
vn 0.0074 0.9995 0.0295
vn 0.0669 0.9929 0.0980
vn -0.3061 0.7040 0.6408
vn -0.3202 0.6512 0.6880
vn -0.3259 0.6532 0.6835
vn 0.6155 -0.2192 0.7570
vn 0.6155 -0.2193 0.7570
vn -0.4332 -0.5555 0.7097
vn -0.4966 -0.5031 0.7073
vn -0.3190 -0.6296 0.7084
vn -0.2701 -0.6532 0.7074
vn -0.3189 -0.6296 0.7084
vn 0.3717 -0.5891 0.7175
vn 0.2259 -0.6697 0.7074
vn 0.6703 -0.2232 0.7078
vn 0.6925 -0.1154 0.7121
vn 0.6703 -0.2232 0.7077
vn 0.9488 -0.3158 -0.0000
vn 0.3109 0.5770 0.7552
vn 0.3108 0.5771 0.7553
vn 0.3110 0.5770 0.7552
vn 0.5921 0.3849 0.7080
vn 0.5920 0.3848 0.7081
vn 0.6924 -0.1155 0.7122
vn 0.7062 -0.0064 0.7080
vn -0.1599 0.7889 0.5934
vn 0.1924 0.6755 0.7118
vn -0.1665 0.8155 0.5544
vn 0.3656 0.5990 0.7124
vn 0.2184 0.6409 0.7359
vn 0.3666 0.6037 0.7079
vn -0.5583 0.5504 0.6207
vn -0.6010 0.3664 0.7103
vn -0.5952 0.5621 0.5743
vn -0.6976 0.0597 0.7140
vn -0.6002 0.3477 0.7203
vn -0.7026 -0.0779 0.7073
vn -0.0020 0.0027 1.0000
vn 0.7875 -0.4782 0.3889
vn 0.7874 -0.4782 0.3889
vn 0.8700 -0.3115 0.3822
vn 0.5072 -0.4919 0.7076
vn 0.3717 -0.5890 0.7175
vn -0.9601 0.2774 -0.0360
vn -0.6678 0.3245 -0.6699
vn -0.6718 0.3164 -0.6697
vn -0.6013 0.4420 -0.6656
vn -0.7336 0.1302 -0.6670
vn -0.7339 0.1278 -0.6671
vn -0.7440 0.0420 -0.6669
vn -0.1143 0.1249 -0.9856
vn -0.0966 0.1401 -0.9854
vn -0.0218 0.0288 0.9993
vn -0.0014 0.0018 1.0000
vn -0.0795 0.1547 -0.9848
vn -0.0795 0.1545 -0.9848
vn -0.4632 0.8854 -0.0382
vn 0.8539 -0.5182 -0.0475
vn 0.7178 -0.6962 -0.0000
vn 0.9991 -0.0100 -0.0422
vn 0.9994 -0.0089 -0.0332
vn -0.9926 -0.1157 -0.0365
vn -0.9932 -0.1111 -0.0351
vn -0.4520 0.8915 -0.0306
vn -0.1455 -0.0719 -0.9867
vn 0.6703 -0.2233 0.7077
vn 0.5072 -0.4920 0.7077
vn -0.1372 0.0901 -0.9864
vn -0.0498 0.9988 -0.0013
vn 0.9858 0.1676 0.0131
vn 0.6870 0.1008 -0.7196
vn -0.2579 -0.5982 -0.7587
vn 0.5814 -0.3321 -0.7427
vn -0.2661 0.6979 -0.6649
vn 0.3743 0.9273 0.0001
vn -0.8702 0.4926 0.0063
vn 0.1536 -0.3236 0.9337
vn 0.4054 0.0362 0.9134
vn -0.6025 0.4605 -0.6519
vn -0.3103 -0.0410 0.9497
vn -0.7500 0.0170 -0.6612
vn 0.0546 -0.6396 -0.7668
vn 0.1932 0.7573 -0.6238
vn 0.1377 -0.9823 0.1269
vn 0.5760 0.0018 -0.8175
vn 0.1735 0.9780 0.1157
vn 0.6005 0.0115 0.7995
vn -0.9055 0.0001 0.4243
vn -0.7320 -0.0024 0.6813
vn 0.1397 0.9492 0.2821
vn -0.9747 -0.0000 -0.2233
vn 0.4845 -0.8683 0.1064
vn -0.5280 -0.3041 0.7929
vn -0.0006 -0.6923 0.7217
vn 0.5460 0.3152 0.7763
vn -0.5286 0.3052 0.7921
vn -0.0637 0.0546 -0.9965
vn -0.8650 0.4995 -0.0479
vn 0.1869 -0.0468 -0.9813
vn 0.9405 0.3100 -0.1392
vn -0.2706 -0.8779 -0.3950
vn 0.7130 -0.6578 -0.2428
vn -0.6665 -0.6762 -0.3138
vn 0.7032 0.7101 -0.0357
vn 0.9830 -0.0000 -0.1834
vn -0.1137 -0.9458 0.3043
vn 0.7320 0.0024 0.6813
vn 0.9258 -0.0001 0.3780
vn -0.1577 0.9711 0.1790
vn -0.1775 -0.9766 0.1217
vn -0.5760 -0.0018 -0.8175
vn -0.1330 0.9825 0.1305
vn -0.3818 -0.9234 -0.0392
vn -0.0303 0.1584 -0.9869
vn 0.1094 0.1108 -0.9878
vn 0.1357 -0.0815 -0.9874
vn -0.6793 0.7335 0.0212
vn 0.0082 0.9900 -0.1407
vn 0.6067 0.7839 -0.1320
vn -0.7019 -0.7112 -0.0396
vn 0.5893 0.8036 0.0838
vn -0.0524 0.9978 -0.0395
vn -0.2812 0.7784 0.5612
vn 0.6156 -0.2191 0.7570
vn 0.3107 0.5771 0.7553
vn 0.5922 0.3849 0.7079
vn 0.7061 -0.0064 0.7080
vn 0.6776 -0.6284 0.3821
vn -0.4985 0.8560 -0.1370
vn -0.4594 0.8873 -0.0410
vt 0.831128 0.981999
vt 0.815166 0.973583
vt 0.831977 0.975241
vt 0.764402 0.929253
vt 0.809628 0.924121
vt 0.809628 0.929257
vt 0.743444 0.976035
vt 0.759257 0.930076
vt 0.758966 0.973729
vt 0.764398 0.974478
vt 0.809623 0.974483
vt 0.809621 0.994925
vt 0.764397 0.979614
vt 0.809622 0.979619
vt 0.760905 0.924582
vt 0.760776 0.979207
vt 0.813466 0.979379
vt 0.814673 0.929943
vt 0.812913 0.924749
vt 0.743790 0.921681
vt 0.764405 0.908810
vt 0.764403 0.924116
vt 0.829830 0.927439
vt 0.828673 0.921398
vt 0.744477 0.982279
vt 0.813466 0.979379
vt 0.743444 0.976035
vt 0.759257 0.930076
vt 0.758966 0.973729
vt 0.809622 0.979619
vt 0.764402 0.929253
vt 0.760776 0.979207
vt 0.814673 0.929943
vt 0.812913 0.924749
vt 0.743790 0.921681
vt 0.829830 0.927439
vt 0.744477 0.982279
vt 0.742820 0.928237
vt 0.761676 0.881179
vt 0.706495 0.849732
vt 0.759729 0.843322
vt 0.599590 0.847703
vt 0.547614 0.882928
vt 0.546550 0.852541
vt 0.416131 0.868019
vt 0.390769 0.920350
vt 0.389192 0.867881
vt 0.458259 0.815350
vt 0.486448 0.854848
vt 0.453645 0.850293
vt 0.647291 0.816102
vt 0.642816 0.849388
vt 0.751559 0.910769
vt 0.708728 0.878615
vt 0.804154 0.334597
vt 0.847372 0.360200
vt 0.798638 0.340598
vt 0.825332 0.211506
vt 0.782648 0.237585
vt 0.821666 0.204410
vt 0.324882 0.867972
vt 0.355626 0.817712
vt 0.360012 0.867891
vt 0.785103 0.306985
vt 0.777657 0.309947
vt 0.842321 0.016488
vt 0.878641 0.072839
vt 0.848031 0.066851
vt 0.623697 0.811779
vt 0.611191 0.847547
vt 0.079060 0.934227
vt 0.096080 0.897247
vt 0.107862 0.932520
vt 0.825161 0.163322
vt 0.874023 0.128015
vt 0.864679 0.184134
vt 0.929487 0.306359
vt 0.936515 0.260664
vt 0.936515 0.310255
vt 0.021296 0.897352
vt 0.006189 0.932497
vt 0.867398 0.353735
vt 0.868384 0.361626
vt 0.611191 0.882841
vt 0.911039 0.005094
vt 0.905668 0.075586
vt 0.431647 0.882952
vt 0.435242 0.846205
vt 0.355630 0.918089
vt 0.485800 0.882536
vt 0.904407 0.131464
vt 0.904314 0.188070
vt 0.642715 0.880336
vt 0.451863 0.882395
vt 0.079557 0.964720
vt 0.005107 0.966891
vt 0.390750 0.815438
vt 0.741617 0.804136
vt 0.928669 0.073523
vt 0.486454 0.908425
vt 0.591661 0.911866
vt 0.601093 0.885101
vt 0.926838 0.250357
vt 0.923360 0.221001
vt 0.934303 0.247510
vt 0.450717 0.909243
vt 0.838108 0.120347
vt 0.016217 0.993058
vt 0.583224 0.810611
vt 0.935405 0.178982
vt 0.844246 0.203814
vt 0.842798 0.196043
vt 0.880169 0.198374
vt 0.931217 0.129778
vt 0.780090 0.273859
vt 0.928742 0.262148
vt 0.848539 0.352249
vt 0.903022 0.348123
vt 0.489651 0.821369
vt 0.100702 0.992734
vt 0.108433 0.966345
vt 0.772006 0.273431
vt 0.646273 0.904589
vt 0.705516 0.903965
vt 0.917391 0.225863
vt 0.898725 0.341410
vt 0.789774 0.241513
vt 0.878073 0.206089
vt 0.762645 0.214211
vt 0.813618 0.153350
vt 0.816493 0.194009
vt 0.667083 0.214210
vt 0.753947 0.156205
vt 0.615939 0.153842
vt 0.675478 0.155879
vt 0.107837 0.773462
vt 0.194987 0.733821
vt 0.203664 0.773462
vt 0.741038 0.072182
vt 0.701798 0.019015
vt 0.744338 0.020793
vt 0.116140 0.733441
vt 0.184400 0.691022
vt 0.676088 0.116552
vt 0.683545 0.132187
vt 0.720098 0.122971
vt 0.797870 0.114536
vt 0.783757 0.073675
vt 0.748184 0.008043
vt 0.698239 0.005434
vt 0.768909 0.041178
vt 0.757627 0.019921
vt 0.674421 0.037540
vt 0.700298 0.070580
vt 0.122176 0.691096
vt 0.177760 0.667147
vt 0.690937 0.099970
vt 0.292971 0.629971
vt 0.258925 0.657677
vt 0.255109 0.645052
vt 0.450678 0.726440
vt 0.397799 0.724316
vt 0.388543 0.714526
vt 0.353339 0.807167
vt 0.357283 0.739109
vt 0.419560 0.772188
vt 0.287849 0.559725
vt 0.223361 0.601889
vt 0.391378 0.727707
vt 0.320033 0.755991
vt 0.342346 0.811579
vt 0.262845 0.711850
vt 0.286743 0.664523
vt 0.287811 0.707294
vt 0.330122 0.617698
vt 0.339007 0.560252
vt 0.348520 0.563762
vt 0.388542 0.647845
vt 0.362271 0.635227
vt 0.360165 0.606005
vt 0.340910 0.623895
vt 0.347875 0.634277
vt 0.804002 0.863669
vt 0.846611 0.869945
vt 0.835128 0.891427
vt 0.361986 0.663828
vt 0.933216 0.856615
vt 0.918386 0.823047
vt 0.936952 0.823991
vt 0.871673 0.876366
vt 0.873403 0.898830
vt 0.909305 0.885597
vt 0.913140 0.846808
vt 0.895601 0.866280
vt 0.249109 0.650022
vt 0.241581 0.725755
vt 0.805368 0.005865
vt 0.831261 0.050717
vt 0.779471 0.050715
vt 0.782646 0.825923
vt 0.791981 0.825726
vt 0.940291 0.860643
vt 0.914811 0.893313
vt 0.874111 0.907496
vt 0.830795 0.900158
vt 0.794928 0.869491
vt 0.826242 0.849556
vt 0.268767 0.726907
vt 0.291720 0.811255
vt 0.227331 0.774740
vt 0.247213 0.742326
vt 0.475174 0.735120
vt 0.470878 0.704609
vt 0.481029 0.683875
vt 0.478791 0.631241
vt 0.458507 0.580461
vt 0.463703 0.578586
vt 0.117177 0.624322
vt 0.094833 0.680720
vt 0.113408 0.620337
vt 0.091521 0.730676
vt 0.089745 0.776857
vt 0.084637 0.729214
vt 0.097418 0.785069
vt 0.110731 0.829151
vt 0.490472 0.802510
vt 0.508709 0.739150
vt 0.513979 0.681398
vt 0.511616 0.623978
vt 0.500194 0.560474
vt 0.062711 0.670103
vt 0.075968 0.607329
vt 0.090425 0.698633
vt 0.058996 0.726912
vt 0.057975 0.785896
vt 0.065269 0.853647
vt 0.854315 0.732534
vt 0.884031 0.785895
vt 0.863995 0.792620
vt 0.902854 0.841083
vt 0.883764 0.852969
vt 0.960346 0.337290
vt 0.961087 0.274789
vt 0.981495 0.278496
vt 0.970812 0.218026
vt 0.993153 0.216780
vt 0.977151 0.153534
vt 0.963208 0.158945
vt 0.940971 0.102058
vt 0.893284 0.493965
vt 0.866624 0.436702
vt 0.893122 0.434178
vt 0.895007 0.368631
vt 0.540650 0.807784
vt 0.547164 0.738797
vt 0.550418 0.677287
vt 0.548069 0.616822
vt 0.031262 0.604200
vt 0.025526 0.670571
vt 0.020912 0.730614
vt 0.014346 0.795117
vt 0.822977 0.640659
vt 0.853926 0.670430
vt 0.822969 0.671610
vt 0.853512 0.700627
vt 0.825343 0.704289
vt 0.830061 0.737404
vt 0.846709 0.798737
vt 0.872081 0.857960
vt 0.972932 0.340422
vt 0.987739 0.279536
vt 0.913924 0.492219
vt 0.914221 0.432794
vt 0.917369 0.371518
vt 0.565281 0.803991
vt 0.569511 0.738403
vt 0.571738 0.675557
vt 0.568853 0.614197
vt 0.544403 0.552023
vt 0.564123 0.551508
vt 0.010557 0.605891
vt 0.005089 0.670835
vt 0.009133 0.730937
vt 0.857276 0.497640
vt 0.896716 0.526245
vt 0.860806 0.529110
vt 0.832389 0.500997
vt 0.836152 0.531522
vt 0.900176 0.559588
vt 0.862634 0.561806
vt 0.837612 0.561610
vt 0.841663 0.578158
vt 0.906136 0.559150
vt 0.899640 0.582345
vt 0.916481 0.523920
vt 0.036438 0.862995
vt 0.897544 0.595720
vt 0.861046 0.596694
vt 0.898941 0.614355
vt 0.857740 0.641914
vt 0.853280 0.606167
vt 0.825172 0.604482
vt 0.882432 0.664467
vt 0.901622 0.632729
vt 0.894670 0.643963
vt 0.875318 0.729189
vt 0.873192 0.699002
vt 0.947869 0.774962
vt 0.903088 0.732914
vt 0.947521 0.732549
vt 0.946212 0.572897
vt 0.927285 0.518576
vt 0.945765 0.518424
vt 0.947061 0.676411
vt 0.912516 0.646068
vt 0.946810 0.645787
vt 0.909415 0.676720
vt 0.914268 0.631435
vt 0.946690 0.631169
vt 0.932368 0.476127
vt 0.945417 0.476020
vt 0.920859 0.573105
vt 0.931463 0.789016
vt 0.898084 0.775371
vt 0.935187 0.452471
vt 0.945224 0.452389
vt 0.938535 0.425361
vt 0.473386 0.680602
vt 0.471659 0.636604
vt 0.944733 0.392515
vt 0.942187 0.392535
vt 0.102313 0.684695
vt 0.816156 0.421206
vt 0.803213 0.369231
vt 0.848085 0.373345
vt 0.821848 0.442814
vt 0.948081 0.800813
vt 0.947926 0.807892
vt 0.457779 0.768779
vt 0.460794 0.731918
vt 0.947772 0.344657
vt 0.362032 0.705911
vt 0.331473 0.753511
vt 0.323371 0.727860
vt 0.316849 0.615718
vt 0.324116 0.642366
vt 0.779472 0.020815
vt 0.831262 0.020817
vt 0.805365 0.065667
vt 0.415866 0.594509
vt 0.656488 0.068616
vt 0.638406 0.107910
vt 0.691662 0.493173
vt 0.738291 0.456884
vt 0.710822 0.504278
vt 0.636967 0.515136
vt 0.691587 0.515319
vt 0.652199 0.466938
vt 0.637041 0.492990
vt 0.622594 0.465829
vt 0.617066 0.502567
vt 0.688990 0.445778
vt 0.719131 0.445778
vt 0.979933 0.020200
vt 0.951509 0.018889
vt 0.972302 0.006931
vt 0.959059 0.056214
vt 0.972257 0.081554
vt 0.951384 0.069456
vt 0.959140 0.032158
vt 0.943753 0.056162
vt 0.943834 0.032106
vt 0.629858 0.447706
vt 0.638493 0.446596
vt 0.676679 0.467020
vt 0.596053 0.455981
vt 0.607037 0.451027
vt 0.979933 0.068312
vt 0.691662 0.493173
vt 0.636966 0.515136
vt 0.652199 0.466938
vt 0.972302 0.006931
vt 0.951384 0.069456
vt 0.959140 0.032158
vt 0.943834 0.032106
vt 0.638493 0.446596
vt 0.607037 0.451027
vt 0.269380 0.909637
vt 0.246723 0.902275
vt 0.246723 0.860890
vt 0.137842 0.860890
vt 0.137842 0.902275
vt 0.115185 0.909637
vt 0.137842 0.819505
vt 0.246723 0.803208
vt 0.246723 0.819505
vt 0.137842 0.926098
vt 0.246723 0.926098
vt 0.286083 0.848101
vt 0.295662 0.861285
vt 0.088903 0.861285
vt 0.098482 0.848101
vt 0.269380 0.909637
vt 0.246723 0.860890
vt 0.246723 0.902275
vt 0.137842 0.860890
vt 0.115185 0.909637
vt 0.137842 0.902275
vt 0.246723 0.819505
vt 0.137842 0.803208
vt 0.137842 0.819505
vt 0.137842 0.926098
vt 0.246723 0.926098
vt 0.286083 0.848101
vt 0.295662 0.861285
vt 0.088903 0.861285
vt 0.098482 0.848101
vt 0.450677 0.645203
vt 0.205238 0.730158
vt 0.198510 0.652358
vt 0.905997 0.971220
vt 0.882048 0.915636
vt 0.905923 0.908996
vt 0.651518 0.258096
vt 0.680985 0.239696
vt 0.677420 0.293793
vt 0.730297 0.231683
vt 0.678276 0.225232
vt 0.707304 0.293866
vt 0.720585 0.303963
vt 0.719705 0.274029
vt 0.615959 0.330643
vt 0.655071 0.375594
vt 0.948341 0.977256
vt 0.948721 0.898409
vt 0.739506 0.245731
vt 0.748111 0.270060
vt 0.988363 0.985558
vt 0.988363 0.889732
vt 0.646674 0.433935
vt 0.595521 0.373557
vt 0.733553 0.375920
vt 0.742252 0.433936
vt 0.793233 0.373064
vt 0.796109 0.413731
vt 0.775821 0.333691
vt 0.760834 0.293748
vt 0.725326 0.244726
vt 0.706084 0.581726
vt 0.610947 0.769166
vt 0.610664 0.570905
vt 0.810586 0.561661
vt 0.715128 0.760611
vt 0.357093 0.397011
vt 0.334493 0.321888
vt 0.538516 0.321888
vt 0.584234 0.568315
vt 0.389949 0.553428
vt 0.341987 0.439031
vt 0.528502 0.435549
vt 0.005100 0.215574
vt 0.086436 0.272963
vt 0.025304 0.268850
vt 0.338003 0.533135
vt 0.330979 0.546669
vt 0.553197 0.151149
vt 0.597247 0.085454
vt 0.598002 0.149497
vt 0.230874 0.039323
vt 0.166779 0.077741
vt 0.168586 0.045379
vt 0.106503 0.036424
vt 0.023106 0.056667
vt 0.052067 0.006814
vt 0.360535 0.154239
vt 0.542098 0.151571
vt 0.552519 0.192106
vt 0.596479 0.511548
vt 0.579054 0.432670
vt 0.439628 0.090717
vt 0.540595 0.083853
vt 0.578284 0.399939
vt 0.550761 0.051491
vt 0.551323 0.041060
vt 0.590179 0.342402
vt 0.778802 0.507630
vt 0.699708 0.531426
vt 0.622196 0.524099
vt 0.602786 0.520541
vt 0.551539 0.038606
vt 0.558253 0.025970
vt 0.568022 0.309165
vt 0.606826 0.237267
vt 0.625605 0.285022
vt 0.086505 0.170646
vt 0.239645 0.153438
vt 0.320050 0.280626
vt 0.235493 0.260561
vt 0.166184 0.090363
vt 0.232215 0.080548
vt 0.098814 0.070284
vt 0.096348 0.083010
vt 0.279266 0.069438
vt 0.316996 0.057612
vt 0.320050 0.127647
vt 0.497528 0.012219
vt 0.346121 0.031273
vt 0.356557 0.005092
vt 0.355571 0.310555
vt 0.551058 0.248299
vt 0.164168 0.195398
vt 0.008936 0.276093
vt 0.160609 0.266323
vt 0.327616 0.007729
vt 0.036151 0.297087
vt 0.009324 0.314800
vt 0.335795 0.251558
vt 0.364366 0.253100
vt 0.588579 0.799465
vt 0.583546 0.770967
vt 0.714495 0.788475
vt 0.613133 0.796815
vt 0.814922 0.772652
vt 0.340956 0.414413
vt 0.314474 0.437868
vt 0.315137 0.399412
vt 0.309271 0.522730
vt 0.232201 0.298624
vt 0.159181 0.294476
vt 0.086922 0.291711
vt 0.331453 0.080071
vt 0.332849 0.031931
vt 0.360279 0.080196
vt 0.333472 0.154692
vt 0.005078 0.496488
vt 0.237639 0.365036
vt 0.225823 0.583142
vt 0.325594 0.398806
vt 0.339143 0.381427
vt 0.306920 0.329271
vt 0.551363 0.083900
vt 0.601426 0.045481
vt 0.265845 0.366440
vt 0.291842 0.404236
vt 0.302237 0.471339
vt 0.282857 0.535094
vt 0.210754 0.599947
vt 0.172969 0.614185
vt 0.105840 0.606720
vt 0.026571 0.563159
vt 0.008556 0.518941
vt 0.005075 0.402090
vt 0.063818 0.334750
vt 0.126681 0.309780
vt 0.161978 0.312280
vt 0.235265 0.341811
vt 0.262675 0.026930
vt 0.303025 0.013945
vt 0.526531 0.396756
vt 0.546888 0.541608
vt 0.603426 0.033748
vt 0.764395 0.994920
vt 0.809630 0.908815
vt 0.809630 0.908815
vt 0.418627 0.913100
vt 0.700522 0.815020
vt 0.320179 0.830079
vt 0.875184 0.005781
vt 0.074773 0.900658
vt 0.444953 0.810786
vt 0.320178 0.905887
vt 0.935323 0.013471
vt 0.545979 0.907190
vt 0.433943 0.911560
vt 0.076610 0.989579
vt 0.542659 0.819552
vt 0.619257 0.908329
vt 0.418627 0.822989
vt 0.613158 0.194215
vt 0.687881 0.017156
vt 0.127021 0.667167
vt 0.944550 0.820260
vt 0.815909 0.820328
vt 0.116035 0.826856
vt 0.941012 0.328370
vt 0.097950 0.699923
vt 0.903548 0.617654
vt 0.897513 0.789846
vt 0.137842 0.803208
vt 0.246723 0.803208
vt 0.882068 0.966374
vt 0.666441 0.237207
vt 0.635046 0.291027
vt 0.592740 0.413936
vt 0.327217 0.303419
vt 0.806971 0.799476
vt 0.293070 0.543235
vt 0.315892 0.310337
s 1
usemtl None.007
f 484/1/1 474/2/1 480/3/1
f 454/4/2 461/5/2 467/6/2
f 464/7/3 482/8/3 448/9/3
f 451/10/4 466/6/4 471/11/4
f 8/12/5 445/13/5 479/14/5
f 481/8/6 459/15/6 456/4/6
f 447/9/7 450/10/7 444/16/7
f 478/17/8 472/11/8 476/2/8
f 468/18/9 465/6/9 463/19/9
f 4/8/10 460/20/10 458/15/10
f 20/21/11 462/5/11 14/22/11
f 469/18/12 5/3/12 475/2/12
f 487/23/13 13/19/13 6/24/13
f 9/18/14 10/11/14 2/6/14
f 16/10/15 483/8/15 11/4/15
f 3/14/16 452/10/17 473/11/16
f 18/25/18 449/9/18 446/16/18
f 524/3/19 521/26/19 518/2/19
f 511/6/20 501/22/20 505/5/20
f 508/27/21 526/28/21 492/29/21
f 495/10/3 510/6/3 515/11/3
f 28/12/5 489/13/5 523/30/5
f 525/28/22 503/15/22 500/31/22
f 491/29/23 494/10/23 488/32/23
f 522/26/24 516/11/24 520/2/24
f 512/33/25 509/6/25 507/34/25
f 24/28/26 504/35/26 502/15/26
f 40/21/11 506/5/11 34/22/11
f 519/2/4 39/36/4 25/3/4
f 531/36/27 33/34/27 26/24/27
f 29/33/28 30/11/29 22/6/28
f 36/10/30 527/28/31 31/31/31
f 23/30/32 496/10/32 517/11/32
f 38/37/33 493/29/33 490/32/33
f 572/1/18 562/2/18 568/3/18
f 555/6/34 545/22/34 549/5/34
f 536/29/12 573/38/12 570/28/12
f 539/10/21 554/6/21 559/11/21
f 48/12/5 533/13/5 567/30/5
f 569/28/35 547/15/35 544/31/35
f 535/29/36 538/10/36 532/32/36
f 566/26/37 560/11/37 564/2/37
f 556/33/38 553/6/38 551/34/38
f 44/28/13 548/35/13 546/15/13
f 60/21/11 550/5/11 54/22/11
f 563/2/3 59/36/3 45/3/3
f 575/36/10 53/34/10 46/24/10
f 49/33/39 50/11/39 42/6/39
f 51/31/40 55/29/40 571/28/40
f 43/30/41 540/10/42 561/11/41
f 58/37/1 537/29/1 534/32/1
f 612/3/33 609/26/33 606/2/33
f 586/31/43 593/5/43 599/6/43
f 580/29/4 617/38/4 614/28/4
f 603/11/12 587/31/12 598/6/12
f 68/12/5 577/13/5 611/30/5
f 613/28/44 591/15/44 588/31/44
f 579/29/45 582/10/45 576/32/45
f 610/26/46 604/11/46 608/2/46
f 600/33/47 597/6/47 595/34/47
f 64/28/27 592/35/27 590/15/27
f 80/21/11 594/5/11 74/22/11
f 601/33/21 65/3/21 607/2/21
f 619/36/26 73/34/26 66/24/26
f 69/33/48 70/11/49 62/6/48
f 76/10/50 615/28/51 71/31/51
f 605/11/52 72/13/52 584/10/52
f 78/37/19 581/29/19 578/32/19
f 122/39/53 693/40/54 642/41/55
f 623/42/56 622/43/57 688/44/58
f 94/45/59 628/46/60 87/47/61
f 666/48/5 638/49/5 124/50/5
f 104/51/5 692/40/5 650/52/5
f 95/53/62 669/54/63 628/39/60
f 646/55/64 99/56/65 648/57/64
f 690/58/66 633/59/67 672/60/68
f 689/61/5 683/62/5 97/63/5
f 106/64/69 131/57/70 129/65/71
f 654/66/5 127/67/5 652/68/5
f 673/69/5 650/52/5 624/70/5
f 685/71/5 643/72/5 128/73/5
f 643/74/5 123/75/5 128/76/5
f 657/77/72 134/78/73 653/79/74
f 649/80/5 685/71/5 683/81/5
f 99/56/65 661/82/75 132/83/76
f 112/52/77 621/84/78 98/70/78
f 676/67/79 637/85/80 640/86/81
f 639/50/82 637/87/80 681/88/83
f 625/47/84 642/89/55 641/63/85
f 688/44/58 629/90/86 96/49/87
f 677/76/88 651/91/89 655/92/90
f 83/40/91 695/93/92 112/52/77
f 675/75/93 640/86/81 651/91/89
f 96/49/87 630/94/94 639/50/82
f 684/81/95 120/95/96 627/96/97
f 641/63/85 626/97/98 625/47/84
f 692/40/5 631/98/5 125/41/5
f 126/88/5 666/48/5 124/50/5
f 125/89/5 689/61/5 97/63/5
f 116/85/99 845/99/100 117/86/101
f 86/43/102 634/100/103 114/90/104
f 847/101/105 86/43/102 85/102/106
f 678/103/107 663/104/108 101/105/109
f 636/106/110 116/87/99 115/94/111
f 133/107/5 127/67/5 123/75/5
f 659/95/112 687/108/113 121/96/114
f 82/44/5 673/109/5 624/42/5
f 118/91/115 852/110/116 119/92/117
f 636/106/110 114/90/104 634/100/103
f 691/111/118 672/60/68 135/112/119
f 134/78/73 678/103/107 101/105/109
f 103/113/120 691/111/118 135/112/119
f 117/86/101 850/114/121 118/91/115
f 105/115/5 140/116/5 137/117/5
f 661/82/75 644/118/122 132/83/76
f 662/119/5 82/44/5 638/49/5
f 852/120/116 659/95/112 119/121/117
f 136/59/123 679/115/124 130/122/125
f 645/123/126 85/84/106 84/93/127
f 130/122/125 106/64/69 129/65/71
f 645/123/126 669/54/63 88/124/128
f 665/125/129 103/113/120 102/104/130
f 674/126/131 100/79/132 644/118/122
f 121/97/114 94/45/59 87/47/61
f 107/55/5 680/64/5 137/117/5
f 680/64/5 105/115/5 137/117/5
f 105/115/5 144/127/5 110/58/5
f 110/58/5 143/111/5 109/128/5
f 109/128/5 142/125/5 141/103/5
f 141/103/5 140/116/5 109/128/5
f 140/116/5 108/77/5 139/126/5
f 137/117/5 139/126/5 138/82/5
f 140/116/5 139/126/5 137/117/5
f 110/58/5 109/128/5 140/116/5
f 148/129/133 149/130/134 146/131/135
f 699/132/136 700/133/137 698/129/138
f 147/132/139 150/134/140 703/135/141
f 696/136/142 705/137/143 697/138/144
f 716/139/145 718/140/146 714/141/147
f 704/142/148 712/143/149 705/137/143
f 703/135/141 727/144/150 724/145/151
f 151/133/152 164/146/153 717/139/154
f 149/147/134 153/139/155 707/148/156
f 722/149/157 719/140/158 720/150/159
f 707/151/156 157/141/160 723/152/161
f 713/153/162 158/140/163 711/154/164
f 154/155/165 159/156/166 156/143/167
f 709/157/168 729/146/168 726/144/168
f 163/144/169 728/146/169 725/145/169
f 655/121/90 111/71/170 677/73/88
f 736/158/171 750/159/171 734/160/171
f 743/161/172 739/162/173 731/163/174
f 176/164/175 170/165/176 167/166/177
f 183/167/178 177/158/179 169/168/180
f 741/165/181 171/163/181 740/169/181
f 746/170/182 749/164/182 748/171/182
f 812/172/11 800/173/11 795/174/11
f 755/175/183 758/176/184 757/177/185
f 733/178/186 761/179/187 763/180/188
f 760/181/189 764/180/189 765/182/189
f 766/182/190 186/180/190 762/179/190
f 785/183/191 778/184/191 808/185/191
f 730/163/11 788/186/11 732/178/11
f 792/187/192 768/188/192 782/189/192
f 807/185/193 776/190/193 803/191/193
f 797/192/194 772/193/194 793/187/194
f 802/191/195 774/194/195 798/192/195
f 179/195/196 178/159/197 208/196/198
f 190/197/11 192/198/11 188/199/11
f 784/183/199 779/200/200 781/201/201
f 197/189/202 789/202/203 791/187/204
f 796/192/205 790/202/205 794/203/205
f 801/191/206 200/203/206 799/204/206
f 806/185/207 202/204/207 804/205/207
f 194/183/208 805/205/209 195/206/210
f 783/201/211 769/207/211 786/183/211
f 811/172/212 813/208/212 809/196/212
f 175/209/213 166/210/214 810/211/215
f 220/212/216 287/213/217 224/214/218
f 227/215/219 828/216/220 230/217/221
f 828/218/220 233/219/222 230/220/221
f 837/221/223 238/222/224 236/223/225
f 834/224/226 241/225/227 238/222/224
f 217/226/228 220/212/216 221/227/229
f 221/227/229 224/214/218 225/228/230
f 225/228/230 227/215/219 228/229/231
f 228/229/231 230/217/221 231/230/232
f 230/220/221 234/231/233 231/232/232
f 291/233/234 234/231/233 233/219/222
f 237/234/235 238/222/224 824/235/236
f 824/235/236 241/225/227 825/236/237
f 244/237/238 816/238/239 245/239/240
f 245/239/240 819/240/241 246/241/242
f 246/242/242 821/243/243 247/244/244
f 247/244/244 822/245/245 248/246/246
f 256/247/247 827/248/248 826/249/249
f 211/250/250 818/251/251 214/252/252
f 818/251/251 218/253/253 214/252/252
f 218/254/253 221/227/229 222/255/254
f 222/255/254 225/228/230 226/256/255
f 226/256/255 228/229/231 823/257/256
f 823/257/256 228/229/231 231/230/232
f 232/258/257 234/231/233 235/259/258
f 289/260/259 239/235/260 240/261/261
f 275/262/262 243/263/263 258/264/264
f 258/264/264 277/265/265 278/266/266
f 259/267/267 245/239/240 260/268/268
f 260/268/268 246/241/242 261/269/269
f 261/270/269 247/244/244 262/271/270
f 262/271/270 247/244/244 248/246/246
f 817/272/271 214/252/252 212/273/272
f 212/273/272 218/253/253 215/274/273
f 215/275/273 222/255/254 219/276/274
f 219/276/274 226/256/255 223/277/275
f 249/278/276 232/279/257 250/280/277
f 250/281/277 235/259/258 263/282/278
f 291/233/234 837/221/223 236/223/225
f 290/283/279 289/260/259 240/261/261
f 210/284/280 252/285/281 251/286/282
f 292/287/283 251/286/282 295/288/284
f 251/286/282 254/289/285 253/290/286
f 295/288/284 253/290/286 296/291/287
f 296/291/287 253/290/286 857/292/288
f 254/289/285 839/293/289 276/294/290
f 211/250/250 831/295/291 252/285/281
f 248/246/246 827/248/248 256/247/247
f 240/261/261 242/236/292 257/296/293
f 223/277/275 229/257/294 249/278/276
f 252/285/281 839/293/289 254/289/285
f 276/294/290 253/290/286 254/289/285
f 276/294/290 841/297/295 840/298/296
f 241/299/227 274/300/297 825/301/237
f 242/301/292 275/262/262 257/302/293
f 274/300/297 272/303/298 243/263/263
f 241/299/227 842/304/299 843/305/300
f 277/265/265 209/306/301 244/237/238
f 278/266/266 244/237/238 259/267/267
f 273/307/302 243/263/263 272/303/298
f 848/308/303 268/309/304 281/310/305
f 846/311/306 270/312/307 851/313/308
f 635/314/309 288/315/310 91/316/311
f 281/310/305 267/317/312 90/314/313
f 91/316/311 265/318/314 282/319/315
f 284/313/316 855/320/317 285/321/318
f 282/319/315 264/322/319 283/311/320
f 255/323/321 266/324/322 280/308/323
f 285/321/318 854/325/324 92/326/325
f 92/326/325 854/325/324 269/327/326
f 286/328/327 224/214/218 287/213/217
f 224/214/218 835/329/328 227/215/219
f 93/330/329 269/327/326 216/331/330
f 263/282/278 289/260/259 290/283/279
f 235/259/258 237/234/235 289/260/259
f 291/233/234 237/234/235 234/231/233
f 830/332/331 291/233/234 233/219/222
f 857/292/288 253/290/286 840/298/296
f 859/333/332 858/334/333 217/335/228
f 210/284/280 294/336/334 213/251/335
f 231/230/232 232/279/257 229/257/294
f 255/323/321 89/337/336 279/338/337
f 255/323/321 280/308/323 89/337/336
f 220/212/216 858/339/333 856/340/338
f 293/341/339 93/330/329 216/331/330
f 780/342/11 730/163/11 742/165/11
f 742/165/11 745/343/11 198/344/11
f 745/343/11 747/170/11 198/344/11
f 747/170/11 814/208/11 198/344/11
f 814/208/11 812/172/11 795/174/11
f 198/344/11 814/208/11 795/174/11
f 812/172/11 751/159/11 800/173/11
f 751/159/11 737/158/11 800/173/11
f 737/158/11 754/345/11 204/346/11
f 754/345/11 756/175/11 204/346/11
f 756/175/11 759/181/11 204/346/11
f 759/181/11 187/182/11 204/346/11
f 187/182/11 184/179/11 788/186/11
f 184/179/11 732/178/11 788/186/11
f 788/186/11 204/346/11 187/182/11
f 198/344/11 780/342/11 742/165/11
f 737/158/11 204/346/11 800/173/11
f 188/199/11 189/347/11 190/197/11
f 190/197/11 191/348/11 192/198/11
f 192/198/11 193/349/11 188/199/11
f 185/181/187 181/175/340 763/180/188
f 181/175/340 182/177/341 763/180/188
f 182/177/341 168/350/342 763/180/188
f 168/350/342 733/178/186 763/180/188
f 164/146/153 710/154/343 717/139/154
f 164/146/153 152/135/344 161/145/344
f 713/351/162 162/157/345 727/144/150
f 713/351/162 727/144/150 150/352/140
f 867/353/346 890/354/346 302/355/346
f 864/356/347 866/353/347 871/357/347
f 880/358/5 870/359/5 879/360/5
f 880/358/5 868/353/5 870/359/5
f 878/360/348 869/359/349 865/361/350
f 868/353/5 872/362/5 884/363/5
f 860/364/351 881/365/351 883/366/351
f 888/367/352 873/368/352 874/369/352
f 863/370/353 307/371/353 300/372/353
f 867/353/346 885/363/346 890/354/346
f 298/356/347 306/359/347 305/353/347
f 879/360/5 886/373/5 882/374/5
f 882/374/5 880/358/5 879/360/5
f 880/358/5 875/375/5 868/353/5
f 865/361/350 887/376/354 876/377/355
f 876/377/355 878/360/348 865/361/350
f 868/353/5 875/375/5 872/362/5
f 860/364/351 862/370/351 881/365/351
f 888/367/352 892/378/352 873/368/352
f 863/370/353 310/367/353 307/371/353
f 889/367/5 312/370/5 861/364/5
f 861/364/5 891/378/5 889/367/5
f 301/373/356 314/360/357 877/377/356
f 898/379/358 317/355/358 297/354/358
f 895/380/359 902/357/359 897/379/359
f 907/381/5 906/360/5 901/359/5
f 907/381/5 901/359/5 899/379/5
f 905/360/360 896/361/361 900/359/362
f 899/379/5 884/363/5 872/362/5
f 311/364/363 309/382/363 908/365/363
f 909/367/364 903/383/364 299/368/364
f 894/384/365 316/385/365 320/371/365
f 898/379/358 297/354/358 304/363/358
f 315/380/359 318/379/359 319/359/359
f 906/360/5 882/386/5 886/373/5
f 882/386/5 906/360/5 907/381/5
f 907/381/5 899/379/5 904/375/5
f 896/361/361 313/387/366 303/376/367
f 313/387/366 896/361/361 905/360/360
f 899/379/5 872/362/5 904/375/5
f 311/364/363 908/365/363 893/384/363
f 909/367/364 299/368/364 308/378/364
f 894/384/365 320/371/365 321/367/365
f 910/367/5 861/364/5 322/384/5
f 861/364/5 910/367/5 891/378/5
f 301/373/356 877/387/356 323/360/368
f 914/388/3 915/389/3 917/390/3
f 925/391/12 923/392/12 922/393/12
f 920/394/369 911/395/369 912/396/369
f 916/389/370 333/391/370 328/390/370
f 926/391/371 913/396/371 918/390/371
f 331/397/372 327/389/372 326/398/372
f 324/399/3 325/400/3 917/390/3
f 325/400/3 914/388/3 917/390/3
f 922/393/12 330/401/12 925/391/12
f 330/401/12 329/402/12 925/391/12
f 930/403/3 933/404/3 931/405/3
f 941/406/12 938/407/12 939/408/12
f 928/409/373 935/410/373 936/411/373
f 338/404/374 940/408/374 932/405/374
f 929/409/375 942/406/375 934/404/375
f 337/405/376 341/412/376 336/413/376
f 334/414/3 933/404/3 335/415/3
f 335/415/3 933/404/3 930/403/3
f 938/407/12 941/406/12 340/416/12
f 340/416/12 941/406/12 339/417/12
f 731/163/174 165/178/377 738/418/377
f 738/418/377 743/161/172 731/163/174
f 173/343/175 170/165/176 176/164/175
f 170/165/176 172/169/378 167/166/177
f 180/345/178 177/158/179 183/167/178
f 177/158/179 735/160/379 169/168/180
f 178/159/197 206/172/197 208/196/198
f 208/196/198 815/419/380 752/420/381
f 752/420/381 179/195/196 208/196/198
f 207/208/382 174/170/383 810/211/215
f 174/170/383 175/209/213 810/211/215
f 217/335/228 213/251/335 859/333/332
f 213/251/335 294/336/334 859/333/332
f 953/421/384 949/422/385 947/423/386
f 948/424/387 955/425/388 957/426/389
f 952/427/390 956/425/391 345/428/392
f 958/426/393 960/429/394 972/430/395
f 346/425/396 359/431/397 349/426/398
f 961/432/399 957/426/389 962/433/400
f 964/434/401 348/423/402 353/435/403
f 945/431/404 344/436/405 350/437/406
f 967/438/407 353/435/403 965/439/408
f 966/440/409 961/441/399 962/433/400
f 356/440/410 969/442/411 968/443/412
f 355/443/413 354/444/414 357/445/415
f 946/431/416 971/430/416 959/429/416
f 354/446/414 360/430/417 350/447/406
f 350/437/406 360/430/417 945/431/404
f 972/430/395 352/442/418 351/433/419
f 351/433/419 958/426/393 972/430/395
f 347/448/420 359/431/397 346/425/396
f 359/431/397 361/429/421 349/426/398
f 377/449/422 1034/450/423 376/451/424
f 993/452/425 1038/453/425 995/449/425
f 431/454/426 410/455/427 378/456/428
f 1034/450/423 375/457/429 376/451/424
f 978/458/430 413/459/431 380/460/432
f 976/461/433 1052/462/434 1024/463/435
f 1050/464/436 977/458/436 1021/465/436
f 440/466/437 364/467/438 365/468/439
f 394/469/440 998/470/441 395/471/441
f 998/470/441 396/472/442 395/471/441
f 396/472/442 974/473/443 397/474/444
f 427/475/445 1083/476/446 1081/477/447
f 397/478/444 983/460/448 372/479/449
f 1083/476/446 435/480/450 437/481/451
f 983/460/448 371/482/452 372/479/449
f 1077/483/453 1068/480/454 373/484/455
f 371/482/452 992/456/456 370/485/457
f 370/486/457 994/449/458 369/487/459
f 369/487/459 996/451/460 368/488/461
f 996/451/460 367/489/462 368/488/461
f 1005/484/463 984/490/464 982/491/465
f 997/492/466 366/493/467 367/494/462
f 973/473/468 391/495/469 976/461/433
f 1010/496/470 420/497/471 421/498/472
f 1009/496/473 1001/499/474 987/500/475
f 384/501/476 1004/502/477 386/473/478
f 1002/499/479 388/470/480 382/500/481
f 1002/499/479 384/501/476 388/470/480
f 979/503/482 981/504/482 990/505/482
f 989/506/483 390/491/483 985/490/483
f 387/499/484 391/495/469 385/502/485
f 1012/507/486 420/508/471 381/506/487
f 1032/509/488 1000/510/489 375/492/429
f 1008/511/490 1052/462/434 391/495/469
f 1082/477/491 440/466/437 365/468/439
f 362/461/492 1022/463/492 1020/512/492
f 392/511/493 1062/498/494 1060/513/495
f 381/505/487 420/497/471 1010/496/470
f 1013/507/496 1016/514/497 1011/508/498
f 1019/512/499 1025/515/499 1017/516/500
f 404/509/501 1027/517/502 1029/518/502
f 406/450/503 1033/519/501 404/520/501
f 406/450/503 1039/521/504 1035/522/505
f 1042/523/506 1040/521/507 408/453/507
f 432/524/508 1046/525/509 1045/526/510
f 413/459/431 1072/524/511 431/454/426
f 416/465/512 1047/527/513 1049/464/514
f 1053/462/515 1026/515/516 401/463/516
f 1056/459/517 1048/527/518 1046/525/509
f 1057/528/519 1059/513/520 1061/498/521
f 417/462/522 1058/529/523 1055/530/524
f 1011/497/498 1057/528/519 1061/498/521
f 399/507/525 1065/531/526 1015/532/527
f 1066/475/528 1065/531/526 1063/533/529
f 1066/475/528 1028/517/530 1067/534/528
f 407/535/11 415/536/11 419/537/531
f 1071/454/532 1074/538/533 1069/539/534
f 434/539/535 1044/526/535 1043/540/536
f 1068/480/454 1012/507/486 373/484/455
f 435/480/450 427/475/445 425/533/537
f 1078/541/538 1079/481/539 1076/483/540
f 439/476/541 1084/466/542 441/477/543
f 439/476/541 1078/541/538 1084/466/542
f 438/483/544 1005/484/463 363/542/545
f 400/543/11 418/544/11 415/536/11
f 418/544/11 423/545/11 415/536/11
f 423/545/11 422/546/11 415/536/11
f 422/546/11 419/537/531 415/536/11
f 419/537/531 398/547/546 426/548/547
f 426/548/547 428/549/11 419/537/531
f 428/549/11 402/550/11 405/551/11
f 407/535/11 428/549/11 405/551/11
f 407/535/11 409/552/11 411/553/11
f 411/553/11 412/554/11 414/555/11
f 414/555/11 429/556/11 415/536/11
f 407/535/11 419/537/531 428/549/11
f 407/535/11 411/553/11 415/536/11
f 411/553/11 414/555/11 415/536/11
f 982/504/465 443/557/548 442/558/548
f 980/503/549 394/469/440 443/557/548
f 1010/496/470 383/503/550 381/505/487
f 378/456/428 379/559/551 431/454/426
f 431/454/426 1070/539/552 410/455/427
f 380/460/432 975/560/553 978/458/430
f 978/458/430 430/464/554 413/459/431
f 1081/477/447 374/510/555 403/518/556
f 403/518/556 427/475/445 1081/477/447
f 442/561/548 363/542/545 982/491/465
f 363/542/545 1005/484/463 982/491/465
f 389/490/557 373/484/455 381/506/487
f 373/484/455 1012/507/486 381/506/487
f 365/468/439 366/493/467 1082/477/491
f 366/493/467 999/510/558 1082/477/491
f 1045/526/510 1075/538/559 432/524/508
f 432/524/508 1056/459/517 1046/525/509
f 379/559/551 380/460/432 431/454/426
f 380/460/432 413/459/431 431/454/426
f 1043/540/536 1042/455/506 434/539/535
f 434/539/535 433/538/560 1044/526/535
f 363/542/545 364/467/438 438/483/544
f 364/467/438 436/541/561 438/483/544
f 484/1/1 477/17/1 474/2/1
f 454/4/2 457/22/2 461/5/2
f 464/7/3 485/38/3 482/8/3
f 451/10/4 455/4/4 466/6/4
f 8/12/5 453/562/5 445/13/5
f 4/8/10 7/38/10 460/20/10
f 20/21/11 486/563/11 462/5/11
f 469/18/12 19/23/12 5/3/12
f 487/23/13 470/18/13 13/19/13
f 9/18/14 1/2/14 10/11/14
f 16/10/15 15/9/15 483/8/15
f 3/14/16 12/13/17 452/10/17
f 18/25/18 17/7/18 449/9/18
f 524/3/19 528/1/19 521/26/19
f 511/6/20 498/31/20 501/22/20
f 508/27/21 529/38/21 526/28/21
f 495/10/3 499/31/3 510/6/3
f 28/12/5 497/562/5 489/13/5
f 24/28/26 27/38/26 504/35/26
f 40/21/11 530/564/11 506/5/11
f 519/2/4 513/33/4 39/36/4
f 531/36/27 514/33/27 33/34/27
f 29/33/28 21/2/29 30/11/29
f 36/10/30 35/29/30 527/28/31
f 23/30/32 32/13/32 496/10/32
f 38/37/33 37/27/33 493/29/33
f 572/1/18 565/26/18 562/2/18
f 555/6/34 542/31/34 545/22/34
f 536/29/12 552/27/12 573/38/12
f 539/10/21 543/31/21 554/6/21
f 48/12/5 541/562/5 533/13/5
f 44/28/13 47/38/13 548/35/13
f 60/21/11 574/564/11 550/5/11
f 563/2/3 557/33/3 59/36/3
f 575/36/10 558/33/10 53/34/10
f 49/33/39 41/2/39 50/11/39
f 51/31/40 56/10/40 55/29/40
f 43/30/41 52/13/42 540/10/42
f 58/37/1 57/27/1 537/29/1
f 612/3/33 616/1/33 609/26/33
f 586/31/43 589/22/43 593/5/43
f 580/29/4 596/27/4 617/38/4
f 603/11/12 583/10/12 587/31/12
f 68/12/5 585/562/5 577/13/5
f 64/28/27 67/38/27 592/35/27
f 80/21/11 618/564/11 594/5/11
f 601/33/21 79/36/21 65/3/21
f 619/36/26 602/33/26 73/34/26
f 69/33/48 61/2/49 70/11/49
f 76/10/50 75/29/50 615/28/51
f 605/11/52 63/30/52 72/13/52
f 78/37/19 77/27/19 581/29/19
f 122/39/53 670/54/562 693/40/54
f 623/42/56 620/102/563 622/43/57
f 94/45/59 95/565/62 628/46/60
f 666/48/5 662/119/5 638/49/5
f 104/51/5 632/566/5 692/40/5
f 95/53/62 88/124/128 669/54/63
f 646/55/64 660/117/564 99/56/65
f 690/58/66 667/127/565 633/59/67
f 689/61/5 649/567/5 683/62/5
f 106/64/69 647/55/566 131/57/70
f 654/66/5 126/568/5 127/67/5
f 673/69/5 104/51/5 650/52/5
f 685/71/5 656/569/5 643/72/5
f 643/74/5 133/107/5 123/75/5
f 657/77/72 682/116/567 134/78/73
f 649/80/5 656/569/5 685/71/5
f 99/56/65 660/117/564 661/82/75
f 112/52/77 695/93/92 621/84/78
f 676/67/79 681/568/83 637/85/80
f 639/50/82 630/94/94 637/87/80
f 625/47/84 122/46/53 642/89/55
f 688/44/58 622/43/57 629/90/86
f 677/76/88 675/75/93 651/91/89
f 83/40/91 113/54/568 695/93/92
f 675/75/93 676/67/79 640/86/81
f 96/49/87 629/90/86 630/94/94
f 684/81/95 111/71/170 120/95/96
f 641/63/85 81/62/569 626/97/98
f 692/40/5 632/566/5 631/98/5
f 126/88/5 654/570/5 666/48/5
f 125/89/5 631/571/5 689/61/5
f 116/85/99 844/572/570 845/99/100
f 86/43/102 849/573/571 634/100/103
f 847/101/105 849/573/571 86/43/102
f 678/103/107 664/125/572 663/104/108
f 636/106/110 844/574/570 116/87/99
f 133/107/5 652/68/5 127/67/5
f 659/95/112 686/575/573 687/108/113
f 82/44/5 671/576/5 673/109/5
f 118/91/115 850/114/121 852/110/116
f 636/106/110 115/94/111 114/90/104
f 691/111/118 690/58/66 672/60/68
f 134/78/73 682/116/567 678/103/107
f 103/113/120 694/128/574 691/111/118
f 117/86/101 845/99/100 850/114/121
f 105/115/5 110/58/5 140/116/5
f 661/82/75 674/126/131 644/118/122
f 662/119/5 671/576/5 82/44/5
f 852/120/116 686/575/573 659/95/112
f 136/59/123 668/127/575 679/115/124
f 645/123/126 847/577/105 85/84/106
f 130/122/125 679/115/124 106/64/69
f 645/123/126 84/93/127 669/54/63
f 665/125/129 694/128/574 103/113/120
f 674/126/131 658/77/576 100/79/132
f 121/97/114 687/578/113 94/45/59
f 148/129/133 701/133/577 149/130/134
f 699/132/136 702/135/578 700/133/137
f 147/132/139 145/579/579 150/134/140
f 696/136/142 704/142/148 705/137/143
f 716/139/145 155/154/580 718/140/146
f 704/142/148 706/155/581 712/143/149
f 703/135/141 150/352/140 727/144/150
f 149/147/134 701/133/577 153/139/155
f 722/149/157 715/141/582 719/140/158
f 707/151/156 153/139/155 157/141/160
f 713/153/162 721/580/583 158/140/163
f 154/155/165 160/581/584 159/156/166
f 655/121/90 120/95/96 111/71/170
f 746/170/182 744/343/182 749/164/182
f 755/175/183 753/345/585 758/176/184
f 785/183/191 770/207/191 778/184/191
f 730/163/11 780/342/11 788/186/11
f 792/187/192 771/193/192 768/188/192
f 807/185/193 777/184/193 776/190/193
f 797/192/194 773/194/194 772/193/194
f 802/191/195 775/190/195 774/194/195
f 784/183/199 787/206/586 779/200/200
f 197/189/202 196/582/587 789/202/203
f 796/192/205 199/187/205 790/202/205
f 801/191/206 201/192/588 200/203/206
f 806/185/207 203/191/207 202/204/207
f 194/183/208 205/185/589 805/205/209
f 783/201/211 767/583/211 769/207/211
f 220/212/216 856/340/338 287/213/217
f 227/215/219 835/329/328 828/216/220
f 828/218/220 830/332/331 233/219/222
f 837/221/223 834/224/226 238/222/224
f 834/224/226 832/584/590 241/225/227
f 217/226/228 858/339/333 220/212/216
f 221/227/229 220/212/216 224/214/218
f 225/228/230 224/214/218 227/215/219
f 228/229/231 227/215/219 230/217/221
f 230/220/221 233/219/222 234/231/233
f 237/234/235 236/223/225 238/222/224
f 824/235/236 238/222/224 241/225/227
f 244/237/238 209/306/301 816/238/239
f 245/239/240 816/238/239 819/240/241
f 246/242/242 819/585/241 821/243/243
f 247/244/244 821/243/243 822/245/245
f 211/250/250 210/284/280 818/251/251
f 818/251/251 820/335/591 218/253/253
f 218/254/253 820/226/591 221/227/229
f 222/255/254 221/227/229 225/228/230
f 226/256/255 225/228/230 228/229/231
f 232/258/257 231/232/232 234/231/233
f 289/260/259 237/234/235 239/235/260
f 275/262/262 274/300/297 243/263/263
f 258/264/264 243/263/263 277/265/265
f 259/267/267 244/237/238 245/239/240
f 260/268/268 245/239/240 246/241/242
f 261/270/269 246/242/242 247/244/244
f 817/272/271 211/250/250 214/252/252
f 212/273/272 214/252/252 218/253/253
f 215/275/273 218/254/253 222/255/254
f 219/276/274 222/255/254 226/256/255
f 249/278/276 229/257/294 232/279/257
f 250/281/277 232/258/257 235/259/258
f 291/233/234 853/586/592 837/221/223
f 210/284/280 211/250/250 252/285/281
f 292/287/283 210/284/280 251/286/282
f 251/286/282 252/285/281 254/289/285
f 295/288/284 251/286/282 253/290/286
f 211/250/250 817/272/271 831/295/291
f 248/246/246 822/245/245 827/248/248
f 240/261/261 239/235/260 242/236/292
f 223/277/275 226/256/255 229/257/294
f 252/285/281 831/295/291 839/293/289
f 276/294/290 840/298/296 253/290/286
f 241/299/227 843/305/300 274/300/297
f 242/301/292 274/300/297 275/262/262
f 274/300/297 843/305/300 272/303/298
f 241/299/227 832/587/590 842/304/299
f 277/265/265 273/307/302 209/306/301
f 278/266/266 277/265/265 244/237/238
f 273/307/302 277/265/265 243/263/263
f 848/308/303 833/324/593 268/309/304
f 846/311/306 829/322/594 270/312/307
f 635/314/309 838/317/595 288/315/310
f 281/310/305 268/309/304 267/317/312
f 91/316/311 288/315/310 265/318/314
f 284/313/316 836/312/596 855/320/317
f 282/319/315 265/318/314 264/322/319
f 255/323/321 271/588/597 266/324/322
f 285/321/318 855/320/317 854/325/324
f 224/214/218 286/328/327 835/329/328
f 93/330/329 92/326/325 269/327/326
f 263/282/278 235/259/258 289/260/259
f 235/259/258 234/231/233 237/234/235
f 291/233/234 236/223/225 237/234/235
f 830/332/331 853/586/592 291/233/234
f 210/284/280 292/287/283 294/336/334
f 164/146/153 708/157/344 710/154/343
f 164/146/153 151/133/152 152/135/344
f 713/351/162 711/154/164 162/157/345
f 920/394/369 919/589/369 911/395/369
f 916/389/370 924/392/370 333/391/370
f 926/391/371 921/394/371 913/396/371
f 331/397/372 332/392/372 327/389/372
f 928/409/373 927/590/373 935/410/373
f 338/404/374 343/406/374 940/408/374
f 929/409/375 937/411/375 942/406/375
f 337/405/376 342/408/376 341/412/376
f 953/421/384 951/591/598 949/422/385
f 948/424/387 950/592/599 955/425/388
f 952/427/390 944/448/600 956/425/391
f 961/432/399 948/593/387 957/426/389
f 964/434/401 954/421/601 348/423/402
f 945/431/404 943/448/602 344/436/405
f 967/438/407 964/434/401 353/435/403
f 966/440/409 358/594/603 961/441/399
f 356/440/410 963/433/604 969/442/411
f 355/443/413 970/442/605 354/444/414
f 354/446/414 970/442/605 360/430/417
f 377/449/422 1036/453/606 1034/450/423
f 993/452/425 1041/523/425 1038/453/425
f 1034/450/423 1032/520/488 375/457/429
f 976/461/433 391/495/469 1052/462/434
f 440/466/437 436/541/561 364/467/438
f 394/469/440 986/500/607 998/470/441
f 998/470/441 1003/501/608 396/472/442
f 396/472/442 1003/501/608 974/473/443
f 397/478/444 974/560/443 983/460/448
f 1083/476/446 427/475/445 435/480/450
f 983/460/448 991/559/609 371/482/452
f 1077/483/453 1080/481/610 1068/480/454
f 371/482/452 991/559/609 992/456/456
f 370/486/457 992/452/456 994/449/458
f 369/487/459 994/449/458 996/451/460
f 996/451/460 997/457/466 367/489/462
f 997/492/466 999/510/558 366/493/467
f 973/473/468 385/502/485 391/495/469
f 1009/496/473 1006/511/611 1001/499/474
f 1002/499/479 1004/502/477 384/501/476
f 387/499/484 1007/511/612 391/495/469
f 1032/509/488 1030/518/613 1000/510/489
f 1008/511/490 424/513/614 1052/462/434
f 392/511/493 393/496/615 1062/498/494
f 1013/507/496 1014/532/616 1016/514/497
f 1019/512/499 1023/463/617 1025/515/499
f 404/509/501 1033/595/501 1027/517/502
f 406/450/503 1035/522/505 1033/519/501
f 406/450/503 1037/453/504 1039/521/504
f 1042/523/506 1043/596/536 1040/521/507
f 416/465/512 1018/597/618 1047/527/513
f 1053/462/515 1054/530/619 1026/515/516
f 1056/459/517 1051/464/620 1048/527/518
f 1057/528/519 1058/529/523 1059/513/520
f 417/462/522 1059/513/520 1058/529/523
f 1011/497/498 1016/598/497 1057/528/519
f 399/507/525 1063/533/529 1065/531/526
f 1066/475/528 1067/534/528 1065/531/526
f 1066/475/528 1031/518/530 1028/517/530
f 1071/454/532 1073/524/621 1074/538/533
f 1068/480/454 1064/533/622 1012/507/486
f 439/476/541 1079/481/539 1078/541/538
f 982/504/465 980/503/549 443/557/548
f 980/503/549 986/500/607 394/469/440
f 1010/496/470 988/500/623 383/503/550
