# Blender 5.0.1
# www.blender.org
mtllib 101.mtl
o 101
v 0.000000 -0.110173 0.003832
v 0.104780 -0.034045 0.003832
v 0.064758 -0.089131 -0.106058
v 0.104780 -0.034045 -0.106058
v -0.064758 -0.089131 0.003832
v -0.064758 -0.089131 -0.106058
v 0.064758 -0.089131 0.003832
v -0.104780 -0.034045 0.003832
v 0.000000 -0.147394 0.199903
v 0.000000 -0.201278 0.199903
v -0.191422 -0.062202 0.199903
v 0.191422 -0.062202 0.199903
v -0.192229 -0.062459 0.103306
v -0.140176 -0.045552 0.199903
v 0.086634 -0.119246 0.199903
v -0.086634 -0.119246 0.199903
v 0.140176 -0.045552 0.199903
v 0.047530 -0.065426 0.225258
v 0.107413 -0.034901 0.149154
v 0.066385 -0.091371 0.149154
v -0.066385 -0.091371 0.149154
v -0.107413 -0.034901 0.149154
v 0.000000 -0.080869 0.225258
v -0.043278 -0.054848 0.225258
v 0.054850 -0.043280 0.225258
v -0.043278 -0.054848 0.605054
v -0.043278 -0.043280 0.616622
v 0.054850 -0.043280 0.605054
v 0.043281 -0.054848 0.225258
v 0.043281 -0.054848 0.605054
v -0.054847 -0.043280 0.225258
v 0.118804 -0.163520 0.103306
v 0.113158 -0.155749 0.003832
v -0.183094 -0.059490 0.003832
v -0.113158 -0.155749 0.003832
v -0.118804 -0.163520 0.103306
v 0.192229 -0.062459 0.103306
v 0.173075 -0.118767 0.624478
v 0.139431 -0.118767 0.643902
v 0.105788 -0.118767 0.585630
v 0.172981 -0.089814 0.682138
v -0.172977 -0.043278 0.682138
v 0.206725 -0.089814 0.648394
v 0.206725 -0.089814 0.561715
v 0.206725 -0.043278 0.648394
v 0.172981 -0.043278 0.682138
v -0.172977 -0.089814 0.682138
v -0.172977 -0.089814 0.527971
v -0.206721 -0.089814 0.648394
v -0.206721 -0.043278 0.561715
v -0.104030 -0.118767 0.624478
v -0.104030 -0.118767 0.585630
v -0.137674 -0.118767 0.643902
v -0.137674 -0.118767 0.566206
v 0.000000 -0.110173 -0.106058
v -0.104780 -0.034045 -0.106058
v 0.000000 -0.192516 0.003832
v 0.183094 -0.059490 0.003832
v 0.118305 -0.162838 0.199903
v -0.118305 -0.162838 0.199903
v -0.076906 -0.024994 0.225258
v 0.076906 -0.024994 0.225258
v -0.047530 -0.065426 0.225258
v 0.000000 -0.112941 0.149154
v 0.043281 -0.043280 0.616622
v -0.054847 -0.043280 0.605054
v 0.000000 -0.202122 0.103306
v 0.139431 -0.118767 0.566206
v 0.105788 -0.118767 0.624478
v 0.173075 -0.118767 0.585630
v -0.172977 -0.043278 0.527971
v 0.172981 -0.089814 0.527971
v 0.172981 -0.043278 0.527971
v 0.206725 -0.043278 0.561715
v -0.206721 -0.089814 0.561715
v -0.206721 -0.043278 0.648394
v -0.171317 -0.118767 0.585630
v -0.171317 -0.118767 0.624478
v 0.054850 0.000000 0.605054
v 0.043281 0.000000 0.616622
v -0.043278 0.000000 0.616622
v -0.054847 0.000000 0.605054
v -0.054847 0.000000 0.225258
v 0.054850 0.000000 0.225258
v 0.173075 -0.089814 0.585630
v 0.139431 -0.089814 0.643902
v 0.105788 -0.089814 0.585630
v 0.173075 -0.089814 0.624478
v 0.139431 -0.089814 0.566206
v 0.105788 -0.089814 0.624478
v -0.104030 -0.089814 0.585630
v -0.137674 -0.089814 0.643902
v -0.104030 -0.089814 0.624478
v -0.171317 -0.089814 0.624478
v -0.171317 -0.089814 0.585630
v -0.137674 -0.089814 0.566206
v -0.104780 -0.000000 -0.106058
v -0.191422 0.000000 0.199903
v -0.104780 0.000000 0.003832
v -0.107413 0.000000 0.149154
v -0.183094 0.000000 0.003832
v -0.192229 0.000000 0.103306
v -0.140176 0.000000 0.199903
v -0.076906 0.000000 0.225258
v 0.183094 0.000000 0.003832
v 0.192229 0.000000 0.103306
v 0.140176 0.000000 0.199903
v 0.104780 -0.000000 -0.106058
v 0.104780 0.000000 0.003832
v 0.076906 0.000000 0.225258
v 0.191422 0.000000 0.199903
v 0.107413 0.000000 0.149154
v 0.000000 0.110173 0.003832
v 0.104780 0.034045 0.003832
v 0.064758 0.089131 -0.106058
v 0.104780 0.034045 -0.106058
v -0.064758 0.089131 0.003832
v -0.064758 0.089131 -0.106058
v 0.064758 0.089131 0.003832
v -0.104780 0.034045 0.003832
v 0.000000 0.147394 0.199903
v 0.118804 0.163520 0.103306
v 0.000000 0.201278 0.199903
v 0.000000 0.202122 0.103306
v -0.191422 0.062202 0.199903
v 0.191422 0.062202 0.199903
v -0.192229 0.062459 0.103306
v -0.140176 0.045552 0.199903
v 0.086634 0.119246 0.199903
v -0.086634 0.119246 0.199903
v 0.140176 0.045552 0.199903
v 0.047530 0.065426 0.225258
v 0.107413 0.034901 0.149154
v 0.066385 0.091371 0.149154
v -0.066385 0.091371 0.149154
v -0.107413 0.034901 0.149154
v 0.000000 0.080869 0.225258
v -0.043278 0.054848 0.225258
v 0.054850 0.043280 0.225258
v -0.043278 0.054848 0.605054
v -0.043278 0.043280 0.616622
v 0.054850 0.043280 0.605054
v 0.043281 0.054848 0.225258
v 0.043281 0.054848 0.605054
v -0.054847 0.043280 0.225258
v 0.113158 0.155749 0.003832
v -0.183094 0.059490 0.003832
v -0.113158 0.155749 0.003832
v -0.118804 0.163520 0.103306
v 0.173075 0.118767 0.624478
v 0.139431 0.118767 0.643902
v 0.105788 0.118767 0.585630
v 0.172981 0.089814 0.682138
v -0.172977 0.043278 0.682138
v 0.206725 0.089814 0.648394
v 0.206725 0.089814 0.561715
v 0.206725 0.043278 0.648394
v 0.172981 0.043278 0.682138
v -0.172977 0.089814 0.682138
v -0.172977 0.089814 0.527971
v -0.206721 0.089814 0.648394
v -0.206721 0.043278 0.561715
v -0.104030 0.118767 0.624478
v -0.104030 0.118767 0.585630
v -0.137674 0.118767 0.643902
v -0.137674 0.118767 0.566206
v 0.000000 0.110173 -0.106058
v -0.104780 0.034045 -0.106058
v 0.000000 0.192516 0.003832
v 0.183094 0.059490 0.003832
v 0.118305 0.162838 0.199903
v -0.118305 0.162838 0.199903
v -0.076906 0.024994 0.225258
v 0.076906 0.024994 0.225258
v -0.047530 0.065426 0.225258
v 0.000000 0.112941 0.149154
v 0.043281 0.043280 0.616622
v -0.054847 0.043280 0.605054
v 0.192229 0.062459 0.103306
v 0.139431 0.118767 0.566206
v 0.105788 0.118767 0.624478
v 0.173075 0.118767 0.585630
v -0.172977 0.043278 0.527971
v 0.172981 0.089814 0.527971
v 0.172981 0.043278 0.527971
v 0.206725 0.043278 0.561715
v -0.206721 0.089814 0.561715
v -0.206721 0.043278 0.648394
v -0.171317 0.118767 0.585630
v -0.171317 0.118767 0.624478
v 0.173075 0.089814 0.585630
v 0.139431 0.089814 0.643902
v 0.105788 0.089814 0.585630
v 0.173075 0.089814 0.624478
v 0.139431 0.089814 0.566206
v 0.105788 0.089814 0.624478
v -0.104030 0.089814 0.585630
v -0.137674 0.089814 0.643902
v -0.104030 0.089814 0.624478
v -0.171317 0.089814 0.624478
v -0.171317 0.089814 0.585630
v -0.137674 0.089814 0.566206
v -0.138142 0.042487 0.665454
v -0.084391 -0.042487 0.625371
v -0.145326 -0.033526 0.670812
v -0.222627 0.033526 0.433165
v -0.229811 0.042487 0.438522
v -0.229811 -0.042486 0.438522
v -0.283562 0.042487 0.478605
v -0.290746 -0.033526 0.483962
v -0.222627 -0.033526 0.433165
v -0.077207 -0.033526 0.620014
v -0.077207 0.033526 0.620014
v -0.243573 -0.062739 0.403769
v -0.243301 0.059334 0.404136
v -0.218825 -0.062827 0.429126
v -0.314663 -0.062739 0.456366
v -0.314391 0.059334 0.456734
v -0.218553 0.059246 0.429493
v -0.297381 0.059246 0.487816
v -0.369501 -0.062739 0.467076
v -0.217022 0.059334 0.354829
v -0.356905 -0.062827 0.501425
v -0.356633 0.059246 0.501792
v -0.188130 -0.062827 0.376552
v -0.217293 -0.062739 0.354462
v -0.297653 -0.062827 0.487449
v -0.084391 0.042487 0.625371
v -0.283562 -0.042486 0.478605
v -0.290746 0.033526 0.483962
v -0.138142 -0.042487 0.665454
v -0.145326 0.033526 0.670812
v -0.369229 0.059334 0.467443
v -0.187858 0.059246 0.376919
v 0.138142 -0.042487 0.665454
v 0.084391 0.042487 0.625371
v 0.145326 0.033526 0.670812
v 0.222627 -0.033526 0.433165
v 0.229811 -0.042487 0.438522
v 0.229811 0.042486 0.438522
v 0.283562 -0.042487 0.478605
v 0.290746 0.033526 0.483962
v 0.222627 0.033526 0.433165
v 0.077207 0.033526 0.620014
v 0.077207 -0.033526 0.620014
v 0.243573 0.062739 0.403769
v 0.243301 -0.059334 0.404136
v 0.218825 0.062827 0.429126
v 0.314663 0.062739 0.456366
v 0.314391 -0.059334 0.456734
v 0.218553 -0.059246 0.429493
v 0.297381 -0.059246 0.487816
v 0.369501 0.062739 0.467076
v 0.217022 -0.059334 0.354829
v 0.356905 0.062827 0.501425
v 0.356633 -0.059246 0.501792
v 0.188130 0.062827 0.376552
v 0.217293 0.062739 0.354462
v 0.297653 0.062827 0.487449
v 0.084391 -0.042487 0.625371
v 0.283562 0.042487 0.478605
v 0.290746 -0.033526 0.483962
v 0.138142 0.042487 0.665454
v 0.145326 -0.033526 0.670812
v 0.369229 -0.059334 0.467443
v 0.187858 -0.059246 0.376919
v 0.000000 -0.088904 0.248772
v 0.000000 -0.088904 0.184925
v 0.000000 -0.152750 0.235491
v 0.000000 -0.139470 0.248772
v 0.000000 -0.139470 0.184925
v 0.000000 -0.152750 0.198206
v 0.048062 -0.074791 0.258954
v 0.048062 -0.074791 0.195107
v 0.082580 -0.128503 0.245674
v 0.075400 -0.117330 0.258954
v 0.075400 -0.117330 0.195107
v 0.082580 -0.128503 0.208387
v 0.080865 -0.036935 0.269136
v 0.080865 -0.036935 0.205289
v 0.138942 -0.063458 0.255855
v 0.126862 -0.057942 0.269136
v 0.126862 -0.057942 0.205289
v 0.138942 -0.063458 0.218570
v 0.087993 0.012646 0.279318
v 0.087993 0.012646 0.215470
v 0.151190 0.021732 0.266037
v 0.138045 0.019842 0.279318
v 0.138045 0.019842 0.215470
v 0.151190 0.021732 0.228751
v 0.067185 0.058210 0.289499
v 0.067185 0.058210 0.225653
v 0.115437 0.100021 0.276218
v 0.105400 0.091324 0.289499
v 0.105400 0.091324 0.225653
v 0.115437 0.100021 0.238933
v 0.025046 0.085291 0.299682
v 0.025046 0.085291 0.235834
v 0.043034 0.146552 0.286401
v 0.039292 0.133810 0.299682
v 0.039292 0.133810 0.235834
v 0.043034 0.146552 0.249115
v -0.025046 0.085291 0.309863
v -0.025046 0.085291 0.246016
v -0.043034 0.146552 0.296582
v -0.039292 0.133810 0.309863
v -0.039292 0.133810 0.246016
v -0.043034 0.146552 0.259297
v -0.067185 0.058210 0.320045
v -0.067185 0.058210 0.256198
v -0.115437 0.100021 0.306764
v -0.105400 0.091324 0.320045
v -0.105400 0.091324 0.256198
v -0.115437 0.100021 0.269478
v -0.087993 0.012646 0.330226
v -0.087993 0.012646 0.266380
v -0.151190 0.021732 0.316946
v -0.138045 0.019842 0.330226
v -0.138045 0.019842 0.266380
v -0.151190 0.021732 0.279660
v -0.080865 -0.036935 0.340409
v -0.080865 -0.036935 0.276562
v -0.138942 -0.063458 0.327128
v -0.126862 -0.057942 0.340409
v -0.126862 -0.057942 0.276562
v -0.138942 -0.063458 0.289842
v -0.048062 -0.074791 0.350590
v -0.048062 -0.074791 0.286743
v -0.082580 -0.128503 0.337310
v -0.075400 -0.117330 0.350590
v -0.075400 -0.117330 0.286743
v -0.082580 -0.128503 0.300024
v 0.000000 -0.088904 0.360772
v 0.000000 -0.088904 0.296925
v 0.000000 -0.152750 0.347491
v 0.000000 -0.139470 0.360772
v 0.000000 -0.139470 0.296925
v 0.000000 -0.152750 0.310206
v 0.048062 -0.074791 0.370954
v 0.048062 -0.074791 0.307107
v 0.082580 -0.128503 0.357674
v 0.075400 -0.117330 0.370954
v 0.075400 -0.117330 0.307107
v 0.082580 -0.128503 0.320387
v 0.080865 -0.036935 0.381136
v 0.080865 -0.036935 0.317289
v 0.138942 -0.063458 0.367855
v 0.126862 -0.057942 0.381136
v 0.126862 -0.057942 0.317289
v 0.138942 -0.063458 0.330570
v 0.087993 0.012646 0.391318
v 0.087993 0.012646 0.327470
v 0.151190 0.021732 0.378037
v 0.138045 0.019842 0.391318
v 0.138045 0.019842 0.327470
v 0.151190 0.021732 0.340751
v 0.067185 0.058210 0.401499
v 0.067185 0.058210 0.337652
v 0.115437 0.100021 0.388218
v 0.105400 0.091324 0.401499
v 0.105400 0.091324 0.337652
v 0.115437 0.100021 0.350933
v 0.025046 0.085291 0.411682
v 0.025046 0.085291 0.347834
v 0.043034 0.146552 0.398401
v 0.039292 0.133810 0.411682
v 0.039292 0.133810 0.347834
v 0.043034 0.146552 0.361115
v -0.025046 0.085291 0.421863
v -0.025046 0.085291 0.358016
v -0.043033 0.146552 0.408582
v -0.039291 0.133810 0.421863
v -0.039291 0.133810 0.358016
v -0.043033 0.146552 0.371297
v -0.067185 0.058210 0.432045
v -0.067185 0.058210 0.368198
v -0.115437 0.100021 0.418764
v -0.105400 0.091324 0.432045
v -0.105400 0.091324 0.368198
v -0.115437 0.100021 0.381478
v -0.087993 0.012646 0.442226
v -0.087993 0.012646 0.378380
v -0.151190 0.021732 0.428946
v -0.138045 0.019842 0.442226
v -0.138045 0.019842 0.378380
v -0.151190 0.021732 0.391660
v -0.080865 -0.036935 0.452409
v -0.080865 -0.036935 0.388562
v -0.138942 -0.063458 0.439128
v -0.126862 -0.057942 0.452409
v -0.126862 -0.057942 0.388562
v -0.138942 -0.063458 0.401842
v -0.048062 -0.074791 0.462590
v -0.048062 -0.074791 0.398743
v -0.082580 -0.128503 0.449310
v -0.075400 -0.117330 0.462590
v -0.075400 -0.117330 0.398743
v -0.082580 -0.128503 0.412024
v 0.000000 -0.088904 0.472772
v 0.000000 -0.088904 0.408925
v 0.000000 -0.152750 0.459491
v 0.000000 -0.139470 0.472772
v 0.000000 -0.139470 0.408925
v 0.000000 -0.152750 0.422206
v 0.048062 -0.074791 0.482954
v 0.048062 -0.074791 0.419107
v 0.082580 -0.128503 0.469674
v 0.075400 -0.117330 0.482954
v 0.075400 -0.117330 0.419107
v 0.082580 -0.128503 0.432387
v 0.080865 -0.036935 0.493136
v 0.080865 -0.036935 0.429289
v 0.138942 -0.063458 0.479855
v 0.126862 -0.057942 0.493136
v 0.126862 -0.057942 0.429289
v 0.138942 -0.063458 0.442570
v 0.087993 0.012646 0.503318
v 0.087993 0.012646 0.439470
v 0.151190 0.021732 0.490037
v 0.138045 0.019842 0.503318
v 0.138045 0.019842 0.439470
v 0.151190 0.021732 0.452751
v 0.067185 0.058210 0.513499
v 0.067185 0.058210 0.449652
v 0.115437 0.100021 0.500218
v 0.105400 0.091324 0.513499
v 0.105400 0.091324 0.449652
v 0.115437 0.100021 0.462933
v 0.025046 0.085291 0.523682
v 0.025046 0.085291 0.459834
v 0.043034 0.146552 0.510401
v 0.039292 0.133810 0.523682
v 0.039292 0.133810 0.459834
v 0.043034 0.146552 0.473115
v -0.025046 0.085291 0.528318
v -0.025046 0.085291 0.464472
v -0.043033 0.146552 0.515038
v -0.039291 0.133810 0.528318
v -0.039291 0.133810 0.464472
v -0.043033 0.146552 0.477752
v -0.087952 0.012930 0.528318
v -0.087952 0.012930 0.464472
v -0.151119 0.022221 0.515038
v -0.137980 0.020289 0.528318
v -0.137980 0.020289 0.464472
v -0.151119 0.022221 0.477752
v -0.115380 0.100087 0.477752
v -0.105348 0.091384 0.464472
v -0.105348 0.091384 0.528318
v -0.115380 0.100087 0.515038
v -0.067151 0.058249 0.464472
v -0.067151 0.058249 0.528318
v -0.081305 -0.035955 0.248772
v -0.081305 -0.035955 0.184925
v -0.139698 -0.061775 0.235491
v -0.127552 -0.056404 0.248772
v -0.127552 -0.056404 0.184925
v -0.139698 -0.061775 0.198206
v -0.082862 -0.128322 0.198206
v -0.075657 -0.117166 0.184925
v -0.075657 -0.117166 0.248772
v -0.082862 -0.128322 0.235491
v -0.048226 -0.074686 0.184925
v -0.048226 -0.074686 0.248772
v -0.450657 -0.039096 0.484204
v -0.365847 0.220810 0.280287
v -0.473478 0.209401 0.242354
v -0.445893 0.204360 0.348593
v -0.230326 0.141406 0.237345
v -0.318297 0.166549 0.394651
v -0.290770 0.086170 0.445544
v -0.408821 0.156377 0.429799
v -0.522890 0.167166 0.352931
v -0.513503 0.069698 0.448962
v -0.348038 0.212814 0.227394
v -0.589538 0.114550 0.245408
v -0.323353 -0.044355 0.475706
v -0.575528 -0.043635 0.401576
v -0.215021 -0.017173 0.394301
v -0.177593 0.016353 0.264838
v -0.593155 0.068572 0.357529
v -0.215126 0.096522 0.350068
v -0.399682 0.049968 0.488334
v -0.504147 -0.143145 0.405540
v -0.530709 0.126239 0.138885
v -0.296366 0.143177 0.134461
v -0.622316 -0.016551 0.275274
v -0.385610 -0.159410 0.426734
v -0.415568 0.159005 0.113419
v -0.598241 0.067617 0.193854
v -0.218208 0.096486 0.184347
v -0.401206 -0.050266 0.051982
v -0.269890 -0.126910 0.401473
v -0.207120 -0.069200 0.182229
v -0.585244 -0.096363 0.190594
v -0.224880 0.043454 0.138035
v -0.585181 0.016750 0.146322
v -0.340074 0.053795 0.062487
v -0.570045 -0.141074 0.302812
v -0.315736 -0.203441 0.309918
v -0.510145 -0.086304 0.095167
v -0.500294 -0.184314 0.192078
v -0.392344 -0.156734 0.110394
v -0.287411 -0.070183 0.090798
v -0.582311 -0.096178 0.355322
v -0.201959 -0.068384 0.346827
v -0.299628 -0.152722 0.141614
v -0.210682 -0.115379 0.294922
v -0.418863 -0.209546 0.193570
v -0.440478 -0.218248 0.299832
v -0.334404 -0.213296 0.257828
v -0.465016 0.029971 0.059464
v 0.450657 0.039096 0.484204
v 0.365847 -0.220810 0.280287
v 0.473478 -0.209401 0.242354
v 0.445893 -0.204360 0.348593
v 0.230326 -0.141406 0.237345
v 0.318297 -0.166549 0.394651
v 0.290770 -0.086170 0.445544
v 0.408820 -0.156377 0.429799
v 0.522890 -0.167166 0.352931
v 0.513503 -0.069698 0.448962
v 0.348038 -0.212814 0.227394
v 0.589538 -0.114550 0.245408
v 0.323353 0.044355 0.475706
v 0.575528 0.043635 0.401576
v 0.215021 0.017173 0.394301
v 0.177593 -0.016354 0.264838
v 0.593155 -0.068572 0.357529
v 0.215126 -0.096522 0.350068
v 0.399682 -0.049968 0.488334
v 0.504148 0.143145 0.405540
v 0.530709 -0.126239 0.138885
v 0.296366 -0.143178 0.134461
v 0.622316 0.016551 0.275274
v 0.385610 0.159410 0.426734
v 0.415568 -0.159006 0.113419
v 0.598241 -0.067617 0.193854
v 0.218208 -0.096486 0.184347
v 0.401206 0.050266 0.051982
v 0.269890 0.126910 0.401473
v 0.207120 0.069200 0.182229
v 0.585244 0.096363 0.190594
v 0.224880 -0.043454 0.138035
v 0.585181 -0.016750 0.146322
v 0.340074 -0.053795 0.062487
v 0.570045 0.141074 0.302812
v 0.315736 0.203441 0.309918
v 0.510145 0.086304 0.095167
v 0.500294 0.184314 0.192078
v 0.392344 0.156734 0.110394
v 0.287412 0.070182 0.090798
v 0.582311 0.096178 0.355322
v 0.201959 0.068384 0.346827
v 0.299628 0.152722 0.141614
v 0.210682 0.115379 0.294922
v 0.418864 0.209546 0.193570
v 0.440479 0.218248 0.299832
v 0.334404 0.213296 0.257828
v 0.465016 -0.029971 0.059464
v 0.104780 -0.034045 0.003832
v 0.104780 -0.034045 0.003832
v 0.104780 -0.034045 -0.106058
v 0.104780 -0.034045 -0.106058
v 0.191422 -0.062202 0.199903
v 0.191422 -0.062202 0.199903
v 0.118305 -0.162838 0.199903
v 0.118305 -0.162838 0.199903
v 0.064758 -0.089131 -0.106058
v 0.064758 -0.089131 -0.106058
v -0.104780 -0.000000 -0.106058
v -0.104780 -0.034045 -0.106058
v -0.104780 -0.034045 -0.106058
v -0.043278 -0.043280 0.616622
v -0.043278 -0.043280 0.616622
v -0.043278 -0.043280 0.616622
v 0.043281 -0.043280 0.616622
v 0.043281 -0.043280 0.616622
v 0.043281 -0.043280 0.616622
v 0.173075 -0.089814 0.585630
v 0.173075 -0.118767 0.585630
v 0.173075 -0.118767 0.585630
v -0.172977 -0.089814 0.527971
v -0.172977 -0.089814 0.527971
v -0.206721 -0.089814 0.561715
v -0.206721 -0.089814 0.561715
v 0.107413 -0.034901 0.149154
v 0.066385 -0.091371 0.149154
v -0.183094 -0.059490 0.003832
v -0.183094 -0.059490 0.003832
v -0.113158 -0.155749 0.003832
v -0.113158 -0.155749 0.003832
v 0.183094 0.000000 0.003832
v 0.183094 -0.059490 0.003832
v 0.183094 -0.059490 0.003832
v -0.064758 -0.089131 0.003832
v -0.064758 -0.089131 0.003832
v -0.064758 -0.089131 -0.106058
v -0.064758 -0.089131 -0.106058
v 0.054850 0.000000 0.605054
v 0.054850 -0.043280 0.605054
v 0.054850 -0.043280 0.605054
v 0.054850 -0.043280 0.605054
v 0.206725 -0.043278 0.648394
v 0.206725 -0.043278 0.648394
v 0.172981 -0.043278 0.682138
v 0.172981 -0.043278 0.682138
v 0.000000 -0.147394 0.199903
v 0.086634 -0.119246 0.199903
v -0.066385 -0.091371 0.149154
v -0.107413 -0.034901 0.149154
v 0.043281 -0.054848 0.225258
v 0.043281 -0.054848 0.605054
v 0.043281 -0.054848 0.605054
v 0.043281 -0.054848 0.605054
v 0.118804 -0.163520 0.103306
v 0.113158 -0.155749 0.003832
v 0.113158 -0.155749 0.003832
v -0.206721 -0.089814 0.648394
v -0.206721 -0.089814 0.648394
v -0.206721 -0.043278 0.648394
v -0.206721 -0.043278 0.648394
v 0.105788 -0.118767 0.585630
v 0.105788 -0.118767 0.585630
v 0.105788 -0.118767 0.624478
v 0.105788 -0.118767 0.624478
v 0.206725 -0.089814 0.561715
v 0.206725 -0.089814 0.561715
v 0.206725 -0.043278 0.561715
v 0.206725 -0.043278 0.561715
v -0.206721 -0.043278 0.561715
v -0.206721 -0.043278 0.561715
v -0.104780 0.000000 0.003832
v -0.104780 -0.034045 0.003832
v -0.104780 -0.034045 0.003832
v -0.140176 -0.045552 0.199903
v -0.086634 -0.119246 0.199903
v -0.140176 0.000000 0.199903
v 0.000000 -0.110173 -0.106058
v 0.000000 -0.110173 -0.106058
v 0.192229 -0.062459 0.103306
v 0.140176 -0.045552 0.199903
v -0.107413 0.000000 0.149154
v 0.140176 0.000000 0.199903
v 0.054850 -0.043280 0.225258
v -0.043278 -0.054848 0.605054
v -0.043278 -0.054848 0.605054
v -0.043278 -0.054848 0.605054
v -0.043278 -0.054848 0.225258
v 0.206725 -0.089814 0.648394
v 0.206725 -0.089814 0.648394
v -0.172977 -0.089814 0.682138
v -0.172977 -0.089814 0.682138
v 0.104780 -0.000000 -0.106058
v 0.000000 -0.110173 0.003832
v 0.000000 -0.110173 0.003832
v 0.064758 -0.089131 0.003832
v 0.064758 -0.089131 0.003832
v 0.000000 -0.201278 0.199903
v 0.000000 -0.201278 0.199903
v 0.047530 -0.065426 0.225258
v 0.000000 -0.080869 0.225258
v 0.076906 -0.024994 0.225258
v -0.054847 -0.043280 0.605054
v -0.054847 -0.043280 0.605054
v -0.054847 -0.043280 0.605054
v 0.139431 -0.118767 0.566206
v 0.139431 -0.118767 0.566206
v 0.105788 -0.089814 0.585630
v 0.172981 -0.089814 0.527971
v 0.172981 -0.089814 0.527971
v -0.137674 -0.118767 0.566206
v -0.137674 -0.118767 0.566206
v -0.104030 -0.118767 0.585630
v -0.104030 -0.118767 0.585630
v -0.104030 -0.089814 0.585630
v 0.172981 -0.089814 0.682138
v 0.172981 -0.089814 0.682138
v 0.172981 -0.043278 0.527971
v 0.172981 -0.043278 0.527971
v 0.104780 0.000000 0.003832
v 0.076906 0.000000 0.225258
v -0.054847 -0.043280 0.225258
v 0.139431 -0.089814 0.566206
v 0.173075 -0.118767 0.624478
v 0.173075 -0.118767 0.624478
v -0.137674 -0.118767 0.643902
v -0.137674 -0.118767 0.643902
v -0.104030 -0.118767 0.624478
v -0.104030 -0.118767 0.624478
v -0.183094 0.000000 0.003832
v -0.104030 -0.089814 0.624478
v -0.171317 -0.089814 0.624478
v -0.171317 -0.118767 0.624478
v -0.171317 -0.118767 0.624478
v -0.191422 -0.062202 0.199903
v -0.191422 -0.062202 0.199903
v -0.192229 -0.062459 0.103306
v 0.000000 -0.112941 0.149154
v -0.172977 -0.043278 0.527971
v -0.172977 -0.043278 0.527971
v -0.118305 -0.162838 0.199903
v -0.118305 -0.162838 0.199903
v -0.076906 0.000000 0.225258
v -0.076906 -0.024994 0.225258
v 0.139431 -0.118767 0.643902
v 0.139431 -0.118767 0.643902
v -0.172977 -0.043278 0.682138
v -0.172977 -0.043278 0.682138
v -0.118804 -0.163520 0.103306
v 0.000000 -0.192516 0.003832
v 0.000000 -0.192516 0.003832
v -0.171317 -0.118767 0.585630
v -0.171317 -0.118767 0.585630
v -0.043278 0.000000 0.616622
v 0.000000 -0.202122 0.103306
v -0.047530 -0.065426 0.225258
v -0.191422 0.000000 0.199903
v 0.043281 0.000000 0.616622
v -0.054847 0.000000 0.605054
v 0.139431 -0.089814 0.643902
v 0.173075 -0.089814 0.624478
v 0.105788 -0.089814 0.624478
v -0.137674 -0.089814 0.643902
v -0.171317 -0.089814 0.585630
v -0.137674 -0.089814 0.566206
v 0.191422 0.000000 0.199903
v 0.107413 0.000000 0.149154
v 0.104780 0.034045 0.003832
v 0.104780 0.034045 0.003832
v 0.104780 0.034045 -0.106058
v 0.104780 0.034045 -0.106058
v 0.000000 0.201278 0.199903
v 0.000000 0.201278 0.199903
v 0.000000 0.202122 0.103306
v 0.191422 0.062202 0.199903
v 0.191422 0.062202 0.199903
v 0.118305 0.162838 0.199903
v 0.118305 0.162838 0.199903
v 0.064758 0.089131 -0.106058
v 0.064758 0.089131 -0.106058
v -0.104780 0.034045 -0.106058
v -0.104780 0.034045 -0.106058
v -0.043278 0.043280 0.616622
v -0.043278 0.043280 0.616622
v -0.043278 0.043280 0.616622
v 0.043281 0.043280 0.616622
v 0.043281 0.043280 0.616622
v 0.043281 0.043280 0.616622
v 0.173075 0.089814 0.585630
v 0.173075 0.118767 0.585630
v 0.173075 0.118767 0.585630
v -0.172977 0.089814 0.527971
v -0.172977 0.089814 0.527971
v -0.206721 0.089814 0.561715
v -0.206721 0.089814 0.561715
v 0.107413 0.034901 0.149154
v 0.066385 0.091371 0.149154
v -0.183094 0.059490 0.003832
v -0.183094 0.059490 0.003832
v -0.113158 0.155749 0.003832
v -0.113158 0.155749 0.003832
v 0.183094 0.059490 0.003832
v 0.183094 0.059490 0.003832
v -0.064758 0.089131 0.003832
v -0.064758 0.089131 0.003832
v -0.064758 0.089131 -0.106058
v -0.064758 0.089131 -0.106058
v 0.054850 0.043280 0.605054
v 0.054850 0.043280 0.605054
v 0.054850 0.043280 0.605054
v 0.206725 0.043278 0.648394
v 0.206725 0.043278 0.648394
v 0.172981 0.043278 0.682138
v 0.172981 0.043278 0.682138
v 0.000000 0.147394 0.199903
v 0.086634 0.119246 0.199903
v -0.066385 0.091371 0.149154
v -0.107413 0.034901 0.149154
v 0.043281 0.054848 0.225258
v 0.043281 0.054848 0.605054
v 0.043281 0.054848 0.605054
v 0.043281 0.054848 0.605054
v -0.206721 0.089814 0.648394
v -0.206721 0.089814 0.648394
v -0.206721 0.043278 0.648394
v -0.206721 0.043278 0.648394
v 0.105788 0.118767 0.585630
v 0.105788 0.118767 0.585630
v 0.105788 0.118767 0.624478
v 0.105788 0.118767 0.624478
v 0.206725 0.089814 0.561715
v 0.206725 0.089814 0.561715
v 0.206725 0.043278 0.561715
v 0.206725 0.043278 0.561715
v -0.206721 0.043278 0.561715
v -0.206721 0.043278 0.561715
v -0.104780 0.034045 0.003832
v -0.104780 0.034045 0.003832
v -0.140176 0.045552 0.199903
v -0.086634 0.119246 0.199903
v 0.000000 0.110173 -0.106058
v 0.000000 0.110173 -0.106058
v 0.140176 0.045552 0.199903
v 0.054850 0.043280 0.225258
v -0.043278 0.054848 0.605054
v -0.043278 0.054848 0.605054
v -0.043278 0.054848 0.605054
v -0.043278 0.054848 0.225258
v 0.206725 0.089814 0.648394
v 0.206725 0.089814 0.648394
v -0.172977 0.089814 0.682138
v -0.172977 0.089814 0.682138
v 0.000000 0.110173 0.003832
v 0.000000 0.110173 0.003832
v 0.064758 0.089131 0.003832
v 0.064758 0.089131 0.003832
v 0.047530 0.065426 0.225258
v 0.000000 0.080869 0.225258
v 0.076906 0.024994 0.225258
v -0.054847 0.043280 0.605054
v -0.054847 0.043280 0.605054
v -0.054847 0.043280 0.605054
v 0.139431 0.118767 0.566206
v 0.139431 0.118767 0.566206
v 0.105788 0.089814 0.585630
v 0.172981 0.089814 0.527971
v 0.172981 0.089814 0.527971
v -0.137674 0.118767 0.566206
v -0.137674 0.118767 0.566206
v -0.104030 0.118767 0.585630
v -0.104030 0.118767 0.585630
v -0.104030 0.089814 0.585630
v 0.172981 0.089814 0.682138
v 0.172981 0.089814 0.682138
v 0.172981 0.043278 0.527971
v 0.172981 0.043278 0.527971
v -0.118804 0.163520 0.103306
v 0.118804 0.163520 0.103306
v -0.054847 0.043280 0.225258
v 0.139431 0.089814 0.566206
v 0.173075 0.118767 0.624478
v 0.173075 0.118767 0.624478
v -0.137674 0.118767 0.643902
v -0.137674 0.118767 0.643902
v -0.104030 0.118767 0.624478
v -0.104030 0.118767 0.624478
v -0.104030 0.089814 0.624478
v -0.171317 0.089814 0.624478
v -0.171317 0.118767 0.624478
v -0.171317 0.118767 0.624478
v -0.191422 0.062202 0.199903
v -0.191422 0.062202 0.199903
v -0.192229 0.062459 0.103306
v 0.000000 0.112941 0.149154
v -0.172977 0.043278 0.527971
v -0.172977 0.043278 0.527971
v -0.118305 0.162838 0.199903
v -0.118305 0.162838 0.199903
v -0.076906 0.024994 0.225258
v 0.139431 0.118767 0.643902
v 0.139431 0.118767 0.643902
v -0.172977 0.043278 0.682138
v -0.172977 0.043278 0.682138
v 0.000000 0.192516 0.003832
v 0.000000 0.192516 0.003832
v -0.171317 0.118767 0.585630
v -0.171317 0.118767 0.585630
v 0.113158 0.155749 0.003832
v 0.113158 0.155749 0.003832
v 0.192229 0.062459 0.103306
v -0.047530 0.065426 0.225258
v 0.139431 0.089814 0.643902
v 0.173075 0.089814 0.624478
v 0.105788 0.089814 0.624478
v -0.137674 0.089814 0.643902
v -0.171317 0.089814 0.585630
v -0.137674 0.089814 0.566206
v -0.356905 -0.062827 0.501425
v -0.356905 -0.062827 0.501425
v -0.356633 0.059246 0.501792
v -0.356633 0.059246 0.501792
v -0.138142 0.042487 0.665454
v -0.138142 0.042487 0.665454
v -0.084391 0.042487 0.625371
v -0.084391 0.042487 0.625371
v -0.218553 0.059246 0.429493
v -0.297381 0.059246 0.487816
v -0.222627 -0.033526 0.433165
v -0.077207 -0.033526 0.620014
v -0.077207 -0.033526 0.620014
v -0.188130 -0.062827 0.376552
v -0.188130 -0.062827 0.376552
v -0.187858 0.059246 0.376919
v -0.187858 0.059246 0.376919
v -0.217293 -0.062739 0.354462
v -0.283562 -0.042486 0.478605
v -0.138142 -0.042487 0.665454
v -0.138142 -0.042487 0.665454
v -0.297653 -0.062827 0.487449
v -0.369501 -0.062739 0.467076
v -0.218825 -0.062827 0.429126
v -0.283562 0.042487 0.478605
v -0.145326 -0.033526 0.670812
v -0.145326 -0.033526 0.670812
v -0.290746 -0.033526 0.483962
v -0.077207 0.033526 0.620014
v -0.077207 0.033526 0.620014
v -0.145326 0.033526 0.670812
v -0.145326 0.033526 0.670812
v -0.222627 0.033526 0.433165
v -0.229811 0.042487 0.438522
v -0.290746 0.033526 0.483962
v -0.084391 -0.042487 0.625371
v -0.084391 -0.042487 0.625371
v -0.229811 -0.042486 0.438522
v -0.369229 0.059334 0.467443
v -0.217022 0.059334 0.354829
v 0.356905 0.062827 0.501425
v 0.356905 0.062827 0.501425
v 0.356633 -0.059246 0.501792
v 0.356633 -0.059246 0.501792
v 0.138142 -0.042487 0.665454
v 0.138142 -0.042487 0.665454
v 0.084391 -0.042487 0.625371
v 0.084391 -0.042487 0.625371
v 0.218553 -0.059246 0.429493
v 0.297381 -0.059246 0.487816
v 0.222627 0.033526 0.433165
v 0.077207 0.033526 0.620014
v 0.077207 0.033526 0.620014
v 0.188130 0.062827 0.376552
v 0.188130 0.062827 0.376552
v 0.187858 -0.059246 0.376919
v 0.187858 -0.059246 0.376919
v 0.217293 0.062739 0.354462
v 0.283562 0.042487 0.478605
v 0.138142 0.042487 0.665454
v 0.138142 0.042487 0.665454
v 0.297653 0.062827 0.487449
v 0.369501 0.062739 0.467076
v 0.218825 0.062827 0.429126
v 0.283562 -0.042487 0.478605
v 0.145326 0.033526 0.670812
v 0.145326 0.033526 0.670812
v 0.290746 0.033526 0.483962
v 0.077207 -0.033526 0.620014
v 0.077207 -0.033526 0.620014
v 0.145326 -0.033526 0.670812
v 0.145326 -0.033526 0.670812
v 0.222627 -0.033526 0.433165
v 0.229811 -0.042487 0.438522
v 0.290746 -0.033526 0.483962
v 0.084391 0.042487 0.625371
v 0.084391 0.042487 0.625371
v 0.229811 0.042486 0.438522
v 0.369229 -0.059334 0.467443
v 0.217022 -0.059334 0.354829
v 0.048062 -0.074791 0.258954
v 0.000000 -0.088904 0.248772
v 0.048062 -0.074791 0.195107
v 0.000000 -0.088904 0.184925
v 0.082580 -0.128503 0.245674
v 0.000000 -0.152750 0.235491
v 0.075400 -0.117330 0.258954
v 0.000000 -0.139470 0.248772
v 0.075400 -0.117330 0.195107
v 0.000000 -0.139470 0.184925
v 0.082580 -0.128503 0.208387
v 0.000000 -0.152750 0.198206
v 0.080865 -0.036935 0.269136
v 0.080865 -0.036935 0.205289
v 0.138942 -0.063458 0.255855
v 0.126862 -0.057942 0.269136
v 0.126862 -0.057942 0.205289
v 0.138942 -0.063458 0.218570
v 0.087993 0.012646 0.279318
v 0.087993 0.012646 0.215470
v 0.151190 0.021732 0.266037
v 0.138045 0.019842 0.279318
v 0.138045 0.019842 0.215470
v 0.151190 0.021732 0.228751
v 0.067185 0.058210 0.289499
v 0.067185 0.058210 0.225653
v 0.115437 0.100021 0.276218
v 0.105400 0.091324 0.289499
v 0.105400 0.091324 0.225653
v 0.115437 0.100021 0.238933
v 0.025046 0.085291 0.299682
v 0.025046 0.085291 0.235834
v 0.043034 0.146552 0.286401
v 0.039292 0.133810 0.299682
v 0.039292 0.133810 0.235834
v 0.043034 0.146552 0.249115
v -0.025046 0.085291 0.309863
v -0.025046 0.085291 0.246016
v -0.043034 0.146552 0.296582
v -0.039292 0.133810 0.309863
v -0.039292 0.133810 0.246016
v -0.043034 0.146552 0.259297
v -0.067185 0.058210 0.320045
v -0.067185 0.058210 0.256198
v -0.115437 0.100021 0.306764
v -0.105400 0.091324 0.320045
v -0.105400 0.091324 0.256198
v -0.115437 0.100021 0.269478
v -0.087993 0.012646 0.330226
v -0.087993 0.012646 0.266380
v -0.151190 0.021732 0.316946
v -0.138045 0.019842 0.330226
v -0.138045 0.019842 0.266380
v -0.151190 0.021732 0.279660
v -0.080865 -0.036935 0.340409
v -0.080865 -0.036935 0.276562
v -0.138942 -0.063458 0.327128
v -0.126862 -0.057942 0.340409
v -0.126862 -0.057942 0.276562
v -0.138942 -0.063458 0.289842
v -0.048062 -0.074791 0.350590
v -0.048062 -0.074791 0.286743
v -0.082580 -0.128503 0.337310
v -0.075400 -0.117330 0.350590
v -0.075400 -0.117330 0.286743
v -0.082580 -0.128503 0.300024
v 0.000000 -0.088904 0.360772
v 0.000000 -0.088904 0.296925
v 0.000000 -0.152750 0.347491
v 0.000000 -0.139470 0.360772
v 0.000000 -0.139470 0.296925
v 0.000000 -0.152750 0.310206
v 0.048062 -0.074791 0.370954
v 0.048062 -0.074791 0.307107
v 0.082580 -0.128503 0.357674
v 0.075400 -0.117330 0.370954
v 0.075400 -0.117330 0.307107
v 0.082580 -0.128503 0.320387
v 0.080865 -0.036935 0.381136
v 0.080865 -0.036935 0.317289
v 0.138942 -0.063458 0.367855
v 0.126862 -0.057942 0.381136
v 0.126862 -0.057942 0.317289
v 0.138942 -0.063458 0.330570
v 0.087993 0.012646 0.391318
v 0.087993 0.012646 0.327470
v 0.151190 0.021732 0.378037
v 0.138045 0.019842 0.391318
v 0.138045 0.019842 0.327470
v 0.151190 0.021732 0.340751
v 0.067185 0.058210 0.401499
v 0.067185 0.058210 0.337652
v 0.115437 0.100021 0.388218
v 0.105400 0.091324 0.401499
v 0.105400 0.091324 0.337652
v 0.115437 0.100021 0.350933
v 0.025046 0.085291 0.411682
v 0.025046 0.085291 0.347834
v 0.043034 0.146552 0.398401
v 0.039292 0.133810 0.411682
v 0.039292 0.133810 0.347834
v 0.043034 0.146552 0.361115
v -0.025046 0.085291 0.421863
v -0.025046 0.085291 0.358016
v -0.043033 0.146552 0.408582
v -0.039291 0.133810 0.421863
v -0.039291 0.133810 0.358016
v -0.043033 0.146552 0.371297
v -0.067185 0.058210 0.432045
v -0.067185 0.058210 0.368198
v -0.115437 0.100021 0.418764
v -0.105400 0.091324 0.432045
v -0.105400 0.091324 0.368198
v -0.115437 0.100021 0.381478
v -0.087993 0.012646 0.442226
v -0.087993 0.012646 0.378380
v -0.151190 0.021732 0.428946
v -0.138045 0.019842 0.442226
v -0.138045 0.019842 0.378380
v -0.151190 0.021732 0.391660
v -0.080865 -0.036935 0.452409
v -0.080865 -0.036935 0.388562
v -0.138942 -0.063458 0.439128
v -0.126862 -0.057942 0.452409
v -0.126862 -0.057942 0.388562
v -0.138942 -0.063458 0.401842
v -0.048062 -0.074791 0.462590
v -0.048062 -0.074791 0.398743
v -0.082580 -0.128503 0.449310
v -0.075400 -0.117330 0.462590
v -0.075400 -0.117330 0.398743
v -0.082580 -0.128503 0.412024
v 0.000000 -0.088904 0.472772
v 0.000000 -0.088904 0.408925
v 0.000000 -0.152750 0.459491
v 0.000000 -0.139470 0.472772
v 0.000000 -0.139470 0.408925
v 0.000000 -0.152750 0.422206
v 0.048062 -0.074791 0.482954
v 0.048062 -0.074791 0.419107
v 0.082580 -0.128503 0.469674
v 0.075400 -0.117330 0.482954
v 0.075400 -0.117330 0.419107
v 0.082580 -0.128503 0.432387
v 0.080865 -0.036935 0.493136
v 0.080865 -0.036935 0.429289
v 0.138942 -0.063458 0.479855
v 0.126862 -0.057942 0.493136
v 0.126862 -0.057942 0.429289
v 0.138942 -0.063458 0.442570
v 0.087993 0.012646 0.503318
v 0.087993 0.012646 0.439470
v 0.151190 0.021732 0.490037
v 0.138045 0.019842 0.503318
v 0.138045 0.019842 0.439470
v 0.151190 0.021732 0.452751
v 0.067185 0.058210 0.513499
v 0.067185 0.058210 0.449652
v 0.115437 0.100021 0.500218
v 0.105400 0.091324 0.513499
v 0.105400 0.091324 0.449652
v 0.115437 0.100021 0.462933
v 0.025046 0.085291 0.523682
v 0.025046 0.085291 0.459834
v 0.043034 0.146552 0.510401
v 0.039292 0.133810 0.523682
v 0.039292 0.133810 0.459834
v 0.043034 0.146552 0.473115
v -0.025046 0.085291 0.528318
v -0.025046 0.085291 0.464472
v -0.043033 0.146552 0.515038
v -0.039291 0.133810 0.528318
v -0.039291 0.133810 0.464472
v -0.043033 0.146552 0.477752
v -0.151119 0.022221 0.477752
v -0.151119 0.022221 0.477752
v -0.115380 0.100087 0.477752
v -0.115380 0.100087 0.515038
v -0.151119 0.022221 0.515038
v -0.151119 0.022221 0.515038
v -0.137980 0.020289 0.528318
v -0.137980 0.020289 0.528318
v -0.105348 0.091384 0.528318
v -0.137980 0.020289 0.464472
v -0.137980 0.020289 0.464472
v -0.105348 0.091384 0.464472
v -0.067151 0.058249 0.528318
v -0.087952 0.012930 0.528318
v -0.087952 0.012930 0.528318
v -0.087952 0.012930 0.464472
v -0.087952 0.012930 0.464472
v -0.067151 0.058249 0.464472
v -0.082862 -0.128322 0.198206
v -0.139698 -0.061775 0.198206
v -0.139698 -0.061775 0.198206
v -0.127552 -0.056404 0.184925
v -0.127552 -0.056404 0.184925
v -0.075657 -0.117166 0.184925
v -0.075657 -0.117166 0.248772
v -0.127552 -0.056404 0.248772
v -0.127552 -0.056404 0.248772
v -0.139698 -0.061775 0.235491
v -0.139698 -0.061775 0.235491
v -0.082862 -0.128322 0.235491
v -0.048226 -0.074686 0.184925
v -0.081305 -0.035955 0.184925
v -0.081305 -0.035955 0.184925
v -0.081305 -0.035955 0.248772
v -0.081305 -0.035955 0.248772
v -0.048226 -0.074686 0.248772
vn -0.0000 -0.0000 -1.0000
vn 0.3090 -0.9511 -0.0000
vn 0.8090 -0.5878 -0.0000
vn -0.3090 -0.9511 -0.0000
vn 1.0000 -0.0000 -0.0000
vn 0.8090 -0.5878 0.0083
vn 0.8083 -0.5873 -0.0419
vn 0.8083 -0.5873 -0.0420
vn -0.0000 -0.0000 1.0000
vn -0.3090 -0.9510 0.0083
vn -0.3087 -0.9502 -0.0420
vn -0.8083 -0.5873 -0.0417
vn -0.8056 -0.5853 -0.0915
vn -0.8083 -0.5873 -0.0418
vn -0.8090 -0.5878 0.0083
vn 0.3090 -0.9510 0.0083
vn 0.3087 -0.9502 -0.0419
vn 0.3088 -0.9502 -0.0412
vn -0.0000 -1.0000 -0.0000
vn 0.9991 -0.0000 -0.0419
vn 1.0000 -0.0000 0.0084
vn 0.9991 -0.0000 -0.0418
vn -0.8401 -0.0000 0.5424
vn -0.7562 0.3395 0.5594
vn -0.4863 0.6693 0.5617
vn -0.4863 0.6694 0.5617
vn 0.4863 0.6694 0.5617
vn -0.0000 0.8273 0.5617
vn 0.4863 0.6693 0.5617
vn -0.0000 0.8274 0.5617
vn 0.9282 -0.0000 0.3721
vn 0.8414 -0.3778 0.3865
vn 0.5417 -0.7455 0.3884
vn 0.5416 -0.7455 0.3884
vn -0.0000 -0.9215 0.3883
vn -0.5417 -0.7455 0.3884
vn -0.8414 -0.3778 0.3865
vn -0.5416 -0.7455 0.3884
vn -0.5773 -0.5774 0.5774
vn 0.5773 -0.5774 0.5774
vn 0.7071 -0.0000 0.7071
vn 0.7071 -0.7071 -0.0000
vn -0.7071 -0.7071 -0.0000
vn -0.3077 -0.9471 -0.0915
vn 0.9958 -0.0000 -0.0914
vn 0.8056 -0.5853 -0.0915
vn 0.3077 -0.9471 -0.0915
vn -0.8090 -0.5878 -0.0000
vn -0.7071 -0.0000 -0.7071
vn -0.0000 1.0000 -0.0000
vn -0.5000 -0.0000 0.8660
vn -0.7071 -0.0000 0.7071
vn 0.7071 -0.0000 -0.7071
vn -1.0000 -0.0000 -0.0000
vn 0.7562 0.3395 0.5594
vn -1.0000 -0.0000 0.0084
vn -0.9991 -0.0000 -0.0416
vn -0.9991 -0.0000 -0.0418
vn 0.8401 -0.0000 0.5424
vn -0.9282 -0.0000 0.3721
vn -0.9958 -0.0000 -0.0914
vn -0.0000 -0.7071 0.7071
vn 0.5000 -0.0000 -0.8660
vn -0.5000 -0.0000 -0.8660
vn 0.5000 -0.0000 0.8660
vn 0.3090 0.9511 -0.0000
vn 0.8090 0.5878 -0.0000
vn -0.3090 0.9511 -0.0000
vn 0.8090 0.5878 0.0083
vn 0.8083 0.5873 -0.0412
vn -0.3087 0.9502 -0.0419
vn -0.3090 0.9510 0.0083
vn -0.8056 0.5853 -0.0915
vn -0.8083 0.5873 -0.0412
vn -0.8090 0.5878 0.0083
vn 0.3087 0.9502 -0.0419
vn 0.3090 0.9510 0.0083
vn -0.7562 -0.3395 0.5594
vn -0.4863 -0.6693 0.5617
vn -0.4863 -0.6694 0.5617
vn 0.4863 -0.6694 0.5617
vn -0.0000 -0.8273 0.5617
vn -0.0000 -0.8274 0.5617
vn 0.8414 0.3778 0.3865
vn 0.5417 0.7455 0.3884
vn -0.0000 0.9215 0.3883
vn 0.5416 0.7455 0.3884
vn -0.5417 0.7455 0.3884
vn -0.8414 0.3778 0.3865
vn -0.5416 0.7455 0.3884
vn -0.5773 0.5774 0.5774
vn 0.5773 0.5774 0.5774
vn 0.7071 0.7071 -0.0000
vn -0.7071 0.7071 -0.0000
vn -0.3077 0.9471 -0.0915
vn 0.9958 -0.0000 -0.0915
vn 0.8083 0.5873 -0.0418
vn 0.8056 0.5853 -0.0915
vn 0.3077 0.9471 -0.0915
vn -0.8090 0.5878 -0.0000
vn 0.7562 -0.3395 0.5594
vn 0.4863 -0.6693 0.5617
vn -0.0000 0.7071 0.7071
vn 0.0019 1.0000 0.0016
vn 0.0011 1.0000 0.0022
vn 0.0018 1.0000 0.0017
vn -0.7892 -0.0000 0.6142
vn -0.5581 -0.7071 0.4343
vn -0.5581 -0.7070 0.4343
vn -0.5580 -0.7071 0.4343
vn 0.5978 -0.0000 0.8016
vn 0.5978 -0.0000 0.8017
vn 0.7892 -0.0000 -0.6142
vn -0.9389 0.0011 0.3443
vn 0.5581 -0.7070 -0.4343
vn 0.5581 0.7070 -0.4343
vn 0.7115 -0.0037 0.7027
vn 0.4639 -0.0037 0.8859
vn 0.2296 -0.0034 0.9733
vn -0.0019 -1.0000 -0.0016
vn -0.0011 -1.0000 -0.0022
vn -0.0010 -1.0000 -0.0023
vn 0.0010 1.0000 0.0023
vn 0.0005 1.0000 0.0024
vn 0.0022 1.0000 0.0012
vn 0.0021 1.0000 0.0011
vn 0.8636 -0.0034 0.5042
vn 0.6038 0.0011 -0.7971
vn -0.5581 0.7070 0.4343
vn -0.0022 -1.0000 -0.0012
vn -0.0018 -1.0000 -0.0017
vn -0.0005 -1.0000 -0.0024
vn -0.0019 -1.0000 0.0016
vn -0.0011 -1.0000 0.0022
vn -0.0018 -1.0000 0.0017
vn 0.7892 -0.0000 0.6142
vn 0.5581 0.7070 0.4343
vn -0.5978 -0.0000 0.8016
vn -0.5978 -0.0000 0.8017
vn -0.7892 -0.0000 -0.6142
vn 0.9389 -0.0011 0.3443
vn -0.5581 0.7070 -0.4343
vn -0.5581 -0.7070 -0.4343
vn -0.7115 0.0037 0.7027
vn -0.4639 0.0037 0.8859
vn -0.2296 0.0034 0.9733
vn 0.0019 1.0000 -0.0016
vn 0.0011 1.0000 -0.0022
vn 0.0010 1.0000 -0.0023
vn -0.0010 -1.0000 0.0023
vn -0.0005 -1.0000 0.0024
vn -0.0022 -1.0000 0.0012
vn -0.0021 -1.0000 0.0011
vn -0.8636 0.0034 0.5042
vn -0.6038 -0.0011 -0.7971
vn 0.5581 -0.7070 0.4343
vn 0.0022 1.0000 -0.0012
vn 0.0018 1.0000 -0.0017
vn 0.0005 1.0000 -0.0024
vn 0.0011 1.0000 -0.0000
vn -0.5407 0.8412 -0.0000
vn -0.5406 0.8413 -0.0000
vn -0.9096 0.4154 -0.0000
vn -0.9898 -0.1423 -0.0000
vn -0.7558 -0.6549 -0.0000
vn -0.7558 -0.6548 -0.0000
vn -0.2817 -0.9595 -0.0000
vn 0.2817 -0.9595 -0.0000
vn 0.7558 -0.6548 -0.0000
vn 0.7558 -0.6549 -0.0000
vn 0.9898 -0.1423 -0.0000
vn 0.9096 0.4154 -0.0000
vn 0.5406 0.8413 -0.0000
vn 0.5407 0.8412 -0.0000
vn 0.2815 -0.9596 -0.0000
vn -0.0756 -0.0222 0.9969
vn -0.1263 -0.0812 0.9887
vn -0.0624 -0.1366 0.9887
vn 0.0214 -0.1486 0.9887
vn 0.0983 -0.1135 0.9887
vn 0.0983 -0.1134 0.9887
vn 0.1441 -0.0423 0.9887
vn 0.1441 0.0423 0.9887
vn 0.0983 0.1134 0.9887
vn 0.0213 0.1486 0.9887
vn 0.0214 0.1486 0.9887
vn -0.0624 0.1366 0.9887
vn -0.1263 0.0811 0.9887
vn -0.1263 0.0812 0.9887
vn -0.1501 -0.0000 0.9887
vn -0.0623 -0.1366 0.9887
vn 0.1440 0.0423 0.9887
vn 0.0983 0.1135 0.9887
vn -0.0624 0.1365 0.9887
vn 0.1020 -0.0425 0.9939
vn 0.0361 -0.0000 0.9993
vn 0.0360 -0.0000 0.9994
vn -0.0423 -0.7125 0.7004
vn 0.3106 -0.6380 0.7046
vn 0.6062 -0.3688 0.7046
vn 0.7094 0.0175 0.7046
vn 0.5873 0.3982 0.7046
vn 0.2788 0.6525 0.7046
vn -0.1183 0.6997 0.7046
vn -0.4778 0.5246 0.7046
vn -0.6856 0.1831 0.7046
vn -0.6757 -0.2166 0.7046
vn -0.6757 -0.2167 0.7046
vn -0.4513 -0.5476 0.7046
vn -0.0836 -0.7046 0.7046
vn -0.6855 0.1831 0.7046
vn 0.2567 0.6567 0.7091
vn 0.2566 0.6567 0.7091
vn -0.1798 0.6811 0.7098
vn -0.1455 -0.9894 -0.0000
vn -0.0011 -1.0000 -0.0000
vn 0.5407 -0.8412 -0.0000
vn 0.5406 -0.8413 -0.0000
vn 0.9096 -0.4154 -0.0000
vn 0.9898 0.1423 -0.0000
vn 0.7558 0.6549 -0.0000
vn 0.7557 0.6549 -0.0000
vn 0.2817 0.9595 -0.0000
vn -0.2817 0.9595 -0.0000
vn -0.7558 0.6549 -0.0000
vn -0.9898 0.1423 -0.0000
vn -0.9096 -0.4154 -0.0000
vn -0.5406 -0.8413 -0.0000
vn -0.5407 -0.8412 -0.0000
vn 0.7558 0.6548 -0.0000
vn -0.7557 0.6549 -0.0000
vn -0.2815 0.9596 -0.0000
vn -0.2814 0.9596 -0.0000
vn -0.7548 0.6559 -0.0000
vn -0.9088 0.4171 -0.0000
vn -0.7547 0.6560 0.0001
vn -0.5339 0.4636 -0.7071
vn -0.6557 0.3009 -0.6925
vn -0.5339 0.4636 0.7071
vn -0.6557 0.3009 0.6925
vn -0.5338 0.4637 0.7071
vn 0.0414 -0.7003 -0.7127
vn 0.4513 -0.5476 -0.7046
vn 0.6757 -0.2167 -0.7046
vn 0.6757 -0.2166 -0.7046
vn 0.6856 0.1831 -0.7046
vn 0.4778 0.5246 -0.7046
vn 0.1183 0.6997 -0.7046
vn 0.1183 0.6996 -0.7046
vn -0.2788 0.6525 -0.7046
vn -0.5873 0.3982 -0.7046
vn -0.7094 0.0175 -0.7046
vn -0.6062 -0.3688 -0.7046
vn -0.3106 -0.6380 -0.7046
vn 0.0836 -0.7046 -0.7046
vn 0.0836 -0.7046 -0.7047
vn 0.1416 0.6975 -0.7025
vn -0.2180 0.6757 -0.7042
vn 0.7548 -0.6559 -0.0000
vn 0.9088 -0.4171 -0.0000
vn 0.7548 -0.6560 -0.0000
vn 0.0756 0.0222 -0.9969
vn 0.1263 0.0812 -0.9887
vn 0.0755 0.0222 -0.9969
vn 0.0624 0.1366 -0.9887
vn -0.0213 0.1486 -0.9887
vn -0.0983 0.1135 -0.9887
vn -0.0983 0.1134 -0.9887
vn -0.1440 0.0423 -0.9887
vn -0.1441 0.0423 -0.9887
vn -0.1441 -0.0423 -0.9887
vn -0.0983 -0.1135 -0.9887
vn -0.0983 -0.1134 -0.9887
vn -0.0214 -0.1486 -0.9887
vn 0.0624 -0.1366 -0.9887
vn 0.1263 -0.0812 -0.9887
vn 0.1501 -0.0000 -0.9887
vn 0.1263 0.0811 -0.9887
vn -0.0214 0.1486 -0.9887
vn -0.1440 -0.0423 -0.9887
vn 0.0624 0.1365 -0.9887
vn -0.1020 0.0425 -0.9939
vn -0.0361 -0.0000 -0.9993
vn 0.2814 -0.9596 -0.0000
vn -0.5338 0.4637 -0.7071
vn -0.0360 -0.0000 -0.9994
vn -0.4044 0.9146 -0.0000
vn -0.5457 -0.8380 -0.0000
vn -0.7604 -0.6495 -0.0000
vn -0.3859 -0.5925 -0.7071
vn -0.5491 -0.4690 -0.6918
vn -0.3858 -0.5926 -0.7071
vn -0.3859 -0.5926 0.7071
vn -0.5491 -0.4689 0.6918
vn -0.3858 -0.5926 0.7071
vn 0.5457 0.8380 -0.0000
vn 0.7604 0.6495 -0.0000
vn -0.0755 -0.0222 0.9969
vn -0.8095 0.5855 -0.0438
vn -0.5533 0.5813 -0.5966
vn -0.9066 0.2798 -0.3160
vn -0.7417 -0.1257 0.6589
vn -0.9972 -0.0715 0.0224
vn -0.8374 -0.4116 0.3596
vn 0.7923 -0.0092 0.6101
vn 0.5655 -0.5796 0.5867
vn 0.9058 -0.2810 0.3172
vn 0.6880 0.7257 -0.0043
vn 0.9971 0.0721 -0.0228
vn 0.8365 0.4124 -0.3609
vn 0.4304 0.8102 0.3978
vn 0.4873 0.3288 0.8090
vn 0.8195 0.4491 0.3560
vn -0.0977 0.6408 0.7615
vn -0.5896 0.7099 0.3852
vn -0.5121 0.3200 0.7971
vn -0.8679 0.3070 0.3905
vn 0.0169 0.2521 0.9676
vn 0.2231 0.9135 -0.3401
vn -0.0763 0.7126 -0.6974
vn -0.3773 0.9051 -0.1960
vn 0.4467 0.6530 -0.6116
vn 0.2749 0.9485 0.1577
vn -0.1102 0.9314 0.3469
vn 0.3552 -0.1978 0.9136
vn 0.0524 -0.7167 0.6954
vn -0.2757 -0.2465 0.9291
vn -0.4355 -0.6562 0.6163
vn 0.0172 -0.2450 -0.9694
vn 0.4957 -0.2542 -0.8305
vn -0.0308 -0.6515 -0.7580
vn 0.3676 -0.8724 0.3222
vn -0.7116 -0.6979 0.0815
vn -0.2335 -0.9491 0.2115
vn 0.2830 0.2449 -0.9273
vn 0.7865 -0.6168 -0.0314
vn -0.7805 0.0151 -0.6250
vn 0.7515 0.1221 -0.6483
vn 0.8595 -0.3259 -0.3938
vn -0.8312 -0.4299 -0.3524
vn -0.3434 0.2003 -0.9176
vn -0.4915 -0.3923 -0.7775
vn 0.4053 -0.8972 -0.1755
vn 0.0184 -0.9384 -0.3450
vn -0.4940 -0.7909 -0.3612
vn 0.5273 -0.7395 -0.4185
vn 0.8095 -0.5855 -0.0438
vn 0.5532 -0.5813 -0.5966
vn 0.9066 -0.2798 -0.3160
vn 0.7417 0.1257 0.6589
vn 0.9972 0.0716 0.0226
vn 0.8374 0.4116 0.3596
vn -0.7923 0.0092 0.6101
vn -0.5655 0.5796 0.5867
vn -0.9058 0.2810 0.3172
vn -0.6880 -0.7257 -0.0043
vn -0.9971 -0.0720 -0.0229
vn -0.8365 -0.4124 -0.3609
vn -0.4304 -0.8102 0.3978
vn -0.4873 -0.3288 0.8090
vn -0.8195 -0.4491 0.3560
vn 0.0977 -0.6408 0.7615
vn 0.5896 -0.7099 0.3852
vn 0.5121 -0.3200 0.7971
vn 0.8680 -0.3067 0.3905
vn -0.0169 -0.2521 0.9676
vn -0.2231 -0.9135 -0.3401
vn 0.0763 -0.7126 -0.6974
vn 0.3773 -0.9051 -0.1960
vn -0.4467 -0.6530 -0.6116
vn -0.2749 -0.9485 0.1577
vn 0.1102 -0.9314 0.3469
vn -0.3552 0.1978 0.9136
vn -0.0524 0.7167 0.6954
vn 0.2757 0.2465 0.9291
vn 0.4355 0.6562 0.6163
vn -0.0172 0.2450 -0.9694
vn -0.4957 0.2542 -0.8305
vn 0.0308 0.6515 -0.7580
vn -0.3675 0.8724 0.3222
vn 0.7116 0.6979 0.0815
vn 0.2335 0.9491 0.2115
vn -0.2830 -0.2449 -0.9273
vn -0.7865 0.6168 -0.0314
vn 0.7805 -0.0151 -0.6250
vn -0.7515 -0.1221 -0.6483
vn -0.8595 0.3259 -0.3938
vn 0.8314 0.4294 -0.3526
vn 0.3434 -0.2003 -0.9176
vn 0.4915 0.3923 -0.7775
vn -0.4053 0.8972 -0.1755
vn -0.0184 0.9384 -0.3450
vn 0.4940 0.7909 -0.3612
vn -0.5273 0.7395 -0.4185
vn -0.3088 -0.9502 -0.0412
vn -0.3087 0.9502 -0.0417
vn -0.0021 -1.0000 -0.0011
vn 0.0021 1.0000 -0.0011
vt 0.827201 0.131811
vt 0.788176 0.204554
vt 0.778812 0.159439
vt 0.634351 0.962392
vt 0.678598 0.890983
vt 0.678598 0.962392
vt 0.722845 0.962392
vt 0.722845 0.890983
vt 0.590105 0.890983
vt 0.634351 0.890983
vt 0.744968 0.890983
vt 0.744968 0.962392
vt 0.151213 0.894459
vt 0.220248 0.937416
vt 0.139366 0.920608
vt 0.244747 0.870786
vt 0.306307 0.917369
vt 0.226413 0.905488
vt 0.813588 0.058087
vt 0.770017 0.121966
vt 0.765628 0.075337
vt 0.813588 0.351021
vt 0.770017 0.287142
vt 0.827201 0.277297
vt 0.367867 0.870786
vt 0.306307 0.883882
vt 0.386201 0.905488
vt 0.306307 0.948784
vt 0.840683 0.363201
vt 0.857029 0.284293
vt 0.461401 0.894459
vt 0.392366 0.937416
vt 0.492778 0.023808
vt 0.467540 0.067536
vt 0.467533 0.023811
vt 0.100694 0.902336
vt 0.919611 0.184996
vt 0.936194 0.227288
vt 0.901376 0.207568
vt 0.118840 0.874738
vt 0.162192 0.863472
vt 0.450422 0.863472
vt 0.778812 0.249669
vt 0.794364 0.026136
vt 0.752207 0.057011
vt 0.920153 0.269987
vt 0.881032 0.262974
vt 0.882797 0.373325
vt 0.913516 0.315257
vt 0.920153 0.360528
vt 0.882797 0.257190
vt 0.873398 0.315257
vt 0.949983 0.209107
vt 0.983542 0.253320
vt 0.971764 0.283356
vt 0.983542 0.377194
vt 0.936194 0.403227
vt 0.971764 0.347159
vt 0.782290 0.669673
vt 0.791358 0.661490
vt 0.792953 0.672576
vt 0.847538 0.661490
vt 0.856421 0.669457
vt 0.845766 0.671964
vt 0.200534 0.739156
vt 0.201078 0.695845
vt 0.222462 0.717229
vt 0.858156 0.414988
vt 0.847538 0.414988
vt 0.780740 0.661490
vt 0.791358 0.414988
vt 0.886247 0.661490
vt 0.886247 0.414988
vt 0.868660 0.204554
vt 0.839459 0.204554
vt 0.822837 0.006804
vt 0.840683 0.045907
vt 0.857029 0.124815
vt 0.170293 0.795482
vt 0.200534 0.795482
vt 0.545858 0.962392
vt 0.590105 0.962392
vt 0.469201 0.795482
vt 0.468657 0.838793
vt 0.447273 0.817410
vt 0.505403 0.045668
vt 0.492784 0.067532
vt 0.447273 0.847650
vt 0.222462 0.817410
vt 0.124002 0.105180
vt 0.348814 0.004999
vt 0.348814 0.105180
vt 0.538450 0.332401
vt 0.542122 0.363670
vt 0.525828 0.354263
vt 0.222462 0.686988
vt 0.447273 0.717229
vt 0.102075 0.083253
vt 0.124002 0.004999
vt 0.468657 0.695845
vt 0.469201 0.739156
vt 0.554744 0.385533
vt 0.554744 0.341808
vt 0.179151 0.816865
vt 0.201078 0.838793
vt 0.499442 0.739156
vt 0.901376 0.422946
vt 0.881032 0.367541
vt 0.848758 0.701245
vt 0.860230 0.699805
vt 0.523735 0.962392
vt 0.545858 0.890983
vt 0.765628 0.333771
vt 0.794364 0.382972
vt 0.752206 0.352098
vt 0.511920 0.902336
vt 0.473248 0.920608
vt 0.919611 0.445519
vt 0.949983 0.421408
vt 0.822836 0.402304
vt 0.493774 0.874738
vt 0.454914 0.045676
vt 0.102075 0.026927
vt 0.370741 0.026927
vt 0.370741 0.083253
vt 0.579988 0.341808
vt 0.592611 0.363670
vt 0.579988 0.385533
vt 0.789086 0.700344
vt 0.778092 0.698757
vt 0.752649 0.414988
vt 0.780740 0.414988
vt 0.521696 0.036258
vt 0.467543 0.086350
vt 0.438622 0.055085
vt 0.467530 0.004997
vt 0.492775 0.004993
vt 0.438619 0.036272
vt 0.451238 0.014407
vt 0.509079 0.076937
vt 0.554744 0.404347
vt 0.579988 0.322994
vt 0.608904 0.373078
vt 0.596282 0.394940
vt 0.525828 0.373077
vt 0.608904 0.354263
vt 0.880012 0.141179
vt 0.880012 0.005002
vt 0.951605 0.073091
vt 0.742668 0.005002
vt 0.742668 0.021240
vt 0.723579 0.047513
vt 0.788176 0.204554
vt 0.839459 0.204554
vt 0.678598 0.890983
vt 0.678598 0.962392
vt 0.722845 0.890983
vt 0.722845 0.962392
vt 0.590105 0.962392
vt 0.744968 0.890983
vt 0.744968 0.962392
vt 0.151213 0.894459
vt 0.220248 0.937416
vt 0.226413 0.905488
vt 0.306307 0.917369
vt 0.244747 0.870786
vt 0.306307 0.883882
vt 0.306307 0.948784
vt 0.386201 0.905488
vt 0.857029 0.284293
vt 0.392366 0.937416
vt 0.492778 0.023808
vt 0.467540 0.067536
vt 0.505403 0.045668
vt 0.100694 0.902336
vt 0.118840 0.874738
vt 0.936194 0.227288
vt 0.162192 0.863472
vt 0.137466 0.846918
vt 0.450422 0.863472
vt 0.392365 0.871381
vt 0.913516 0.315257
vt 0.873398 0.315257
vt 0.983542 0.253320
vt 0.993019 0.240204
vt 0.971764 0.283356
vt 0.983542 0.377194
vt 0.971764 0.347159
vt 0.845766 0.671964
vt 0.201078 0.695845
vt 0.200534 0.739156
vt 0.222462 0.717229
vt 0.858156 0.661490
vt 0.858156 0.414988
vt 0.886247 0.661490
vt 0.886247 0.414988
vt 0.857029 0.124815
vt 0.170293 0.795482
vt 0.200534 0.795482
vt 0.468657 0.838793
vt 0.469201 0.795482
vt 0.447273 0.817410
vt 0.492784 0.067532
vt 0.222462 0.817410
vt 0.447273 0.847650
vt 0.124002 0.105180
vt 0.447273 0.717229
vt 0.222462 0.686988
vt 0.124002 0.004999
vt 0.102075 0.083253
vt 0.468657 0.695845
vt 0.469201 0.739156
vt 0.490584 0.717773
vt 0.179151 0.816865
vt 0.201078 0.838793
vt 0.499442 0.739156
vt 0.860230 0.699805
vt 0.523735 0.962392
vt 0.493774 0.874738
vt 0.936194 0.403227
vt 0.822836 0.402304
vt 0.475148 0.846918
vt 0.454914 0.045676
vt 0.102075 0.026927
vt 0.592611 0.363670
vt 0.752649 0.414988
vt 0.438619 0.036272
vt 0.579988 0.404347
vt 0.951605 0.073091
vt 0.937932 0.031010
vt 0.880012 0.005002
vt 0.642718 0.005002
vt 0.642718 0.021240
vt 0.661807 0.047513
vt 0.939238 0.784655
vt 0.910986 0.855033
vt 0.910665 0.785356
vt 0.681114 0.879852
vt 0.630291 0.700384
vt 0.681114 0.700384
vt 0.620685 0.879712
vt 0.630291 0.879852
vt 0.069409 0.436614
vt 0.011792 0.378998
vt 0.069409 0.385790
vt 0.560267 0.878525
vt 0.509443 0.699058
vt 0.560267 0.699057
vt 0.620685 0.700244
vt 0.569872 0.878665
vt 0.569872 0.699198
vt 0.916534 0.930278
vt 0.820908 0.901608
vt 0.916568 0.901608
vt 0.741533 0.699198
vt 0.751138 0.878525
vt 0.741533 0.878665
vt 0.825284 0.788090
vt 0.826105 0.857693
vt 0.797709 0.789109
vt 0.800294 0.858313
vt 0.937777 0.855498
vt 0.915058 0.736682
vt 0.946880 0.736660
vt 0.816941 0.742567
vt 0.913259 0.707279
vt 0.815142 0.713165
vt 0.690720 0.700244
vt 0.690720 0.879712
vt 0.792509 0.900989
vt 0.062616 0.443407
vt 0.005000 0.436614
vt 0.011792 0.443407
vt 0.005000 0.385790
vt 0.062616 0.378998
vt 0.939238 0.784655
vt 0.910986 0.855033
vt 0.910664 0.785356
vt 0.681114 0.879852
vt 0.681114 0.700384
vt 0.630290 0.879852
vt 0.069409 0.436614
vt 0.011792 0.378998
vt 0.069409 0.385790
vt 0.509443 0.878526
vt 0.509443 0.699058
vt 0.916534 0.930278
vt 0.820908 0.901608
vt 0.916568 0.901608
vt 0.741533 0.699198
vt 0.741533 0.878665
vt 0.800294 0.858313
vt 0.937777 0.855498
vt 0.815142 0.713165
vt 0.690720 0.700244
vt 0.690720 0.879712
vt 0.792509 0.900989
vt 0.062616 0.443407
vt 0.004999 0.436614
vt 0.011792 0.443407
vt 0.004999 0.385790
vt 0.062616 0.378998
vt 0.984111 0.487856
vt 0.951840 0.508844
vt 0.951137 0.482049
vt 0.984813 0.514651
vt 0.952542 0.535639
vt 0.985515 0.541447
vt 0.953244 0.562435
vt 0.986218 0.568242
vt 0.953947 0.589230
vt 0.986920 0.595037
vt 0.954649 0.616025
vt 0.987623 0.621832
vt 0.955351 0.642820
vt 0.988325 0.648628
vt 0.956054 0.669616
vt 0.989027 0.675423
vt 0.956756 0.696411
vt 0.989730 0.702218
vt 0.957458 0.723206
vt 0.990432 0.729013
vt 0.958161 0.750001
vt 0.991134 0.755809
vt 0.958863 0.776797
vt 0.991837 0.782604
vt 0.959566 0.803592
vt 0.992539 0.809399
vt 0.960268 0.830387
vt 0.993241 0.836194
vt 0.960970 0.857183
vt 0.289714 0.426324
vt 0.310904 0.458462
vt 0.284114 0.459333
vt 0.316504 0.425453
vt 0.337695 0.457591
vt 0.343294 0.424582
vt 0.364485 0.456720
vt 0.370084 0.423710
vt 0.391275 0.455849
vt 0.396875 0.422839
vt 0.418066 0.454978
vt 0.423665 0.421968
vt 0.444856 0.454107
vt 0.450455 0.421097
vt 0.471646 0.453236
vt 0.477246 0.420226
vt 0.498437 0.452365
vt 0.504036 0.419355
vt 0.525227 0.451494
vt 0.530826 0.418484
vt 0.552017 0.450623
vt 0.557617 0.417613
vt 0.578808 0.449751
vt 0.584407 0.416742
vt 0.605598 0.448880
vt 0.611197 0.415871
vt 0.632388 0.448009
vt 0.637988 0.415000
vt 0.658692 0.450005
vt 0.519523 0.477577
vt 0.489752 0.505462
vt 0.487350 0.477782
vt 0.456085 0.506492
vt 0.453878 0.477171
vt 0.418222 0.475945
vt 0.420474 0.507920
vt 0.383366 0.482693
vt 0.385194 0.509780
vt 0.349533 0.481606
vt 0.351284 0.510188
vt 0.315351 0.480712
vt 0.317154 0.509793
vt 0.280887 0.479850
vt 0.247905 0.508906
vt 0.245996 0.478885
vt 0.210100 0.477854
vt 0.174880 0.508031
vt 0.173230 0.476670
vt 0.135981 0.475332
vt 0.137399 0.507057
vt 0.098543 0.473670
vt 0.099056 0.505807
vt 0.061185 0.470538
vt 0.058162 0.503856
vt 0.024340 0.461796
vt 0.733093 0.595033
vt 0.673011 0.569475
vt 0.712931 0.559737
vt 0.679050 0.603977
vt 0.631449 0.570205
vt 0.593781 0.609030
vt 0.591631 0.578120
vt 0.553198 0.576981
vt 0.555166 0.609429
vt 0.514472 0.575949
vt 0.516336 0.609157
vt 0.475126 0.574453
vt 0.439541 0.612206
vt 0.437459 0.581518
vt 0.403163 0.588006
vt 0.404919 0.614800
vt 0.369531 0.586766
vt 0.339654 0.618448
vt 0.337520 0.593682
vt 0.306718 0.593385
vt 0.308871 0.619389
vt 0.275598 0.593225
vt 0.246337 0.621129
vt 0.243781 0.592673
vt 0.216200 0.624431
vt 0.213863 0.599363
vt 0.522984 0.504453
vt 0.490663 0.513098
vt 0.457048 0.514460
vt 0.421546 0.516122
vt 0.386175 0.517746
vt 0.351964 0.518088
vt 0.317715 0.517738
vt 0.283304 0.517283
vt 0.282693 0.509274
vt 0.248555 0.517083
vt 0.212579 0.517136
vt 0.211964 0.508674
vt 0.175454 0.516664
vt 0.137908 0.515824
vt 0.099549 0.514923
vt 0.058283 0.513928
vt 0.005057 0.510028
vt 0.007597 0.497202
vt 0.681203 0.614856
vt 0.635945 0.616703
vt 0.634599 0.606893
vt 0.594835 0.618172
vt 0.555919 0.618394
vt 0.517108 0.618141
vt 0.478255 0.618536
vt 0.477177 0.609689
vt 0.440829 0.620480
vt 0.406108 0.622587
vt 0.372734 0.624025
vt 0.371676 0.616454
vt 0.340602 0.625675
vt 0.309640 0.626538
vt 0.278550 0.627158
vt 0.277727 0.619952
vt 0.247297 0.628285
vt 0.217135 0.631224
vt 0.975241 0.038477
vt 0.955689 0.038477
vt 0.948724 0.031513
vt 0.523896 0.512449
vt 0.493219 0.527627
vt 0.459978 0.529618
vt 0.424472 0.531905
vt 0.388677 0.533190
vt 0.353977 0.533383
vt 0.319583 0.533039
vt 0.285249 0.532644
vt 0.250812 0.532699
vt 0.214833 0.533461
vt 0.177425 0.533302
vt 0.139840 0.532634
vt 0.101712 0.532186
vt 0.061083 0.532753
vt 0.008237 0.537989
vt 0.739028 0.608356
vt 0.684753 0.635599
vt 0.638935 0.635573
vt 0.597489 0.635860
vt 0.558150 0.635710
vt 0.519345 0.635344
vt 0.480903 0.635405
vt 0.443778 0.636379
vt 0.408816 0.637622
vt 0.375287 0.638608
vt 0.343005 0.639633
vt 0.311772 0.640312
vt 0.280743 0.640914
vt 0.249652 0.641912
vt 0.219178 0.644733
vt 0.188463 0.649751
vt 0.146825 0.638319
vt 0.186807 0.635536
vt 0.186249 0.627894
vt 0.158442 0.600314
vt 0.186017 0.604290
vt 0.155042 0.667817
vt 0.150641 0.658965
vt 0.148251 0.628207
vt 0.525355 0.527270
vt 0.494225 0.535133
vt 0.461252 0.537487
vt 0.425599 0.540171
vt 0.389516 0.541338
vt 0.354632 0.541380
vt 0.320152 0.540996
vt 0.285904 0.540592
vt 0.251677 0.540782
vt 0.215667 0.541978
vt 0.178086 0.541979
vt 0.140448 0.541360
vt 0.102564 0.541137
vt 0.062807 0.542607
vt 0.013628 0.550203
vt 0.742705 0.638740
vt 0.685206 0.646694
vt 0.639688 0.645547
vt 0.598211 0.645175
vt 0.558845 0.644744
vt 0.520060 0.644267
vt 0.481706 0.644136
vt 0.444657 0.644695
vt 0.409737 0.645517
vt 0.376132 0.646215
vt 0.343778 0.646962
vt 0.312525 0.647492
vt 0.281542 0.648039
vt 0.250479 0.648994
vt 0.220151 0.651783
vt 0.197347 0.679870
vt 0.190172 0.657173
vt 0.690164 0.421384
vt 0.710344 0.458767
vt 0.684565 0.454393
vt 0.527789 0.561728
vt 0.525944 0.534675
vt 0.495833 0.560528
vt 0.427742 0.572936
vt 0.391468 0.571622
vt 0.356574 0.570818
vt 0.287707 0.569432
vt 0.253464 0.568474
vt 0.179698 0.573938
vt 0.142380 0.572881
vt 0.105214 0.572284
vt 0.031977 0.582296
vt 0.740080 0.652682
vt 0.681813 0.684294
vt 0.640492 0.680691
vt 0.600087 0.679049
vt 0.560798 0.677801
vt 0.522098 0.676720
vt 0.483977 0.675783
vt 0.447122 0.675064
vt 0.378536 0.674110
vt 0.346163 0.673915
vt 0.283981 0.673776
vt 0.253642 0.674206
vt 0.664292 0.416995
vt 0.224760 0.675901
vt 0.407257 0.038484
vt 0.380740 0.038484
vt 0.407257 0.005003
vt 0.559915 0.533346
vt 0.593096 0.567230
vt 0.560010 0.562536
vt 0.558512 0.508291
vt 0.607121 0.523174
vt 0.559675 0.524469
vt 0.556904 0.500142
vt 0.579284 0.462201
vt 0.598531 0.488807
vt 0.604987 0.534450
vt 0.603312 0.499137
vt 0.955710 0.456083
vt 0.993316 0.435586
vt 0.988684 0.461890
vt 0.716961 0.337487
vt 0.695746 0.407511
vt 0.677156 0.349333
vt 0.675070 0.217201
vt 0.657142 0.287353
vt 0.639335 0.227407
vt 0.076856 0.300506
vt 0.019415 0.335339
vt 0.044316 0.282945
vt 0.141985 0.194043
vt 0.075234 0.229401
vt 0.106472 0.175710
vt 0.189899 0.312024
vt 0.140481 0.330996
vt 0.132877 0.264448
vt 0.205573 0.362254
vt 0.275208 0.395172
vt 0.206751 0.439338
vt 0.273162 0.467135
vt 0.147614 0.398061
vt 0.247570 0.237985
vt 0.303174 0.192644
vt 0.302069 0.269596
vt 0.365125 0.221174
vt 0.178158 0.210432
vt 0.239053 0.169831
vt 0.381953 0.292809
vt 0.314262 0.339259
vt 0.381953 0.365357
vt 0.244557 0.266691
vt 0.268568 0.317982
vt 0.677109 0.062959
vt 0.618018 0.112824
vt 0.606043 0.046073
vt 0.109591 0.445788
vt 0.079047 0.376238
vt 0.748779 0.196749
vt 0.722786 0.264954
vt 0.628582 0.174798
vt 0.697984 0.136964
vt 0.132126 0.123700
vt 0.258671 0.348212
vt 0.758728 0.124245
vt 0.416341 0.270737
vt 0.384225 0.205466
vt 0.457299 0.219307
vt 0.543355 0.087192
vt 0.599814 0.235702
vt 0.549908 0.161753
vt 0.008099 0.052737
vt 0.073698 0.081329
vt 0.005019 0.124230
vt 0.008683 0.265098
vt 0.637930 0.362702
vt 0.073590 0.157717
vt 0.017465 0.194747
vt 0.591429 0.307233
vt 0.515108 0.352886
vt 0.466483 0.407115
vt 0.428521 0.331593
vt 0.482821 0.283276
vt 0.550239 0.289000
vt 0.050588 0.009409
vt 0.289632 0.116297
vt 0.489442 0.141196
vt 0.499292 0.193272
vt 0.524774 0.227406
vt 0.545469 0.005795
vt 0.431638 0.178072
vt 0.374789 0.133021
vt 0.423108 0.077862
vt 0.497189 0.110981
vt 0.364640 0.135790
vt 0.137466 0.846918
vt 0.392364 0.871381
vt 0.220250 0.871381
vt 0.967673 0.315257
vt 0.179150 0.717773
vt 0.858156 0.661490
vt 0.170293 0.739156
vt 0.490584 0.816865
vt 0.222462 0.847650
vt 0.447273 0.686988
vt 0.490584 0.717773
vt 0.499442 0.795482
vt 0.523735 0.890983
vt 0.993019 0.390311
vt 0.475148 0.846918
vt 0.752649 0.661490
vt 0.509070 0.014398
vt 0.492787 0.086347
vt 0.451248 0.076946
vt 0.521698 0.055073
vt 0.554744 0.322994
vt 0.538450 0.394940
vt 0.596282 0.332401
vt 0.902135 0.005002
vt 0.937932 0.115172
vt 0.902135 0.141179
vt 0.692693 0.057549
vt 0.661807 0.047513
vt 0.642718 0.005002
vt 0.642718 0.021240
vt 0.778812 0.159439
vt 0.590105 0.890983
vt 0.139366 0.920608
vt 0.778812 0.249669
vt 0.752207 0.057011
vt 0.220250 0.871381
vt 0.967673 0.315257
vt 0.179150 0.717773
vt 0.170293 0.739156
vt 0.490584 0.816865
vt 0.222462 0.847650
vt 0.447273 0.686988
vt 0.499442 0.795482
vt 0.523735 0.890983
vt 0.752206 0.352098
vt 0.752649 0.661490
vt 0.509070 0.014398
vt 0.451248 0.076946
vt 0.492775 0.004993
vt 0.451238 0.014407
vt 0.880012 0.141179
vt 0.723579 0.047513
vt 0.742668 0.005002
vt 0.742668 0.021240
vt 0.509444 0.878526
vt 0.820874 0.930278
vt 0.751138 0.699057
vt 0.946614 0.900554
vt 0.787194 0.744782
vt 0.993944 0.862990
vt 0.948724 0.004996
vt 0.982205 0.004996
vt 0.982205 0.031513
vt 0.171908 0.689764
vt 0.715944 0.425757
vt 0.463162 0.566514
vt 0.322067 0.570157
vt 0.217474 0.575545
vt 0.068278 0.573425
vt 0.723097 0.690296
vt 0.412126 0.674497
vt 0.314817 0.673772
vt 0.380740 0.005003
vt 0.414221 0.011967
vt 0.414221 0.031520
vt 0.550482 0.474898
vt 0.960343 0.429779
s 1
usemtl None.010
f 618/1/1 656/2/1 7/3/1
f 655/4/2 570/5/2 658/6/2
f 561/7/3 569/5/3 563/8/3
f 1/4/4 598/9/4 640/10/4
f 562/7/5 654/11/5 681/12/5
f 565/13/6 616/14/7 641/15/8
f 609/16/9 659/17/9 568/18/9
f 594/19/1 7/20/1 2/21/1
f 589/22/1 597/23/1 591/24/1
f 637/25/9 659/17/9 608/26/9
f 60/27/10 67/28/11 660/17/10
f 698/29/12 592/24/13 710/30/14
f 696/31/15 710/32/14 703/27/15
f 59/18/16 716/28/17 32/14/18
f 582/33/19 625/34/19 667/35/19
f 106/36/20 12/13/21 37/15/22
f 644/37/23 19/38/24 17/39/24
f 111/40/9 642/41/9 566/13/9
f 702/27/9 636/42/9 697/31/9
f 656/2/1 591/24/1 597/43/1
f 593/44/1 2/21/1 109/45/1
f 642/41/9 568/18/9 566/13/9
f 17/39/24 588/46/25 15/47/26
f 16/48/27 64/49/28 21/50/29
f 15/51/26 64/49/28 9/52/30
f 112/53/31 663/54/32 587/38/32
f 663/54/32 20/46/33 587/38/32
f 661/55/34 699/49/35 20/46/33
f 610/50/36 705/56/37 611/57/37
f 699/49/35 717/58/38 610/50/36
f 664/59/39 647/60/39 575/61/39
f 614/62/40 603/63/40 578/64/40
f 651/65/41 606/66/41 678/67/41
f 645/68/42 613/62/42 612/69/42
f 665/70/43 649/71/43 646/60/43
f 600/72/5 25/68/5 84/73/5
f 67/74/11 35/24/44 712/75/44
f 106/76/20 595/19/45 105/44/45
f 641/77/8 617/1/46 58/19/46
f 716/74/17 33/1/47 32/78/18
f 629/79/5 650/65/5 627/80/5
f 635/81/48 599/9/48 5/82/48
f 585/83/49 700/84/49 583/85/49
f 685/86/19 706/87/19 625/34/19
f 701/88/1 671/89/1 48/85/1
f 71/90/50 607/91/50 73/92/50
f 693/93/51 688/94/51 724/95/51
f 46/96/9 653/97/9 41/67/9
f 628/80/19 43/65/19 677/67/19
f 71/90/50 50/98/50 708/99/50
f 42/100/52 619/101/52 652/97/52
f 689/102/19 687/94/19 695/103/19
f 630/104/53 670/89/53 680/105/53
f 72/89/19 47/97/19 584/85/19
f 622/106/54 586/83/54 620/101/54
f 21/50/29 14/107/55 16/108/27
f 615/62/19 24/71/19 29/69/19
f 719/109/41 28/63/41 79/110/41
f 633/111/54 572/112/54 634/81/54
f 8/113/1 691/114/1 99/115/1
f 11/31/56 102/116/57 13/117/58
f 22/57/55 103/118/59 14/107/55
f 705/56/37 100/119/60 611/57/37
f 34/22/61 102/120/57 101/114/61
f 636/42/9 718/121/9 697/31/9
f 625/34/19 623/122/19 667/35/19
f 47/97/19 49/101/19 584/85/19
f 49/101/19 75/83/19 584/85/19
f 72/89/19 628/80/19 677/67/19
f 50/98/50 76/123/50 708/99/50
f 607/91/50 605/124/50 73/92/50
f 605/124/50 74/125/50 73/92/50
f 713/126/19 689/102/19 695/103/19
f 672/127/19 674/128/19 689/102/19
f 577/64/62 26/60/62 30/62/62
f 80/109/9 576/61/9 65/64/9
f 666/59/52 81/129/52 720/130/52
f 66/70/54 83/131/54 31/132/54
f 581/33/5 722/133/5 686/86/5
f 707/87/51 723/134/51 626/34/51
f 69/34/54 669/135/54 624/122/54
f 70/33/63 684/136/63 85/137/63
f 68/35/64 87/138/64 89/139/64
f 38/86/65 86/140/65 39/87/65
f 675/128/5 692/141/5 690/102/5
f 78/103/54 725/142/54 714/126/54
f 52/128/63 726/143/63 91/144/63
f 51/102/65 92/145/65 53/94/65
f 77/126/64 96/146/64 54/127/64
f 97/147/1 108/148/1 55/149/1
f 104/150/9 61/151/9 63/152/9
f 869/1/1 815/153/1 865/154/1
f 741/155/66 814/4/66 817/156/66
f 731/157/67 816/156/67 729/158/67
f 803/10/68 765/159/68 113/4/68
f 654/160/5 730/158/5 681/161/5
f 736/162/69 122/163/70 738/164/69
f 734/165/9 777/166/9 739/164/9
f 119/20/1 763/19/1 114/21/1
f 766/23/1 759/22/1 761/24/1
f 734/165/9 801/25/9 776/167/9
f 735/168/71 172/169/72 733/165/72
f 762/24/73 854/29/74 838/170/74
f 838/171/74 852/31/75 859/169/75
f 124/168/76 171/164/77 839/163/76
f 752/172/50 790/173/50 842/174/50
f 106/175/20 126/162/21 727/176/21
f 644/37/23 133/177/78 728/53/23
f 111/176/9 804/178/9 107/179/9
f 858/169/9 800/180/9 801/181/9
f 815/153/1 761/24/1 865/154/1
f 593/44/1 114/21/1 763/19/1
f 739/164/9 804/178/9 737/162/9
f 758/46/79 131/39/78 129/47/80
f 130/48/81 176/182/82 121/183/83
f 129/51/80 176/182/82 758/46/79
f 112/53/31 820/184/84 682/185/31
f 134/46/85 820/184/84 757/177/84
f 855/182/86 818/186/87 134/46/85
f 778/50/88 860/187/89 872/188/90
f 872/188/90 855/182/86 778/50/88
f 821/59/91 745/61/91 807/60/91
f 782/62/92 748/189/92 771/63/92
f 774/190/41 811/191/41 835/192/41
f 780/69/93 770/193/93 805/194/93
f 809/71/94 822/70/94 806/60/94
f 139/194/5 600/195/5 84/196/5
f 148/24/95 735/74/71 866/154/95
f 106/76/20 764/19/96 871/77/22
f 179/77/97 870/1/98 122/197/70
f 146/1/99 124/74/76 839/197/76
f 810/191/5 794/198/5 792/199/5
f 117/159/100 743/112/100 799/81/100
f 856/200/49 755/201/49 753/202/49
f 842/174/50 790/173/50 861/203/50
f 828/204/1 857/205/1 160/202/1
f 775/91/19 183/206/19 185/92/19
f 849/93/51 845/94/51 850/103/51
f 813/207/9 158/208/9 153/192/9
f 793/199/50 834/192/50 155/191/50
f 183/206/19 863/209/19 162/210/19
f 154/211/52 784/212/52 786/213/52
f 846/102/50 851/103/50 844/94/50
f 827/204/53 795/214/53 837/215/53
f 159/207/50 184/204/50 754/202/50
f 756/201/54 787/216/54 785/212/54
f 128/107/101 135/50/102 130/108/81
f 138/71/50 783/62/50 143/69/50
f 142/63/41 719/109/41 79/217/41
f 742/112/54 633/218/54 798/81/54
f 120/113/1 691/114/1 759/22/1
f 125/31/56 102/116/57 98/219/56
f 103/118/59 136/220/101 128/107/101
f 100/119/60 860/187/89 779/220/89
f 147/22/61 102/221/57 127/29/58
f 800/180/9 718/219/9 638/222/9
f 790/173/50 824/35/50 788/223/50
f 159/207/50 754/202/50 161/212/50
f 161/212/50 754/202/50 187/201/50
f 184/204/50 834/192/50 793/199/50
f 162/210/19 863/209/19 188/224/19
f 775/91/19 185/92/19 773/124/19
f 773/124/19 185/92/19 186/125/19
f 867/126/50 846/102/50 829/225/50
f 829/225/50 846/102/50 831/128/50
f 140/60/103 747/189/103 144/62/103
f 746/61/9 80/109/9 177/189/9
f 720/130/52 141/61/52 823/59/52
f 83/226/54 178/70/54 145/132/54
f 874/133/5 751/172/5 843/174/5
f 875/134/51 862/203/51 791/173/51
f 826/135/54 181/173/54 789/223/54
f 182/172/63 841/136/63 825/35/63
f 180/35/64 193/227/64 152/223/64
f 192/140/65 150/174/65 151/203/65
f 847/102/5 833/228/5 832/128/5
f 877/142/54 190/103/54 868/126/54
f 164/128/63 878/143/63 830/225/63
f 198/145/65 163/102/65 165/94/65
f 202/146/64 189/126/64 166/225/64
f 167/229/1 115/230/1 108/231/1
f 110/232/9 174/233/9 132/234/9
f 215/235/104 888/236/105 887/237/106
f 913/238/107 904/239/107 909/240/107
f 897/241/108 905/239/109 906/242/110
f 883/243/111 212/244/111 885/245/112
f 889/246/113 907/247/113 890/248/113
f 231/249/19 208/250/19 915/251/19
f 233/252/114 879/253/114 881/254/114
f 914/251/115 211/246/115 891/248/115
f 886/255/116 911/256/116 912/257/116
f 902/258/117 220/236/118 900/259/118
f 882/254/119 900/259/118 220/236/118
f 214/260/120 227/259/121 217/261/122
f 218/262/123 224/254/124 888/236/105
f 215/235/104 895/263/125 918/264/126
f 894/263/127 902/258/117 892/265/127
f 222/266/128 893/265/128 896/267/128
f 884/268/50 207/257/50 903/269/50
f 209/269/129 232/240/129 203/268/129
f 214/260/120 225/265/130 216/258/131
f 217/261/122 223/253/132 221/270/132
f 883/243/111 910/271/111 899/272/111
f 910/271/111 205/273/111 899/272/111
f 899/272/111 204/274/111 212/244/111
f 212/244/111 213/275/112 885/245/112
f 247/276/133 928/277/134 927/278/135
f 953/279/136 944/239/136 949/280/136
f 937/241/137 945/239/137 946/281/137
f 923/282/138 244/283/138 925/284/139
f 930/248/140 238/285/140 947/286/140
f 263/249/50 240/250/50 955/251/50
f 265/287/141 919/288/141 921/289/141
f 954/251/142 243/246/142 931/248/142
f 926/290/143 951/256/143 952/291/143
f 942/258/144 252/277/145 940/259/145
f 922/289/146 940/259/145 252/277/145
f 246/260/147 259/259/148 249/292/149
f 250/293/150 256/289/151 928/277/134
f 247/276/133 935/263/152 958/264/153
f 934/263/154 942/258/144 932/265/154
f 254/266/155 933/265/155 936/294/155
f 924/295/19 239/291/19 943/296/19
f 241/296/156 264/280/156 235/295/156
f 246/260/147 257/265/157 248/258/158
f 249/292/149 255/288/159 253/297/159
f 923/282/138 950/298/138 939/299/138
f 950/298/138 237/300/138 939/299/138
f 939/299/138 236/301/138 244/283/138
f 244/283/138 245/302/139 925/284/139
f 960/303/160 961/304/161 962/305/160
f 959/306/162 972/307/163 961/304/161
f 971/308/163 978/309/164 972/307/163
f 977/310/164 984/311/165 978/309/164
f 983/312/166 990/313/167 984/311/165
f 989/314/167 996/315/168 990/313/167
f 995/316/168 1002/317/169 996/315/168
f 1001/318/170 1008/319/171 1002/317/169
f 1007/320/171 1014/321/172 1008/319/171
f 1013/322/172 1020/323/173 1014/321/172
f 1019/324/173 1026/325/50 1020/323/173
f 1025/326/50 1032/327/161 1026/325/50
f 1031/328/162 1038/329/163 1032/327/161
f 1037/330/163 1044/331/164 1038/329/163
f 1043/332/164 1050/333/165 1044/334/164
f 1049/335/166 1056/336/167 1050/333/165
f 1055/337/167 1062/338/168 1056/336/167
f 1061/339/168 1068/340/169 1062/338/168
f 1067/341/170 1074/342/171 1068/340/169
f 1073/343/171 1080/344/172 1074/342/171
f 1079/345/172 1086/346/173 1080/344/172
f 1085/347/174 1092/348/50 1086/346/173
f 1091/349/50 1098/350/161 1092/348/50
f 1097/351/162 1104/352/163 1098/350/161
f 1103/353/163 1110/354/164 1104/352/163
f 1109/355/164 1116/356/165 1110/354/164
f 1115/357/166 1122/358/167 1116/356/165
f 1121/359/167 1128/360/175 1122/358/167
f 267/361/176 965/362/177 273/363/177
f 273/363/177 974/364/178 279/365/178
f 974/364/178 285/366/179 279/365/178
f 980/367/179 291/368/180 285/366/179
f 986/369/181 297/370/182 291/368/180
f 992/371/182 303/372/183 297/370/182
f 998/373/183 309/374/184 303/372/183
f 309/374/184 1010/375/185 315/376/186
f 1010/375/185 321/377/187 315/376/186
f 321/377/187 1022/378/188 327/379/189
f 1022/378/188 333/380/190 327/379/189
f 1028/381/190 339/382/177 333/380/190
f 1034/383/177 345/384/178 339/382/177
f 1040/385/191 351/386/179 345/384/178
f 1046/387/179 357/388/180 351/389/179
f 1052/390/181 363/391/182 357/388/180
f 363/391/182 1064/392/192 369/393/183
f 1064/392/192 375/394/193 369/393/183
f 1070/395/193 381/396/186 375/394/193
f 1076/397/185 387/398/194 381/396/186
f 387/398/194 1088/399/188 393/400/189
f 1088/399/188 399/401/190 393/400/189
f 1094/402/190 405/403/177 399/401/190
f 405/403/177 1106/404/178 411/405/178
f 1106/404/178 417/406/179 411/405/178
f 1112/407/179 423/408/181 417/406/179
f 423/408/181 1124/409/195 429/410/195
f 429/410/195 1130/411/196 435/412/197
f 270/413/198 963/414/199 276/362/199
f 276/362/199 973/415/200 282/364/200
f 282/364/200 979/416/201 288/367/201
f 288/367/201 985/417/202 294/369/202
f 294/369/202 991/418/203 300/371/203
f 300/371/203 997/419/204 306/373/204
f 306/373/204 1003/420/205 312/421/205
f 312/421/205 1009/422/206 318/375/206
f 318/375/206 1015/423/207 324/424/208
f 324/424/208 1021/425/209 330/378/209
f 330/378/209 1027/426/210 336/381/210
f 336/381/210 1033/427/199 342/383/199
f 342/383/199 1039/428/200 348/385/200
f 348/385/200 1045/429/201 354/430/201
f 354/387/201 1051/431/202 360/390/202
f 360/390/202 1057/432/203 366/433/203
f 366/433/203 1063/434/204 372/392/204
f 372/392/204 1069/435/205 378/395/205
f 378/395/205 1075/436/211 384/397/206
f 384/397/206 1081/437/207 390/438/208
f 390/438/208 1087/439/209 396/399/209
f 396/399/209 1093/440/210 402/402/210
f 402/402/210 1099/441/199 408/442/199
f 408/442/199 1105/443/200 414/404/200
f 414/404/200 1111/444/201 420/407/201
f 420/407/201 1117/445/202 426/446/202
f 426/446/202 1123/447/212 432/409/213
f 432/409/213 1129/448/214 438/411/214
f 1138/449/215 1134/450/215 1143/451/215
f 269/452/216 969/453/217 275/414/218
f 275/414/218 976/454/219 281/415/219
f 281/415/219 982/455/220 287/416/220
f 287/416/220 988/456/221 293/417/222
f 293/417/222 994/457/223 299/418/223
f 299/418/223 1000/458/224 305/419/224
f 305/419/224 1006/459/225 311/420/225
f 311/420/225 1012/460/226 317/422/226
f 317/422/226 1018/461/227 323/423/227
f 323/423/227 1024/462/228 329/425/229
f 329/425/229 1030/463/19 335/426/19
f 335/426/19 1036/464/217 341/427/218
f 341/427/218 1042/465/219 347/428/219
f 347/428/219 1048/466/220 353/429/220
f 353/467/220 1054/468/221 359/431/230
f 359/431/230 1060/469/223 365/432/223
f 365/432/223 1066/470/224 371/434/224
f 371/434/224 1072/471/231 377/435/231
f 377/435/231 1078/472/226 383/436/226
f 383/436/226 1084/473/227 389/437/227
f 389/437/227 1090/474/228 395/439/229
f 395/439/229 1096/475/19 401/440/19
f 401/440/19 1102/476/217 407/441/218
f 407/441/218 1108/477/219 413/443/219
f 413/443/219 1114/478/220 419/444/220
f 419/444/220 1120/479/221 425/445/222
f 425/445/222 1126/480/223 431/447/223
f 431/447/223 1132/481/232 437/448/233
f 1135/482/234 1137/483/235 1136/484/236
f 1141/485/9 1146/486/9 1145/487/9
f 447/482/237 1142/488/238 446/489/238
f 450/484/239 444/490/240 449/485/241
f 272/491/242 967/492/243 278/453/243
f 278/453/243 975/493/244 284/454/245
f 284/454/245 981/494/246 290/455/246
f 290/455/246 987/495/247 296/456/247
f 296/456/247 993/496/248 302/457/249
f 302/457/249 999/497/250 308/458/250
f 308/458/250 1005/498/251 314/459/251
f 314/459/251 1011/499/252 320/460/252
f 320/460/252 1017/500/253 326/461/253
f 326/461/253 1023/501/254 332/462/254
f 332/462/254 1029/502/255 338/463/255
f 338/463/255 1035/503/243 344/464/243
f 344/464/243 1041/504/244 350/465/245
f 350/465/245 1047/505/246 356/466/246
f 356/506/246 1053/507/247 362/468/247
f 362/468/247 1059/508/248 368/469/249
f 368/469/249 1065/509/250 374/470/250
f 374/470/250 1071/510/251 380/471/251
f 380/471/251 1077/511/252 386/472/252
f 386/472/252 1083/512/253 392/473/253
f 392/473/253 1089/513/254 398/474/254
f 398/474/254 1095/514/255 404/475/256
f 404/475/256 1101/515/243 410/476/243
f 410/476/243 1107/516/244 416/477/245
f 416/477/245 1113/517/246 422/478/246
f 422/478/246 1119/518/247 428/479/247
f 428/479/247 1125/519/257 434/480/257
f 434/480/257 1131/520/258 440/481/258
f 1150/521/1 445/488/1 448/522/1
f 452/523/259 442/524/260 451/525/261
f 1132/481/232 1136/484/236 437/448/233
f 1129/448/214 449/485/241 438/411/214
f 268/526/262 277/492/263 271/527/264
f 274/528/263 283/493/265 277/492/263
f 283/493/265 286/529/266 289/494/266
f 286/529/266 295/495/267 289/494/266
f 292/530/268 301/496/269 295/495/267
f 298/531/270 307/497/271 301/496/269
f 307/497/271 310/532/272 313/498/273
f 310/532/272 319/499/274 313/498/273
f 316/533/274 325/500/275 319/499/274
f 325/500/275 328/534/276 331/501/276
f 328/534/276 337/502/277 331/501/276
f 334/535/277 343/503/278 337/502/277
f 340/536/263 349/504/265 343/503/278
f 349/504/265 352/537/266 355/505/279
f 355/538/279 358/539/268 361/507/267
f 358/539/268 367/508/270 361/507/267
f 364/540/270 373/509/280 367/508/270
f 370/541/271 379/510/273 373/509/280
f 376/542/272 385/511/274 379/510/273
f 382/543/274 391/512/275 385/511/274
f 388/544/275 397/513/276 391/512/275
f 394/545/276 403/514/277 397/513/276
f 403/514/277 406/546/263 409/515/278
f 406/546/263 415/516/281 409/515/278
f 412/547/265 421/517/266 415/516/281
f 421/517/266 424/548/268 427/518/268
f 424/548/268 433/519/282 427/518/268
f 430/549/282 439/520/283 433/519/282
f 435/412/197 1141/485/9 1145/487/9
f 1127/550/284 451/525/261 1128/360/175
f 440/481/258 1144/522/285 447/482/237
f 436/551/286 448/522/1 439/520/283
f 1159/552/287 1167/553/287 1155/554/287
f 1156/555/1 1164/556/1 1163/557/1
f 1162/558/288 1152/559/289 1151/560/288
f 1157/561/9 1166/562/9 1158/563/9
f 459/560/290 457/564/291 460/555/292
f 461/561/293 455/565/294 462/558/295
f 463/566/296 453/567/297 464/568/296
f 962/305/160 464/568/296 960/303/160
f 964/452/198 461/561/293 462/558/295
f 272/491/242 460/555/292 968/527/242
f 267/361/176 1157/561/9 966/413/298
f 269/452/216 1151/560/288 970/491/216
f 271/527/264 1163/557/1 268/526/262
f 476/569/299 485/570/300 490/571/301
f 478/572/302 487/573/303 505/574/304
f 479/575/305 493/576/306 506/577/307
f 469/578/308 480/579/309 491/580/310
f 476/569/299 490/571/301 487/573/303
f 470/581/311 471/582/312 482/583/313
f 472/584/314 473/585/315 474/586/316
f 474/586/316 473/585/315 481/587/317
f 472/584/314 474/586/316 483/588/318
f 475/589/319 489/590/320 467/591/321
f 467/591/321 489/590/320 485/592/300
f 475/589/319 469/593/308 486/594/322
f 467/591/321 476/595/299 473/596/315
f 473/596/315 476/595/299 481/597/317
f 466/598/323 467/591/321 468/599/324
f 477/600/325 488/601/326 493/602/306
f 465/603/327 477/604/325 483/588/318
f 478/572/302 474/605/316 481/606/317
f 478/572/302 484/607/328 465/608/327
f 471/582/312 477/604/325 479/575/305
f 479/575/305 477/604/325 493/576/306
f 471/582/312 479/575/305 482/583/313
f 480/579/309 469/578/308 482/583/313
f 476/569/299 487/573/303 481/606/317
f 479/575/305 506/577/307 480/579/309
f 487/573/303 478/572/302 481/606/317
f 479/575/305 480/579/309 482/583/313
f 478/572/302 505/574/304 484/607/328
f 469/578/308 491/580/310 486/609/322
f 483/588/318 477/604/325 471/582/312
f 485/592/300 476/595/299 467/591/321
f 486/594/322 489/590/320 475/589/319
f 483/588/318 471/582/312 472/584/314
f 467/591/321 473/596/315 468/599/324
f 472/584/314 471/582/312 470/581/311
f 468/610/324 473/585/315 472/584/314
f 477/600/325 465/608/327 488/601/326
f 465/608/327 474/605/316 478/572/302
f 483/611/318 474/605/316 465/608/327
f 466/598/323 468/599/324 470/581/311
f 469/593/308 475/589/319 466/598/323
f 482/583/313 469/593/308 470/581/311
f 472/584/314 470/581/311 468/610/324
f 475/589/319 467/591/321 466/598/323
f 469/593/308 466/598/323 470/581/311
f 488/601/326 465/608/327 484/607/328
f 492/612/329 504/613/330 503/614/331
f 493/602/306 488/601/326 500/615/332
f 484/607/328 499/616/333 510/617/334
f 492/618/329 498/619/335 504/620/330
f 508/621/336 506/577/307 493/576/306
f 497/622/337 490/571/301 485/570/300
f 496/623/338 480/579/309 494/624/339
f 487/573/303 497/622/337 495/625/340
f 496/623/338 491/580/310 480/579/309
f 499/616/333 487/573/303 495/625/340
f 480/579/309 508/621/336 494/624/339
f 504/620/330 496/623/338 494/624/339
f 496/623/338 498/619/335 486/609/322
f 504/620/330 498/619/335 496/623/338
f 497/626/337 485/627/300 512/628/341
f 497/626/337 501/629/342 495/630/340
f 512/631/341 498/619/335 492/618/329
f 498/632/335 489/590/320 486/594/322
f 511/633/343 510/617/334 509/634/344
f 502/635/345 499/616/333 495/630/340
f 510/617/334 499/616/333 502/635/345
f 500/615/332 508/636/336 493/602/306
f 510/617/334 488/601/326 484/607/328
f 500/615/332 488/601/326 510/617/334
f 503/614/331 501/629/342 492/612/329
f 501/629/342 502/635/345 495/630/340
f 503/614/331 502/635/345 501/629/342
f 507/637/346 504/613/330 494/638/339
f 499/616/333 505/574/304 487/573/303
f 508/621/336 480/579/309 506/577/307
f 496/623/338 486/609/322 491/580/310
f 497/622/337 487/573/303 490/571/301
f 499/616/333 484/607/328 505/574/304
f 508/639/336 511/633/343 507/637/346
f 500/640/332 510/617/334 511/633/343
f 503/614/331 507/637/346 509/634/344
f 494/638/339 508/639/336 507/637/346
f 508/639/336 500/640/332 511/633/343
f 511/633/343 509/634/344 507/637/346
f 492/612/329 501/629/342 512/628/341
f 512/628/341 501/629/342 497/626/337
f 498/632/335 512/641/341 489/590/320
f 509/634/344 502/635/345 503/614/331
f 503/614/331 504/613/330 507/637/346
f 510/617/334 502/635/345 509/634/344
f 489/590/320 512/641/341 485/592/300
f 524/569/347 533/570/348 538/571/349
f 526/572/350 535/573/351 553/574/352
f 527/575/353 541/576/354 554/577/355
f 517/578/356 528/579/357 539/580/358
f 524/569/347 538/571/349 535/573/351
f 518/581/359 519/582/360 530/583/361
f 520/584/362 521/585/363 522/586/364
f 522/586/364 521/585/363 529/587/365
f 520/584/362 522/586/364 531/588/366
f 523/589/367 537/590/368 515/591/369
f 515/591/369 537/590/368 533/592/348
f 523/589/367 517/593/356 534/594/370
f 515/591/369 524/595/347 521/596/363
f 521/596/363 524/595/347 529/597/365
f 514/598/371 515/591/369 516/599/372
f 525/600/373 536/601/374 541/602/354
f 513/603/375 525/604/373 531/588/366
f 526/572/350 522/605/364 529/606/365
f 526/572/350 532/607/376 513/608/375
f 519/582/360 525/604/373 527/575/353
f 527/575/353 525/604/373 541/576/354
f 519/582/360 527/575/353 530/583/361
f 528/579/357 517/578/356 530/583/361
f 524/569/347 535/573/351 529/606/365
f 527/575/353 554/577/355 528/579/357
f 535/573/351 526/572/350 529/606/365
f 527/575/353 528/579/357 530/583/361
f 526/572/350 553/574/352 532/607/376
f 517/578/356 539/580/358 534/609/370
f 531/588/366 525/604/373 519/582/360
f 533/592/348 524/595/347 515/591/369
f 534/594/370 537/590/368 523/589/367
f 531/588/366 519/582/360 520/584/362
f 515/591/369 521/596/363 516/599/372
f 520/584/362 519/582/360 518/581/359
f 516/610/372 521/585/363 520/584/362
f 525/600/373 513/608/375 536/601/374
f 513/608/375 522/605/364 526/572/350
f 531/611/366 522/605/364 513/608/375
f 514/598/371 516/599/372 518/581/359
f 517/593/356 523/589/367 514/598/371
f 530/583/361 517/593/356 518/581/359
f 520/584/362 518/581/359 516/610/372
f 523/589/367 515/591/369 514/598/371
f 517/593/356 514/598/371 518/581/359
f 536/601/374 513/608/375 532/607/376
f 540/612/377 552/613/378 551/614/379
f 541/602/354 536/601/374 548/615/380
f 532/607/376 547/616/381 558/617/382
f 540/618/377 546/619/383 552/620/378
f 556/621/384 554/577/355 541/576/354
f 545/622/385 538/571/349 533/570/348
f 544/623/386 528/579/357 542/624/387
f 535/573/351 545/622/385 543/625/388
f 544/623/386 539/580/358 528/579/357
f 547/616/381 535/573/351 543/625/388
f 528/579/357 556/621/384 542/624/387
f 552/620/378 544/623/386 542/624/387
f 544/623/386 546/619/383 534/609/370
f 552/620/378 546/619/383 544/623/386
f 545/626/385 533/627/348 560/628/389
f 545/626/385 549/629/390 543/630/388
f 560/631/389 546/619/383 540/618/377
f 546/632/383 537/590/368 534/594/370
f 559/633/391 558/617/382 557/634/392
f 550/635/393 547/616/381 543/630/388
f 558/617/382 547/616/381 550/635/393
f 548/615/380 556/636/384 541/602/354
f 558/617/382 536/601/374 532/607/376
f 548/615/380 536/601/374 558/617/382
f 551/614/379 549/629/390 540/612/377
f 549/629/390 550/635/393 543/630/388
f 551/614/379 550/635/393 549/629/390
f 555/637/394 552/613/378 542/638/387
f 547/616/381 553/574/352 535/573/351
f 556/621/384 528/579/357 554/577/355
f 544/623/386 534/609/370 539/580/358
f 545/622/385 535/573/351 538/571/349
f 547/616/381 532/607/376 553/574/352
f 556/639/384 559/633/391 555/637/394
f 548/640/380 558/617/382 559/633/391
f 551/614/379 555/637/394 557/634/392
f 542/638/387 556/639/384 555/637/394
f 556/639/384 548/640/380 559/633/391
f 559/633/391 557/634/392 555/637/394
f 540/612/377 549/629/390 560/628/389
f 560/628/389 549/629/390 545/626/385
f 546/632/383 560/641/389 537/590/368
f 557/634/392 550/635/393 551/614/379
f 551/614/379 552/613/378 555/637/394
f 558/617/382 550/635/393 557/634/392
f 537/590/368 560/641/389 533/592/348
f 618/1/1 711/75/1 656/2/1
f 655/4/2 639/10/2 570/5/2
f 561/7/3 657/6/3 569/5/3
f 1/4/4 596/82/4 598/9/4
f 562/7/5 564/8/5 654/11/5
f 565/13/6 567/18/6 616/14/7
f 609/16/9 608/26/9 659/17/9
f 594/19/1 618/1/1 7/20/1
f 589/22/1 8/113/1 597/23/1
f 637/25/9 702/27/9 659/17/9
f 60/27/10 36/32/395 67/28/11
f 698/29/12 590/22/13 592/24/13
f 696/31/15 698/117/12 710/32/14
f 59/18/16 10/17/16 716/28/17
f 582/33/19 685/86/19 625/34/19
f 106/36/20 727/40/21 12/13/21
f 644/37/23 728/53/23 19/38/24
f 111/40/9 107/642/9 642/41/9
f 702/27/9 637/643/9 636/42/9
f 656/2/1 711/75/1 591/24/1
f 593/44/1 594/19/1 2/21/1
f 642/41/9 609/644/9 568/18/9
f 17/39/24 19/38/24 588/46/25
f 16/48/27 9/52/30 64/49/28
f 15/51/26 588/46/25 64/49/28
f 112/53/31 682/185/31 663/54/32
f 663/54/32 661/55/34 20/46/33
f 661/55/34 662/645/35 699/49/35
f 610/50/36 717/58/38 705/56/37
f 699/49/35 662/645/35 717/58/38
f 651/65/41 604/646/41 606/66/41
f 645/68/42 602/647/42 613/62/42
f 665/70/43 683/132/43 649/71/43
f 600/72/5 601/647/5 25/68/5
f 67/74/11 36/30/395 35/24/44
f 106/76/20 37/77/22 595/19/45
f 641/77/8 616/78/7 617/1/46
f 716/74/17 57/75/47 33/1/47
f 629/79/5 45/648/5 650/65/5
f 635/81/48 573/112/48 599/9/48
f 585/83/49 632/649/49 700/84/49
f 701/88/1 679/650/1 671/89/1
f 71/90/50 708/99/50 607/91/50
f 693/93/51 694/103/51 688/94/51
f 46/96/9 709/651/9 653/97/9
f 42/100/52 621/652/52 619/101/52
f 630/104/53 44/80/53 670/89/53
f 72/89/19 677/67/19 47/97/19
f 622/106/54 631/653/54 586/83/54
f 21/50/29 22/57/55 14/107/55
f 615/62/19 648/60/19 24/71/19
f 719/109/41 579/64/41 28/63/41
f 633/111/54 571/654/54 572/112/54
f 8/113/1 589/22/1 691/114/1
f 11/31/56 98/121/56 102/116/57
f 22/57/55 643/119/59 103/118/59
f 705/56/37 704/655/60 100/119/60
f 34/22/61 13/29/58 102/120/57
f 636/42/9 638/656/9 718/121/9
f 713/126/19 672/127/19 689/102/19
f 577/64/62 574/61/62 26/60/62
f 80/109/9 715/129/9 576/61/9
f 666/59/52 27/61/52 81/129/52
f 66/70/54 82/657/54 83/131/54
f 581/33/5 580/658/5 722/133/5
f 707/87/51 721/659/51 723/134/51
f 69/34/54 90/660/54 669/135/54
f 70/33/63 668/35/63 684/136/63
f 68/35/64 40/122/64 87/138/64
f 38/86/65 88/661/65 86/140/65
f 675/128/5 676/228/5 692/141/5
f 78/103/54 94/662/54 725/142/54
f 52/128/63 673/127/63 726/143/63
f 51/102/65 93/663/65 92/145/65
f 77/126/64 95/664/64 96/146/64
f 108/148/1 4/665/1 3/230/1
f 3/230/1 55/149/1 108/148/1
f 55/149/1 6/666/1 97/147/1
f 6/666/1 56/667/1 97/147/1
f 63/152/9 23/668/9 104/150/9
f 23/668/9 18/669/9 110/670/9
f 104/150/9 23/668/9 110/670/9
f 18/669/9 62/671/9 110/670/9
f 869/1/1 119/672/1 815/153/1
f 741/155/66 802/10/66 814/4/66
f 731/157/67 740/155/67 816/156/67
f 803/10/68 767/673/68 765/159/68
f 654/160/5 732/157/5 730/158/5
f 736/162/69 179/674/97 122/163/70
f 734/165/9 776/167/9 777/166/9
f 119/20/1 869/1/1 763/19/1
f 766/23/1 120/113/1 759/22/1
f 734/165/9 858/169/9 801/25/9
f 735/168/71 149/171/396 172/169/72
f 762/24/73 760/22/73 854/29/74
f 838/171/74 854/117/74 852/31/75
f 124/168/76 123/165/77 171/164/77
f 752/172/50 824/35/50 790/173/50
f 106/175/20 871/674/22 126/162/21
f 644/37/23 131/39/78 133/177/78
f 111/176/9 737/162/9 804/178/9
f 858/169/9 853/31/9 800/180/9
f 815/153/1 766/675/1 761/24/1
f 593/44/1 109/676/1 114/21/1
f 739/164/9 777/677/9 804/178/9
f 758/46/79 133/177/78 131/39/78
f 130/48/81 135/50/102 176/182/82
f 129/51/80 121/183/83 176/182/82
f 112/53/31 757/177/84 820/184/84
f 134/46/85 818/186/87 820/184/84
f 855/182/86 819/678/86 818/186/87
f 778/50/88 779/220/89 860/187/89
f 872/188/90 819/678/86 855/182/86
f 774/190/41 772/679/41 811/191/41
f 780/69/93 781/62/93 770/193/93
f 809/71/94 840/132/94 822/70/94
f 139/194/5 769/193/5 600/195/5
f 148/24/95 149/170/396 735/74/71
f 106/76/20 105/44/45 764/19/96
f 179/77/97 170/19/98 870/1/98
f 146/1/99 169/154/99 124/74/76
f 810/191/5 157/680/5 794/198/5
f 117/159/100 768/673/100 743/112/100
f 856/200/49 797/681/49 755/201/49
f 828/204/1 836/682/1 857/205/1
f 775/91/19 863/209/19 183/206/19
f 849/93/51 876/95/51 845/94/51
f 813/207/9 864/683/9 158/208/9
f 154/211/52 812/207/52 784/212/52
f 827/204/53 156/199/53 795/214/53
f 159/207/50 834/192/50 184/204/50
f 756/201/54 796/684/54 787/216/54
f 128/107/101 136/220/101 135/50/102
f 138/71/50 808/60/50 783/62/50
f 142/63/41 749/189/41 719/109/41
f 742/112/54 571/685/54 633/218/54
f 120/113/1 99/686/1 691/114/1
f 125/31/56 127/117/58 102/116/57
f 103/118/59 643/119/59 136/220/101
f 100/119/60 704/655/60 860/187/89
f 147/22/61 101/114/61 102/221/57
f 800/180/9 853/31/9 718/219/9
f 867/126/50 851/103/50 846/102/50
f 140/60/103 744/61/103 747/189/103
f 746/61/9 715/129/9 80/109/9
f 720/130/52 81/129/52 141/61/52
f 83/226/54 82/687/54 178/70/54
f 874/133/5 750/688/5 751/172/5
f 875/134/51 873/659/51 862/203/51
f 826/135/54 196/689/54 181/173/54
f 182/172/63 191/690/63 841/136/63
f 180/35/64 195/691/64 193/227/64
f 192/140/65 194/661/65 150/174/65
f 847/102/5 848/141/5 833/228/5
f 877/142/54 200/662/54 190/103/54
f 164/128/63 197/144/63 878/143/63
f 198/145/65 199/663/65 163/102/65
f 202/146/64 201/664/64 189/126/64
f 115/230/1 116/665/1 108/231/1
f 108/231/1 97/692/1 167/229/1
f 97/692/1 168/667/1 118/666/1
f 167/229/1 97/692/1 118/666/1
f 132/234/9 137/668/9 110/232/9
f 137/668/9 175/693/9 104/694/9
f 110/232/9 137/668/9 104/694/9
f 175/693/9 173/695/9 104/694/9
f 215/235/104 218/262/123 888/236/105
f 913/238/107 210/242/107 904/239/107
f 897/241/108 898/249/109 905/239/109
f 883/243/111 899/272/111 212/244/111
f 889/246/113 206/696/113 907/247/113
f 231/249/19 229/241/19 208/250/19
f 233/252/114 901/697/114 879/253/114
f 914/251/115 916/250/115 211/246/115
f 886/255/116 908/698/116 911/256/116
f 902/258/117 219/237/117 220/236/118
f 882/254/119 880/253/119 900/259/118
f 214/260/120 216/258/131 227/259/121
f 218/262/123 917/699/124 224/254/124
f 215/235/104 887/237/106 895/263/125
f 894/263/127 219/237/117 902/258/117
f 222/266/128 234/263/128 893/265/128
f 884/268/50 228/255/50 207/257/50
f 209/269/129 230/238/129 232/240/129
f 214/260/120 226/700/397 225/265/130
f 217/261/122 227/259/121 223/253/132
f 247/276/133 250/293/150 928/277/134
f 953/279/136 242/281/136 944/239/136
f 937/241/137 938/249/137 945/239/137
f 923/282/138 939/299/138 244/283/138
f 930/248/140 929/246/140 238/285/140
f 263/249/50 261/241/50 240/250/50
f 265/287/141 941/697/141 919/288/141
f 954/251/142 956/250/142 243/246/142
f 926/290/143 948/698/143 951/256/143
f 942/258/144 251/278/144 252/277/145
f 922/289/146 920/288/146 940/259/145
f 246/260/147 248/258/158 259/259/148
f 250/293/150 957/699/151 256/289/151
f 247/276/133 927/278/135 935/263/152
f 934/263/154 251/278/144 942/258/144
f 254/266/155 266/263/155 933/265/155
f 924/295/19 260/290/19 239/291/19
f 241/296/156 262/279/156 264/280/156
f 246/260/147 258/700/398 257/265/157
f 249/292/149 259/259/148 255/288/159
f 960/303/160 959/306/162 961/304/161
f 959/306/162 971/308/163 972/307/163
f 971/308/163 977/310/164 978/309/164
f 977/310/164 983/312/166 984/311/165
f 983/312/166 989/314/167 990/313/167
f 989/314/167 995/316/168 996/315/168
f 995/316/168 1001/318/170 1002/317/169
f 1001/318/170 1007/320/171 1008/319/171
f 1007/320/171 1013/322/172 1014/321/172
f 1013/322/172 1019/324/173 1020/323/173
f 1019/324/173 1025/326/50 1026/325/50
f 1025/326/50 1031/328/162 1032/327/161
f 1031/328/162 1037/330/163 1038/329/163
f 1037/330/163 1043/701/164 1044/331/164
f 1043/332/164 1049/335/166 1050/333/165
f 1049/335/166 1055/337/167 1056/336/167
f 1055/337/167 1061/339/168 1062/338/168
f 1061/339/168 1067/341/170 1068/340/169
f 1067/341/170 1073/343/171 1074/342/171
f 1073/343/171 1079/345/172 1080/344/172
f 1079/345/172 1085/347/174 1086/346/173
f 1085/347/174 1091/349/50 1092/348/50
f 1091/349/50 1097/351/162 1098/350/161
f 1097/351/162 1103/353/163 1104/352/163
f 1103/353/163 1109/355/164 1110/354/164
f 1109/355/164 1115/357/166 1116/356/165
f 1115/357/166 1121/359/167 1122/358/167
f 1121/359/167 1127/550/284 1128/360/175
f 267/361/176 966/413/298 965/362/177
f 273/363/177 965/362/177 974/364/178
f 974/364/178 980/367/179 285/366/179
f 980/367/179 986/369/181 291/368/180
f 986/369/181 992/371/182 297/370/182
f 992/371/182 998/373/183 303/372/183
f 998/373/183 1004/421/184 309/374/184
f 309/374/184 1004/421/184 1010/375/185
f 1010/375/185 1016/424/194 321/377/187
f 321/377/187 1016/424/194 1022/378/188
f 1022/378/188 1028/381/190 333/380/190
f 1028/381/190 1034/383/177 339/382/177
f 1034/383/177 1040/385/191 345/384/178
f 1040/385/191 1046/430/179 351/386/179
f 1046/387/179 1052/390/181 357/388/180
f 1052/390/181 1058/433/182 363/391/182
f 363/391/182 1058/433/182 1064/392/192
f 1064/392/192 1070/395/193 375/394/193
f 1070/395/193 1076/397/185 381/396/186
f 1076/397/185 1082/438/187 387/398/194
f 387/398/194 1082/438/187 1088/399/188
f 1088/399/188 1094/402/190 399/401/190
f 1094/402/190 1100/442/177 405/403/177
f 405/403/177 1100/442/177 1106/404/178
f 1106/404/178 1112/407/179 417/406/179
f 1112/407/179 1118/446/181 423/408/181
f 423/408/181 1118/446/181 1124/409/195
f 429/410/195 1124/409/195 1130/411/196
f 270/413/198 964/452/198 963/414/199
f 276/362/199 963/414/199 973/415/200
f 282/364/200 973/415/200 979/416/201
f 288/367/201 979/416/201 985/417/202
f 294/369/202 985/417/202 991/418/203
f 300/371/203 991/418/203 997/419/204
f 306/373/204 997/419/204 1003/420/205
f 312/421/205 1003/420/205 1009/422/206
f 318/375/206 1009/422/206 1015/423/207
f 324/424/208 1015/423/207 1021/425/209
f 330/378/209 1021/425/209 1027/426/210
f 336/381/210 1027/426/210 1033/427/199
f 342/383/199 1033/427/199 1039/428/200
f 348/385/200 1039/428/200 1045/429/201
f 354/387/201 1045/467/201 1051/431/202
f 360/390/202 1051/431/202 1057/432/203
f 366/433/203 1057/432/203 1063/434/204
f 372/392/204 1063/434/204 1069/435/205
f 378/395/205 1069/435/205 1075/436/211
f 384/397/206 1075/436/211 1081/437/207
f 390/438/208 1081/437/207 1087/439/209
f 396/399/209 1087/439/209 1093/440/210
f 402/402/210 1093/440/210 1099/441/199
f 408/442/199 1099/441/199 1105/443/200
f 414/404/200 1105/443/200 1111/444/201
f 420/407/201 1111/444/201 1117/445/202
f 426/446/202 1117/445/202 1123/447/212
f 432/409/213 1123/447/212 1129/448/214
f 1143/451/215 1149/702/215 1147/703/215
f 1147/703/215 1140/704/215 1143/451/215
f 1140/704/215 1138/449/215 1143/451/215
f 269/452/216 970/491/216 969/453/217
f 275/414/218 969/453/217 976/454/219
f 281/415/219 976/454/219 982/455/220
f 287/416/220 982/455/220 988/456/221
f 293/417/222 988/456/221 994/457/223
f 299/418/223 994/457/223 1000/458/224
f 305/419/224 1000/458/224 1006/459/225
f 311/420/225 1006/459/225 1012/460/226
f 317/422/226 1012/460/226 1018/461/227
f 323/423/227 1018/461/227 1024/462/228
f 329/425/229 1024/462/228 1030/463/19
f 335/426/19 1030/463/19 1036/464/217
f 341/427/218 1036/464/217 1042/465/219
f 347/428/219 1042/465/219 1048/466/220
f 353/467/220 1048/506/220 1054/468/221
f 359/431/230 1054/468/221 1060/469/223
f 365/432/223 1060/469/223 1066/470/224
f 371/434/224 1066/470/224 1072/471/231
f 377/435/231 1072/471/231 1078/472/226
f 383/436/226 1078/472/226 1084/473/227
f 389/437/227 1084/473/227 1090/474/228
f 395/439/229 1090/474/228 1096/475/19
f 401/440/19 1096/475/19 1102/476/217
f 407/441/218 1102/476/217 1108/477/219
f 413/443/219 1108/477/219 1114/478/220
f 419/444/220 1114/478/220 1120/479/221
f 425/445/222 1120/479/221 1126/480/223
f 431/447/223 1126/480/223 1132/481/232
f 1135/482/234 1133/489/235 1137/483/235
f 1141/485/9 1139/490/9 1146/486/9
f 447/482/237 1144/522/285 1142/488/238
f 450/484/239 443/483/240 444/490/240
f 272/491/242 968/527/242 967/492/243
f 278/453/243 967/492/243 975/493/244
f 284/454/245 975/493/244 981/494/246
f 290/455/246 981/494/246 987/495/247
f 296/456/247 987/495/247 993/496/248
f 302/457/249 993/496/248 999/497/250
f 308/458/250 999/497/250 1005/498/251
f 314/459/251 1005/498/251 1011/499/252
f 320/460/252 1011/499/252 1017/500/253
f 326/461/253 1017/500/253 1023/501/254
f 332/462/254 1023/501/254 1029/502/255
f 338/463/255 1029/502/255 1035/503/243
f 344/464/243 1035/503/243 1041/504/244
f 350/465/245 1041/504/244 1047/505/246
f 356/506/246 1047/538/246 1053/507/247
f 362/468/247 1053/507/247 1059/508/248
f 368/469/249 1059/508/248 1065/509/250
f 374/470/250 1065/509/250 1071/510/251
f 380/471/251 1071/510/251 1077/511/252
f 386/472/252 1077/511/252 1083/512/253
f 392/473/253 1083/512/253 1089/513/254
f 398/474/254 1089/513/254 1095/514/255
f 404/475/256 1095/514/255 1101/515/243
f 410/476/243 1101/515/243 1107/516/244
f 416/477/245 1107/516/244 1113/517/246
f 422/478/246 1113/517/246 1119/518/247
f 428/479/247 1119/518/247 1125/519/257
f 434/480/257 1125/519/257 1131/520/258
f 1150/521/1 1148/705/1 445/488/1
f 452/523/259 441/706/260 442/524/260
f 1132/481/232 1135/482/234 1136/484/236
f 1129/448/214 450/484/239 449/485/241
f 268/526/262 274/528/263 277/492/263
f 274/528/263 280/707/265 283/493/265
f 283/493/265 280/707/265 286/529/266
f 286/529/266 292/530/268 295/495/267
f 292/530/268 298/531/270 301/496/269
f 298/531/270 304/708/271 307/497/271
f 307/497/271 304/708/271 310/532/272
f 310/532/272 316/533/274 319/499/274
f 316/533/274 322/709/275 325/500/275
f 325/500/275 322/709/275 328/534/276
f 328/534/276 334/535/277 337/502/277
f 334/535/277 340/536/263 343/503/278
f 340/536/263 346/710/265 349/504/265
f 349/504/265 346/710/265 352/537/266
f 355/538/279 352/711/266 358/539/268
f 358/539/268 364/540/270 367/508/270
f 364/540/270 370/541/271 373/509/280
f 370/541/271 376/542/272 379/510/273
f 376/542/272 382/543/274 385/511/274
f 382/543/274 388/544/275 391/512/275
f 388/544/275 394/545/276 397/513/276
f 394/545/276 400/712/277 403/514/277
f 403/514/277 400/712/277 406/546/263
f 406/546/263 412/547/265 415/516/281
f 412/547/265 418/713/279 421/517/266
f 421/517/266 418/713/279 424/548/268
f 424/548/268 430/549/282 433/519/282
f 430/549/282 436/551/286 439/520/283
f 435/412/197 1130/411/196 1141/485/9
f 1127/550/284 452/523/259 451/525/261
f 440/481/258 1131/520/258 1144/522/285
f 436/551/286 1150/521/1 448/522/1
f 1167/553/287 1165/714/287 1155/554/287
f 1155/554/287 1153/715/287 1161/716/287
f 1161/716/287 1159/552/287 1155/554/287
f 1156/555/1 1154/564/1 1164/556/1
f 1162/558/288 1160/565/289 1152/559/289
f 1157/561/9 1168/717/9 1166/562/9
f 459/560/290 458/559/291 457/564/291
f 461/561/293 456/563/294 455/565/294
f 463/566/296 454/718/297 453/567/297
f 962/305/160 463/566/296 464/568/296
f 964/452/198 270/413/198 461/561/293
f 272/491/242 459/560/290 460/555/292
f 267/361/176 1168/717/9 1157/561/9
f 269/452/216 1162/558/288 1151/560/288
f 271/527/264 1156/555/1 1163/557/1
