# Blender 5.0.1
# www.blender.org
mtllib 20.mtl
o 20
v 0.093208 0.093208 0.572952
v 0.000000 0.000000 2.366709
v 0.000000 0.218846 0.572952
v 0.000000 0.218846 0.572952
v 0.000000 0.000000 2.366709
v -0.093208 0.093208 0.572952
v -0.093208 0.093208 0.572952
v 0.000000 0.000000 2.366709
v -0.218845 0.000000 0.572952
v -0.218845 0.000000 0.572952
v 0.000000 0.000000 2.366709
v -0.093208 -0.093208 0.572952
v -0.093208 -0.093208 0.572952
v 0.000000 0.000000 2.366709
v 0.000000 -0.218845 0.572952
v 0.000000 -0.218845 0.572952
v 0.000000 0.000000 2.366709
v 0.093208 -0.093208 0.572952
v 0.093208 -0.093208 0.572952
v 0.000000 0.000000 2.366709
v 0.218845 0.000000 0.572952
v 0.218845 0.000000 0.572952
v 0.000000 0.000000 2.366709
v 0.093208 0.093208 0.572952
v 0.000000 0.118355 0.095632
v 0.000000 0.000000 0.095632
v 0.077274 0.077275 0.095632
v -0.077274 0.077275 0.095632
v -0.118354 0.000000 0.095632
v -0.077274 -0.077274 0.095632
v 0.000000 -0.118354 0.095632
v 0.077274 -0.077274 0.095632
v 0.118354 0.000000 0.095632
v 0.000000 0.218846 0.572952
v 0.000000 0.156080 0.465355
v 0.083922 0.083923 0.465355
v 0.093208 0.093208 0.572952
v -0.093208 0.093208 0.572952
v -0.083922 0.083923 0.465355
v 0.000000 0.156080 0.465355
v 0.000000 0.218846 0.572952
v -0.218845 0.000000 0.572952
v -0.156080 0.000000 0.465355
v -0.083922 0.083923 0.465355
v -0.093208 0.093208 0.572952
v -0.093208 -0.093208 0.572952
v -0.083922 -0.083922 0.465355
v -0.156080 0.000000 0.465355
v -0.218845 0.000000 0.572952
v 0.000000 -0.218845 0.572952
v 0.000000 -0.156080 0.465355
v -0.083922 -0.083922 0.465355
v -0.093208 -0.093208 0.572952
v 0.093208 -0.093208 0.572952
v 0.083922 -0.083922 0.465355
v 0.000000 -0.156080 0.465355
v 0.000000 -0.218845 0.572952
v 0.218845 0.000000 0.572952
v 0.156080 0.000000 0.465355
v 0.083922 -0.083922 0.465355
v 0.093208 -0.093208 0.572952
v 0.093208 0.093208 0.572952
v 0.083922 0.083923 0.465355
v 0.156080 0.000000 0.465355
v 0.218845 0.000000 0.572952
v 0.000000 0.156080 0.465355
v 0.000000 0.132513 0.233238
v 0.086518 0.086518 0.233238
v 0.083922 0.083923 0.465355
v -0.083922 0.083923 0.465355
v -0.086518 0.086518 0.233238
v 0.000000 0.132513 0.233238
v 0.000000 0.156080 0.465355
v -0.156080 0.000000 0.465355
v -0.132513 0.000000 0.233238
v -0.086518 0.086518 0.233238
v -0.083922 0.083923 0.465355
v -0.083922 -0.083922 0.465355
v -0.086518 -0.086518 0.233238
v -0.132513 0.000000 0.233238
v -0.156080 0.000000 0.465355
v 0.000000 -0.156080 0.465355
v 0.000000 -0.132512 0.233238
v -0.086518 -0.086518 0.233238
v -0.083922 -0.083922 0.465355
v 0.083922 -0.083922 0.465355
v 0.086518 -0.086518 0.233238
v 0.000000 -0.132512 0.233238
v 0.000000 -0.156080 0.465355
v 0.156080 0.000000 0.465355
v 0.132513 0.000000 0.233238
v 0.086518 -0.086518 0.233238
v 0.083922 -0.083922 0.465355
v 0.083922 0.083923 0.465355
v 0.086518 0.086518 0.233238
v 0.132513 0.000000 0.233238
v 0.156080 0.000000 0.465355
v 0.000000 0.132513 0.233238
v 0.000000 0.250868 0.213798
v 0.178955 0.178955 0.217536
v 0.086518 0.086518 0.233238
v -0.086518 0.086518 0.233238
v -0.178954 0.178955 0.217536
v 0.000000 0.250868 0.213798
v 0.000000 0.132513 0.233238
v -0.132513 0.000000 0.233238
v -0.250867 0.000000 0.213798
v -0.178954 0.178955 0.217536
v -0.086518 0.086518 0.233238
v -0.086518 -0.086518 0.233238
v -0.178954 -0.178954 0.217536
v -0.250867 0.000000 0.213798
v -0.132513 0.000000 0.233238
v 0.000000 -0.132512 0.233238
v 0.000000 -0.250867 0.213798
v -0.178954 -0.178954 0.217536
v -0.086518 -0.086518 0.233238
v 0.086518 -0.086518 0.233238
v 0.178955 -0.178954 0.217536
v 0.000000 -0.250867 0.213798
v 0.000000 -0.132512 0.233238
v 0.132513 0.000000 0.233238
v 0.250867 0.000000 0.213798
v 0.178955 -0.178954 0.217536
v 0.086518 -0.086518 0.233238
v 0.086518 0.086518 0.233238
v 0.178955 0.178955 0.217536
v 0.250867 0.000000 0.213798
v 0.132513 0.000000 0.233238
v 0.000000 0.250868 0.213798
v 0.000000 0.250868 0.111111
v 0.178955 0.178955 0.107373
v 0.178955 0.178955 0.217536
v -0.178954 0.178955 0.217536
v -0.178954 0.178955 0.107373
v 0.000000 0.250868 0.111111
v 0.000000 0.250868 0.213798
v -0.250867 0.000000 0.213798
v -0.250867 0.000000 0.111110
v -0.178954 0.178955 0.107373
v -0.178954 0.178955 0.217536
v -0.178954 -0.178954 0.217536
v -0.178954 -0.178954 0.107373
v -0.250867 0.000000 0.111110
v -0.250867 0.000000 0.213798
v 0.000000 -0.250867 0.213798
v 0.000000 -0.250867 0.111110
v -0.178954 -0.178954 0.107373
v -0.178954 -0.178954 0.217536
v 0.178955 -0.178954 0.217536
v 0.178955 -0.178954 0.107373
v 0.000000 -0.250867 0.111110
v 0.000000 -0.250867 0.213798
v 0.250867 0.000000 0.213798
v 0.250867 0.000000 0.111110
v 0.178955 -0.178954 0.107373
v 0.178955 -0.178954 0.217536
v 0.178955 0.178955 0.217536
v 0.178955 0.178955 0.107373
v 0.250867 0.000000 0.111110
v 0.250867 0.000000 0.213798
v 0.000000 0.250868 0.111111
v 0.000000 0.118355 0.095632
v 0.077274 0.077275 0.095632
v 0.178955 0.178955 0.107373
v -0.178954 0.178955 0.107373
v -0.077274 0.077275 0.095632
v 0.000000 0.118355 0.095632
v 0.000000 0.250868 0.111111
v -0.250867 0.000000 0.111110
v -0.118354 0.000000 0.095632
v -0.077274 0.077275 0.095632
v -0.178954 0.178955 0.107373
v -0.178954 -0.178954 0.107373
v -0.077274 -0.077274 0.095632
v -0.118354 0.000000 0.095632
v -0.250867 0.000000 0.111110
v 0.000000 -0.250867 0.111110
v 0.000000 -0.118354 0.095632
v -0.077274 -0.077274 0.095632
v -0.178954 -0.178954 0.107373
v 0.178955 -0.178954 0.107373
v 0.077274 -0.077274 0.095632
v 0.000000 -0.118354 0.095632
v 0.000000 -0.250867 0.111110
v 0.250867 0.000000 0.111110
v 0.118354 0.000000 0.095632
v 0.077274 -0.077274 0.095632
v 0.178955 -0.178954 0.107373
v 0.178955 0.178955 0.107373
v 0.077274 0.077275 0.095632
v 0.118354 0.000000 0.095632
v 0.250867 0.000000 0.111110
v 0.116329 0.131975 0.104320
v -0.116329 0.131975 0.104320
v -0.100961 0.114541 -0.239859
v 0.100961 0.114541 -0.239859
v 0.100961 -0.114540 -0.239859
v -0.100961 -0.114540 -0.239859
v -0.116329 -0.131975 0.104320
v 0.116329 -0.131975 0.104320
v -0.114540 -0.100961 -0.239859
v -0.114540 0.100962 -0.239859
v -0.131975 0.116329 0.104320
v -0.131975 -0.116329 0.104320
v 0.116329 0.116329 0.122397
v 0.116329 -0.116329 0.122397
v -0.116329 -0.116329 0.122397
v -0.116329 0.116329 0.122397
v 0.114540 0.100961 -0.239859
v 0.114540 -0.100961 -0.239859
v 0.131975 -0.116329 0.104320
v 0.131975 0.116329 0.104320
v 0.100961 0.114541 -0.239859
v 0.100961 0.100961 -0.255548
v 0.114540 0.100961 -0.239859
v 0.100961 -0.100961 -0.255548
v 0.100961 -0.114540 -0.239859
v 0.114540 -0.100961 -0.239859
v -0.100961 -0.100961 -0.255548
v -0.114540 -0.100961 -0.239859
v -0.100961 -0.114540 -0.239859
v -0.114540 0.100962 -0.239859
v -0.100961 0.100962 -0.255548
v -0.100961 0.114541 -0.239859
v 0.131975 0.116329 0.104320
v 0.116329 0.116329 0.122397
v 0.116329 0.131975 0.104320
v 0.116329 -0.116329 0.122397
v 0.131975 -0.116329 0.104320
v 0.116329 -0.131975 0.104320
v -0.116329 -0.116329 0.122397
v -0.116329 -0.131975 0.104320
v -0.131975 -0.116329 0.104320
v -0.116329 0.131975 0.104320
v -0.116329 0.116329 0.122397
v -0.131975 0.116329 0.104320
v 0.114540 0.100961 -0.239859
v 0.100961 0.100961 -0.255548
v 0.100961 -0.100961 -0.255548
v 0.114540 -0.100961 -0.239859
v 0.100961 0.100961 -0.255548
v 0.100961 0.114541 -0.239859
v -0.100961 0.114541 -0.239859
v -0.100961 0.100962 -0.255548
v 0.100961 0.114541 -0.239859
v 0.114540 0.100961 -0.239859
v 0.131975 0.116329 0.104320
v 0.116329 0.131975 0.104320
v 0.100961 -0.114540 -0.239859
v 0.100961 -0.100961 -0.255548
v -0.100961 -0.100961 -0.255548
v -0.100961 -0.114540 -0.239859
v 0.114540 -0.100961 -0.239859
v 0.100961 -0.114540 -0.239859
v 0.116329 -0.131975 0.104320
v 0.131975 -0.116329 0.104320
v -0.114540 -0.100961 -0.239859
v -0.100961 -0.100961 -0.255548
v -0.100961 0.100962 -0.255548
v -0.114540 0.100962 -0.239859
v -0.100961 -0.114540 -0.239859
v -0.114540 -0.100961 -0.239859
v -0.131975 -0.116329 0.104320
v -0.116329 -0.131975 0.104320
v -0.114540 0.100962 -0.239859
v -0.100961 0.114541 -0.239859
v -0.116329 0.131975 0.104320
v -0.131975 0.116329 0.104320
v 0.116329 0.116329 0.122397
v 0.131975 0.116329 0.104320
v 0.131975 -0.116329 0.104320
v 0.116329 -0.116329 0.122397
v 0.116329 0.131975 0.104320
v 0.116329 0.116329 0.122397
v -0.116329 0.116329 0.122397
v -0.116329 0.131975 0.104320
v 0.116329 -0.116329 0.122397
v 0.116329 -0.131975 0.104320
v -0.116329 -0.131975 0.104320
v -0.116329 -0.116329 0.122397
v -0.116329 -0.116329 0.122397
v -0.131975 -0.116329 0.104320
v -0.131975 0.116329 0.104320
v -0.116329 0.116329 0.122397
v 0.100961 0.100961 -0.255548
v -0.100961 0.100962 -0.255548
v -0.100961 -0.100961 -0.255548
v 0.100961 -0.100961 -0.255548
vn 0.8015 0.5946 0.0632
vn 0.8015 0.5947 0.0632
vn -0.8015 0.5946 0.0632
vn -0.5946 0.8015 0.0632
vn -0.5947 0.8015 0.0632
vn -0.5946 -0.8015 0.0632
vn -0.8015 -0.5946 0.0632
vn -0.8015 -0.5947 0.0632
vn 0.8015 -0.5946 0.0632
vn 0.5946 -0.8015 0.0632
vn 0.5947 -0.8015 0.0632
vn 0.5946 0.8015 0.0632
vn -0.0000 -0.0000 -1.0000
vn 0.7298 0.6547 -0.1970
vn 0.7298 0.6547 -0.1969
vn -0.7298 0.6547 -0.1970
vn -0.7298 0.6547 -0.1969
vn -0.6547 0.7298 -0.1970
vn -0.6547 0.7298 -0.1969
vn -0.6547 -0.7298 -0.1970
vn -0.7298 -0.6547 -0.1970
vn -0.7298 -0.6547 -0.1969
vn 0.7298 -0.6547 -0.1970
vn 0.6547 -0.7298 -0.1970
vn 0.6547 -0.7298 -0.1969
vn 0.6547 0.7298 -0.1970
vn 0.6547 0.7298 -0.1969
vn 0.5692 0.8212 -0.0406
vn 0.5692 0.8212 -0.0405
vn 0.5693 0.8211 -0.0405
vn -0.5692 0.8212 -0.0405
vn -0.5693 0.8211 -0.0406
vn -0.8212 0.5692 -0.0406
vn -0.8212 0.5692 -0.0405
vn -0.8211 0.5693 -0.0405
vn -0.8212 -0.5692 -0.0405
vn -0.8212 -0.5693 -0.0405
vn -0.5692 -0.8212 -0.0406
vn -0.5692 -0.8212 -0.0405
vn -0.5693 -0.8211 -0.0405
vn 0.5692 -0.8212 -0.0405
vn 0.5693 -0.8212 -0.0405
vn 0.8212 -0.5692 -0.0406
vn 0.8212 -0.5692 -0.0405
vn 0.8211 -0.5693 -0.0405
vn 0.8212 0.5692 -0.0405
vn 0.0577 0.1662 0.9844
vn -0.0577 0.1662 0.9844
vn -0.0576 0.1662 0.9844
vn -0.1662 0.0577 0.9844
vn -0.1663 0.0577 0.9844
vn -0.1662 -0.0577 0.9844
vn -0.1662 -0.0576 0.9844
vn -0.0577 -0.1662 0.9844
vn 0.0577 -0.1662 0.9844
vn 0.0576 -0.1662 0.9844
vn 0.1662 -0.0577 0.9844
vn 0.1662 0.0577 0.9844
vn 0.1662 0.0576 0.9844
vn 0.3729 0.9279 -0.0000
vn -0.3729 0.9279 -0.0000
vn -0.9279 0.3729 -0.0000
vn -0.9279 -0.3729 -0.0000
vn -0.3729 -0.9279 -0.0000
vn 0.3729 -0.9279 -0.0000
vn 0.9279 -0.3729 -0.0000
vn 0.9279 0.3729 -0.0000
vn 0.0356 0.1191 -0.9922
vn 0.0357 0.1191 -0.9922
vn -0.0356 0.1191 -0.9922
vn -0.1191 0.0356 -0.9922
vn -0.1191 0.0357 -0.9922
vn -0.1191 -0.0356 -0.9922
vn -0.0356 -0.1191 -0.9922
vn -0.0357 -0.1191 -0.9922
vn 0.0356 -0.1191 -0.9922
vn 0.1191 -0.0356 -0.9922
vn 0.1191 -0.0357 -0.9922
vn 0.1191 0.0356 -0.9922
vn 0.1191 0.0357 -0.9922
vn -0.0000 0.9992 -0.0408
vn -0.0000 -0.9992 -0.0408
vn -0.9992 -0.0000 -0.0408
vn -0.0000 -0.0000 1.0000
vn 0.9992 -0.0000 -0.0408
vn 0.6262 0.6262 -0.4644
vn 0.6262 -0.6262 -0.4644
vn -0.6262 -0.6262 -0.4644
vn -0.6262 0.6262 -0.4644
vn 0.6262 0.6262 0.4644
vn 0.6262 -0.6262 0.4644
vn -0.6262 -0.6262 0.4644
vn -0.6262 0.6262 0.4644
vn 0.8032 -0.0000 -0.5957
vn -0.0000 0.8032 -0.5957
vn 0.7061 0.7061 -0.0542
vn 0.7060 0.7061 -0.0542
vn -0.0000 -0.8032 -0.5957
vn 0.7061 -0.7061 -0.0542
vn 0.7061 -0.7060 -0.0542
vn -0.8032 -0.0000 -0.5957
vn -0.7061 -0.7061 -0.0542
vn -0.7060 -0.7061 -0.0542
vn -0.7061 0.7061 -0.0542
vn -0.7061 0.7060 -0.0542
vn 0.8032 -0.0000 0.5957
vn -0.0000 0.8032 0.5957
vn -0.0000 -0.8032 0.5957
vn -0.8032 -0.0000 0.5957
vt 0.279199 0.320519
vt 0.059670 1.001573
vt 0.153169 0.320519
vt 0.059670 0.320519
vt 0.152988 0.320519
vt 0.282273 0.320519
vt 0.486999 0.138679
vt 0.434279 0.191398
vt 0.434279 0.110652
vt 0.381559 0.138679
vt 0.353533 0.191398
vt 0.381559 0.244118
vt 0.434279 0.272145
vt 0.486999 0.244118
vt 0.515026 0.191398
vt 0.145263 0.201966
vt 0.218857 0.201966
vt 0.059670 0.201966
vt 0.220373 0.201966
vt 0.144877 0.201966
vt 0.147911 0.018688
vt 0.194821 0.018688
vt 0.059670 0.018688
vt 0.195716 0.018688
vt 0.147594 0.018688
vt 0.642529 0.807295
vt 0.482510 0.843990
vt 0.482510 0.758722
vt 0.555274 0.720039
vt 0.322490 0.807294
vt 0.409746 0.720039
vt 0.285795 0.647275
vt 0.371064 0.647275
vt 0.322491 0.487255
vt 0.409746 0.574511
vt 0.482510 0.450560
vt 0.482510 0.535829
vt 0.642530 0.487256
vt 0.555274 0.574511
vt 0.679225 0.647275
vt 0.593957 0.647275
vt 0.687372 0.852137
vt 0.482510 0.903097
vt 0.277648 0.852136
vt 0.226688 0.647275
vt 0.277649 0.442413
vt 0.482510 0.391454
vt 0.687372 0.442414
vt 0.738332 0.647275
vt 0.434279 0.020246
vt 0.556370 0.069308
vt 0.312188 0.069308
vt 0.263126 0.191398
vt 0.312188 0.313489
vt 0.434279 0.362551
vt 0.556370 0.313489
vt 0.605432 0.191398
vt 0.961077 0.482848
vt 0.739035 0.482848
vt 0.739035 0.038766
vt 0.961077 0.038766
vt 0.245181 0.042143
vt 0.245181 0.486225
vt 0.023140 0.042143
s 1
usemtl MetalSpike_(Instance).001
f 3/1/1 2/2/2 1/3/1
f 6/3/3 5/2/3 4/1/3
f 9/4/4 8/2/5 7/3/4
f 12/3/6 11/2/6 10/4/6
f 15/1/7 14/2/8 13/3/7
f 18/5/9 17/2/9 16/6/9
f 21/4/10 20/2/11 19/5/10
f 24/3/12 23/2/12 22/4/12
f 27/7/13 26/8/13 25/9/13
f 25/9/13 26/8/13 28/10/13
f 28/10/13 26/8/13 29/11/13
f 29/11/13 26/8/13 30/12/13
f 30/12/13 26/8/13 31/13/13
f 31/13/13 26/8/13 32/14/13
f 32/14/13 26/8/13 33/15/13
f 33/15/13 26/8/13 27/7/13
f 36/16/14 35/17/14 34/1/14
f 37/3/15 36/16/14 34/1/14
f 40/17/16 39/16/17 38/3/16
f 41/1/16 40/17/16 38/3/16
f 44/16/18 43/18/18 42/4/18
f 45/3/19 44/16/18 42/4/18
f 48/18/20 47/16/20 46/3/20
f 49/4/20 48/18/20 46/3/20
f 52/16/21 51/17/21 50/1/21
f 53/3/22 52/16/21 50/1/21
f 56/19/23 55/20/23 54/5/23
f 57/6/23 56/19/23 54/5/23
f 60/20/24 59/18/24 58/4/24
f 61/5/25 60/20/24 58/4/24
f 64/18/26 63/16/27 62/3/26
f 65/4/26 64/18/26 62/3/26
f 68/21/28 67/22/28 66/17/29
f 69/16/30 68/21/28 66/17/29
f 72/22/31 71/21/31 70/16/31
f 73/17/32 72/22/31 70/16/31
f 76/21/33 75/23/34 74/18/34
f 77/16/35 76/21/33 74/18/34
f 80/23/36 79/21/36 78/16/36
f 81/18/37 80/23/36 78/16/36
f 84/21/38 83/22/39 82/17/39
f 85/16/40 84/21/38 82/17/39
f 88/24/41 87/25/41 86/20/41
f 89/19/42 88/24/41 86/20/41
f 92/25/43 91/23/44 90/18/44
f 93/20/45 92/25/43 90/18/44
f 96/23/46 95/21/46 94/16/46
f 97/18/46 96/23/46 94/16/46
f 100/26/47 99/27/47 98/28/47
f 101/29/47 100/26/47 98/28/47
f 104/27/48 103/30/49 102/31/48
f 105/28/48 104/27/48 102/31/48
f 108/30/50 107/32/50 106/33/50
f 109/31/51 108/30/50 106/33/50
f 112/32/52 111/34/53 110/35/52
f 113/33/52 112/32/52 110/35/52
f 116/34/54 115/36/54 114/37/54
f 117/35/54 116/34/54 114/37/54
f 120/36/55 119/38/56 118/39/55
f 121/37/55 120/36/55 118/39/55
f 124/38/57 123/40/57 122/41/57
f 125/39/57 124/38/57 122/41/57
f 128/40/58 127/26/59 126/29/58
f 129/41/58 128/40/58 126/29/58
f 132/42/60 131/43/60 130/27/60
f 133/26/60 132/42/60 130/27/60
f 136/43/61 135/44/61 134/30/61
f 137/27/61 136/43/61 134/30/61
f 140/44/62 139/45/62 138/32/62
f 141/30/62 140/44/62 138/32/62
f 144/45/63 143/46/63 142/34/63
f 145/32/63 144/45/63 142/34/63
f 148/46/64 147/47/64 146/36/64
f 149/34/64 148/46/64 146/36/64
f 152/47/65 151/48/65 150/38/65
f 153/36/65 152/47/65 150/38/65
f 156/48/66 155/49/66 154/40/66
f 157/38/66 156/48/66 154/40/66
f 160/49/67 159/42/67 158/26/67
f 161/40/67 160/49/67 158/26/67
f 164/7/68 163/9/69 162/50/68
f 165/51/68 164/7/68 162/50/68
f 168/9/70 167/10/70 166/52/70
f 169/50/70 168/9/70 166/52/70
f 172/10/71 171/11/72 170/53/71
f 173/52/71 172/10/71 170/53/71
f 176/11/73 175/12/73 174/54/73
f 177/53/73 176/11/73 174/54/73
f 180/12/74 179/13/75 178/55/74
f 181/54/74 180/12/74 178/55/74
f 184/13/76 183/14/76 182/56/76
f 185/55/76 184/13/76 182/56/76
f 188/14/77 187/15/78 186/57/77
f 189/56/77 188/14/77 186/57/77
f 192/15/79 191/7/79 190/51/79
f 193/57/80 192/15/79 190/51/79
f 196/58/81 195/59/81 194/60/81
f 197/61/81 196/58/81 194/60/81
f 200/58/82 199/59/82 198/60/82
f 201/61/82 200/58/82 198/60/82
f 204/58/83 203/59/83 202/60/83
f 205/61/83 204/58/83 202/60/83
f 208/58/84 207/59/84 206/60/84
f 209/61/84 208/58/84 206/60/84
f 212/58/85 211/59/85 210/60/85
f 213/61/85 212/58/85 210/60/85
f 216/62/86 215/63/86 214/64/86
f 219/62/87 218/63/87 217/64/87
f 222/62/88 221/63/88 220/64/88
f 225/62/89 224/63/89 223/64/89
f 228/62/90 227/63/90 226/64/90
f 231/62/91 230/63/91 229/64/91
f 234/62/92 233/63/92 232/64/92
f 237/62/93 236/63/93 235/64/93
f 240/58/94 239/59/94 238/60/94
f 241/61/94 240/58/94 238/60/94
f 244/58/95 243/59/95 242/60/95
f 245/61/95 244/58/95 242/60/95
f 248/58/96 247/59/96 246/60/97
f 249/61/96 248/58/96 246/60/97
f 252/58/98 251/59/98 250/60/98
f 253/61/98 252/58/98 250/60/98
f 256/58/99 255/59/99 254/60/100
f 257/61/99 256/58/99 254/60/100
f 260/58/101 259/59/101 258/60/101
f 261/61/101 260/58/101 258/60/101
f 264/58/102 263/59/102 262/60/103
f 265/61/102 264/58/102 262/60/103
f 268/58/104 267/59/104 266/60/105
f 269/61/104 268/58/104 266/60/105
f 272/58/106 271/59/106 270/60/106
f 273/61/106 272/58/106 270/60/106
f 276/58/107 275/59/107 274/60/107
f 277/61/107 276/58/107 274/60/107
f 280/58/108 279/59/108 278/60/108
f 281/61/108 280/58/108 278/60/108
f 284/58/109 283/59/109 282/60/109
f 285/61/109 284/58/109 282/60/109
f 288/58/13 287/59/13 286/60/13
f 289/61/13 288/58/13 286/60/13
