# Blender 5.0.1
# www.blender.org
mtllib 4.mtl
o 4
v -0.311214 0.311214 0.665499
v -0.311214 -0.311214 0.665499
v 0.311214 -0.311214 0.665499
v 0.311214 0.311214 0.665499
v -0.311214 0.311214 0.665499
v -0.457775 0.457775 0.724976
v -0.474564 0.439631 0.731789
v -0.474564 -0.439630 0.731789
v -0.311214 -0.311214 0.665499
v -0.457775 -0.457775 0.724976
v 0.457775 -0.457775 0.724976
v 0.311214 -0.311214 0.665499
v -0.311214 -0.311214 0.665499
v -0.457775 -0.457775 0.724976
v 0.439630 -0.474564 0.731789
v -0.439630 -0.474564 0.731789
v 0.457775 0.457775 0.724976
v 0.439630 0.474564 0.731789
v -0.439630 0.474564 0.731789
v -0.457775 0.457775 0.724976
v 0.311214 0.311214 0.665499
v -0.311214 0.311214 0.665499
v 0.474564 0.439631 0.731789
v 0.457775 0.457775 0.724976
v 0.311214 0.311214 0.665499
v 0.474564 -0.439630 0.731789
v 0.311214 -0.311214 0.665499
v 0.457775 -0.457775 0.724976
v -0.474564 -0.439631 0.975084
v -0.474564 0.439631 0.975084
v -0.445064 0.445065 0.995149
v -0.445064 -0.445064 0.995149
v -0.439630 -0.474564 0.975084
v -0.439630 -0.474564 0.731789
v -0.474564 -0.439630 0.731789
v -0.474564 -0.439631 0.975084
v -0.457775 -0.457775 0.724976
v -0.445064 -0.445064 0.995149
v 0.445064 -0.445064 0.995149
v 0.439630 -0.474564 0.975084
v -0.439630 -0.474564 0.975084
v 0.445064 -0.445064 0.995149
v 0.445064 0.445065 0.995149
v 0.474564 0.439631 0.975084
v 0.474564 -0.439631 0.975084
v 0.474564 -0.439631 0.975084
v 0.474564 -0.439630 0.731789
v 0.439630 -0.474564 0.731789
v 0.439630 -0.474564 0.975084
v 0.457775 -0.457775 0.724976
v -0.474564 0.439631 0.975084
v -0.474564 0.439631 0.731789
v -0.439630 0.474564 0.731789
v -0.439630 0.474564 0.975084
v -0.457775 0.457775 0.724976
v -0.439630 0.474564 0.975084
v 0.439630 0.474564 0.975084
v 0.445064 0.445065 0.995149
v -0.445064 0.445065 0.995149
v 0.439630 0.474564 0.975084
v 0.439630 0.474564 0.731789
v 0.474564 0.439631 0.731789
v 0.474564 0.439631 0.975084
v 0.457775 0.457775 0.724976
v -0.439630 -0.474564 0.975084
v 0.439630 -0.474564 0.975084
v 0.439630 -0.474564 0.731789
v -0.439630 -0.474564 0.731789
v -0.445064 -0.445064 0.995149
v -0.445064 0.445065 0.995149
v 0.445064 0.445065 0.995149
v 0.445064 -0.445064 0.995149
v -0.439630 0.474564 0.975084
v -0.439630 0.474564 0.731789
v 0.439630 0.474564 0.731789
v 0.439630 0.474564 0.975084
v 0.474564 -0.439631 0.975084
v 0.474564 0.439631 0.975084
v 0.474564 0.439631 0.731789
v 0.474564 -0.439630 0.731789
v -0.474564 0.439631 0.975084
v -0.474564 -0.439631 0.975084
v -0.474564 -0.439630 0.731789
v -0.474564 0.439631 0.731789
v -0.474564 -0.439631 0.975084
v -0.445064 -0.445064 0.995149
v -0.439630 -0.474564 0.975084
v 0.445064 -0.445064 0.995149
v 0.474564 -0.439631 0.975084
v 0.439630 -0.474564 0.975084
v -0.474564 0.439631 0.975084
v -0.439630 0.474564 0.975084
v -0.445064 0.445065 0.995149
v 0.439630 0.474564 0.975084
v 0.474564 0.439631 0.975084
v 0.445064 0.445065 0.995149
v -0.330115 -0.330116 1.043094
v -0.330115 0.330116 1.043094
v -0.294349 0.294349 1.060532
v -0.294349 -0.294349 1.060531
v -0.294349 -0.294349 1.060531
v 0.294349 -0.294349 1.060531
v 0.330115 -0.330116 1.043094
v -0.330115 -0.330116 1.043094
v 0.294349 -0.294349 1.060531
v 0.294349 0.294349 1.060532
v 0.330115 0.330116 1.043094
v 0.330115 -0.330116 1.043094
v -0.330115 0.330116 1.043094
v 0.330115 0.330116 1.043094
v 0.294349 0.294349 1.060532
v -0.294349 0.294349 1.060532
v -0.330115 -0.330116 0.974891
v -0.330115 -0.330116 1.043094
v 0.330115 -0.330116 1.043094
v 0.330115 -0.330116 0.974891
v -0.294349 -0.294349 1.060531
v -0.294349 0.294349 1.060532
v 0.294349 0.294349 1.060532
v 0.294349 -0.294349 1.060531
v -0.330115 0.330116 1.043094
v -0.330115 0.330116 0.974891
v 0.330115 0.330116 0.974891
v 0.330115 0.330116 1.043094
v 0.330115 -0.330116 0.974891
v 0.330115 -0.330116 1.043094
v 0.330115 0.330116 1.043094
v 0.330115 0.330116 0.974891
v -0.330115 0.330116 0.974891
v -0.330115 0.330116 1.043094
v -0.330115 -0.330116 1.043094
v -0.330115 -0.330116 0.974891
v -0.231408 -0.231408 0.339138
v -0.231408 0.231408 0.339138
v 0.231408 0.231408 0.339138
v 0.231408 -0.231408 0.339138
v -0.352870 0.317937 0.275651
v -0.336698 0.336698 0.284984
v -0.231408 0.231408 0.339138
v -0.352870 -0.317937 0.275650
v -0.231408 -0.231408 0.339138
v -0.336698 -0.336698 0.284984
v -0.336698 0.336698 0.284984
v -0.317937 0.352870 0.275651
v 0.317937 0.352870 0.275651
v 0.336698 0.336698 0.284984
v -0.231408 0.231408 0.339138
v 0.231408 0.231408 0.339138
v -0.336698 -0.336698 0.284984
v -0.231408 -0.231408 0.339138
v 0.231408 -0.231408 0.339138
v 0.336698 -0.336698 0.284984
v -0.317937 -0.352870 0.275650
v 0.317937 -0.352870 0.275650
v 0.231408 0.231408 0.339138
v 0.336698 0.336698 0.284984
v 0.352870 0.317937 0.275651
v 0.352870 -0.317937 0.275650
v 0.231408 -0.231408 0.339138
v 0.336698 -0.336698 0.284984
v -0.352870 0.317937 0.031456
v -0.352870 -0.317937 0.031455
v -0.317937 -0.317937 0.006808
v -0.317937 0.317937 0.006808
v -0.317937 0.352870 0.031456
v -0.317937 0.352870 0.275651
v -0.352870 0.317937 0.275651
v -0.352870 0.317937 0.031456
v -0.336698 0.336698 0.284984
v -0.317937 0.317937 0.006808
v 0.317937 0.317937 0.006808
v 0.317937 0.352870 0.031456
v -0.317937 0.352870 0.031456
v 0.317937 0.317937 0.006808
v 0.317937 -0.317937 0.006808
v 0.352870 -0.317937 0.031455
v 0.352870 0.317937 0.031456
v 0.352870 0.317937 0.031456
v 0.352870 0.317937 0.275651
v 0.317937 0.352870 0.275651
v 0.317937 0.352870 0.031456
v 0.336698 0.336698 0.284984
v -0.352870 -0.317937 0.031455
v -0.352870 -0.317937 0.275650
v -0.317937 -0.352870 0.275650
v -0.317937 -0.352870 0.031455
v -0.336698 -0.336698 0.284984
v -0.317937 -0.352870 0.031455
v 0.317937 -0.352870 0.031455
v 0.317937 -0.317937 0.006808
v -0.317937 -0.317937 0.006808
v 0.317937 -0.352870 0.031455
v 0.317937 -0.352870 0.275650
v 0.352870 -0.317937 0.275650
v 0.352870 -0.317937 0.031455
v 0.336698 -0.336698 0.284984
v -0.317937 0.352870 0.031456
v 0.317937 0.352870 0.031456
v 0.317937 0.352870 0.275651
v -0.317937 0.352870 0.275651
v -0.317937 0.317937 0.006808
v -0.317937 -0.317937 0.006808
v 0.317937 -0.317937 0.006808
v 0.317937 0.317937 0.006808
v -0.317937 -0.352870 0.031455
v -0.317937 -0.352870 0.275650
v 0.317937 -0.352870 0.275650
v 0.317937 -0.352870 0.031455
v 0.352870 0.317937 0.031456
v 0.352870 -0.317937 0.031455
v 0.352870 -0.317937 0.275650
v 0.352870 0.317937 0.275651
v -0.352870 -0.317937 0.031455
v -0.352870 0.317937 0.031456
v -0.352870 0.317937 0.275651
v -0.352870 -0.317937 0.275650
v -0.352870 0.317937 0.031456
v -0.317937 0.317937 0.006808
v -0.317937 0.352870 0.031456
v 0.317937 0.317937 0.006808
v 0.352870 0.317937 0.031456
v 0.317937 0.352870 0.031456
v -0.352870 -0.317937 0.031455
v -0.317937 -0.352870 0.031455
v -0.317937 -0.317937 0.006808
v 0.317937 -0.352870 0.031455
v 0.352870 -0.317937 0.031455
v 0.317937 -0.317937 0.006808
v -0.216789 0.216789 -0.052472
v -0.216789 0.216789 0.056832
v 0.216789 0.216789 0.056832
v 0.216789 0.216789 -0.052472
v 0.216789 0.216789 -0.052472
v 0.216789 0.216789 0.056832
v 0.216789 -0.216789 0.056831
v 0.216789 -0.216789 -0.052472
v 0.216789 -0.216789 -0.052472
v 0.216789 -0.216789 0.056831
v -0.216789 -0.216789 0.056831
v -0.216789 -0.216789 -0.052472
v -0.216789 -0.216789 -0.052472
v -0.216789 -0.216789 0.056831
v -0.216789 0.216789 0.056832
v -0.216789 0.216789 -0.052472
v -0.304680 -0.304679 -0.031860
v 0.304680 -0.304679 -0.031860
v 0.269746 -0.269746 -0.052472
v -0.269746 -0.269746 -0.052472
v -0.269746 -0.269746 -0.052472
v -0.269746 0.269747 -0.052472
v -0.304680 0.304680 -0.031860
v -0.304680 -0.304679 -0.031860
v 0.304680 -0.304679 -0.031860
v 0.304680 0.304680 -0.031860
v 0.269746 0.269747 -0.052472
v 0.269746 -0.269746 -0.052472
v -0.269746 0.269747 -0.052472
v 0.269746 0.269747 -0.052472
v 0.304680 0.304680 -0.031860
v -0.304680 0.304680 -0.031860
v -0.304680 -0.304679 -0.031860
v -0.304680 -0.304679 0.031078
v 0.304680 -0.304679 0.031078
v 0.304680 -0.304679 -0.031860
v -0.304680 0.304680 0.031078
v -0.304680 0.304680 -0.031860
v 0.304680 0.304680 -0.031860
v 0.304680 0.304680 0.031078
v 0.304680 -0.304679 -0.031860
v 0.304680 -0.304679 0.031078
v 0.304680 0.304680 0.031078
v 0.304680 0.304680 -0.031860
v -0.304680 0.304680 -0.031860
v -0.304680 0.304680 0.031078
v -0.304680 -0.304679 0.031078
v -0.304680 -0.304679 -0.031860
v -0.269746 0.269747 -0.052472
v -0.216789 0.216789 -0.052472
v 0.216789 0.216789 -0.052472
v 0.269746 0.269747 -0.052472
v 0.216789 -0.216789 -0.052472
v 0.269746 -0.269746 -0.052472
v -0.216789 -0.216789 -0.052472
v -0.269746 -0.269746 -0.052472
v -0.091494 -0.091494 -0.044263
v -0.091494 -0.091494 0.138237
v 0.091494 -0.091494 0.138237
v 0.091494 -0.091494 -0.044263
v -0.091494 -0.091494 1.116922
v -0.091494 0.091494 1.116922
v 0.091494 0.091494 1.116922
v 0.091494 -0.091494 1.116922
v -0.091494 0.091494 0.138237
v -0.091494 0.091494 -0.044263
v 0.091494 0.091494 -0.044263
v 0.091494 0.091494 0.138237
v -0.091494 0.091494 -0.044263
v -0.091494 -0.091494 -0.044263
v 0.091494 -0.091494 -0.044263
v 0.091494 0.091494 -0.044263
v 0.091494 -0.091494 -0.044263
v 0.091494 -0.091494 0.138237
v 0.091494 0.091494 0.138237
v 0.091494 0.091494 -0.044263
v -0.091494 0.091494 -0.044263
v -0.091494 0.091494 0.138237
v -0.091494 -0.091494 0.138237
v -0.091494 -0.091494 -0.044263
v -0.091494 -0.091494 0.862144
v -0.091494 -0.091494 1.116922
v 0.091494 -0.091494 1.116922
v 0.091494 -0.091494 0.862144
v -0.091494 0.091494 0.862144
v -0.091494 0.091494 1.116922
v -0.091494 -0.091494 1.116922
v -0.091494 -0.091494 0.862144
v -0.091494 0.091494 1.116922
v -0.091494 0.091494 0.862144
v 0.091494 0.091494 0.862144
v 0.091494 0.091494 1.116922
v 0.091494 -0.091494 0.862144
v 0.091494 -0.091494 1.116922
v 0.091494 0.091494 1.116922
v 0.091494 0.091494 0.862144
v -0.120331 -0.155264 0.895723
v 0.120331 -0.155264 0.895723
v 0.120331 -0.155264 0.104659
v -0.120331 -0.155264 0.104659
v -0.155264 0.120331 0.895723
v -0.155264 -0.120331 0.895723
v -0.155264 -0.120331 0.104659
v -0.155264 0.120331 0.104659
v -0.120331 0.155265 0.104659
v 0.120331 0.155265 0.104659
v 0.120331 0.155264 0.895723
v -0.120331 0.155264 0.895723
v 0.155264 -0.120331 0.895723
v 0.155264 0.120331 0.895723
v 0.155264 0.120331 0.104659
v 0.155264 -0.120331 0.104659
v 0.155264 -0.120331 0.895723
v 0.155264 -0.120331 0.104659
v 0.120331 -0.155264 0.104659
v 0.120331 -0.155264 0.895723
v -0.120331 -0.155264 0.895723
v -0.120331 -0.155264 0.104659
v -0.155264 -0.120331 0.104659
v -0.155264 -0.120331 0.895723
v -0.155264 0.120331 0.895723
v -0.155264 0.120331 0.104659
v -0.120331 0.155265 0.104659
v -0.120331 0.155264 0.895723
v 0.120331 0.155264 0.895723
v 0.120331 0.155265 0.104659
v 0.155264 0.120331 0.104659
v 0.155264 0.120331 0.895723
vn -0.0000 -0.0000 -1.0000
vn -0.3760 -0.0000 -0.9266
vn -0.0000 -0.3760 -0.9266
vn -0.0000 0.3760 -0.9266
vn 0.3760 -0.0000 -0.9266
vn -0.5624 -0.0000 0.8269
vn -0.7071 -0.7071 0.0003
vn -0.7071 -0.7071 -0.0000
vn -0.7002 -0.7002 0.1394
vn -0.0000 -0.5624 0.8269
vn 0.5624 -0.0000 0.8269
vn 0.7071 -0.7071 0.0003
vn 0.7071 -0.7071 -0.0000
vn 0.7002 -0.7002 0.1394
vn -0.7071 0.7071 0.0003
vn -0.7071 0.7071 -0.0000
vn -0.7002 0.7002 0.1393
vn -0.0000 0.5624 0.8268
vn 0.7071 0.7071 0.0003
vn 0.7071 0.7071 -0.0000
vn 0.7002 0.7002 0.1393
vn -0.0000 -1.0000 -0.0000
vn -0.0000 -0.0000 1.0000
vn -0.0000 1.0000 -0.0000
vn 1.0000 -0.0000 -0.0000
vn -1.0000 -0.0000 -0.0000
vn -0.5393 -0.5393 0.6468
vn 0.5393 -0.5393 0.6468
vn -0.5393 0.5393 0.6468
vn 0.5393 0.5393 0.6468
vn -0.4382 -0.0000 0.8989
vn -0.0000 -0.4382 0.8989
vn 0.4382 -0.0000 0.8989
vn -0.0000 0.4382 0.8989
vn -0.4998 -0.0000 0.8661
vn -0.0000 0.4998 0.8661
vn -0.0000 -0.4998 0.8661
vn -0.0000 -0.4999 0.8661
vn 0.4998 -0.0000 0.8661
vn -0.5765 -0.0000 -0.8171
vn -0.7071 0.7071 -0.0011
vn -0.6939 0.6939 -0.1925
vn -0.0000 0.5765 -0.8171
vn 0.5765 -0.0000 -0.8171
vn 0.7071 0.7071 -0.0011
vn 0.6939 0.6939 -0.1925
vn -0.7071 -0.7071 -0.0011
vn -0.6939 -0.6939 -0.1925
vn -0.0000 -0.5765 -0.8171
vn 0.7071 -0.7071 -0.0011
vn 0.6939 -0.6939 -0.1925
vn -0.4995 0.4995 -0.7079
vn 0.4995 0.4995 -0.7079
vn -0.4995 -0.4995 -0.7079
vn 0.4995 -0.4995 -0.7079
vn -0.0000 -0.5082 -0.8613
vn -0.5082 -0.0000 -0.8613
vn 0.5082 -0.0000 -0.8613
vn -0.0000 0.5082 -0.8613
vn -0.0000 -0.9368 -0.3499
vn -0.0000 0.9368 -0.3499
vn 0.9368 -0.0000 -0.3499
vn -0.9368 -0.0000 -0.3499
vn -0.0000 -0.9524 0.3048
vn -0.9524 -0.0000 0.3048
vn -0.0000 0.9524 0.3048
vn 0.9524 -0.0000 0.3048
vt 0.494820 0.315874
vt 0.341661 0.315874
vt 0.341661 0.162715
vt 0.494820 0.162715
vt 0.301466 0.131116
vt 0.305598 0.126651
vt 0.301466 0.347473
vt 0.305598 0.351937
vt 0.530883 0.351937
vt 0.526419 0.356069
vt 0.310062 0.356069
vt 0.310062 0.122520
vt 0.526419 0.122520
vt 0.530883 0.126651
vt 0.535015 0.131116
vt 0.535015 0.347473
vt 0.240108 0.975369
vt 0.232955 0.978438
vt 0.232955 0.657896
vt 0.240108 0.660965
vt 0.146947 0.657959
vt 0.146947 0.649219
vt 0.232955 0.649219
vt 0.144545 0.651321
vt 0.234022 0.657014
vt 0.244152 0.659786
vt 0.244152 0.975574
vt 0.234022 0.978345
vt 0.233568 0.657876
vt 0.239206 0.660944
vt 0.239205 0.975349
vt 0.233568 0.978417
vt 0.147560 0.988337
vt 0.147560 0.979596
vt 0.233568 0.988337
vt 0.145158 0.986234
vt 0.146947 0.988357
vt 0.146947 0.979617
vt 0.232955 0.988357
vt 0.144545 0.986255
vt 0.137589 0.660341
vt 0.147718 0.657570
vt 0.147718 0.978901
vt 0.137589 0.976130
vt 0.147560 0.657938
vt 0.147560 0.649198
vt 0.233568 0.649198
vt 0.145158 0.651301
vt 0.148015 0.656851
vt 0.148015 0.978509
vt 0.583174 0.974450
vt 0.261691 0.974450
vt 0.261691 0.663287
vt 0.583174 0.663287
vt 0.233726 0.657407
vt 0.233726 0.979065
vt 0.237500 0.650835
vt 0.236598 0.985478
vt 0.237500 0.985499
vt 0.236598 0.650815
vt 0.774205 0.978089
vt 0.761399 0.990895
vt 0.761399 0.754506
vt 0.774205 0.767311
vt 0.997789 0.754506
vt 0.984983 0.767311
vt 0.997789 0.990895
vt 0.984983 0.978089
vt 0.745077 0.765959
vt 0.745077 0.979273
vt 0.723041 0.979273
vt 0.723041 0.765959
vt 0.723762 0.979262
vt 0.723961 0.765949
vt 0.745996 0.765969
vt 0.745798 0.979283
vt 0.744412 0.765959
vt 0.744412 0.979273
vt 0.722377 0.979273
vt 0.722377 0.765959
vt 0.745233 0.765959
vt 0.745233 0.979273
vt 0.723197 0.979273
vt 0.723197 0.765959
vt 0.215730 0.310201
vt 0.065492 0.310201
vt 0.065492 0.159964
vt 0.215730 0.159964
vt 0.031313 0.344380
vt 0.026063 0.338290
vt 0.026063 0.131875
vt 0.031313 0.125785
vt 0.243818 0.349630
vt 0.037403 0.349630
vt 0.249908 0.344380
vt 0.249908 0.125785
vt 0.037403 0.120535
vt 0.243818 0.120535
vt 0.255158 0.338290
vt 0.255158 0.131875
vt 0.287147 0.614626
vt 0.276405 0.614627
vt 0.276405 0.385320
vt 0.287147 0.385320
vt 0.103759 0.887643
vt 0.103759 0.900032
vt 0.035512 0.900032
vt 0.035512 0.887643
vt 0.107069 0.894297
vt 0.516454 0.372723
vt 0.517072 0.385320
vt 0.287148 0.372723
vt 0.527815 0.614627
vt 0.517072 0.614627
vt 0.527815 0.385320
vt 0.104051 0.650009
vt 0.104051 0.662398
vt 0.035804 0.662398
vt 0.035804 0.650009
vt 0.107361 0.655744
vt 0.103759 0.649740
vt 0.103759 0.662130
vt 0.035512 0.662130
vt 0.035512 0.649740
vt 0.107069 0.655476
vt 0.516454 0.627224
vt 0.287148 0.627224
vt 0.104051 0.887912
vt 0.104051 0.900301
vt 0.035804 0.900301
vt 0.035804 0.887912
vt 0.107361 0.894566
vt 0.035248 0.662749
vt 0.103495 0.662749
vt 0.103495 0.888262
vt 0.035248 0.888262
vt 0.103618 0.662466
vt 0.103618 0.887979
vt 0.035371 0.887979
vt 0.035371 0.662466
vt 0.187935 0.443776
vt 0.068562 0.443776
vt 0.045819 0.421033
vt 0.210678 0.421033
vt 0.187935 0.563149
vt 0.210678 0.585892
vt 0.068562 0.563149
vt 0.045819 0.585892
vt 0.231721 0.606028
vt 0.242281 0.619310
vt 0.014215 0.619310
vt 0.024775 0.606028
vt 0.014216 0.387614
vt 0.024775 0.400897
vt 0.231721 0.400897
vt 0.242281 0.387614
vt 0.744742 0.766913
vt 0.744742 0.978009
vt 0.723922 0.978009
vt 0.723922 0.766913
vt 0.745379 0.766913
vt 0.745379 0.978009
vt 0.724560 0.978009
vt 0.724560 0.766913
vt 0.745252 0.766913
vt 0.745252 0.978009
vt 0.724432 0.978009
vt 0.724432 0.766913
vt 0.745187 0.767730
vt 0.745187 0.978826
vt 0.724367 0.978826
vt 0.724367 0.767730
vt 0.680047 0.396930
vt 0.626018 0.396930
vt 0.626018 0.334407
vt 0.680047 0.334407
vt 0.906518 0.334407
vt 0.906518 0.388436
vt 0.852489 0.388436
vt 0.852489 0.334407
vt 0.736714 0.683950
vt 0.682685 0.683950
vt 0.682685 0.621428
vt 0.736714 0.621428
vt 0.958504 0.389769
vt 0.958504 0.443798
vt 0.904475 0.443798
vt 0.904475 0.389769
vt 0.793315 0.396930
vt 0.739286 0.396930
vt 0.739286 0.334407
vt 0.793315 0.334407
vt 0.849917 0.396930
vt 0.795888 0.396930
vt 0.795888 0.334407
vt 0.849917 0.334407
vt 0.680047 0.683950
vt 0.626018 0.683950
vt 0.626018 0.610670
vt 0.680047 0.610670
vt 0.849917 0.683950
vt 0.795888 0.683950
vt 0.795888 0.610670
vt 0.849917 0.610670
vt 0.736714 0.407687
vt 0.682685 0.407687
vt 0.682685 0.334407
vt 0.736714 0.334407
vt 0.793315 0.683950
vt 0.739286 0.683950
vt 0.739286 0.610670
vt 0.793315 0.610670
vt 0.680507 0.404920
vt 0.680507 0.602680
vt 0.638356 0.602680
vt 0.638356 0.404920
vt 0.849526 0.404920
vt 0.849526 0.602680
vt 0.801870 0.602680
vt 0.801870 0.404920
vt 0.729677 0.415677
vt 0.729677 0.613437
vt 0.683076 0.613437
vt 0.683076 0.415677
vt 0.794074 0.404920
vt 0.793644 0.602680
vt 0.750598 0.602680
vt 0.750598 0.404920
vt 0.739871 0.404920
vt 0.739871 0.602680
vt 0.626395 0.404920
vt 0.626395 0.602680
vt 0.793992 0.404920
vt 0.793992 0.602680
vt 0.738241 0.613437
vt 0.738241 0.415677
s 1
usemtl MetalDecoupler_1_(Instance).001
f 3/1/1 2/2/1 1/3/1
f 4/4/1 3/1/1 1/3/1
f 7/5/2 6/6/2 5/3/2
f 5/3/2 8/7/2 7/5/2
f 5/3/2 9/2/2 8/7/2
f 9/2/2 10/8/2 8/7/2
f 13/2/3 12/1/3 11/9/3
f 11/9/3 14/8/3 13/2/3
f 11/9/3 15/10/3 14/8/3
f 15/10/3 16/11/3 14/8/3
f 19/12/4 18/13/4 17/14/4
f 17/14/4 20/6/4 19/12/4
f 17/14/4 21/4/4 20/6/4
f 21/4/4 22/3/4 20/6/4
f 25/4/5 24/14/5 23/15/5
f 23/15/5 26/16/5 25/4/5
f 26/16/5 27/1/5 25/4/5
f 26/16/5 28/9/5 27/1/5
f 31/17/6 30/18/6 29/19/6
f 32/20/6 31/17/6 29/19/6
f 35/21/7 34/22/7 33/23/8
f 36/19/8 35/21/7 33/23/8
f 34/22/7 35/21/7 37/24/9
f 40/25/10 39/26/10 38/27/10
f 41/28/10 40/25/10 38/27/10
f 44/29/11 43/30/11 42/31/11
f 45/32/11 44/29/11 42/31/11
f 48/33/12 47/34/12 46/32/13
f 49/35/13 48/33/12 46/32/13
f 47/34/12 48/33/12 50/36/14
f 53/37/15 52/38/15 51/18/16
f 54/39/16 53/37/15 51/18/16
f 52/38/15 53/37/15 55/40/17
f 58/41/18 57/42/18 56/43/18
f 59/44/18 58/41/18 56/43/18
f 62/45/19 61/46/19 60/47/20
f 63/29/20 62/45/19 60/47/20
f 61/46/19 62/45/19 64/48/21
f 67/49/22 66/25/22 65/28/22
f 68/50/22 67/49/22 65/28/22
f 71/51/23 70/52/23 69/53/23
f 72/54/23 71/51/23 69/53/23
f 75/55/24 74/56/24 73/43/24
f 76/42/24 75/55/24 73/43/24
f 79/45/25 78/29/25 77/32/25
f 80/34/25 79/45/25 77/32/25
f 83/21/26 82/19/26 81/18/26
f 84/38/26 83/21/26 81/18/26
f 87/57/27 86/20/27 85/19/27
f 90/58/28 89/32/28 88/31/28
f 93/17/29 92/59/29 91/18/29
f 96/30/30 95/29/30 94/60/30
f 99/61/31 98/62/31 97/63/31
f 100/64/31 99/61/31 97/63/31
f 103/65/32 102/66/32 101/64/32
f 104/63/32 103/65/32 101/64/32
f 107/67/33 106/68/33 105/66/33
f 108/65/33 107/67/33 105/66/33
f 111/68/34 110/67/34 109/62/34
f 112/61/34 111/68/34 109/62/34
f 115/69/22 114/70/22 113/71/22
f 116/72/22 115/69/22 113/71/22
f 119/68/23 118/61/23 117/64/23
f 120/66/23 119/68/23 117/64/23
f 123/73/24 122/74/24 121/75/24
f 124/76/24 123/73/24 121/75/24
f 127/77/25 126/78/25 125/79/25
f 128/80/25 127/77/25 125/79/25
f 131/81/26 130/82/26 129/83/26
f 132/84/26 131/81/26 129/83/26
f 135/85/23 134/86/23 133/87/23
f 136/88/23 135/85/23 133/87/23
f 139/86/35 138/89/35 137/90/35
f 137/90/35 140/91/35 139/86/35
f 140/91/35 141/87/35 139/86/35
f 140/91/35 142/92/35 141/87/35
f 145/93/36 144/94/36 143/89/36
f 143/89/36 146/95/36 145/93/36
f 143/89/36 147/86/36 146/95/36
f 147/86/36 148/85/36 146/95/36
f 151/88/37 150/87/37 149/92/37
f 149/92/37 152/96/37 151/88/37
f 149/92/37 153/97/38 152/96/37
f 153/97/38 154/98/38 152/96/37
f 157/99/39 156/95/39 155/85/39
f 155/85/39 158/100/39 157/99/39
f 155/85/39 159/88/39 158/100/39
f 159/88/39 160/96/39 158/100/39
f 163/101/40 162/102/40 161/103/40
f 164/104/40 163/101/40 161/103/40
f 167/105/41 166/106/41 165/107/16
f 168/108/16 167/105/41 165/107/16
f 166/106/41 167/105/41 169/109/42
f 172/110/43 171/111/43 170/104/43
f 173/112/43 172/110/43 170/104/43
f 176/113/44 175/114/44 174/111/44
f 177/115/44 176/113/44 174/111/44
f 180/116/45 179/117/45 178/118/20
f 181/119/20 180/116/45 178/118/20
f 179/117/45 180/116/45 182/120/46
f 185/121/47 184/122/47 183/123/8
f 186/124/8 185/121/47 183/123/8
f 184/122/47 185/121/47 187/125/48
f 190/114/49 189/126/49 188/127/49
f 191/101/49 190/114/49 188/127/49
f 194/128/50 193/129/50 192/130/13
f 195/131/13 194/128/50 192/130/13
f 193/129/50 194/128/50 196/132/51
f 199/133/24 198/134/24 197/135/24
f 200/136/24 199/133/24 197/135/24
f 203/114/1 202/101/1 201/104/1
f 204/111/1 203/114/1 201/104/1
f 207/137/22 206/138/22 205/139/22
f 208/140/22 207/137/22 205/139/22
f 211/128/25 210/131/25 209/118/25
f 212/117/25 211/128/25 209/118/25
f 215/105/26 214/108/26 213/123/26
f 216/122/26 215/105/26 213/123/26
f 219/112/52 218/104/52 217/103/52
f 222/110/53 221/115/53 220/111/53
f 225/101/54 224/127/54 223/102/54
f 228/114/55 227/113/55 226/126/55
f 231/141/22 230/142/22 229/143/22
f 232/144/22 231/141/22 229/143/22
f 235/145/26 234/141/26 233/144/26
f 236/146/26 235/145/26 233/144/26
f 239/147/24 238/145/24 237/146/24
f 240/148/24 239/147/24 237/146/24
f 243/142/25 242/147/25 241/148/25
f 244/143/25 243/142/25 241/148/25
f 247/149/56 246/150/56 245/151/56
f 248/152/56 247/149/56 245/151/56
f 251/153/57 250/154/57 249/152/57
f 252/151/57 251/153/57 249/152/57
f 255/155/58 254/156/58 253/150/58
f 256/149/58 255/155/58 253/150/58
f 259/156/59 258/155/59 257/154/59
f 260/153/59 259/156/59 257/154/59
f 263/157/22 262/158/22 261/159/22
f 264/160/22 263/157/22 261/159/22
f 267/161/24 266/162/24 265/163/24
f 268/164/24 267/161/24 265/163/24
f 271/165/25 270/166/25 269/167/25
f 272/168/25 271/165/25 269/167/25
f 275/169/26 274/170/26 273/171/26
f 276/172/26 275/169/26 273/171/26
f 279/144/1 278/143/1 277/154/1
f 280/155/1 279/144/1 277/154/1
f 281/146/1 279/144/1 280/155/1
f 282/149/1 281/146/1 280/155/1
f 283/148/1 281/146/1 282/149/1
f 284/152/1 283/148/1 282/149/1
f 278/143/1 283/148/1 284/152/1
f 277/154/1 278/143/1 284/152/1
f 287/173/60 286/174/60 285/175/22
f 288/176/22 287/173/60 285/175/22
f 291/177/23 290/178/23 289/179/23
f 292/180/23 291/177/23 289/179/23
f 295/181/24 294/182/24 293/183/61
f 296/184/61 295/181/24 293/183/61
f 299/185/1 298/186/1 297/187/1
f 300/188/1 299/185/1 297/187/1
f 303/189/62 302/190/62 301/191/25
f 304/192/25 303/189/62 301/191/25
f 307/193/63 306/194/63 305/195/26
f 308/196/26 307/193/63 305/195/26
f 311/197/22 310/198/22 309/199/64
f 312/200/64 311/197/22 309/199/64
f 315/201/26 314/202/26 313/203/65
f 316/204/65 315/201/26 313/203/65
f 319/205/66 318/206/66 317/207/24
f 320/208/24 319/205/66 317/207/24
f 323/209/25 322/210/25 321/211/67
f 324/212/67 323/209/25 321/211/67
f 327/213/22 326/214/22 325/215/22
f 328/216/22 327/213/22 325/215/22
f 331/217/26 330/218/26 329/219/26
f 332/220/26 331/217/26 329/219/26
f 335/221/24 334/222/24 333/223/24
f 336/224/24 335/221/24 333/223/24
f 339/225/25 338/226/25 337/227/25
f 340/228/25 339/225/25 337/227/25
f 343/229/13 342/228/13 341/227/13
f 344/230/13 343/229/13 341/227/13
f 347/231/8 346/216/8 345/215/8
f 348/232/8 347/231/8 345/215/8
f 351/233/16 350/220/16 349/219/16
f 352/234/16 351/233/16 349/219/16
f 355/235/20 354/222/20 353/221/20
f 356/236/20 355/235/20 353/221/20
