# Blender 5.0.1
# www.blender.org
mtllib 57.mtl
o 57
v 0.000000 0.281600 0.000000
v 0.000000 0.281600 0.117600
v 0.000000 0.200000 0.117600
v 0.000000 0.200000 0.050400
v 0.000000 -0.001600 0.074400
v 0.000000 -0.136000 0.151200
v 0.000000 -0.136000 0.033600
v 0.000000 -0.280000 0.000000
v 0.000000 -0.016000 0.117600
v 0.000000 -0.049600 0.151200
v 0.000000 0.281600 0.000000
v 0.045004 0.281600 0.108648
v 0.045004 0.200000 0.108648
v 0.019287 0.200000 0.046564
v 0.028472 -0.001600 0.068737
v 0.057862 -0.136000 0.139691
v 0.012858 -0.136000 0.031042
v 0.000000 -0.280000 0.000000
v 0.045004 -0.016000 0.108648
v 0.057862 -0.049600 0.139691
v 0.000000 0.281600 0.000000
v 0.083156 0.281600 0.083156
v 0.083156 0.200000 0.083156
v 0.035638 0.200000 0.035638
v 0.052609 -0.001600 0.052609
v 0.106915 -0.136000 0.106915
v 0.023759 -0.136000 0.023759
v 0.000000 -0.280000 0.000000
v 0.083156 -0.016000 0.083156
v 0.106915 -0.049600 0.106915
v 0.000000 0.281600 0.000000
v 0.108648 0.281600 0.045004
v 0.108648 0.200000 0.045004
v 0.046564 0.200000 0.019287
v 0.068737 -0.001600 0.028472
v 0.139691 -0.136000 0.057862
v 0.031042 -0.136000 0.012858
v 0.000000 -0.280000 0.000000
v 0.108648 -0.016000 0.045004
v 0.139691 -0.049600 0.057862
v 0.000000 0.281600 0.000000
v 0.117600 0.281600 -0.000000
v 0.117600 0.200000 -0.000000
v 0.050400 0.200000 -0.000000
v 0.074400 -0.001600 -0.000000
v 0.151200 -0.136000 -0.000000
v 0.033600 -0.136000 -0.000000
v 0.000000 -0.280000 0.000000
v 0.117600 -0.016000 -0.000000
v 0.151200 -0.049600 -0.000000
v 0.000000 0.281600 0.000000
v 0.108648 0.281600 -0.045004
v 0.108648 0.200000 -0.045004
v 0.046564 0.200000 -0.019287
v 0.068737 -0.001600 -0.028472
v 0.139691 -0.136000 -0.057862
v 0.031042 -0.136000 -0.012858
v 0.000000 -0.280000 0.000000
v 0.108648 -0.016000 -0.045004
v 0.139691 -0.049600 -0.057862
v 0.000000 0.281600 0.000000
v 0.083156 0.281600 -0.083156
v 0.083156 0.200000 -0.083156
v 0.035638 0.200000 -0.035638
v 0.052609 -0.001600 -0.052609
v 0.106915 -0.136000 -0.106915
v 0.023759 -0.136000 -0.023759
v 0.000000 -0.280000 0.000000
v 0.083156 -0.016000 -0.083156
v 0.106915 -0.049600 -0.106915
v 0.000000 0.281600 0.000000
v 0.045004 0.281600 -0.108648
v 0.045004 0.200000 -0.108648
v 0.019287 0.200000 -0.046564
v 0.028472 -0.001600 -0.068737
v 0.057862 -0.136000 -0.139691
v 0.012858 -0.136000 -0.031042
v 0.000000 -0.280000 0.000000
v 0.045004 -0.016000 -0.108648
v 0.057862 -0.049600 -0.139691
v 0.000000 0.281600 0.000000
v -0.000000 0.281600 -0.117600
v -0.000000 0.200000 -0.117600
v -0.000000 0.200000 -0.050400
v -0.000000 -0.001600 -0.074400
v -0.000000 -0.136000 -0.151200
v -0.000000 -0.136000 -0.033600
v 0.000000 -0.280000 0.000000
v -0.000000 -0.016000 -0.117600
v -0.000000 -0.049600 -0.151200
v 0.000000 0.281600 0.000000
v -0.045004 0.281600 -0.108648
v -0.045004 0.200000 -0.108648
v -0.019287 0.200000 -0.046564
v -0.028472 -0.001600 -0.068737
v -0.057862 -0.136000 -0.139691
v -0.012858 -0.136000 -0.031042
v 0.000000 -0.280000 0.000000
v -0.045004 -0.016000 -0.108648
v -0.057862 -0.049600 -0.139691
v 0.000000 0.281600 0.000000
v -0.083156 0.281600 -0.083156
v -0.083156 0.200000 -0.083156
v -0.035638 0.200000 -0.035638
v -0.052609 -0.001600 -0.052609
v -0.106915 -0.136000 -0.106915
v -0.023759 -0.136000 -0.023759
v 0.000000 -0.280000 0.000000
v -0.083156 -0.016000 -0.083156
v -0.106915 -0.049600 -0.106915
v 0.000000 0.281600 0.000000
v -0.108648 0.281600 -0.045004
v -0.108648 0.200000 -0.045004
v -0.046564 0.200000 -0.019287
v -0.068737 -0.001600 -0.028472
v -0.139691 -0.136000 -0.057862
v -0.031042 -0.136000 -0.012858
v 0.000000 -0.280000 0.000000
v -0.108648 -0.016000 -0.045004
v -0.139691 -0.049600 -0.057862
v 0.000000 0.281600 0.000000
v -0.117600 0.281600 0.000000
v -0.117600 0.200000 0.000000
v -0.050400 0.200000 0.000000
v -0.074400 -0.001600 0.000000
v -0.151200 -0.136000 0.000000
v -0.033600 -0.136000 0.000000
v 0.000000 -0.280000 0.000000
v -0.117600 -0.016000 0.000000
v -0.151200 -0.049600 0.000000
v 0.000000 0.281600 0.000000
v -0.108648 0.281600 0.045004
v -0.108648 0.200000 0.045004
v -0.046564 0.200000 0.019287
v -0.068737 -0.001600 0.028472
v -0.139691 -0.136000 0.057862
v -0.031042 -0.136000 0.012858
v 0.000000 -0.280000 0.000000
v -0.108648 -0.016000 0.045004
v -0.139691 -0.049600 0.057862
v 0.000000 0.281600 0.000000
v -0.083156 0.281600 0.083156
v -0.083156 0.200000 0.083156
v -0.035638 0.200000 0.035638
v -0.052609 -0.001600 0.052609
v -0.106914 -0.136000 0.106915
v -0.023759 -0.136000 0.023759
v 0.000000 -0.280000 0.000000
v -0.083156 -0.016000 0.083156
v -0.106914 -0.049600 0.106915
v 0.000000 0.281600 0.000000
v -0.045004 0.281600 0.108648
v -0.045004 0.200000 0.108648
v -0.019287 0.200000 0.046564
v -0.028472 -0.001600 0.068737
v -0.057862 -0.136000 0.139691
v -0.012858 -0.136000 0.031042
v 0.000000 -0.280000 0.000000
v -0.045004 -0.016000 0.108648
v -0.057862 -0.049600 0.139691
vn -0.0000 1.0000 -0.0000
vn -0.0000 0.6657 0.7462
vn -0.0000 -0.6657 0.7462
vn -0.0000 -0.7138 0.7004
vn -0.0000 -0.8414 0.5405
vn -0.0000 -0.8221 0.5693
vn -0.0000 -0.2272 0.9738
vn -0.0000 -0.1487 0.9889
vn -0.0000 0.3668 0.9303
vn 0.2856 0.6657 0.6894
vn 0.2856 -0.6657 0.6894
vn 0.2680 -0.7138 0.6471
vn 0.2068 -0.8414 0.4993
vn 0.2179 -0.8221 0.5259
vn 0.3727 -0.2272 0.8997
vn 0.3784 -0.1487 0.9136
vn 0.3560 0.3668 0.8595
vn 0.5276 0.6657 0.5276
vn 0.5276 -0.6657 0.5276
vn 0.4953 -0.7138 0.4953
vn 0.3822 -0.8414 0.3822
vn 0.4025 -0.8221 0.4025
vn 0.6886 -0.2272 0.6886
vn 0.6992 -0.1487 0.6992
vn 0.6578 0.3668 0.6578
vn 0.6894 0.6657 0.2856
vn 0.6894 -0.6657 0.2856
vn 0.6471 -0.7138 0.2680
vn 0.4993 -0.8414 0.2068
vn 0.5259 -0.8221 0.2179
vn 0.8997 -0.2272 0.3727
vn 0.9136 -0.1487 0.3784
vn 0.8595 0.3668 0.3560
vn 0.7462 0.6657 -0.0000
vn 0.7462 -0.6657 -0.0000
vn 0.7004 -0.7138 -0.0000
vn 0.5405 -0.8414 -0.0000
vn 0.5693 -0.8221 -0.0000
vn 0.9738 -0.2272 -0.0000
vn 0.9889 -0.1487 -0.0000
vn 0.9303 0.3668 -0.0000
vn 0.6894 0.6657 -0.2856
vn 0.6894 -0.6657 -0.2856
vn 0.6471 -0.7138 -0.2680
vn 0.4993 -0.8414 -0.2068
vn 0.5259 -0.8221 -0.2179
vn 0.8997 -0.2272 -0.3727
vn 0.9136 -0.1487 -0.3784
vn 0.8595 0.3668 -0.3560
vn 0.5276 0.6657 -0.5276
vn 0.5276 -0.6657 -0.5276
vn 0.4953 -0.7138 -0.4953
vn 0.3822 -0.8414 -0.3822
vn 0.4025 -0.8221 -0.4025
vn 0.6886 -0.2272 -0.6886
vn 0.6992 -0.1487 -0.6992
vn 0.6578 0.3668 -0.6578
vn 0.2856 0.6657 -0.6894
vn 0.2856 -0.6657 -0.6894
vn 0.2680 -0.7138 -0.6471
vn 0.2068 -0.8414 -0.4993
vn 0.2179 -0.8221 -0.5259
vn 0.3727 -0.2272 -0.8997
vn 0.3784 -0.1487 -0.9136
vn 0.3560 0.3668 -0.8595
vn -0.0000 0.6657 -0.7462
vn -0.0000 -0.6657 -0.7462
vn -0.0000 -0.7138 -0.7004
vn -0.0000 -0.8414 -0.5405
vn -0.0000 -0.8221 -0.5693
vn -0.0000 -0.2272 -0.9738
vn -0.0000 -0.1487 -0.9889
vn -0.0000 0.3668 -0.9303
vn -0.2856 0.6657 -0.6894
vn -0.2856 -0.6657 -0.6894
vn -0.2680 -0.7138 -0.6471
vn -0.2068 -0.8414 -0.4993
vn -0.2179 -0.8221 -0.5259
vn -0.3727 -0.2272 -0.8997
vn -0.3784 -0.1487 -0.9136
vn -0.3560 0.3668 -0.8595
vn -0.5276 0.6657 -0.5276
vn -0.5276 -0.6657 -0.5276
vn -0.4953 -0.7138 -0.4953
vn -0.3822 -0.8414 -0.3822
vn -0.4025 -0.8221 -0.4025
vn -0.6886 -0.2272 -0.6886
vn -0.6992 -0.1487 -0.6992
vn -0.6578 0.3668 -0.6578
vn -0.6894 0.6657 -0.2856
vn -0.6894 -0.6657 -0.2856
vn -0.6471 -0.7138 -0.2680
vn -0.4993 -0.8414 -0.2068
vn -0.5259 -0.8221 -0.2179
vn -0.8997 -0.2272 -0.3727
vn -0.9136 -0.1487 -0.3784
vn -0.8595 0.3668 -0.3560
vn -0.7462 0.6657 -0.0000
vn -0.7462 -0.6657 -0.0000
vn -0.7004 -0.7138 -0.0000
vn -0.5405 -0.8414 -0.0000
vn -0.5693 -0.8221 -0.0000
vn -0.9738 -0.2272 -0.0000
vn -0.9889 -0.1487 -0.0000
vn -0.9303 0.3668 -0.0000
vn -0.6894 0.6657 0.2856
vn -0.6894 -0.6657 0.2856
vn -0.6471 -0.7138 0.2680
vn -0.4993 -0.8414 0.2068
vn -0.5259 -0.8221 0.2179
vn -0.8997 -0.2272 0.3727
vn -0.9136 -0.1487 0.3784
vn -0.8595 0.3668 0.3560
vn -0.5276 0.6657 0.5276
vn -0.5276 -0.6657 0.5276
vn -0.4953 -0.7138 0.4953
vn -0.3822 -0.8414 0.3822
vn -0.4025 -0.8221 0.4025
vn -0.6886 -0.2272 0.6886
vn -0.6992 -0.1487 0.6992
vn -0.6578 0.3668 0.6578
vn -0.2856 0.6657 0.6894
vn -0.2856 -0.6657 0.6894
vn -0.2680 -0.7138 0.6471
vn -0.2068 -0.8414 0.4993
vn -0.2179 -0.8221 0.5259
vn -0.3727 -0.2272 0.8997
vn -0.3784 -0.1487 0.9136
vn -0.3560 0.3668 0.8595
vt 0.000000 0.811600
vt 0.062500 0.811600
vt 0.125000 0.811600
vt 0.187500 0.811600
vt 0.250000 0.811600
vt 0.312500 0.811600
vt 0.375000 0.811600
vt 0.437500 0.811600
vt 0.500000 0.811600
vt 0.562500 0.811600
vt 0.625000 0.811600
vt 0.687500 0.811600
vt 0.750000 0.811600
vt 0.812500 0.811600
vt 0.875000 0.811600
vt 0.937500 0.811600
vt 1.000000 0.811600
vt 0.000000 0.730000
vt 0.062500 0.730000
vt 0.125000 0.730000
vt 0.187500 0.730000
vt 0.250000 0.730000
vt 0.312500 0.730000
vt 0.375000 0.730000
vt 0.437500 0.730000
vt 0.500000 0.730000
vt 0.562500 0.730000
vt 0.625000 0.730000
vt 0.687500 0.730000
vt 0.750000 0.730000
vt 0.812500 0.730000
vt 0.875000 0.730000
vt 0.937500 0.730000
vt 1.000000 0.730000
vt 0.000000 0.528400
vt 0.062500 0.528400
vt 0.125000 0.528400
vt 0.187500 0.528400
vt 0.250000 0.528400
vt 0.312500 0.528400
vt 0.375000 0.528400
vt 0.437500 0.528400
vt 0.500000 0.528400
vt 0.562500 0.528400
vt 0.625000 0.528400
vt 0.687500 0.528400
vt 0.750000 0.528400
vt 0.812500 0.528400
vt 0.875000 0.528400
vt 0.937500 0.528400
vt 1.000000 0.528400
vt 0.000000 0.394000
vt 0.062500 0.394000
vt 0.125000 0.394000
vt 0.187500 0.394000
vt 0.250000 0.394000
vt 0.312500 0.394000
vt 0.375000 0.394000
vt 0.437500 0.394000
vt 0.500000 0.394000
vt 0.562500 0.394000
vt 0.625000 0.394000
vt 0.687500 0.394000
vt 0.750000 0.394000
vt 0.812500 0.394000
vt 0.875000 0.394000
vt 0.937500 0.394000
vt 1.000000 0.394000
vt 0.000000 0.250000
vt 0.062500 0.250000
vt 0.125000 0.250000
vt 0.187500 0.250000
vt 0.250000 0.250000
vt 0.312500 0.250000
vt 0.375000 0.250000
vt 0.437500 0.250000
vt 0.500000 0.250000
vt 0.562500 0.250000
vt 0.625000 0.250000
vt 0.687500 0.250000
vt 0.750000 0.250000
vt 0.812500 0.250000
vt 0.875000 0.250000
vt 0.937500 0.250000
vt 1.000000 0.250000
vt 0.000000 0.514000
vt 0.000000 0.480400
vt 0.062500 0.480400
vt 0.062500 0.514000
vt 0.125000 0.480400
vt 0.125000 0.514000
vt 0.187500 0.480400
vt 0.187500 0.514000
vt 0.250000 0.480400
vt 0.250000 0.514000
vt 0.312500 0.480400
vt 0.312500 0.514000
vt 0.375000 0.480400
vt 0.375000 0.514000
vt 0.437500 0.480400
vt 0.437500 0.514000
vt 0.500000 0.480400
vt 0.500000 0.514000
vt 0.562500 0.480400
vt 0.562500 0.514000
vt 0.625000 0.480400
vt 0.625000 0.514000
vt 0.687500 0.480400
vt 0.687500 0.514000
vt 0.750000 0.480400
vt 0.750000 0.514000
vt 0.812500 0.480400
vt 0.812500 0.514000
vt 0.875000 0.480400
vt 0.875000 0.514000
vt 0.937500 0.480400
vt 0.937500 0.514000
vt 1.000000 0.480400
vt 1.000000 0.514000
s 1
usemtl マテリアル.007
f 1/1/1 2/1/2 12/2/10 11/2/1
f 11/2/1 12/2/10 22/3/18 21/3/1
f 21/3/1 22/3/18 32/4/26 31/4/1
f 31/4/1 32/4/26 42/5/34 41/5/1
f 41/5/1 42/5/34 52/6/42 51/6/1
f 51/6/1 52/6/42 62/7/50 61/7/1
f 61/7/1 62/7/50 72/8/58 71/8/1
f 71/8/1 72/8/58 82/9/66 81/9/1
f 81/9/1 82/9/66 92/10/74 91/10/1
f 91/10/1 92/10/74 102/11/82 101/11/1
f 101/11/1 102/11/82 112/12/90 111/12/1
f 111/12/1 112/12/90 122/13/98 121/13/1
f 121/13/1 122/13/98 132/14/106 131/14/1
f 131/14/1 132/14/106 142/15/114 141/15/1
f 141/15/1 142/15/114 152/16/122 151/16/1
f 151/16/1 152/16/122 2/17/2 1/17/1
f 2/1/2 3/18/3 13/19/11 12/2/10
f 12/2/10 13/19/11 23/20/19 22/3/18
f 22/3/18 23/20/19 33/21/27 32/4/26
f 32/4/26 33/21/27 43/22/35 42/5/34
f 42/5/34 43/22/35 53/23/43 52/6/42
f 52/6/42 53/23/43 63/24/51 62/7/50
f 62/7/50 63/24/51 73/25/59 72/8/58
f 72/8/58 73/25/59 83/26/67 82/9/66
f 82/9/66 83/26/67 93/27/75 92/10/74
f 92/10/74 93/27/75 103/28/83 102/11/82
f 102/11/82 103/28/83 113/29/91 112/12/90
f 112/12/90 113/29/91 123/30/99 122/13/98
f 122/13/98 123/30/99 133/31/107 132/14/106
f 132/14/106 133/31/107 143/32/115 142/15/114
f 142/15/114 143/32/115 153/33/123 152/16/122
f 152/16/122 153/33/123 3/34/3 2/17/2
f 3/18/3 4/18/4 14/19/12 13/19/11
f 13/19/11 14/19/12 24/20/20 23/20/19
f 23/20/19 24/20/20 34/21/28 33/21/27
f 33/21/27 34/21/28 44/22/36 43/22/35
f 43/22/35 44/22/36 54/23/44 53/23/43
f 53/23/43 54/23/44 64/24/52 63/24/51
f 63/24/51 64/24/52 74/25/60 73/25/59
f 73/25/59 74/25/60 84/26/68 83/26/67
f 83/26/67 84/26/68 94/27/76 93/27/75
f 93/27/75 94/27/76 104/28/84 103/28/83
f 103/28/83 104/28/84 114/29/92 113/29/91
f 113/29/91 114/29/92 124/30/100 123/30/99
f 123/30/99 124/30/100 134/31/108 133/31/107
f 133/31/107 134/31/108 144/32/116 143/32/115
f 143/32/115 144/32/116 154/33/124 153/33/123
f 153/33/123 154/33/124 4/34/4 3/34/3
f 4/18/4 5/35/5 15/36/13 14/19/12
f 14/19/12 15/36/13 25/37/21 24/20/20
f 24/20/20 25/37/21 35/38/29 34/21/28
f 34/21/28 35/38/29 45/39/37 44/22/36
f 44/22/36 45/39/37 55/40/45 54/23/44
f 54/23/44 55/40/45 65/41/53 64/24/52
f 64/24/52 65/41/53 75/42/61 74/25/60
f 74/25/60 75/42/61 85/43/69 84/26/68
f 84/26/68 85/43/69 95/44/77 94/27/76
f 94/27/76 95/44/77 105/45/85 104/28/84
f 104/28/84 105/45/85 115/46/93 114/29/92
f 114/29/92 115/46/93 125/47/101 124/30/100
f 124/30/100 125/47/101 135/48/109 134/31/108
f 134/31/108 135/48/109 145/49/117 144/32/116
f 144/32/116 145/49/117 155/50/125 154/33/124
f 154/33/124 155/50/125 5/51/5 4/34/4
f 6/52/3 7/52/6 17/53/14 16/53/11
f 16/53/11 17/53/14 27/54/22 26/54/19
f 26/54/19 27/54/22 37/55/30 36/55/27
f 36/55/27 37/55/30 47/56/38 46/56/35
f 46/56/35 47/56/38 57/57/46 56/57/43
f 56/57/43 57/57/46 67/58/54 66/58/51
f 66/58/51 67/58/54 77/59/62 76/59/59
f 76/59/59 77/59/62 87/60/70 86/60/67
f 86/60/67 87/60/70 97/61/78 96/61/75
f 96/61/75 97/61/78 107/62/86 106/62/83
f 106/62/83 107/62/86 117/63/94 116/63/91
f 116/63/91 117/63/94 127/64/102 126/64/99
f 126/64/99 127/64/102 137/65/110 136/65/107
f 136/65/107 137/65/110 147/66/118 146/66/115
f 146/66/115 147/66/118 157/67/126 156/67/123
f 156/67/123 157/67/126 7/68/6 6/68/3
f 7/52/6 8/69/7 18/70/15 17/53/14
f 17/53/14 18/70/15 28/71/23 27/54/22
f 27/54/22 28/71/23 38/72/31 37/55/30
f 37/55/30 38/72/31 48/73/39 47/56/38
f 47/56/38 48/73/39 58/74/47 57/57/46
f 57/57/46 58/74/47 68/75/55 67/58/54
f 67/58/54 68/75/55 78/76/63 77/59/62
f 77/59/62 78/76/63 88/77/71 87/60/70
f 87/60/70 88/77/71 98/78/79 97/61/78
f 97/61/78 98/78/79 108/79/87 107/62/86
f 107/62/86 108/79/87 118/80/95 117/63/94
f 117/63/94 118/80/95 128/81/103 127/64/102
f 127/64/102 128/81/103 138/82/111 137/65/110
f 137/65/110 138/82/111 148/83/119 147/66/118
f 147/66/118 148/83/119 158/84/127 157/67/126
f 157/67/126 158/84/127 8/85/7 7/68/6
f 9/86/8 10/87/9 20/88/17 19/89/16
f 19/89/16 20/88/17 30/90/25 29/91/24
f 29/91/24 30/90/25 40/92/33 39/93/32
f 39/93/32 40/92/33 50/94/41 49/95/40
f 49/95/40 50/94/41 60/96/49 59/97/48
f 59/97/48 60/96/49 70/98/57 69/99/56
f 69/99/56 70/98/57 80/100/65 79/101/64
f 79/101/64 80/100/65 90/102/73 89/103/72
f 89/103/72 90/102/73 100/104/81 99/105/80
f 99/105/80 100/104/81 110/106/89 109/107/88
f 109/107/88 110/106/89 120/108/97 119/109/96
f 119/109/96 120/108/97 130/110/105 129/111/104
f 129/111/104 130/110/105 140/112/113 139/113/112
f 139/113/112 140/112/113 150/114/121 149/115/120
f 149/115/120 150/114/121 160/116/129 159/117/128
f 159/117/128 160/116/129 10/118/9 9/119/8
f 9/86/8 5/35/5 15/36/13 19/89/16
f 19/89/16 15/36/13 25/37/21 29/91/24
f 29/91/24 25/37/21 35/38/29 39/93/32
f 39/93/32 35/38/29 45/39/37 49/95/40
f 49/95/40 45/39/37 55/40/45 59/97/48
f 59/97/48 55/40/45 65/41/53 69/99/56
f 69/99/56 65/41/53 75/42/61 79/101/64
f 79/101/64 75/42/61 85/43/69 89/103/72
f 89/103/72 85/43/69 95/44/77 99/105/80
f 99/105/80 95/44/77 105/45/85 109/107/88
f 109/107/88 105/45/85 115/46/93 119/109/96
f 119/109/96 115/46/93 125/47/101 129/111/104
f 129/111/104 125/47/101 135/48/109 139/113/112
f 139/113/112 135/48/109 145/49/117 149/115/120
f 149/115/120 145/49/117 155/50/125 159/117/128
f 159/117/128 155/50/125 5/51/5 9/119/8
f 10/87/9 6/52/3 16/53/11 20/88/17
f 20/88/17 16/53/11 26/54/19 30/90/25
f 30/90/25 26/54/19 36/55/27 40/92/33
f 40/92/33 36/55/27 46/56/35 50/94/41
f 50/94/41 46/56/35 56/57/43 60/96/49
f 60/96/49 56/57/43 66/58/51 70/98/57
f 70/98/57 66/58/51 76/59/59 80/100/65
f 80/100/65 76/59/59 86/60/67 90/102/73
f 90/102/73 86/60/67 96/61/75 100/104/81
f 100/104/81 96/61/75 106/62/83 110/106/89
f 110/106/89 106/62/83 116/63/91 120/108/97
f 120/108/97 116/63/91 126/64/99 130/110/105
f 130/110/105 126/64/99 136/65/107 140/112/113
f 140/112/113 136/65/107 146/66/115 150/114/121
f 150/114/121 146/66/115 156/67/123 160/116/129
f 160/116/129 156/67/123 6/68/3 10/118/9
