# Blender 5.0.1
# www.blender.org
mtllib 7.mtl
o 7
v -0.200000 -0.200000 0.200000
v -0.200000 0.200000 0.200000
v 0.200000 0.200000 0.200000
v 0.200000 -0.200000 0.200000
v -0.200000 0.200000 0.200000
v -0.200000 0.200000 -0.200000
v 0.200000 0.200000 -0.200000
v 0.200000 0.200000 0.200000
v -0.200000 0.200000 -0.200000
v -0.200000 -0.200000 -0.200000
v 0.200000 -0.200000 -0.200000
v 0.200000 0.200000 -0.200000
v -0.200000 -0.200000 -0.200000
v -0.200000 -0.200000 0.200000
v 0.200000 -0.200000 0.200000
v 0.200000 -0.200000 -0.200000
v 0.200000 -0.200000 0.200000
v 0.200000 0.200000 0.200000
v 0.200000 0.200000 -0.200000
v 0.200000 -0.200000 -0.200000
v -0.200000 -0.200000 -0.200000
v -0.200000 0.200000 -0.200000
v -0.200000 0.200000 0.200000
v -0.200000 -0.200000 0.200000
vn -0.0000 -0.0000 1.0000
vn -0.0000 1.0000 -0.0000
vn -0.0000 -0.0000 -1.0000
vn -0.0000 -1.0000 -0.0000
vn 1.0000 -0.0000 -0.0000
vn -1.0000 -0.0000 -0.0000
vt 0.790531 0.786218
vt 0.012643 0.786218
vt 0.012643 0.008404
vt 0.790531 0.008404
vt 0.790531 0.786266
vt 0.012643 0.786266
vt 0.012643 0.008340
vt 0.790531 0.008340
vt 0.790531 0.786258
vt 0.012643 0.786258
vt 0.012643 0.008350
vt 0.790531 0.008350
vt 0.790531 0.786199
vt 0.012643 0.786199
vt 0.012643 0.008428
vt 0.790531 0.008428
vt 0.790527 0.786218
vt 0.012669 0.786218
vt 0.012669 0.008404
vt 0.790527 0.008404
vt 0.790520 0.786218
vt 0.012710 0.786218
vt 0.012710 0.008404
vt 0.790520 0.008404
s 1
usemtl BraceMetal_(Instance).001
f 3/1/1 2/2/1 1/3/1
f 4/4/1 3/1/1 1/3/1
f 7/5/2 6/6/2 5/7/2
f 8/8/2 7/5/2 5/7/2
f 11/9/3 10/10/3 9/11/3
f 12/12/3 11/9/3 9/11/3
f 15/13/4 14/14/4 13/15/4
f 16/16/4 15/13/4 13/15/4
f 19/17/5 18/18/5 17/19/5
f 20/20/5 19/17/5 17/19/5
f 23/21/6 22/22/6 21/23/6
f 24/24/6 23/21/6 21/23/6
