# Blender 5.0.1
# www.blender.org
mtllib 75_2.mtl
o 75.2
v -0.072064 -0.139516 0.041073
v -0.072064 -0.139516 0.123502
v -0.072064 -0.219485 0.123502
v -0.072064 -0.219485 0.041073
v -0.072064 -0.139516 0.005286
v -0.072064 -0.235377 0.005286
v -0.072064 -0.139516 0.123502
v 0.072064 -0.139516 0.123502
v 0.072064 -0.219485 0.123502
v -0.072064 -0.219485 0.123502
v 0.072064 -0.139516 0.123502
v 0.072064 -0.139516 0.041073
v 0.072064 -0.219485 0.041073
v 0.072064 -0.219485 0.123502
v 0.072064 -0.219485 0.005286
v 0.072064 -0.139516 0.005286
v 0.072064 -0.139516 0.005286
v -0.072064 -0.139516 0.005286
v -0.072064 -0.235377 0.005286
v 0.072064 -0.219485 0.005286
v -0.072064 -0.219485 0.041073
v -0.072064 -0.219485 0.123502
v 0.072064 -0.219485 0.123502
v 0.072064 -0.219485 0.041073
v 0.069181 -0.279083 0.041073
v 0.069181 -0.279083 0.005286
v -0.069181 -0.279083 0.005286
v -0.069181 -0.279083 0.041073
v 0.072064 -0.219485 0.041073
v 0.069181 -0.279083 0.041073
v -0.069181 -0.279083 0.041073
v -0.072064 -0.219485 0.041073
v -0.072064 -0.219485 0.041073
v -0.069181 -0.279083 0.041073
v -0.069181 -0.279083 0.005286
v -0.072064 -0.235377 0.005286
v -0.058405 -0.221707 -0.082798
v -0.061187 -0.258247 -0.047273
v 0.061187 -0.258247 -0.047273
v 0.058405 -0.221707 -0.082798
v 0.072064 -0.219485 0.005286
v 0.069181 -0.279083 0.005286
v 0.069181 -0.279083 0.041073
v 0.072064 -0.219485 0.041073
v -0.072064 -0.235377 0.005286
v -0.058405 -0.221707 -0.082798
v 0.058405 -0.221707 -0.082798
v 0.072064 -0.219485 0.005286
v 0.072064 -0.219485 0.005286
v 0.058405 -0.221707 -0.082798
v 0.061187 -0.258247 -0.047273
v 0.069181 -0.279083 0.005286
v 0.069181 -0.279083 0.005286
v 0.061187 -0.258247 -0.047273
v -0.061187 -0.258247 -0.047273
v -0.069181 -0.279083 0.005286
v -0.069181 -0.279083 0.005286
v -0.061187 -0.258247 -0.047273
v -0.058405 -0.221707 -0.082798
v -0.072064 -0.235377 0.005286
v -0.122275 0.071529 0.041073
v -0.122275 0.071529 0.123502
v -0.217543 0.071529 0.123502
v -0.217543 0.071529 0.041073
v -0.122275 0.071529 0.005286
v -0.217543 0.071529 0.005286
v -0.122275 0.071529 0.123502
v -0.122275 -0.072600 0.123502
v -0.217543 -0.072600 0.123502
v -0.217543 0.071529 0.123502
v -0.122275 -0.072600 0.123502
v -0.122275 -0.072600 0.041073
v -0.217543 -0.072600 0.041073
v -0.217543 -0.072600 0.123502
v -0.217543 -0.072600 0.005286
v -0.122275 -0.072600 0.005286
v -0.122275 -0.072600 0.005286
v -0.122275 0.071529 0.005286
v -0.217543 0.071529 0.005286
v -0.217543 -0.072600 0.005286
v -0.217543 0.071529 0.041073
v -0.217543 0.071529 0.123502
v -0.217543 -0.072600 0.123502
v -0.217543 -0.072600 0.041073
v -0.278547 -0.069716 0.041073
v -0.278547 -0.069716 0.005286
v -0.278547 0.068645 0.005286
v -0.278547 0.068645 0.041073
v -0.217543 -0.072600 0.041073
v -0.278547 -0.069716 0.041073
v -0.278547 0.068645 0.041073
v -0.217543 0.071529 0.041073
v -0.217543 0.071529 0.041073
v -0.278547 0.068645 0.041073
v -0.278547 0.068645 0.005286
v -0.217543 0.071529 0.005286
v -0.221171 0.057870 -0.082798
v -0.257711 0.060651 -0.047273
v -0.257711 -0.061723 -0.047273
v -0.221171 -0.058941 -0.082798
v -0.217543 -0.072600 0.005286
v -0.278547 -0.069716 0.005286
v -0.278547 -0.069716 0.041073
v -0.217543 -0.072600 0.041073
v -0.217543 0.071529 0.005286
v -0.221171 0.057870 -0.082798
v -0.221171 -0.058941 -0.082798
v -0.217543 -0.072600 0.005286
v -0.217543 -0.072600 0.005286
v -0.221171 -0.058941 -0.082798
v -0.257711 -0.061723 -0.047273
v -0.278547 -0.069716 0.005286
v -0.278547 -0.069716 0.005286
v -0.257711 -0.061723 -0.047273
v -0.257711 0.060651 -0.047273
v -0.278547 0.068645 0.005286
v -0.278547 0.068645 0.005286
v -0.257711 0.060651 -0.047273
v -0.221171 0.057870 -0.082798
v -0.217543 0.071529 0.005286
v 0.082433 0.143186 -0.026740
v 0.100225 0.174031 0.202972
v -0.100211 0.173947 0.202972
v -0.082393 0.143116 -0.026740
v -0.082393 0.143116 -0.026740
v -0.100211 0.173947 0.202972
v -0.200357 0.000322 0.202972
v -0.164747 0.000337 -0.026740
v -0.164747 0.000337 -0.026740
v -0.200357 0.000322 0.202972
v -0.100065 -0.173219 0.202972
v -0.082273 -0.142372 -0.026740
v -0.082273 -0.142372 -0.026740
v -0.100065 -0.173219 0.202972
v 0.100371 -0.173135 0.202972
v 0.082554 -0.142303 -0.026740
v 0.082554 -0.142303 -0.026740
v 0.100371 -0.173135 0.202972
v 0.200517 0.000491 0.202972
v 0.164907 0.000476 -0.026740
v 0.164907 0.000476 -0.026740
v 0.200517 0.000491 0.202972
v 0.100225 0.174031 0.202972
v 0.082433 0.143186 -0.026740
v 0.100225 0.174031 0.202972
v 0.000080 0.000406 0.222184
v -0.100211 0.173947 0.202972
v -0.100211 0.173947 0.202972
v 0.000080 0.000406 0.222184
v -0.200357 0.000322 0.202972
v -0.200357 0.000322 0.202972
v 0.000080 0.000406 0.222184
v -0.100065 -0.173219 0.202972
v -0.100065 -0.173219 0.202972
v 0.000080 0.000406 0.222184
v 0.100371 -0.173135 0.202972
v 0.100371 -0.173135 0.202972
v 0.000080 0.000406 0.222184
v 0.200517 0.000491 0.202972
v 0.200517 0.000491 0.202972
v 0.000080 0.000406 0.222184
v 0.100225 0.174031 0.202972
v 0.097014 0.097014 -0.103278
v 0.097014 0.097014 0.031794
v 0.035510 0.132524 0.031794
v 0.035510 0.132524 -0.103278
v 0.035510 0.132524 -0.103278
v 0.035510 0.132524 0.031794
v -0.035510 0.132524 0.031794
v -0.035510 0.132524 -0.103278
v -0.035510 0.132524 -0.103278
v -0.035510 0.132524 0.031794
v -0.097014 0.097014 0.031794
v -0.097014 0.097014 -0.103278
v -0.097014 0.097014 -0.103278
v -0.097014 0.097014 0.031794
v -0.132524 0.035510 0.031794
v -0.132524 0.035510 -0.103278
v -0.132524 0.035510 -0.103278
v -0.132524 0.035510 0.031794
v -0.132524 -0.035509 0.031794
v -0.132524 -0.035509 -0.103278
v -0.132524 -0.035509 -0.103278
v -0.132524 -0.035509 0.031794
v -0.097014 -0.097014 0.031794
v -0.097014 -0.097014 -0.103278
v -0.097014 -0.097014 -0.103278
v -0.097014 -0.097014 0.031794
v -0.035510 -0.132523 0.031794
v -0.035510 -0.132523 -0.103278
v -0.035510 -0.132523 -0.103278
v -0.035510 -0.132523 0.031794
v 0.035510 -0.132523 0.031794
v 0.035510 -0.132523 -0.103278
v 0.035510 -0.132523 -0.103278
v 0.035510 -0.132523 0.031794
v 0.097014 -0.097014 0.031794
v 0.097014 -0.097014 -0.103278
v 0.097014 -0.097014 -0.103278
v 0.097014 -0.097014 0.031794
v 0.132524 -0.035509 0.031794
v 0.132524 -0.035509 -0.103278
v 0.132524 -0.035509 -0.103278
v 0.132524 -0.035509 0.031794
v 0.132524 0.035510 0.031794
v 0.132524 0.035510 -0.103278
v 0.132524 0.035510 -0.103278
v 0.132524 0.035510 0.031794
v 0.097014 0.097014 0.031794
v 0.097014 0.097014 -0.103278
v 0.035510 0.132524 -0.103278
v 0.025628 0.095644 -0.103278
v 0.070016 0.070017 -0.103278
v 0.097014 0.097014 -0.103278
v -0.035510 0.132524 -0.103278
v -0.025628 0.095644 -0.103278
v -0.097014 0.097014 -0.103278
v -0.070016 0.070017 -0.103278
v -0.132524 0.035510 -0.103278
v -0.095644 0.025628 -0.103278
v -0.132524 -0.035509 -0.103278
v -0.095644 -0.025627 -0.103278
v -0.097014 -0.097014 -0.103278
v -0.070016 -0.070016 -0.103278
v -0.035510 -0.132523 -0.103278
v -0.025628 -0.095644 -0.103278
v 0.035510 -0.132523 -0.103278
v 0.025628 -0.095644 -0.103278
v 0.097014 -0.097014 -0.103278
v 0.070016 -0.070016 -0.103278
v 0.132524 -0.035509 -0.103278
v 0.095644 -0.025627 -0.103278
v 0.132524 0.035510 -0.103278
v 0.095644 0.025628 -0.103278
v 0.025628 0.095644 -0.103278
v 0.025628 0.095644 -0.025131
v 0.070016 0.070017 -0.025131
v 0.070016 0.070017 -0.103278
v -0.025628 0.095644 -0.103278
v -0.025628 0.095644 -0.025131
v 0.025628 0.095644 -0.025131
v 0.025628 0.095644 -0.103278
v -0.070016 0.070017 -0.103278
v -0.070016 0.070017 -0.025131
v -0.025628 0.095644 -0.025131
v -0.025628 0.095644 -0.103278
v -0.095644 0.025628 -0.103278
v -0.095644 0.025628 -0.025131
v -0.070016 0.070017 -0.025131
v -0.070016 0.070017 -0.103278
v -0.095644 -0.025627 -0.103278
v -0.095644 -0.025627 -0.025131
v -0.095644 0.025628 -0.025131
v -0.095644 0.025628 -0.103278
v -0.070016 -0.070016 -0.103278
v -0.070016 -0.070016 -0.025131
v -0.095644 -0.025627 -0.025131
v -0.095644 -0.025627 -0.103278
v -0.025628 -0.095644 -0.103278
v -0.025628 -0.095644 -0.025131
v -0.070016 -0.070016 -0.025131
v -0.070016 -0.070016 -0.103278
v 0.025628 -0.095644 -0.103278
v 0.025628 -0.095644 -0.025131
v -0.025628 -0.095644 -0.025131
v -0.025628 -0.095644 -0.103278
v 0.070016 -0.070016 -0.103278
v 0.070016 -0.070016 -0.025131
v 0.025628 -0.095644 -0.025131
v 0.025628 -0.095644 -0.103278
v 0.095644 -0.025627 -0.103278
v 0.095644 -0.025627 -0.025131
v 0.070016 -0.070016 -0.025131
v 0.070016 -0.070016 -0.103278
v 0.095644 0.025628 -0.103278
v 0.095644 0.025628 -0.025131
v 0.095644 -0.025627 -0.025131
v 0.095644 -0.025627 -0.103278
v 0.070016 0.070017 -0.103278
v 0.070016 0.070017 -0.025131
v 0.095644 0.025628 -0.025131
v 0.095644 0.025628 -0.103278
v 0.072064 0.139769 0.041073
v 0.072064 0.139769 0.123502
v 0.072064 0.219738 0.123502
v 0.072064 0.219738 0.041073
v 0.072064 0.139769 0.005286
v 0.072064 0.219738 0.005286
v 0.072064 0.139769 0.123502
v -0.072064 0.139769 0.123502
v -0.072064 0.219738 0.123502
v 0.072064 0.219738 0.123502
v -0.072064 0.139769 0.123502
v -0.072064 0.139769 0.041073
v -0.072064 0.219738 0.041073
v -0.072064 0.219738 0.123502
v -0.072064 0.219738 0.005286
v -0.072064 0.139769 0.005286
v -0.072064 0.139769 0.005286
v 0.072064 0.139769 0.005286
v 0.072064 0.219738 0.005286
v -0.072064 0.219738 0.005286
v 0.072064 0.219738 0.041073
v 0.072064 0.219738 0.123502
v -0.072064 0.219738 0.123502
v -0.072064 0.219738 0.041073
v -0.069181 0.278012 0.041073
v -0.069181 0.278012 0.005286
v 0.069181 0.278012 0.005286
v 0.069181 0.278012 0.041073
v -0.072064 0.219738 0.041073
v -0.069181 0.278012 0.041073
v 0.069181 0.278012 0.041073
v 0.072064 0.219738 0.041073
v 0.072064 0.219738 0.041073
v 0.069181 0.278012 0.041073
v 0.069181 0.278012 0.005286
v 0.072064 0.219738 0.005286
v 0.058405 0.220636 -0.082798
v 0.061187 0.257175 -0.047273
v -0.061187 0.257175 -0.047273
v -0.058405 0.220636 -0.082798
v -0.072064 0.219738 0.005286
v -0.069181 0.278012 0.005286
v -0.069181 0.278012 0.041073
v -0.072064 0.219738 0.041073
v 0.072064 0.219738 0.005286
v 0.058405 0.220636 -0.082798
v -0.058405 0.220636 -0.082798
v -0.072064 0.219738 0.005286
v -0.072064 0.219738 0.005286
v -0.058405 0.220636 -0.082798
v -0.061187 0.257175 -0.047273
v -0.069181 0.278012 0.005286
v -0.069181 0.278012 0.005286
v -0.061187 0.257175 -0.047273
v 0.061187 0.257175 -0.047273
v 0.069181 0.278012 0.005286
v 0.069181 0.278012 0.005286
v 0.061187 0.257175 -0.047273
v 0.058405 0.220636 -0.082798
v 0.072064 0.219738 0.005286
v 0.122275 -0.072600 0.041073
v 0.122275 -0.072600 0.123502
v 0.217543 -0.072600 0.123502
v 0.217543 -0.072600 0.041073
v 0.122275 -0.072600 0.005286
v 0.217543 -0.072600 0.005286
v 0.122275 -0.072600 0.123502
v 0.122275 0.071529 0.123502
v 0.217543 0.071529 0.123502
v 0.217543 -0.072600 0.123502
v 0.122275 0.071529 0.123502
v 0.122275 0.071529 0.041073
v 0.217543 0.071529 0.041073
v 0.217543 0.071529 0.123502
v 0.217543 0.071529 0.005286
v 0.122275 0.071529 0.005286
v 0.122275 0.071529 0.005286
v 0.122275 -0.072600 0.005286
v 0.217543 -0.072600 0.005286
v 0.217543 0.071529 0.005286
v 0.217543 -0.072600 0.041073
v 0.217543 -0.072600 0.123502
v 0.217543 0.071529 0.123502
v 0.217543 0.071529 0.041073
v 0.278547 0.068645 0.041073
v 0.278547 0.068645 0.005286
v 0.278547 -0.069716 0.005286
v 0.278547 -0.069716 0.041073
v 0.217543 0.071529 0.041073
v 0.278547 0.068645 0.041073
v 0.278547 -0.069716 0.041073
v 0.217543 -0.072600 0.041073
v 0.217543 -0.072600 0.041073
v 0.278547 -0.069716 0.041073
v 0.278547 -0.069716 0.005286
v 0.217543 -0.072600 0.005286
v 0.221171 -0.058941 -0.082798
v 0.257711 -0.061723 -0.047273
v 0.257711 0.060651 -0.047273
v 0.221171 0.057870 -0.082798
v 0.217543 0.071529 0.005286
v 0.278547 0.068645 0.005286
v 0.278547 0.068645 0.041073
v 0.217543 0.071529 0.041073
v 0.217543 -0.072600 0.005286
v 0.221171 -0.058941 -0.082798
v 0.221171 0.057870 -0.082798
v 0.217543 0.071529 0.005286
v 0.217543 0.071529 0.005286
v 0.221171 0.057870 -0.082798
v 0.257711 0.060651 -0.047273
v 0.278547 0.068645 0.005286
v 0.278547 0.068645 0.005286
v 0.257711 0.060651 -0.047273
v 0.257711 -0.061723 -0.047273
v 0.278547 -0.069716 0.005286
v 0.278547 -0.069716 0.005286
v 0.257711 -0.061723 -0.047273
v 0.221171 -0.058941 -0.082798
v 0.217543 -0.072600 0.005286
v -0.082393 0.143116 -0.026740
v 0.000080 0.000406 -0.026740
v 0.082433 0.143186 -0.026740
v -0.164747 0.000337 -0.026740
v -0.082273 -0.142372 -0.026740
v 0.082554 -0.142303 -0.026740
v 0.164907 0.000476 -0.026740
vn -1.0000 -0.0000 -0.0000
vn -0.0000 -0.0000 1.0000
vn 1.0000 -0.0000 -0.0000
vn -0.0000 -0.0000 -1.0000
vn -0.0000 -1.0000 -0.0000
vn -0.9984 -0.0557 0.0124
vn -0.0000 -0.6971 -0.7170
vn 0.9988 -0.0483 -0.0000
vn -0.0607 0.9961 0.0647
vn 0.9854 -0.0600 -0.1596
vn -0.0000 -0.9296 -0.3685
vn -0.9825 -0.0765 -0.1700
vn -0.0000 1.0000 -0.0000
vn -0.0472 0.9989 -0.0000
vn -0.6971 -0.0000 -0.7170
vn -0.0472 -0.9989 -0.0000
vn 0.9992 -0.0000 -0.0412
vn -0.0589 -0.9855 -0.1589
vn -0.9296 -0.0000 -0.3685
vn -0.0589 0.9855 -0.1589
vn -0.0590 0.9855 -0.1590
vn -0.0004 0.9911 -0.1331
vn -0.8585 0.4952 -0.1331
vn -0.8581 -0.4959 -0.1331
vn 0.0004 -0.9911 -0.1331
vn 0.8585 -0.4952 -0.1331
vn 0.8581 0.4959 -0.1331
vn -0.0000 0.4294 0.9031
vn -0.0002 0.4294 0.9031
vn -0.0004 0.4294 0.9031
vn -0.3719 0.2148 0.9031
vn -0.3720 0.2146 0.9031
vn -0.3721 0.2144 0.9031
vn -0.3720 -0.2146 0.9031
vn -0.3719 -0.2149 0.9031
vn -0.3718 -0.2151 0.9031
vn -0.0000 -0.4294 0.9031
vn 0.0002 -0.4294 0.9031
vn 0.0004 -0.4294 0.9031
vn 0.3719 -0.2148 0.9031
vn 0.3720 -0.2146 0.9031
vn 0.3721 -0.2144 0.9031
vn 0.3720 0.2146 0.9031
vn 0.3719 0.2149 0.9031
vn 0.3718 0.2151 0.9031
vn 0.5000 0.8660 -0.0000
vn -0.5000 0.8660 -0.0000
vn -0.8660 0.5000 -0.0000
vn -0.8660 -0.5000 -0.0000
vn -0.5000 -0.8660 -0.0000
vn 0.5000 -0.8660 -0.0000
vn 0.8660 -0.5000 -0.0000
vn 0.8660 0.5000 -0.0000
vn 0.9988 0.0494 -0.0000
vn -0.0000 0.6971 -0.7170
vn -0.9988 0.0494 -0.0000
vn -0.0000 -0.9999 -0.0102
vn -0.9852 0.0611 -0.1603
vn -0.0000 0.9296 -0.3685
vn 0.9852 0.0611 -0.1603
vn 0.0472 -0.9989 -0.0000
vn 0.6971 -0.0000 -0.7170
vn 0.0472 0.9989 -0.0000
vn -0.9992 -0.0000 -0.0412
vn 0.0589 0.9855 -0.1589
vn 0.9296 -0.0000 -0.3685
vn 0.0589 -0.9855 -0.1589
vn 0.0588 -0.9856 -0.1588
vt 0.096022 0.925448
vt 0.067408 0.924811
vt 0.053331 0.820318
vt 0.094954 0.818750
vt 0.013927 0.773234
vt 0.044403 0.712486
vt 0.283293 0.923894
vt 0.283763 0.956377
vt 0.096493 0.957931
vt 0.282662 0.817152
vt 0.326251 0.816845
vt 0.314126 0.923578
vt 0.330335 0.710259
vt 0.359039 0.765206
vt 0.088560 0.435595
vt 0.087731 0.377245
vt 0.280614 0.374505
vt 0.281442 0.432855
vt 0.091015 0.706722
vt 0.280071 0.704994
vt 0.282645 0.745477
vt 0.093831 0.747187
vt 0.263325 0.628877
vt 0.111231 0.628378
vt 0.108514 0.553215
vt 0.264838 0.550995
vt 0.774197 0.797807
vt 0.782656 0.667448
vt 0.938663 0.695477
vt 0.932547 0.790077
vt 0.657063 0.855656
vt 0.827905 0.946941
vt 0.742913 0.988934
vt 0.548404 0.783133
vt 0.554745 0.976725
vt 0.475890 0.924108
vt 0.556876 0.652775
vt 0.392396 0.755070
vt 0.398531 0.660470
vt 0.674001 0.594940
vt 0.503178 0.503639
vt 0.588169 0.461652
vt 0.776294 0.473855
vt 0.855156 0.526460
vt 0.770519 0.797034
vt 0.832070 0.736498
vt 0.778143 0.666735
vt 0.770515 0.797036
vt 0.778142 0.666735
vt 0.770515 0.797037
vt 0.770518 0.797034
vt 0.801636 0.462918
vt 0.845247 0.462691
vt 0.844477 0.314045
vt 0.800866 0.314271
vt 0.757607 0.463147
vt 0.756836 0.314500
vt 0.727260 0.464206
vt 0.726490 0.315560
vt 0.759093 0.464041
vt 0.758322 0.315395
vt 0.802577 0.463816
vt 0.801807 0.315170
vt 0.846062 0.463591
vt 0.845291 0.314945
vt 0.877895 0.463425
vt 0.877124 0.314779
vt 0.921379 0.463200
vt 0.920610 0.314554
vt 0.964477 0.462525
vt 0.963708 0.313879
vt 0.918971 0.462308
vt 0.918202 0.313663
vt 0.876450 0.462529
vt 0.875681 0.313883
vt 0.540323 0.354450
vt 0.514956 0.329083
vt 0.528318 0.305941
vt 0.563465 0.341088
vt 0.480306 0.293076
vt 0.480306 0.319799
vt 0.432293 0.305941
vt 0.445655 0.329083
vt 0.397146 0.341088
vt 0.420288 0.354450
vt 0.384281 0.389101
vt 0.411004 0.389101
vt 0.397146 0.437113
vt 0.420288 0.423751
vt 0.432293 0.472260
vt 0.445655 0.449118
vt 0.480306 0.485125
vt 0.480306 0.458402
vt 0.528318 0.472260
vt 0.514956 0.449118
vt 0.563465 0.437113
vt 0.540323 0.423751
vt 0.576330 0.389101
vt 0.549607 0.389101
vt 0.162356 0.309377
vt 0.137726 0.309613
vt 0.138156 0.354541
vt 0.162786 0.354306
vt 0.107520 0.309985
vt 0.107950 0.354913
vt 0.138708 0.309770
vt 0.139138 0.354698
vt 0.161682 0.309550
vt 0.162111 0.354478
vt 0.193064 0.309250
vt 0.193493 0.354178
vt 0.224446 0.308950
vt 0.224876 0.353877
vt 0.247420 0.308730
vt 0.247849 0.353658
vt 0.278802 0.308430
vt 0.279232 0.353359
vt 0.247899 0.308560
vt 0.248328 0.353487
vt 0.225494 0.308774
vt 0.225924 0.353702
vt 0.194147 0.309074
vt 0.194577 0.354002
vt 0.303484 0.509545
vt 0.384251 0.556174
vt 0.303484 0.602804
vt 0.384251 0.649436
vt 0.465016 0.602804
vt 0.465016 0.509545
vt 0.384251 0.462915
s 1
usemtl MeasureMat_(Instance)
f 3/1/1 2/2/1 1/3/1
f 4/4/1 3/1/1 1/3/1
f 1/3/1 5/5/1 4/4/1
f 5/5/1 6/6/1 4/4/1
f 9/7/2 8/8/2 7/9/2
f 10/1/2 9/7/2 7/9/2
f 13/10/3 12/11/3 11/12/3
f 14/7/3 13/10/3 11/12/3
f 13/10/3 15/13/3 12/11/3
f 15/13/3 16/14/3 12/11/3
f 19/15/4 18/16/4 17/17/4
f 20/18/4 19/15/4 17/17/4
f 23/7/5 22/1/5 21/4/5
f 24/10/5 23/7/5 21/4/5
f 27/19/5 26/20/5 25/21/5
f 28/22/5 27/19/5 25/21/5
f 31/22/2 30/21/2 29/10/2
f 32/4/2 31/22/2 29/10/2
f 35/19/6 34/22/6 33/4/6
f 36/6/6 35/19/6 33/4/6
f 39/23/7 38/24/7 37/25/7
f 40/26/7 39/23/7 37/25/7
f 43/21/8 42/20/8 41/13/8
f 44/10/8 43/21/8 41/13/8
f 47/26/9 46/25/9 45/15/9
f 48/18/9 47/26/9 45/15/9
f 51/23/10 50/26/10 49/13/10
f 52/20/10 51/23/10 49/13/10
f 55/24/11 54/23/11 53/20/11
f 56/19/11 55/24/11 53/20/11
f 59/25/12 58/24/12 57/19/12
f 60/6/12 59/25/12 57/19/12
f 63/1/13 62/2/13 61/3/13
f 64/4/13 63/1/13 61/3/13
f 61/3/13 65/5/13 64/4/13
f 65/5/13 66/6/13 64/4/13
f 69/7/2 68/8/2 67/9/2
f 70/1/2 69/7/2 67/9/2
f 73/10/5 72/11/5 71/12/5
f 74/7/5 73/10/5 71/12/5
f 73/10/5 75/13/5 72/11/5
f 75/13/5 76/14/5 72/11/5
f 79/15/4 78/16/4 77/17/4
f 80/18/4 79/15/4 77/17/4
f 83/7/1 82/1/1 81/4/1
f 84/10/1 83/7/1 81/4/1
f 87/19/1 86/20/1 85/21/1
f 88/22/1 87/19/1 85/21/1
f 91/22/2 90/21/2 89/10/2
f 92/4/2 91/22/2 89/10/2
f 95/19/14 94/22/14 93/4/14
f 96/6/14 95/19/14 93/4/14
f 99/23/15 98/24/15 97/25/15
f 100/26/15 99/23/15 97/25/15
f 103/21/16 102/20/16 101/13/16
f 104/10/16 103/21/16 101/13/16
f 107/26/17 106/25/17 105/15/17
f 108/18/17 107/26/17 105/15/17
f 111/23/18 110/26/18 109/13/18
f 112/20/18 111/23/18 109/13/18
f 115/24/19 114/23/19 113/20/19
f 116/19/19 115/24/19 113/20/19
f 119/25/20 118/24/20 117/19/21
f 120/6/20 119/25/20 117/19/21
f 123/27/22 122/28/22 121/29/22
f 124/30/22 123/27/22 121/29/22
f 127/31/23 126/27/23 125/32/23
f 128/33/23 127/31/23 125/32/23
f 131/34/24 130/31/24 129/35/24
f 132/36/24 131/34/24 129/35/24
f 135/37/25 134/34/25 133/38/25
f 136/39/25 135/37/25 133/38/25
f 139/40/26 138/37/26 137/41/26
f 140/42/26 139/40/26 137/41/26
f 143/28/27 142/40/27 141/43/27
f 144/44/27 143/28/27 141/43/27
f 147/45/28 146/46/29 145/47/30
f 150/48/31 149/46/32 148/49/33
f 153/50/34 152/46/35 151/49/36
f 156/50/37 155/46/38 154/49/39
f 159/51/40 158/46/41 157/47/42
f 162/51/43 161/46/44 160/47/45
f 165/52/46 164/53/46 163/54/46
f 166/55/46 165/52/46 163/54/46
f 169/56/13 168/52/13 167/55/13
f 170/57/13 169/56/13 167/55/13
f 173/58/47 172/56/47 171/57/47
f 174/59/47 173/58/47 171/57/47
f 177/60/48 176/58/48 175/59/48
f 178/61/48 177/60/48 175/59/48
f 181/62/1 180/60/1 179/61/1
f 182/63/1 181/62/1 179/61/1
f 185/64/49 184/62/49 183/63/49
f 186/65/49 185/64/49 183/63/49
f 189/66/50 188/64/50 187/65/50
f 190/67/50 189/66/50 187/65/50
f 193/68/5 192/66/5 191/67/5
f 194/69/5 193/68/5 191/67/5
f 197/70/51 196/68/51 195/69/51
f 198/71/51 197/70/51 195/69/51
f 201/72/52 200/70/52 199/71/52
f 202/73/52 201/72/52 199/71/52
f 205/74/3 204/72/3 203/73/3
f 206/75/3 205/74/3 203/73/3
f 209/53/53 208/74/53 207/75/53
f 210/54/53 209/53/53 207/75/53
f 213/76/4 212/77/4 211/78/4
f 214/79/4 213/76/4 211/78/4
f 211/78/4 212/77/4 215/80/4
f 212/77/4 216/81/4 215/80/4
f 215/80/4 216/81/4 217/82/4
f 216/81/4 218/83/4 217/82/4
f 217/82/4 218/83/4 219/84/4
f 218/83/4 220/85/4 219/84/4
f 219/84/4 220/85/4 221/86/4
f 220/85/4 222/87/4 221/86/4
f 221/86/4 222/87/4 223/88/4
f 222/87/4 224/89/4 223/88/4
f 223/88/4 224/89/4 225/90/4
f 224/89/4 226/91/4 225/90/4
f 225/90/4 226/91/4 227/92/4
f 226/91/4 228/93/4 227/92/4
f 227/92/4 228/93/4 229/94/4
f 228/93/4 230/95/4 229/94/4
f 229/94/4 230/95/4 231/96/4
f 230/95/4 232/97/4 231/96/4
f 231/96/4 232/97/4 233/98/4
f 232/97/4 234/99/4 233/98/4
f 233/98/4 234/99/4 214/79/4
f 234/99/4 213/76/4 214/79/4
f 237/100/50 236/101/50 235/102/50
f 238/103/50 237/100/50 235/102/50
f 241/101/5 240/104/5 239/105/5
f 242/102/5 241/101/5 239/105/5
f 245/104/51 244/106/51 243/107/51
f 246/105/51 245/104/51 243/107/51
f 249/106/52 248/108/52 247/109/52
f 250/107/52 249/106/52 247/109/52
f 253/108/3 252/110/3 251/111/3
f 254/109/3 253/108/3 251/111/3
f 257/110/53 256/112/53 255/113/53
f 258/111/53 257/110/53 255/113/53
f 261/112/46 260/114/46 259/115/46
f 262/113/46 261/112/46 259/115/46
f 265/114/13 264/116/13 263/117/13
f 266/115/13 265/114/13 263/117/13
f 269/116/47 268/118/47 267/119/47
f 270/117/47 269/116/47 267/119/47
f 273/118/48 272/120/48 271/121/48
f 274/119/48 273/118/48 271/121/48
f 277/120/1 276/122/1 275/123/1
f 278/121/1 277/120/1 275/123/1
f 281/122/49 280/100/49 279/103/49
f 282/123/49 281/122/49 279/103/49
f 285/1/3 284/2/3 283/3/3
f 286/4/3 285/1/3 283/3/3
f 283/3/3 287/5/3 286/4/3
f 287/5/3 288/6/3 286/4/3
f 291/7/2 290/8/2 289/9/2
f 292/1/2 291/7/2 289/9/2
f 295/10/1 294/11/1 293/12/1
f 296/7/1 295/10/1 293/12/1
f 295/10/1 297/13/1 294/11/1
f 297/13/1 298/14/1 294/11/1
f 301/15/4 300/16/4 299/17/4
f 302/18/4 301/15/4 299/17/4
f 305/7/13 304/1/13 303/4/13
f 306/10/13 305/7/13 303/4/13
f 309/19/13 308/20/13 307/21/13
f 310/22/13 309/19/13 307/21/13
f 313/22/2 312/21/2 311/10/2
f 314/4/2 313/22/2 311/10/2
f 317/19/54 316/22/54 315/4/54
f 318/6/54 317/19/54 315/4/54
f 321/23/55 320/24/55 319/25/55
f 322/26/55 321/23/55 319/25/55
f 325/21/56 324/20/56 323/13/56
f 326/10/56 325/21/56 323/13/56
f 329/26/57 328/25/57 327/15/57
f 330/18/57 329/26/57 327/15/57
f 333/23/58 332/26/58 331/13/58
f 334/20/58 333/23/58 331/13/58
f 337/24/59 336/23/59 335/20/59
f 338/19/59 337/24/59 335/20/59
f 341/25/60 340/24/60 339/19/60
f 342/6/60 341/25/60 339/19/60
f 345/1/5 344/2/5 343/3/5
f 346/4/5 345/1/5 343/3/5
f 343/3/5 347/5/5 346/4/5
f 347/5/5 348/6/5 346/4/5
f 351/7/2 350/8/2 349/9/2
f 352/1/2 351/7/2 349/9/2
f 355/10/13 354/11/13 353/12/13
f 356/7/13 355/10/13 353/12/13
f 355/10/13 357/13/13 354/11/13
f 357/13/13 358/14/13 354/11/13
f 361/15/4 360/16/4 359/17/4
f 362/18/4 361/15/4 359/17/4
f 365/7/3 364/1/3 363/4/3
f 366/10/3 365/7/3 363/4/3
f 369/19/3 368/20/3 367/21/3
f 370/22/3 369/19/3 367/21/3
f 373/22/2 372/21/2 371/10/2
f 374/4/2 373/22/2 371/10/2
f 377/19/61 376/22/61 375/4/61
f 378/6/61 377/19/61 375/4/61
f 381/23/62 380/24/62 379/25/62
f 382/26/62 381/23/62 379/25/62
f 385/21/63 384/20/63 383/13/63
f 386/10/63 385/21/63 383/13/63
f 389/26/64 388/25/64 387/15/64
f 390/18/64 389/26/64 387/15/64
f 393/23/65 392/26/65 391/13/65
f 394/20/65 393/23/65 391/13/65
f 397/24/66 396/23/66 395/20/66
f 398/19/66 397/24/66 395/20/66
f 401/25/67 400/24/67 399/19/68
f 402/6/67 401/25/67 399/19/68
f 405/124/4 404/125/4 403/126/4
f 403/126/4 404/125/4 406/127/4
f 406/127/4 404/125/4 407/128/4
f 407/128/4 404/125/4 408/129/4
f 408/129/4 404/125/4 409/130/4
f 409/130/4 404/125/4 405/124/4
