# Blender 5.0.1
# www.blender.org
mtllib 7m.mtl
o 7m
v -0.075000 0.075000 0.500000
v -0.075000 0.075000 -0.500000
v 0.075000 0.075000 -0.500000
v 0.075000 0.075000 0.500000
v -0.075000 -0.075000 -0.500000
v -0.075000 -0.075000 0.500000
v 0.075000 -0.075000 0.500000
v 0.075000 -0.075000 -0.500000
v 0.075000 0.075000 0.500000
v 0.075000 0.075000 -0.500000
v 0.075000 -0.075000 -0.500000
v 0.075000 -0.075000 0.500000
v -0.075000 -0.075000 0.500000
v -0.075000 -0.075000 -0.500000
v -0.075000 0.075000 -0.500000
v -0.075000 0.075000 0.500000
vn -0.0000 1.0000 -0.0000
vn -0.0000 -1.0000 -0.0000
vn 1.0000 -0.0000 -0.0000
vn -1.0000 -0.0000 -0.0000
vt 0.992572 0.975087
vt 0.807688 0.975087
vt 0.807688 0.014259
vt 0.992572 0.014259
vt 0.992572 0.975137
vt 0.807688 0.975137
vt 0.807688 0.014192
vt 0.992572 0.014192
vt 0.992571 0.975087
vt 0.807694 0.975087
vt 0.807694 0.014259
vt 0.992571 0.014259
vt 0.992570 0.975087
vt 0.807704 0.975087
vt 0.807704 0.014259
vt 0.992570 0.014259
s 1
usemtl BraceMetal_(Instance)
f 3/1/1 2/2/1 1/3/1
f 4/4/1 3/1/1 1/3/1
f 7/5/2 6/6/2 5/7/2
f 8/8/2 7/5/2 5/7/2
f 11/9/3 10/10/3 9/11/3
f 12/12/3 11/9/3 9/11/3
f 15/13/4 14/14/4 13/15/4
f 16/16/4 15/13/4 13/15/4
