# Blender 5.0.1
# www.blender.org
mtllib 81.mtl
o 81
v 0.129622 -0.173928 0.605622
v -0.100795 -0.136915 -0.011160
v 0.044250 -0.105612 0.641205
v -0.044250 -0.105612 0.641205
v 0.036322 -0.049665 -0.674190
v -0.036322 -0.049665 -0.674190
v -0.227482 -0.084806 0.321155
v 0.227482 -0.084806 0.321155
v -0.227482 -0.084806 1.515287
v -0.227482 -0.084806 0.001602
v 0.227482 -0.084806 0.001602
v 0.000000 -0.173928 0.605622
v 0.000000 -0.136915 -0.011160
v 0.000000 -0.105612 0.641205
v 0.000000 -0.049665 -0.674190
v 0.568560 -0.000000 0.296507
v -0.227482 0.000000 1.515287
v 0.227482 -0.000000 0.001602
v -0.227482 -0.000000 0.001602
v 0.147161 -0.000000 -0.011160
v 0.189249 0.000000 0.605622
v -0.189249 0.000000 0.605622
v -0.147161 -0.000000 -0.011160
v 0.064606 0.000000 0.641205
v -0.064606 0.000000 0.641205
v 0.053030 -0.000000 -0.674190
v -0.053030 -0.000000 -0.674190
v 0.000000 -0.000000 -0.674190
v 0.000000 0.000000 0.641205
v 0.597066 -0.066357 1.376443
v 0.597066 0.000000 1.376443
v 0.458222 0.000000 1.515287
v -0.597066 -0.066357 1.455607
v -0.537387 -0.069336 1.515287
v -0.537387 0.000000 1.515287
v -0.597066 0.000000 1.455607
v -0.550448 -0.068684 0.341250
v -0.597066 -0.066357 0.457930
v -0.530646 -0.069673 0.377855
v -0.597066 0.000000 0.457930
v -0.550448 -0.000000 0.341250
v 0.568560 -0.021831 0.296507
v 0.533826 -0.069514 0.266475
v 0.522786 -0.070065 0.299815
v 0.576872 -0.067365 0.611402
v 0.149714 0.000000 1.515287
v 0.227482 -0.084806 1.291045
v 0.149714 -0.084806 1.515287
v 0.294872 0.000000 1.515287
v -0.423802 0.000000 1.515287
v -0.308066 0.000000 1.515287
v -0.423802 -0.075006 1.515287
v -0.308066 -0.080783 1.515287
v -0.359966 -0.078193 1.403662
v 0.228273 0.000000 1.344842
v -0.362932 0.000000 1.442230
v -0.073636 -0.173928 0.605622
v -0.117930 -0.158916 0.355458
v -0.147778 -0.120968 0.605622
v -0.088055 -0.140665 0.622947
v 0.095180 -0.129317 -0.068900
v 0.042286 -0.136915 -0.011160
v 0.108018 -0.146190 0.143394
v 0.119561 -0.081498 -0.011160
v 0.497989 -0.071303 1.475520
v 0.458222 -0.033472 1.515287
v 0.294872 -0.041626 1.515287
v 0.282921 -0.082039 1.475520
v 0.129622 0.173928 0.605622
v -0.100795 0.136915 -0.011160
v 0.044250 0.105612 0.641205
v -0.044250 0.105612 0.641205
v 0.036322 0.049665 -0.674190
v -0.036322 0.049665 -0.674190
v -0.227482 0.084806 0.321155
v 0.227482 0.084806 0.321155
v -0.227482 0.084806 1.515287
v -0.227482 0.084806 0.001602
v 0.227482 0.084806 0.001602
v 0.000000 0.173928 0.605622
v 0.000000 0.136915 -0.011160
v 0.000000 0.105612 0.641205
v 0.000000 0.049665 -0.674190
v 0.597066 0.066357 1.376443
v -0.597066 0.066357 1.455607
v -0.537387 0.069336 1.515287
v -0.550448 0.068684 0.341250
v -0.597066 0.066357 0.457930
v -0.530646 0.069673 0.377855
v 0.568560 0.021831 0.296507
v 0.533826 0.069514 0.266475
v 0.522786 0.070065 0.299815
v 0.576872 0.067365 0.611402
v 0.227482 0.084806 1.291045
v 0.149714 0.084806 1.515287
v -0.423802 0.075006 1.515287
v -0.308066 0.080783 1.515287
v -0.359966 0.078193 1.403662
v -0.073636 0.173928 0.605622
v -0.117930 0.158916 0.355458
v -0.147778 0.120968 0.605622
v -0.088055 0.140665 0.622947
v 0.095180 0.129317 -0.068900
v 0.042286 0.136915 -0.011160
v 0.108018 0.146190 0.143394
v 0.119561 0.081498 -0.011160
v 0.497989 0.071303 1.475520
v 0.458222 0.033472 1.515287
v 0.294872 0.041626 1.515287
v 0.282921 0.082039 1.475520
vn -0.9409 -0.1042 0.3222
vn 0.0499 -0.9988 -0.0000
vn -1.0000 -0.0000 -0.0000
vn -0.0000 -0.9982 -0.0599
vn -0.2937 -0.0823 0.9524
vn -0.0000 -0.4620 0.8869
vn -0.0000 -0.9915 -0.1305
vn -0.0000 -0.0000 1.0000
vn 0.2950 -0.0844 0.9517
vn -0.0000 -0.0000 -1.0000
vn -0.9389 -0.3174 -0.1332
vn -0.7247 -0.0000 -0.6891
vn -0.0000 -1.0000 -0.0000
vn -0.9446 -0.3220 -0.0640
vn 0.9445 -0.3222 -0.0640
vn 0.6540 -0.0000 -0.7565
vn -0.7071 -0.0000 0.7071
vn -0.0499 -0.9988 -0.0000
vn -0.9286 -0.0000 -0.3710
vn 0.7162 -0.6878 -0.1184
vn 0.9997 -0.0000 -0.0264
vn 0.7071 -0.0000 0.7071
vn 0.9230 -0.1203 0.3656
vn 0.8213 -0.1243 0.5567
vn -0.8585 -0.1360 0.4944
vn -0.8834 -0.4503 0.1294
vn 0.5360 -0.7474 0.3926
vn 0.9389 -0.3174 -0.1332
vn 0.5587 -0.7791 -0.2844
vn 0.0353 -0.7062 0.7071
vn 0.7143 -0.6624 0.2256
vn -0.3380 -0.9356 0.1016
vn -0.9409 0.1042 0.3222
vn 0.0499 0.9988 -0.0000
vn -0.0000 0.9982 -0.0599
vn -0.2937 0.0823 0.9524
vn -0.0000 0.4620 0.8869
vn -0.0000 0.9915 -0.1305
vn 0.2950 0.0844 0.9517
vn -0.9389 0.3174 -0.1332
vn -0.0000 1.0000 -0.0000
vn -0.9446 0.3220 -0.0640
vn 0.9445 0.3222 -0.0640
vn -0.0499 0.9988 -0.0000
vn 0.7162 0.6878 -0.1184
vn 0.9230 0.1203 0.3656
vn 0.8213 0.1243 0.5567
vn -0.8585 0.1360 0.4944
vn -0.8834 0.4503 0.1294
vn 0.5360 0.7474 0.3926
vn 0.9389 0.3174 -0.1332
vn 0.5587 0.7791 -0.2844
vn 0.0353 0.7062 0.7071
vn 0.7143 0.6624 0.2256
vn -0.3380 0.9356 0.1016
vt 0.903596 0.038935
vt 0.904361 0.141031
vt 0.925473 0.163332
vt 0.947532 0.163637
vt 0.949031 0.066664
vt 0.649124 0.202612
vt 0.819374 0.203478
vt 0.679787 0.038906
vt 0.661862 0.044069
vt 0.182796 0.956738
vt 0.711526 0.950981
vt 0.711143 0.915815
vt 0.182413 0.921572
vt 0.896803 0.744091
vt 0.571743 0.778092
vt 0.573096 0.801066
vt 0.660219 0.825915
vt 0.903913 0.814141
vt 0.083133 0.782823
vt 0.063472 0.758966
vt 0.007935 0.770134
vt 0.009628 0.839210
vt 0.073855 0.816372
vt 0.104462 0.736266
vt 0.063683 0.735883
vt 0.103472 0.775850
vt 0.221244 0.806826
vt 0.222942 0.826725
vt 0.542927 0.829111
vt 0.007935 0.735411
vt 0.011819 0.631271
vt 0.008554 0.700717
vt 0.063865 0.712781
vt 0.103681 0.666912
vt 0.194442 0.809075
vt 0.196663 0.837881
vt 0.549874 0.650334
vt 0.212174 0.760737
vt 0.219619 0.787522
vt 0.566900 0.725300
vt 0.357465 0.647169
vt 0.109066 0.647169
vt 0.109066 0.692116
vt 0.357465 0.683571
vt 0.649029 0.444337
vt 0.818504 0.444642
vt 0.824493 0.007912
vt 0.824493 0.249038
vt 0.869439 0.249038
vt 0.869439 0.007911
vt 0.990860 0.664317
vt 0.990687 0.621609
vt 0.947872 0.621783
vt 0.945914 0.664500
vt 0.135422 0.203697
vt 0.192258 0.780594
vt 0.873237 0.583051
vt 0.756555 0.696795
vt 0.884792 0.651943
vt 0.573686 0.903874
vt 0.903913 0.914462
vt 0.574445 0.855747
vt 0.946336 0.250202
vt 0.928598 0.249957
vt 0.861335 0.463672
vt 0.824493 0.488007
vt 0.836063 0.488007
vt 0.137668 0.920480
vt 0.138068 0.957226
vt 0.638226 0.615688
vt 0.618842 0.605166
vt 0.576391 0.640359
vt 0.424057 0.682338
vt 0.424057 0.647169
vt 0.075861 0.514717
vt 0.663129 0.008649
vt 0.494827 0.018208
vt 0.936990 0.926763
vt 0.944899 0.354258
vt 0.909733 0.353772
vt 0.903596 0.759336
vt 0.925421 0.926603
vt 0.991671 0.864226
vt 0.946725 0.864409
vt 0.908138 0.279483
vt 0.077873 0.957881
vt 0.077440 0.918131
vt 0.945914 0.990197
vt 0.992075 0.963693
vt 0.027478 0.958430
vt 0.009304 0.915916
vt 0.947360 0.556529
vt 0.990490 0.573187
vt 0.892117 0.704262
vt 0.899999 0.683988
vt 0.220132 0.855773
vt 0.008018 0.167085
vt 0.037782 0.174434
vt 0.037658 0.060497
vt 0.007923 0.080547
vt 0.016758 0.444509
vt 0.016740 0.244868
vt 0.048370 0.640359
vt 0.016784 0.608734
vt 0.016784 0.548545
vt 0.016766 0.487220
vt 0.090023 0.007952
vt 0.903596 0.038935
vt 0.947532 0.163637
vt 0.679787 0.038906
vt 0.819374 0.203478
vt 0.182413 0.921572
vt 0.711526 0.950981
vt 0.660219 0.825915
vt 0.573096 0.801066
vt 0.083133 0.782823
vt 0.073855 0.816372
vt 0.009628 0.839210
vt 0.007935 0.770134
vt 0.063472 0.758966
vt 0.104462 0.736266
vt 0.103472 0.775850
vt 0.063683 0.735883
vt 0.221244 0.806826
vt 0.007935 0.735411
vt 0.011819 0.631271
vt 0.103681 0.666912
vt 0.063865 0.712781
vt 0.008554 0.700717
vt 0.194442 0.809075
vt 0.196663 0.837881
vt 0.549875 0.650334
vt 0.219620 0.787522
vt 0.212174 0.760737
vt 0.357465 0.647169
vt 0.357465 0.683571
vt 0.109066 0.692116
vt 0.109066 0.647169
vt 0.824493 0.007912
vt 0.824493 0.249038
vt 0.945914 0.664500
vt 0.947872 0.621783
vt 0.135422 0.203697
vt 0.756555 0.696795
vt 0.946336 0.250202
vt 0.928598 0.249957
vt 0.861335 0.463672
vt 0.824493 0.488007
vt 0.138068 0.957226
vt 0.137668 0.920480
vt 0.638226 0.615688
vt 0.075861 0.514717
vt 0.494827 0.018208
vt 0.903596 0.759336
vt 0.909734 0.353772
vt 0.944899 0.354258
vt 0.991671 0.864226
vt 0.908138 0.279483
vt 0.077873 0.957881
vt 0.077440 0.918131
vt 0.945914 0.990197
vt 0.992075 0.963693
vt 0.027478 0.958430
vt 0.009304 0.915916
vt 0.947360 0.556529
vt 0.990490 0.573187
vt 0.008018 0.167085
vt 0.007923 0.080547
vt 0.037658 0.060497
vt 0.037782 0.174434
vt 0.016758 0.444509
vt 0.016740 0.244868
vt 0.048370 0.640359
vt 0.016784 0.608734
vt 0.016784 0.548545
vt 0.016766 0.487220
vt 0.090023 0.007952
s 1
usemtl checker
f 47/1/1 68/2/1 67/3/1 49/4/1 55/5/1
f 8/6/2 11/7/2 43/8/2 44/9/2
f 36/10/3 40/11/3 38/12/3 33/13/3
f 12/14/4 13/15/4 62/16/4 63/17/4 1/18/4
f 60/19/5 4/20/5 25/21/5 22/22/5 59/23/5
f 12/24/6 14/25/6 4/20/6 60/19/6 57/26/6
f 13/15/7 15/27/7 5/28/7 61/29/7 62/16/7
f 29/30/8 25/21/8 4/20/8 14/25/8
f 21/31/9 24/32/9 3/33/9 1/34/9
f 28/35/10 26/36/10 5/28/10 15/27/10
f 23/37/11 27/38/11 6/39/11 2/40/11
f 41/41/12 19/42/12 10/43/12 37/44/12
f 7/45/13 10/46/13 11/7/13 8/6/13
f 19/47/10 18/48/10 11/49/10 10/50/10
f 17/51/8 51/52/8 53/53/8 9/54/8
f 47/55/13 7/45/13 8/6/13
f 2/40/7 6/39/7 15/27/7 13/15/7
f 27/56/10 28/35/10 15/27/10 6/39/10
f 24/32/8 29/30/8 14/25/8 3/33/8
f 22/57/14 23/37/14 2/40/14 58/58/14 59/59/14
f 1/34/6 3/33/6 14/25/6 12/24/6
f 20/60/15 21/61/15 1/18/15 63/17/15 64/62/15
f 32/63/8 49/4/8 67/3/8 66/64/8
f 43/65/16 11/49/16 18/48/16 16/66/16 42/67/16
f 33/13/17 34/68/17 35/69/17 36/10/17
f 37/70/18 10/46/18 7/45/18 39/71/18
f 37/70/18 39/71/18 38/72/18
f 37/44/19 38/73/19 40/74/19 41/41/19
f 54/75/18 38/72/18 7/45/18
f 42/76/20 45/77/20 44/9/20
f 16/78/21 31/79/21 30/80/21 45/81/21 42/82/21
f 46/83/8 17/51/8 9/54/8 48/84/8
f 65/85/22 30/80/22 31/79/22 32/63/22 66/64/22
f 50/86/8 35/69/8 34/68/8 52/87/8
f 47/88/23 55/89/23 46/83/23 48/84/23
f 56/90/24 50/86/24 52/87/24 54/91/24
f 54/92/25 53/53/25 51/52/25 56/93/25
f 57/94/26 60/95/26 58/58/26
f 58/58/4 2/40/4 13/15/4 12/14/4 57/94/4
f 61/29/27 64/62/27 62/16/27
f 61/29/28 5/28/28 26/96/28 20/60/28 64/62/28
f 64/62/29 63/17/29 62/16/29
f 67/97/30 68/98/30 65/99/30 66/100/30
f 45/77/2 8/6/2 44/9/2
f 7/45/13 47/55/13 9/101/13
f 9/101/13 47/55/13 48/102/13
f 38/72/18 54/75/18 33/103/18
f 33/103/18 54/75/18 34/104/18
f 34/104/18 54/75/18 52/105/18
f 54/75/18 9/101/18 53/106/18
f 9/101/18 54/75/18 7/45/18
f 7/45/18 38/72/18 39/71/18
f 8/6/2 45/77/2 47/55/2
f 47/55/2 65/99/2 68/98/2
f 45/77/2 30/107/2 47/55/2
f 65/99/2 47/55/2 30/107/2
f 42/76/31 44/9/31 43/8/31
f 60/95/32 59/59/32 58/58/32
f 94/108/33 55/5/33 49/109/33 109/3/33 110/2/33
f 76/6/34 92/9/34 91/110/34 79/111/34
f 36/10/3 85/112/3 88/12/3 40/113/3
f 80/14/35 69/18/35 105/114/35 104/115/35 81/15/35
f 102/116/36 101/117/36 22/118/36 25/119/36 72/120/36
f 80/121/37 99/122/37 102/116/37 72/120/37 82/123/37
f 81/15/38 104/115/38 103/29/38 73/28/38 83/124/38
f 29/125/8 82/123/8 72/120/8 25/119/8
f 21/126/39 69/127/39 71/128/39 24/129/39
f 28/130/10 83/124/10 73/28/10 26/131/10
f 23/132/40 70/40/40 74/133/40 27/134/40
f 41/135/12 87/136/12 78/137/12 19/138/12
f 75/45/41 76/6/41 79/111/41 78/46/41
f 19/139/10 78/50/10 79/49/10 18/140/10
f 17/51/8 77/141/8 97/142/8 51/52/8
f 94/143/41 76/6/41 75/45/41
f 70/40/38 81/15/38 83/124/38 74/133/38
f 27/56/10 74/133/10 83/124/10 28/130/10
f 24/129/8 71/128/8 82/123/8 29/125/8
f 22/57/42 101/59/42 100/144/42 70/40/42 23/132/42
f 69/127/37 80/121/37 82/123/37 71/128/37
f 20/60/43 106/62/43 105/114/43 69/18/43 21/61/43
f 32/145/8 108/146/8 109/3/8 49/109/8
f 91/147/16 90/67/16 16/148/16 18/140/16 79/49/16
f 85/112/17 36/10/17 35/149/17 86/150/17
f 87/151/44 89/71/44 75/45/44 78/46/44
f 87/151/44 88/72/44 89/71/44
f 87/136/19 41/135/19 40/74/19 88/73/19
f 98/152/44 75/45/44 88/72/44
f 90/76/45 92/9/45 93/153/45
f 16/78/21 90/82/21 93/154/21 84/155/21 31/156/21
f 46/157/8 95/84/8 77/141/8 17/51/8
f 107/158/22 108/146/22 32/145/22 31/156/22 84/155/22
f 50/159/8 96/160/8 86/150/8 35/149/8
f 94/161/46 95/84/46 46/157/46 55/162/46
f 56/163/47 98/164/47 96/160/47 50/159/47
f 98/165/48 56/166/48 51/52/48 97/142/48
f 99/94/49 100/144/49 102/95/49
f 100/144/35 99/94/35 80/14/35 81/15/35 70/40/35
f 103/29/50 104/115/50 106/62/50
f 103/29/51 106/62/51 20/60/51 26/96/51 73/28/51
f 106/62/52 104/115/52 105/114/52
f 109/167/53 108/168/53 107/169/53 110/170/53
f 93/153/34 92/9/34 76/6/34
f 75/45/41 77/171/41 94/143/41
f 77/171/41 95/172/41 94/143/41
f 88/72/44 85/173/44 98/152/44
f 85/173/44 86/174/44 98/152/44
f 86/174/44 96/175/44 98/152/44
f 98/152/44 97/176/44 77/171/44
f 77/171/44 75/45/44 98/152/44
f 75/45/44 89/71/44 88/72/44
f 76/6/34 94/143/34 93/153/34
f 94/143/34 110/170/34 107/169/34
f 93/153/34 94/143/34 84/177/34
f 107/169/34 84/177/34 94/143/34
f 90/76/54 91/110/54 92/9/54
f 102/95/55 100/144/55 101/59/55
