# Blender 5.0.1
# www.blender.org
mtllib 96_m.mtl
o 96_m
v 0.000000 0.140000 -0.500000
v 0.000000 0.140000 0.500000
v 0.053576 0.129343 -0.500000
v 0.053576 0.129343 0.500000
v 0.098995 0.098995 -0.500000
v 0.098995 0.098995 0.500000
v 0.129343 0.053576 -0.500000
v 0.129343 0.053576 0.500000
v 0.140000 0.000000 -0.500000
v 0.140000 -0.000000 0.500000
v 0.129343 -0.053576 -0.500000
v 0.129343 -0.053576 0.500000
v 0.098995 -0.098995 -0.500000
v 0.098995 -0.098995 0.500000
v 0.053576 -0.129343 -0.500000
v 0.053576 -0.129343 0.500000
v 0.000000 -0.140000 -0.500000
v 0.000000 -0.140000 0.500000
v -0.053576 -0.129343 -0.500000
v -0.053576 -0.129343 0.500000
v -0.098995 -0.098995 -0.500000
v -0.098995 -0.098995 0.500000
v -0.129343 -0.053576 -0.500000
v -0.129343 -0.053576 0.500000
v -0.140000 0.000000 -0.500000
v -0.140000 -0.000000 0.500000
v -0.129343 0.053576 -0.500000
v -0.129343 0.053576 0.500000
v -0.098995 0.098995 -0.500000
v -0.098995 0.098995 0.500000
v -0.053576 0.129343 -0.500000
v -0.053576 0.129343 0.500000
vn -0.0000 1.0000 -0.0000
vn 0.3827 0.9239 -0.0000
vn 0.7071 0.7071 -0.0000
vn 0.9239 0.3827 -0.0000
vn 1.0000 -0.0000 -0.0000
vn 0.9239 -0.3827 -0.0000
vn 0.7071 -0.7071 -0.0000
vn 0.3827 -0.9239 -0.0000
vn -0.0000 -1.0000 -0.0000
vn -0.3827 -0.9239 -0.0000
vn -0.7071 -0.7071 -0.0000
vn -0.9239 -0.3827 -0.0000
vn -1.0000 -0.0000 -0.0000
vn -0.9239 0.3827 -0.0000
vn -0.7071 0.7071 -0.0000
vn -0.0000 -0.0000 1.0000
vn -0.3827 0.9239 -0.0000
vn -0.0000 -0.0000 -1.0000
vt 0.026201 0.073736
vt 0.976201 0.073736
vt 0.976201 0.079986
vt 0.026201 0.079986
vt 0.976201 0.086236
vt 0.026201 0.086236
vt 0.976201 0.092486
vt 0.026201 0.092486
vt 0.976201 0.098736
vt 0.026201 0.098736
vt 0.976201 0.104986
vt 0.026201 0.104986
vt 0.976201 0.111236
vt 0.026201 0.111236
vt 0.976201 0.117486
vt 0.026201 0.117486
vt 0.976201 0.123736
vt 0.026201 0.123736
vt 0.026201 0.023736
vt 0.976201 0.023736
vt 0.976201 0.029986
vt 0.026201 0.029986
vt 0.976201 0.036236
vt 0.026201 0.036236
vt 0.976201 0.042486
vt 0.026201 0.042486
vt 0.976201 0.048736
vt 0.026201 0.048736
vt 0.976201 0.054986
vt 0.026201 0.054986
vt 0.976201 0.061236
vt 0.026201 0.061236
vt 0.976201 0.067486
vt 0.976201 0.142486
vt 0.976201 0.136236
vt 0.976201 0.129986
vt 0.026201 0.067486
vt 0.026201 0.129986
vt 0.026201 0.136236
s 1
usemtl fl
f 1/1/1 2/2/1 4/3/2 3/4/2
f 3/4/2 4/3/2 6/5/3 5/6/3
f 5/6/3 6/5/3 8/7/4 7/8/4
f 7/8/4 8/7/4 10/9/5 9/10/5
f 9/10/5 10/9/5 12/11/6 11/12/6
f 11/12/6 12/11/6 14/13/7 13/14/7
f 13/14/7 14/13/7 16/15/8 15/16/8
f 15/16/8 16/15/8 18/17/9 17/18/9
f 17/19/9 18/20/9 20/21/10 19/22/10
f 19/22/10 20/21/10 22/23/11 21/24/11
f 21/24/11 22/23/11 24/25/12 23/26/12
f 23/26/12 24/25/12 26/27/13 25/28/13
f 25/28/13 26/27/13 28/29/14 27/30/14
f 27/30/14 28/29/14 30/31/15 29/32/15
s 0
f 4/3/16 2/2/16 32/33/16 30/31/16 28/29/16 26/27/16 24/34/16 22/35/16 20/36/16 18/17/16 16/15/16 14/13/16 12/11/16 10/9/16 8/7/16 6/5/16
s 1
f 29/32/15 30/31/15 32/33/17 31/37/17
f 31/37/17 32/33/17 2/2/1 1/1/1
s 0
f 1/1/18 3/4/18 5/6/18 7/8/18 9/10/18 11/12/18 13/14/18 15/16/18 17/18/18 19/38/18 21/39/18 23/26/18 25/28/18 27/30/18 29/32/18 31/37/18
