# Blender 5.0.1
# www.blender.org
mtllib 97.mtl
o 97
v 0.005091 -0.458011 0.321514
v 0.005091 -0.305423 0.472893
v 0.005091 -0.422433 0.413458
v 0.349878 -0.396987 0.297053
v 0.384365 -0.332636 0.300336
v 0.305721 -0.306366 0.418836
v 0.360983 -0.323524 0.374866
v 0.332533 -0.376386 0.372566
v 0.074177 -0.412008 0.408418
v 0.069799 -0.297790 0.464363
v 0.074265 -0.447517 0.315693
v 0.354529 -0.402838 0.225221
v 0.390879 -0.337855 0.225222
v 0.005091 -0.467514 0.225221
v 0.074300 -0.455840 0.225221
v 0.260706 -0.419195 0.300336
v 0.258806 -0.389206 0.371482
v 0.247998 -0.299896 0.430818
v 0.261157 -0.428348 0.225221
v 0.384990 -0.315246 0.300336
v 0.361017 -0.297947 0.372157
v 0.307934 -0.271667 0.412374
v 0.005091 -0.215098 0.459628
v 0.054532 -0.213347 0.451141
v 0.242105 -0.221899 0.425368
v 0.111130 -0.414538 0.225221
v 0.132909 -0.452259 0.225221
v 0.176466 -0.452259 0.225221
v 0.198244 -0.414538 0.225221
v 0.176466 -0.376816 0.225222
v 0.132909 -0.376816 0.225222
v 0.111130 -0.405790 0.284246
v 0.132909 -0.442902 0.290999
v 0.176466 -0.442902 0.290999
v 0.198244 -0.405790 0.284246
v 0.176466 -0.368678 0.277493
v 0.132909 -0.368678 0.277493
v 0.108678 -0.369089 0.379831
v 0.129184 -0.397666 0.405522
v 0.172716 -0.398649 0.406606
v 0.195742 -0.371055 0.381998
v 0.175236 -0.342478 0.356307
v 0.131704 -0.341495 0.355223
v 0.101563 -0.284190 0.437864
v 0.123917 -0.297323 0.472865
v 0.167366 -0.299922 0.471242
v 0.188461 -0.289389 0.434619
v 0.166107 -0.276256 0.399619
v 0.122658 -0.273657 0.401241
v 0.187638 -0.394915 0.295789
v 0.118073 -0.403324 0.299990
v 0.114935 -0.370191 0.379784
v 0.184312 -0.361876 0.369771
v 0.173087 -0.286234 0.416929
v 0.109099 -0.287740 0.427628
v 0.188427 -0.403794 0.225221
v 0.118824 -0.412242 0.225221
v 0.095643 -0.204838 0.429548
v 0.182908 -0.184006 0.424210
v 0.115909 -0.205985 0.471148
v 0.093711 -0.196854 0.435335
v 0.114994 -0.189530 0.398367
v 0.158474 -0.191338 0.397212
v 0.180672 -0.200469 0.433024
v 0.159389 -0.207792 0.469992
v -0.339696 -0.396987 0.297053
v -0.374184 -0.332636 0.300336
v -0.295540 -0.306366 0.418836
v -0.350802 -0.323524 0.374866
v -0.322351 -0.376386 0.372566
v -0.063996 -0.412008 0.408418
v -0.059618 -0.297790 0.464363
v -0.064083 -0.447517 0.315693
v -0.344348 -0.402838 0.225221
v -0.380697 -0.337855 0.225222
v -0.064119 -0.455840 0.225221
v -0.250525 -0.419195 0.300336
v -0.248625 -0.389206 0.371482
v -0.237817 -0.299896 0.430818
v -0.250976 -0.428348 0.225221
v -0.350835 -0.297947 0.372157
v -0.297752 -0.271667 0.412374
v -0.044351 -0.213347 0.451141
v -0.381496 -0.319094 0.225222
v -0.231924 -0.221899 0.425368
v -0.100949 -0.414538 0.225221
v -0.122727 -0.452259 0.225221
v -0.166284 -0.452259 0.225221
v -0.188062 -0.414538 0.225221
v -0.166284 -0.376816 0.225222
v -0.122727 -0.376816 0.225222
v -0.100949 -0.405790 0.284246
v -0.122727 -0.442902 0.290999
v -0.166284 -0.442902 0.290999
v -0.188062 -0.405790 0.284246
v -0.166284 -0.368678 0.277493
v -0.122727 -0.368678 0.277493
v -0.098497 -0.369089 0.379831
v -0.119003 -0.397666 0.405522
v -0.162535 -0.398649 0.406606
v -0.185561 -0.371055 0.381998
v -0.165055 -0.342478 0.356307
v -0.121523 -0.341495 0.355223
v -0.091382 -0.284190 0.437864
v -0.113736 -0.297323 0.472865
v -0.157185 -0.299922 0.471242
v -0.178280 -0.289389 0.434619
v -0.155926 -0.276256 0.399619
v -0.112477 -0.273657 0.401241
v -0.177457 -0.394915 0.295789
v -0.107891 -0.403324 0.299990
v -0.104754 -0.370191 0.379784
v -0.174130 -0.361876 0.369771
v -0.162905 -0.286234 0.416929
v -0.098918 -0.287740 0.427628
v -0.178246 -0.403794 0.225221
v -0.108642 -0.412242 0.225221
v -0.085461 -0.204838 0.429548
v -0.172726 -0.184006 0.424210
v -0.105727 -0.205985 0.471148
v -0.083529 -0.196854 0.435335
v -0.104812 -0.189530 0.398367
v -0.148293 -0.191338 0.397212
v -0.170491 -0.200469 0.433024
v -0.149208 -0.207792 0.469992
v 0.005091 -0.458011 0.128928
v 0.005091 -0.305423 -0.022449
v 0.005091 -0.422433 0.036985
v 0.349878 -0.396986 0.153390
v 0.384365 -0.332636 0.150107
v 0.305721 -0.306366 0.031607
v 0.360983 -0.323524 0.075577
v 0.332533 -0.376386 0.077877
v 0.074177 -0.412008 0.042025
v 0.069799 -0.297790 -0.013920
v 0.074265 -0.447517 0.134750
v 0.260706 -0.419195 0.150107
v 0.258806 -0.389206 0.078961
v 0.247998 -0.299896 0.019625
v 0.384990 -0.315246 0.150107
v 0.361017 -0.297947 0.078286
v 0.307934 -0.271666 0.038069
v 0.005091 -0.215098 -0.009185
v 0.054532 -0.213347 -0.000698
v 0.242105 -0.221899 0.025075
v 0.111130 -0.405790 0.166197
v 0.132909 -0.442902 0.159443
v 0.176466 -0.442902 0.159443
v 0.198244 -0.405790 0.166197
v 0.176466 -0.368678 0.172950
v 0.132909 -0.368678 0.172950
v 0.108678 -0.369089 0.070612
v 0.129184 -0.397666 0.044921
v 0.172716 -0.398649 0.043837
v 0.195742 -0.371055 0.068445
v 0.175236 -0.342478 0.094137
v 0.131704 -0.341495 0.095220
v 0.101563 -0.284190 0.012579
v 0.123917 -0.297322 -0.022422
v 0.167366 -0.299922 -0.020799
v 0.188461 -0.289389 0.015824
v 0.166107 -0.276256 0.050825
v 0.122658 -0.273656 0.049202
v 0.187638 -0.394915 0.154654
v 0.118073 -0.403324 0.150453
v 0.114935 -0.370191 0.070659
v 0.184312 -0.361876 0.080672
v 0.173087 -0.286234 0.033515
v 0.109099 -0.287740 0.022815
v 0.095643 -0.204838 0.020895
v 0.182908 -0.184005 0.026233
v 0.115909 -0.205984 -0.020704
v 0.093711 -0.196854 0.015108
v 0.114994 -0.189530 0.052076
v 0.158474 -0.191337 0.053232
v 0.180672 -0.200468 0.017419
v 0.159389 -0.207792 -0.019549
v -0.339696 -0.396986 0.153390
v -0.374184 -0.332636 0.150107
v -0.295540 -0.306366 0.031607
v -0.350802 -0.323524 0.075577
v -0.322351 -0.376386 0.077877
v -0.063996 -0.412008 0.042025
v -0.059618 -0.297790 -0.013920
v -0.064083 -0.447517 0.134750
v -0.250525 -0.419195 0.150107
v -0.248625 -0.389206 0.078961
v -0.237817 -0.299896 0.019625
v -0.374809 -0.315246 0.150107
v -0.044351 -0.213347 -0.000698
v -0.100949 -0.405790 0.166197
v -0.122727 -0.442902 0.159443
v -0.166284 -0.442902 0.159443
v -0.188062 -0.405790 0.166197
v -0.166284 -0.368678 0.172950
v -0.122727 -0.368678 0.172950
v -0.098497 -0.369089 0.070612
v -0.119003 -0.397666 0.044921
v -0.162535 -0.398649 0.043837
v -0.185561 -0.371055 0.068445
v -0.165055 -0.342478 0.094137
v -0.121523 -0.341495 0.095220
v -0.091382 -0.284190 0.012579
v -0.113736 -0.297322 -0.022422
v -0.157185 -0.299922 -0.020799
v -0.178280 -0.289389 0.015824
v -0.155926 -0.276256 0.050825
v -0.112477 -0.273656 0.049202
v -0.177457 -0.394915 0.154654
v -0.107891 -0.403324 0.150453
v -0.104754 -0.370191 0.070659
v -0.174130 -0.361876 0.080672
v -0.162905 -0.286234 0.033515
v -0.098918 -0.287740 0.022815
v -0.085461 -0.204838 0.020895
v -0.105727 -0.205984 -0.020704
v -0.083529 -0.196854 0.015108
v -0.104812 -0.189530 0.052076
v -0.148293 -0.191337 0.053232
v -0.170491 -0.200468 0.017419
v -0.149208 -0.207792 -0.019549
v -0.227451 -0.275812 -0.060115
v -0.273144 -0.230120 -0.060115
v 0.283325 0.234964 -0.060115
v 0.237633 -0.275812 0.026371
v -0.227451 0.280656 0.026371
v -0.273144 0.234964 0.026371
v 0.237633 0.280656 0.026371
v 0.283325 -0.230120 -0.035802
v 0.283325 -0.195735 -0.060115
v 0.128334 -0.275812 -0.060115
v 0.237633 -0.275812 -0.035802
v -0.273144 -0.230120 0.004650
v -0.273144 -0.165546 0.026371
v -0.162877 -0.275812 0.026371
v -0.227451 -0.275812 0.004650
v -0.116201 0.280656 -0.060115
v 0.237633 0.280656 -0.036794
v 0.254122 0.264166 -0.060115
v -0.273144 0.234964 -0.035821
v -0.273144 0.078653 -0.060115
v -0.200827 0.280656 -0.060115
v -0.227451 0.280656 -0.049295
v 0.283325 -0.230120 0.026371
v 0.283325 0.234964 0.000852
v 0.265280 0.253009 0.026371
v -0.073237 -0.064897 -0.138907
v 0.084586 0.069741 -0.138906
v 0.072993 0.081334 -0.138906
v -0.061644 -0.076489 -0.056311
v 0.072993 0.081333 -0.056311
v -0.073237 -0.064897 -0.056311
v 0.084586 0.069741 -0.056311
v -0.061644 -0.076489 -0.138907
v 0.072993 -0.076489 -0.138907
v 0.072993 -0.064897 -0.148877
v -0.061644 -0.064897 -0.148877
v 0.072993 0.069741 -0.148877
v -0.073237 0.069741 -0.138906
v 0.084586 -0.064897 -0.138907
v -0.061644 0.081334 -0.138906
v -0.061644 0.069741 -0.148877
v -0.061644 0.081333 -0.056311
v -0.073237 0.069741 -0.056311
v 0.084586 -0.064897 -0.056311
v 0.072993 -0.076489 -0.056311
v 0.391678 -0.319094 0.225222
v 0.191302 0.002422 0.444622
v 0.386378 -0.311236 0.392387
v 0.350758 0.002422 0.465266
v 0.493844 0.002422 0.312696
v 0.452898 0.002422 0.416832
v 0.507922 0.002422 0.225222
v 0.241969 0.002422 0.460502
v 0.249755 -0.229671 0.452542
v 0.443976 -0.197148 0.379258
v 0.472929 -0.175142 0.313562
v 0.490422 -0.176056 0.225222
v 0.351884 -0.194473 0.448404
v 0.319352 -0.277296 0.442797
v 0.418363 -0.331186 0.225222
v 0.408513 -0.325019 0.317157
v -0.374809 -0.315246 0.300336
v -0.181120 0.002422 0.444622
v -0.376196 -0.311236 0.392387
v -0.340577 0.002422 0.465266
v -0.483662 0.002422 0.312696
v -0.442716 0.002422 0.416832
v -0.497741 0.002422 0.225222
v -0.231787 0.002422 0.460502
v -0.239573 -0.229671 0.452542
v -0.433794 -0.197148 0.379258
v -0.462747 -0.175142 0.313562
v -0.480241 -0.176056 0.225222
v -0.341703 -0.194473 0.448404
v -0.309171 -0.277296 0.442797
v -0.408182 -0.331186 0.225222
v -0.398332 -0.325019 0.317157
v 0.384990 0.320089 0.300336
v 0.361017 0.302791 0.372157
v 0.307934 0.276510 0.412374
v 0.391678 0.323938 0.225222
v 0.242105 0.226743 0.425368
v 0.182908 0.188849 0.424211
v 0.386378 0.316080 0.392388
v 0.249755 0.234514 0.452542
v 0.443976 0.201991 0.379258
v 0.472929 0.179986 0.313563
v 0.490422 0.180900 0.225222
v 0.351884 0.199317 0.448404
v 0.319352 0.282139 0.442797
v 0.418363 0.336030 0.225222
v 0.408513 0.329863 0.317158
v -0.374809 0.320089 0.300336
v -0.350835 0.302791 0.372157
v -0.297752 0.276510 0.412374
v -0.381496 0.323938 0.225222
v -0.231924 0.226743 0.425368
v -0.172726 0.188849 0.424211
v -0.376196 0.316080 0.392388
v -0.239573 0.234514 0.452542
v -0.433794 0.201991 0.379258
v -0.462747 0.179986 0.313563
v -0.480241 0.180900 0.225222
v -0.341703 0.199317 0.448404
v -0.309171 0.282139 0.442797
v -0.408182 0.336030 0.225222
v -0.398332 0.329863 0.317158
v 0.191302 0.002422 0.005822
v 0.386378 -0.311236 0.058056
v 0.350758 0.002422 -0.014822
v 0.493844 0.002422 0.137747
v 0.452898 0.002422 0.033611
v 0.241969 0.002422 -0.010059
v 0.249755 -0.229670 -0.002098
v 0.443976 -0.197147 0.071186
v 0.472929 -0.175142 0.136881
v 0.351884 -0.194473 0.002040
v 0.319352 -0.277295 0.007646
v 0.408513 -0.325019 0.133286
v -0.350835 -0.297947 0.078286
v -0.297752 -0.271666 0.038069
v -0.231924 -0.221899 0.025075
v -0.181120 0.002422 0.005822
v -0.172726 -0.184005 0.026233
v -0.376196 -0.311236 0.058056
v -0.340577 0.002422 -0.014822
v -0.483662 0.002422 0.137747
v -0.442716 0.002422 0.033611
v -0.231787 0.002422 -0.010059
v -0.239573 -0.229670 -0.002098
v -0.433794 -0.197147 0.071186
v -0.462747 -0.175142 0.136881
v -0.341703 -0.194473 0.002040
v -0.309171 -0.277295 0.007646
v -0.398332 -0.325019 0.133286
v 0.384990 0.320090 0.150108
v 0.361017 0.302791 0.078287
v 0.307934 0.276510 0.038070
v 0.242105 0.226743 0.025076
v 0.182908 0.188850 0.026233
v 0.386378 0.316080 0.058056
v 0.249755 0.234514 -0.002098
v 0.443976 0.201992 0.071186
v 0.472929 0.179986 0.136881
v 0.351884 0.199317 0.002040
v 0.319352 0.282140 0.007647
v 0.408513 0.329863 0.133286
v -0.374809 0.320090 0.150108
v -0.350835 0.302791 0.078287
v -0.297752 0.276510 0.038070
v -0.231924 0.226743 0.025076
v -0.172726 0.188850 0.026233
v -0.376196 0.316080 0.058056
v -0.239573 0.234514 -0.002098
v -0.433794 0.201992 0.071186
v -0.462747 0.179986 0.136881
v -0.341703 0.199317 0.002040
v -0.309171 0.282140 0.007647
v -0.398332 0.329863 0.133286
v 0.422619 0.151126 0.555613
v 0.323549 0.152369 0.481531
v 0.252791 0.065776 0.428620
v 0.251796 -0.057930 0.427876
v 0.321145 -0.146282 0.479733
v 0.491968 0.062774 0.607470
v 0.403514 0.095131 0.541327
v 0.341749 0.095906 0.495140
v 0.297636 0.041919 0.462153
v 0.297015 -0.035204 0.461689
v 0.340250 -0.090287 0.494020
v 0.402015 -0.091063 0.540206
v 0.446129 -0.037076 0.573193
v 0.446749 0.040048 0.573657
v 0.280149 0.152369 0.539571
v 0.209391 0.065775 0.486660
v 0.208395 -0.057930 0.485915
v 0.277744 -0.146283 0.537773
v 0.447572 -0.060932 0.664765
v 0.298348 0.095906 0.553180
v 0.360113 0.095131 0.599366
v 0.254235 0.041919 0.520193
v 0.253614 -0.035204 0.519729
v 0.296850 -0.090287 0.552059
v 0.402728 -0.037076 0.631232
v 0.403349 0.040048 0.631697
v 0.212950 -0.036574 0.443460
v 0.193709 -0.036574 0.502495
v 0.312509 0.043854 0.445714
v 0.212950 0.043854 0.443460
v 0.193709 0.043854 0.502495
v 0.312509 -0.036574 0.445714
v 0.318113 -0.036574 0.484542
v 0.281500 -0.036574 0.533505
v 0.242671 -0.036574 0.539108
v 0.318113 0.043854 0.484542
v 0.242671 0.043854 0.539108
v 0.281500 0.043854 0.533505
v 0.378255 0.143727 0.612623
v 0.392759 0.151126 0.595546
v 0.312438 0.151964 0.563716
v 0.462108 0.062774 0.647403
v 0.430386 0.053636 0.651914
v 0.448111 0.006038 0.665169
v 0.360263 -0.147318 0.599478
v 0.385973 -0.136318 0.618703
v 0.358615 -0.091063 0.598246
v 0.420082 -0.136318 0.573088
v 0.421619 -0.123491 0.554865
v 0.490973 -0.060932 0.606726
v 0.405868 -0.131407 0.543087
v 0.397306 -0.147355 0.556051
v 0.252528 0.032993 0.428423
v 0.252060 -0.025147 0.428073
v 0.297091 -0.025712 0.461746
v 0.297559 0.032428 0.462096
v 0.208659 -0.025147 0.486113
v 0.209127 0.032993 0.486463
v 0.254159 0.032427 0.520136
v 0.253690 -0.025713 0.519786
v 0.005091 -0.215753 0.429123
v 0.005091 0.002422 0.497790
v 0.005091 -0.215753 0.481480
v 0.218796 0.002422 0.448046
v 0.187010 0.002422 0.423431
v 0.171263 -0.215753 0.407121
v 0.203050 -0.215753 0.431736
v 0.187010 0.002422 0.519791
v 0.218796 0.002422 0.495176
v 0.203050 -0.215753 0.478866
v 0.171263 -0.215753 0.503481
v 0.005091 -0.143099 0.486911
v 0.208294 -0.143099 0.437168
v 0.176507 -0.143099 0.412553
v 0.176507 -0.143099 0.508913
v 0.208294 -0.143099 0.484298
v -0.208615 0.002422 0.448046
v -0.176828 0.002422 0.423431
v -0.161082 -0.215753 0.407121
v -0.192868 -0.215753 0.431736
v -0.176828 0.002422 0.519791
v -0.208615 0.002422 0.495176
v -0.192868 -0.215753 0.478866
v -0.161082 -0.215753 0.503481
v -0.198112 -0.143099 0.437168
v -0.166326 -0.143099 0.412553
v -0.166326 -0.143099 0.508913
v -0.198112 -0.143099 0.484298
v 0.005091 0.220597 0.429123
v 0.005091 0.220596 0.481480
v 0.171263 0.220597 0.407121
v 0.203050 0.220597 0.431736
v 0.203050 0.220596 0.478867
v 0.171263 0.220596 0.503482
v 0.005091 0.147942 0.486912
v 0.208294 0.147942 0.437168
v 0.176507 0.147943 0.412553
v 0.176507 0.147942 0.508913
v 0.208294 0.147942 0.484298
v -0.161082 0.220597 0.407121
v -0.192868 0.220597 0.431736
v -0.192868 0.220596 0.478867
v -0.161082 0.220596 0.503482
v -0.198112 0.147942 0.437168
v -0.166326 0.147943 0.412553
v -0.166326 0.147942 0.508913
v -0.198112 0.147942 0.484298
v -0.436589 -0.225376 0.330038
v -0.441138 -0.210094 0.336420
v -0.454574 -0.227902 0.331234
v -0.460845 -0.216399 0.333766
v -0.452736 -0.185834 0.331925
v -0.474897 -0.187010 0.322212
v -0.459204 -0.176938 0.321860
v -0.470432 -0.197222 0.329547
v -0.444530 -0.239183 0.193725
v -0.462044 -0.257153 0.214760
v -0.441437 -0.251828 0.207440
v -0.469163 -0.248622 0.206656
v -0.452643 -0.219538 0.188738
v -0.461399 -0.204218 0.196823
v -0.478751 -0.229445 0.202438
v -0.482404 -0.216272 0.205749
v -0.492664 -0.198424 0.281885
v -0.494393 -0.207199 0.246423
v -0.471079 -0.190075 0.238288
v -0.467611 -0.181576 0.274847
v -0.469791 -0.244153 0.291957
v -0.471521 -0.252935 0.256465
v -0.440711 -0.234955 0.287958
v -0.442852 -0.244319 0.253227
v -0.462639 -0.144409 0.322689
v -0.458307 -0.132647 0.336858
v -0.476696 -0.138828 0.325022
v -0.477341 -0.128281 0.333170
v -0.458288 -0.106387 0.344472
v -0.478296 -0.093993 0.337427
v -0.462570 -0.090657 0.338351
v -0.478142 -0.107240 0.339013
v -0.483140 -0.091066 0.197921
v -0.502858 -0.108242 0.211630
v -0.482350 -0.110558 0.203554
v -0.506169 -0.095091 0.209349
v -0.486733 -0.067513 0.204369
v -0.491348 -0.055095 0.221436
v -0.506970 -0.074050 0.215192
v -0.504495 -0.063409 0.224050
v -0.501621 -0.079070 0.301296
v -0.509038 -0.069845 0.266692
v -0.484255 -0.059441 0.264043
v -0.477237 -0.070565 0.299563
v -0.499701 -0.129252 0.287373
v -0.507123 -0.120019 0.252740
v -0.472685 -0.133224 0.284285
v -0.480859 -0.123720 0.247901
v 0.005091 0.462855 0.321514
v 0.005091 0.310267 0.472892
v 0.005091 0.427278 0.413458
v 0.349878 0.401831 0.297053
v 0.384365 0.337480 0.300336
v 0.305721 0.311210 0.418836
v 0.360983 0.328369 0.374866
v 0.332533 0.381230 0.372566
v 0.074177 0.416852 0.408418
v 0.069799 0.302634 0.464363
v 0.074265 0.452362 0.315693
v 0.354529 0.407682 0.225221
v 0.390879 0.342699 0.225221
v 0.005091 0.472358 0.225221
v 0.074300 0.460684 0.225221
v 0.260706 0.424039 0.300336
v 0.258806 0.394050 0.371482
v 0.247998 0.304740 0.430818
v 0.261157 0.433192 0.225221
v 0.384990 0.320090 0.300336
v 0.361017 0.302791 0.372157
v 0.307934 0.276511 0.412374
v 0.005091 0.219943 0.459628
v 0.054532 0.218191 0.451141
v 0.242105 0.226743 0.425368
v 0.111130 0.419382 0.225221
v 0.132909 0.457103 0.225221
v 0.176466 0.457103 0.225221
v 0.198244 0.419382 0.225221
v 0.176466 0.381660 0.225221
v 0.132909 0.381660 0.225221
v 0.111130 0.410634 0.284246
v 0.132909 0.447746 0.290999
v 0.176466 0.447746 0.290999
v 0.198244 0.410634 0.284246
v 0.176466 0.373522 0.277493
v 0.132909 0.373522 0.277493
v 0.108678 0.373933 0.379831
v 0.129184 0.402510 0.405522
v 0.172716 0.403493 0.406605
v 0.195742 0.375899 0.381998
v 0.175236 0.347322 0.356306
v 0.131704 0.346339 0.355223
v 0.101563 0.289034 0.437864
v 0.123917 0.302167 0.472865
v 0.167366 0.304766 0.471242
v 0.188461 0.294233 0.434619
v 0.166107 0.281100 0.399618
v 0.122658 0.278501 0.401241
v 0.187638 0.399759 0.295789
v 0.118073 0.408168 0.299990
v 0.114935 0.375035 0.379784
v 0.184312 0.366720 0.369771
v 0.173087 0.291078 0.416929
v 0.109099 0.292584 0.427628
v 0.188427 0.408638 0.225221
v 0.118824 0.417086 0.225221
v 0.095643 0.209682 0.429548
v 0.182908 0.188850 0.424210
v 0.115909 0.210829 0.471148
v 0.093711 0.201698 0.435335
v 0.114994 0.194374 0.398367
v 0.158474 0.196182 0.397212
v 0.180672 0.205313 0.433024
v 0.159389 0.212636 0.469992
v -0.339696 0.401831 0.297053
v -0.374184 0.337480 0.300336
v -0.295540 0.311210 0.418836
v -0.350802 0.328369 0.374866
v -0.322351 0.381230 0.372566
v -0.063996 0.416852 0.408418
v -0.059618 0.302634 0.464363
v -0.064083 0.452362 0.315693
v -0.344348 0.407682 0.225221
v -0.380697 0.342699 0.225221
v -0.064119 0.460684 0.225221
v -0.250525 0.424039 0.300336
v -0.248625 0.394050 0.371482
v -0.237817 0.304740 0.430818
v -0.250976 0.433192 0.225221
v -0.350835 0.302791 0.372157
v -0.297752 0.276511 0.412374
v -0.044351 0.218191 0.451141
v -0.381496 0.323938 0.225221
v -0.231924 0.226743 0.425368
v -0.100949 0.419382 0.225221
v -0.122727 0.457103 0.225221
v -0.166284 0.457103 0.225221
v -0.188062 0.419382 0.225221
v -0.166284 0.381660 0.225221
v -0.122727 0.381660 0.225221
v -0.100949 0.410634 0.284246
v -0.122727 0.447746 0.290999
v -0.166284 0.447746 0.290999
v -0.188062 0.410634 0.284246
v -0.166284 0.373522 0.277493
v -0.122727 0.373522 0.277493
v -0.098497 0.373933 0.379831
v -0.119003 0.402510 0.405522
v -0.162535 0.403493 0.406605
v -0.185561 0.375899 0.381998
v -0.165055 0.347322 0.356306
v -0.121523 0.346339 0.355223
v -0.091382 0.289034 0.437864
v -0.113736 0.302167 0.472865
v -0.157185 0.304766 0.471242
v -0.178280 0.294233 0.434619
v -0.155926 0.281100 0.399618
v -0.112477 0.278501 0.401241
v -0.177457 0.399759 0.295789
v -0.107891 0.408168 0.299990
v -0.104754 0.375035 0.379784
v -0.174130 0.366720 0.369771
v -0.162905 0.291078 0.416929
v -0.098918 0.292584 0.427628
v -0.178246 0.408638 0.225221
v -0.108642 0.417086 0.225221
v -0.085461 0.209682 0.429548
v -0.172726 0.188850 0.424210
v -0.105727 0.210829 0.471148
v -0.083529 0.201698 0.435335
v -0.104812 0.194374 0.398367
v -0.148293 0.196182 0.397212
v -0.170491 0.205313 0.433024
v -0.149208 0.212636 0.469992
v 0.005091 0.462855 0.128928
v 0.005091 0.310267 -0.022450
v 0.005091 0.427277 0.036985
v 0.349878 0.401830 0.153390
v 0.384365 0.337480 0.150107
v 0.305721 0.311210 0.031607
v 0.360983 0.328368 0.075577
v 0.332533 0.381230 0.077877
v 0.074177 0.416852 0.042025
v 0.069799 0.302634 -0.013920
v 0.074265 0.452361 0.134750
v 0.260706 0.424039 0.150107
v 0.258806 0.394050 0.078961
v 0.247998 0.304740 0.019625
v 0.384990 0.320090 0.150107
v 0.361017 0.302791 0.078286
v 0.307934 0.276510 0.038069
v 0.005091 0.219942 -0.009185
v 0.054532 0.218191 -0.000698
v 0.242105 0.226743 0.025075
v 0.111130 0.410634 0.166197
v 0.132909 0.447746 0.159443
v 0.176466 0.447746 0.159443
v 0.198244 0.410634 0.166197
v 0.176466 0.373522 0.172950
v 0.132909 0.373522 0.172950
v 0.108678 0.373933 0.070612
v 0.129184 0.402510 0.044921
v 0.172716 0.403493 0.043837
v 0.195742 0.375899 0.068445
v 0.175236 0.347322 0.094136
v 0.131704 0.346339 0.095220
v 0.101563 0.289034 0.012579
v 0.123917 0.302166 -0.022422
v 0.167366 0.304766 -0.020799
v 0.188461 0.294233 0.015824
v 0.166107 0.281100 0.050825
v 0.122658 0.278500 0.049202
v 0.187638 0.399759 0.154654
v 0.118073 0.408168 0.150453
v 0.114935 0.375035 0.070659
v 0.184312 0.366720 0.080672
v 0.173087 0.291078 0.033514
v 0.109099 0.292584 0.022815
v 0.095643 0.209682 0.020895
v 0.182908 0.188849 0.026233
v 0.115909 0.210828 -0.020704
v 0.093711 0.201698 0.015108
v 0.114994 0.194374 0.052076
v 0.158474 0.196181 0.053232
v 0.180672 0.205312 0.017419
v 0.159389 0.212636 -0.019549
v -0.339696 0.401830 0.153390
v -0.374184 0.337480 0.150107
v -0.295540 0.311210 0.031607
v -0.350802 0.328368 0.075577
v -0.322351 0.381230 0.077877
v -0.063996 0.416852 0.042025
v -0.059618 0.302634 -0.013920
v -0.064083 0.452361 0.134750
v -0.250525 0.424039 0.150107
v -0.248625 0.394050 0.078961
v -0.237817 0.304740 0.019625
v -0.374809 0.320090 0.150107
v -0.044351 0.218191 -0.000698
v -0.100949 0.410634 0.166197
v -0.122727 0.447746 0.159443
v -0.166284 0.447746 0.159443
v -0.188062 0.410634 0.166197
v -0.166284 0.373522 0.172950
v -0.122727 0.373522 0.172950
v -0.098497 0.373933 0.070612
v -0.119003 0.402510 0.044921
v -0.162535 0.403493 0.043837
v -0.185561 0.375899 0.068445
v -0.165055 0.347322 0.094136
v -0.121523 0.346339 0.095220
v -0.091382 0.289034 0.012579
v -0.113736 0.302166 -0.022422
v -0.157185 0.304766 -0.020799
v -0.178280 0.294233 0.015824
v -0.155926 0.281100 0.050825
v -0.112477 0.278500 0.049202
v -0.177457 0.399759 0.154654
v -0.107891 0.408168 0.150453
v -0.104754 0.375035 0.070659
v -0.174130 0.366720 0.080672
v -0.162905 0.291078 0.033514
v -0.098918 0.292584 0.022815
v -0.085461 0.209682 0.020895
v -0.105727 0.210828 -0.020704
v -0.083529 0.201698 0.015108
v -0.104812 0.194374 0.052076
v -0.148293 0.196181 0.053232
v -0.170491 0.205312 0.017419
v -0.149208 0.212636 -0.019549
v 0.391678 0.323938 0.225221
v -0.374809 0.320090 0.300336
v -0.350835 0.302791 0.078286
v -0.297752 0.276510 0.038069
v -0.231924 0.226743 0.025075
v -0.172726 0.188849 0.026233
vn 0.9448 -0.2520 0.2092
vn 0.9177 -0.2338 0.3211
vn 0.5600 -0.7473 0.3577
vn 0.5935 -0.7721 0.2273
vn 0.3612 -0.1835 0.9142
vn 0.2780 -0.4603 0.8431
vn 0.5937 -0.1183 0.7960
vn -0.0456 -0.9692 0.2420
vn -0.0683 -0.9271 0.3685
vn -0.0504 -0.5483 0.8348
vn -0.0009 -0.2567 0.9665
vn -0.0326 -0.9995 -0.0000
vn 0.6153 -0.7883 -0.0000
vn -0.3208 -0.9471 -0.0000
vn -0.3226 -0.9138 0.2469
vn -0.1773 -0.2681 0.9469
vn -0.0129 0.0260 0.9996
vn -0.1144 -0.0076 0.9934
vn -0.3209 -0.8729 0.3675
vn -0.0000 -0.9724 0.2332
vn 0.4651 -0.8601 0.2094
vn 0.4670 -0.8215 0.3271
vn -0.0000 -0.9332 0.3593
vn -0.0000 -0.4442 0.8959
vn 0.4076 -0.3997 0.8211
vn 0.4094 -0.1189 0.9046
vn -0.0000 -0.1668 0.9860
vn -0.0000 -1.0000 -0.0000
vn 0.4523 -0.8919 -0.0000
vn 0.9617 -0.2741 -0.0000
vn -0.2344 -0.5492 0.8021
vn 0.7122 -0.2984 0.6355
vn 0.6603 -0.0880 0.7458
vn 0.7118 -0.7024 -0.0000
vn 0.7337 -0.6596 0.1628
vn 0.5574 0.1508 0.8164
vn 0.3529 0.1595 0.9220
vn -0.0000 0.1613 0.9869
vn 0.6339 0.0932 0.7678
vn 0.4068 0.1057 0.9074
vn 0.9779 -0.0156 0.2083
vn 0.9517 0.0048 0.3071
vn 0.9992 -0.0394 -0.0000
vn -0.8579 0.4946 -0.1394
vn -0.9996 -0.0300 -0.0006
vn -0.9949 -0.0988 0.0180
vn -0.8654 0.3741 -0.3335
vn 0.8671 -0.4982 -0.0000
vn 0.9989 -0.0467 -0.0000
vn 0.9992 -0.0320 0.0255
vn 0.8589 -0.4937 0.1366
vn -0.9989 -0.0467 -0.0000
vn -0.8671 -0.4982 -0.0000
vn -0.8654 -0.4879 0.1142
vn -0.8672 0.4979 -0.0000
vn 0.8672 0.4979 -0.0000
vn 0.8646 0.4896 -0.1131
vn -0.0075 -0.9677 0.2520
vn -0.0076 -0.9671 0.2541
vn 0.8643 -0.3648 0.3463
vn 0.9932 -0.0593 0.1001
vn 0.9923 0.0477 0.1146
vn 0.8653 -0.0763 0.4953
vn 0.8707 0.4160 -0.2622
vn -0.0171 -0.7832 0.6215
vn -0.0171 -0.7750 0.6317
vn -0.8722 -0.4011 0.2801
vn -0.8679 -0.2039 0.4530
vn -0.9927 -0.0955 0.0739
vn -0.8639 0.0739 -0.4982
vn 0.8681 0.1945 -0.4567
vn 0.0058 -0.3049 0.9524
vn 0.0102 -0.2552 0.9668
vn 0.7520 -0.6075 0.2558
vn 0.9934 0.0837 -0.0787
vn 0.8548 0.0825 0.5123
vn 0.0329 0.0190 0.9993
vn 0.8536 0.0638 -0.5170
vn -0.9920 -0.0937 -0.0847
vn -0.8528 -0.0934 -0.5138
vn -0.8536 -0.0635 0.5171
vn -0.9448 -0.2520 0.2092
vn -0.5935 -0.7721 0.2273
vn -0.5600 -0.7473 0.3577
vn -0.9177 -0.2338 0.3211
vn -0.3612 -0.1835 0.9142
vn -0.5937 -0.1183 0.7960
vn -0.2780 -0.4603 0.8431
vn 0.0456 -0.9692 0.2420
vn 0.0683 -0.9271 0.3685
vn 0.0504 -0.5483 0.8348
vn 0.0009 -0.2567 0.9665
vn 0.0326 -0.9995 -0.0000
vn -0.6153 -0.7883 -0.0000
vn 0.3208 -0.9471 -0.0000
vn 0.3226 -0.9138 0.2469
vn 0.1773 -0.2681 0.9469
vn 0.1144 -0.0076 0.9934
vn 0.0129 0.0260 0.9996
vn 0.3209 -0.8729 0.3675
vn -0.4670 -0.8215 0.3271
vn -0.4651 -0.8601 0.2094
vn -0.4094 -0.1189 0.9046
vn -0.4076 -0.3997 0.8211
vn -0.4523 -0.8919 -0.0000
vn -0.9617 -0.2741 -0.0000
vn 0.2344 -0.5492 0.8021
vn -0.6603 -0.0880 0.7458
vn -0.7122 -0.2984 0.6355
vn -0.7338 -0.6596 0.1628
vn -0.7118 -0.7024 -0.0000
vn -0.3529 0.1595 0.9220
vn -0.5574 0.1508 0.8164
vn -0.4068 0.1057 0.9074
vn -0.6339 0.0932 0.7678
vn -0.9517 0.0048 0.3071
vn -0.9779 -0.0156 0.2083
vn -0.9992 -0.0394 -0.0000
vn 0.8579 0.4946 -0.1393
vn 0.8654 0.3741 -0.3335
vn 0.9949 -0.0988 0.0180
vn 0.9996 -0.0300 -0.0006
vn -0.8589 -0.4937 0.1366
vn -0.9992 -0.0320 0.0255
vn 0.8654 -0.4879 0.1142
vn -0.8646 0.4896 -0.1131
vn 0.0076 -0.9671 0.2541
vn 0.0075 -0.9677 0.2520
vn -0.8643 -0.3648 0.3463
vn -0.8653 -0.0763 0.4953
vn -0.9923 0.0477 0.1146
vn -0.9932 -0.0593 0.1001
vn -0.8707 0.4160 -0.2622
vn 0.0171 -0.7750 0.6317
vn 0.0171 -0.7832 0.6215
vn 0.8722 -0.4011 0.2801
vn 0.9927 -0.0955 0.0739
vn 0.8679 -0.2039 0.4530
vn 0.8639 0.0739 -0.4982
vn -0.8681 0.1945 -0.4567
vn -0.0102 -0.2552 0.9668
vn -0.0058 -0.3049 0.9524
vn -0.7520 -0.6075 0.2558
vn -0.8548 0.0825 0.5123
vn -0.9934 0.0837 -0.0787
vn -0.0329 0.0190 0.9993
vn -0.8536 0.0638 -0.5170
vn 0.8528 -0.0934 -0.5138
vn 0.9920 -0.0937 -0.0847
vn 0.8536 -0.0635 0.5171
vn 0.9448 -0.2520 -0.2092
vn 0.5935 -0.7721 -0.2273
vn 0.5600 -0.7473 -0.3577
vn 0.9177 -0.2338 -0.3211
vn 0.3612 -0.1835 -0.9142
vn 0.5937 -0.1183 -0.7960
vn 0.2780 -0.4603 -0.8431
vn -0.0456 -0.9692 -0.2420
vn -0.0683 -0.9271 -0.3685
vn -0.0504 -0.5483 -0.8348
vn -0.0009 -0.2567 -0.9665
vn -0.3226 -0.9138 -0.2469
vn -0.1773 -0.2681 -0.9469
vn -0.1144 -0.0076 -0.9934
vn -0.0129 0.0260 -0.9996
vn -0.3209 -0.8729 -0.3675
vn -0.0000 -0.9724 -0.2332
vn -0.0000 -0.9332 -0.3593
vn 0.4670 -0.8215 -0.3271
vn 0.4651 -0.8601 -0.2094
vn -0.0000 -0.4442 -0.8959
vn -0.0000 -0.1668 -0.9860
vn 0.4094 -0.1189 -0.9046
vn 0.4076 -0.3997 -0.8211
vn -0.2344 -0.5492 -0.8021
vn 0.6603 -0.0880 -0.7458
vn 0.7122 -0.2984 -0.6355
vn 0.7337 -0.6596 -0.1628
vn 0.3529 0.1595 -0.9220
vn 0.5574 0.1508 -0.8164
vn -0.0000 0.1613 -0.9869
vn 0.4068 0.1057 -0.9074
vn 0.6339 0.0932 -0.7678
vn 0.9517 0.0048 -0.3071
vn 0.9779 -0.0156 -0.2083
vn -0.8579 0.4946 0.1394
vn -0.8654 0.3741 0.3335
vn -0.9949 -0.0988 -0.0180
vn -0.9996 -0.0300 0.0006
vn 0.8589 -0.4937 -0.1366
vn 0.9992 -0.0320 -0.0255
vn -0.8654 -0.4879 -0.1142
vn 0.8646 0.4896 0.1131
vn -0.0076 -0.9671 -0.2541
vn -0.0075 -0.9677 -0.2520
vn 0.8643 -0.3648 -0.3463
vn 0.8653 -0.0763 -0.4953
vn 0.9923 0.0477 -0.1146
vn 0.9932 -0.0593 -0.1001
vn 0.8707 0.4160 0.2622
vn -0.0172 -0.7750 -0.6317
vn -0.0171 -0.7832 -0.6215
vn -0.8722 -0.4011 -0.2801
vn -0.9927 -0.0955 -0.0739
vn -0.8679 -0.2039 -0.4530
vn -0.8639 0.0739 0.4982
vn 0.8681 0.1945 0.4567
vn 0.0102 -0.2552 -0.9668
vn 0.0058 -0.3049 -0.9524
vn 0.7520 -0.6075 -0.2558
vn 0.8548 0.0825 -0.5123
vn 0.9934 0.0837 0.0787
vn 0.0329 0.0190 -0.9993
vn 0.8536 0.0638 0.5170
vn -0.8528 -0.0934 0.5138
vn -0.9920 -0.0937 0.0847
vn -0.8536 -0.0635 -0.5171
vn -0.9448 -0.2520 -0.2092
vn -0.9177 -0.2338 -0.3211
vn -0.5600 -0.7473 -0.3577
vn -0.5935 -0.7721 -0.2273
vn -0.3612 -0.1835 -0.9142
vn -0.2780 -0.4603 -0.8431
vn -0.5937 -0.1183 -0.7960
vn 0.0456 -0.9692 -0.2420
vn 0.0683 -0.9271 -0.3685
vn 0.0504 -0.5483 -0.8348
vn 0.0009 -0.2567 -0.9665
vn 0.3226 -0.9138 -0.2469
vn 0.1773 -0.2681 -0.9469
vn 0.0129 0.0260 -0.9996
vn 0.1144 -0.0076 -0.9934
vn 0.3209 -0.8729 -0.3675
vn -0.4651 -0.8601 -0.2094
vn -0.4670 -0.8215 -0.3271
vn -0.4076 -0.3997 -0.8211
vn -0.4094 -0.1189 -0.9046
vn 0.2344 -0.5492 -0.8021
vn -0.7122 -0.2984 -0.6355
vn -0.6603 -0.0880 -0.7458
vn -0.7338 -0.6596 -0.1628
vn -0.5574 0.1508 -0.8164
vn -0.3529 0.1595 -0.9220
vn -0.6339 0.0932 -0.7678
vn -0.4068 0.1057 -0.9074
vn -0.9779 -0.0156 -0.2083
vn -0.9517 0.0048 -0.3071
vn 0.8579 0.4946 0.1393
vn 0.9996 -0.0300 0.0006
vn 0.9949 -0.0988 -0.0180
vn 0.8654 0.3741 0.3335
vn -0.9992 -0.0320 -0.0255
vn -0.8589 -0.4937 -0.1366
vn 0.8654 -0.4879 -0.1142
vn -0.8646 0.4896 0.1131
vn 0.0075 -0.9677 -0.2520
vn 0.0076 -0.9671 -0.2541
vn -0.8643 -0.3648 -0.3463
vn -0.9932 -0.0593 -0.1001
vn -0.9923 0.0477 -0.1146
vn -0.8653 -0.0763 -0.4953
vn -0.8707 0.4160 0.2622
vn 0.0171 -0.7832 -0.6215
vn 0.0172 -0.7750 -0.6317
vn 0.8722 -0.4011 -0.2801
vn 0.8679 -0.2039 -0.4530
vn 0.9927 -0.0955 -0.0739
vn 0.8639 0.0739 0.4982
vn -0.8681 0.1945 0.4567
vn -0.0058 -0.3049 -0.9524
vn -0.0102 -0.2552 -0.9668
vn -0.7520 -0.6075 -0.2558
vn -0.9934 0.0837 0.0787
vn -0.8548 0.0825 -0.5123
vn -0.0329 0.0190 -0.9993
vn -0.8536 0.0638 0.5170
vn 0.9920 -0.0937 0.0847
vn 0.8528 -0.0934 0.5138
vn 0.8536 -0.0635 -0.5171
vn -0.0000 1.0000 -0.0000
vn -1.0000 -0.0000 -0.0000
vn -0.0000 -0.0000 -1.0000
vn 0.2587 -0.4128 -0.8733
vn 0.7071 -0.7071 -0.0000
vn -0.3038 -0.3038 0.9030
vn -0.7071 -0.7071 -0.0000
vn 0.0369 0.8281 -0.5594
vn -0.3924 0.1375 -0.9095
vn -0.7071 0.7071 -0.0000
vn 0.7071 0.7071 -0.0000
vn 1.0000 -0.0000 -0.0000
vn 0.5462 0.5462 -0.6351
vn -0.5462 0.5462 -0.6351
vn -0.5462 -0.5462 -0.6351
vn 0.5462 -0.5462 -0.6351
vn -0.0000 -0.6521 -0.7582
vn -0.0000 0.6521 -0.7582
vn 0.6521 -0.0000 -0.7582
vn -0.6521 -0.0000 -0.7582
vn -0.0839 -0.0758 0.9936
vn 0.2566 -0.0000 0.9665
vn -0.2143 -0.0000 0.9768
vn -0.3725 -0.0622 0.9259
vn -0.3733 -0.0000 0.9277
vn 0.9374 -0.2389 0.2533
vn 0.9666 -0.2563 -0.0000
vn 0.9623 -0.0000 0.2720
vn 0.8911 -0.3950 0.2236
vn 0.9036 -0.2770 0.3267
vn 0.8744 -0.3855 0.2945
vn 0.9135 -0.4069 -0.0000
vn 0.3387 -0.1419 0.9301
vn 0.9296 -0.0000 0.3684
vn 0.5309 -0.1691 0.8304
vn 0.3527 -0.1724 0.9197
vn 0.5525 -0.2222 0.8034
vn 0.5166 -0.0000 0.8562
vn -0.5560 -0.8296 -0.0513
vn -0.5689 -0.8220 -0.0258
vn -0.5357 -0.8397 -0.0893
vn -0.5169 -0.8560 -0.0008
vn -0.5196 -0.8544 -0.0006
vn -0.4035 -0.9150 -0.0000
vn -0.4353 -0.8997 0.0340
vn -0.4240 -0.9053 0.0272
vn -0.4531 -0.8912 0.0209
vn -0.4530 -0.8913 0.0192
vn 0.0839 -0.0758 0.9936
vn 0.2143 -0.0000 0.9768
vn -0.2566 -0.0000 0.9665
vn 0.3725 -0.0622 0.9259
vn 0.3733 -0.0000 0.9277
vn -0.9374 -0.2389 0.2533
vn -0.9623 -0.0000 0.2720
vn -0.9666 -0.2563 -0.0000
vn -0.8911 -0.3949 0.2236
vn -0.8744 -0.3855 0.2945
vn -0.9036 -0.2770 0.3267
vn -0.9135 -0.4069 -0.0000
vn -0.3387 -0.1419 0.9301
vn -0.9296 -0.0000 0.3684
vn -0.5309 -0.1691 0.8304
vn -0.5525 -0.2222 0.8034
vn -0.3527 -0.1724 0.9197
vn -0.5166 -0.0000 0.8562
vn 0.5560 -0.8296 -0.0513
vn 0.5357 -0.8397 -0.0894
vn 0.5689 -0.8220 -0.0258
vn 0.5169 -0.8560 -0.0008
vn 0.5196 -0.8544 -0.0006
vn 0.4035 -0.9150 -0.0000
vn 0.4240 -0.9053 0.0272
vn 0.4352 -0.8997 0.0340
vn 0.4530 -0.8913 0.0192
vn 0.4531 -0.8912 0.0209
vn -0.0839 0.0758 0.9936
vn -0.3725 0.0622 0.9259
vn 0.9374 0.2389 0.2533
vn 0.9666 0.2563 -0.0000
vn 0.8911 0.3949 0.2236
vn 0.8744 0.3855 0.2945
vn 0.9036 0.2770 0.3267
vn 0.9135 0.4069 -0.0000
vn 0.3387 0.1419 0.9301
vn 0.5309 0.1691 0.8304
vn 0.5525 0.2222 0.8034
vn 0.3527 0.1724 0.9197
vn -0.5560 0.8296 -0.0512
vn -0.5357 0.8396 -0.0893
vn -0.5689 0.8220 -0.0258
vn -0.5169 0.8560 -0.0008
vn -0.5196 0.8544 -0.0006
vn -0.4035 0.9150 -0.0000
vn -0.4240 0.9053 0.0272
vn -0.4353 0.8997 0.0340
vn -0.4530 0.8913 0.0192
vn -0.4531 0.8912 0.0209
vn 0.0839 0.0758 0.9936
vn 0.3725 0.0622 0.9259
vn -0.9374 0.2389 0.2533
vn -0.9666 0.2563 -0.0000
vn -0.8911 0.3949 0.2236
vn -0.9036 0.2770 0.3267
vn -0.8744 0.3855 0.2945
vn -0.9135 0.4069 -0.0000
vn -0.3387 0.1419 0.9301
vn -0.5309 0.1691 0.8304
vn -0.3527 0.1724 0.9197
vn -0.5525 0.2222 0.8034
vn 0.5560 0.8296 -0.0513
vn 0.5689 0.8220 -0.0258
vn 0.5357 0.8396 -0.0893
vn 0.5169 0.8560 -0.0008
vn 0.5196 0.8544 -0.0006
vn 0.4035 0.9150 -0.0000
vn 0.4353 0.8997 0.0340
vn 0.4240 0.9053 0.0272
vn 0.4531 0.8912 0.0209
vn 0.4530 0.8913 0.0192
vn -0.0839 -0.0758 -0.9936
vn -0.2143 -0.0000 -0.9768
vn 0.2566 -0.0000 -0.9665
vn -0.3725 -0.0622 -0.9259
vn -0.3733 -0.0000 -0.9277
vn 0.9374 -0.2389 -0.2533
vn 0.9623 -0.0000 -0.2720
vn 0.8911 -0.3949 -0.2236
vn 0.8744 -0.3855 -0.2945
vn 0.9036 -0.2770 -0.3267
vn 0.3387 -0.1419 -0.9301
vn 0.9296 -0.0000 -0.3684
vn 0.5309 -0.1691 -0.8304
vn 0.5525 -0.2222 -0.8034
vn 0.3527 -0.1724 -0.9197
vn 0.5166 -0.0000 -0.8562
vn -0.5560 -0.8296 0.0512
vn -0.5357 -0.8396 0.0893
vn -0.5689 -0.8220 0.0258
vn -0.5169 -0.8560 0.0008
vn -0.5196 -0.8544 0.0006
vn -0.4240 -0.9053 -0.0272
vn -0.4353 -0.8997 -0.0340
vn -0.4530 -0.8913 -0.0192
vn -0.4531 -0.8912 -0.0209
vn 0.0839 -0.0758 -0.9936
vn -0.2566 -0.0000 -0.9665
vn 0.2143 -0.0000 -0.9768
vn 0.3725 -0.0622 -0.9259
vn 0.3733 -0.0000 -0.9277
vn -0.9374 -0.2389 -0.2533
vn -0.9623 -0.0000 -0.2720
vn -0.8911 -0.3949 -0.2236
vn -0.9036 -0.2770 -0.3267
vn -0.8744 -0.3855 -0.2945
vn -0.3387 -0.1419 -0.9301
vn -0.9296 -0.0000 -0.3684
vn -0.5309 -0.1691 -0.8304
vn -0.3527 -0.1724 -0.9197
vn -0.5525 -0.2222 -0.8034
vn -0.5166 -0.0000 -0.8562
vn 0.5560 -0.8296 0.0513
vn 0.5689 -0.8220 0.0258
vn 0.5357 -0.8397 0.0893
vn 0.5169 -0.8560 0.0008
vn 0.5196 -0.8544 0.0006
vn 0.4352 -0.8997 -0.0340
vn 0.4240 -0.9053 -0.0272
vn 0.4531 -0.8912 -0.0209
vn 0.4530 -0.8913 -0.0192
vn -0.0839 0.0758 -0.9936
vn -0.3725 0.0622 -0.9259
vn 0.9374 0.2389 -0.2533
vn 0.8911 0.3950 -0.2236
vn 0.9036 0.2770 -0.3267
vn 0.8744 0.3855 -0.2945
vn 0.3387 0.1419 -0.9301
vn 0.5309 0.1691 -0.8304
vn 0.3527 0.1724 -0.9197
vn 0.5525 0.2222 -0.8034
vn -0.5560 0.8296 0.0512
vn -0.5689 0.8220 0.0258
vn -0.5357 0.8397 0.0893
vn -0.5169 0.8560 0.0008
vn -0.5196 0.8544 0.0006
vn -0.4353 0.8997 -0.0340
vn -0.4240 0.9053 -0.0272
vn -0.4531 0.8912 -0.0209
vn -0.4530 0.8913 -0.0192
vn 0.0839 0.0758 -0.9936
vn 0.3725 0.0622 -0.9259
vn -0.9374 0.2389 -0.2533
vn -0.8911 0.3949 -0.2236
vn -0.8744 0.3855 -0.2945
vn -0.9036 0.2770 -0.3267
vn -0.3387 0.1419 -0.9301
vn -0.5309 0.1691 -0.8304
vn -0.5525 0.2222 -0.8034
vn -0.3527 0.1724 -0.9197
vn 0.5560 0.8296 0.0513
vn 0.5357 0.8397 0.0893
vn 0.5689 0.8220 0.0258
vn 0.5169 0.8560 0.0008
vn 0.5196 0.8544 0.0006
vn 0.4240 0.9053 -0.0272
vn 0.4352 0.8997 -0.0340
vn 0.4530 0.8913 -0.0192
vn 0.4531 0.8912 -0.0209
vn 0.5989 -0.0000 -0.8009
vn -0.5989 -0.0000 0.8009
vn 0.8008 -0.0101 0.5988
vn 0.5720 0.7000 0.4277
vn 0.8008 -0.0100 0.5988
vn -0.5983 0.0007 0.8012
vn 0.0081 0.9999 0.0060
vn -0.5606 0.7142 -0.4192
vn -0.5984 0.0013 0.8012
vn -0.5983 0.0014 0.8012
vn -0.8008 0.0100 -0.5988
vn -0.5978 0.0020 0.8016
vn -0.5978 0.0021 0.8016
vn -0.5978 0.0014 0.8016
vn -0.5720 -0.7000 -0.4277
vn -0.0080 -0.9999 -0.0060
vn 0.5606 -0.7142 0.4192
vn -0.5719 -0.7000 -0.4277
vn 0.8009 -0.0000 0.5989
vn 0.9897 -0.0000 -0.1428
vn 0.1428 -0.0000 0.9897
vn 0.0482 0.7836 0.6194
vn 0.0465 0.7859 0.6166
vn -0.1138 0.9432 0.3120
vn 0.1292 0.4353 0.8910
vn 0.1262 0.4297 0.8941
vn 0.0536 0.2863 0.9566
vn 0.0080 0.9999 0.0060
vn 0.1308 -0.9858 0.1049
vn 0.1261 -0.9868 0.1012
vn 0.6960 -0.6147 -0.3710
vn 0.6920 -0.6179 -0.3734
vn 0.7566 -0.5631 -0.3325
vn 0.5756 -0.6775 -0.4579
vn 0.5686 -0.6792 -0.4641
vn 0.5068 -0.6910 -0.5154
vn 0.2671 -0.9396 0.2138
vn -0.8008 0.0101 -0.5988
vn -0.0000 -0.0700 0.9975
vn -0.1260 -0.0694 0.9896
vn -0.1236 -0.0000 0.9923
vn -0.0000 -0.0000 1.0000
vn 0.8971 -0.0318 -0.4406
vn 0.8848 -0.0291 -0.4650
vn 0.6122 0.0149 -0.7906
vn 0.6090 -0.1028 0.7865
vn 0.9974 -0.0720 -0.0000
vn 0.9095 -0.0000 -0.4157
vn 0.6123 -0.0000 0.7907
vn 0.6123 -0.0000 -0.7907
vn -0.0000 -0.0699 0.9976
vn -0.1289 -0.0693 0.9892
vn 0.1236 -0.0000 0.9923
vn 0.1260 -0.0694 0.9896
vn -0.8971 -0.0318 -0.4406
vn -0.6122 0.0149 -0.7906
vn -0.8848 -0.0291 -0.4650
vn -0.6090 -0.1028 0.7865
vn -0.9974 -0.0720 -0.0000
vn -0.9095 -0.0000 -0.4157
vn -0.6123 -0.0000 0.7907
vn -0.6123 -0.0000 -0.7907
vn 0.1289 -0.0693 0.9892
vn -0.0000 0.0700 0.9975
vn -0.1260 0.0694 0.9896
vn 0.8971 0.0318 -0.4406
vn 0.6122 -0.0149 -0.7906
vn 0.8848 0.0291 -0.4650
vn 0.6090 0.1027 0.7865
vn 0.9974 0.0720 -0.0000
vn -0.0000 0.0699 0.9976
vn -0.1289 0.0693 0.9892
vn 0.1260 0.0694 0.9896
vn -0.8971 0.0318 -0.4406
vn -0.8848 0.0291 -0.4650
vn -0.6122 -0.0149 -0.7906
vn -0.6090 0.1027 0.7865
vn -0.9974 0.0720 -0.0000
vn 0.1289 0.0693 0.9892
vn -0.6405 0.0395 0.7669
vn -0.7392 0.4927 0.4591
vn -0.9533 0.2692 0.1371
vn -0.0727 -0.1071 0.9916
vn -0.4921 -0.2621 0.8301
vn -0.1711 -0.7076 0.6856
vn 0.1730 -0.7243 0.6674
vn -0.2837 0.3123 0.9066
vn -0.5017 0.7265 0.4696
vn -0.2241 -0.5270 -0.8198
vn 0.0950 -0.9210 -0.3779
vn -0.1900 -0.9590 -0.2104
vn -0.5673 -0.6289 -0.5316
vn -0.4093 -0.1353 -0.9023
vn -0.7411 -0.2746 -0.6127
vn -0.8039 0.2503 -0.5395
vn -0.5758 0.4054 -0.7101
vn -0.4187 -0.8436 0.3362
vn -0.4149 -0.8984 0.1438
vn 0.2858 -0.9306 0.2288
vn 0.3068 -0.9322 0.1920
vn -0.9714 0.1976 -0.1320
vn -0.6065 0.7498 -0.2645
vn -0.5768 0.8140 -0.0688
vn -0.5841 -0.0624 0.8093
vn -0.4897 0.4363 0.7549
vn -0.7675 0.4586 0.4480
vn -0.2434 -0.4771 0.8444
vn -0.5871 -0.3856 0.7118
vn -0.4982 -0.7824 0.3736
vn -0.2655 -0.9101 0.3181
vn -0.2292 -0.0405 0.9725
vn -0.2307 0.5296 0.8163
vn -0.4501 -0.0270 -0.8926
vn -0.3388 -0.6422 -0.6876
vn -0.6129 -0.5944 -0.5207
vn -0.8040 -0.0823 -0.5889
vn -0.5140 0.3863 -0.7659
vn -0.8352 0.2753 -0.4761
vn -0.7212 0.6620 -0.2041
vn -0.5108 0.8181 -0.2643
vn -0.7395 -0.6669 0.0919
vn -0.7704 -0.6284 -0.1074
vn -0.2107 -0.9602 -0.1831
vn -0.1847 -0.9508 -0.2488
vn -0.8372 0.5136 0.1881
vn -0.3724 0.9002 0.2257
vn -0.2746 0.8646 0.4208
vn 0.9448 0.2520 0.2092
vn 0.5935 0.7721 0.2273
vn 0.5600 0.7473 0.3577
vn 0.9177 0.2338 0.3211
vn 0.3612 0.1835 0.9142
vn 0.5937 0.1183 0.7960
vn 0.2780 0.4603 0.8431
vn -0.0456 0.9692 0.2420
vn -0.0683 0.9271 0.3685
vn -0.0504 0.5483 0.8348
vn -0.0009 0.2567 0.9665
vn -0.0326 0.9995 -0.0000
vn 0.6153 0.7883 -0.0000
vn -0.3208 0.9471 -0.0000
vn -0.3226 0.9138 0.2469
vn -0.1773 0.2681 0.9469
vn -0.1144 0.0076 0.9934
vn -0.0129 -0.0260 0.9996
vn -0.3209 0.8729 0.3675
vn -0.0000 0.9724 0.2332
vn -0.0000 0.9332 0.3593
vn 0.4670 0.8215 0.3271
vn 0.4651 0.8601 0.2094
vn -0.0000 0.4442 0.8959
vn -0.0000 0.1668 0.9860
vn 0.4094 0.1189 0.9046
vn 0.4076 0.3997 0.8211
vn 0.4523 0.8919 -0.0000
vn 0.9617 0.2741 -0.0000
vn -0.2344 0.5492 0.8021
vn 0.6603 0.0880 0.7458
vn 0.7122 0.2984 0.6355
vn 0.7338 0.6596 0.1628
vn 0.7118 0.7024 -0.0000
vn 0.3529 -0.1595 0.9220
vn 0.5574 -0.1508 0.8164
vn -0.0000 -0.1613 0.9869
vn 0.4068 -0.1057 0.9074
vn 0.6339 -0.0932 0.7678
vn 0.9517 -0.0048 0.3071
vn 0.9779 0.0156 0.2083
vn 0.9992 0.0394 -0.0000
vn -0.8579 -0.4946 -0.1394
vn -0.8654 -0.3741 -0.3335
vn -0.9949 0.0988 0.0180
vn -0.9996 0.0300 -0.0006
vn 0.8671 0.4982 -0.0000
vn 0.8589 0.4937 0.1366
vn 0.9992 0.0320 0.0255
vn 0.9989 0.0467 -0.0000
vn -0.9989 0.0467 -0.0000
vn -0.8654 0.4879 0.1142
vn -0.8671 0.4982 -0.0000
vn -0.8672 -0.4979 -0.0000
vn 0.8646 -0.4896 -0.1131
vn 0.8672 -0.4979 -0.0000
vn -0.0076 0.9671 0.2541
vn -0.0075 0.9677 0.2520
vn 0.8643 0.3648 0.3463
vn 0.8653 0.0763 0.4953
vn 0.9923 -0.0477 0.1146
vn 0.9932 0.0593 0.1001
vn 0.8707 -0.4160 -0.2622
vn -0.0171 0.7750 0.6317
vn -0.0171 0.7832 0.6215
vn -0.8722 0.4011 0.2801
vn -0.9927 0.0955 0.0739
vn -0.8679 0.2039 0.4530
vn -0.8639 -0.0739 -0.4982
vn 0.8681 -0.1945 -0.4567
vn 0.0102 0.2552 0.9668
vn 0.0058 0.3049 0.9524
vn 0.7520 0.6075 0.2558
vn 0.8548 -0.0825 0.5123
vn 0.9934 -0.0837 -0.0787
vn 0.0329 -0.0190 0.9993
vn 0.8536 -0.0638 -0.5170
vn -0.8528 0.0934 -0.5138
vn -0.9920 0.0937 -0.0847
vn -0.8536 0.0635 0.5171
vn -0.9448 0.2520 0.2092
vn -0.9177 0.2338 0.3211
vn -0.5600 0.7473 0.3577
vn -0.5935 0.7721 0.2273
vn -0.3612 0.1835 0.9142
vn -0.2780 0.4603 0.8431
vn -0.5937 0.1183 0.7960
vn 0.0456 0.9692 0.2420
vn 0.0683 0.9271 0.3685
vn 0.0504 0.5483 0.8348
vn 0.0009 0.2567 0.9665
vn 0.0326 0.9995 -0.0000
vn -0.6153 0.7883 -0.0000
vn 0.3208 0.9471 -0.0000
vn 0.3226 0.9138 0.2469
vn 0.1773 0.2681 0.9469
vn 0.0129 -0.0260 0.9996
vn 0.1144 0.0076 0.9934
vn 0.3209 0.8729 0.3675
vn -0.4651 0.8601 0.2094
vn -0.4670 0.8215 0.3271
vn -0.4076 0.3997 0.8211
vn -0.4094 0.1189 0.9046
vn -0.4523 0.8919 -0.0000
vn -0.9617 0.2741 -0.0000
vn 0.2344 0.5492 0.8021
vn -0.7122 0.2984 0.6355
vn -0.6603 0.0880 0.7458
vn -0.7118 0.7024 -0.0000
vn -0.7338 0.6596 0.1628
vn -0.5574 -0.1508 0.8164
vn -0.3529 -0.1595 0.9220
vn -0.6339 -0.0932 0.7678
vn -0.4068 -0.1057 0.9074
vn -0.9779 0.0156 0.2083
vn -0.9517 -0.0048 0.3071
vn -0.9992 0.0394 -0.0000
vn 0.8579 -0.4946 -0.1393
vn 0.9996 0.0300 -0.0006
vn 0.9949 0.0988 0.0180
vn 0.8654 -0.3741 -0.3335
vn -0.9992 0.0320 0.0255
vn -0.8589 0.4937 0.1366
vn 0.8654 0.4879 0.1142
vn -0.8646 -0.4896 -0.1131
vn 0.0075 0.9677 0.2520
vn 0.0076 0.9671 0.2541
vn -0.8643 0.3648 0.3463
vn -0.9932 0.0593 0.1001
vn -0.9923 -0.0477 0.1146
vn -0.8653 0.0763 0.4953
vn -0.8707 -0.4160 -0.2622
vn 0.0171 0.7832 0.6215
vn 0.0171 0.7750 0.6317
vn 0.8722 0.4011 0.2801
vn 0.8679 0.2039 0.4530
vn 0.9927 0.0955 0.0739
vn 0.8639 -0.0739 -0.4982
vn -0.8681 -0.1945 -0.4567
vn -0.0058 0.3049 0.9524
vn -0.0102 0.2552 0.9668
vn -0.7520 0.6075 0.2558
vn -0.9934 -0.0837 -0.0787
vn -0.8548 -0.0825 0.5123
vn -0.0329 -0.0190 0.9993
vn -0.8536 -0.0638 -0.5170
vn 0.9920 0.0937 -0.0847
vn 0.8528 0.0934 -0.5138
vn 0.8536 0.0635 0.5171
vn 0.9448 0.2520 -0.2092
vn 0.9177 0.2338 -0.3211
vn 0.5600 0.7473 -0.3577
vn 0.5935 0.7721 -0.2273
vn 0.3612 0.1835 -0.9142
vn 0.2780 0.4603 -0.8431
vn 0.5937 0.1183 -0.7960
vn -0.0456 0.9692 -0.2420
vn -0.0683 0.9271 -0.3685
vn -0.0504 0.5483 -0.8348
vn -0.0009 0.2567 -0.9665
vn -0.3226 0.9138 -0.2469
vn -0.1773 0.2681 -0.9469
vn -0.0129 -0.0260 -0.9996
vn -0.1144 0.0076 -0.9934
vn -0.3209 0.8729 -0.3675
vn -0.0000 0.9724 -0.2332
vn 0.4651 0.8601 -0.2094
vn 0.4670 0.8215 -0.3271
vn -0.0000 0.9332 -0.3593
vn -0.0000 0.4442 -0.8959
vn 0.4076 0.3997 -0.8211
vn 0.4094 0.1189 -0.9046
vn -0.0000 0.1668 -0.9860
vn -0.2344 0.5492 -0.8021
vn 0.7122 0.2984 -0.6355
vn 0.6603 0.0880 -0.7458
vn 0.7337 0.6596 -0.1628
vn 0.5574 -0.1508 -0.8164
vn 0.3529 -0.1595 -0.9220
vn -0.0000 -0.1613 -0.9869
vn 0.6339 -0.0932 -0.7678
vn 0.4068 -0.1057 -0.9074
vn 0.9779 0.0156 -0.2083
vn 0.9517 -0.0048 -0.3071
vn -0.8579 -0.4946 0.1394
vn -0.9996 0.0300 0.0006
vn -0.9949 0.0988 -0.0180
vn -0.8654 -0.3741 0.3335
vn 0.9992 0.0320 -0.0255
vn 0.8589 0.4937 -0.1366
vn -0.8654 0.4879 -0.1142
vn 0.8646 -0.4896 0.1131
vn -0.0075 0.9677 -0.2520
vn -0.0076 0.9671 -0.2541
vn 0.8643 0.3648 -0.3463
vn 0.9932 0.0593 -0.1001
vn 0.9923 -0.0477 -0.1146
vn 0.8653 0.0763 -0.4953
vn 0.8707 -0.4160 0.2622
vn -0.0171 0.7832 -0.6215
vn -0.0172 0.7750 -0.6317
vn -0.8722 0.4011 -0.2801
vn -0.8679 0.2039 -0.4530
vn -0.9927 0.0955 -0.0739
vn -0.8639 -0.0739 0.4982
vn 0.8681 -0.1945 0.4567
vn 0.0058 0.3049 -0.9524
vn 0.0102 0.2552 -0.9668
vn 0.7520 0.6075 -0.2558
vn 0.9934 -0.0837 0.0787
vn 0.8548 -0.0825 -0.5123
vn 0.0329 -0.0190 -0.9993
vn 0.8536 -0.0638 0.5170
vn -0.9920 0.0937 0.0847
vn -0.8528 0.0934 0.5138
vn -0.8536 0.0635 -0.5171
vn -0.9448 0.2520 -0.2092
vn -0.5935 0.7721 -0.2273
vn -0.5600 0.7473 -0.3577
vn -0.9177 0.2338 -0.3211
vn -0.3612 0.1835 -0.9142
vn -0.5937 0.1183 -0.7960
vn -0.2780 0.4603 -0.8431
vn 0.0456 0.9692 -0.2420
vn 0.0683 0.9271 -0.3685
vn 0.0504 0.5483 -0.8348
vn 0.0009 0.2567 -0.9665
vn 0.3226 0.9138 -0.2469
vn 0.1773 0.2681 -0.9469
vn 0.1144 0.0076 -0.9934
vn 0.0129 -0.0260 -0.9996
vn 0.3209 0.8729 -0.3675
vn -0.4670 0.8215 -0.3271
vn -0.4651 0.8601 -0.2094
vn -0.4094 0.1189 -0.9046
vn -0.4076 0.3997 -0.8211
vn 0.2344 0.5492 -0.8021
vn -0.6603 0.0880 -0.7458
vn -0.7122 0.2984 -0.6355
vn -0.7338 0.6596 -0.1628
vn -0.3529 -0.1595 -0.9220
vn -0.5574 -0.1508 -0.8164
vn -0.4068 -0.1057 -0.9074
vn -0.6339 -0.0932 -0.7678
vn -0.9517 -0.0048 -0.3071
vn -0.9779 0.0156 -0.2083
vn 0.8579 -0.4946 0.1393
vn 0.8654 -0.3741 0.3335
vn 0.9949 0.0988 -0.0180
vn 0.9996 0.0300 0.0006
vn -0.8589 0.4937 -0.1366
vn -0.9992 0.0320 -0.0255
vn 0.8654 0.4879 -0.1142
vn -0.8646 -0.4896 0.1131
vn 0.0076 0.9671 -0.2541
vn 0.0075 0.9677 -0.2520
vn -0.8643 0.3648 -0.3463
vn -0.8653 0.0763 -0.4953
vn -0.9923 -0.0477 -0.1146
vn -0.9932 0.0593 -0.1001
vn -0.8707 -0.4160 0.2622
vn 0.0172 0.7750 -0.6317
vn 0.0171 0.7832 -0.6215
vn 0.8722 0.4011 -0.2801
vn 0.9927 0.0955 -0.0739
vn 0.8679 0.2039 -0.4530
vn 0.8639 -0.0739 0.4982
vn -0.8681 -0.1945 0.4567
vn -0.0102 0.2552 -0.9668
vn -0.0058 0.3049 -0.9524
vn -0.7520 0.6075 -0.2558
vn -0.8548 -0.0825 -0.5123
vn -0.9934 -0.0837 0.0787
vn -0.0329 -0.0190 -0.9993
vn -0.8536 -0.0638 0.5170
vn 0.8528 0.0934 0.5138
vn 0.9920 0.0937 0.0847
vn 0.8536 0.0635 -0.5171
vt 0.916042 0.781956
vt 0.906692 0.808758
vt 0.888202 0.801644
vt 0.890969 0.775857
vt 0.893649 0.830387
vt 0.859113 0.777457
vt 0.861460 0.807180
vt 0.878250 0.844514
vt 0.859692 0.750259
vt 0.892635 0.752046
vt 0.829167 0.748604
vt 0.829192 0.778933
vt 0.855737 0.862934
vt 0.892168 0.870343
vt 0.880114 0.895158
vt 0.829161 0.812355
vt 0.918732 0.411644
vt 0.893793 0.413275
vt 0.892047 0.375641
vt 0.918732 0.376681
vt 0.896588 0.328938
vt 0.918732 0.331277
vt 0.918732 0.445676
vt 0.893696 0.445676
vt 0.919261 0.753490
vt 0.839751 0.830787
vt 0.868742 0.363337
vt 0.876998 0.326969
vt 0.870701 0.445676
vt 0.869772 0.416382
vt 0.880894 0.295073
vt 0.898751 0.297762
vt 0.918732 0.297567
vt 0.915022 0.813819
vt 0.903396 0.839502
vt 0.922548 0.784087
vt 0.926801 0.753899
vt 0.085845 0.547722
vt 0.069058 0.547504
vt 0.072423 0.507969
vt 0.088444 0.514836
vt 0.039384 0.569358
vt 0.024300 0.569358
vt 0.023464 0.547752
vt 0.038646 0.547834
vt 0.068297 0.569358
vt 0.053277 0.569358
vt 0.053671 0.547664
vt 0.085180 0.569358
vt 0.007326 0.569358
vt 0.006802 0.547647
vt 0.038318 0.501643
vt 0.022538 0.496224
vt 0.028307 0.461083
vt 0.042524 0.461272
vt 0.005253 0.514196
vt 0.021600 0.507626
vt 0.055907 0.501843
vt 0.072953 0.497100
vt 0.055672 0.459726
vt 0.069661 0.458928
vt 0.089388 0.492709
vt 0.085767 0.460703
vt 0.007276 0.489043
vt 0.012701 0.458778
vt 0.866738 0.382114
vt 0.025137 0.428377
vt 0.042066 0.429328
vt 0.059808 0.428515
vt 0.008508 0.425728
vt 0.076638 0.427152
vt 0.093513 0.428554
vt 0.143972 0.814477
vt 0.118386 0.817830
vt 0.118423 0.791896
vt 0.137573 0.786822
vt 0.126945 0.763909
vt 0.086889 0.812797
vt 0.092436 0.783501
vt 0.113163 0.748201
vt 0.084526 0.839898
vt 0.117469 0.841682
vt 0.054000 0.838244
vt 0.057304 0.808095
vt 0.092773 0.727456
vt 0.120490 0.698056
vt 0.129791 0.724028
vt 0.060885 0.774865
vt 0.945418 0.375641
vt 0.943672 0.413275
vt 0.940877 0.328938
vt 0.943768 0.445676
vt 0.144095 0.843125
vt 0.073406 0.757687
vt 0.960466 0.326969
vt 0.968723 0.363337
vt 0.967692 0.416382
vt 0.966764 0.445676
vt 0.938714 0.297762
vt 0.956570 0.295073
vt 0.137620 0.755901
vt 0.146402 0.782691
vt 0.150669 0.813063
vt 0.151635 0.843533
vt 0.524937 0.509512
vt 0.527536 0.542398
vt 0.511514 0.549264
vt 0.508150 0.509730
vt 0.478476 0.487875
vt 0.477738 0.509399
vt 0.462556 0.509481
vt 0.463391 0.487875
vt 0.507389 0.487875
vt 0.492763 0.509570
vt 0.492368 0.487875
vt 0.524272 0.487875
vt 0.445893 0.509587
vt 0.446417 0.487875
vt 0.477409 0.555591
vt 0.481616 0.595962
vt 0.467398 0.596151
vt 0.461630 0.561009
vt 0.460692 0.549608
vt 0.444344 0.543038
vt 0.494999 0.555391
vt 0.512045 0.560134
vt 0.508753 0.598305
vt 0.494764 0.597507
vt 0.528480 0.564525
vt 0.524859 0.596531
vt 0.451793 0.598456
vt 0.446368 0.568190
vt 0.970727 0.382114
vt 0.481158 0.627905
vt 0.464229 0.628856
vt 0.498900 0.628718
vt 0.447600 0.631505
vt 0.532604 0.628679
vt 0.515730 0.630082
vt 0.919140 0.724842
vt 0.893554 0.728193
vt 0.893592 0.702259
vt 0.912742 0.697186
vt 0.902115 0.674273
vt 0.862057 0.723158
vt 0.867606 0.693863
vt 0.888334 0.658564
vt 0.832472 0.718455
vt 0.867945 0.637817
vt 0.895664 0.608419
vt 0.904964 0.634392
vt 0.836055 0.685225
vt 0.918732 0.479708
vt 0.918732 0.514671
vt 0.892047 0.515711
vt 0.893793 0.478077
vt 0.918732 0.560075
vt 0.896588 0.562414
vt 0.848577 0.668047
vt 0.876999 0.564382
vt 0.868742 0.528014
vt 0.869772 0.474970
vt 0.898751 0.593589
vt 0.880895 0.596279
vt 0.918732 0.593784
vt 0.912791 0.666266
vt 0.921571 0.693056
vt 0.925837 0.723428
vt 0.085845 0.590995
vt 0.088444 0.623881
vt 0.072423 0.630747
vt 0.069058 0.591213
vt 0.038646 0.590882
vt 0.023464 0.590964
vt 0.053671 0.591053
vt 0.006802 0.591069
vt 0.038318 0.637073
vt 0.042524 0.677444
vt 0.028307 0.677634
vt 0.022538 0.642492
vt 0.021600 0.631091
vt 0.005253 0.624520
vt 0.055907 0.636873
vt 0.072953 0.641617
vt 0.069662 0.679788
vt 0.055672 0.678990
vt 0.089388 0.646008
vt 0.085767 0.678014
vt 0.012701 0.679938
vt 0.007276 0.649673
vt 0.866738 0.509238
vt 0.042066 0.709388
vt 0.025137 0.710339
vt 0.059808 0.710201
vt 0.008508 0.712988
vt 0.093513 0.710162
vt 0.076638 0.711565
vt 0.140878 0.871592
vt 0.131529 0.898394
vt 0.113039 0.891281
vt 0.115804 0.865494
vt 0.118487 0.920024
vt 0.083948 0.867095
vt 0.086297 0.896819
vt 0.103089 0.934151
vt 0.054028 0.868574
vt 0.080577 0.952573
vt 0.117008 0.959979
vt 0.104956 0.984795
vt 0.053998 0.901996
vt 0.943672 0.478077
vt 0.945418 0.515711
vt 0.940877 0.562414
vt 0.064589 0.920427
vt 0.968723 0.528014
vt 0.960466 0.564382
vt 0.967692 0.474970
vt 0.956570 0.596279
vt 0.938714 0.593589
vt 0.139859 0.903455
vt 0.128235 0.929138
vt 0.147383 0.873722
vt 0.524937 0.466239
vt 0.508150 0.466021
vt 0.511514 0.426487
vt 0.527536 0.433353
vt 0.462556 0.466269
vt 0.477738 0.466351
vt 0.492763 0.466181
vt 0.445893 0.466164
vt 0.477409 0.420160
vt 0.461630 0.414742
vt 0.467398 0.379600
vt 0.481616 0.379789
vt 0.444344 0.432713
vt 0.460692 0.426143
vt 0.494999 0.420360
vt 0.512045 0.415617
vt 0.494764 0.378244
vt 0.508753 0.377446
vt 0.528480 0.411226
vt 0.524859 0.379220
vt 0.446368 0.407561
vt 0.451793 0.377295
vt 0.970727 0.509238
vt 0.464229 0.346895
vt 0.481158 0.347846
vt 0.498900 0.347033
vt 0.447600 0.344245
vt 0.515730 0.345669
vt 0.532604 0.347072
vt 0.363962 0.974721
vt 0.222147 0.967703
vt 0.326776 0.942182
vt 0.211367 0.714220
vt 0.373093 0.722018
vt 0.249043 0.745984
vt 0.157760 0.893937
vt 0.170569 0.758010
vt 0.194294 0.814140
vt 0.200798 0.935949
vt 0.387336 0.764651
vt 0.382171 0.915917
vt 0.383396 0.930665
vt 0.366003 0.945265
vt 0.397443 0.947399
vt 0.380051 0.961999
vt 0.180696 0.974239
vt 0.145241 0.933021
vt 0.168987 0.933594
vt 0.183679 0.950674
vt 0.186106 0.918868
vt 0.371996 0.744072
vt 0.377356 0.754256
vt 0.219560 0.745095
vt 0.192287 0.760376
vt 0.209462 0.744771
vt 0.174591 0.747535
vt 0.187932 0.729149
vt 0.377590 0.742750
vt 0.402682 0.749917
vt 0.199663 0.958881
vt 0.365051 0.952706
vt 0.210319 0.740910
vt 0.163527 0.917057
vt 0.412134 0.929030
vt 0.390298 0.928285
vt 0.408749 0.765382
vt 0.393489 0.727485
vt 0.402938 0.737327
vt 0.607352 0.435228
vt 0.602980 0.435995
vt 0.599325 0.414490
vt 0.603487 0.413198
vt 0.599321 0.371261
vt 0.603483 0.372544
vt 0.599931 0.375224
vt 0.565468 0.370884
vt 0.564631 0.375224
vt 0.560819 0.372019
vt 0.560840 0.413639
vt 0.564631 0.410525
vt 0.565408 0.414846
vt 0.599931 0.410525
vt 0.563854 0.438593
vt 0.558602 0.438179
vt 0.563796 0.347321
vt 0.602905 0.349765
vt 0.560622 0.410525
vt 0.538967 0.410525
vt 0.538967 0.375224
vt 0.560622 0.375224
vt 0.558966 0.347689
vt 0.603940 0.375224
vt 0.603940 0.410525
vt 0.625596 0.375224
vt 0.625596 0.410525
vt 0.607277 0.350518
vt 0.716794 0.279735
vt 0.682512 0.170848
vt 0.734039 0.170848
vt 0.756847 0.267497
vt 0.760208 0.170848
vt 0.591254 0.245269
vt 0.552764 0.244246
vt 0.552764 0.170848
vt 0.589134 0.170848
vt 0.598225 0.320013
vt 0.622540 0.255707
vt 0.639979 0.317293
vt 0.552764 0.321282
vt 0.672572 0.258063
vt 0.634761 0.170848
vt 0.682652 0.296362
vt 0.727764 0.288489
vt 0.690917 0.310656
vt 0.592985 0.335065
vt 0.552764 0.335865
vt 0.635373 0.336473
vt 0.655852 0.331404
vt 0.279754 0.376581
vt 0.170867 0.393825
vt 0.170867 0.342298
vt 0.267516 0.416633
vt 0.170866 0.419994
vt 0.245289 0.251040
vt 0.170867 0.248920
vt 0.170867 0.212550
vt 0.244265 0.212550
vt 0.320032 0.258012
vt 0.317312 0.299766
vt 0.255726 0.282327
vt 0.321301 0.212550
vt 0.258081 0.332359
vt 0.170867 0.294547
vt 0.296381 0.342439
vt 0.288508 0.387550
vt 0.310675 0.350703
vt 0.335884 0.212551
vt 0.335084 0.252772
vt 0.336492 0.295160
vt 0.331423 0.315639
vt 0.716794 0.061961
vt 0.756847 0.074199
vt 0.591254 0.096427
vt 0.552764 0.097451
vt 0.598225 0.021684
vt 0.639979 0.024403
vt 0.622540 0.085990
vt 0.552763 0.020414
vt 0.672572 0.083633
vt 0.682652 0.045334
vt 0.727764 0.053207
vt 0.690916 0.031040
vt 0.552763 0.005831
vt 0.592985 0.006631
vt 0.635373 0.005223
vt 0.655852 0.010292
vt 0.061980 0.376580
vt 0.074217 0.416632
vt 0.096446 0.251040
vt 0.097470 0.212549
vt 0.021703 0.258010
vt 0.086008 0.282326
vt 0.024422 0.299764
vt 0.020434 0.212549
vt 0.083652 0.332358
vt 0.045353 0.342437
vt 0.053226 0.387549
vt 0.031059 0.350702
vt 0.006650 0.252771
vt 0.005850 0.212549
vt 0.005242 0.295158
vt 0.010311 0.315637
vt 0.388733 0.279735
vt 0.371488 0.170848
vt 0.423015 0.170848
vt 0.348680 0.267498
vt 0.345320 0.170848
vt 0.514273 0.245270
vt 0.516394 0.170848
vt 0.507302 0.320013
vt 0.465549 0.317294
vt 0.482987 0.255707
vt 0.432955 0.258063
vt 0.470766 0.170848
vt 0.422875 0.296362
vt 0.377764 0.288489
vt 0.414611 0.310656
vt 0.512542 0.335065
vt 0.470155 0.336473
vt 0.449675 0.331404
vt 0.279755 0.048520
vt 0.170868 0.082801
vt 0.170868 0.031274
vt 0.267518 0.008467
vt 0.170868 0.005106
vt 0.245289 0.174060
vt 0.170868 0.176180
vt 0.320032 0.167089
vt 0.255726 0.142774
vt 0.317313 0.125335
vt 0.258083 0.092741
vt 0.170868 0.130553
vt 0.296382 0.082662
vt 0.288509 0.037550
vt 0.310676 0.074398
vt 0.335085 0.172329
vt 0.336493 0.129941
vt 0.331424 0.109462
vt 0.388733 0.061961
vt 0.348680 0.074199
vt 0.514273 0.096427
vt 0.507302 0.021684
vt 0.482987 0.085990
vt 0.465548 0.024403
vt 0.432955 0.083634
vt 0.422875 0.045334
vt 0.377763 0.053207
vt 0.414611 0.031040
vt 0.512542 0.006631
vt 0.470154 0.005223
vt 0.449675 0.010292
vt 0.061981 0.048519
vt 0.074219 0.008466
vt 0.096446 0.174059
vt 0.021703 0.167088
vt 0.024423 0.125334
vt 0.086009 0.142773
vt 0.083653 0.092741
vt 0.045354 0.082661
vt 0.053227 0.037549
vt 0.031060 0.074396
vt 0.006650 0.172327
vt 0.005243 0.129940
vt 0.010312 0.109461
vt 0.971169 0.783349
vt 0.987209 0.790730
vt 0.986347 0.813087
vt 0.969786 0.819211
vt 0.972354 0.747333
vt 0.988502 0.754652
vt 0.987763 0.777107
vt 0.949336 0.644803
vt 0.950790 0.673931
vt 0.934857 0.673982
vt 0.933769 0.652180
vt 0.965652 0.613652
vt 0.980263 0.613921
vt 0.983935 0.634798
vt 0.969822 0.643780
vt 0.985281 0.829522
vt 0.979253 0.850675
vt 0.964490 0.850044
vt 0.972600 0.711663
vt 0.988767 0.718490
vt 0.988613 0.740729
vt 0.972533 0.682230
vt 0.983811 0.681232
vt 0.987466 0.702747
vt 0.701735 0.005091
vt 0.704343 0.005091
vt 0.704343 0.025003
vt 0.701735 0.025003
vt 0.956652 0.782871
vt 0.957837 0.746855
vt 0.952439 0.730737
vt 0.951492 0.712070
vt 0.950600 0.615318
vt 0.934531 0.637762
vt 0.935594 0.617015
vt 0.948785 0.818170
vt 0.949401 0.848482
vt 0.935544 0.846417
vt 0.933010 0.825776
vt 0.937168 0.681999
vt 0.952113 0.682769
vt 0.935021 0.704264
vt 0.810302 0.005091
vt 0.831494 0.005091
vt 0.831494 0.025003
vt 0.810302 0.025003
vt 0.973254 0.676222
vt 0.789110 0.005091
vt 0.789110 0.025003
vt 0.948404 0.744716
vt 0.938160 0.742106
vt 0.935693 0.720025
vt 0.767918 0.005091
vt 0.767918 0.025003
vt 0.948439 0.749275
vt 0.949889 0.781650
vt 0.935956 0.774644
vt 0.938278 0.752298
vt 0.949787 0.782981
vt 0.949513 0.806623
vt 0.933054 0.810246
vt 0.935025 0.787973
vt 0.746727 0.005091
vt 0.746727 0.025003
vt 0.725535 0.005091
vt 0.725535 0.025003
vt 0.965194 0.858378
vt 0.946873 0.855610
vt 0.852685 0.005091
vt 0.855294 0.005091
vt 0.855294 0.025003
vt 0.852686 0.025003
vt 0.820171 0.320058
vt 0.806945 0.330414
vt 0.792670 0.321071
vt 0.855508 0.320457
vt 0.842282 0.330813
vt 0.828659 0.313413
vt 0.841885 0.303058
vt 0.833794 0.337458
vt 0.820568 0.347814
vt 0.844494 0.338761
vt 0.854850 0.351987
vt 0.826213 0.363913
vt 0.850373 0.296413
vt 0.863996 0.313812
vt 0.966943 0.674161
vt 0.966556 0.682651
vt 0.985486 0.650950
vt 0.984687 0.672765
vt 0.973236 0.673823
vt 0.800418 0.294829
vt 0.811118 0.296131
vt 0.821474 0.309358
vt 0.853547 0.362687
vt 0.934349 0.848531
vt 0.967014 0.606072
vt 0.981185 0.611529
vt 0.948326 0.607138
vt 0.934326 0.614652
vt 0.980128 0.853196
vt 0.816565 0.250605
vt 0.881620 0.254616
vt 0.881620 0.274711
vt 0.881620 0.226174
vt 0.816289 0.223218
vt 0.815961 0.170773
vt 0.881620 0.170773
vt 0.783765 0.224226
vt 0.783516 0.251692
vt 0.768408 0.253051
vt 0.768760 0.225493
vt 0.801325 0.250521
vt 0.801314 0.223094
vt 0.818983 0.287247
vt 0.806278 0.278685
vt 0.805095 0.260763
vt 0.785206 0.170773
vt 0.801898 0.170773
vt 0.770387 0.170773
vt 0.946676 0.250605
vt 0.947280 0.170773
vt 0.946952 0.223218
vt 0.979476 0.224226
vt 0.994480 0.225493
vt 0.994832 0.253051
vt 0.979725 0.251692
vt 0.961927 0.223094
vt 0.961915 0.250521
vt 0.944258 0.287247
vt 0.956963 0.278685
vt 0.958146 0.260763
vt 0.978034 0.170773
vt 0.961342 0.170773
vt 0.992853 0.170772
vt 0.816565 0.090940
vt 0.881620 0.066834
vt 0.881620 0.086929
vt 0.881620 0.115371
vt 0.816289 0.118328
vt 0.783765 0.117319
vt 0.768760 0.116052
vt 0.768408 0.088495
vt 0.783516 0.089853
vt 0.801314 0.118451
vt 0.801325 0.091024
vt 0.818983 0.054298
vt 0.806278 0.062860
vt 0.805095 0.080782
vt 0.946676 0.090940
vt 0.946951 0.118327
vt 0.979476 0.117319
vt 0.979725 0.089853
vt 0.994832 0.088494
vt 0.994480 0.116052
vt 0.961915 0.091024
vt 0.961927 0.118451
vt 0.944258 0.054298
vt 0.956963 0.062860
vt 0.958145 0.080782
vt 0.873357 0.022566
vt 0.874443 0.017762
vt 0.890644 0.016659
vt 0.865859 0.032405
vt 0.873261 0.030276
vt 0.874467 0.035070
vt 0.868298 0.038707
vt 0.865447 0.021360
vt 0.867279 0.015685
vt 0.931501 0.029190
vt 0.927911 0.036462
vt 0.919031 0.033991
vt 0.920295 0.029185
vt 0.931501 0.020045
vt 0.919954 0.021486
vt 0.918202 0.016720
vt 0.927761 0.012886
vt 0.890956 0.034064
vt 0.903361 0.033799
vt 0.889800 0.045262
vt 0.872725 0.042146
vt 0.923232 0.042157
vt 0.904533 0.045165
vt 0.902595 0.016261
vt 0.904914 0.005632
vt 0.922761 0.007462
vt 0.870859 0.011063
vt 0.889477 0.005118
vt 0.221477 0.455423
vt 0.219773 0.460264
vt 0.203001 0.460252
vt 0.229563 0.445515
vt 0.222057 0.447229
vt 0.220990 0.442182
vt 0.226102 0.438685
vt 0.229551 0.456889
vt 0.225796 0.463333
vt 0.163803 0.443850
vt 0.166956 0.436317
vt 0.175051 0.440044
vt 0.173537 0.444923
vt 0.164587 0.454137
vt 0.173240 0.452578
vt 0.174577 0.457602
vt 0.169455 0.461125
vt 0.203970 0.442049
vt 0.191175 0.441337
vt 0.207307 0.432234
vt 0.223645 0.436506
vt 0.172169 0.431314
vt 0.191363 0.430832
vt 0.190615 0.459342
vt 0.188801 0.469684
vt 0.171871 0.463558
vt 0.222705 0.466076
vt 0.204432 0.469684
s 1
usemtl マテリアル.009
f 5/1/1 7/2/2 8/3/3 4/4/4
f 6/5/5 8/3/6 7/2/7
f 16/6/8 4/4/4 8/3/3 17/7/9
f 17/7/10 8/3/6 6/5/5 18/8/11
f 19/9/12 12/10/13 4/4/4 16/6/8
f 56/11/14 19/9/12 16/6/8 50/12/15
f 54/13/16 18/8/11 25/14/17 59/15/18
f 50/12/15 16/6/8 17/7/9 53/16/19
f 1/17/20 11/18/21 9/19/22 3/20/23
f 3/20/24 9/19/25 10/21/26 2/22/27
f 14/23/28 15/24/29 11/18/21 1/17/20
f 4/4/4 12/10/13 13/25/30 5/1/1
f 53/26/31 17/7/10 18/8/11 54/13/16
f 9/19/25 52/27/32 55/28/33 10/21/26
f 15/24/29 57/29/34 51/30/35 11/18/21
f 10/21/26 55/28/33 58/31/36 24/32/37
f 2/22/27 10/21/26 24/32/37 23/33/38
f 7/2/7 21/34/39 22/35/40 6/5/5
f 5/1/1 20/36/41 21/34/42 7/2/2
f 18/8/11 6/5/5 22/35/40 25/14/17
f 13/25/30 267/37/43 20/36/41 5/1/1
f 37/38/44 32/39/45 38/40/46 43/41/47
f 28/42/48 29/43/49 35/44/50 34/45/51
f 26/46/52 27/47/53 33/48/54 32/39/45
f 31/49/55 26/46/52 32/39/45 37/38/44
f 29/43/49 30/50/56 36/51/57 35/44/50
f 27/47/28 28/42/28 34/45/58 33/48/59
f 40/52/60 41/53/61 47/54/62 46/55/63
f 35/44/50 36/51/57 42/56/64 41/57/61
f 33/48/59 34/45/58 40/52/65 39/58/66
f 34/45/51 35/44/50 41/57/61 40/52/60
f 32/39/45 33/48/54 39/58/67 38/40/46
f 38/59/46 39/58/67 45/60/68 44/61/69
f 43/62/47 38/59/46 44/61/69 49/63/70
f 41/53/61 42/64/64 48/65/71 47/54/62
f 39/58/66 40/52/65 46/55/72 45/60/73
f 11/18/21 51/30/35 52/66/74 9/19/22
f 46/55/63 47/54/62 64/67/75 65/68/76
f 45/60/73 46/55/72 65/68/77 60/69/77
f 47/54/62 48/65/71 63/70/78 64/67/75
f 49/63/70 44/61/69 61/71/79 62/72/80
f 44/61/69 45/60/68 60/69/81 61/71/79
f 67/73/82 66/74/83 70/75/84 69/76/85
f 68/77/86 69/76/87 70/75/88
f 77/78/89 78/79/90 70/75/84 66/74/83
f 78/79/91 79/80/92 68/77/86 70/75/88
f 80/81/93 77/78/89 66/74/83 74/82/94
f 116/83/95 110/84/96 77/78/89 80/81/93
f 114/85/97 119/86/98 85/87/99 79/80/92
f 110/84/96 113/88/100 78/79/90 77/78/89
f 1/17/20 3/20/23 71/89/101 73/90/102
f 3/20/24 2/22/27 72/91/103 71/89/104
f 14/23/28 1/17/20 73/90/102 76/92/105
f 66/74/83 67/73/82 75/93/106 74/82/94
f 113/94/107 114/85/97 79/80/92 78/79/91
f 71/89/104 72/91/103 115/95/108 112/96/109
f 76/92/105 73/90/102 111/97/110 117/98/111
f 72/91/103 83/99/112 118/100/113 115/95/108
f 2/22/27 23/33/38 83/99/112 72/91/103
f 69/76/87 68/77/86 82/101/114 81/102/115
f 67/73/82 69/76/85 81/102/116 283/103/117
f 79/80/92 85/87/99 82/101/114 68/77/86
f 75/93/106 67/73/82 283/103/117 84/104/118
f 97/105/119 103/106/120 98/107/121 92/108/122
f 88/109/53 94/110/123 95/111/124 89/112/52
f 86/113/49 92/108/122 93/114/125 87/115/48
f 91/116/56 97/105/119 92/108/122 86/113/49
f 89/112/52 95/111/124 96/117/126 90/118/55
f 87/115/28 93/114/127 94/110/128 88/109/28
f 100/119/129 106/120/130 107/121/131 101/122/132
f 95/111/124 101/123/132 102/124/133 96/117/126
f 93/114/127 99/125/134 100/119/135 94/110/128
f 94/110/123 100/119/129 101/123/132 95/111/124
f 92/108/122 98/107/121 99/125/136 93/114/125
f 98/126/121 104/127/137 105/128/138 99/125/136
f 103/129/120 109/130/139 104/127/137 98/126/121
f 101/122/132 107/121/131 108/131/140 102/132/133
f 99/125/134 105/128/141 106/120/142 100/119/135
f 73/90/102 71/89/101 112/133/143 111/97/110
f 106/120/130 125/134/144 124/135/145 107/121/131
f 105/128/141 120/136/146 125/134/146 106/120/142
f 107/121/131 124/135/145 123/137/147 108/131/140
f 109/130/139 122/138/148 121/139/149 104/127/137
f 104/127/137 121/139/149 120/136/150 105/128/138
f 130/140/151 129/141/152 133/142/153 132/143/154
f 131/144/155 132/143/156 133/142/157
f 137/145/158 138/146/159 133/142/153 129/141/152
f 138/146/160 139/147/161 131/144/155 133/142/157
f 19/9/12 137/145/158 129/141/152 12/10/13
f 56/11/14 164/148/162 137/145/158 19/9/12
f 168/149/163 171/150/164 145/151/165 139/147/161
f 164/148/162 167/152/166 138/146/159 137/145/158
f 126/153/167 128/154/168 134/155/169 136/156/170
f 128/154/171 127/157/172 135/158/173 134/155/174
f 14/23/28 126/153/167 136/156/170 15/24/29
f 129/141/152 130/140/151 13/25/30 12/10/13
f 167/159/175 168/149/163 139/147/161 138/146/160
f 134/155/174 135/158/173 169/160/176 166/161/177
f 15/24/29 136/156/170 165/162/178 57/29/34
f 135/158/173 144/163/179 170/164/180 169/160/176
f 127/157/172 143/165/181 144/163/179 135/158/173
f 132/143/156 131/144/155 142/166/182 141/167/183
f 130/140/151 132/143/154 141/167/184 140/168/185
f 139/147/161 145/151/165 142/166/182 131/144/155
f 13/25/30 130/140/151 140/168/185 267/37/43
f 151/169/186 157/170/187 152/171/188 146/172/189
f 28/42/48 148/173/190 149/174/191 29/43/49
f 26/46/52 146/172/189 147/175/192 27/47/53
f 31/49/55 151/169/186 146/172/189 26/46/52
f 29/43/49 149/174/191 150/176/193 30/50/56
f 27/47/28 147/175/194 148/173/195 28/42/28
f 154/177/196 160/178/197 161/179/198 155/180/199
f 149/174/191 155/181/199 156/182/200 150/176/193
f 147/175/194 153/183/201 154/177/202 148/173/195
f 148/173/190 154/177/196 155/181/199 149/174/191
f 146/172/189 152/171/188 153/183/203 147/175/192
f 152/184/188 158/185/204 159/186/205 153/183/203
f 157/187/187 163/188/206 158/185/204 152/184/188
f 155/180/199 161/179/198 162/189/207 156/190/200
f 153/183/201 159/186/208 160/178/209 154/177/202
f 136/156/170 134/155/169 166/191/210 165/162/178
f 160/178/197 177/192/211 176/193/212 161/179/198
f 159/186/208 172/194/213 177/192/213 160/178/209
f 161/179/198 176/193/212 175/195/214 162/189/207
f 163/188/206 174/196/215 173/197/216 158/185/204
f 158/185/204 173/197/216 172/194/217 159/186/205
f 179/198/218 181/199/219 182/200/220 178/201/221
f 180/202/222 182/200/223 181/199/224
f 186/203/225 178/201/221 182/200/220 187/204/226
f 187/204/227 182/200/223 180/202/222 188/205/228
f 80/81/93 74/82/94 178/201/221 186/203/225
f 116/83/95 80/81/93 186/203/225 209/206/229
f 213/207/230 188/205/228 343/208/231 345/209/232
f 209/206/229 186/203/225 187/204/226 212/210/233
f 126/153/167 185/211/234 183/212/235 128/154/168
f 128/154/171 183/212/236 184/213/237 127/157/172
f 14/23/28 76/92/105 185/211/234 126/153/167
f 178/201/221 74/82/94 75/93/106 179/198/218
f 212/214/238 187/204/227 188/205/228 213/207/230
f 183/212/236 211/215/239 214/216/240 184/213/237
f 76/92/105 117/98/111 210/217/241 185/211/234
f 184/213/237 214/216/240 215/218/242 190/219/243
f 127/157/172 184/213/237 190/219/243 143/165/181
f 181/199/224 341/220/244 342/221/245 180/202/222
f 179/198/218 189/222/246 341/220/247 181/199/219
f 188/205/228 180/202/222 342/221/245 343/208/231
f 75/93/106 84/104/118 189/222/246 179/198/218
f 196/223/248 191/224/249 197/225/250 202/226/251
f 88/109/53 89/112/52 194/227/252 193/228/253
f 86/113/49 87/115/48 192/229/254 191/224/249
f 91/116/56 86/113/49 191/224/249 196/223/248
f 89/112/52 90/118/55 195/230/255 194/227/252
f 87/115/28 88/109/28 193/228/256 192/229/257
f 199/231/258 200/232/259 206/233/260 205/234/261
f 194/227/252 195/230/255 201/235/262 200/236/259
f 192/229/257 193/228/256 199/231/263 198/237/264
f 193/228/253 194/227/252 200/236/259 199/231/258
f 191/224/249 192/229/254 198/237/265 197/225/250
f 197/238/250 198/237/265 204/239/266 203/240/267
f 202/241/251 197/238/250 203/240/267 208/242/268
f 200/232/259 201/243/262 207/244/269 206/233/260
f 198/237/264 199/231/263 205/234/270 204/239/271
f 185/211/234 210/217/241 211/245/272 183/212/235
f 205/234/261 206/233/260 220/246/273 221/247/274
f 204/239/271 205/234/270 221/247/275 216/248/275
f 206/233/260 207/244/269 219/249/276 220/246/273
f 208/242/268 203/240/267 217/250/277 218/251/278
f 203/240/267 204/239/266 216/248/279 217/250/277
f 225/252/28 235/253/28 231/254/28
f 226/255/280 228/256/280 237/257/280
f 234/258/281 227/259/281 241/260/281
f 231/254/282 222/261/282 241/260/282
f 224/262/282 230/263/282 231/254/282
f 231/254/283 230/263/283 229/264/283 232/265/283
f 229/264/284 244/266/284 225/267/284 232/265/284
f 235/268/285 234/269/285 233/270/285 236/271/285
f 233/270/286 223/272/286 222/261/286 236/271/286
f 237/257/287 238/273/287 239/274/287
f 242/275/288 241/260/288 240/276/288 243/277/288
f 240/276/289 227/278/289 226/279/289 243/277/289
f 239/274/290 238/280/290 245/281/290
f 222/261/282 223/272/282 241/260/282
f 241/260/282 242/275/282 237/257/282
f 237/257/282 224/262/282 231/254/282
f 237/257/282 239/274/282 224/262/282
f 241/260/282 237/257/282 231/254/282
f 236/282/28 222/261/28 235/253/28
f 222/261/28 231/254/28 235/253/28
f 231/254/28 232/283/28 225/252/28
f 228/256/280 238/273/280 237/257/280
f 237/257/280 242/275/280 226/255/280
f 242/275/280 243/284/280 226/255/280
f 227/259/281 240/276/281 241/260/281
f 241/260/281 223/272/281 234/258/281
f 223/272/281 233/285/281 234/258/281
f 244/286/291 229/287/291 230/263/291
f 230/263/291 224/262/291 244/286/291
f 224/262/291 245/288/291 244/286/291
f 228/289/290 246/290/290 238/280/290
f 246/290/290 245/281/290 238/280/290
f 245/281/290 224/262/290 239/274/290
f 265/291/284 266/292/284 255/293/284 260/294/284
f 249/295/292 248/296/292 258/297/292
f 261/298/293 262/299/293 259/300/293
f 247/301/294 257/302/294 254/303/294
f 255/293/295 256/304/295 260/294/295
f 250/305/286 252/306/286 247/301/286 254/303/286
f 256/304/296 255/293/296 254/303/296 257/302/296
f 261/298/280 263/307/280 251/308/280 249/295/280
f 247/309/281 252/310/281 264/311/281 259/312/281
f 254/303/28 255/293/28 266/292/28 250/305/28
f 262/299/297 261/298/297 249/295/297 258/297/297
f 264/313/289 263/307/289 261/298/289 259/300/289
f 258/297/298 248/314/298 260/315/298 256/304/298
f 257/302/299 247/309/299 259/312/299 262/299/299
f 248/314/291 253/316/291 265/317/291 260/315/291
f 253/318/290 248/296/290 249/295/290 251/308/290
f 257/302/282 262/299/282 258/297/282 256/304/282
f 275/319/300 270/320/301 274/321/302
f 59/322/303 275/319/300 274/321/302 268/323/304
f 277/324/305 278/325/306 273/326/291 271/327/307
f 282/328/308 277/324/305 276/329/309 269/330/310
f 281/331/311 278/325/306 277/324/305 282/328/308
f 275/319/300 279/332/312 270/320/301
f 276/329/309 277/324/305 271/327/307 272/333/313
f 276/329/314 279/332/312 280/334/315 269/330/316
f 279/332/312 276/329/314 272/333/317 270/320/301
f 279/332/312 275/319/300 280/334/315
f 25/335/318 275/319/319 59/322/320
f 280/334/321 275/319/319 25/335/318 22/336/322
f 281/331/323 282/328/324 20/337/325 267/338/323
f 282/328/324 269/330/326 21/339/327 20/337/325
f 269/330/326 280/334/321 22/336/322 21/340/327
f 291/341/328 290/342/329 286/343/330
f 119/344/331 284/345/332 290/342/329 291/341/328
f 293/346/333 287/347/334 289/348/281 294/349/335
f 298/350/336 285/351/337 292/352/338 293/346/333
f 297/353/339 298/350/336 293/346/333 294/349/335
f 291/341/328 286/343/330 295/354/340
f 292/352/338 288/355/341 287/347/334 293/346/333
f 292/352/342 285/351/343 296/356/344 295/354/340
f 295/354/340 286/343/330 288/355/345 292/352/342
f 295/354/340 296/356/344 291/341/328
f 85/357/346 119/344/347 291/341/348
f 296/356/349 82/358/350 85/357/346 291/341/348
f 297/353/351 84/359/351 283/360/352 298/350/353
f 298/350/353 283/360/352 81/361/354 285/351/355
f 285/351/355 81/362/354 82/358/350 296/356/349
f 306/363/356 274/321/302 270/320/301
f 304/364/357 268/323/304 274/321/302 306/363/356
f 308/365/358 271/327/307 273/326/291 309/366/359
f 313/367/360 305/368/361 307/369/362 308/365/358
f 312/370/363 313/367/360 308/365/358 309/366/359
f 306/363/356 270/320/301 310/371/364
f 307/369/362 272/333/313 271/327/307 308/365/358
f 307/369/365 305/368/366 311/372/367 310/371/364
f 310/371/364 270/320/301 272/333/317 307/369/365
f 310/371/364 311/372/367 306/363/356
f 303/373/368 304/364/369 306/363/370
f 311/372/371 301/374/372 303/373/368 306/363/370
f 312/370/373 302/375/373 299/376/374 313/367/375
f 313/367/375 299/376/374 300/377/376 305/368/377
f 305/368/377 300/378/376 301/374/372 311/372/371
f 321/379/378 286/343/330 290/342/329
f 319/380/379 321/379/378 290/342/329 284/345/332
f 323/381/380 324/382/381 289/348/281 287/347/334
f 328/383/382 323/381/380 322/384/383 320/385/384
f 327/386/385 324/382/381 323/381/380 328/383/382
f 321/379/378 325/387/386 286/343/330
f 322/384/383 323/381/380 287/347/334 288/355/341
f 322/384/387 325/387/386 326/388/388 320/385/389
f 325/387/386 322/384/387 288/355/345 286/343/330
f 325/387/386 321/379/378 326/388/388
f 318/389/390 321/379/391 319/380/392
f 326/388/393 321/379/391 318/389/390 316/390/394
f 327/386/395 328/383/396 314/391/397 317/392/395
f 328/383/396 320/385/398 315/393/399 314/391/397
f 320/385/398 326/388/393 316/390/394 315/394/399
f 335/395/400 334/396/401 331/397/402
f 171/398/403 329/399/404 334/396/401 335/395/400
f 337/400/405 332/401/406 273/326/291 278/325/306
f 340/402/407 330/403/408 336/404/409 337/400/405
f 281/331/311 340/402/407 337/400/405 278/325/306
f 335/395/400 331/397/402 338/405/410
f 336/404/409 333/406/411 332/401/406 337/400/405
f 336/404/412 330/403/413 339/407/414 338/405/410
f 338/405/410 331/397/402 333/406/415 336/404/412
f 338/405/410 339/407/414 335/395/400
f 145/408/416 171/398/417 335/395/418
f 339/407/419 142/409/420 145/408/416 335/395/418
f 281/331/323 267/338/323 140/410/421 340/402/422
f 340/402/422 140/410/421 141/411/423 330/403/424
f 330/403/424 141/412/423 142/409/420 339/407/419
f 351/413/425 347/414/426 350/415/427
f 345/416/428 351/413/425 350/415/427 344/417/429
f 353/418/430 294/349/335 289/348/281 348/419/431
f 356/420/432 353/418/430 352/421/433 346/422/434
f 297/353/339 294/349/335 353/418/430 356/420/432
f 351/413/425 354/423/435 347/414/426
f 352/421/433 353/418/430 348/419/431 349/424/436
f 352/421/437 354/423/435 355/425/438 346/422/439
f 354/423/435 352/421/437 349/424/440 347/414/426
f 354/423/435 351/413/425 355/425/438
f 343/426/441 351/413/442 345/416/443
f 355/425/444 351/413/442 343/426/441 342/427/445
f 297/353/351 356/420/446 189/428/447 84/359/351
f 356/420/446 346/422/448 341/429/449 189/428/447
f 346/422/448 355/425/444 342/427/445 341/430/449
f 363/431/450 331/397/402 334/396/401
f 361/432/451 363/431/450 334/396/401 329/399/404
f 365/433/452 309/366/359 273/326/291 332/401/406
f 368/434/453 365/433/452 364/435/454 362/436/455
f 312/370/363 309/366/359 365/433/452 368/434/453
f 363/431/450 366/437/456 331/397/402
f 364/435/454 365/433/452 332/401/406 333/406/411
f 364/435/457 366/437/456 367/438/458 362/436/459
f 366/437/456 364/435/457 333/406/415 331/397/402
f 366/437/456 363/431/450 367/438/458
f 360/439/460 363/431/461 361/432/462
f 367/438/463 363/431/461 360/439/460 359/440/464
f 312/370/373 368/434/465 357/441/466 302/375/373
f 368/434/465 362/436/467 358/442/468 357/441/466
f 362/436/467 367/438/463 359/440/464 358/443/468
f 375/444/469 350/415/427 347/414/426
f 373/445/470 344/417/429 350/415/427 375/444/469
f 377/446/471 348/419/431 289/348/281 324/382/381
f 380/447/472 374/448/473 376/449/474 377/446/471
f 327/386/385 380/447/472 377/446/471 324/382/381
f 375/444/469 347/414/426 378/450/475
f 376/449/474 349/424/436 348/419/431 377/446/471
f 376/449/476 374/448/477 379/451/478 378/450/475
f 378/450/475 347/414/426 349/424/440 376/449/476
f 378/450/475 379/451/478 375/444/469
f 372/452/479 373/445/480 375/444/481
f 379/451/482 371/453/483 372/452/479 375/444/481
f 327/386/395 317/392/395 369/454/484 380/447/485
f 380/447/485 369/454/484 370/455/486 374/448/487
f 374/448/487 370/456/486 371/453/483 379/451/482
f 381/457/488 387/458/488 388/459/488 382/460/488
f 386/461/488 394/462/488 387/463/488 381/457/488
f 398/464/489 425/465/489 427/466/489 404/467/489
f 384/468/488 390/469/488 391/470/488 385/471/488
f 382/460/488 388/472/488 389/473/488 383/474/488
f 430/475/488 393/476/488 394/477/488 386/461/488
f 430/475/488 429/478/488 392/479/488 393/480/488
f 436/481/490 389/482/490 402/483/490 439/484/490
f 386/461/491 381/457/491 420/485/491 422/486/491
f 430/475/492 386/461/492 422/486/492 424/487/492 399/488/492
f 397/489/489 398/464/489 404/490/489 403/491/489
f 395/492/493 396/493/489 402/494/489 400/495/493
f 427/496/489 426/497/489 399/488/489 405/498/489
f 392/499/494 391/500/494 404/501/494 427/502/494
f 429/478/488 431/503/488 392/479/488
f 393/504/495 392/499/495 427/502/495 405/505/495
f 399/488/489 424/487/489 423/506/496 406/507/497 405/508/489
f 394/509/498 393/504/498 405/505/498 406/510/498
f 423/511/496 419/512/499 401/513/500 406/514/497
f 419/515/499 421/516/501 395/492/493 400/517/493 401/518/500
f 387/519/502 394/509/502 406/510/502 401/520/502
f 388/521/503 387/519/503 401/520/503 400/522/503
f 382/460/495 383/474/495 396/493/495 395/492/495
f 389/482/504 388/521/504 400/522/504 402/483/504
f 383/474/498 433/523/498 438/524/498 396/493/498
f 390/525/492 435/526/492 440/527/492 403/528/492
f 384/468/505 385/471/505 398/464/505 397/489/505
f 391/500/491 390/525/491 403/528/491 404/501/491
f 415/529/28 408/530/28 407/531/28
f 416/532/506 418/533/506 414/534/506 413/535/506
f 417/536/489 411/537/489 408/530/489 415/529/489
f 418/538/280 416/539/280 410/540/280
f 412/541/507 409/542/507 416/532/507 413/535/507
f 417/536/508 415/529/508 414/534/508 418/533/508
f 419/515/509 420/485/510 421/516/511
f 422/486/512 423/506/513 424/487/514
f 419/512/509 423/511/513 422/486/512 420/485/510
f 381/457/515 382/460/515 395/492/515 421/516/515 420/485/515
f 385/471/503 432/543/516 425/465/517 398/464/503
f 425/465/489 426/497/489 427/496/489
f 428/544/504 430/475/504 399/488/504 426/497/504
f 385/471/488 391/545/488 392/546/488 431/547/488
f 407/531/28 412/548/28 413/549/28
f 413/549/28 414/550/28 407/531/28
f 414/550/28 415/529/28 407/531/28
f 416/539/280 409/551/280 410/540/280
f 410/540/280 411/537/280 417/536/280
f 417/536/280 418/538/280 410/540/280
f 428/544/518 429/478/519 430/475/520
f 431/547/521 432/543/522 385/471/523
f 428/544/518 432/543/522 431/503/521 429/478/519
f 425/465/517 432/543/516 428/544/524 426/497/524
f 396/493/489 438/524/489 439/552/489 402/494/489
f 434/553/488 435/554/488 390/469/488 384/468/488
f 437/555/489 397/489/489 403/491/489 440/556/489
f 434/553/525 384/468/525 397/489/525 437/555/525
f 383/474/488 389/473/488 436/557/488 433/523/488
f 451/558/28 443/559/28 441/560/28
f 452/561/526 455/562/527 448/563/528 442/564/529
f 453/565/530 447/566/531 446/567/532 454/568/532
f 455/562/533 451/558/533 450/569/533 456/570/533
f 453/565/530 456/570/534 450/569/534 447/566/531
f 441/560/28 446/571/28 451/558/28
f 446/571/28 447/572/28 451/558/28
f 447/572/28 450/573/28 451/558/28
f 444/574/535 449/575/291 456/570/534 453/565/530
f 448/563/536 455/562/533 456/570/533 449/575/536
f 444/574/535 453/565/530 454/568/532 445/576/537
f 443/559/538 451/558/539 455/562/527 452/561/526
f 464/577/28 441/560/28 443/559/28
f 452/561/526 442/564/529 461/578/540 467/579/541
f 465/580/542 466/581/543 459/582/543 460/583/544
f 467/579/545 468/584/545 463/585/545 464/577/545
f 465/580/542 460/583/544 463/585/546 468/584/546
f 441/560/28 464/577/28 459/586/28
f 459/586/28 464/577/28 460/587/28
f 460/587/28 464/577/28 463/588/28
f 457/589/547 465/580/542 468/584/546 462/590/281
f 461/578/548 462/590/548 468/584/545 467/579/545
f 457/589/547 458/591/549 466/581/543 465/580/542
f 443/559/538 452/561/526 467/579/541 464/577/550
f 474/592/280 469/593/280 470/594/280
f 475/595/551 442/564/529 448/563/528 478/596/552
f 476/597/553 477/598/554 471/599/554 472/600/555
f 478/596/556 479/601/556 473/602/556 474/592/556
f 476/597/553 472/600/555 473/602/557 479/601/557
f 469/593/280 474/592/280 471/603/280
f 471/603/280 474/592/280 472/604/280
f 472/604/280 474/592/280 473/605/280
f 444/574/535 476/597/553 479/601/557 449/575/291
f 448/563/536 449/575/536 479/601/556 478/596/556
f 444/574/535 445/576/537 477/598/554 476/597/553
f 470/594/558 475/595/551 478/596/552 474/592/559
f 483/606/280 470/594/280 469/593/280
f 475/595/551 486/607/560 461/578/540 442/564/529
f 484/608/561 481/609/562 480/610/563 485/611/563
f 486/607/564 483/606/564 482/612/564 487/613/564
f 484/608/561 487/613/565 482/612/565 481/609/562
f 469/593/280 480/614/280 483/606/280
f 480/614/280 481/615/280 483/606/280
f 481/615/280 482/616/280 483/606/280
f 457/589/547 462/590/281 487/613/565 484/608/561
f 461/578/548 486/607/564 487/613/564 462/590/548
f 457/589/547 484/608/561 485/611/563 458/591/549
f 470/594/558 483/606/566 486/607/560 475/595/551
f 495/617/567 493/618/568 504/619/569
f 489/620/570 491/621/571 490/622/572 488/623/573
f 492/624/574 494/625/575 493/618/568 495/617/567
f 496/626/576 498/627/577 497/628/578 499/629/579
f 500/630/580 502/631/581 503/632/582 501/633/583
f 491/621/571 489/620/570 492/624/574 495/617/567
f 504/619/569 508/634/584 491/621/571 495/617/567
f 502/631/581 500/630/580 496/626/576 499/629/579
f 499/629/579 497/628/578 509/635/585
f 508/634/584 510/636/586 488/637/573 490/622/572
f 497/628/578 498/638/577 511/639/587 509/635/585
f 505/640/588 506/641/589 501/642/583 503/632/582
f 493/618/568 494/643/575 507/644/590 504/619/569
f 502/631/581 499/629/579 509/635/585 505/640/588
f 505/640/588 503/632/582 502/631/581
f 508/634/584 490/622/572 491/621/571
f 508/634/584 509/635/585 511/639/587 510/636/586
f 505/640/588 504/619/569 507/644/590 506/641/589
f 504/619/569 505/640/588 509/635/585 508/634/584
f 519/645/591 517/646/592 528/647/593
f 513/648/594 515/649/595 514/650/596 512/651/597
f 516/652/598 518/653/599 517/646/592 519/645/591
f 520/654/600 522/655/601 521/656/602 523/657/603
f 524/658/604 526/659/605 527/660/606 525/661/607
f 515/649/595 513/648/594 516/652/598 519/645/591
f 528/647/593 532/662/608 515/649/595 519/645/591
f 526/659/605 524/658/604 520/654/600 523/657/603
f 523/657/603 521/656/602 533/663/609
f 532/662/608 534/664/610 512/665/597 514/650/596
f 521/656/602 522/666/601 535/667/611 533/663/609
f 529/668/612 530/669/613 525/670/607 527/660/606
f 517/646/592 518/671/599 531/672/614 528/647/593
f 526/659/605 523/657/603 533/663/609 529/668/612
f 529/668/612 527/660/606 526/659/605
f 532/662/608 514/650/596 515/649/595
f 532/662/608 533/663/609 535/667/611 534/664/610
f 529/668/612 528/647/593 531/672/614 530/669/613
f 528/647/593 529/668/612 533/663/609 532/662/608
f 540/1/615 539/4/616 543/3/617 542/2/618
f 541/5/619 542/2/620 543/3/621
f 551/6/622 552/7/623 543/3/617 539/4/616
f 552/7/624 553/8/625 541/5/619 543/3/621
f 554/9/626 551/6/622 539/4/616 547/10/627
f 591/11/628 585/12/629 551/6/622 554/9/626
f 589/13/630 594/15/631 560/14/632 553/8/625
f 585/12/629 588/16/633 552/7/623 551/6/622
f 536/17/634 538/20/635 544/19/636 546/18/637
f 538/20/638 537/22/639 545/21/640 544/19/641
f 549/23/280 536/17/634 546/18/637 550/24/642
f 539/4/616 540/1/615 548/25/643 547/10/627
f 588/26/644 589/13/630 553/8/625 552/7/624
f 544/19/641 545/21/640 590/28/645 587/27/646
f 550/24/642 546/18/637 586/30/647 592/29/648
f 545/21/640 559/32/649 593/31/650 590/28/645
f 537/22/639 558/33/651 559/32/649 545/21/640
f 542/2/620 541/5/619 557/35/652 556/34/653
f 540/1/615 542/2/618 556/34/654 555/36/655
f 553/8/625 560/14/632 557/35/652 541/5/619
f 548/25/643 540/1/615 555/36/655 757/37/656
f 572/38/657 578/41/658 573/40/659 567/39/660
f 563/42/661 569/45/662 570/44/663 564/43/664
f 561/46/665 567/39/660 568/48/666 562/47/667
f 566/49/668 572/38/657 567/39/660 561/46/665
f 564/43/664 570/44/663 571/51/669 565/50/670
f 562/47/280 568/48/671 569/45/672 563/42/280
f 575/52/673 581/55/674 582/54/675 576/53/676
f 570/44/663 576/57/676 577/56/677 571/51/669
f 568/48/671 574/58/678 575/52/679 569/45/672
f 569/45/662 575/52/673 576/57/676 570/44/663
f 567/39/660 573/40/659 574/58/680 568/48/666
f 573/59/659 579/61/681 580/60/682 574/58/680
f 578/62/658 584/63/683 579/61/681 573/59/659
f 576/53/676 582/54/675 583/65/684 577/64/677
f 574/58/678 580/60/685 581/55/686 575/52/679
f 546/18/637 544/19/636 587/66/687 586/30/647
f 581/55/674 600/68/688 599/67/689 582/54/675
f 580/60/685 595/69/690 600/68/690 581/55/686
f 582/54/675 599/67/689 598/70/691 583/65/684
f 584/63/683 597/72/692 596/71/693 579/61/681
f 579/61/681 596/71/693 595/69/694 580/60/682
f 602/73/695 604/76/696 605/75/697 601/74/698
f 603/77/699 605/75/700 604/76/701
f 612/78/702 601/74/698 605/75/697 613/79/703
f 613/79/704 605/75/700 603/77/699 614/80/705
f 615/81/706 609/82/707 601/74/698 612/78/702
f 651/83/708 615/81/706 612/78/702 645/84/709
f 649/85/710 614/80/705 620/87/711 654/86/712
f 645/84/709 612/78/702 613/79/703 648/88/713
f 536/17/634 608/90/714 606/89/715 538/20/635
f 538/20/638 606/89/716 607/91/717 537/22/639
f 549/23/280 611/92/718 608/90/714 536/17/634
f 601/74/698 609/82/707 610/93/719 602/73/695
f 648/94/720 613/79/704 614/80/705 649/85/710
f 606/89/716 647/96/721 650/95/722 607/91/717
f 611/92/718 652/98/723 646/97/724 608/90/714
f 607/91/717 650/95/722 653/100/725 618/99/726
f 537/22/639 607/91/717 618/99/726 558/33/651
f 604/76/701 616/102/727 617/101/728 603/77/699
f 602/73/695 758/103/729 616/102/730 604/76/696
f 614/80/705 603/77/699 617/101/728 620/87/711
f 610/93/719 619/104/731 758/103/729 602/73/695
f 632/105/732 627/108/733 633/107/734 638/106/735
f 623/109/667 624/112/665 630/111/736 629/110/737
f 621/113/664 622/115/661 628/114/738 627/108/733
f 626/116/670 621/113/664 627/108/733 632/105/732
f 624/112/665 625/118/668 631/117/739 630/111/736
f 622/115/280 623/109/280 629/110/740 628/114/741
f 635/119/742 636/122/743 642/121/744 641/120/745
f 630/111/736 631/117/739 637/124/746 636/123/743
f 628/114/741 629/110/740 635/119/747 634/125/748
f 629/110/737 630/111/736 636/123/743 635/119/742
f 627/108/733 628/114/738 634/125/749 633/107/734
f 633/126/734 634/125/749 640/128/750 639/127/751
f 638/129/735 633/126/734 639/127/751 644/130/752
f 636/122/743 637/132/746 643/131/753 642/121/744
f 634/125/748 635/119/747 641/120/754 640/128/755
f 608/90/714 646/97/724 647/133/756 606/89/715
f 641/120/745 642/121/744 659/135/757 660/134/758
f 640/128/755 641/120/754 660/134/759 655/136/759
f 642/121/744 643/131/753 658/137/760 659/135/757
f 644/130/752 639/127/751 656/139/761 657/138/762
f 639/127/751 640/128/750 655/136/763 656/139/761
f 665/140/764 667/143/765 668/142/766 664/141/767
f 666/144/768 668/142/769 667/143/770
f 672/145/771 664/141/767 668/142/766 673/146/772
f 673/146/773 668/142/769 666/144/768 674/147/774
f 554/9/626 547/10/627 664/141/767 672/145/771
f 591/11/628 554/9/626 672/145/771 699/148/775
f 703/149/776 674/147/774 680/151/777 706/150/778
f 699/148/775 672/145/771 673/146/772 702/152/779
f 661/153/780 671/156/781 669/155/782 663/154/783
f 663/154/784 669/155/785 670/158/786 662/157/787
f 549/23/280 550/24/642 671/156/781 661/153/780
f 664/141/767 547/10/627 548/25/643 665/140/764
f 702/159/788 673/146/773 674/147/774 703/149/776
f 669/155/785 701/161/789 704/160/790 670/158/786
f 550/24/642 592/29/648 700/162/791 671/156/781
f 670/158/786 704/160/790 705/164/792 679/163/793
f 662/157/787 670/158/786 679/163/793 678/165/794
f 667/143/770 676/167/795 677/166/796 666/144/768
f 665/140/764 675/168/797 676/167/798 667/143/765
f 674/147/774 666/144/768 677/166/796 680/151/777
f 548/25/643 757/37/656 675/168/797 665/140/764
f 686/169/799 681/172/800 687/171/801 692/170/802
f 563/42/661 564/43/664 684/174/803 683/173/804
f 561/46/665 562/47/667 682/175/805 681/172/800
f 566/49/668 561/46/665 681/172/800 686/169/799
f 564/43/664 565/50/670 685/176/806 684/174/803
f 562/47/280 563/42/280 683/173/807 682/175/808
f 689/177/809 690/180/810 696/179/811 695/178/812
f 684/174/803 685/176/806 691/182/813 690/181/810
f 682/175/808 683/173/807 689/177/814 688/183/815
f 683/173/804 684/174/803 690/181/810 689/177/809
f 681/172/800 682/175/805 688/183/816 687/171/801
f 687/184/801 688/183/816 694/186/817 693/185/818
f 692/187/802 687/184/801 693/185/818 698/188/819
f 690/180/810 691/190/813 697/189/820 696/179/811
f 688/183/815 689/177/814 695/178/821 694/186/822
f 671/156/781 700/162/791 701/191/823 669/155/782
f 695/178/812 696/179/811 711/193/824 712/192/825
f 694/186/822 695/178/821 712/192/826 707/194/826
f 696/179/811 697/189/820 710/195/827 711/193/824
f 698/188/819 693/185/818 708/197/828 709/196/829
f 693/185/818 694/186/817 707/194/830 708/197/828
f 714/198/831 713/201/832 717/200/833 716/199/834
f 715/202/835 716/199/836 717/200/837
f 721/203/838 722/204/839 717/200/833 713/201/832
f 722/204/840 723/205/841 715/202/835 717/200/837
f 615/81/706 721/203/838 713/201/832 609/82/707
f 651/83/708 744/206/842 721/203/838 615/81/706
f 748/207/843 762/209/844 761/208/845 723/205/841
f 744/206/842 747/210/846 722/204/839 721/203/838
f 661/153/780 663/154/783 718/212/847 720/211/848
f 663/154/784 662/157/787 719/213/849 718/212/850
f 549/23/280 661/153/780 720/211/848 611/92/718
f 713/201/832 714/198/831 610/93/719 609/82/707
f 747/214/851 748/207/843 723/205/841 722/204/840
f 718/212/850 719/213/849 749/216/852 746/215/853
f 611/92/718 720/211/848 745/217/854 652/98/723
f 719/213/849 725/219/855 750/218/856 749/216/852
f 662/157/787 678/165/794 725/219/855 719/213/849
f 716/199/836 715/202/835 760/221/857 759/220/858
f 714/198/831 716/199/834 759/220/859 724/222/860
f 723/205/841 761/208/845 760/221/857 715/202/835
f 610/93/719 714/198/831 724/222/860 619/104/731
f 731/223/861 737/226/862 732/225/863 726/224/864
f 623/109/667 728/228/865 729/227/866 624/112/665
f 621/113/664 726/224/864 727/229/867 622/115/661
f 626/116/670 731/223/861 726/224/864 621/113/664
f 624/112/665 729/227/866 730/230/868 625/118/668
f 622/115/280 727/229/869 728/228/870 623/109/280
f 734/231/871 740/234/872 741/233/873 735/232/874
f 729/227/866 735/236/874 736/235/875 730/230/868
f 727/229/869 733/237/876 734/231/877 728/228/870
f 728/228/865 734/231/871 735/236/874 729/227/866
f 726/224/864 732/225/863 733/237/878 727/229/867
f 732/238/863 738/240/879 739/239/880 733/237/878
f 737/241/862 743/242/881 738/240/879 732/238/863
f 735/232/874 741/233/873 742/244/882 736/243/875
f 733/237/876 739/239/883 740/234/884 734/231/877
f 720/211/848 718/212/847 746/245/885 745/217/854
f 740/234/872 756/247/886 755/246/887 741/233/873
f 739/239/883 751/248/888 756/247/888 740/234/884
f 741/233/873 755/246/887 754/249/889 742/244/882
f 743/242/881 753/251/890 752/250/891 738/240/879
f 738/240/879 752/250/891 751/248/892 739/239/880
